<?xml version="1.0" encoding="UTF-8" standalone="no"?>
<!DOCTYPE svg PUBLIC "-//W3C//DTD SVG 1.1//EN"
 "http://www.w3.org/Graphics/SVG/1.1/DTD/svg11.dtd">
<!-- Generated by graphviz version 2.43.0 (0)
 -->
<!-- Title: Technical Specifications Pages: 1 -->
<svg width="297pt" height="98pt"
 viewBox="0.00 0.00 297.00 98.00" xmlns="http://www.w3.org/2000/svg" xmlns:xlink="http://www.w3.org/1999/xlink">
<g id="graph0" class="graph" transform="scale(1 1) rotate(0) translate(4 94)">
<title>Technical Specifications</title>
<!-- Node1 -->
<g id="Node000001" class="node">
<title>Node1</title>
<g id="a_Node000001"><a xlink:title=" ">
<polygon fill="#999999" stroke="#666666" points="124,-54 0,-54 0,-36 124,-36 124,-54"/>
<text text-anchor="middle" x="62" y="-42.8" font-family="Helvetica,sans-Serif" font-size="9.00">Technical Specifications</text>
</a>
</g>
</g>
<!-- Node2 -->
<g id="Node000002" class="node">
<title>Node2</title>
<g id="a_Node000002"><a xlink:href="a01630.html" target="_top" xlink:title=" ">
<polygon fill="white" stroke="#666666" points="263,-90 186,-90 186,-72 263,-72 263,-90"/>
<text text-anchor="middle" x="224.5" y="-78.8" font-family="Helvetica,sans-Serif" font-size="9.00">Filesystem TS</text>
</a>
</g>
</g>
<!-- Node1&#45;&gt;Node2 -->
<g id="edge1" class="edge">
<title>Node1&#45;&gt;Node2</title>
<path fill="none" stroke="black" d="M113.27,-56.28C136.71,-61.53 164.14,-67.69 185.77,-72.54"/>
<polygon fill="black" stroke="black" points="114.02,-52.86 103.5,-54.08 112.49,-59.69 114.02,-52.86"/>
</g>
<!-- Node3 -->
<g id="Node000003" class="node">
<title>Node3</title>
<g id="a_Node000003"><a xlink:href="a01631.html" target="_top" xlink:title=" ">
<polygon fill="white" stroke="#666666" points="289,-54 160,-54 160,-36 289,-36 289,-54"/>
<text text-anchor="middle" x="224.5" y="-42.8" font-family="Helvetica,sans-Serif" font-size="9.00">Library Fundamentals TS</text>
</a>
</g>
</g>
<!-- Node1&#45;&gt;Node3 -->
<g id="edge2" class="edge">
<title>Node1&#45;&gt;Node3</title>
<path fill="none" stroke="black" d="M134.39,-45C142.88,-45 151.5,-45 159.87,-45"/>
<polygon fill="black" stroke="black" points="134.14,-41.5 124.14,-45 134.14,-48.5 134.14,-41.5"/>
</g>
<!-- Node4 -->
<g id="Node000004" class="node">
<title>Node4</title>
<g id="a_Node000004"><a xlink:href="a01636.html" target="_top" xlink:title=" ">
<polygon fill="white" stroke="#666666" points="263.5,-18 185.5,-18 185.5,0 263.5,0 263.5,-18"/>
<text text-anchor="middle" x="224.5" y="-6.8" font-family="Helvetica,sans-Serif" font-size="9.00">Parallelism TS</text>
</a>
</g>
</g>
<!-- Node1&#45;&gt;Node4 -->
<g id="edge3" class="edge">
<title>Node1&#45;&gt;Node4</title>
<path fill="none" stroke="black" d="M113.55,-33.66C136.83,-28.44 163.99,-22.35 185.5,-17.52"/>
<polygon fill="black" stroke="black" points="112.49,-30.31 103.5,-35.92 114.02,-37.14 112.49,-30.31"/>
</g>
</g>
</svg>
