<?xml version="1.0" encoding="UTF-8" standalone="no"?>
<!DOCTYPE svg PUBLIC "-//W3C//DTD SVG 1.1//EN"
 "http://www.w3.org/Graphics/SVG/1.1/DTD/svg11.dtd">
<!-- Generated by graphviz version 2.43.0 (0)
 -->
<!-- Title: Concurrency Pages: 1 -->
<svg width="220pt" height="134pt"
 viewBox="0.00 0.00 220.00 134.00" xmlns="http://www.w3.org/2000/svg" xmlns:xlink="http://www.w3.org/1999/xlink">
<g id="graph0" class="graph" transform="scale(1 1) rotate(0) translate(4 130)">
<title>Concurrency</title>
<!-- Node1 -->
<g id="Node000001" class="node">
<title>Node1</title>
<g id="a_Node000001"><a xlink:title=" ">
<polygon fill="#999999" stroke="#666666" points="74,-72 0,-72 0,-54 74,-54 74,-72"/>
<text text-anchor="middle" x="37" y="-60.8" font-family="Helvetica,sans-Serif" font-size="9.00">Concurrency</text>
</a>
</g>
</g>
<!-- Node2 -->
<g id="Node000002" class="node">
<title>Node2</title>
<g id="a_Node000002"><a xlink:href="a01580.html" target="_top" xlink:title=" ">
<polygon fill="white" stroke="#666666" points="212,-126 110,-126 110,-108 212,-108 212,-126"/>
<text text-anchor="middle" x="161" y="-114.8" font-family="Helvetica,sans-Serif" font-size="9.00">Condition Variables</text>
</a>
</g>
</g>
<!-- Node1&#45;&gt;Node2 -->
<g id="edge1" class="edge">
<title>Node1&#45;&gt;Node2</title>
<path fill="none" stroke="black" d="M63.81,-76.83C77.38,-83.87 94.39,-92.32 110,-99 117.38,-102.16 125.52,-105.25 133.05,-107.95"/>
<polygon fill="black" stroke="black" points="65.09,-73.55 54.61,-72.01 61.84,-79.75 65.09,-73.55"/>
</g>
<!-- Node3 -->
<g id="Node000003" class="node">
<title>Node3</title>
<g id="a_Node000003"><a xlink:href="a01582.html" target="_top" xlink:title=" ">
<polygon fill="white" stroke="#666666" points="186,-90 136,-90 136,-72 186,-72 186,-90"/>
<text text-anchor="middle" x="161" y="-78.8" font-family="Helvetica,sans-Serif" font-size="9.00">Futures</text>
</a>
</g>
</g>
<!-- Node1&#45;&gt;Node3 -->
<g id="edge2" class="edge">
<title>Node1&#45;&gt;Node3</title>
<path fill="none" stroke="black" d="M84.31,-69.83C101.78,-72.41 120.96,-75.24 135.64,-77.41"/>
<polygon fill="black" stroke="black" points="84.68,-66.35 74.27,-68.35 83.66,-73.27 84.68,-66.35"/>
</g>
<!-- Node4 -->
<g id="Node000004" class="node">
<title>Node4</title>
<g id="a_Node000004"><a xlink:href="a01613.html" target="_top" xlink:title=" ">
<polygon fill="white" stroke="#666666" points="188,-54 134,-54 134,-36 188,-36 188,-54"/>
<text text-anchor="middle" x="161" y="-42.8" font-family="Helvetica,sans-Serif" font-size="9.00">Mutexes</text>
</a>
</g>
</g>
<!-- Node1&#45;&gt;Node4 -->
<g id="edge3" class="edge">
<title>Node1&#45;&gt;Node4</title>
<path fill="none" stroke="black" d="M84.42,-56.15C101.12,-53.69 119.36,-51 133.74,-48.87"/>
<polygon fill="black" stroke="black" points="83.66,-52.73 74.27,-57.65 84.68,-59.65 83.66,-52.73"/>
</g>
<!-- Node5 -->
<g id="Node000005" class="node">
<title>Node5</title>
<g id="a_Node000005"><a xlink:href="a01592.html" target="_top" xlink:title=" ">
<polygon fill="white" stroke="#666666" points="187.5,-18 134.5,-18 134.5,0 187.5,0 187.5,-18"/>
<text text-anchor="middle" x="161" y="-6.8" font-family="Helvetica,sans-Serif" font-size="9.00">Threads</text>
</a>
</g>
</g>
<!-- Node1&#45;&gt;Node5 -->
<g id="edge4" class="edge">
<title>Node1&#45;&gt;Node5</title>
<path fill="none" stroke="black" d="M63.81,-49.17C77.38,-42.13 94.39,-33.68 110,-27 117.8,-23.66 126.45,-20.39 134.34,-17.58"/>
<polygon fill="black" stroke="black" points="61.84,-46.25 54.61,-53.99 65.09,-52.45 61.84,-46.25"/>
</g>
</g>
</svg>
