<?xml version="1.0" encoding="UTF-8" standalone="no"?>
<!DOCTYPE svg PUBLIC "-//W3C//DTD SVG 1.1//EN"
 "http://www.w3.org/Graphics/SVG/1.1/DTD/svg11.dtd">
<!-- Generated by graphviz version 2.43.0 (0)
 -->
<!-- Title: Sequences Pages: 1 -->
<svg width="449pt" height="158pt"
 viewBox="0.00 0.00 449.00 158.00" xmlns="http://www.w3.org/2000/svg" xmlns:xlink="http://www.w3.org/1999/xlink">

<svg id="main" version="1.1" xmlns="http://www.w3.org/2000/svg" xmlns:xlink="http://www.w3.org/1999/xlink" xml:space="preserve" onload="init(evt)">
<style type="text/css"><![CDATA[
.node, .edge {opacity: 0.7;}
.node.selected, .edge.selected {opacity: 1;}
.edge:hover path { stroke: red; }
.edge:hover polygon { stroke: red; fill: red; }
]]></style>
<script type="application/ecmascript" xlink:href="svg.min.js"/>
<svg id="graph" class="graph">
<g id="graph0" class="graph" transform="scale(1 1) rotate(0) translate(4 154)">
<title>Sequences</title>
<!-- Node2 -->
<g id="Node000002" class="node">
<title>Node2</title>
<g id="a_Node000002"><a xlink:href="a01569.html" target="_top" xlink:title=" ">
<polygon fill="white" stroke="#666666" points="65,-54 0,-54 0,-36 65,-36 65,-54"/>
<text text-anchor="middle" x="32.5" y="-42.8" font-family="Helvetica,sans-Serif" font-size="9.00">Containers</text>
</a>
</g>
</g>
<!-- Node1 -->
<g id="Node000001" class="node">
<title>Node1</title>
<g id="a_Node000001"><a xlink:title=" ">
<polygon fill="#999999" stroke="#666666" points="168,-54 102,-54 102,-36 168,-36 168,-54"/>
<text text-anchor="middle" x="135" y="-42.8" font-family="Helvetica,sans-Serif" font-size="9.00">Sequences</text>
</a>
</g>
</g>
<!-- Node2&#45;&gt;Node1 -->
<g id="edge1" class="edge">
<title>Node2&#45;&gt;Node1</title>
<path fill="none" stroke="black" d="M75.24,-45C84.15,-45 93.42,-45 101.9,-45"/>
<polygon fill="black" stroke="black" points="75.02,-41.5 65.02,-45 75.02,-48.5 75.02,-41.5"/>
</g>
<!-- Node5 -->
<g id="Node000005" class="node">
<title>Node5</title>
<g id="a_Node000005"><a xlink:href="a01631.html" target="_top" xlink:title=" ">
<polygon fill="white" stroke="#666666" points="441,-127 312,-127 312,-109 441,-109 441,-127"/>
<text text-anchor="middle" x="376.5" y="-115.8" font-family="Helvetica,sans-Serif" font-size="9.00">Library Fundamentals TS</text>
</a>
</g>
</g>
<!-- Node1&#45;&gt;Node5 -->
<g id="edge4" class="edge">
<title>Node1&#45;&gt;Node5</title>
<path fill="none" stroke="orange" stroke-dasharray="5,2" d="M141.85,-54.02C150.12,-65.9 166.4,-86.4 186,-96 224.96,-115.08 273.67,-120.4 311.95,-121.04"/>
<text text-anchor="start" x="186" y="-142.8" font-family="Helvetica,sans-Serif" font-size="9.00">std::experimental::</text>
<text text-anchor="start" x="186" y="-132.8" font-family="Helvetica,sans-Serif" font-size="9.00">fundamentals_v1::basic</text>
<text text-anchor="middle" x="240" y="-122.8" font-family="Helvetica,sans-Serif" font-size="9.00">_string_view</text>
</g>
<!-- Node4 -->
<g id="Node000004" class="node">
<title>Node4</title>
<g id="a_Node000004"><a xlink:href="a01625.html" target="_top" xlink:title=" ">
<polygon fill="white" stroke="#666666" points="401,-54 352,-54 352,-36 401,-36 401,-54"/>
<text text-anchor="middle" x="376.5" y="-42.8" font-family="Helvetica,sans-Serif" font-size="9.00">Strings</text>
</a>
</g>
</g>
<!-- Node1&#45;&gt;Node4 -->
<g id="edge3" class="edge">
<title>Node1&#45;&gt;Node4</title>
<path fill="none" stroke="orange" stroke-dasharray="5,2" d="M168.3,-45C217.2,-45 308.89,-45 351.98,-45"/>
<text text-anchor="middle" x="240" y="-87.8" font-family="Helvetica,sans-Serif" font-size="9.00">std::basic_string</text>
<text text-anchor="middle" x="240" y="-77.8" font-family="Helvetica,sans-Serif" font-size="9.00">std::basic_string_view</text>
<text text-anchor="start" x="186" y="-67.8" font-family="Helvetica,sans-Serif" font-size="9.00">std::experimental::</text>
<text text-anchor="start" x="186" y="-57.8" font-family="Helvetica,sans-Serif" font-size="9.00">fundamentals_v1::basic</text>
<text text-anchor="middle" x="240" y="-47.8" font-family="Helvetica,sans-Serif" font-size="9.00">_string_view</text>
</g>
<!-- Node3 -->
<g id="Node000003" class="node">
<title>Node3</title>
<g id="a_Node000003"><a xlink:href="a01595.html" target="_top" xlink:title=" ">
<polygon fill="white" stroke="#666666" points="401.5,-18 351.5,-18 351.5,0 401.5,0 401.5,-18"/>
<text text-anchor="middle" x="376.5" y="-6.8" font-family="Helvetica,sans-Serif" font-size="9.00">Utilities</text>
</a>
</g>
</g>
<!-- Node1&#45;&gt;Node3 -->
<g id="edge2" class="edge">
<title>Node1&#45;&gt;Node3</title>
<path fill="none" stroke="orange" stroke-dasharray="5,2" d="M165.43,-35.93C172.14,-34.09 179.28,-32.32 186,-31 244.82,-19.43 315.19,-13.22 351.38,-10.58"/>
<text text-anchor="middle" x="240" y="-33.8" font-family="Helvetica,sans-Serif" font-size="9.00">std::array</text>
</g>
</g>
</svg>
</svg>

<style type='text/css'>
<![CDATA[
[data-mouse-over-selected='false'] { opacity: 0.7; }
[data-mouse-over-selected='true']  { opacity: 1.0; }
]]>
</style>
<script type="application/ecmascript"><![CDATA[
document.addEventListener('DOMContentLoaded', (event) => {
  highlightEdges();
  highlightAdjacentNodes();
});
]]></script>
</svg>
