<?xml version="1.0" encoding="UTF-8" standalone="no"?>
<!DOCTYPE svg PUBLIC "-//W3C//DTD SVG 1.1//EN"
 "http://www.w3.org/Graphics/SVG/1.1/DTD/svg11.dtd">
<!-- Generated by graphviz version 2.43.0 (0)
 -->
<!-- Title: Associative Pages: 1 -->
<svg width="289pt" height="26pt"
 viewBox="0.00 0.00 289.00 26.00" xmlns="http://www.w3.org/2000/svg" xmlns:xlink="http://www.w3.org/1999/xlink">
<g id="graph0" class="graph" transform="scale(1 1) rotate(0) translate(4 22)">
<title>Associative</title>
<!-- Node1 -->
<g id="Node000001" class="node">
<title>Node1</title>
<g id="a_Node000001"><a xlink:title=" ">
<polygon fill="#999999" stroke="#666666" points="167,-18 101,-18 101,0 167,0 167,-18"/>
<text text-anchor="middle" x="134" y="-6.8" font-family="Helvetica,sans-Serif" font-size="9.00">Associative</text>
</a>
</g>
</g>
<!-- Node3 -->
<g id="Node000003" class="node">
<title>Node3</title>
<g id="a_Node000003"><a xlink:href="a01608.html" target="_top" xlink:title=" ">
<polygon fill="white" stroke="#666666" points="281,-18 203,-18 203,0 281,0 281,-18"/>
<text text-anchor="middle" x="242" y="-6.8" font-family="Helvetica,sans-Serif" font-size="9.00">Node handles</text>
</a>
</g>
</g>
<!-- Node1&#45;&gt;Node3 -->
<g id="edge2" class="edge">
<title>Node1&#45;&gt;Node3</title>
<path fill="none" stroke="black" d="M177.13,-9C185.56,-9 194.37,-9 202.67,-9"/>
<polygon fill="black" stroke="black" points="177.09,-5.5 167.09,-9 177.09,-12.5 177.09,-5.5"/>
</g>
<!-- Node2 -->
<g id="Node000002" class="node">
<title>Node2</title>
<g id="a_Node000002"><a xlink:href="a01569.html" target="_top" xlink:title=" ">
<polygon fill="white" stroke="#666666" points="65,-18 0,-18 0,0 65,0 65,-18"/>
<text text-anchor="middle" x="32.5" y="-6.8" font-family="Helvetica,sans-Serif" font-size="9.00">Containers</text>
</a>
</g>
</g>
<!-- Node2&#45;&gt;Node1 -->
<g id="edge1" class="edge">
<title>Node2&#45;&gt;Node1</title>
<path fill="none" stroke="black" d="M75.41,-9C83.93,-9 92.75,-9 100.86,-9"/>
<polygon fill="black" stroke="black" points="75.26,-5.5 65.26,-9 75.26,-12.5 75.26,-5.5"/>
</g>
</g>
</svg>
