<?xml version="1.0" encoding="UTF-8" standalone="no"?>
<!DOCTYPE svg PUBLIC "-//W3C//DTD SVG 1.1//EN"
 "http://www.w3.org/Graphics/SVG/1.1/DTD/svg11.dtd">
<!-- Generated by graphviz version 2.43.0 (0)
 -->
<!-- Title: Containers Pages: 1 -->
<svg width="226pt" height="98pt"
 viewBox="0.00 0.00 226.00 98.00" xmlns="http://www.w3.org/2000/svg" xmlns:xlink="http://www.w3.org/1999/xlink">

<svg id="main" version="1.1" xmlns="http://www.w3.org/2000/svg" xmlns:xlink="http://www.w3.org/1999/xlink" xml:space="preserve" onload="init(evt)">
<style type="text/css"><![CDATA[
.node, .edge {opacity: 0.7;}
.node.selected, .edge.selected {opacity: 1;}
.edge:hover path { stroke: red; }
.edge:hover polygon { stroke: red; fill: red; }
]]></style>
<script type="application/ecmascript" xlink:href="svg.min.js"/>
<svg id="graph" class="graph">
<g id="graph0" class="graph" transform="scale(1 1) rotate(0) translate(4 94)">
<title>Containers</title>
<!-- Node2 -->
<g id="Node000002" class="node">
<title>Node2</title>
<g id="a_Node000002"><a xlink:href="a01571.html" target="_top" xlink:title=" ">
<polygon fill="white" stroke="#666666" points="192.5,-90 126.5,-90 126.5,-72 192.5,-72 192.5,-90"/>
<text text-anchor="middle" x="159.5" y="-78.8" font-family="Helvetica,sans-Serif" font-size="9.00">Associative</text>
</a>
</g>
</g>
<!-- Node1 -->
<g id="Node000001" class="node">
<title>Node1</title>
<g id="a_Node000001"><a xlink:title=" ">
<polygon fill="#999999" stroke="#666666" points="65,-54 0,-54 0,-36 65,-36 65,-54"/>
<text text-anchor="middle" x="32.5" y="-42.8" font-family="Helvetica,sans-Serif" font-size="9.00">Containers</text>
</a>
</g>
</g>
<!-- Node1&#45;&gt;Node2 -->
<g id="edge1" class="edge">
<title>Node1&#45;&gt;Node2</title>
<path fill="none" stroke="black" d="M74.73,-56.88C91.74,-61.77 111.13,-67.36 126.97,-71.92"/>
<polygon fill="black" stroke="black" points="75.62,-53.49 65.04,-54.08 73.68,-60.22 75.62,-53.49"/>
</g>
<!-- Node3 -->
<g id="Node000003" class="node">
<title>Node3</title>
<g id="a_Node000003"><a xlink:href="a01570.html" target="_top" xlink:title=" ">
<polygon fill="white" stroke="#666666" points="192.5,-54 126.5,-54 126.5,-36 192.5,-36 192.5,-54"/>
<text text-anchor="middle" x="159.5" y="-42.8" font-family="Helvetica,sans-Serif" font-size="9.00">Sequences</text>
</a>
</g>
</g>
<!-- Node1&#45;&gt;Node3 -->
<g id="edge2" class="edge">
<title>Node1&#45;&gt;Node3</title>
<path fill="none" stroke="black" d="M75.05,-45C91.67,-45 110.52,-45 126.1,-45"/>
<polygon fill="black" stroke="black" points="75.04,-41.5 65.04,-45 75.04,-48.5 75.04,-41.5"/>
</g>
<!-- Node4 -->
<g id="Node000004" class="node">
<title>Node4</title>
<g id="a_Node000004"><a xlink:href="a01572.html" target="_top" xlink:title=" ">
<polygon fill="white" stroke="#666666" points="218,-18 101,-18 101,0 218,0 218,-18"/>
<text text-anchor="middle" x="159.5" y="-6.8" font-family="Helvetica,sans-Serif" font-size="9.00">Unordered Associative</text>
</a>
</g>
</g>
<!-- Node1&#45;&gt;Node4 -->
<g id="edge3" class="edge">
<title>Node1&#45;&gt;Node4</title>
<path fill="none" stroke="black" d="M74.73,-33.12C91.74,-28.23 111.13,-22.64 126.97,-18.08"/>
<polygon fill="black" stroke="black" points="73.68,-29.78 65.04,-35.92 75.62,-36.51 73.68,-29.78"/>
</g>
</g>
</svg>
</svg>

<style type='text/css'>
<![CDATA[
[data-mouse-over-selected='false'] { opacity: 0.7; }
[data-mouse-over-selected='true']  { opacity: 1.0; }
]]>
</style>
<script type="application/ecmascript"><![CDATA[
document.addEventListener('DOMContentLoaded', (event) => {
  highlightEdges();
  highlightAdjacentNodes();
});
]]></script>
</svg>
