<?xml version="1.0" encoding="UTF-8" standalone="no"?>
<!DOCTYPE svg PUBLIC "-//W3C//DTD SVG 1.1//EN"
 "http://www.w3.org/Graphics/SVG/1.1/DTD/svg11.dtd">
<!-- Generated by graphviz version 2.43.0 (0)
 -->
<!-- Title: Numerics Pages: 1 -->
<svg width="249pt" height="308pt"
 viewBox="0.00 0.00 249.00 308.00" xmlns="http://www.w3.org/2000/svg" xmlns:xlink="http://www.w3.org/1999/xlink">
<g id="graph0" class="graph" transform="scale(1 1) rotate(0) translate(4 304)">
<title>Numerics</title>
<!-- Node2 -->
<g id="Node000002" class="node">
<title>Node2</title>
<g id="a_Node000002"><a xlink:href="a01576.html" target="_top" xlink:title=" ">
<polygon fill="white" stroke="#666666" points="213.5,-300 122.5,-300 122.5,-282 213.5,-282 213.5,-300"/>
<text text-anchor="middle" x="168" y="-288.8" font-family="Helvetica,sans-Serif" font-size="9.00">Bit manipulation</text>
</a>
</g>
</g>
<!-- Node3 -->
<g id="Node000003" class="node">
<title>Node3</title>
<g id="a_Node000003"><a xlink:href="a01578.html" target="_top" xlink:title=" ">
<polygon fill="white" stroke="#666666" points="218,-264 118,-264 118,-246 218,-246 218,-264"/>
<text text-anchor="middle" x="168" y="-252.8" font-family="Helvetica,sans-Serif" font-size="9.00">Complex Numbers</text>
</a>
</g>
</g>
<!-- Node4 -->
<g id="Node000004" class="node">
<title>Node4</title>
<g id="a_Node000004"><a xlink:href="a01629.html" target="_top" xlink:title=" ">
<polygon fill="white" stroke="#666666" points="226.5,-228 109.5,-228 109.5,-200 226.5,-200 226.5,-228"/>
<text text-anchor="start" x="117.5" y="-216.8" font-family="Helvetica,sans-Serif" font-size="9.00">Decimal Floating&#45;Point</text>
<text text-anchor="middle" x="168" y="-206.8" font-family="Helvetica,sans-Serif" font-size="9.00"> Arithmetic</text>
</a>
</g>
</g>
<!-- Node6 -->
<g id="Node000006" class="node">
<title>Node6</title>
<g id="a_Node000006"><a xlink:href="a01589.html" target="_top" xlink:title=" ">
<polygon fill="white" stroke="#666666" points="230.5,-182 105.5,-182 105.5,-164 230.5,-164 230.5,-182"/>
<text text-anchor="middle" x="168" y="-170.8" font-family="Helvetica,sans-Serif" font-size="9.00">Mathematical constants</text>
</a>
</g>
</g>
<!-- Node5 -->
<g id="Node000005" class="node">
<title>Node5</title>
<g id="a_Node000005"><a xlink:href="a01612.html" target="_top" xlink:title=" ">
<polygon fill="white" stroke="#666666" points="224.5,-146 111.5,-146 111.5,-118 224.5,-118 224.5,-146"/>
<text text-anchor="start" x="119.5" y="-134.8" font-family="Helvetica,sans-Serif" font-size="9.00">Mathematical Special</text>
<text text-anchor="middle" x="168" y="-124.8" font-family="Helvetica,sans-Serif" font-size="9.00"> Functions</text>
</a>
</g>
</g>
<!-- Node7 -->
<g id="Node000007" class="node">
<title>Node7</title>
<g id="a_Node000007"><a xlink:href="a01596.html" target="_top" xlink:title=" ">
<polygon fill="white" stroke="#666666" points="211,-100 125,-100 125,-82 211,-82 211,-100"/>
<text text-anchor="middle" x="168" y="-88.8" font-family="Helvetica,sans-Serif" font-size="9.00">Numeric Arrays</text>
</a>
</g>
</g>
<!-- Node1 -->
<g id="Node000001" class="node">
<title>Node1</title>
<g id="a_Node000001"><a xlink:title=" ">
<polygon fill="#999999" stroke="#666666" points="59,-161 0,-161 0,-143 59,-143 59,-161"/>
<text text-anchor="middle" x="29.5" y="-149.8" font-family="Helvetica,sans-Serif" font-size="9.00">Numerics</text>
</a>
</g>
</g>
<!-- Node1&#45;&gt;Node2 -->
<g id="edge1" class="edge">
<title>Node1&#45;&gt;Node2</title>
<path fill="none" stroke="black" d="M35.34,-171C43.2,-197.9 61.36,-246.73 95,-273 102.92,-279.19 112.7,-283.27 122.47,-285.97"/>
<polygon fill="black" stroke="black" points="38.69,-169.97 32.67,-161.25 31.94,-171.82 38.69,-169.97"/>
</g>
<!-- Node1&#45;&gt;Node3 -->
<g id="edge2" class="edge">
<title>Node1&#45;&gt;Node3</title>
<path fill="none" stroke="black" d="M39.45,-170.13C50.02,-189.65 69.46,-220.14 95,-237 101.88,-241.54 109.82,-244.94 117.86,-247.48"/>
<polygon fill="black" stroke="black" points="42.45,-168.32 34.74,-161.06 36.24,-171.55 42.45,-168.32"/>
</g>
<!-- Node1&#45;&gt;Node4 -->
<g id="edge3" class="edge">
<title>Node1&#45;&gt;Node4</title>
<path fill="none" stroke="black" d="M51.92,-166.7C64.15,-174.64 80,-184.18 95,-191 102.17,-194.26 109.93,-197.25 117.62,-199.93"/>
<polygon fill="black" stroke="black" points="53.61,-163.62 43.34,-161.01 49.74,-169.45 53.61,-163.62"/>
</g>
<!-- Node1&#45;&gt;Node6 -->
<g id="edge5" class="edge">
<title>Node1&#45;&gt;Node6</title>
<path fill="none" stroke="black" d="M69.34,-157.97C81.47,-159.84 95.15,-161.95 108.33,-163.97"/>
<polygon fill="black" stroke="black" points="69.53,-154.46 59.11,-156.4 68.47,-161.38 69.53,-154.46"/>
</g>
<!-- Node1&#45;&gt;Node5 -->
<g id="edge4" class="edge">
<title>Node1&#45;&gt;Node5</title>
<path fill="none" stroke="black" d="M69.2,-146.33C82.31,-144.41 97.23,-142.22 111.4,-140.15"/>
<polygon fill="black" stroke="black" points="68.5,-142.89 59.11,-147.81 69.52,-149.82 68.5,-142.89"/>
</g>
<!-- Node1&#45;&gt;Node7 -->
<g id="edge6" class="edge">
<title>Node1&#45;&gt;Node7</title>
<path fill="none" stroke="black" d="M49.81,-136.56C62.12,-127.39 78.76,-116.19 95,-109 104.31,-104.88 114.73,-101.59 124.69,-99.01"/>
<polygon fill="black" stroke="black" points="47.49,-133.93 41.68,-142.79 51.75,-139.49 47.49,-133.93"/>
</g>
<!-- Node8 -->
<g id="Node000008" class="node">
<title>Node8</title>
<g id="a_Node000008"><a xlink:href="a01609.html" target="_top" xlink:title=" ">
<polygon fill="white" stroke="#666666" points="241,-64 95,-64 95,-46 241,-46 241,-64"/>
<text text-anchor="middle" x="168" y="-52.8" font-family="Helvetica,sans-Serif" font-size="9.00">Random Number Generation</text>
</a>
</g>
</g>
<!-- Node1&#45;&gt;Node8 -->
<g id="edge7" class="edge">
<title>Node1&#45;&gt;Node8</title>
<path fill="none" stroke="black" d="M40.58,-133.8C51.59,-115.64 70.91,-88.29 95,-73 100.77,-69.34 107.23,-66.42 113.86,-64.1"/>
<polygon fill="black" stroke="black" points="37.34,-132.41 35.34,-142.81 43.39,-135.93 37.34,-132.41"/>
</g>
<!-- Node9 -->
<g id="Node000009" class="node">
<title>Node9</title>
<g id="a_Node000009"><a xlink:href="a01627.html" target="_top" xlink:title=" ">
<polygon fill="white" stroke="#666666" points="234.5,-28 101.5,-28 101.5,0 234.5,0 234.5,-28"/>
<text text-anchor="start" x="109.5" y="-16.8" font-family="Helvetica,sans-Serif" font-size="9.00">TR1 Mathematical Special</text>
<text text-anchor="middle" x="168" y="-6.8" font-family="Helvetica,sans-Serif" font-size="9.00"> Functions</text>
</a>
</g>
</g>
<!-- Node1&#45;&gt;Node9 -->
<g id="edge8" class="edge">
<title>Node1&#45;&gt;Node9</title>
<path fill="none" stroke="black" d="M36.2,-133.12C44.84,-107.66 63.65,-62.58 95,-37 99.27,-33.52 104.08,-30.56 109.13,-28.04"/>
<polygon fill="black" stroke="black" points="32.85,-132.12 33.12,-142.71 39.51,-134.26 32.85,-132.12"/>
</g>
</g>
</svg>
