<?xml version="1.0" encoding="UTF-8" standalone="no"?>
<!DOCTYPE svg PUBLIC "-//W3C//DTD SVG 1.1//EN"
 "http://www.w3.org/Graphics/SVG/1.1/DTD/svg11.dtd">
<!-- Generated by graphviz version 2.43.0 (0)
 -->
<!-- Title: Algorithms Pages: 1 -->
<svg width="219pt" height="144pt"
 viewBox="0.00 0.00 219.00 144.00" xmlns="http://www.w3.org/2000/svg" xmlns:xlink="http://www.w3.org/1999/xlink">

<svg id="main" version="1.1" xmlns="http://www.w3.org/2000/svg" xmlns:xlink="http://www.w3.org/1999/xlink" xml:space="preserve" onload="init(evt)">
<style type="text/css"><![CDATA[
.node, .edge {opacity: 0.7;}
.node.selected, .edge.selected {opacity: 1;}
.edge:hover path { stroke: red; }
.edge:hover polygon { stroke: red; fill: red; }
]]></style>
<script type="application/ecmascript" xlink:href="svg.min.js"/>
<svg id="graph" class="graph">
<g id="graph0" class="graph" transform="scale(1 1) rotate(0) translate(4 140)">
<title>Algorithms</title>
<!-- Node1 -->
<g id="Node000001" class="node">
<title>Node1</title>
<g id="a_Node000001"><a xlink:title=" ">
<polygon fill="#999999" stroke="#666666" points="65,-79 0,-79 0,-61 65,-61 65,-79"/>
<text text-anchor="middle" x="32.5" y="-67.8" font-family="Helvetica,sans-Serif" font-size="9.00">Algorithms</text>
</a>
</g>
</g>
<!-- Node3 -->
<g id="Node000003" class="node">
<title>Node3</title>
<g id="a_Node000003"><a xlink:href="a01598.html" target="_top" xlink:title=" ">
<polygon fill="white" stroke="#666666" points="184.5,-136 127.5,-136 127.5,-118 184.5,-118 184.5,-136"/>
<text text-anchor="middle" x="156" y="-124.8" font-family="Helvetica,sans-Serif" font-size="9.00">Mutating</text>
</a>
</g>
</g>
<!-- Node1&#45;&gt;Node3 -->
<g id="edge2" class="edge">
<title>Node1&#45;&gt;Node3</title>
<path fill="none" stroke="black" d="M55.91,-84.48C68.77,-92.39 85.41,-101.98 101,-109 109.38,-112.77 118.8,-116.18 127.39,-118.99"/>
<polygon fill="black" stroke="black" points="57.61,-81.42 47.28,-79.07 53.9,-87.35 57.61,-81.42"/>
</g>
<!-- Node4 -->
<g id="Node000004" class="node">
<title>Node4</title>
<g id="a_Node000004"><a xlink:href="a01599.html" target="_top" xlink:title=" ">
<polygon fill="white" stroke="#666666" points="195,-100 117,-100 117,-82 195,-82 195,-100"/>
<text text-anchor="middle" x="156" y="-88.8" font-family="Helvetica,sans-Serif" font-size="9.00">Non&#45;Mutating</text>
</a>
</g>
</g>
<!-- Node1&#45;&gt;Node4 -->
<g id="edge3" class="edge">
<title>Node1&#45;&gt;Node4</title>
<path fill="none" stroke="black" d="M75.08,-77.19C88.54,-79.51 103.4,-82.08 116.62,-84.37"/>
<polygon fill="black" stroke="black" points="75.56,-73.72 65.11,-75.46 74.36,-80.61 75.56,-73.72"/>
</g>
<!-- Node2 -->
<g id="Node000002" class="node">
<title>Node2</title>
<g id="a_Node000002"><a xlink:href="a01624.html" target="_top" xlink:title=" ">
<polygon fill="white" stroke="#666666" points="211,-64 101,-64 101,-36 211,-36 211,-64"/>
<text text-anchor="start" x="109" y="-52.8" font-family="Helvetica,sans-Serif" font-size="9.00">Generalized Numeric</text>
<text text-anchor="middle" x="156" y="-42.8" font-family="Helvetica,sans-Serif" font-size="9.00"> operations</text>
</a>
</g>
</g>
<!-- Node1&#45;&gt;Node2 -->
<g id="edge1" class="edge">
<title>Node1&#45;&gt;Node2</title>
<path fill="none" stroke="black" d="M74.98,-63.17C83.35,-61.8 92.25,-60.33 100.96,-58.89"/>
<polygon fill="black" stroke="black" points="74.4,-59.72 65.11,-64.8 75.54,-66.63 74.4,-59.72"/>
</g>
<!-- Node5 -->
<g id="Node000005" class="node">
<title>Node5</title>
<g id="a_Node000005"><a xlink:href="a01600.html" target="_top" xlink:title=" ">
<polygon fill="white" stroke="#666666" points="181,-18 131,-18 131,0 181,0 181,-18"/>
<text text-anchor="middle" x="156" y="-6.8" font-family="Helvetica,sans-Serif" font-size="9.00">Sorting</text>
</a>
</g>
</g>
<!-- Node1&#45;&gt;Node5 -->
<g id="edge4" class="edge">
<title>Node1&#45;&gt;Node5</title>
<path fill="none" stroke="black" d="M54.12,-54.98C67.11,-46.01 84.49,-34.86 101,-27 110.46,-22.5 121.34,-18.64 130.85,-15.66"/>
<polygon fill="black" stroke="black" points="52.06,-52.16 45.9,-60.78 56.09,-57.88 52.06,-52.16"/>
</g>
</g>
</svg>
</svg>

<style type='text/css'>
<![CDATA[
[data-mouse-over-selected='false'] { opacity: 0.7; }
[data-mouse-over-selected='true']  { opacity: 1.0; }
]]>
</style>
<script type="application/ecmascript"><![CDATA[
document.addEventListener('DOMContentLoaded', (event) => {
  highlightEdges();
  highlightAdjacentNodes();
});
]]></script>
</svg>
