<?xml version="1.0" encoding="UTF-8" standalone="no"?>
<!DOCTYPE svg PUBLIC "-//W3C//DTD SVG 1.1//EN"
 "http://www.w3.org/Graphics/SVG/1.1/DTD/svg11.dtd">
<!-- Generated by graphviz version 2.43.0 (0)
 -->
<!-- Title: Utilities Pages: 1 -->
<svg width="310pt" height="278pt"
 viewBox="0.00 0.00 310.00 278.00" xmlns="http://www.w3.org/2000/svg" xmlns:xlink="http://www.w3.org/1999/xlink">
<g id="graph0" class="graph" transform="scale(1 1) rotate(0) translate(4 274)">
<title>Utilities</title>
<!-- Node7 -->
<g id="Node000007" class="node">
<title>Node7</title>
<g id="a_Node000007"><a xlink:href="a01577.html" target="_top" xlink:title=" ">
<polygon fill="white" stroke="#666666" points="269.5,-270 231.5,-270 231.5,-252 269.5,-252 269.5,-270"/>
<text text-anchor="middle" x="250.5" y="-258.8" font-family="Helvetica,sans-Serif" font-size="9.00">Time</text>
</a>
</g>
</g>
<!-- Node2 -->
<g id="Node000002" class="node">
<title>Node2</title>
<g id="a_Node000002"><a xlink:href="a01579.html" target="_top" xlink:title=" ">
<polygon fill="white" stroke="#666666" points="280,-234 221,-234 221,-216 280,-216 280,-234"/>
<text text-anchor="middle" x="250.5" y="-222.8" font-family="Helvetica,sans-Serif" font-size="9.00">Concepts</text>
</a>
</g>
</g>
<!-- Node9 -->
<g id="Node000009" class="node">
<title>Node9</title>
<g id="a_Node000009"><a xlink:href="a01604.html" target="_top" xlink:title=" ">
<polygon fill="white" stroke="#666666" points="283.5,-198 217.5,-198 217.5,-180 283.5,-180 283.5,-198"/>
<text text-anchor="middle" x="250.5" y="-186.8" font-family="Helvetica,sans-Serif" font-size="9.00">Exceptions</text>
</a>
</g>
</g>
<!-- Node3 -->
<g id="Node000003" class="node">
<title>Node3</title>
<g id="a_Node000003"><a xlink:href="a01614.html" target="_top" xlink:title=" ">
<polygon fill="white" stroke="#666666" points="296.5,-162 204.5,-162 204.5,-144 296.5,-144 296.5,-162"/>
<text text-anchor="middle" x="250.5" y="-150.8" font-family="Helvetica,sans-Serif" font-size="9.00">Function Objects</text>
</a>
</g>
</g>
<!-- Node4 -->
<g id="Node000004" class="node">
<title>Node4</title>
<g id="a_Node000004"><a xlink:href="a01584.html" target="_top" xlink:title=" ">
<polygon fill="white" stroke="#666666" points="277,-126 224,-126 224,-108 277,-108 277,-126"/>
<text text-anchor="middle" x="250.5" y="-114.8" font-family="Helvetica,sans-Serif" font-size="9.00">Memory</text>
</a>
</g>
</g>
<!-- Node5 -->
<g id="Node000005" class="node">
<title>Node5</title>
<g id="a_Node000005"><a xlink:href="a01593.html" target="_top" xlink:title=" ">
<polygon fill="white" stroke="#666666" points="301,-90 200,-90 200,-72 301,-72 301,-90"/>
<text text-anchor="middle" x="250.5" y="-78.8" font-family="Helvetica,sans-Serif" font-size="9.00">Metaprogramming</text>
</a>
</g>
</g>
<!-- Node6 -->
<g id="Node000006" class="node">
<title>Node6</title>
<g id="a_Node000006"><a xlink:href="a01591.html" target="_top" xlink:title=" ">
<polygon fill="white" stroke="#666666" points="302,-54 199,-54 199,-36 302,-36 302,-54"/>
<text text-anchor="middle" x="250.5" y="-42.8" font-family="Helvetica,sans-Serif" font-size="9.00">Rational Arithmetic</text>
</a>
</g>
</g>
<!-- Node8 -->
<g id="Node000008" class="node">
<title>Node8</title>
<g id="a_Node000008"><a xlink:href="a01570.html" target="_top" xlink:title=" ">
<polygon fill="white" stroke="#666666" points="283.5,-18 217.5,-18 217.5,0 283.5,0 283.5,-18"/>
<text text-anchor="middle" x="250.5" y="-6.8" font-family="Helvetica,sans-Serif" font-size="9.00">Sequences</text>
</a>
</g>
</g>
<!-- Node1 -->
<g id="Node000001" class="node">
<title>Node1</title>
<g id="a_Node000001"><a xlink:title=" ">
<polygon fill="#999999" stroke="#666666" points="50,-144 0,-144 0,-126 50,-126 50,-144"/>
<text text-anchor="middle" x="25" y="-132.8" font-family="Helvetica,sans-Serif" font-size="9.00">Utilities</text>
</a>
</g>
</g>
<!-- Node1&#45;&gt;Node7 -->
<g id="edge6" class="edge">
<title>Node1&#45;&gt;Node7</title>
<path fill="none" stroke="black" d="M28.82,-154.04C33.15,-176.17 43.68,-212.08 68,-231 116.91,-269.04 195.92,-266.66 231.32,-263.27"/>
<polygon fill="black" stroke="black" points="32.26,-153.4 27.11,-144.14 25.36,-154.59 32.26,-153.4"/>
</g>
<!-- Node1&#45;&gt;Node2 -->
<g id="edge1" class="edge">
<title>Node1&#45;&gt;Node2</title>
<path fill="none" stroke="black" d="M32,-153.52C38.28,-169.69 49.79,-192.34 68,-204 114.88,-234.02 182.78,-232.75 220.85,-228.98"/>
<polygon fill="black" stroke="black" points="35.27,-152.26 28.62,-144.01 28.67,-154.6 35.27,-152.26"/>
</g>
<!-- Node1&#45;&gt;Node9 -->
<g id="edge8" class="edge">
<title>Node1&#45;&gt;Node9</title>
<path fill="none" stroke="orange" stroke-dasharray="5,2" d="M41.5,-144.08C49.24,-148.26 58.87,-152.96 68,-156 118.74,-172.91 180.52,-181.8 217.34,-185.94"/>
<text text-anchor="middle" x="124.5" y="-192.8" font-family="Helvetica,sans-Serif" font-size="9.00">std::bad_any_cast</text>
<text text-anchor="middle" x="124.5" y="-182.8" font-family="Helvetica,sans-Serif" font-size="9.00">std::bad_optional_access</text>
</g>
<!-- Node1&#45;&gt;Node3 -->
<g id="edge2" class="edge">
<title>Node1&#45;&gt;Node3</title>
<path fill="none" stroke="black" d="M60.56,-137.78C99.19,-140.89 161.87,-145.94 204.35,-149.36"/>
<polygon fill="black" stroke="black" points="60.59,-134.27 50.34,-136.96 60.03,-141.25 60.59,-134.27"/>
</g>
<!-- Node1&#45;&gt;Node4 -->
<g id="edge3" class="edge">
<title>Node1&#45;&gt;Node4</title>
<path fill="none" stroke="black" d="M60.52,-132.22C105.62,-128.59 183.58,-122.31 223.81,-119.07"/>
<polygon fill="black" stroke="black" points="60.03,-128.75 50.34,-133.04 60.59,-135.73 60.03,-128.75"/>
</g>
<!-- Node1&#45;&gt;Node5 -->
<g id="edge4" class="edge">
<title>Node1&#45;&gt;Node5</title>
<path fill="none" stroke="black" d="M55.59,-122.24C59.71,-120.69 63.93,-119.23 68,-118 111.87,-104.77 163.14,-94.8 199.98,-88.57"/>
<polygon fill="black" stroke="black" points="54.25,-119 46.24,-125.93 56.82,-125.51 54.25,-119"/>
</g>
<!-- Node1&#45;&gt;Node6 -->
<g id="edge5" class="edge">
<title>Node1&#45;&gt;Node6</title>
<path fill="none" stroke="black" d="M37.37,-117.68C44.89,-107.56 55.64,-95.36 68,-88 108.07,-64.14 160.49,-53.52 198.68,-48.79"/>
<polygon fill="black" stroke="black" points="34.5,-115.68 31.62,-125.87 40.23,-119.7 34.5,-115.68"/>
</g>
<!-- Node1&#45;&gt;Node8 -->
<g id="edge7" class="edge">
<title>Node1&#45;&gt;Node8</title>
<path fill="none" stroke="orange" stroke-dasharray="5,2" d="M27.07,-125.75C29.87,-106.12 39.3,-60.29 68,-38 111.22,-4.43 177.99,-2.83 217.36,-5.42"/>
<text text-anchor="middle" x="124.5" y="-40.8" font-family="Helvetica,sans-Serif" font-size="9.00">std::array</text>
</g>
</g>
</svg>
