<?xml version="1.0" encoding="UTF-8" standalone="no"?>
<!DOCTYPE svg PUBLIC "-//W3C//DTD SVG 1.1//EN"
 "http://www.w3.org/Graphics/SVG/1.1/DTD/svg11.dtd">
<!-- Generated by graphviz version 2.43.0 (0)
 -->
<!-- Title: Memory Pages: 1 -->
<svg width="296pt" height="154pt"
 viewBox="0.00 0.00 296.00 154.00" xmlns="http://www.w3.org/2000/svg" xmlns:xlink="http://www.w3.org/1999/xlink">
<g id="graph0" class="graph" transform="scale(1 1) rotate(0) translate(4 150)">
<title>Memory</title>
<!-- Node3 -->
<g id="Node000003" class="node">
<title>Node3</title>
<g id="a_Node000003"><a xlink:href="a01607.html" target="_top" xlink:title=" ">
<polygon fill="white" stroke="#666666" points="261.5,-146 201.5,-146 201.5,-128 261.5,-128 261.5,-146"/>
<text text-anchor="middle" x="231.5" y="-134.8" font-family="Helvetica,sans-Serif" font-size="9.00">Allocators</text>
</a>
</g>
</g>
<!-- Node1 -->
<g id="Node000001" class="node">
<title>Node1</title>
<g id="a_Node000001"><a xlink:title=" ">
<polygon fill="#999999" stroke="#666666" points="139,-84 86,-84 86,-66 139,-66 139,-84"/>
<text text-anchor="middle" x="112.5" y="-72.8" font-family="Helvetica,sans-Serif" font-size="9.00">Memory</text>
</a>
</g>
</g>
<!-- Node1&#45;&gt;Node3 -->
<g id="edge2" class="edge">
<title>Node1&#45;&gt;Node3</title>
<path fill="none" stroke="black" d="M132.27,-90.75C143.98,-99.97 159.68,-111.27 175,-119 183.23,-123.15 192.62,-126.63 201.31,-129.38"/>
<polygon fill="black" stroke="black" points="134.15,-87.77 124.17,-84.21 129.75,-93.21 134.15,-87.77"/>
</g>
<!-- Node6 -->
<g id="Node000006" class="node">
<title>Node6</title>
<g id="a_Node000006"><a xlink:href="a01587.html" target="_top" xlink:title=" ">
<polygon fill="white" stroke="#666666" points="288,-110 175,-110 175,-82 288,-82 288,-110"/>
<text text-anchor="start" x="183" y="-98.8" font-family="Helvetica,sans-Serif" font-size="9.00">Polymorphic memory</text>
<text text-anchor="middle" x="231.5" y="-88.8" font-family="Helvetica,sans-Serif" font-size="9.00"> resources</text>
</a>
</g>
</g>
<!-- Node1&#45;&gt;Node6 -->
<g id="edge5" class="edge">
<title>Node1&#45;&gt;Node6</title>
<path fill="none" stroke="black" d="M149.28,-81.42C157.32,-82.86 166.03,-84.43 174.66,-85.98"/>
<polygon fill="black" stroke="black" points="149.64,-77.93 139.18,-79.61 148.4,-84.82 149.64,-77.93"/>
</g>
<!-- Node4 -->
<g id="Node000004" class="node">
<title>Node4</title>
<g id="a_Node000004"><a xlink:href="a01585.html" target="_top" xlink:title=" ">
<polygon fill="white" stroke="#666666" points="285,-64 178,-64 178,-46 285,-46 285,-64"/>
<text text-anchor="middle" x="231.5" y="-52.8" font-family="Helvetica,sans-Serif" font-size="9.00">Pointer Abstractions</text>
</a>
</g>
</g>
<!-- Node1&#45;&gt;Node4 -->
<g id="edge3" class="edge">
<title>Node1&#45;&gt;Node4</title>
<path fill="none" stroke="black" d="M149.22,-68.89C158.16,-67.37 167.94,-65.69 177.53,-64.06"/>
<polygon fill="black" stroke="black" points="148.44,-65.48 139.18,-70.61 149.62,-72.38 148.44,-65.48"/>
</g>
<!-- Node5 -->
<g id="Node000005" class="node">
<title>Node5</title>
<g id="a_Node000005"><a xlink:href="a01586.html" target="_top" xlink:title=" ">
<polygon fill="white" stroke="#666666" points="283.5,-28 179.5,-28 179.5,0 283.5,0 283.5,-28"/>
<text text-anchor="start" x="187.5" y="-16.8" font-family="Helvetica,sans-Serif" font-size="9.00">Pointer Safety and</text>
<text text-anchor="middle" x="231.5" y="-6.8" font-family="Helvetica,sans-Serif" font-size="9.00"> Garbage Collection</text>
</a>
</g>
</g>
<!-- Node1&#45;&gt;Node5 -->
<g id="edge4" class="edge">
<title>Node1&#45;&gt;Node5</title>
<path fill="none" stroke="black" d="M135.35,-60.31C146.88,-52.86 161.42,-43.95 175,-37 181.13,-33.86 187.78,-30.81 194.29,-28.02"/>
<polygon fill="black" stroke="black" points="133.26,-57.49 126.82,-65.9 137.1,-63.35 133.26,-57.49"/>
</g>
<!-- Node2 -->
<g id="Node000002" class="node">
<title>Node2</title>
<g id="a_Node000002"><a xlink:href="a01595.html" target="_top" xlink:title=" ">
<polygon fill="white" stroke="#666666" points="50,-84 0,-84 0,-66 50,-66 50,-84"/>
<text text-anchor="middle" x="25" y="-72.8" font-family="Helvetica,sans-Serif" font-size="9.00">Utilities</text>
</a>
</g>
</g>
<!-- Node2&#45;&gt;Node1 -->
<g id="edge1" class="edge">
<title>Node2&#45;&gt;Node1</title>
<path fill="none" stroke="black" d="M60.37,-75C68.92,-75 77.94,-75 85.97,-75"/>
<polygon fill="black" stroke="black" points="60.27,-71.5 50.27,-75 60.27,-78.5 60.27,-71.5"/>
</g>
</g>
</svg>
