<?xml version="1.0" encoding="UTF-8" standalone="no"?>
<!DOCTYPE svg PUBLIC "-//W3C//DTD SVG 1.1//EN"
 "http://www.w3.org/Graphics/SVG/1.1/DTD/svg11.dtd">
<!-- Generated by graphviz version 2.43.0 (0)
 -->
<!-- Title: Iterators Pages: 1 -->
<svg width="282pt" height="118pt"
 viewBox="0.00 0.00 282.00 118.00" xmlns="http://www.w3.org/2000/svg" xmlns:xlink="http://www.w3.org/1999/xlink">
<g id="graph0" class="graph" transform="scale(1 1) rotate(0) translate(4 114)">
<title>Iterators</title>
<!-- Node3 -->
<g id="Node000003" class="node">
<title>Node3</title>
<g id="a_Node000003"><a xlink:href="a01583.html" target="_top" xlink:title=" ">
<polygon fill="white" stroke="#666666" points="252,-109 223,-109 223,-91 252,-91 252,-109"/>
<text text-anchor="middle" x="237.5" y="-97.8" font-family="Helvetica,sans-Serif" font-size="9.00">I/O</text>
</a>
</g>
</g>
<!-- Node2 -->
<g id="Node000002" class="node">
<title>Node2</title>
<g id="a_Node000002"><a xlink:href="a01623.html" target="_top" xlink:title=" ">
<polygon fill="white" stroke="#666666" points="274,-64 201,-64 201,-46 274,-46 274,-64"/>
<text text-anchor="middle" x="237.5" y="-52.8" font-family="Helvetica,sans-Serif" font-size="9.00">Iterator Tags</text>
</a>
</g>
</g>
<!-- Node1 -->
<g id="Node000001" class="node">
<title>Node1</title>
<g id="a_Node000001"><a xlink:title=" ">
<polygon fill="#999999" stroke="#666666" points="55,-63 0,-63 0,-45 55,-45 55,-63"/>
<text text-anchor="middle" x="27.5" y="-51.8" font-family="Helvetica,sans-Serif" font-size="9.00">Iterators</text>
</a>
</g>
</g>
<!-- Node1&#45;&gt;Node3 -->
<g id="edge3" class="edge">
<title>Node1&#45;&gt;Node3</title>
<path fill="none" stroke="orange" stroke-dasharray="5,2" d="M55.19,-62.93C61.02,-64.73 67.19,-66.52 73,-68 127.94,-81.97 194.59,-93.31 222.82,-97.85"/>
<text text-anchor="middle" x="128" y="-102.8" font-family="Helvetica,sans-Serif" font-size="9.00">std::istreambuf_iterator</text>
<text text-anchor="middle" x="128" y="-92.8" font-family="Helvetica,sans-Serif" font-size="9.00">std::ostreambuf_iterator</text>
</g>
<!-- Node1&#45;&gt;Node2 -->
<g id="edge1" class="edge">
<title>Node1&#45;&gt;Node2</title>
<path fill="none" stroke="black" d="M65.46,-54.18C103.7,-54.36 163.01,-54.65 200.78,-54.83"/>
<polygon fill="black" stroke="black" points="65.28,-50.68 55.27,-54.13 65.25,-57.68 65.28,-50.68"/>
</g>
<!-- Node1&#45;&gt;Node2 -->
<g id="edge2" class="edge">
<title>Node1&#45;&gt;Node2</title>
<path fill="none" stroke="orange" stroke-dasharray="5,2" d="M55.09,-45.61C60.94,-44.11 67.13,-42.78 73,-42 121.47,-35.58 134.46,-36.19 183,-42 190.12,-42.85 197.66,-44.32 204.76,-45.97"/>
<text text-anchor="middle" x="128" y="-44.8" font-family="Helvetica,sans-Serif" font-size="9.00">std::input_iterator_tag</text>
</g>
<!-- Node4 -->
<g id="Node000004" class="node">
<title>Node4</title>
<g id="a_Node000004"><a xlink:href="a01606.html" target="_top" xlink:title=" ">
<polygon fill="white" stroke="#666666" points="262,-18 213,-18 213,0 262,0 262,-18"/>
<text text-anchor="middle" x="237.5" y="-6.8" font-family="Helvetica,sans-Serif" font-size="9.00">Locales</text>
</a>
</g>
</g>
<!-- Node1&#45;&gt;Node4 -->
<g id="edge4" class="edge">
<title>Node1&#45;&gt;Node4</title>
<path fill="none" stroke="blueviolet" stroke-dasharray="5,2" d="M38.24,-44.93C46.72,-37.62 59.72,-27.8 73,-23 120.42,-5.85 180.43,-5.73 212.95,-7.28"/>
<text text-anchor="middle" x="128" y="-25.8" font-family="Helvetica,sans-Serif" font-size="9.00">std::__detail</text>
</g>
</g>
</svg>
