<?xml version="1.0" encoding="UTF-8" standalone="no"?>
<!DOCTYPE svg PUBLIC "-//W3C//DTD SVG 1.1//EN"
 "http://www.w3.org/Graphics/SVG/1.1/DTD/svg11.dtd">
<!-- Generated by graphviz version 2.43.0 (0)
 -->
<!-- Title: Branch&#45;Based Pages: 1 -->
<svg width="346pt" height="26pt"
 viewBox="0.00 0.00 346.00 26.00" xmlns="http://www.w3.org/2000/svg" xmlns:xlink="http://www.w3.org/1999/xlink">

<svg id="main" version="1.1" xmlns="http://www.w3.org/2000/svg" xmlns:xlink="http://www.w3.org/1999/xlink" xml:space="preserve" onload="init(evt)">
<style type="text/css"><![CDATA[
.node, .edge {opacity: 0.7;}
.node.selected, .edge.selected {opacity: 1;}
.edge:hover path { stroke: red; }
.edge:hover polygon { stroke: red; fill: red; }
]]></style>
<script type="application/ecmascript" xlink:href="svg.min.js"/>
<svg id="graph" class="graph">
<g id="graph0" class="graph" transform="scale(1 1) rotate(0) translate(4 22)">
<title>Branch&#45;Based</title>
<!-- Node1 -->
<g id="Node000001" class="node">
<title>Node1</title>
<g id="a_Node000001"><a xlink:title=" ">
<polygon fill="#999999" stroke="#666666" points="180,-18 101,-18 101,0 180,0 180,-18"/>
<text text-anchor="middle" x="140.5" y="-6.8" font-family="Helvetica,sans-Serif" font-size="9.00">Branch&#45;Based</text>
</a>
</g>
</g>
<!-- Node3 -->
<g id="Node000003" class="node">
<title>Node3</title>
<g id="a_Node000003"><a xlink:href="a01645.html" target="_top" xlink:title=" ">
<polygon fill="white" stroke="#666666" points="338,-18 216,-18 216,0 338,0 338,-18"/>
<text text-anchor="middle" x="277" y="-6.8" font-family="Helvetica,sans-Serif" font-size="9.00">Base and Policy Classes</text>
</a>
</g>
</g>
<!-- Node1&#45;&gt;Node3 -->
<g id="edge2" class="edge">
<title>Node1&#45;&gt;Node3</title>
<path fill="none" stroke="black" d="M190.3,-9C198.6,-9 207.31,-9 215.87,-9"/>
<polygon fill="black" stroke="black" points="190.04,-5.5 180.04,-9 190.04,-12.5 190.04,-5.5"/>
</g>
<!-- Node2 -->
<g id="Node000002" class="node">
<title>Node2</title>
<g id="a_Node000002"><a xlink:href="a01641.html" target="_top" xlink:title=" ">
<polygon fill="white" stroke="#666666" points="65,-18 0,-18 0,0 65,0 65,-18"/>
<text text-anchor="middle" x="32.5" y="-6.8" font-family="Helvetica,sans-Serif" font-size="9.00">Containers</text>
</a>
</g>
</g>
<!-- Node2&#45;&gt;Node1 -->
<g id="edge1" class="edge">
<title>Node2&#45;&gt;Node1</title>
<path fill="none" stroke="black" d="M75.08,-9C83.55,-9 92.42,-9 100.79,-9"/>
<polygon fill="black" stroke="black" points="75.02,-5.5 65.02,-9 75.02,-12.5 75.02,-5.5"/>
</g>
</g>
</svg>
</svg>

<style type='text/css'>
<![CDATA[
[data-mouse-over-selected='false'] { opacity: 0.7; }
[data-mouse-over-selected='true']  { opacity: 1.0; }
]]>
</style>
<script type="application/ecmascript"><![CDATA[
document.addEventListener('DOMContentLoaded', (event) => {
  highlightEdges();
  highlightAdjacentNodes();
});
]]></script>
</svg>
