<?xml version="1.0" encoding="UTF-8" standalone="no"?>
<!DOCTYPE svg PUBLIC "-//W3C//DTD SVG 1.1//EN"
 "http://www.w3.org/Graphics/SVG/1.1/DTD/svg11.dtd">
<!-- Generated by graphviz version 2.43.0 (0)
 -->
<!-- Title: Parallelism TS Pages: 1 -->
<svg width="406pt" height="26pt"
 viewBox="0.00 0.00 406.00 26.00" xmlns="http://www.w3.org/2000/svg" xmlns:xlink="http://www.w3.org/1999/xlink">
<g id="graph0" class="graph" transform="scale(1 1) rotate(0) translate(4 22)">
<title>Parallelism TS</title>
<!-- Node2 -->
<g id="Node000002" class="node">
<title>Node2</title>
<g id="a_Node000002"><a xlink:href="a01575.html" target="_top" xlink:title=" ">
<polygon fill="white" stroke="#666666" points="124,-18 0,-18 0,0 124,0 124,-18"/>
<text text-anchor="middle" x="62" y="-6.8" font-family="Helvetica,sans-Serif" font-size="9.00">Technical Specifications</text>
</a>
</g>
</g>
<!-- Node1 -->
<g id="Node000001" class="node">
<title>Node1</title>
<g id="a_Node000001"><a xlink:title=" ">
<polygon fill="#999999" stroke="#666666" points="238,-18 160,-18 160,0 238,0 238,-18"/>
<text text-anchor="middle" x="199" y="-6.8" font-family="Helvetica,sans-Serif" font-size="9.00">Parallelism TS</text>
</a>
</g>
</g>
<!-- Node2&#45;&gt;Node1 -->
<g id="edge1" class="edge">
<title>Node2&#45;&gt;Node1</title>
<path fill="none" stroke="black" d="M134.45,-9C143.2,-9 151.86,-9 159.83,-9"/>
<polygon fill="black" stroke="black" points="134.18,-5.5 124.18,-9 134.18,-12.5 134.18,-5.5"/>
</g>
<!-- Node3 -->
<g id="Node000003" class="node">
<title>Node3</title>
<g id="a_Node000003"><a xlink:href="a01637.html" target="_top" xlink:title=" ">
<polygon fill="white" stroke="#666666" points="398,-18 274,-18 274,0 398,0 398,-18"/>
<text text-anchor="middle" x="336" y="-6.8" font-family="Helvetica,sans-Serif" font-size="9.00">Data parallel extensions</text>
</a>
</g>
</g>
<!-- Node1&#45;&gt;Node3 -->
<g id="edge2" class="edge">
<title>Node1&#45;&gt;Node3</title>
<path fill="none" stroke="black" d="M248.48,-9C256.71,-9 265.35,-9 273.85,-9"/>
<polygon fill="black" stroke="black" points="248.32,-5.5 238.32,-9 248.32,-12.5 248.32,-5.5"/>
</g>
</g>
</svg>
