<?xml version="1.0" encoding="UTF-8" standalone="no"?>
<!DOCTYPE svg PUBLIC "-//W3C//DTD SVG 1.1//EN"
 "http://www.w3.org/Graphics/SVG/1.1/DTD/svg11.dtd">
<!-- Generated by graphviz version 2.43.0 (0)
 -->
<!-- Title: Tags Pages: 1 -->
<svg width="387pt" height="62pt"
 viewBox="0.00 0.00 387.00 62.00" xmlns="http://www.w3.org/2000/svg" xmlns:xlink="http://www.w3.org/1999/xlink">

<svg id="main" version="1.1" xmlns="http://www.w3.org/2000/svg" xmlns:xlink="http://www.w3.org/1999/xlink" xml:space="preserve" onload="init(evt)">
<style type="text/css"><![CDATA[
.node, .edge {opacity: 0.7;}
.node.selected, .edge.selected {opacity: 1;}
.edge:hover path { stroke: red; }
.edge:hover polygon { stroke: red; fill: red; }
]]></style>
<script type="application/ecmascript" xlink:href="svg.min.js"/>
<svg id="graph" class="graph">
<g id="graph0" class="graph" transform="scale(1 1) rotate(0) translate(4 58)">
<title>Tags</title>
<!-- Node3 -->
<g id="Node000003" class="node">
<title>Node3</title>
<g id="a_Node000003"><a xlink:href="a01653.html" target="_top" xlink:title=" ">
<polygon fill="white" stroke="#666666" points="370.5,-54 263.5,-54 263.5,-36 370.5,-36 370.5,-54"/>
<text text-anchor="middle" x="317" y="-42.8" font-family="Helvetica,sans-Serif" font-size="9.00">Data Structure Type</text>
</a>
</g>
</g>
<!-- Node4 -->
<g id="Node000004" class="node">
<title>Node4</title>
<g id="a_Node000004"><a xlink:href="a01652.html" target="_top" xlink:title=" ">
<polygon fill="white" stroke="#666666" points="379,-18 255,-18 255,0 379,0 379,-18"/>
<text text-anchor="middle" x="317" y="-6.8" font-family="Helvetica,sans-Serif" font-size="9.00">Invalidation Guarantees</text>
</a>
</g>
</g>
<!-- Node2 -->
<g id="Node000002" class="node">
<title>Node2</title>
<g id="a_Node000002"><a xlink:href="a01650.html" target="_top" xlink:title=" ">
<polygon fill="white" stroke="#666666" points="147,-36 0,-36 0,-18 147,-18 147,-36"/>
<text text-anchor="middle" x="73.5" y="-24.8" font-family="Helvetica,sans-Serif" font-size="9.00">Policy&#45;Based Data Structures</text>
</a>
</g>
</g>
<!-- Node1 -->
<g id="Node000001" class="node">
<title>Node1</title>
<g id="a_Node000001"><a xlink:title=" ">
<polygon fill="#999999" stroke="#666666" points="219,-36 183,-36 183,-18 219,-18 219,-36"/>
<text text-anchor="middle" x="201" y="-24.8" font-family="Helvetica,sans-Serif" font-size="9.00">Tags</text>
</a>
</g>
</g>
<!-- Node2&#45;&gt;Node1 -->
<g id="edge1" class="edge">
<title>Node2&#45;&gt;Node1</title>
<path fill="none" stroke="black" d="M157.21,-27C166.68,-27 175.47,-27 182.58,-27"/>
<polygon fill="black" stroke="black" points="157.14,-23.5 147.14,-27 157.14,-30.5 157.14,-23.5"/>
</g>
<!-- Node1&#45;&gt;Node3 -->
<g id="edge2" class="edge">
<title>Node1&#45;&gt;Node3</title>
<path fill="none" stroke="black" d="M229.29,-31.31C239.56,-32.93 251.61,-34.83 263.42,-36.7"/>
<polygon fill="black" stroke="black" points="229.74,-27.84 219.31,-29.73 228.65,-34.75 229.74,-27.84"/>
</g>
<!-- Node1&#45;&gt;Node4 -->
<g id="edge3" class="edge">
<title>Node1&#45;&gt;Node4</title>
<path fill="none" stroke="black" d="M229.45,-22.67C238.37,-21.26 248.63,-19.64 258.89,-18.02"/>
<polygon fill="black" stroke="black" points="228.65,-19.25 219.31,-24.27 229.74,-26.16 228.65,-19.25"/>
</g>
</g>
</svg>
</svg>

<style type='text/css'>
<![CDATA[
[data-mouse-over-selected='false'] { opacity: 0.7; }
[data-mouse-over-selected='true']  { opacity: 1.0; }
]]>
</style>
<script type="application/ecmascript"><![CDATA[
document.addEventListener('DOMContentLoaded', (event) => {
  highlightEdges();
  highlightAdjacentNodes();
});
]]></script>
</svg>
