<?xml version="1.0" encoding="UTF-8" standalone="no"?>
<!DOCTYPE svg PUBLIC "-//W3C//DTD SVG 1.1//EN"
 "http://www.w3.org/Graphics/SVG/1.1/DTD/svg11.dtd">
<!-- Generated by graphviz version 2.43.0 (0)
 -->
<!-- Title: Library Fundamentals TS Pages: 1 -->
<svg width="583pt" height="352pt"
 viewBox="0.00 0.00 583.00 352.45" xmlns="http://www.w3.org/2000/svg" xmlns:xlink="http://www.w3.org/1999/xlink">
<g id="graph0" class="graph" transform="scale(1 1) rotate(0) translate(4 348.45)">
<title>Library Fundamentals TS</title>
<!-- Node8 -->
<g id="Node000008" class="node">
<title>Node8</title>
<g id="a_Node000008"><a xlink:href="a01632.html" target="_top" xlink:title=" ">
<polygon fill="white" stroke="#666666" points="556.5,-344.45 452.5,-344.45 452.5,-316.45 556.5,-316.45 556.5,-344.45"/>
<text text-anchor="start" x="460.5" y="-333.25" font-family="Helvetica,sans-Serif" font-size="9.00">Type&#45;safe container</text>
<text text-anchor="middle" x="504.5" y="-323.25" font-family="Helvetica,sans-Serif" font-size="9.00"> of any type</text>
</a>
</g>
</g>
<!-- Node2 -->
<g id="Node000002" class="node">
<title>Node2</title>
<g id="a_Node000002"><a xlink:href="a01575.html" target="_top" xlink:title=" ">
<polygon fill="white" stroke="#666666" points="124,-180.45 0,-180.45 0,-162.45 124,-162.45 124,-180.45"/>
<text text-anchor="middle" x="62" y="-169.25" font-family="Helvetica,sans-Serif" font-size="9.00">Technical Specifications</text>
</a>
</g>
</g>
<!-- Node1 -->
<g id="Node000001" class="node">
<title>Node1</title>
<g id="a_Node000001"><a xlink:title=" ">
<polygon fill="#999999" stroke="#666666" points="290,-180.45 161,-180.45 161,-162.45 290,-162.45 290,-180.45"/>
<text text-anchor="middle" x="225.5" y="-169.25" font-family="Helvetica,sans-Serif" font-size="9.00">Library Fundamentals TS</text>
</a>
</g>
</g>
<!-- Node2&#45;&gt;Node1 -->
<g id="edge1" class="edge">
<title>Node2&#45;&gt;Node1</title>
<path fill="none" stroke="black" d="M134.06,-171.45C143.01,-171.45 152.12,-171.45 160.94,-171.45"/>
<polygon fill="black" stroke="black" points="134.06,-167.95 124.06,-171.45 134.06,-174.95 134.06,-167.95"/>
</g>
<!-- Node5 -->
<g id="Node000005" class="node">
<title>Node5</title>
<g id="a_Node000005"><a xlink:href="a01639.html" target="_top" xlink:title=" ">
<polygon fill="white" stroke="#666666" points="548.5,-298.45 460.5,-298.45 460.5,-280.45 548.5,-280.45 548.5,-298.45"/>
<text text-anchor="middle" x="504.5" y="-287.25" font-family="Helvetica,sans-Serif" font-size="9.00">Detection idiom</text>
</a>
</g>
</g>
<!-- Node6 -->
<g id="Node000006" class="node">
<title>Node6</title>
<g id="a_Node000006"><a xlink:href="a01640.html" target="_top" xlink:title=" ">
<polygon fill="white" stroke="#666666" points="562,-262.45 447,-262.45 447,-244.45 562,-244.45 562,-262.45"/>
<text text-anchor="middle" x="504.5" y="-251.25" font-family="Helvetica,sans-Serif" font-size="9.00">Logical operator traits</text>
</a>
</g>
</g>
<!-- Node9 -->
<g id="Node000009" class="node">
<title>Node9</title>
<g id="a_Node000009"><a xlink:href="a01638.html" target="_top" xlink:title=" ">
<polygon fill="white" stroke="#666666" points="559.5,-226.45 449.5,-226.45 449.5,-198.45 559.5,-198.45 559.5,-226.45"/>
<text text-anchor="start" x="457.5" y="-215.25" font-family="Helvetica,sans-Serif" font-size="9.00">Variable template for</text>
<text text-anchor="middle" x="504.5" y="-205.25" font-family="Helvetica,sans-Serif" font-size="9.00"> type traits</text>
</a>
</g>
</g>
<!-- Node1&#45;&gt;Node8 -->
<g id="edge7" class="edge">
<title>Node1&#45;&gt;Node8</title>
<path fill="none" stroke="black" d="M237.31,-189.15C251.17,-210.42 277.13,-245.83 308,-266.45 352.1,-295.92 410.82,-312.73 452.36,-321.66"/>
<polygon fill="black" stroke="black" points="240.12,-187.05 231.82,-180.47 234.21,-190.79 240.12,-187.05"/>
</g>
<!-- Node1&#45;&gt;Node5 -->
<g id="edge4" class="edge">
<title>Node1&#45;&gt;Node5</title>
<path fill="none" stroke="black" d="M243.45,-187.64C259.1,-201.79 283.54,-221.97 308,-234.45 357.15,-259.53 419.27,-274.5 460.13,-282.35"/>
<polygon fill="black" stroke="black" points="245.44,-184.71 235.73,-180.49 240.69,-189.85 245.44,-184.71"/>
</g>
<!-- Node1&#45;&gt;Node6 -->
<g id="edge5" class="edge">
<title>Node1&#45;&gt;Node6</title>
<path fill="none" stroke="black" d="M254.76,-184.99C270.23,-192.05 289.9,-200.44 308,-206.45 357.69,-222.96 416.27,-236.26 456.26,-244.44"/>
<polygon fill="black" stroke="black" points="255.79,-181.61 245.25,-180.58 252.85,-187.97 255.79,-181.61"/>
</g>
<!-- Node1&#45;&gt;Node9 -->
<g id="edge8" class="edge">
<title>Node1&#45;&gt;Node9</title>
<path fill="none" stroke="black" d="M287.72,-182.19C294.56,-183.32 301.42,-184.43 308,-185.45 355.74,-192.85 410.2,-200.29 449.49,-205.48"/>
<polygon fill="black" stroke="black" points="288.2,-178.72 277.76,-180.52 287.04,-185.63 288.2,-178.72"/>
</g>
<!-- Node3 -->
<g id="Node000003" class="node">
<title>Node3</title>
<g id="a_Node000003"><a xlink:href="a01633.html" target="_top" xlink:title=" ">
<polygon fill="white" stroke="#666666" points="567,-180.45 442,-180.45 442,-162.45 567,-162.45 567,-180.45"/>
<text text-anchor="middle" x="504.5" y="-169.25" font-family="Helvetica,sans-Serif" font-size="9.00">Array creation functions</text>
</a>
</g>
</g>
<!-- Node1&#45;&gt;Node3 -->
<g id="edge2" class="edge">
<title>Node1&#45;&gt;Node3</title>
<path fill="none" stroke="black" d="M300.15,-171.45C344.3,-171.45 399.81,-171.45 441.68,-171.45"/>
<polygon fill="black" stroke="black" points="300.05,-167.95 290.05,-171.45 300.05,-174.95 300.05,-167.95"/>
</g>
<!-- Node7 -->
<g id="Node000007" class="node">
<title>Node7</title>
<g id="a_Node000007"><a xlink:href="a01634.html" target="_top" xlink:title=" ">
<polygon fill="white" stroke="#666666" points="547.5,-144.45 461.5,-144.45 461.5,-126.45 547.5,-126.45 547.5,-144.45"/>
<text text-anchor="middle" x="504.5" y="-133.25" font-family="Helvetica,sans-Serif" font-size="9.00">Optional values</text>
</a>
</g>
</g>
<!-- Node1&#45;&gt;Node7 -->
<g id="edge6" class="edge">
<title>Node1&#45;&gt;Node7</title>
<path fill="none" stroke="black" d="M300.13,-161.88C351.64,-155.19 418.6,-146.48 461.33,-140.93"/>
<polygon fill="black" stroke="black" points="299.51,-158.43 290.05,-163.19 300.42,-165.37 299.51,-158.43"/>
</g>
<!-- Node4 -->
<g id="Node000004" class="node">
<title>Node4</title>
<g id="a_Node000004"><a xlink:href="a01635.html" target="_top" xlink:title=" ">
<polygon fill="white" stroke="#666666" points="575,-108.45 434,-108.45 434,-90.45 575,-90.45 575,-108.45"/>
<text text-anchor="middle" x="504.5" y="-97.25" font-family="Helvetica,sans-Serif" font-size="9.00">Const&#45;propagating wrapper</text>
</a>
</g>
</g>
<!-- Node1&#45;&gt;Node4 -->
<g id="edge3" class="edge">
<title>Node1&#45;&gt;Node4</title>
<path fill="none" stroke="black" d="M260.14,-158.97C274.74,-153.79 292.09,-147.96 308,-143.45 358.21,-129.22 416.7,-116.56 456.53,-108.52"/>
<polygon fill="black" stroke="black" points="258.76,-155.74 250.53,-162.42 261.12,-162.33 258.76,-155.74"/>
</g>
<!-- Node11 -->
<g id="Node000011" class="node">
<title>Node11</title>
<g id="a_Node000011"><a xlink:href="a01570.html" target="_top" xlink:title=" ">
<polygon fill="white" stroke="#666666" points="537.5,-72.45 471.5,-72.45 471.5,-54.45 537.5,-54.45 537.5,-72.45"/>
<text text-anchor="middle" x="504.5" y="-61.25" font-family="Helvetica,sans-Serif" font-size="9.00">Sequences</text>
</a>
</g>
</g>
<!-- Node1&#45;&gt;Node11 -->
<g id="edge10" class="edge">
<title>Node1&#45;&gt;Node11</title>
<path fill="none" stroke="orange" stroke-dasharray="5,2" d="M231.85,-162.34C243.21,-143.93 271.7,-102.55 308,-84.45 360.7,-58.18 431.14,-57.78 471.49,-60.31"/>
<text text-anchor="start" x="308" y="-107.25" font-family="Helvetica,sans-Serif" font-size="9.00">std::experimental::</text>
<text text-anchor="start" x="308" y="-97.25" font-family="Helvetica,sans-Serif" font-size="9.00">fundamentals_v1::basic</text>
<text text-anchor="middle" x="362" y="-87.25" font-family="Helvetica,sans-Serif" font-size="9.00">_string_view</text>
</g>
<!-- Node10 -->
<g id="Node000010" class="node">
<title>Node10</title>
<g id="a_Node000010"><a xlink:href="a01625.html" target="_top" xlink:title=" ">
<polygon fill="white" stroke="#666666" points="529,-19.45 480,-19.45 480,-1.45 529,-1.45 529,-19.45"/>
<text text-anchor="middle" x="504.5" y="-8.25" font-family="Helvetica,sans-Serif" font-size="9.00">Strings</text>
</a>
</g>
</g>
<!-- Node1&#45;&gt;Node10 -->
<g id="edge9" class="edge">
<title>Node1&#45;&gt;Node10</title>
<path fill="none" stroke="orange" stroke-dasharray="5,2" d="M228.5,-162.26C234.81,-135.79 256.95,-59.19 308,-26.45 361.46,7.83 440.79,0.66 479.92,-5.77"/>
<text text-anchor="start" x="308" y="-49.25" font-family="Helvetica,sans-Serif" font-size="9.00">std::experimental::</text>
<text text-anchor="start" x="308" y="-39.25" font-family="Helvetica,sans-Serif" font-size="9.00">fundamentals_v1::basic</text>
<text text-anchor="middle" x="362" y="-29.25" font-family="Helvetica,sans-Serif" font-size="9.00">_string_view</text>
</g>
</g>
</svg>
