<?xml version="1.0" encoding="UTF-8" standalone="no"?>
<!DOCTYPE svg PUBLIC "-//W3C//DTD SVG 1.1//EN"
 "http://www.w3.org/Graphics/SVG/1.1/DTD/svg11.dtd">
<!-- Generated by graphviz version 2.43.0 (0)
 -->
<!-- Title: Random Number Distributions Pages: 1 -->
<svg width="499pt" height="170pt"
 viewBox="0.00 0.00 499.00 170.00" xmlns="http://www.w3.org/2000/svg" xmlns:xlink="http://www.w3.org/1999/xlink">

<svg id="main" version="1.1" xmlns="http://www.w3.org/2000/svg" xmlns:xlink="http://www.w3.org/1999/xlink" xml:space="preserve" onload="init(evt)">
<style type="text/css"><![CDATA[
.node, .edge {opacity: 0.7;}
.node.selected, .edge.selected {opacity: 1;}
.edge:hover path { stroke: red; }
.edge:hover polygon { stroke: red; fill: red; }
]]></style>
<script type="application/ecmascript" xlink:href="svg.min.js"/>
<svg id="graph" class="graph">
<g id="graph0" class="graph" transform="scale(1 1) rotate(0) translate(4 166)">
<title>Random Number Distributions</title>
<!-- Node2 -->
<g id="Node000002" class="node">
<title>Node2</title>
<g id="a_Node000002"><a xlink:href="a01609.html" target="_top" xlink:title=" ">
<polygon fill="white" stroke="#666666" points="146,-90 0,-90 0,-72 146,-72 146,-90"/>
<text text-anchor="middle" x="73" y="-78.8" font-family="Helvetica,sans-Serif" font-size="9.00">Random Number Generation</text>
</a>
</g>
</g>
<!-- Node1 -->
<g id="Node000001" class="node">
<title>Node1</title>
<g id="a_Node000001"><a xlink:title=" ">
<polygon fill="#999999" stroke="#666666" points="336,-90 182,-90 182,-72 336,-72 336,-90"/>
<text text-anchor="middle" x="259" y="-78.8" font-family="Helvetica,sans-Serif" font-size="9.00">Random Number Distributions</text>
</a>
</g>
</g>
<!-- Node2&#45;&gt;Node1 -->
<g id="edge1" class="edge">
<title>Node2&#45;&gt;Node1</title>
<path fill="none" stroke="black" d="M156.41,-81C164.85,-81 173.4,-81 181.77,-81"/>
<polygon fill="black" stroke="black" points="156.19,-77.5 146.19,-81 156.19,-84.5 156.19,-77.5"/>
</g>
<!-- Node3 -->
<g id="Node000003" class="node">
<title>Node3</title>
<g id="a_Node000003"><a xlink:href="a01660.html" target="_top" xlink:title=" ">
<polygon fill="white" stroke="#666666" points="489.5,-162 373.5,-162 373.5,-144 489.5,-144 489.5,-162"/>
<text text-anchor="middle" x="431.5" y="-150.8" font-family="Helvetica,sans-Serif" font-size="9.00">Bernoulli Distributions</text>
</a>
</g>
</g>
<!-- Node1&#45;&gt;Node3 -->
<g id="edge2" class="edge">
<title>Node1&#45;&gt;Node3</title>
<path fill="none" stroke="black" d="M285.59,-94.71C307.98,-106.36 341.58,-123.07 372,-135 380.31,-138.26 389.46,-141.32 398.01,-143.96"/>
<polygon fill="black" stroke="black" points="287.2,-91.6 276.72,-90.05 283.95,-97.8 287.2,-91.6"/>
</g>
<!-- Node4 -->
<g id="Node000004" class="node">
<title>Node4</title>
<g id="a_Node000004"><a xlink:href="a01658.html" target="_top" xlink:title=" ">
<polygon fill="white" stroke="#666666" points="486,-126 377,-126 377,-108 486,-108 486,-126"/>
<text text-anchor="middle" x="431.5" y="-114.8" font-family="Helvetica,sans-Serif" font-size="9.00">Normal Distributions</text>
</a>
</g>
</g>
<!-- Node1&#45;&gt;Node4 -->
<g id="edge3" class="edge">
<title>Node1&#45;&gt;Node4</title>
<path fill="none" stroke="black" d="M313.05,-92.2C337.09,-97.28 365.13,-103.2 387.79,-107.98"/>
<polygon fill="black" stroke="black" points="313.53,-88.73 303.02,-90.08 312.09,-95.57 313.53,-88.73"/>
</g>
<!-- Node5 -->
<g id="Node000005" class="node">
<title>Node5</title>
<g id="a_Node000005"><a xlink:href="a01659.html" target="_top" xlink:title=" ">
<polygon fill="white" stroke="#666666" points="486.5,-90 376.5,-90 376.5,-72 486.5,-72 486.5,-90"/>
<text text-anchor="middle" x="431.5" y="-78.8" font-family="Helvetica,sans-Serif" font-size="9.00">Poisson Distributions</text>
</a>
</g>
</g>
<!-- Node1&#45;&gt;Node5 -->
<g id="edge4" class="edge">
<title>Node1&#45;&gt;Node5</title>
<path fill="none" stroke="black" d="M346.48,-81C356.71,-81 366.91,-81 376.5,-81"/>
<polygon fill="black" stroke="black" points="346.27,-77.5 336.27,-81 346.27,-84.5 346.27,-77.5"/>
</g>
<!-- Node6 -->
<g id="Node000006" class="node">
<title>Node6</title>
<g id="a_Node000006"><a xlink:href="a01661.html" target="_top" xlink:title=" ">
<polygon fill="white" stroke="#666666" points="491,-54 372,-54 372,-36 491,-36 491,-54"/>
<text text-anchor="middle" x="431.5" y="-42.8" font-family="Helvetica,sans-Serif" font-size="9.00">Sampling Distributions</text>
</a>
</g>
</g>
<!-- Node1&#45;&gt;Node6 -->
<g id="edge5" class="edge">
<title>Node1&#45;&gt;Node6</title>
<path fill="none" stroke="black" d="M313.05,-69.8C337.09,-64.72 365.13,-58.8 387.79,-54.02"/>
<polygon fill="black" stroke="black" points="312.09,-66.43 303.02,-71.92 313.53,-73.27 312.09,-66.43"/>
</g>
<!-- Node7 -->
<g id="Node000007" class="node">
<title>Node7</title>
<g id="a_Node000007"><a xlink:href="a01657.html" target="_top" xlink:title=" ">
<polygon fill="white" stroke="#666666" points="488,-18 375,-18 375,0 488,0 488,-18"/>
<text text-anchor="middle" x="431.5" y="-6.8" font-family="Helvetica,sans-Serif" font-size="9.00">Uniform Distributions</text>
</a>
</g>
</g>
<!-- Node1&#45;&gt;Node7 -->
<g id="edge6" class="edge">
<title>Node1&#45;&gt;Node7</title>
<path fill="none" stroke="black" d="M285.59,-67.29C307.98,-55.64 341.58,-38.93 372,-27 380.31,-23.74 389.46,-20.68 398.01,-18.04"/>
<polygon fill="black" stroke="black" points="283.95,-64.2 276.72,-71.95 287.2,-70.4 283.95,-64.2"/>
</g>
</g>
</svg>
</svg>

<style type='text/css'>
<![CDATA[
[data-mouse-over-selected='false'] { opacity: 0.7; }
[data-mouse-over-selected='true']  { opacity: 1.0; }
]]>
</style>
<script type="application/ecmascript"><![CDATA[
document.addEventListener('DOMContentLoaded', (event) => {
  highlightEdges();
  highlightAdjacentNodes();
});
]]></script>
</svg>
