<?xml version="1.0" encoding="UTF-8" standalone="no"?>
<!DOCTYPE svg PUBLIC "-//W3C//DTD SVG 1.1//EN"
 "http://www.w3.org/Graphics/SVG/1.1/DTD/svg11.dtd">
<!-- Generated by graphviz version 2.43.0 (0)
 -->
<!-- Title: Hash&#45;Based Pages: 1 -->
<svg width="336pt" height="26pt"
 viewBox="0.00 0.00 336.00 26.00" xmlns="http://www.w3.org/2000/svg" xmlns:xlink="http://www.w3.org/1999/xlink">
<g id="graph0" class="graph" transform="scale(1 1) rotate(0) translate(4 22)">
<title>Hash&#45;Based</title>
<!-- Node2 -->
<g id="Node000002" class="node">
<title>Node2</title>
<g id="a_Node000002"><a xlink:href="a01641.html" target="_top" xlink:title=" ">
<polygon fill="white" stroke="#666666" points="65,-18 0,-18 0,0 65,0 65,-18"/>
<text text-anchor="middle" x="32.5" y="-6.8" font-family="Helvetica,sans-Serif" font-size="9.00">Containers</text>
</a>
</g>
</g>
<!-- Node1 -->
<g id="Node000001" class="node">
<title>Node1</title>
<g id="a_Node000001"><a xlink:title=" ">
<polygon fill="#999999" stroke="#666666" points="170,-18 101,-18 101,0 170,0 170,-18"/>
<text text-anchor="middle" x="135.5" y="-6.8" font-family="Helvetica,sans-Serif" font-size="9.00">Hash&#45;Based</text>
</a>
</g>
</g>
<!-- Node2&#45;&gt;Node1 -->
<g id="edge1" class="edge">
<title>Node2&#45;&gt;Node1</title>
<path fill="none" stroke="black" d="M75.32,-9C83.82,-9 92.66,-9 100.84,-9"/>
<polygon fill="black" stroke="black" points="75.18,-5.5 65.18,-9 75.18,-12.5 75.18,-5.5"/>
</g>
<!-- Node3 -->
<g id="Node000003" class="node">
<title>Node3</title>
<g id="a_Node000003"><a xlink:href="a01643.html" target="_top" xlink:title=" ">
<polygon fill="white" stroke="#666666" points="328,-18 206,-18 206,0 328,0 328,-18"/>
<text text-anchor="middle" x="267" y="-6.8" font-family="Helvetica,sans-Serif" font-size="9.00">Base and Policy Classes</text>
</a>
</g>
</g>
<!-- Node1&#45;&gt;Node3 -->
<g id="edge2" class="edge">
<title>Node1&#45;&gt;Node3</title>
<path fill="none" stroke="black" d="M180.29,-9C188.53,-9 197.26,-9 205.89,-9"/>
<polygon fill="black" stroke="black" points="180.19,-5.5 170.19,-9 180.19,-12.5 180.19,-5.5"/>
</g>
</g>
</svg>
