<?xml version="1.0" encoding="UTF-8" standalone="no"?>
<!DOCTYPE svg PUBLIC "-//W3C//DTD SVG 1.1//EN"
 "http://www.w3.org/Graphics/SVG/1.1/DTD/svg11.dtd">
<!-- Generated by graphviz version 2.43.0 (0)
 -->
<!-- Title: Sorting Pages: 1 -->
<svg width="278pt" height="98pt"
 viewBox="0.00 0.00 278.00 98.00" xmlns="http://www.w3.org/2000/svg" xmlns:xlink="http://www.w3.org/1999/xlink">

<svg id="main" version="1.1" xmlns="http://www.w3.org/2000/svg" xmlns:xlink="http://www.w3.org/1999/xlink" xml:space="preserve" onload="init(evt)">
<style type="text/css"><![CDATA[
.node, .edge {opacity: 0.7;}
.node.selected, .edge.selected {opacity: 1;}
.edge:hover path { stroke: red; }
.edge:hover polygon { stroke: red; fill: red; }
]]></style>
<script type="application/ecmascript" xlink:href="svg.min.js"/>
<svg id="graph" class="graph">
<g id="graph0" class="graph" transform="scale(1 1) rotate(0) translate(4 94)">
<title>Sorting</title>
<!-- Node2 -->
<g id="Node000002" class="node">
<title>Node2</title>
<g id="a_Node000002"><a xlink:href="a01597.html" target="_top" xlink:title=" ">
<polygon fill="white" stroke="#666666" points="65,-54 0,-54 0,-36 65,-36 65,-54"/>
<text text-anchor="middle" x="32.5" y="-42.8" font-family="Helvetica,sans-Serif" font-size="9.00">Algorithms</text>
</a>
</g>
</g>
<!-- Node1 -->
<g id="Node000001" class="node">
<title>Node1</title>
<g id="a_Node000001"><a xlink:title=" ">
<polygon fill="#999999" stroke="#666666" points="151,-54 101,-54 101,-36 151,-36 151,-54"/>
<text text-anchor="middle" x="126" y="-42.8" font-family="Helvetica,sans-Serif" font-size="9.00">Sorting</text>
</a>
</g>
</g>
<!-- Node2&#45;&gt;Node1 -->
<g id="edge1" class="edge">
<title>Node2&#45;&gt;Node1</title>
<path fill="none" stroke="black" d="M75.33,-45C84.06,-45 92.98,-45 100.81,-45"/>
<polygon fill="black" stroke="black" points="75.25,-41.5 65.25,-45 75.25,-48.5 75.25,-41.5"/>
</g>
<!-- Node3 -->
<g id="Node000003" class="node">
<title>Node3</title>
<g id="a_Node000003"><a xlink:href="a01602.html" target="_top" xlink:title=" ">
<polygon fill="white" stroke="#666666" points="268.5,-90 188.5,-90 188.5,-72 268.5,-72 268.5,-90"/>
<text text-anchor="middle" x="228.5" y="-78.8" font-family="Helvetica,sans-Serif" font-size="9.00">Binary Search</text>
</a>
</g>
</g>
<!-- Node4 -->
<g id="Node000004" class="node">
<title>Node4</title>
<g id="a_Node000004"><a xlink:href="a01621.html" target="_top" xlink:title=" ">
<polygon fill="white" stroke="#666666" points="248.5,-54 208.5,-54 208.5,-36 248.5,-36 248.5,-54"/>
<text text-anchor="middle" x="228.5" y="-42.8" font-family="Helvetica,sans-Serif" font-size="9.00">Heap</text>
</a>
</g>
</g>
<!-- Node5 -->
<g id="Node000005" class="node">
<title>Node5</title>
<g id="a_Node000005"><a xlink:href="a01601.html" target="_top" xlink:title=" ">
<polygon fill="white" stroke="#666666" points="270,-18 187,-18 187,0 270,0 270,-18"/>
<text text-anchor="middle" x="228.5" y="-6.8" font-family="Helvetica,sans-Serif" font-size="9.00">Set Operations</text>
</a>
</g>
</g>
<!-- Node1&#45;&gt;Node3 -->
<g id="edge2" class="edge">
<title>Node1&#45;&gt;Node3</title>
<path fill="none" stroke="black" d="M160.58,-57.03C174.18,-61.9 189.61,-67.43 202.22,-71.95"/>
<polygon fill="black" stroke="black" points="161.67,-53.7 151.07,-53.62 159.31,-60.29 161.67,-53.7"/>
</g>
<!-- Node1&#45;&gt;Node4 -->
<g id="edge3" class="edge">
<title>Node1&#45;&gt;Node4</title>
<path fill="none" stroke="black" d="M161.47,-45C177.15,-45 195.1,-45 208.33,-45"/>
<polygon fill="black" stroke="black" points="161.07,-41.5 151.07,-45 161.07,-48.5 161.07,-41.5"/>
</g>
<!-- Node1&#45;&gt;Node5 -->
<g id="edge4" class="edge">
<title>Node1&#45;&gt;Node5</title>
<path fill="none" stroke="black" d="M160.58,-32.97C174.18,-28.1 189.61,-22.57 202.22,-18.05"/>
<polygon fill="black" stroke="black" points="159.31,-29.71 151.07,-36.38 161.67,-36.3 159.31,-29.71"/>
</g>
</g>
</svg>
</svg>

<style type='text/css'>
<![CDATA[
[data-mouse-over-selected='false'] { opacity: 0.7; }
[data-mouse-over-selected='true']  { opacity: 1.0; }
]]>
</style>
<script type="application/ecmascript"><![CDATA[
document.addEventListener('DOMContentLoaded', (event) => {
  highlightEdges();
  highlightAdjacentNodes();
});
]]></script>
</svg>
