<?xml version="1.0" encoding="UTF-8" standalone="no"?>
<!DOCTYPE svg PUBLIC "-//W3C//DTD SVG 1.1//EN"
 "http://www.w3.org/Graphics/SVG/1.1/DTD/svg11.dtd">
<!-- Generated by graphviz version 2.43.0 (0)
 -->
<!-- Title: Regular Expressions Pages: 1 -->
<svg width="357pt" height="72pt"
 viewBox="0.00 0.00 357.00 72.00" xmlns="http://www.w3.org/2000/svg" xmlns:xlink="http://www.w3.org/1999/xlink">
<g id="graph0" class="graph" transform="scale(1 1) rotate(0) translate(4 68)">
<title>Regular Expressions</title>
<!-- Node3 -->
<g id="Node000003" class="node">
<title>Node3</title>
<g id="a_Node000003"><a xlink:href="a01604.html" target="_top" xlink:title=" ">
<polygon fill="white" stroke="#666666" points="315.5,-64 249.5,-64 249.5,-46 315.5,-46 315.5,-64"/>
<text text-anchor="middle" x="282.5" y="-52.8" font-family="Helvetica,sans-Serif" font-size="9.00">Exceptions</text>
</a>
</g>
</g>
<!-- Node1 -->
<g id="Node000001" class="node">
<title>Node1</title>
<g id="a_Node000001"><a xlink:title=" ">
<polygon fill="#999999" stroke="#666666" points="107,-43 0,-43 0,-25 107,-25 107,-43"/>
<text text-anchor="middle" x="53.5" y="-31.8" font-family="Helvetica,sans-Serif" font-size="9.00">Regular Expressions</text>
</a>
</g>
</g>
<!-- Node1&#45;&gt;Node3 -->
<g id="edge2" class="edge">
<title>Node1&#45;&gt;Node3</title>
<path fill="none" stroke="orange" stroke-dasharray="5,2" d="M107.15,-38.87C151.16,-42.94 212.49,-48.62 249.46,-52.04"/>
<text text-anchor="middle" x="161.5" y="-48.8" font-family="Helvetica,sans-Serif" font-size="9.00">std::regex_error</text>
</g>
<!-- Node2 -->
<g id="Node000002" class="node">
<title>Node2</title>
<g id="a_Node000002"><a xlink:href="a01610.html" target="_top" xlink:title=" ">
<polygon fill="white" stroke="#666666" points="349,-28 216,-28 216,0 349,0 349,-28"/>
<text text-anchor="start" x="224" y="-16.8" font-family="Helvetica,sans-Serif" font-size="9.00">Base and Implementation</text>
<text text-anchor="middle" x="282.5" y="-6.8" font-family="Helvetica,sans-Serif" font-size="9.00"> Classes</text>
</a>
</g>
</g>
<!-- Node1&#45;&gt;Node2 -->
<g id="edge1" class="edge">
<title>Node1&#45;&gt;Node2</title>
<path fill="none" stroke="black" d="M117.28,-28.47C147.9,-25.77 184.72,-22.53 215.73,-19.79"/>
<polygon fill="black" stroke="black" points="116.8,-25 107.15,-29.36 117.42,-31.97 116.8,-25"/>
</g>
</g>
</svg>
