<?xml version="1.0" encoding="UTF-8" standalone="no"?>
<!DOCTYPE svg PUBLIC "-//W3C//DTD SVG 1.1//EN"
 "http://www.w3.org/Graphics/SVG/1.1/DTD/svg11.dtd">
<!-- Generated by graphviz version 2.43.0 (0)
 -->
<!-- Title: Containers Pages: 1 -->
<svg width="371pt" height="134pt"
 viewBox="0.00 0.00 371.00 134.00" xmlns="http://www.w3.org/2000/svg" xmlns:xlink="http://www.w3.org/1999/xlink">
<g id="graph0" class="graph" transform="scale(1 1) rotate(0) translate(4 130)">
<title>Containers</title>
<!-- Node3 -->
<g id="Node000003" class="node">
<title>Node3</title>
<g id="a_Node000003"><a xlink:href="a01644.html" target="_top" xlink:title=" ">
<polygon fill="white" stroke="#666666" points="363,-126 284,-126 284,-108 363,-108 363,-126"/>
<text text-anchor="middle" x="323.5" y="-114.8" font-family="Helvetica,sans-Serif" font-size="9.00">Branch&#45;Based</text>
</a>
</g>
</g>
<!-- Node1 -->
<g id="Node000001" class="node">
<title>Node1</title>
<g id="a_Node000001"><a xlink:title=" ">
<polygon fill="#999999" stroke="#666666" points="248,-72 183,-72 183,-54 248,-54 248,-72"/>
<text text-anchor="middle" x="215.5" y="-60.8" font-family="Helvetica,sans-Serif" font-size="9.00">Containers</text>
</a>
</g>
</g>
<!-- Node1&#45;&gt;Node3 -->
<g id="edge2" class="edge">
<title>Node1&#45;&gt;Node3</title>
<path fill="none" stroke="black" d="M242,-77.01C254.56,-83.8 269.99,-92 284,-99 289.94,-101.97 296.46,-105.08 302.42,-107.86"/>
<polygon fill="black" stroke="black" points="243.47,-73.83 233.02,-72.12 240.13,-79.97 243.47,-73.83"/>
</g>
<!-- Node4 -->
<g id="Node000004" class="node">
<title>Node4</title>
<g id="a_Node000004"><a xlink:href="a01642.html" target="_top" xlink:title=" ">
<polygon fill="white" stroke="#666666" points="358,-90 289,-90 289,-72 358,-72 358,-90"/>
<text text-anchor="middle" x="323.5" y="-78.8" font-family="Helvetica,sans-Serif" font-size="9.00">Hash&#45;Based</text>
</a>
</g>
</g>
<!-- Node1&#45;&gt;Node4 -->
<g id="edge3" class="edge">
<title>Node1&#45;&gt;Node4</title>
<path fill="none" stroke="black" d="M257.95,-70.04C268.14,-71.77 278.93,-73.6 288.7,-75.26"/>
<polygon fill="black" stroke="black" points="258.46,-66.58 248.02,-68.35 257.29,-73.48 258.46,-66.58"/>
</g>
<!-- Node5 -->
<g id="Node000005" class="node">
<title>Node5</title>
<g id="a_Node000005"><a xlink:href="a01648.html" target="_top" xlink:title=" ">
<polygon fill="white" stroke="#666666" points="358.5,-54 288.5,-54 288.5,-36 358.5,-36 358.5,-54"/>
<text text-anchor="middle" x="323.5" y="-42.8" font-family="Helvetica,sans-Serif" font-size="9.00">Heap&#45;Based</text>
</a>
</g>
</g>
<!-- Node1&#45;&gt;Node5 -->
<g id="edge4" class="edge">
<title>Node1&#45;&gt;Node5</title>
<path fill="none" stroke="black" d="M258.17,-55.92C268.16,-54.23 278.72,-52.43 288.33,-50.8"/>
<polygon fill="black" stroke="black" points="257.29,-52.52 248.02,-57.65 258.46,-59.42 257.29,-52.52"/>
</g>
<!-- Node6 -->
<g id="Node000006" class="node">
<title>Node6</title>
<g id="a_Node000006"><a xlink:href="a01646.html" target="_top" xlink:title=" ">
<polygon fill="white" stroke="#666666" points="354.5,-18 292.5,-18 292.5,0 354.5,0 354.5,-18"/>
<text text-anchor="middle" x="323.5" y="-6.8" font-family="Helvetica,sans-Serif" font-size="9.00">List&#45;Based</text>
</a>
</g>
</g>
<!-- Node1&#45;&gt;Node6 -->
<g id="edge5" class="edge">
<title>Node1&#45;&gt;Node6</title>
<path fill="none" stroke="black" d="M242,-48.99C254.56,-42.2 269.99,-34 284,-27 289.94,-24.03 296.46,-20.92 302.42,-18.14"/>
<polygon fill="black" stroke="black" points="240.13,-46.03 233.02,-53.88 243.47,-52.17 240.13,-46.03"/>
</g>
<!-- Node2 -->
<g id="Node000002" class="node">
<title>Node2</title>
<g id="a_Node000002"><a xlink:href="a01650.html" target="_top" xlink:title=" ">
<polygon fill="white" stroke="#666666" points="147,-72 0,-72 0,-54 147,-54 147,-72"/>
<text text-anchor="middle" x="73.5" y="-60.8" font-family="Helvetica,sans-Serif" font-size="9.00">Policy&#45;Based Data Structures</text>
</a>
</g>
</g>
<!-- Node2&#45;&gt;Node1 -->
<g id="edge1" class="edge">
<title>Node2&#45;&gt;Node1</title>
<path fill="none" stroke="black" d="M157.56,-63C166.5,-63 175.14,-63 182.88,-63"/>
<polygon fill="black" stroke="black" points="157.37,-59.5 147.37,-63 157.37,-66.5 157.37,-59.5"/>
</g>
</g>
</svg>
