<?xml version="1.0" encoding="UTF-8" standalone="no"?>
<!DOCTYPE svg PUBLIC "-//W3C//DTD SVG 1.1//EN"
 "http://www.w3.org/Graphics/SVG/1.1/DTD/svg11.dtd">
<!-- Generated by graphviz version 2.43.0 (0)
 -->
<!-- Title: Policy&#45;Based Data Structures Pages: 1 -->
<svg width="358pt" height="134pt"
 viewBox="0.00 0.00 358.00 134.00" xmlns="http://www.w3.org/2000/svg" xmlns:xlink="http://www.w3.org/1999/xlink">
<g id="graph0" class="graph" transform="scale(1 1) rotate(0) translate(4 130)">
<title>Policy&#45;Based Data Structures</title>
<!-- Node3 -->
<g id="Node000003" class="node">
<title>Node3</title>
<g id="a_Node000003"><a xlink:href="a01641.html" target="_top" xlink:title=" ">
<polygon fill="white" stroke="#666666" points="349.5,-126 284.5,-126 284.5,-108 349.5,-108 349.5,-126"/>
<text text-anchor="middle" x="317" y="-114.8" font-family="Helvetica,sans-Serif" font-size="9.00">Containers</text>
</a>
</g>
</g>
<!-- Node4 -->
<g id="Node000004" class="node">
<title>Node4</title>
<g id="a_Node000004"><a xlink:href="a01647.html" target="_top" xlink:title=" ">
<polygon fill="white" stroke="#666666" points="350,-90 284,-90 284,-72 350,-72 350,-90"/>
<text text-anchor="middle" x="317" y="-78.8" font-family="Helvetica,sans-Serif" font-size="9.00">Exceptions</text>
</a>
</g>
</g>
<!-- Node2 -->
<g id="Node000002" class="node">
<title>Node2</title>
<g id="a_Node000002"><a xlink:href="a01567.html" target="_top" xlink:title=" ">
<polygon fill="white" stroke="#666666" points="65,-72 0,-72 0,-54 65,-54 65,-72"/>
<text text-anchor="middle" x="32.5" y="-60.8" font-family="Helvetica,sans-Serif" font-size="9.00">Extensions</text>
</a>
</g>
</g>
<!-- Node1 -->
<g id="Node000001" class="node">
<title>Node1</title>
<g id="a_Node000001"><a xlink:title=" ">
<polygon fill="#999999" stroke="#666666" points="248,-72 101,-72 101,-54 248,-54 248,-72"/>
<text text-anchor="middle" x="174.5" y="-60.8" font-family="Helvetica,sans-Serif" font-size="9.00">Policy&#45;Based Data Structures</text>
</a>
</g>
</g>
<!-- Node2&#45;&gt;Node1 -->
<g id="edge1" class="edge">
<title>Node2&#45;&gt;Node1</title>
<path fill="none" stroke="black" d="M75.43,-63C83.46,-63 92.07,-63 100.74,-63"/>
<polygon fill="black" stroke="black" points="75.27,-59.5 65.27,-63 75.27,-66.5 75.27,-59.5"/>
</g>
<!-- Node1&#45;&gt;Node3 -->
<g id="edge2" class="edge">
<title>Node1&#45;&gt;Node3</title>
<path fill="none" stroke="black" d="M208.38,-75.64C234.15,-85.54 269.38,-99.08 292.41,-107.93"/>
<polygon fill="black" stroke="black" points="209.61,-72.36 199.02,-72.04 207.1,-78.89 209.61,-72.36"/>
</g>
<!-- Node1&#45;&gt;Node4 -->
<g id="edge3" class="edge">
<title>Node1&#45;&gt;Node4</title>
<path fill="none" stroke="black" d="M256.38,-73.36C266.12,-74.61 275.58,-75.82 283.99,-76.9"/>
<polygon fill="black" stroke="black" points="256.53,-69.85 246.16,-72.05 255.64,-76.8 256.53,-69.85"/>
</g>
<!-- Node5 -->
<g id="Node000005" class="node">
<title>Node5</title>
<g id="a_Node000005"><a xlink:href="a01651.html" target="_top" xlink:title=" ">
<polygon fill="white" stroke="#666666" points="335,-54 299,-54 299,-36 335,-36 335,-54"/>
<text text-anchor="middle" x="317" y="-42.8" font-family="Helvetica,sans-Serif" font-size="9.00">Tags</text>
</a>
</g>
</g>
<!-- Node1&#45;&gt;Node5 -->
<g id="edge4" class="edge">
<title>Node1&#45;&gt;Node5</title>
<path fill="none" stroke="black" d="M256.27,-52.65C272.41,-50.58 287.79,-48.61 298.89,-47.19"/>
<polygon fill="black" stroke="black" points="255.64,-49.2 246.16,-53.95 256.53,-56.15 255.64,-49.2"/>
</g>
<!-- Node6 -->
<g id="Node000006" class="node">
<title>Node6</title>
<g id="a_Node000006"><a xlink:href="a01654.html" target="_top" xlink:title=" ">
<polygon fill="white" stroke="#666666" points="337.5,-18 296.5,-18 296.5,0 337.5,0 337.5,-18"/>
<text text-anchor="middle" x="317" y="-6.8" font-family="Helvetica,sans-Serif" font-size="9.00">Traits</text>
</a>
</g>
</g>
<!-- Node1&#45;&gt;Node6 -->
<g id="edge5" class="edge">
<title>Node1&#45;&gt;Node6</title>
<path fill="none" stroke="black" d="M208.56,-50.29C235.89,-39.79 273.77,-25.23 296.49,-16.5"/>
<polygon fill="black" stroke="black" points="207.1,-47.11 199.02,-53.96 209.61,-53.64 207.1,-47.11"/>
</g>
</g>
</svg>
