<?xml version="1.0" encoding="UTF-8" standalone="no"?>
<!DOCTYPE svg PUBLIC "-//W3C//DTD SVG 1.1//EN"
 "http://www.w3.org/Graphics/SVG/1.1/DTD/svg11.dtd">
<!-- Generated by graphviz version 2.43.0 (0)
 -->
<!-- Title: Heap&#45;Based Pages: 1 -->
<svg width="337pt" height="26pt"
 viewBox="0.00 0.00 337.00 26.00" xmlns="http://www.w3.org/2000/svg" xmlns:xlink="http://www.w3.org/1999/xlink">
<g id="graph0" class="graph" transform="scale(1 1) rotate(0) translate(4 22)">
<title>Heap&#45;Based</title>
<!-- Node2 -->
<g id="Node000002" class="node">
<title>Node2</title>
<g id="a_Node000002"><a xlink:href="a01641.html" target="_top" xlink:title=" ">
<polygon fill="white" stroke="#666666" points="65,-18 0,-18 0,0 65,0 65,-18"/>
<text text-anchor="middle" x="32.5" y="-6.8" font-family="Helvetica,sans-Serif" font-size="9.00">Containers</text>
</a>
</g>
</g>
<!-- Node1 -->
<g id="Node000001" class="node">
<title>Node1</title>
<g id="a_Node000001"><a xlink:title=" ">
<polygon fill="#999999" stroke="#666666" points="171,-18 101,-18 101,0 171,0 171,-18"/>
<text text-anchor="middle" x="136" y="-6.8" font-family="Helvetica,sans-Serif" font-size="9.00">Heap&#45;Based</text>
</a>
</g>
</g>
<!-- Node2&#45;&gt;Node1 -->
<g id="edge1" class="edge">
<title>Node2&#45;&gt;Node1</title>
<path fill="none" stroke="black" d="M75.26,-9C83.83,-9 92.74,-9 100.99,-9"/>
<polygon fill="black" stroke="black" points="75.06,-5.5 65.06,-9 75.06,-12.5 75.06,-5.5"/>
</g>
<!-- Node3 -->
<g id="Node000003" class="node">
<title>Node3</title>
<g id="a_Node000003"><a xlink:href="a01649.html" target="_top" xlink:title=" ">
<polygon fill="white" stroke="#666666" points="329,-18 207,-18 207,0 329,0 329,-18"/>
<text text-anchor="middle" x="268" y="-6.8" font-family="Helvetica,sans-Serif" font-size="9.00">Base and Policy Classes</text>
</a>
</g>
</g>
<!-- Node1&#45;&gt;Node3 -->
<g id="edge2" class="edge">
<title>Node1&#45;&gt;Node3</title>
<path fill="none" stroke="black" d="M181.3,-9C189.55,-9 198.3,-9 206.93,-9"/>
<polygon fill="black" stroke="black" points="181.16,-5.5 171.16,-9 181.16,-12.5 181.16,-5.5"/>
</g>
</g>
</svg>
