<?xml version="1.0" encoding="UTF-8" standalone="no"?>
<!DOCTYPE svg PUBLIC "-//W3C//DTD SVG 1.1//EN"
 "http://www.w3.org/Graphics/SVG/1.1/DTD/svg11.dtd">
<!-- Generated by graphviz version 2.43.0 (0)
 -->
<!-- Title: Type&#45;safe container of any type Pages: 1 -->
<svg width="482pt" height="52pt"
 viewBox="0.00 0.00 482.00 52.00" xmlns="http://www.w3.org/2000/svg" xmlns:xlink="http://www.w3.org/1999/xlink">
<g id="graph0" class="graph" transform="scale(1 1) rotate(0) translate(4 48)">
<title>Type&#45;safe container of any type</title>
<!-- Node1 -->
<g id="Node000001" class="node">
<title>Node1</title>
<g id="a_Node000001"><a xlink:title=" ">
<polygon fill="#999999" stroke="#666666" points="270,-28 166,-28 166,0 270,0 270,-28"/>
<text text-anchor="start" x="174" y="-16.8" font-family="Helvetica,sans-Serif" font-size="9.00">Type&#45;safe container</text>
<text text-anchor="middle" x="218" y="-6.8" font-family="Helvetica,sans-Serif" font-size="9.00"> of any type</text>
</a>
</g>
</g>
<!-- Node3 -->
<g id="Node000003" class="node">
<title>Node3</title>
<g id="a_Node000003"><a xlink:href="a01604.html" target="_top" xlink:title=" ">
<polygon fill="white" stroke="#666666" points="474,-23 408,-23 408,-5 474,-5 474,-23"/>
<text text-anchor="middle" x="441" y="-11.8" font-family="Helvetica,sans-Serif" font-size="9.00">Exceptions</text>
</a>
</g>
</g>
<!-- Node1&#45;&gt;Node3 -->
<g id="edge2" class="edge">
<title>Node1&#45;&gt;Node3</title>
<path fill="none" stroke="orange" stroke-dasharray="5,2" d="M270.26,-14C312.72,-14 371.75,-14 407.84,-14"/>
<text text-anchor="start" x="288" y="-36.8" font-family="Helvetica,sans-Serif" font-size="9.00">std::experimental::</text>
<text text-anchor="start" x="288" y="-26.8" font-family="Helvetica,sans-Serif" font-size="9.00">fundamentals_v1::bad</text>
<text text-anchor="middle" x="339" y="-16.8" font-family="Helvetica,sans-Serif" font-size="9.00">_any_cast</text>
</g>
<!-- Node2 -->
<g id="Node000002" class="node">
<title>Node2</title>
<g id="a_Node000002"><a xlink:href="a01631.html" target="_top" xlink:title=" ">
<polygon fill="white" stroke="#666666" points="129,-23 0,-23 0,-5 129,-5 129,-23"/>
<text text-anchor="middle" x="64.5" y="-11.8" font-family="Helvetica,sans-Serif" font-size="9.00">Library Fundamentals TS</text>
</a>
</g>
</g>
<!-- Node2&#45;&gt;Node1 -->
<g id="edge1" class="edge">
<title>Node2&#45;&gt;Node1</title>
<path fill="none" stroke="black" d="M139.33,-14C148.24,-14 157.18,-14 165.67,-14"/>
<polygon fill="black" stroke="black" points="139.31,-10.5 129.31,-14 139.31,-17.5 139.31,-10.5"/>
</g>
</g>
</svg>
