<?xml version="1.0" encoding="UTF-8" standalone="no"?>
<!DOCTYPE svg PUBLIC "-//W3C//DTD SVG 1.1//EN"
 "http://www.w3.org/Graphics/SVG/1.1/DTD/svg11.dtd">
<!-- Generated by graphviz version 2.43.0 (0)
 -->
<!-- Title: Exceptions Pages: 1 -->
<svg width="435pt" height="218pt"
 viewBox="0.00 0.00 435.00 218.00" xmlns="http://www.w3.org/2000/svg" xmlns:xlink="http://www.w3.org/1999/xlink">

<svg id="main" version="1.1" xmlns="http://www.w3.org/2000/svg" xmlns:xlink="http://www.w3.org/1999/xlink" xml:space="preserve" onload="init(evt)">
<style type="text/css"><![CDATA[
.node, .edge {opacity: 0.7;}
.node.selected, .edge.selected {opacity: 1;}
.edge:hover path { stroke: red; }
.edge:hover polygon { stroke: red; fill: red; }
]]></style>
<script type="application/ecmascript" xlink:href="svg.min.js"/>
<svg id="graph" class="graph">
<g id="graph0" class="graph" transform="scale(1 1) rotate(0) translate(4 214)">
<title>Exceptions</title>
<!-- Node4 -->
<g id="Node000004" class="node">
<title>Node4</title>
<g id="a_Node000004"><a xlink:href="a01632.html" target="_top" xlink:title=" ">
<polygon fill="white" stroke="#666666" points="425.5,-194 321.5,-194 321.5,-166 425.5,-166 425.5,-194"/>
<text text-anchor="start" x="329.5" y="-182.8" font-family="Helvetica,sans-Serif" font-size="9.00">Type&#45;safe container</text>
<text text-anchor="middle" x="373.5" y="-172.8" font-family="Helvetica,sans-Serif" font-size="9.00"> of any type</text>
</a>
</g>
</g>
<!-- Node2 -->
<g id="Node000002" class="node">
<title>Node2</title>
<g id="a_Node000002"><a xlink:href="a01573.html" target="_top" xlink:title=" ">
<polygon fill="white" stroke="#666666" points="68,-95 0,-95 0,-77 68,-77 68,-95"/>
<text text-anchor="middle" x="34" y="-83.8" font-family="Helvetica,sans-Serif" font-size="9.00">Diagnostics</text>
</a>
</g>
</g>
<!-- Node1 -->
<g id="Node000001" class="node">
<title>Node1</title>
<g id="a_Node000001"><a xlink:title=" ">
<polygon fill="#999999" stroke="#666666" points="171,-95 105,-95 105,-77 171,-77 171,-95"/>
<text text-anchor="middle" x="138" y="-83.8" font-family="Helvetica,sans-Serif" font-size="9.00">Exceptions</text>
</a>
</g>
</g>
<!-- Node2&#45;&gt;Node1 -->
<g id="edge1" class="edge">
<title>Node2&#45;&gt;Node1</title>
<path fill="none" stroke="black" d="M78.31,-86C87.17,-86 96.35,-86 104.75,-86"/>
<polygon fill="black" stroke="black" points="78.12,-82.5 68.12,-86 78.12,-89.5 78.12,-82.5"/>
</g>
<!-- Node1&#45;&gt;Node4 -->
<g id="edge3" class="edge">
<title>Node1&#45;&gt;Node4</title>
<path fill="none" stroke="orange" stroke-dasharray="5,2" d="M143.3,-95.36C150.5,-109.9 166.48,-137.62 189,-151 229.07,-174.8 282.37,-180.97 321.2,-181.83"/>
<text text-anchor="start" x="194.5" y="-202.8" font-family="Helvetica,sans-Serif" font-size="9.00">std::experimental::</text>
<text text-anchor="start" x="194.5" y="-192.8" font-family="Helvetica,sans-Serif" font-size="9.00">fundamentals_v1::bad</text>
<text text-anchor="middle" x="245.5" y="-182.8" font-family="Helvetica,sans-Serif" font-size="9.00">_any_cast</text>
</g>
<!-- Node6 -->
<g id="Node000006" class="node">
<title>Node6</title>
<g id="a_Node000006"><a xlink:href="a01582.html" target="_top" xlink:title=" ">
<polygon fill="white" stroke="#666666" points="398.5,-148 348.5,-148 348.5,-130 398.5,-130 398.5,-148"/>
<text text-anchor="middle" x="373.5" y="-136.8" font-family="Helvetica,sans-Serif" font-size="9.00">Futures</text>
</a>
</g>
</g>
<!-- Node1&#45;&gt;Node6 -->
<g id="edge5" class="edge">
<title>Node1&#45;&gt;Node6</title>
<path fill="none" stroke="orange" stroke-dasharray="5,2" d="M150.57,-95.23C160.25,-102.42 174.73,-112 189,-117 243.65,-136.16 312.46,-139.24 348.29,-139.39"/>
<text text-anchor="middle" x="245.5" y="-139.8" font-family="Helvetica,sans-Serif" font-size="9.00">std::future_error</text>
</g>
<!-- Node5 -->
<g id="Node000005" class="node">
<title>Node5</title>
<g id="a_Node000005"><a xlink:href="a01634.html" target="_top" xlink:title=" ">
<polygon fill="white" stroke="#666666" points="416.5,-96 330.5,-96 330.5,-78 416.5,-78 416.5,-96"/>
<text text-anchor="middle" x="373.5" y="-84.8" font-family="Helvetica,sans-Serif" font-size="9.00">Optional values</text>
</a>
</g>
</g>
<!-- Node1&#45;&gt;Node5 -->
<g id="edge4" class="edge">
<title>Node1&#45;&gt;Node5</title>
<path fill="none" stroke="orange" stroke-dasharray="5,2" d="M171.47,-86.14C212.95,-86.32 284.81,-86.62 330.44,-86.82"/>
<text text-anchor="start" x="194.5" y="-108.8" font-family="Helvetica,sans-Serif" font-size="9.00">std::experimental::</text>
<text text-anchor="start" x="194.5" y="-98.8" font-family="Helvetica,sans-Serif" font-size="9.00">fundamentals_v1::bad</text>
<text text-anchor="middle" x="245.5" y="-88.8" font-family="Helvetica,sans-Serif" font-size="9.00">_optional_access</text>
</g>
<!-- Node7 -->
<g id="Node000007" class="node">
<title>Node7</title>
<g id="a_Node000007"><a xlink:href="a01611.html" target="_top" xlink:title=" ">
<polygon fill="white" stroke="#666666" points="427,-60 320,-60 320,-42 427,-42 427,-60"/>
<text text-anchor="middle" x="373.5" y="-48.8" font-family="Helvetica,sans-Serif" font-size="9.00">Regular Expressions</text>
</a>
</g>
</g>
<!-- Node1&#45;&gt;Node7 -->
<g id="edge6" class="edge">
<title>Node1&#45;&gt;Node7</title>
<path fill="none" stroke="orange" stroke-dasharray="5,2" d="M168.16,-77C174.95,-75.13 182.19,-73.33 189,-72 232.74,-63.43 283.08,-57.98 319.96,-54.78"/>
<text text-anchor="middle" x="245.5" y="-74.8" font-family="Helvetica,sans-Serif" font-size="9.00">std::regex_error</text>
</g>
<!-- Node3 -->
<g id="Node000003" class="node">
<title>Node3</title>
<g id="a_Node000003"><a xlink:href="a01595.html" target="_top" xlink:title=" ">
<polygon fill="white" stroke="#666666" points="398.5,-18 348.5,-18 348.5,0 398.5,0 398.5,-18"/>
<text text-anchor="middle" x="373.5" y="-6.8" font-family="Helvetica,sans-Serif" font-size="9.00">Utilities</text>
</a>
</g>
</g>
<!-- Node1&#45;&gt;Node3 -->
<g id="edge2" class="edge">
<title>Node1&#45;&gt;Node3</title>
<path fill="none" stroke="orange" stroke-dasharray="5,2" d="M144.79,-76.67C152.98,-64.38 169.17,-43.13 189,-33 241.07,-6.4 311.85,-5.49 348.42,-7.19"/>
<text text-anchor="middle" x="245.5" y="-45.8" font-family="Helvetica,sans-Serif" font-size="9.00">std::bad_any_cast</text>
<text text-anchor="middle" x="245.5" y="-35.8" font-family="Helvetica,sans-Serif" font-size="9.00">std::bad_optional_access</text>
</g>
</g>
</svg>
</svg>

<style type='text/css'>
<![CDATA[
[data-mouse-over-selected='false'] { opacity: 0.7; }
[data-mouse-over-selected='true']  { opacity: 1.0; }
]]>
</style>
<script type="application/ecmascript"><![CDATA[
document.addEventListener('DOMContentLoaded', (event) => {
  highlightEdges();
  highlightAdjacentNodes();
});
]]></script>
</svg>
