<?xml version="1.0" encoding="UTF-8" standalone="no"?>
<!DOCTYPE svg PUBLIC "-//W3C//DTD SVG 1.1//EN"
 "http://www.w3.org/Graphics/SVG/1.1/DTD/svg11.dtd">
<!-- Generated by graphviz version 2.43.0 (0)
 -->
<!-- Title: Function Objects Pages: 1 -->
<svg width="334pt" height="318pt"
 viewBox="0.00 0.00 334.00 318.00" xmlns="http://www.w3.org/2000/svg" xmlns:xlink="http://www.w3.org/1999/xlink">

<svg id="main" version="1.1" xmlns="http://www.w3.org/2000/svg" xmlns:xlink="http://www.w3.org/1999/xlink" xml:space="preserve" onload="init(evt)">
<style type="text/css"><![CDATA[
.node, .edge {opacity: 0.7;}
.node.selected, .edge.selected {opacity: 1;}
.edge:hover path { stroke: red; }
.edge:hover polygon { stroke: red; fill: red; }
]]></style>
<script type="application/ecmascript" xlink:href="svg.min.js"/>
<svg id="graph" class="graph">
<g id="graph0" class="graph" transform="scale(1 1) rotate(0) translate(4 314)">
<title>Function Objects</title>
<!-- Node5 -->
<g id="Node000005" class="node">
<title>Node5</title>
<g id="a_Node000005"><a xlink:href="a01615.html" target="_top" xlink:title=" ">
<polygon fill="white" stroke="#666666" points="323,-310 217,-310 217,-282 323,-282 323,-310"/>
<text text-anchor="start" x="225" y="-298.8" font-family="Helvetica,sans-Serif" font-size="9.00">Arithmetic Function</text>
<text text-anchor="middle" x="270" y="-288.8" font-family="Helvetica,sans-Serif" font-size="9.00"> Object Classes</text>
</a>
</g>
</g>
<!-- Node6 -->
<g id="Node000006" class="node">
<title>Node6</title>
<g id="a_Node000006"><a xlink:href="a01626.html" target="_top" xlink:title=" ">
<polygon fill="white" stroke="#666666" points="310.5,-264 229.5,-264 229.5,-246 310.5,-246 310.5,-264"/>
<text text-anchor="middle" x="270" y="-252.8" font-family="Helvetica,sans-Serif" font-size="9.00">Binder Classes</text>
</a>
</g>
</g>
<!-- Node8 -->
<g id="Node000008" class="node">
<title>Node8</title>
<g id="a_Node000008"><a xlink:href="a01616.html" target="_top" xlink:title=" ">
<polygon fill="white" stroke="#666666" points="322.5,-228 217.5,-228 217.5,-210 322.5,-210 322.5,-228"/>
<text text-anchor="middle" x="270" y="-216.8" font-family="Helvetica,sans-Serif" font-size="9.00">Comparison Classes</text>
</a>
</g>
</g>
<!-- Node1 -->
<g id="Node000001" class="node">
<title>Node1</title>
<g id="a_Node000001"><a xlink:title=" ">
<polygon fill="#999999" stroke="#666666" points="178,-171 86,-171 86,-153 178,-153 178,-171"/>
<text text-anchor="middle" x="132" y="-159.8" font-family="Helvetica,sans-Serif" font-size="9.00">Function Objects</text>
</a>
</g>
</g>
<!-- Node1&#45;&gt;Node5 -->
<g id="edge4" class="edge">
<title>Node1&#45;&gt;Node5</title>
<path fill="none" stroke="black" d="M142.16,-180.17C155.15,-204.34 181.07,-247 214,-273 218.31,-276.4 223.19,-279.38 228.22,-281.96"/>
<polygon fill="black" stroke="black" points="145.13,-178.3 137.4,-171.05 138.92,-181.54 145.13,-178.3"/>
</g>
<!-- Node1&#45;&gt;Node6 -->
<g id="edge5" class="edge">
<title>Node1&#45;&gt;Node6</title>
<path fill="none" stroke="black" d="M147.45,-179.14C162.51,-196.01 187.55,-221.45 214,-237 220.06,-240.57 226.92,-243.53 233.69,-245.95"/>
<polygon fill="black" stroke="black" points="149.74,-176.44 140.54,-171.2 144.46,-181.04 149.74,-176.44"/>
</g>
<!-- Node1&#45;&gt;Node8 -->
<g id="edge7" class="edge">
<title>Node1&#45;&gt;Node8</title>
<path fill="none" stroke="black" d="M159.17,-175.69C174.84,-183.61 195.29,-193.47 214,-201 222.02,-204.22 230.85,-207.31 239.06,-210"/>
<polygon fill="black" stroke="black" points="160.58,-172.48 150.08,-171.04 157.39,-178.71 160.58,-172.48"/>
</g>
<!-- Node9 -->
<g id="Node000009" class="node">
<title>Node9</title>
<g id="a_Node000009"><a xlink:href="a01605.html" target="_top" xlink:title=" ">
<polygon fill="white" stroke="#666666" points="294.5,-192 245.5,-192 245.5,-174 294.5,-174 294.5,-192"/>
<text text-anchor="middle" x="270" y="-180.8" font-family="Helvetica,sans-Serif" font-size="9.00">Hashes</text>
</a>
</g>
</g>
<!-- Node1&#45;&gt;Node9 -->
<g id="edge8" class="edge">
<title>Node1&#45;&gt;Node9</title>
<path fill="none" stroke="black" d="M188.2,-170.52C208.09,-173.59 229.49,-176.9 245.26,-179.33"/>
<polygon fill="black" stroke="black" points="188.7,-167.06 178.29,-168.99 187.63,-173.98 188.7,-167.06"/>
</g>
<!-- Node7 -->
<g id="Node000007" class="node">
<title>Node7</title>
<g id="a_Node000007"><a xlink:href="a01617.html" target="_top" xlink:title=" ">
<polygon fill="white" stroke="#666666" points="322,-156 218,-156 218,-128 322,-128 322,-156"/>
<text text-anchor="start" x="226" y="-144.8" font-family="Helvetica,sans-Serif" font-size="9.00">Boolean Operations</text>
<text text-anchor="middle" x="270" y="-134.8" font-family="Helvetica,sans-Serif" font-size="9.00"> Classes</text>
</a>
</g>
</g>
<!-- Node1&#45;&gt;Node7 -->
<g id="edge6" class="edge">
<title>Node1&#45;&gt;Node7</title>
<path fill="none" stroke="black" d="M188.29,-153.87C198.05,-152.43 208.17,-150.95 217.81,-149.53"/>
<polygon fill="black" stroke="black" points="187.67,-150.42 178.29,-155.34 188.69,-157.35 187.67,-150.42"/>
</g>
<!-- Node10 -->
<g id="Node000010" class="node">
<title>Node10</title>
<g id="a_Node000010"><a xlink:href="a01618.html" target="_top" xlink:title=" ">
<polygon fill="white" stroke="#666666" points="298.5,-110 241.5,-110 241.5,-92 298.5,-92 298.5,-110"/>
<text text-anchor="middle" x="270" y="-98.8" font-family="Helvetica,sans-Serif" font-size="9.00">Negators</text>
</a>
</g>
</g>
<!-- Node1&#45;&gt;Node10 -->
<g id="edge9" class="edge">
<title>Node1&#45;&gt;Node10</title>
<path fill="none" stroke="black" d="M157.22,-147.73C173.05,-138.77 194.34,-127.36 214,-119 222.69,-115.3 232.41,-111.89 241.24,-109.06"/>
<polygon fill="black" stroke="black" points="155.07,-144.93 148.14,-152.95 158.56,-151 155.07,-144.93"/>
</g>
<!-- Node3 -->
<g id="Node000003" class="node">
<title>Node3</title>
<g id="a_Node000003"><a xlink:href="a01619.html" target="_top" xlink:title=" ">
<polygon fill="white" stroke="#666666" points="326,-74 214,-74 214,-46 326,-46 326,-74"/>
<text text-anchor="start" x="222" y="-62.8" font-family="Helvetica,sans-Serif" font-size="9.00">Adaptors for pointers</text>
<text text-anchor="middle" x="270" y="-52.8" font-family="Helvetica,sans-Serif" font-size="9.00"> to functions</text>
</a>
</g>
</g>
<!-- Node1&#45;&gt;Node3 -->
<g id="edge2" class="edge">
<title>Node1&#45;&gt;Node3</title>
<path fill="none" stroke="black" d="M146.89,-145.11C161.94,-127.67 187.39,-100.6 214,-83 219.01,-79.69 224.57,-76.7 230.17,-74.05"/>
<polygon fill="black" stroke="black" points="144.16,-142.91 140.38,-152.81 149.51,-147.43 144.16,-142.91"/>
</g>
<!-- Node4 -->
<g id="Node000004" class="node">
<title>Node4</title>
<g id="a_Node000004"><a xlink:href="a01620.html" target="_top" xlink:title=" ">
<polygon fill="white" stroke="#666666" points="326,-28 214,-28 214,0 326,0 326,-28"/>
<text text-anchor="start" x="222" y="-16.8" font-family="Helvetica,sans-Serif" font-size="9.00">Adaptors for pointers</text>
<text text-anchor="middle" x="270" y="-6.8" font-family="Helvetica,sans-Serif" font-size="9.00"> to members</text>
</a>
</g>
</g>
<!-- Node1&#45;&gt;Node4 -->
<g id="edge3" class="edge">
<title>Node1&#45;&gt;Node4</title>
<path fill="none" stroke="black" d="M140.71,-143.42C152.72,-116.57 178.26,-66.86 214,-37 218.05,-33.62 222.67,-30.67 227.47,-28.12"/>
<polygon fill="black" stroke="black" points="137.41,-142.24 136.66,-152.81 143.84,-145.02 137.41,-142.24"/>
</g>
<!-- Node2 -->
<g id="Node000002" class="node">
<title>Node2</title>
<g id="a_Node000002"><a xlink:href="a01595.html" target="_top" xlink:title=" ">
<polygon fill="white" stroke="#666666" points="50,-171 0,-171 0,-153 50,-153 50,-171"/>
<text text-anchor="middle" x="25" y="-159.8" font-family="Helvetica,sans-Serif" font-size="9.00">Utilities</text>
</a>
</g>
</g>
<!-- Node2&#45;&gt;Node1 -->
<g id="edge1" class="edge">
<title>Node2&#45;&gt;Node1</title>
<path fill="none" stroke="black" d="M60.1,-162C68.35,-162 77.3,-162 85.97,-162"/>
<polygon fill="black" stroke="black" points="60.09,-158.5 50.09,-162 60.09,-165.5 60.09,-158.5"/>
</g>
</g>
</svg>
</svg>

<style type='text/css'>
<![CDATA[
[data-mouse-over-selected='false'] { opacity: 0.7; }
[data-mouse-over-selected='true']  { opacity: 1.0; }
]]>
</style>
<script type="application/ecmascript"><![CDATA[
document.addEventListener('DOMContentLoaded', (event) => {
  highlightEdges();
  highlightAdjacentNodes();
});
]]></script>
</svg>
