<?xml version="1.0" encoding="UTF-8" standalone="no"?>
<!DOCTYPE svg PUBLIC "-//W3C//DTD SVG 1.1//EN"
 "http://www.w3.org/Graphics/SVG/1.1/DTD/svg11.dtd">
<!-- Generated by graphviz version 2.43.0 (0)
 -->
<!-- Title: Iterator Tags Pages: 1 -->
<svg width="274pt" height="27pt"
 viewBox="0.00 0.00 274.00 27.00" xmlns="http://www.w3.org/2000/svg" xmlns:xlink="http://www.w3.org/1999/xlink">

<svg id="main" version="1.1" xmlns="http://www.w3.org/2000/svg" xmlns:xlink="http://www.w3.org/1999/xlink" xml:space="preserve" onload="init(evt)">
<style type="text/css"><![CDATA[
.node, .edge {opacity: 0.7;}
.node.selected, .edge.selected {opacity: 1;}
.edge:hover path { stroke: red; }
.edge:hover polygon { stroke: red; fill: red; }
]]></style>
<script type="application/ecmascript" xlink:href="svg.min.js"/>
<svg id="graph" class="graph">
<g id="graph0" class="graph" transform="scale(1 1) rotate(0) translate(4 23)">
<title>Iterator Tags</title>
<!-- Node1 -->
<g id="Node000001" class="node">
<title>Node1</title>
<g id="a_Node000001"><a xlink:title=" ">
<polygon fill="#999999" stroke="#666666" points="73,-18 0,-18 0,0 73,0 73,-18"/>
<text text-anchor="middle" x="36.5" y="-6.8" font-family="Helvetica,sans-Serif" font-size="9.00">Iterator Tags</text>
</a>
</g>
</g>
<!-- Node2 -->
<g id="Node000002" class="node">
<title>Node2</title>
<g id="a_Node000002"><a xlink:href="a01622.html" target="_top" xlink:title=" ">
<polygon fill="white" stroke="#666666" points="266,-18 211,-18 211,0 266,0 266,-18"/>
<text text-anchor="middle" x="238.5" y="-6.8" font-family="Helvetica,sans-Serif" font-size="9.00">Iterators</text>
</a>
</g>
</g>
<!-- Node1&#45;&gt;Node2 -->
<g id="edge2" class="edge">
<title>Node1&#45;&gt;Node2</title>
<path fill="none" stroke="orange" stroke-dasharray="5,2" d="M73.26,-9C112.81,-9 175.61,-9 210.99,-9"/>
<text text-anchor="middle" x="142" y="-11.8" font-family="Helvetica,sans-Serif" font-size="9.00">std::input_iterator_tag</text>
</g>
<!-- Node2&#45;&gt;Node1 -->
<g id="edge1" class="edge">
<title>Node2&#45;&gt;Node1</title>
<path fill="none" stroke="black" d="M200.69,-7.22C198.08,-7.13 195.5,-7.06 193,-7 147.68,-5.98 136.33,-6.15 91,-7 85.24,-7.11 79.13,-7.28 73.18,-7.48"/>
<polygon fill="black" stroke="black" points="200.55,-10.71 210.68,-7.6 200.82,-3.72 200.55,-10.71"/>
</g>
</g>
</svg>
</svg>

<style type='text/css'>
<![CDATA[
[data-mouse-over-selected='false'] { opacity: 0.7; }
[data-mouse-over-selected='true']  { opacity: 1.0; }
]]>
</style>
<script type="application/ecmascript"><![CDATA[
document.addEventListener('DOMContentLoaded', (event) => {
  highlightEdges();
  highlightAdjacentNodes();
});
]]></script>
</svg>
