<?xml version="1.0" encoding="UTF-8" standalone="no"?>
<!DOCTYPE svg PUBLIC "-//W3C//DTD SVG 1.1//EN"
 "http://www.w3.org/Graphics/SVG/1.1/DTD/svg11.dtd">
<!-- Generated by graphviz version 2.43.0 (0)
 -->
<!-- Title: __gnu_parallel::__parallel_sort Pages: 1 -->
<!--zoomable 129 -->

<svg id="main" version="1.1" xmlns="http://www.w3.org/2000/svg" xmlns:xlink="http://www.w3.org/1999/xlink" xml:space="preserve" onload="init(evt)">
<style type="text/css"><![CDATA[
.node, .edge {opacity: 0.7;}
.node.selected, .edge.selected {opacity: 1;}
.edge:hover path { stroke: red; }
.edge:hover polygon { stroke: red; fill: red; }
]]></style>

<defs>
  <circle id="rim" cx="0" cy="0" r="7"/>
  <circle id="rim2" cx="0" cy="0" r="3.5"/>
  <g id="zoomPlus">
    <use xlink:href="#rim" fill="#404040"><set attributeName="fill" to="#808080" begin="zoomplus.mouseover" end="zoomplus.mouseout"/></use>
    <path d="M-4,0h8M0,-4v8" fill="none" stroke="white" stroke-width="1.5" pointer-events="none"/>
  </g>
  <g id="zoomMin">
    <use xlink:href="#rim" fill="#404040"><set attributeName="fill" to="#808080" begin="zoomminus.mouseover" end="zoomminus.mouseout"/></use>
    <path d="M-4,0h8" fill="none" stroke="white" stroke-width="1.5" pointer-events="none"/>
  </g>
  <g id="arrowUp" transform="translate(30 24)">
    <use xlink:href="#rim"/>
    <path pointer-events="none" fill="none" stroke="white" stroke-width="1.5" d="M0,-3.0v7 M-2.5,-0.5L0,-3.0L2.5,-0.5"/>
  </g>
  <g id="arrowRight" transform="rotate(90) translate(36 -43)">
    <use xlink:href="#rim"/>
    <path pointer-events="none" fill="none" stroke="white" stroke-width="1.5" d="M0,-3.0v7 M-2.5,-0.5L0,-3.0L2.5,-0.5"/>
  </g>
  <g id="arrowDown" transform="rotate(180) translate(-30 -48)">
    <use xlink:href="#rim"/>
    <path pointer-events="none" fill="none" stroke="white" stroke-width="1.5" d="M0,-3.0v7 M-2.5,-0.5L0,-3.0L2.5,-0.5"/>
  </g>
  <g id="arrowLeft" transform="rotate(270) translate(-36 17)">
    <use xlink:href="#rim"/>
    <path pointer-events="none" fill="none" stroke="white" stroke-width="1.5" d="M0,-3.0v7 M-2.5,-0.5L0,-3.0L2.5,-0.5"/>
  </g>
  <g id="resetDef">
    <use xlink:href="#rim2" fill="#404040"><set attributeName="fill" to="#808080" begin="reset.mouseover" end="reset.mouseout"/></use>
  </g>
</defs>
<script type="application/ecmascript">
var viewWidth = 1001;
var viewHeight = 129;
var sectionId = 'dynsection-6';
</script>
<script type="application/ecmascript" xlink:href="svg.min.js"/>
<svg id="graph" class="graph">
<g id="viewport">
<title>__gnu_parallel::__parallel_sort</title>
<!-- Node1 -->
<g id="Node000001" class="node">
<title>Node1</title>
<g id="a_Node000001"><a xlink:title="Choose quicksort for parallel sorting.">
<polygon fill="#999999" stroke="#666666" points="149,-46 0,-46 0,-28 149,-28 149,-46"/>
<text text-anchor="middle" x="74.5" y="-34.8" font-family="Helvetica,sans-Serif" font-size="9.00">__gnu_parallel::__parallel_sort</text>
</a>
</g>
</g>
<!-- Node2 -->
<g id="Node000002" class="node">
<title>Node2</title>
<g id="a_Node000002"><a xlink:href="a10261.html#a18b32829b31b902699690b750e190e59" target="_top" xlink:title="Find out desired number of threads.">
<polygon fill="white" stroke="#666666" points="316,-74 185,-74 185,-46 316,-46 316,-74"/>
<text text-anchor="start" x="193" y="-62.8" font-family="Helvetica,sans-Serif" font-size="9.00">__gnu_parallel::parallel</text>
<text text-anchor="middle" x="250.5" y="-52.8" font-family="Helvetica,sans-Serif" font-size="9.00">_tag::__get_num_threads</text>
</a>
</g>
</g>
<!-- Node1&#45;&gt;Node2 -->
<g id="edge1_Node000001_Node000002" class="edge">
<title>Node1&#45;&gt;Node2</title>
<g id="a_edge1_Node000001_Node000002"><a xlink:title=" ">
<path fill="none" stroke="#63b8ff" d="M143.77,-46.02C153.91,-47.36 164.41,-48.75 174.67,-50.11"/>
<polygon fill="#63b8ff" stroke="#63b8ff" points="174.47,-53.61 184.84,-51.45 175.38,-46.67 174.47,-53.61"/>
</a>
</g>
</g>
<!-- Node3 -->
<g id="Node000003" class="node">
<title>Node3</title>
<g id="a_Node000003"><a xlink:href="a01715.html#ac416a1c7e347b429bbf7a8fb17e847b2" target="_top" xlink:title="Unbalanced quicksort main call.">
<polygon fill="white" stroke="#666666" points="314.5,-28 186.5,-28 186.5,0 314.5,0 314.5,-28"/>
<text text-anchor="start" x="194.5" y="-16.8" font-family="Helvetica,sans-Serif" font-size="9.00">__gnu_parallel::__parallel</text>
<text text-anchor="middle" x="250.5" y="-6.8" font-family="Helvetica,sans-Serif" font-size="9.00">_sort_qs</text>
</a>
</g>
</g>
<!-- Node1&#45;&gt;Node3 -->
<g id="edge2_Node000001_Node000003" class="edge">
<title>Node1&#45;&gt;Node3</title>
<g id="a_edge2_Node000001_Node000003"><a xlink:title=" ">
<path fill="none" stroke="#63b8ff" d="M143.77,-27.98C154.38,-26.57 165.37,-25.12 176.09,-23.7"/>
<polygon fill="#63b8ff" stroke="#63b8ff" points="176.8,-27.14 186.25,-22.36 175.88,-20.2 176.8,-27.14"/>
</a>
</g>
</g>
<!-- Node4 -->
<g id="Node000004" class="node">
<title>Node4</title>
<g id="a_Node000004"><a xlink:href="a01715.html#a06c506308856b684737d24944a93a42e" target="_top" xlink:title="Unbalanced quicksort conquer step.">
<polygon fill="white" stroke="#666666" points="480,-28 352,-28 352,0 480,0 480,-28"/>
<text text-anchor="start" x="360" y="-16.8" font-family="Helvetica,sans-Serif" font-size="9.00">__gnu_parallel::__parallel</text>
<text text-anchor="middle" x="416" y="-6.8" font-family="Helvetica,sans-Serif" font-size="9.00">_sort_qs_conquer</text>
</a>
</g>
</g>
<!-- Node3&#45;&gt;Node4 -->
<g id="edge3_Node000003_Node000004" class="edge">
<title>Node3&#45;&gt;Node4</title>
<g id="a_edge3_Node000003_Node000004"><a xlink:title=" ">
<path fill="none" stroke="#63b8ff" d="M314.71,-14C323.59,-14 332.78,-14 341.83,-14"/>
<polygon fill="#63b8ff" stroke="#63b8ff" points="341.95,-17.5 351.95,-14 341.95,-10.5 341.95,-17.5"/>
</a>
</g>
</g>
<!-- Node4&#45;&gt;Node4 -->
<g id="edge4_Node000004_Node000004" class="edge">
<title>Node4&#45;&gt;Node4</title>
<g id="a_edge4_Node000004_Node000004"><a xlink:title=" ">
<path fill="none" stroke="#63b8ff" d="M387.68,-28.15C380.3,-37.24 389.73,-46 416,-46 432.01,-46 441.76,-42.75 445.27,-38.15"/>
<polygon fill="#63b8ff" stroke="#63b8ff" points="448.75,-37.77 444.32,-28.15 441.78,-38.43 448.75,-37.77"/>
</a>
</g>
</g>
<!-- Node5 -->
<g id="Node000005" class="node">
<title>Node5</title>
<g id="a_Node000005"><a xlink:href="a01715.html#a67cbf5b9027d7c9c4f80f80ba104cf99" target="_top" xlink:title="Unbalanced quicksort divide step.">
<polygon fill="white" stroke="#666666" points="644,-49 516,-49 516,-21 644,-21 644,-49"/>
<text text-anchor="start" x="524" y="-37.8" font-family="Helvetica,sans-Serif" font-size="9.00">__gnu_parallel::__parallel</text>
<text text-anchor="middle" x="580" y="-27.8" font-family="Helvetica,sans-Serif" font-size="9.00">_sort_qs_divide</text>
</a>
</g>
</g>
<!-- Node4&#45;&gt;Node5 -->
<g id="edge5_Node000004_Node000005" class="edge">
<title>Node4&#45;&gt;Node5</title>
<g id="a_edge5_Node000004_Node000005"><a xlink:title=" ">
<path fill="none" stroke="#63b8ff" d="M480.1,-22.18C488.53,-23.27 497.23,-24.4 505.81,-25.51"/>
<polygon fill="#63b8ff" stroke="#63b8ff" points="505.44,-28.99 515.81,-26.81 506.34,-22.05 505.44,-28.99"/>
</a>
</g>
</g>
<!-- Node9 -->
<g id="Node000009" class="node">
<title>Node9</title>
<g id="a_Node000009"><a xlink:href="a10253.html#afe774b372d0f1591ad992224ecd084c3" target="_top" xlink:title="Get the global settings.">
<polygon fill="white" stroke="#666666" points="993,-20 844,-20 844,-2 993,-2 993,-20"/>
<text text-anchor="middle" x="918.5" y="-8.8" font-family="Helvetica,sans-Serif" font-size="9.00">__gnu_parallel::_Settings::get</text>
</a>
</g>
</g>
<!-- Node4&#45;&gt;Node9 -->
<g id="edge11_Node000004_Node000009" class="edge">
<title>Node4&#45;&gt;Node9</title>
<g id="a_edge11_Node000004_Node000009"><a xlink:title=" ">
<path fill="none" stroke="#63b8ff" d="M480.11,-12.56C492.03,-12.33 504.4,-12.13 516,-12 625.79,-10.75 752.47,-10.66 833.7,-10.78"/>
<polygon fill="#63b8ff" stroke="#63b8ff" points="833.86,-14.28 843.87,-10.79 833.87,-7.28 833.86,-14.28"/>
</a>
</g>
</g>
<!-- Node6 -->
<g id="Node000006" class="node">
<title>Node6</title>
<g id="a_Node000006"><a xlink:href="a01715.html#ac870af1d69405f2f53cd7a96e1d92348" target="_top" xlink:title="Parallel implementation of std::partition.">
<polygon fill="white" stroke="#666666" points="808,-85 680,-85 680,-57 808,-57 808,-85"/>
<text text-anchor="start" x="688" y="-73.8" font-family="Helvetica,sans-Serif" font-size="9.00">__gnu_parallel::__parallel</text>
<text text-anchor="middle" x="744" y="-63.8" font-family="Helvetica,sans-Serif" font-size="9.00">_partition</text>
</a>
</g>
</g>
<!-- Node5&#45;&gt;Node6 -->
<g id="edge6_Node000005_Node000006" class="edge">
<title>Node5&#45;&gt;Node6</title>
<g id="a_edge6_Node000005_Node000006"><a xlink:title=" ">
<path fill="none" stroke="#63b8ff" d="M644.1,-49.02C652.53,-50.89 661.23,-52.83 669.81,-54.74"/>
<polygon fill="#63b8ff" stroke="#63b8ff" points="669.29,-58.2 679.81,-56.96 670.81,-51.37 669.29,-58.2"/>
</a>
</g>
</g>
<!-- Node10 -->
<g id="Node000010" class="node">
<title>Node10</title>
<g id="a_Node000010"><a xlink:href="a01600.html#gae9cf068dc91c8779040669efa4a8cf65" target="_top" xlink:title="This does what you think it does.">
<polygon fill="white" stroke="#666666" points="771,-39 717,-39 717,-21 771,-21 771,-39"/>
<text text-anchor="middle" x="744" y="-27.8" font-family="Helvetica,sans-Serif" font-size="9.00">std::min</text>
</a>
</g>
</g>
<!-- Node5&#45;&gt;Node10 -->
<g id="edge10_Node000005_Node000010" class="edge">
<title>Node5&#45;&gt;Node10</title>
<g id="a_edge10_Node000005_Node000010"><a xlink:title=" ">
<path fill="none" stroke="#63b8ff" d="M644.1,-33.05C665.29,-32.4 688.2,-31.69 706.63,-31.12"/>
<polygon fill="#63b8ff" stroke="#63b8ff" points="706.75,-34.62 716.64,-30.81 706.54,-27.62 706.75,-34.62"/>
</a>
</g>
</g>
<!-- Node7 -->
<g id="Node000007" class="node">
<title>Node7</title>
<g id="a_Node000007"><a xlink:href="a01715.html#accd4441e0f846fee44966195a91e9e68" target="_top" xlink:title="Compare&#45;and&#45;swap.">
<polygon fill="white" stroke="#666666" points="986,-121 851,-121 851,-93 986,-93 986,-121"/>
<text text-anchor="start" x="859" y="-109.8" font-family="Helvetica,sans-Serif" font-size="9.00">__gnu_parallel::__compare</text>
<text text-anchor="middle" x="918.5" y="-99.8" font-family="Helvetica,sans-Serif" font-size="9.00">_and_swap</text>
</a>
</g>
</g>
<!-- Node6&#45;&gt;Node7 -->
<g id="edge7_Node000006_Node000007" class="edge">
<title>Node6&#45;&gt;Node7</title>
<g id="a_edge7_Node000006_Node000007"><a xlink:title=" ">
<path fill="none" stroke="#63b8ff" d="M808.25,-84.2C818.85,-86.41 829.96,-88.73 840.85,-91"/>
<polygon fill="#63b8ff" stroke="#63b8ff" points="840.27,-94.46 850.78,-93.08 841.7,-87.61 840.27,-94.46"/>
</a>
</g>
</g>
<!-- Node8 -->
<g id="Node000008" class="node">
<title>Node8</title>
<g id="a_Node000008"><a xlink:href="a01715.html#a56a5a84c8a6049cd3cc83968c6eae088" target="_top" xlink:title="Add a value to a variable, atomically.">
<polygon fill="white" stroke="#666666" points="978,-75 859,-75 859,-47 978,-47 978,-75"/>
<text text-anchor="start" x="867" y="-63.8" font-family="Helvetica,sans-Serif" font-size="9.00">__gnu_parallel::__fetch</text>
<text text-anchor="middle" x="918.5" y="-53.8" font-family="Helvetica,sans-Serif" font-size="9.00">_and_add</text>
</a>
</g>
</g>
<!-- Node6&#45;&gt;Node8 -->
<g id="edge8_Node000006_Node000008" class="edge">
<title>Node6&#45;&gt;Node8</title>
<g id="a_edge8_Node000006_Node000008"><a xlink:title=" ">
<path fill="none" stroke="#63b8ff" d="M808.25,-67.33C821.43,-66.57 835.38,-65.76 848.75,-64.99"/>
<polygon fill="#63b8ff" stroke="#63b8ff" points="849.06,-68.47 858.84,-64.4 848.65,-61.49 849.06,-68.47"/>
</a>
</g>
</g>
<!-- Node6&#45;&gt;Node9 -->
<g id="edge9_Node000006_Node000009" class="edge">
<title>Node6&#45;&gt;Node9</title>
<g id="a_edge9_Node000006_Node000009"><a xlink:title=" ">
<path fill="none" stroke="#63b8ff" d="M785.44,-56.93C814.62,-46.78 853.66,-33.21 881.71,-23.45"/>
<polygon fill="#63b8ff" stroke="#63b8ff" points="883.21,-26.63 891.51,-20.04 880.91,-20.02 883.21,-26.63"/>
</a>
</g>
</g>
</g>
</svg>

<g id="navigator" transform="translate(0 0)" fill="#404254">
  <rect fill="#f2f5e9" fill-opacity="0.5" stroke="#606060" stroke-width=".5" x="0" y="0" width="60" height="60"/>
  <use id="zoomplus" xlink:href="#zoomPlus" x="17" y="9" onmousedown="handleZoom(evt,'in')"/>
  <use id="zoomminus" xlink:href="#zoomMin" x="42" y="9" onmousedown="handleZoom(evt,'out')"/>
  <use id="reset" xlink:href="#resetDef" x="30" y="36" onmousedown="handleReset()"/>
   <use id="arrowup" xlink:href="#arrowUp" x="0" y="0" onmousedown="handlePan(0,-1)"/>
  <use id="arrowright" xlink:href="#arrowRight" x="0" y="0" onmousedown="handlePan(1,0)"/>
  <use id="arrowdown" xlink:href="#arrowDown" x="0" y="0" onmousedown="handlePan(0,1)"/>
  <use id="arrowleft" xlink:href="#arrowLeft" x="0" y="0" onmousedown="handlePan(-1,0)"/>
</g>
<svg viewBox="0 0 15 15" width="100%" height="30px" preserveAspectRatio="xMaxYMin meet">
 <g id="arrow_out" transform="scale(0.3 0.3)">
  <a xlink:href="a01715_aceaaa622c34d2f28ba6bf79241fcee36_cgraph_org.svg" target="_base">
   <rect id="button" ry="5" rx="5" y="6" x="6" height="38" width="38"
        fill="#f2f5e9" fill-opacity="0.5" stroke="#606060" stroke-width="1.0"/>
   <path id="arrow"
     d="M 11.500037,31.436501 C 11.940474,20.09759 22.043105,11.32322 32.158766,21.979434 L 37.068811,17.246167 C 37.068811,17.246167 37.088388,32 37.088388,32 L 22.160133,31.978069 C 22.160133,31.978069 26.997745,27.140456 26.997745,27.140456 C 18.528582,18.264221 13.291696,25.230495 11.500037,31.436501 z"
     style="fill:#404040;"/>
  </a>
 </g>
</svg>

<style type='text/css'>
<![CDATA[
[data-mouse-over-selected='false'] { opacity: 0.7; }
[data-mouse-over-selected='true']  { opacity: 1.0; }
]]>
</style>
<script type="application/ecmascript"><![CDATA[
document.addEventListener('DOMContentLoaded', (event) => {
  highlightEdges();
  highlightAdjacentNodes();
});
]]></script>
</svg>
