<?xml version="1.0" encoding="UTF-8" standalone="no"?>
<!DOCTYPE svg PUBLIC "-//W3C//DTD SVG 1.1//EN"
 "http://www.w3.org/Graphics/SVG/1.1/DTD/svg11.dtd">
<!-- Generated by graphviz version 2.43.0 (0)
 -->
<!-- Title: __gnu_parallel::__parallel_sort Pages: 1 -->
<!--zoomable 258 -->

<svg id="main" version="1.1" xmlns="http://www.w3.org/2000/svg" xmlns:xlink="http://www.w3.org/1999/xlink" xml:space="preserve" onload="init(evt)">
<style type="text/css"><![CDATA[
.node, .edge {opacity: 0.7;}
.node.selected, .edge.selected {opacity: 1;}
.edge:hover path { stroke: red; }
.edge:hover polygon { stroke: red; fill: red; }
]]></style>

<defs>
  <circle id="rim" cx="0" cy="0" r="7"/>
  <circle id="rim2" cx="0" cy="0" r="3.5"/>
  <g id="zoomPlus">
    <use xlink:href="#rim" fill="#404040"><set attributeName="fill" to="#808080" begin="zoomplus.mouseover" end="zoomplus.mouseout"/></use>
    <path d="M-4,0h8M0,-4v8" fill="none" stroke="white" stroke-width="1.5" pointer-events="none"/>
  </g>
  <g id="zoomMin">
    <use xlink:href="#rim" fill="#404040"><set attributeName="fill" to="#808080" begin="zoomminus.mouseover" end="zoomminus.mouseout"/></use>
    <path d="M-4,0h8" fill="none" stroke="white" stroke-width="1.5" pointer-events="none"/>
  </g>
  <g id="arrowUp" transform="translate(30 24)">
    <use xlink:href="#rim"/>
    <path pointer-events="none" fill="none" stroke="white" stroke-width="1.5" d="M0,-3.0v7 M-2.5,-0.5L0,-3.0L2.5,-0.5"/>
  </g>
  <g id="arrowRight" transform="rotate(90) translate(36 -43)">
    <use xlink:href="#rim"/>
    <path pointer-events="none" fill="none" stroke="white" stroke-width="1.5" d="M0,-3.0v7 M-2.5,-0.5L0,-3.0L2.5,-0.5"/>
  </g>
  <g id="arrowDown" transform="rotate(180) translate(-30 -48)">
    <use xlink:href="#rim"/>
    <path pointer-events="none" fill="none" stroke="white" stroke-width="1.5" d="M0,-3.0v7 M-2.5,-0.5L0,-3.0L2.5,-0.5"/>
  </g>
  <g id="arrowLeft" transform="rotate(270) translate(-36 17)">
    <use xlink:href="#rim"/>
    <path pointer-events="none" fill="none" stroke="white" stroke-width="1.5" d="M0,-3.0v7 M-2.5,-0.5L0,-3.0L2.5,-0.5"/>
  </g>
  <g id="resetDef">
    <use xlink:href="#rim2" fill="#404040"><set attributeName="fill" to="#808080" begin="reset.mouseover" end="reset.mouseout"/></use>
  </g>
</defs>
<script type="application/ecmascript">
var viewWidth = 1003;
var viewHeight = 258;
var sectionId = 'dynsection-5';
</script>
<script type="application/ecmascript" xlink:href="svg.min.js"/>
<svg id="graph" class="graph">
<g id="viewport">
<title>__gnu_parallel::__parallel_sort</title>
<!-- Node1 -->
<g id="Node000001" class="node">
<title>Node1</title>
<g id="a_Node000001"><a xlink:title="Choose a parallel sorting algorithm.">
<polygon fill="#999999" stroke="#666666" points="149,-80.05 0,-80.05 0,-62.05 149,-62.05 149,-80.05"/>
<text text-anchor="middle" x="74.5" y="-68.85" font-family="Helvetica,sans-Serif" font-size="9.00">__gnu_parallel::__parallel_sort</text>
</a>
</g>
</g>
<!-- Node2 -->
<g id="Node000002" class="node">
<title>Node2</title>
<g id="a_Node000002"><a xlink:href="a10261.html#a18b32829b31b902699690b750e190e59" target="_top" xlink:title="Find out desired number of threads.">
<polygon fill="white" stroke="#666666" points="316,-154.05 185,-154.05 185,-126.05 316,-126.05 316,-154.05"/>
<text text-anchor="start" x="193" y="-142.85" font-family="Helvetica,sans-Serif" font-size="9.00">__gnu_parallel::parallel</text>
<text text-anchor="middle" x="250.5" y="-132.85" font-family="Helvetica,sans-Serif" font-size="9.00">_tag::__get_num_threads</text>
</a>
</g>
</g>
<!-- Node1&#45;&gt;Node2 -->
<g id="edge1_Node000001_Node000002" class="edge">
<title>Node1&#45;&gt;Node2</title>
<g id="a_edge1_Node000001_Node000002"><a xlink:title=" ">
<path fill="none" stroke="#63b8ff" d="M96.35,-80.21C118.28,-89.75 153.86,-104.97 185,-117.05 189.73,-118.88 194.67,-120.74 199.63,-122.57"/>
<polygon fill="#63b8ff" stroke="#63b8ff" points="198.52,-125.9 209.12,-126.03 200.92,-119.32 198.52,-125.9"/>
</a>
</g>
</g>
<!-- Node3 -->
<g id="Node000003" class="node">
<title>Node3</title>
<g id="a_Node000003"><a xlink:href="a01715.html#ac416a1c7e347b429bbf7a8fb17e847b2" target="_top" xlink:title="Unbalanced quicksort main call.">
<polygon fill="white" stroke="#666666" points="314.5,-108.05 186.5,-108.05 186.5,-80.05 314.5,-80.05 314.5,-108.05"/>
<text text-anchor="start" x="194.5" y="-96.85" font-family="Helvetica,sans-Serif" font-size="9.00">__gnu_parallel::__parallel</text>
<text text-anchor="middle" x="250.5" y="-86.85" font-family="Helvetica,sans-Serif" font-size="9.00">_sort_qs</text>
</a>
</g>
</g>
<!-- Node1&#45;&gt;Node3 -->
<g id="edge2_Node000001_Node000003" class="edge">
<title>Node1&#45;&gt;Node3</title>
<g id="a_edge2_Node000001_Node000003"><a xlink:title=" ">
<path fill="none" stroke="#63b8ff" d="M143.77,-80.07C154.38,-81.47 165.37,-82.93 176.09,-84.34"/>
<polygon fill="#63b8ff" stroke="#63b8ff" points="175.88,-87.85 186.25,-85.69 176.8,-80.91 175.88,-87.85"/>
</a>
</g>
</g>
<!-- Node9 -->
<g id="Node000009" class="node">
<title>Node9</title>
<g id="a_Node000009"><a xlink:href="a10253.html#afe774b372d0f1591ad992224ecd084c3" target="_top" xlink:title="Get the global settings.">
<polygon fill="white" stroke="#666666" points="995,-108.05 846,-108.05 846,-90.05 995,-90.05 995,-108.05"/>
<text text-anchor="middle" x="920.5" y="-96.85" font-family="Helvetica,sans-Serif" font-size="9.00">__gnu_parallel::_Settings::get</text>
</a>
</g>
</g>
<!-- Node1&#45;&gt;Node9 -->
<g id="edge22_Node000001_Node000009" class="edge">
<title>Node1&#45;&gt;Node9</title>
<g id="a_edge22_Node000001_Node000009"><a xlink:title=" ">
<path fill="none" stroke="#63b8ff" d="M92.78,-61.93C113.91,-51.23 151.06,-33.82 185,-25.05 284.77,0.73 312.45,-0.05 415.5,-0.05 415.5,-0.05 415.5,-0.05 582,-0.05 685.46,-0.05 711.9,-14.18 810,-47.05 840.25,-57.18 873.06,-73.55 894.8,-85.21"/>
<polygon fill="#63b8ff" stroke="#63b8ff" points="893.22,-88.34 903.68,-90.04 896.57,-82.19 893.22,-88.34"/>
</a>
</g>
</g>
<!-- Node11 -->
<g id="Node000011" class="node">
<title>Node11</title>
<g id="a_Node000011"><a xlink:href="a01715.html#a4093dd098b32542e3d3f43ebd4c6f940" target="_top" xlink:title="Top&#45;level quicksort routine.">
<polygon fill="white" stroke="#666666" points="314.5,-62.05 186.5,-62.05 186.5,-34.05 314.5,-34.05 314.5,-62.05"/>
<text text-anchor="start" x="194.5" y="-50.85" font-family="Helvetica,sans-Serif" font-size="9.00">__gnu_parallel::__parallel</text>
<text text-anchor="middle" x="250.5" y="-40.85" font-family="Helvetica,sans-Serif" font-size="9.00">_sort_qsb</text>
</a>
</g>
</g>
<!-- Node1&#45;&gt;Node11 -->
<g id="edge12_Node000001_Node000011" class="edge">
<title>Node1&#45;&gt;Node11</title>
<g id="a_edge12_Node000001_Node000011"><a xlink:title=" ">
<path fill="none" stroke="#63b8ff" d="M143.77,-62.02C154.38,-60.62 165.37,-59.17 176.09,-57.75"/>
<polygon fill="#63b8ff" stroke="#63b8ff" points="176.8,-61.19 186.25,-56.41 175.88,-54.25 176.8,-61.19"/>
</a>
</g>
</g>
<!-- Node4 -->
<g id="Node000004" class="node">
<title>Node4</title>
<g id="a_Node000004"><a xlink:href="a01715.html#a06c506308856b684737d24944a93a42e" target="_top" xlink:title="Unbalanced quicksort conquer step.">
<polygon fill="white" stroke="#666666" points="480.5,-172.05 352.5,-172.05 352.5,-144.05 480.5,-144.05 480.5,-172.05"/>
<text text-anchor="start" x="360.5" y="-160.85" font-family="Helvetica,sans-Serif" font-size="9.00">__gnu_parallel::__parallel</text>
<text text-anchor="middle" x="416.5" y="-150.85" font-family="Helvetica,sans-Serif" font-size="9.00">_sort_qs_conquer</text>
</a>
</g>
</g>
<!-- Node3&#45;&gt;Node4 -->
<g id="edge3_Node000003_Node000004" class="edge">
<title>Node3&#45;&gt;Node4</title>
<g id="a_edge3_Node000003_Node000004"><a xlink:title=" ">
<path fill="none" stroke="#63b8ff" d="M291.87,-108.1C299.89,-110.99 308.23,-114.07 316,-117.05 334.84,-124.28 355.49,-132.71 373.07,-140.04"/>
<polygon fill="#63b8ff" stroke="#63b8ff" points="371.92,-143.35 382.49,-143.98 374.62,-136.89 371.92,-143.35"/>
</a>
</g>
</g>
<!-- Node4&#45;&gt;Node4 -->
<g id="edge4_Node000004_Node000004" class="edge">
<title>Node4&#45;&gt;Node4</title>
<g id="a_edge4_Node000004_Node000004"><a xlink:title=" ">
<path fill="none" stroke="#63b8ff" d="M388.18,-172.2C380.8,-181.29 390.23,-190.05 416.5,-190.05 432.51,-190.05 442.26,-186.8 445.77,-182.2"/>
<polygon fill="#63b8ff" stroke="#63b8ff" points="449.25,-181.82 444.82,-172.2 442.28,-182.48 449.25,-181.82"/>
</a>
</g>
</g>
<!-- Node5 -->
<g id="Node000005" class="node">
<title>Node5</title>
<g id="a_Node000005"><a xlink:href="a01715.html#a67cbf5b9027d7c9c4f80f80ba104cf99" target="_top" xlink:title="Unbalanced quicksort divide step.">
<polygon fill="white" stroke="#666666" points="645,-214.05 517,-214.05 517,-186.05 645,-186.05 645,-214.05"/>
<text text-anchor="start" x="525" y="-202.85" font-family="Helvetica,sans-Serif" font-size="9.00">__gnu_parallel::__parallel</text>
<text text-anchor="middle" x="581" y="-192.85" font-family="Helvetica,sans-Serif" font-size="9.00">_sort_qs_divide</text>
</a>
</g>
</g>
<!-- Node4&#45;&gt;Node5 -->
<g id="edge5_Node000004_Node000005" class="edge">
<title>Node4&#45;&gt;Node5</title>
<g id="a_edge5_Node000004_Node000005"><a xlink:title=" ">
<path fill="none" stroke="#63b8ff" d="M472.06,-172.15C486.07,-175.77 501.27,-179.7 515.72,-183.44"/>
<polygon fill="#63b8ff" stroke="#63b8ff" points="515.02,-186.87 525.58,-185.98 516.78,-180.09 515.02,-186.87"/>
</a>
</g>
</g>
<!-- Node4&#45;&gt;Node9 -->
<g id="edge11_Node000004_Node000009" class="edge">
<title>Node4&#45;&gt;Node9</title>
<g id="a_edge11_Node000004_Node000009"><a xlink:title=" ">
<path fill="none" stroke="#63b8ff" d="M480.76,-160.79C558.94,-162.86 695.65,-162.15 810,-139.05 838.39,-133.32 869.25,-121.49 890.95,-112.18"/>
<polygon fill="#63b8ff" stroke="#63b8ff" points="892.48,-115.33 900.24,-108.11 889.67,-108.92 892.48,-115.33"/>
</a>
</g>
</g>
<!-- Node6 -->
<g id="Node000006" class="node">
<title>Node6</title>
<g id="a_Node000006"><a xlink:href="a01715.html#ac870af1d69405f2f53cd7a96e1d92348" target="_top" xlink:title="Parallel implementation of std::partition.">
<polygon fill="white" stroke="#666666" points="809.5,-214.05 681.5,-214.05 681.5,-186.05 809.5,-186.05 809.5,-214.05"/>
<text text-anchor="start" x="689.5" y="-202.85" font-family="Helvetica,sans-Serif" font-size="9.00">__gnu_parallel::__parallel</text>
<text text-anchor="middle" x="745.5" y="-192.85" font-family="Helvetica,sans-Serif" font-size="9.00">_partition</text>
</a>
</g>
</g>
<!-- Node5&#45;&gt;Node6 -->
<g id="edge6_Node000005_Node000006" class="edge">
<title>Node5&#45;&gt;Node6</title>
<g id="a_edge6_Node000005_Node000006"><a xlink:title=" ">
<path fill="none" stroke="#63b8ff" d="M645.29,-200.05C653.81,-200.05 662.61,-200.05 671.28,-200.05"/>
<polygon fill="#63b8ff" stroke="#63b8ff" points="671.38,-203.55 681.38,-200.05 671.38,-196.55 671.38,-203.55"/>
</a>
</g>
</g>
<!-- Node10 -->
<g id="Node000010" class="node">
<title>Node10</title>
<g id="a_Node000010"><a xlink:href="a01600.html#gae9cf068dc91c8779040669efa4a8cf65" target="_top" xlink:title="This does what you think it does.">
<polygon fill="white" stroke="#666666" points="772.5,-250.05 718.5,-250.05 718.5,-232.05 772.5,-232.05 772.5,-250.05"/>
<text text-anchor="middle" x="745.5" y="-238.85" font-family="Helvetica,sans-Serif" font-size="9.00">std::min</text>
</a>
</g>
</g>
<!-- Node5&#45;&gt;Node10 -->
<g id="edge10_Node000005_Node000010" class="edge">
<title>Node5&#45;&gt;Node10</title>
<g id="a_edge10_Node000005_Node000010"><a xlink:title=" ">
<path fill="none" stroke="#63b8ff" d="M637.92,-214.16C661.17,-220.02 687.49,-226.67 708.16,-231.88"/>
<polygon fill="#63b8ff" stroke="#63b8ff" points="707.56,-235.34 718.11,-234.39 709.27,-228.55 707.56,-235.34"/>
</a>
</g>
</g>
<!-- Node7 -->
<g id="Node000007" class="node">
<title>Node7</title>
<g id="a_Node000007"><a xlink:href="a01715.html#accd4441e0f846fee44966195a91e9e68" target="_top" xlink:title="Compare&#45;and&#45;swap.">
<polygon fill="white" stroke="#666666" points="988,-191.05 853,-191.05 853,-163.05 988,-163.05 988,-191.05"/>
<text text-anchor="start" x="861" y="-179.85" font-family="Helvetica,sans-Serif" font-size="9.00">__gnu_parallel::__compare</text>
<text text-anchor="middle" x="920.5" y="-169.85" font-family="Helvetica,sans-Serif" font-size="9.00">_and_swap</text>
</a>
</g>
</g>
<!-- Node6&#45;&gt;Node7 -->
<g id="edge7_Node000006_Node000007" class="edge">
<title>Node6&#45;&gt;Node7</title>
<g id="a_edge7_Node000006_Node000007"><a xlink:title=" ">
<path fill="none" stroke="#63b8ff" d="M809.94,-191.62C820.64,-190.19 831.86,-188.7 842.86,-187.24"/>
<polygon fill="#63b8ff" stroke="#63b8ff" points="843.42,-190.69 852.87,-185.91 842.5,-183.75 843.42,-190.69"/>
</a>
</g>
</g>
<!-- Node8 -->
<g id="Node000008" class="node">
<title>Node8</title>
<g id="a_Node000008"><a xlink:href="a01715.html#a56a5a84c8a6049cd3cc83968c6eae088" target="_top" xlink:title="Add a value to a variable, atomically.">
<polygon fill="white" stroke="#666666" points="980,-237.05 861,-237.05 861,-209.05 980,-209.05 980,-237.05"/>
<text text-anchor="start" x="869" y="-225.85" font-family="Helvetica,sans-Serif" font-size="9.00">__gnu_parallel::__fetch</text>
<text text-anchor="middle" x="920.5" y="-215.85" font-family="Helvetica,sans-Serif" font-size="9.00">_and_add</text>
</a>
</g>
</g>
<!-- Node6&#45;&gt;Node8 -->
<g id="edge8_Node000006_Node000008" class="edge">
<title>Node6&#45;&gt;Node8</title>
<g id="a_edge8_Node000006_Node000008"><a xlink:title=" ">
<path fill="none" stroke="#63b8ff" d="M809.94,-208.48C823.23,-210.25 837.31,-212.12 850.79,-213.91"/>
<polygon fill="#63b8ff" stroke="#63b8ff" points="850.58,-217.42 860.95,-215.26 851.5,-210.48 850.58,-217.42"/>
</a>
</g>
</g>
<!-- Node6&#45;&gt;Node9 -->
<g id="edge9_Node000006_Node000009" class="edge">
<title>Node6&#45;&gt;Node9</title>
<g id="a_edge9_Node000006_Node000009"><a xlink:title=" ">
<path fill="none" stroke="#63b8ff" d="M781.3,-186C790.77,-181.83 800.91,-177.03 810,-172.05 842.43,-154.26 877.63,-129.78 899.13,-114.18"/>
<polygon fill="#63b8ff" stroke="#63b8ff" points="901.45,-116.82 907.46,-108.09 897.32,-111.17 901.45,-116.82"/>
</a>
</g>
</g>
<!-- Node12 -->
<g id="Node000012" class="node">
<title>Node12</title>
<g id="a_Node000012"><a xlink:href="a01715.html#a8d9c5686c4621822c7c3cdd015f7e693" target="_top" xlink:title="Quicksort conquer step.">
<polygon fill="white" stroke="#666666" points="472.5,-101.05 360.5,-101.05 360.5,-73.05 472.5,-73.05 472.5,-101.05"/>
<text text-anchor="start" x="368.5" y="-89.85" font-family="Helvetica,sans-Serif" font-size="9.00">__gnu_parallel::__qsb</text>
<text text-anchor="middle" x="416.5" y="-79.85" font-family="Helvetica,sans-Serif" font-size="9.00">_conquer</text>
</a>
</g>
</g>
<!-- Node11&#45;&gt;Node12 -->
<g id="edge13_Node000011_Node000012" class="edge">
<title>Node11&#45;&gt;Node12</title>
<g id="a_edge13_Node000011_Node000012"><a xlink:title=" ">
<path fill="none" stroke="#63b8ff" d="M310.71,-62.13C323.65,-65.21 337.41,-68.48 350.56,-71.61"/>
<polygon fill="#63b8ff" stroke="#63b8ff" points="349.94,-75.06 360.48,-73.96 351.56,-68.25 349.94,-75.06"/>
</a>
</g>
</g>
<!-- Node17 -->
<g id="Node000017" class="node">
<title>Node17</title>
<g id="a_Node000017"><a xlink:href="a01715.html#ae8e1f6dc07de01f28bf591339cf8aa9c" target="_top" xlink:title="Calculates the rounded&#45;down logarithm of __n for base 2.">
<polygon fill="white" stroke="#666666" points="481,-55.05 352,-55.05 352,-37.05 481,-37.05 481,-55.05"/>
<text text-anchor="middle" x="416.5" y="-43.85" font-family="Helvetica,sans-Serif" font-size="9.00">__gnu_parallel::__rd_log2</text>
</a>
</g>
</g>
<!-- Node11&#45;&gt;Node17 -->
<g id="edge21_Node000011_Node000017" class="edge">
<title>Node11&#45;&gt;Node17</title>
<g id="a_edge21_Node000011_Node000017"><a xlink:title=" ">
<path fill="none" stroke="#63b8ff" d="M314.91,-47.28C323.75,-47.17 332.89,-47.06 341.9,-46.95"/>
<polygon fill="#63b8ff" stroke="#63b8ff" points="342.04,-50.45 351.99,-46.82 341.95,-43.45 342.04,-50.45"/>
</a>
</g>
</g>
<!-- Node12&#45;&gt;Node12 -->
<g id="edge14_Node000012_Node000012" class="edge">
<title>Node12&#45;&gt;Node12</title>
<g id="a_edge14_Node000012_Node000012"><a xlink:title=" ">
<path fill="none" stroke="#63b8ff" d="M388.18,-101.2C380.8,-110.29 390.23,-119.05 416.5,-119.05 432.51,-119.05 442.26,-115.8 445.77,-111.2"/>
<polygon fill="#63b8ff" stroke="#63b8ff" points="449.25,-110.82 444.82,-101.2 442.28,-111.48 449.25,-110.82"/>
</a>
</g>
</g>
<!-- Node13 -->
<g id="Node000013" class="node">
<title>Node13</title>
<g id="a_Node000013"><a xlink:href="a01715.html#af5df990f9c6b42ec71b0b3245efd8e56" target="_top" xlink:title="Balanced quicksort divide step.">
<polygon fill="white" stroke="#666666" points="637,-130.05 525,-130.05 525,-102.05 637,-102.05 637,-130.05"/>
<text text-anchor="start" x="533" y="-118.85" font-family="Helvetica,sans-Serif" font-size="9.00">__gnu_parallel::__qsb</text>
<text text-anchor="middle" x="581" y="-108.85" font-family="Helvetica,sans-Serif" font-size="9.00">_divide</text>
</a>
</g>
</g>
<!-- Node12&#45;&gt;Node13 -->
<g id="edge15_Node000012_Node000013" class="edge">
<title>Node12&#45;&gt;Node13</title>
<g id="a_edge15_Node000012_Node000013"><a xlink:title=" ">
<path fill="none" stroke="#63b8ff" d="M472.52,-96.87C486.07,-99.29 500.72,-101.9 514.72,-104.4"/>
<polygon fill="#63b8ff" stroke="#63b8ff" points="514.31,-107.88 524.77,-106.19 515.54,-100.99 514.31,-107.88"/>
</a>
</g>
</g>
<!-- Node15 -->
<g id="Node000015" class="node">
<title>Node15</title>
<g id="a_Node000015"><a xlink:href="a01715.html#a7565d258aacb02328cef6eb2781ab711" target="_top" xlink:title="Quicksort step doing load&#45;balanced local sort.">
<polygon fill="white" stroke="#666666" points="643.5,-84.05 518.5,-84.05 518.5,-56.05 643.5,-56.05 643.5,-84.05"/>
<text text-anchor="start" x="526.5" y="-72.85" font-family="Helvetica,sans-Serif" font-size="9.00">__gnu_parallel::__qsb</text>
<text text-anchor="middle" x="581" y="-62.85" font-family="Helvetica,sans-Serif" font-size="9.00">_local_sort_with_helping</text>
</a>
</g>
</g>
<!-- Node12&#45;&gt;Node15 -->
<g id="edge18_Node000012_Node000015" class="edge">
<title>Node12&#45;&gt;Node15</title>
<g id="a_edge18_Node000012_Node000015"><a xlink:title=" ">
<path fill="none" stroke="#63b8ff" d="M472.52,-81.29C484.02,-80.09 496.32,-78.8 508.33,-77.55"/>
<polygon fill="#63b8ff" stroke="#63b8ff" points="508.75,-81.02 518.33,-76.5 508.02,-74.06 508.75,-81.02"/>
</a>
</g>
</g>
<!-- Node13&#45;&gt;Node6 -->
<g id="edge17_Node000013_Node000006" class="edge">
<title>Node13&#45;&gt;Node6</title>
<g id="a_edge17_Node000013_Node000006"><a xlink:title=" ">
<path fill="none" stroke="#63b8ff" d="M609.2,-130.11C636.38,-144.16 678.34,-165.85 708.32,-181.35"/>
<polygon fill="#63b8ff" stroke="#63b8ff" points="706.72,-184.46 717.21,-185.94 709.94,-178.24 706.72,-184.46"/>
</a>
</g>
</g>
<!-- Node14 -->
<g id="Node000014" class="node">
<title>Node14</title>
<g id="a_Node000014"><a xlink:href="a01715.html#a74914ea59d68887b517e12c90189dbcd" target="_top" xlink:title="Compute the median of three referenced elements, according to __comp.">
<polygon fill="white" stroke="#666666" points="810,-130.05 681,-130.05 681,-102.05 810,-102.05 810,-130.05"/>
<text text-anchor="start" x="689" y="-118.85" font-family="Helvetica,sans-Serif" font-size="9.00">__gnu_parallel::__median</text>
<text text-anchor="middle" x="745.5" y="-108.85" font-family="Helvetica,sans-Serif" font-size="9.00">_of_three_iterators</text>
</a>
</g>
</g>
<!-- Node13&#45;&gt;Node14 -->
<g id="edge16_Node000013_Node000014" class="edge">
<title>Node13&#45;&gt;Node14</title>
<g id="a_edge16_Node000013_Node000014"><a xlink:title=" ">
<path fill="none" stroke="#63b8ff" d="M637.02,-116.05C647.8,-116.05 659.28,-116.05 670.56,-116.05"/>
<polygon fill="#63b8ff" stroke="#63b8ff" points="670.85,-119.55 680.85,-116.05 670.85,-112.55 670.85,-119.55"/>
</a>
</g>
</g>
<!-- Node15&#45;&gt;Node9 -->
<g id="edge20_Node000015_Node000009" class="edge">
<title>Node15&#45;&gt;Node9</title>
<g id="a_edge20_Node000015_Node000009"><a xlink:title=" ">
<path fill="none" stroke="#63b8ff" d="M643.95,-58.58C690.09,-51.95 754.45,-46.76 810,-57.05 839.34,-62.48 870.97,-75.46 892.66,-85.56"/>
<polygon fill="#63b8ff" stroke="#63b8ff" points="891.35,-88.81 901.88,-89.96 894.36,-82.5 891.35,-88.81"/>
</a>
</g>
</g>
<!-- Node16 -->
<g id="Node000016" class="node">
<title>Node16</title>
<g id="a_Node000016"><a xlink:href="a01715.html#aaa76236af73146ae89f726921bc3f2cb" target="_top" xlink:title="Yield control to another thread, without waiting for the end of the time slice.">
<polygon fill="white" stroke="#666666" points="803.5,-84.05 687.5,-84.05 687.5,-66.05 803.5,-66.05 803.5,-84.05"/>
<text text-anchor="middle" x="745.5" y="-72.85" font-family="Helvetica,sans-Serif" font-size="9.00">__gnu_parallel::__yield</text>
</a>
</g>
</g>
<!-- Node15&#45;&gt;Node16 -->
<g id="edge19_Node000015_Node000016" class="edge">
<title>Node15&#45;&gt;Node16</title>
<g id="a_edge19_Node000015_Node000016"><a xlink:title=" ">
<path fill="none" stroke="#63b8ff" d="M643.9,-71.95C654.82,-72.29 666.23,-72.64 677.29,-72.98"/>
<polygon fill="#63b8ff" stroke="#63b8ff" points="677.21,-76.48 687.31,-73.29 677.43,-69.48 677.21,-76.48"/>
</a>
</g>
</g>
</g>
</svg>

<g id="navigator" transform="translate(0 0)" fill="#404254">
  <rect fill="#f2f5e9" fill-opacity="0.5" stroke="#606060" stroke-width=".5" x="0" y="0" width="60" height="60"/>
  <use id="zoomplus" xlink:href="#zoomPlus" x="17" y="9" onmousedown="handleZoom(evt,'in')"/>
  <use id="zoomminus" xlink:href="#zoomMin" x="42" y="9" onmousedown="handleZoom(evt,'out')"/>
  <use id="reset" xlink:href="#resetDef" x="30" y="36" onmousedown="handleReset()"/>
   <use id="arrowup" xlink:href="#arrowUp" x="0" y="0" onmousedown="handlePan(0,-1)"/>
  <use id="arrowright" xlink:href="#arrowRight" x="0" y="0" onmousedown="handlePan(1,0)"/>
  <use id="arrowdown" xlink:href="#arrowDown" x="0" y="0" onmousedown="handlePan(0,1)"/>
  <use id="arrowleft" xlink:href="#arrowLeft" x="0" y="0" onmousedown="handlePan(-1,0)"/>
</g>
<svg viewBox="0 0 15 15" width="100%" height="30px" preserveAspectRatio="xMaxYMin meet">
 <g id="arrow_out" transform="scale(0.3 0.3)">
  <a xlink:href="a01715_aa47b469dd82347dd63c3996eda2e237b_cgraph_org.svg" target="_base">
   <rect id="button" ry="5" rx="5" y="6" x="6" height="38" width="38"
        fill="#f2f5e9" fill-opacity="0.5" stroke="#606060" stroke-width="1.0"/>
   <path id="arrow"
     d="M 11.500037,31.436501 C 11.940474,20.09759 22.043105,11.32322 32.158766,21.979434 L 37.068811,17.246167 C 37.068811,17.246167 37.088388,32 37.088388,32 L 22.160133,31.978069 C 22.160133,31.978069 26.997745,27.140456 26.997745,27.140456 C 18.528582,18.264221 13.291696,25.230495 11.500037,31.436501 z"
     style="fill:#404040;"/>
  </a>
 </g>
</svg>

<style type='text/css'>
<![CDATA[
[data-mouse-over-selected='false'] { opacity: 0.7; }
[data-mouse-over-selected='true']  { opacity: 1.0; }
]]>
</style>
<script type="application/ecmascript"><![CDATA[
document.addEventListener('DOMContentLoaded', (event) => {
  highlightEdges();
  highlightAdjacentNodes();
});
]]></script>
</svg>
