<?xml version="1.0" encoding="UTF-8" standalone="no"?>
<!DOCTYPE svg PUBLIC "-//W3C//DTD SVG 1.1//EN"
 "http://www.w3.org/Graphics/SVG/1.1/DTD/svg11.dtd">
<!-- Generated by graphviz version 2.43.0 (0)
 -->
<!-- Title: __gnu_parallel::__parallel_sort Pages: 1 -->
<!--zoomable 156 -->

<svg id="main" version="1.1" xmlns="http://www.w3.org/2000/svg" xmlns:xlink="http://www.w3.org/1999/xlink" xml:space="preserve" onload="init(evt)">
<style type="text/css"><![CDATA[
.node, .edge {opacity: 0.7;}
.node.selected, .edge.selected {opacity: 1;}
.edge:hover path { stroke: red; }
.edge:hover polygon { stroke: red; fill: red; }
]]></style>

<defs>
  <circle id="rim" cx="0" cy="0" r="7"/>
  <circle id="rim2" cx="0" cy="0" r="3.5"/>
  <g id="zoomPlus">
    <use xlink:href="#rim" fill="#404040"><set attributeName="fill" to="#808080" begin="zoomplus.mouseover" end="zoomplus.mouseout"/></use>
    <path d="M-4,0h8M0,-4v8" fill="none" stroke="white" stroke-width="1.5" pointer-events="none"/>
  </g>
  <g id="zoomMin">
    <use xlink:href="#rim" fill="#404040"><set attributeName="fill" to="#808080" begin="zoomminus.mouseover" end="zoomminus.mouseout"/></use>
    <path d="M-4,0h8" fill="none" stroke="white" stroke-width="1.5" pointer-events="none"/>
  </g>
  <g id="arrowUp" transform="translate(30 24)">
    <use xlink:href="#rim"/>
    <path pointer-events="none" fill="none" stroke="white" stroke-width="1.5" d="M0,-3.0v7 M-2.5,-0.5L0,-3.0L2.5,-0.5"/>
  </g>
  <g id="arrowRight" transform="rotate(90) translate(36 -43)">
    <use xlink:href="#rim"/>
    <path pointer-events="none" fill="none" stroke="white" stroke-width="1.5" d="M0,-3.0v7 M-2.5,-0.5L0,-3.0L2.5,-0.5"/>
  </g>
  <g id="arrowDown" transform="rotate(180) translate(-30 -48)">
    <use xlink:href="#rim"/>
    <path pointer-events="none" fill="none" stroke="white" stroke-width="1.5" d="M0,-3.0v7 M-2.5,-0.5L0,-3.0L2.5,-0.5"/>
  </g>
  <g id="arrowLeft" transform="rotate(270) translate(-36 17)">
    <use xlink:href="#rim"/>
    <path pointer-events="none" fill="none" stroke="white" stroke-width="1.5" d="M0,-3.0v7 M-2.5,-0.5L0,-3.0L2.5,-0.5"/>
  </g>
  <g id="resetDef">
    <use xlink:href="#rim2" fill="#404040"><set attributeName="fill" to="#808080" begin="reset.mouseover" end="reset.mouseout"/></use>
  </g>
</defs>
<script type="application/ecmascript">
var viewWidth = 1000;
var viewHeight = 156;
var sectionId = 'dynsection-0';
</script>
<script type="application/ecmascript" xlink:href="svg.min.js"/>
<svg id="graph" class="graph">
<g id="viewport">
<title>__gnu_parallel::__parallel_sort</title>
<!-- Node1 -->
<g id="Node000001" class="node">
<title>Node1</title>
<g id="a_Node000001"><a xlink:title="Choose balanced quicksort for parallel sorting.">
<polygon fill="#999999" stroke="#666666" points="149,-78 0,-78 0,-60 149,-60 149,-78"/>
<text text-anchor="middle" x="74.5" y="-66.8" font-family="Helvetica,sans-Serif" font-size="9.00">__gnu_parallel::__parallel_sort</text>
</a>
</g>
</g>
<!-- Node2 -->
<g id="Node000002" class="node">
<title>Node2</title>
<g id="a_Node000002"><a xlink:href="a10261.html#a18b32829b31b902699690b750e190e59" target="_top" xlink:title="Find out desired number of threads.">
<polygon fill="white" stroke="#666666" points="316,-106 185,-106 185,-78 316,-78 316,-106"/>
<text text-anchor="start" x="193" y="-94.8" font-family="Helvetica,sans-Serif" font-size="9.00">__gnu_parallel::parallel</text>
<text text-anchor="middle" x="250.5" y="-84.8" font-family="Helvetica,sans-Serif" font-size="9.00">_tag::__get_num_threads</text>
</a>
</g>
</g>
<!-- Node1&#45;&gt;Node2 -->
<g id="edge1_Node000001_Node000002" class="edge">
<title>Node1&#45;&gt;Node2</title>
<g id="a_edge1_Node000001_Node000002"><a xlink:title=" ">
<path fill="none" stroke="#63b8ff" d="M143.77,-78.02C153.91,-79.36 164.41,-80.75 174.67,-82.11"/>
<polygon fill="#63b8ff" stroke="#63b8ff" points="174.47,-85.61 184.84,-83.45 175.38,-78.67 174.47,-85.61"/>
</a>
</g>
</g>
<!-- Node3 -->
<g id="Node000003" class="node">
<title>Node3</title>
<g id="a_Node000003"><a xlink:href="a01715.html#a4093dd098b32542e3d3f43ebd4c6f940" target="_top" xlink:title="Top&#45;level quicksort routine.">
<polygon fill="white" stroke="#666666" points="314.5,-60 186.5,-60 186.5,-32 314.5,-32 314.5,-60"/>
<text text-anchor="start" x="194.5" y="-48.8" font-family="Helvetica,sans-Serif" font-size="9.00">__gnu_parallel::__parallel</text>
<text text-anchor="middle" x="250.5" y="-38.8" font-family="Helvetica,sans-Serif" font-size="9.00">_sort_qsb</text>
</a>
</g>
</g>
<!-- Node1&#45;&gt;Node3 -->
<g id="edge2_Node000001_Node000003" class="edge">
<title>Node1&#45;&gt;Node3</title>
<g id="a_edge2_Node000001_Node000003"><a xlink:title=" ">
<path fill="none" stroke="#63b8ff" d="M143.77,-59.98C154.38,-58.57 165.37,-57.12 176.09,-55.7"/>
<polygon fill="#63b8ff" stroke="#63b8ff" points="176.8,-59.14 186.25,-54.36 175.88,-52.2 176.8,-59.14"/>
</a>
</g>
</g>
<!-- Node4 -->
<g id="Node000004" class="node">
<title>Node4</title>
<g id="a_Node000004"><a xlink:href="a01715.html#a8d9c5686c4621822c7c3cdd015f7e693" target="_top" xlink:title="Quicksort conquer step.">
<polygon fill="white" stroke="#666666" points="472.5,-81 360.5,-81 360.5,-53 472.5,-53 472.5,-81"/>
<text text-anchor="start" x="368.5" y="-69.8" font-family="Helvetica,sans-Serif" font-size="9.00">__gnu_parallel::__qsb</text>
<text text-anchor="middle" x="416.5" y="-59.8" font-family="Helvetica,sans-Serif" font-size="9.00">_conquer</text>
</a>
</g>
</g>
<!-- Node3&#45;&gt;Node4 -->
<g id="edge3_Node000003_Node000004" class="edge">
<title>Node3&#45;&gt;Node4</title>
<g id="a_edge3_Node000003_Node000004"><a xlink:title=" ">
<path fill="none" stroke="#63b8ff" d="M314.91,-54.12C326.48,-55.6 338.57,-57.15 350.2,-58.64"/>
<polygon fill="#63b8ff" stroke="#63b8ff" points="349.91,-62.13 360.27,-59.93 350.8,-55.19 349.91,-62.13"/>
</a>
</g>
</g>
<!-- Node13 -->
<g id="Node000013" class="node">
<title>Node13</title>
<g id="a_Node000013"><a xlink:href="a01715.html#ae8e1f6dc07de01f28bf591339cf8aa9c" target="_top" xlink:title="Calculates the rounded&#45;down logarithm of __n for base 2.">
<polygon fill="white" stroke="#666666" points="481,-35 352,-35 352,-17 481,-17 481,-35"/>
<text text-anchor="middle" x="416.5" y="-23.8" font-family="Helvetica,sans-Serif" font-size="9.00">__gnu_parallel::__rd_log2</text>
</a>
</g>
</g>
<!-- Node3&#45;&gt;Node13 -->
<g id="edge14_Node000003_Node000013" class="edge">
<title>Node3&#45;&gt;Node13</title>
<g id="a_edge14_Node000003_Node000013"><a xlink:title=" ">
<path fill="none" stroke="#63b8ff" d="M314.91,-38.27C323.75,-37.19 332.89,-36.07 341.9,-34.98"/>
<polygon fill="#63b8ff" stroke="#63b8ff" points="342.49,-38.43 351.99,-33.74 341.64,-31.48 342.49,-38.43"/>
</a>
</g>
</g>
<!-- Node4&#45;&gt;Node4 -->
<g id="edge4_Node000004_Node000004" class="edge">
<title>Node4&#45;&gt;Node4</title>
<g id="a_edge4_Node000004_Node000004"><a xlink:title=" ">
<path fill="none" stroke="#63b8ff" d="M388.53,-81.15C381.23,-90.24 390.55,-99 416.5,-99 432.31,-99 441.95,-95.75 445.42,-91.15"/>
<polygon fill="#63b8ff" stroke="#63b8ff" points="448.9,-90.78 444.47,-81.15 441.93,-91.43 448.9,-90.78"/>
</a>
</g>
</g>
<!-- Node5 -->
<g id="Node000005" class="node">
<title>Node5</title>
<g id="a_Node000005"><a xlink:href="a01715.html#af5df990f9c6b42ec71b0b3245efd8e56" target="_top" xlink:title="Balanced quicksort divide step.">
<polygon fill="white" stroke="#666666" points="635.5,-104 523.5,-104 523.5,-76 635.5,-76 635.5,-104"/>
<text text-anchor="start" x="531.5" y="-92.8" font-family="Helvetica,sans-Serif" font-size="9.00">__gnu_parallel::__qsb</text>
<text text-anchor="middle" x="579.5" y="-82.8" font-family="Helvetica,sans-Serif" font-size="9.00">_divide</text>
</a>
</g>
</g>
<!-- Node4&#45;&gt;Node5 -->
<g id="edge5_Node000004_Node000005" class="edge">
<title>Node4&#45;&gt;Node5</title>
<g id="a_edge5_Node000004_Node000005"><a xlink:title=" ">
<path fill="none" stroke="#63b8ff" d="M472.91,-74.92C485.88,-76.77 499.82,-78.76 513.18,-80.67"/>
<polygon fill="#63b8ff" stroke="#63b8ff" points="512.87,-84.16 523.26,-82.11 513.86,-77.23 512.87,-84.16"/>
</a>
</g>
</g>
<!-- Node11 -->
<g id="Node000011" class="node">
<title>Node11</title>
<g id="a_Node000011"><a xlink:href="a01715.html#a7565d258aacb02328cef6eb2781ab711" target="_top" xlink:title="Quicksort step doing load&#45;balanced local sort.">
<polygon fill="white" stroke="#666666" points="642,-58 517,-58 517,-30 642,-30 642,-58"/>
<text text-anchor="start" x="525" y="-46.8" font-family="Helvetica,sans-Serif" font-size="9.00">__gnu_parallel::__qsb</text>
<text text-anchor="middle" x="579.5" y="-36.8" font-family="Helvetica,sans-Serif" font-size="9.00">_local_sort_with_helping</text>
</a>
</g>
</g>
<!-- Node4&#45;&gt;Node11 -->
<g id="edge11_Node000004_Node000011" class="edge">
<title>Node4&#45;&gt;Node11</title>
<g id="a_edge11_Node000004_Node000011"><a xlink:title=" ">
<path fill="none" stroke="#63b8ff" d="M472.91,-59.08C483.88,-57.52 495.55,-55.85 506.97,-54.22"/>
<polygon fill="#63b8ff" stroke="#63b8ff" points="507.52,-57.68 516.92,-52.8 506.53,-50.75 507.52,-57.68"/>
</a>
</g>
</g>
<!-- Node6 -->
<g id="Node000006" class="node">
<title>Node6</title>
<g id="a_Node000006"><a xlink:href="a01715.html#a74914ea59d68887b517e12c90189dbcd" target="_top" xlink:title="Compute the median of three referenced elements, according to __comp.">
<polygon fill="white" stroke="#666666" points="807,-148 678,-148 678,-120 807,-120 807,-148"/>
<text text-anchor="start" x="686" y="-136.8" font-family="Helvetica,sans-Serif" font-size="9.00">__gnu_parallel::__median</text>
<text text-anchor="middle" x="742.5" y="-126.8" font-family="Helvetica,sans-Serif" font-size="9.00">_of_three_iterators</text>
</a>
</g>
</g>
<!-- Node5&#45;&gt;Node6 -->
<g id="edge6_Node000005_Node000006" class="edge">
<title>Node5&#45;&gt;Node6</title>
<g id="a_edge6_Node000005_Node000006"><a xlink:title=" ">
<path fill="none" stroke="#63b8ff" d="M631.88,-104.04C647.28,-108.25 664.31,-112.91 680.28,-117.27"/>
<polygon fill="#63b8ff" stroke="#63b8ff" points="679.48,-120.68 690.05,-119.94 681.33,-113.93 679.48,-120.68"/>
</a>
</g>
</g>
<!-- Node7 -->
<g id="Node000007" class="node">
<title>Node7</title>
<g id="a_Node000007"><a xlink:href="a01715.html#ac870af1d69405f2f53cd7a96e1d92348" target="_top" xlink:title="Parallel implementation of std::partition.">
<polygon fill="white" stroke="#666666" points="806.5,-102 678.5,-102 678.5,-74 806.5,-74 806.5,-102"/>
<text text-anchor="start" x="686.5" y="-90.8" font-family="Helvetica,sans-Serif" font-size="9.00">__gnu_parallel::__parallel</text>
<text text-anchor="middle" x="742.5" y="-80.8" font-family="Helvetica,sans-Serif" font-size="9.00">_partition</text>
</a>
</g>
</g>
<!-- Node5&#45;&gt;Node7 -->
<g id="edge7_Node000005_Node000007" class="edge">
<title>Node5&#45;&gt;Node7</title>
<g id="a_edge7_Node000005_Node000007"><a xlink:title=" ">
<path fill="none" stroke="#63b8ff" d="M635.91,-89.31C646.25,-89.18 657.2,-89.05 667.98,-88.91"/>
<polygon fill="#63b8ff" stroke="#63b8ff" points="668.29,-92.41 678.25,-88.79 668.2,-85.41 668.29,-92.41"/>
</a>
</g>
</g>
<!-- Node8 -->
<g id="Node000008" class="node">
<title>Node8</title>
<g id="a_Node000008"><a xlink:href="a01715.html#accd4441e0f846fee44966195a91e9e68" target="_top" xlink:title="Compare&#45;and&#45;swap.">
<polygon fill="white" stroke="#666666" points="985,-147 850,-147 850,-119 985,-119 985,-147"/>
<text text-anchor="start" x="858" y="-135.8" font-family="Helvetica,sans-Serif" font-size="9.00">__gnu_parallel::__compare</text>
<text text-anchor="middle" x="917.5" y="-125.8" font-family="Helvetica,sans-Serif" font-size="9.00">_and_swap</text>
</a>
</g>
</g>
<!-- Node7&#45;&gt;Node8 -->
<g id="edge8_Node000007_Node000008" class="edge">
<title>Node7&#45;&gt;Node8</title>
<g id="a_edge8_Node000007_Node000008"><a xlink:title=" ">
<path fill="none" stroke="#63b8ff" d="M797.76,-102.11C815.15,-106.64 834.57,-111.69 852.59,-116.38"/>
<polygon fill="#63b8ff" stroke="#63b8ff" points="851.87,-119.81 862.43,-118.94 853.63,-113.03 851.87,-119.81"/>
</a>
</g>
</g>
<!-- Node9 -->
<g id="Node000009" class="node">
<title>Node9</title>
<g id="a_Node000009"><a xlink:href="a01715.html#a56a5a84c8a6049cd3cc83968c6eae088" target="_top" xlink:title="Add a value to a variable, atomically.">
<polygon fill="white" stroke="#666666" points="977,-101 858,-101 858,-73 977,-73 977,-101"/>
<text text-anchor="start" x="866" y="-89.8" font-family="Helvetica,sans-Serif" font-size="9.00">__gnu_parallel::__fetch</text>
<text text-anchor="middle" x="917.5" y="-79.8" font-family="Helvetica,sans-Serif" font-size="9.00">_and_add</text>
</a>
</g>
</g>
<!-- Node7&#45;&gt;Node9 -->
<g id="edge9_Node000007_Node000009" class="edge">
<title>Node7&#45;&gt;Node9</title>
<g id="a_edge9_Node000007_Node000009"><a xlink:title=" ">
<path fill="none" stroke="#63b8ff" d="M806.94,-87.63C820.23,-87.56 834.31,-87.48 847.79,-87.4"/>
<polygon fill="#63b8ff" stroke="#63b8ff" points="847.97,-90.9 857.95,-87.34 847.93,-83.9 847.97,-90.9"/>
</a>
</g>
</g>
<!-- Node10 -->
<g id="Node000010" class="node">
<title>Node10</title>
<g id="a_Node000010"><a xlink:href="a10253.html#afe774b372d0f1591ad992224ecd084c3" target="_top" xlink:title="Get the global settings.">
<polygon fill="white" stroke="#666666" points="992,-55 843,-55 843,-37 992,-37 992,-55"/>
<text text-anchor="middle" x="917.5" y="-43.8" font-family="Helvetica,sans-Serif" font-size="9.00">__gnu_parallel::_Settings::get</text>
</a>
</g>
</g>
<!-- Node7&#45;&gt;Node10 -->
<g id="edge10_Node000007_Node000010" class="edge">
<title>Node7&#45;&gt;Node10</title>
<g id="a_edge10_Node000007_Node000010"><a xlink:title=" ">
<path fill="none" stroke="#63b8ff" d="M801.59,-73.9C823.6,-68.55 848.38,-62.54 869.28,-57.46"/>
<polygon fill="#63b8ff" stroke="#63b8ff" points="870.31,-60.82 879.2,-55.06 868.66,-54.01 870.31,-60.82"/>
</a>
</g>
</g>
<!-- Node11&#45;&gt;Node10 -->
<g id="edge13_Node000011_Node000010" class="edge">
<title>Node11&#45;&gt;Node10</title>
<g id="a_edge13_Node000011_Node000010"><a xlink:title=" ">
<path fill="none" stroke="#63b8ff" d="M642.13,-44.37C695.68,-44.69 773.72,-45.15 832.89,-45.5"/>
<polygon fill="#63b8ff" stroke="#63b8ff" points="832.94,-49 842.96,-45.56 832.99,-42 832.94,-49"/>
</a>
</g>
</g>
<!-- Node12 -->
<g id="Node000012" class="node">
<title>Node12</title>
<g id="a_Node000012"><a xlink:href="a01715.html#aaa76236af73146ae89f726921bc3f2cb" target="_top" xlink:title="Yield control to another thread, without waiting for the end of the time slice.">
<polygon fill="white" stroke="#666666" points="800.5,-18 684.5,-18 684.5,0 800.5,0 800.5,-18"/>
<text text-anchor="middle" x="742.5" y="-6.8" font-family="Helvetica,sans-Serif" font-size="9.00">__gnu_parallel::__yield</text>
</a>
</g>
</g>
<!-- Node11&#45;&gt;Node12 -->
<g id="edge12_Node000011_Node000012" class="edge">
<title>Node11&#45;&gt;Node12</title>
<g id="a_edge12_Node000011_Node000012"><a xlink:title=" ">
<path fill="none" stroke="#63b8ff" d="M642.29,-30.57C657.99,-27.15 674.71,-23.52 689.85,-20.23"/>
<polygon fill="#63b8ff" stroke="#63b8ff" points="691.02,-23.56 700.05,-18.01 689.54,-16.71 691.02,-23.56"/>
</a>
</g>
</g>
</g>
</svg>

<g id="navigator" transform="translate(0 0)" fill="#404254">
  <rect fill="#f2f5e9" fill-opacity="0.5" stroke="#606060" stroke-width=".5" x="0" y="0" width="60" height="60"/>
  <use id="zoomplus" xlink:href="#zoomPlus" x="17" y="9" onmousedown="handleZoom(evt,'in')"/>
  <use id="zoomminus" xlink:href="#zoomMin" x="42" y="9" onmousedown="handleZoom(evt,'out')"/>
  <use id="reset" xlink:href="#resetDef" x="30" y="36" onmousedown="handleReset()"/>
   <use id="arrowup" xlink:href="#arrowUp" x="0" y="0" onmousedown="handlePan(0,-1)"/>
  <use id="arrowright" xlink:href="#arrowRight" x="0" y="0" onmousedown="handlePan(1,0)"/>
  <use id="arrowdown" xlink:href="#arrowDown" x="0" y="0" onmousedown="handlePan(0,1)"/>
  <use id="arrowleft" xlink:href="#arrowLeft" x="0" y="0" onmousedown="handlePan(-1,0)"/>
</g>
<svg viewBox="0 0 15 15" width="100%" height="30px" preserveAspectRatio="xMaxYMin meet">
 <g id="arrow_out" transform="scale(0.3 0.3)">
  <a xlink:href="a01715_a000f037b08d237d140dd6144a11fb73f_cgraph_org.svg" target="_base">
   <rect id="button" ry="5" rx="5" y="6" x="6" height="38" width="38"
        fill="#f2f5e9" fill-opacity="0.5" stroke="#606060" stroke-width="1.0"/>
   <path id="arrow"
     d="M 11.500037,31.436501 C 11.940474,20.09759 22.043105,11.32322 32.158766,21.979434 L 37.068811,17.246167 C 37.068811,17.246167 37.088388,32 37.088388,32 L 22.160133,31.978069 C 22.160133,31.978069 26.997745,27.140456 26.997745,27.140456 C 18.528582,18.264221 13.291696,25.230495 11.500037,31.436501 z"
     style="fill:#404040;"/>
  </a>
 </g>
</svg>

<style type='text/css'>
<![CDATA[
[data-mouse-over-selected='false'] { opacity: 0.7; }
[data-mouse-over-selected='true']  { opacity: 1.0; }
]]>
</style>
<script type="application/ecmascript"><![CDATA[
document.addEventListener('DOMContentLoaded', (event) => {
  highlightEdges();
  highlightAdjacentNodes();
});
]]></script>
</svg>
