<?xml version="1.0" encoding="UTF-8" standalone="no"?>
<!DOCTYPE svg PUBLIC "-//W3C//DTD SVG 1.1//EN"
 "http://www.w3.org/Graphics/SVG/1.1/DTD/svg11.dtd">
<!-- Generated by graphviz version 2.43.0 (0)
 -->
<!-- Title: std::bad_any_cast Pages: 1 -->
<svg width="106pt" height="134pt"
 viewBox="0.00 0.00 106.00 134.00" xmlns="http://www.w3.org/2000/svg" xmlns:xlink="http://www.w3.org/1999/xlink">
<g id="graph0" class="graph" transform="scale(1 1) rotate(0) translate(4 130)">
<title>std::bad_any_cast</title>
<!-- Node1 -->
<g id="Node000001" class="node">
<title>Node1</title>
<g id="a_Node000001"><a xlink:title="Exception class thrown by a failed any_cast.">
<polygon fill="#999999" stroke="#666666" points="98,-18 0,-18 0,0 98,0 98,-18"/>
<text text-anchor="middle" x="49" y="-6.8" font-family="Helvetica,sans-Serif" font-size="9.00">std::bad_any_cast</text>
</a>
</g>
</g>
<!-- Node2 -->
<g id="Node000002" class="node">
<title>Node2</title>
<g id="a_Node000002"><a xlink:href="a01909.html" target="_top" xlink:title="Thrown during incorrect typecasting.">
<polygon fill="white" stroke="#666666" points="87.5,-72 10.5,-72 10.5,-54 87.5,-54 87.5,-72"/>
<text text-anchor="middle" x="49" y="-60.8" font-family="Helvetica,sans-Serif" font-size="9.00">std::bad_cast</text>
</a>
</g>
</g>
<!-- Node2&#45;&gt;Node1 -->
<g id="edge1_Node000001_Node000002" class="edge">
<title>Node2&#45;&gt;Node1</title>
<g id="a_edge1_Node000001_Node000002"><a xlink:title=" ">
<path fill="none" stroke="#63b8ff" d="M49,-43.86C49,-35.13 49,-25.1 49,-18.24"/>
<polygon fill="#63b8ff" stroke="#63b8ff" points="45.5,-43.87 49,-53.88 52.5,-43.88 45.5,-43.87"/>
</a>
</g>
</g>
<!-- Node3 -->
<g id="Node000003" class="node">
<title>Node3</title>
<g id="a_Node000003"><a xlink:href="a05761.html" target="_top" xlink:title="Base class for all library exceptions.">
<polygon fill="white" stroke="#666666" points="89.5,-126 8.5,-126 8.5,-108 89.5,-108 89.5,-126"/>
<text text-anchor="middle" x="49" y="-114.8" font-family="Helvetica,sans-Serif" font-size="9.00">std::exception</text>
</a>
</g>
</g>
<!-- Node3&#45;&gt;Node2 -->
<g id="edge2_Node000002_Node000003" class="edge">
<title>Node3&#45;&gt;Node2</title>
<g id="a_edge2_Node000002_Node000003"><a xlink:title=" ">
<path fill="none" stroke="#63b8ff" d="M49,-97.86C49,-89.13 49,-79.1 49,-72.24"/>
<polygon fill="#63b8ff" stroke="#63b8ff" points="45.5,-97.87 49,-107.88 52.5,-97.88 45.5,-97.87"/>
</a>
</g>
</g>
</g>
</svg>
