<?xml version="1.0" encoding="UTF-8" standalone="no"?>
<!DOCTYPE svg PUBLIC "-//W3C//DTD SVG 1.1//EN"
 "http://www.w3.org/Graphics/SVG/1.1/DTD/svg11.dtd">
<!-- Generated by graphviz version 2.43.0 (0)
 -->
<!-- Title: std::basic_stringstream&lt; _CharT, _Traits, _Alloc &gt; Pages: 1 -->
<svg width="232pt" height="282pt"
 viewBox="0.00 0.00 232.00 282.00" xmlns="http://www.w3.org/2000/svg" xmlns:xlink="http://www.w3.org/1999/xlink">
<g id="graph0" class="graph" transform="scale(1 1) rotate(0) translate(4 278)">
<title>std::basic_stringstream&lt; _CharT, _Traits, _Alloc &gt;</title>
<!-- Node1 -->
<g id="Node000001" class="node">
<title>Node1</title>
<g id="a_Node000001"><a xlink:title="Controlling input and output for std::string.">
<polygon fill="#999999" stroke="#666666" points="178.5,-28 44.5,-28 44.5,0 178.5,0 178.5,-28"/>
<text text-anchor="start" x="52.5" y="-16.8" font-family="Helvetica,sans-Serif" font-size="9.00">std::basic_stringstream</text>
<text text-anchor="middle" x="111.5" y="-6.8" font-family="Helvetica,sans-Serif" font-size="9.00">&lt; _CharT, _Traits, _Alloc &gt;</text>
</a>
</g>
</g>
<!-- Node2 -->
<g id="Node000002" class="node">
<title>Node2</title>
<g id="a_Node000002"><a xlink:href="a02773.html" target="_top" xlink:title="Template class basic_iostream.">
<polygon fill="white" stroke="#666666" points="163.5,-92 59.5,-92 59.5,-64 163.5,-64 163.5,-92"/>
<text text-anchor="start" x="67.5" y="-80.8" font-family="Helvetica,sans-Serif" font-size="9.00">std::basic_iostream</text>
<text text-anchor="middle" x="111.5" y="-70.8" font-family="Helvetica,sans-Serif" font-size="9.00">&lt; _CharT, _Traits &gt;</text>
</a>
</g>
</g>
<!-- Node2&#45;&gt;Node1 -->
<g id="edge1_Node000001_Node000002" class="edge">
<title>Node2&#45;&gt;Node1</title>
<g id="a_edge1_Node000001_Node000002"><a xlink:title=" ">
<path fill="none" stroke="#63b8ff" d="M111.5,-53.6C111.5,-44.98 111.5,-35.52 111.5,-28.13"/>
<polygon fill="#63b8ff" stroke="#63b8ff" points="108,-53.85 111.5,-63.85 115,-53.85 108,-53.85"/>
</a>
</g>
</g>
<!-- Node3 -->
<g id="Node000003" class="node">
<title>Node3</title>
<g id="a_Node000003"><a xlink:href="a02765.html" target="_top" xlink:title="Template class basic_istream.">
<polygon fill="white" stroke="#666666" points="103,-156 0,-156 0,-128 103,-128 103,-156"/>
<text text-anchor="start" x="8" y="-144.8" font-family="Helvetica,sans-Serif" font-size="9.00">std::basic_istream</text>
<text text-anchor="middle" x="51.5" y="-134.8" font-family="Helvetica,sans-Serif" font-size="9.00">&lt; _CharT, _Traits &gt;</text>
</a>
</g>
</g>
<!-- Node3&#45;&gt;Node2 -->
<g id="edge2_Node000002_Node000003" class="edge">
<title>Node3&#45;&gt;Node2</title>
<g id="a_edge2_Node000002_Node000003"><a xlink:title=" ">
<path fill="none" stroke="#63b8ff" d="M71.4,-120.44C80.43,-111.11 90.84,-100.35 98.79,-92.13"/>
<polygon fill="#63b8ff" stroke="#63b8ff" points="68.66,-118.23 64.22,-127.85 73.69,-123.1 68.66,-118.23"/>
</a>
</g>
</g>
<!-- Node4 -->
<g id="Node000004" class="node">
<title>Node4</title>
<g id="a_Node000004"><a xlink:href="a02757.html" target="_top" xlink:title="Template class basic_ios, virtual base class for all stream classes.">
<polygon fill="white" stroke="#666666" points="172,-220 51,-220 51,-192 172,-192 172,-220"/>
<text text-anchor="start" x="59" y="-208.8" font-family="Helvetica,sans-Serif" font-size="9.00">std::basic_ios&lt; _CharT,</text>
<text text-anchor="middle" x="111.5" y="-198.8" font-family="Helvetica,sans-Serif" font-size="9.00"> _Traits &gt;</text>
</a>
</g>
</g>
<!-- Node4&#45;&gt;Node3 -->
<g id="edge3_Node000003_Node000004" class="edge">
<title>Node4&#45;&gt;Node3</title>
<g id="a_edge3_Node000003_Node000004"><a xlink:title=" ">
<path fill="none" stroke="#63b8ff" d="M91.6,-184.44C82.57,-175.11 72.16,-164.35 64.21,-156.13"/>
<polygon fill="#63b8ff" stroke="#63b8ff" points="89.31,-187.1 98.78,-191.85 94.34,-182.23 89.31,-187.1"/>
</a>
</g>
</g>
<!-- Node6 -->
<g id="Node000006" class="node">
<title>Node6</title>
<g id="a_Node000006"><a xlink:href="a02769.html" target="_top" xlink:title="Template class basic_ostream.">
<polygon fill="white" stroke="#666666" points="224,-156 121,-156 121,-128 224,-128 224,-156"/>
<text text-anchor="start" x="129" y="-144.8" font-family="Helvetica,sans-Serif" font-size="9.00">std::basic_ostream</text>
<text text-anchor="middle" x="172.5" y="-134.8" font-family="Helvetica,sans-Serif" font-size="9.00">&lt; _CharT, _Traits &gt;</text>
</a>
</g>
</g>
<!-- Node4&#45;&gt;Node6 -->
<g id="edge6_Node000006_Node000004" class="edge">
<title>Node4&#45;&gt;Node6</title>
<g id="a_edge6_Node000006_Node000004"><a xlink:title=" ">
<path fill="none" stroke="#63b8ff" d="M131.46,-184.72C140.7,-175.32 151.42,-164.43 159.58,-156.13"/>
<polygon fill="#63b8ff" stroke="#63b8ff" points="128.95,-182.27 124.44,-191.85 133.94,-187.18 128.95,-182.27"/>
</a>
</g>
</g>
<!-- Node5 -->
<g id="Node000005" class="node">
<title>Node5</title>
<g id="a_Node000005"><a xlink:href="a05973.html" target="_top" xlink:title="The base of the I/O class hierarchy.">
<polygon fill="white" stroke="#666666" points="148.5,-274 74.5,-274 74.5,-256 148.5,-256 148.5,-274"/>
<text text-anchor="middle" x="111.5" y="-262.8" font-family="Helvetica,sans-Serif" font-size="9.00">std::ios_base</text>
</a>
</g>
</g>
<!-- Node5&#45;&gt;Node4 -->
<g id="edge4_Node000004_Node000005" class="edge">
<title>Node5&#45;&gt;Node4</title>
<g id="a_edge4_Node000004_Node000005"><a xlink:title=" ">
<path fill="none" stroke="#63b8ff" d="M111.5,-245.49C111.5,-237.28 111.5,-227.81 111.5,-220.31"/>
<polygon fill="#63b8ff" stroke="#63b8ff" points="108,-245.59 111.5,-255.59 115,-245.59 108,-245.59"/>
</a>
</g>
</g>
<!-- Node6&#45;&gt;Node2 -->
<g id="edge5_Node000002_Node000006" class="edge">
<title>Node6&#45;&gt;Node2</title>
<g id="a_edge5_Node000002_Node000006"><a xlink:title=" ">
<path fill="none" stroke="#63b8ff" d="M152.54,-120.72C143.3,-111.32 132.58,-100.43 124.42,-92.13"/>
<polygon fill="#63b8ff" stroke="#63b8ff" points="150.06,-123.18 159.56,-127.85 155.05,-118.27 150.06,-123.18"/>
</a>
</g>
</g>
</g>
</svg>
