<?xml version="1.0" encoding="UTF-8" standalone="no"?>
<!DOCTYPE svg PUBLIC "-//W3C//DTD SVG 1.1//EN"
 "http://www.w3.org/Graphics/SVG/1.1/DTD/svg11.dtd">
<!-- Generated by graphviz version 2.43.0 (0)
 -->
<!-- Title: std::basic_streambuf&lt; _CharT, _Traits &gt; Pages: 1 -->
<svg width="452pt" height="342pt"
 viewBox="0.00 0.00 452.00 342.00" xmlns="http://www.w3.org/2000/svg" xmlns:xlink="http://www.w3.org/1999/xlink">
<g id="graph0" class="graph" transform="scale(1 1) rotate(0) translate(4 338)">
<title>std::basic_streambuf&lt; _CharT, _Traits &gt;</title>
<!-- Node1 -->
<g id="Node000001" class="node">
<title>Node1</title>
<g id="a_Node000001"><a xlink:title="The actual work of input and output (interface).">
<polygon fill="#999999" stroke="#666666" points="111,-166 0,-166 0,-138 111,-138 111,-166"/>
<text text-anchor="start" x="8" y="-154.8" font-family="Helvetica,sans-Serif" font-size="9.00">std::basic_streambuf</text>
<text text-anchor="middle" x="55.5" y="-144.8" font-family="Helvetica,sans-Serif" font-size="9.00">&lt; _CharT, _Traits &gt;</text>
</a>
</g>
</g>
<!-- Node2 -->
<g id="Node000002" class="node">
<title>Node2</title>
<g id="a_Node000002"><a xlink:href="a02489.html" target="_top" xlink:title=" ">
<polygon fill="white" stroke="#666666" points="280.5,-334 149.5,-334 149.5,-296 280.5,-296 280.5,-334"/>
<text text-anchor="start" x="157.5" y="-322.8" font-family="Helvetica,sans-Serif" font-size="9.00">std::basic_filebuf</text>
<text text-anchor="start" x="157.5" y="-312.8" font-family="Helvetica,sans-Serif" font-size="9.00">&lt; _CharT, encoding_char</text>
<text text-anchor="middle" x="215" y="-302.8" font-family="Helvetica,sans-Serif" font-size="9.00">_traits&lt; _CharT &gt; &gt;</text>
</a>
</g>
</g>
<!-- Node1&#45;&gt;Node2 -->
<g id="edge1_Node000001_Node000002" class="edge">
<title>Node1&#45;&gt;Node2</title>
<g id="a_edge1_Node000001_Node000002"><a xlink:title=" ">
<path fill="none" stroke="#63b8ff" d="M66.88,-175.39C81.09,-205.01 109.2,-255.93 147,-287 150.99,-290.28 155.43,-293.23 160.05,-295.87"/>
<polygon fill="#63b8ff" stroke="#63b8ff" points="70,-173.8 62.6,-166.22 63.66,-176.76 70,-173.8"/>
</a>
</g>
</g>
<!-- Node4 -->
<g id="Node000004" class="node">
<title>Node4</title>
<g id="a_Node000004"><a xlink:href="a02489.html" target="_top" xlink:title=" ">
<polygon fill="white" stroke="#666666" points="268.5,-278 161.5,-278 161.5,-240 268.5,-240 268.5,-278"/>
<text text-anchor="start" x="169.5" y="-266.8" font-family="Helvetica,sans-Serif" font-size="9.00">std::basic_filebuf</text>
<text text-anchor="start" x="169.5" y="-256.8" font-family="Helvetica,sans-Serif" font-size="9.00">&lt; _CharT, std::char</text>
<text text-anchor="middle" x="215" y="-246.8" font-family="Helvetica,sans-Serif" font-size="9.00">_traits&lt; _CharT &gt; &gt;</text>
</a>
</g>
</g>
<!-- Node1&#45;&gt;Node4 -->
<g id="edge3_Node000001_Node000004" class="edge">
<title>Node1&#45;&gt;Node4</title>
<g id="a_edge3_Node000001_Node000004"><a xlink:title=" ">
<path fill="none" stroke="#63b8ff" d="M77.14,-173.51C94.54,-190.74 120.74,-214.66 147,-231 152.14,-234.2 157.7,-237.18 163.36,-239.92"/>
<polygon fill="#63b8ff" stroke="#63b8ff" points="79.32,-170.74 69.79,-166.11 74.36,-175.67 79.32,-170.74"/>
</a>
</g>
</g>
<!-- Node5 -->
<g id="Node000005" class="node">
<title>Node5</title>
<g id="a_Node000005"><a xlink:href="a02489.html" target="_top" xlink:title=" ">
<polygon fill="white" stroke="#666666" points="265.5,-222 164.5,-222 164.5,-184 265.5,-184 265.5,-222"/>
<text text-anchor="start" x="172.5" y="-210.8" font-family="Helvetica,sans-Serif" font-size="9.00">std::basic_filebuf</text>
<text text-anchor="start" x="172.5" y="-200.8" font-family="Helvetica,sans-Serif" font-size="9.00">&lt; char_type, traits</text>
<text text-anchor="middle" x="215" y="-190.8" font-family="Helvetica,sans-Serif" font-size="9.00">_type &gt;</text>
</a>
</g>
</g>
<!-- Node1&#45;&gt;Node5 -->
<g id="edge4_Node000001_Node000005" class="edge">
<title>Node1&#45;&gt;Node5</title>
<g id="a_edge4_Node000001_Node000005"><a xlink:title=" ">
<path fill="none" stroke="#63b8ff" d="M109.55,-169.18C127.24,-174.91 146.87,-181.26 164.29,-186.9"/>
<polygon fill="#63b8ff" stroke="#63b8ff" points="110.55,-165.82 99.95,-166.07 108.39,-172.48 110.55,-165.82"/>
</a>
</g>
</g>
<!-- Node6 -->
<g id="Node000006" class="node">
<title>Node6</title>
<g id="a_Node000006"><a xlink:href="a12273.html" target="_top" xlink:title="Provides a layer of compatibility for C.">
<polygon fill="white" stroke="#666666" points="283,-166 147,-166 147,-138 283,-138 283,-166"/>
<text text-anchor="start" x="155" y="-154.8" font-family="Helvetica,sans-Serif" font-size="9.00">__gnu_cxx::stdio_sync</text>
<text text-anchor="middle" x="215" y="-144.8" font-family="Helvetica,sans-Serif" font-size="9.00">_filebuf&lt; _CharT, _Traits &gt;</text>
</a>
</g>
</g>
<!-- Node1&#45;&gt;Node6 -->
<g id="edge5_Node000001_Node000006" class="edge">
<title>Node1&#45;&gt;Node6</title>
<g id="a_edge5_Node000001_Node000006"><a xlink:title=" ">
<path fill="none" stroke="#63b8ff" d="M121.32,-152C129.78,-152 138.46,-152 146.96,-152"/>
<polygon fill="#63b8ff" stroke="#63b8ff" points="121.14,-148.5 111.14,-152 121.14,-155.5 121.14,-148.5"/>
</a>
</g>
</g>
<!-- Node7 -->
<g id="Node000007" class="node">
<title>Node7</title>
<g id="a_Node000007"><a xlink:href="a02489.html" target="_top" xlink:title="The actual work of input and output (for files).">
<polygon fill="white" stroke="#666666" points="266.5,-120 163.5,-120 163.5,-92 266.5,-92 266.5,-120"/>
<text text-anchor="start" x="171.5" y="-108.8" font-family="Helvetica,sans-Serif" font-size="9.00">std::basic_filebuf</text>
<text text-anchor="middle" x="215" y="-98.8" font-family="Helvetica,sans-Serif" font-size="9.00">&lt; _CharT, _Traits &gt;</text>
</a>
</g>
</g>
<!-- Node1&#45;&gt;Node7 -->
<g id="edge6_Node000001_Node000007" class="edge">
<title>Node1&#45;&gt;Node7</title>
<g id="a_edge6_Node000001_Node000007"><a xlink:title=" ">
<path fill="none" stroke="#63b8ff" d="M114.4,-135.09C131.33,-130.14 149.66,-124.79 165.91,-120.04"/>
<polygon fill="#63b8ff" stroke="#63b8ff" points="113.23,-131.79 104.61,-137.95 115.19,-138.5 113.23,-131.79"/>
</a>
</g>
</g>
<!-- Node9 -->
<g id="Node000009" class="node">
<title>Node9</title>
<g id="a_Node000009"><a xlink:href="a02777.html" target="_top" xlink:title="The actual work of input and output (for std::string).">
<polygon fill="white" stroke="#666666" points="282,-74 148,-74 148,-46 282,-46 282,-74"/>
<text text-anchor="start" x="156" y="-62.8" font-family="Helvetica,sans-Serif" font-size="9.00">std::basic_stringbuf</text>
<text text-anchor="middle" x="215" y="-52.8" font-family="Helvetica,sans-Serif" font-size="9.00">&lt; _CharT, _Traits, _Alloc &gt;</text>
</a>
</g>
</g>
<!-- Node1&#45;&gt;Node9 -->
<g id="edge8_Node000001_Node000009" class="edge">
<title>Node1&#45;&gt;Node9</title>
<g id="a_edge8_Node000001_Node000009"><a xlink:title=" ">
<path fill="none" stroke="#63b8ff" d="M79.71,-130.94C97.19,-115.96 122.29,-96.21 147,-83 153.18,-79.69 159.93,-76.72 166.69,-74.09"/>
<polygon fill="#63b8ff" stroke="#63b8ff" points="77.01,-128.66 71.78,-137.87 81.61,-133.93 77.01,-128.66"/>
</a>
</g>
</g>
<!-- Node10 -->
<g id="Node000010" class="node">
<title>Node10</title>
<g id="a_Node000010"><a xlink:href="a06169.html" target="_top" xlink:title="Buffer conversions.">
<polygon fill="white" stroke="#666666" points="280.5,-28 149.5,-28 149.5,0 280.5,0 280.5,-28"/>
<text text-anchor="start" x="157.5" y="-16.8" font-family="Helvetica,sans-Serif" font-size="9.00">std::wbuffer_convert</text>
<text text-anchor="middle" x="215" y="-6.8" font-family="Helvetica,sans-Serif" font-size="9.00">&lt; _Codecvt, _Elem, _Tr &gt;</text>
</a>
</g>
</g>
<!-- Node1&#45;&gt;Node10 -->
<g id="edge9_Node000001_Node000010" class="edge">
<title>Node1&#45;&gt;Node10</title>
<g id="a_edge9_Node000001_Node000010"><a xlink:title=" ">
<path fill="none" stroke="#63b8ff" d="M69.05,-129.07C84.29,-103.23 112.31,-61.63 147,-37 151.81,-33.58 157.18,-30.64 162.72,-28.11"/>
<polygon fill="#63b8ff" stroke="#63b8ff" points="65.97,-127.41 64.02,-137.82 72.04,-130.89 65.97,-127.41"/>
</a>
</g>
</g>
<!-- Node3 -->
<g id="Node000003" class="node">
<title>Node3</title>
<g id="a_Node000003"><a xlink:href="a11973.html" target="_top" xlink:title="class enc_filebuf.">
<polygon fill="white" stroke="#666666" points="441,-329 322,-329 322,-301 441,-301 441,-329"/>
<text text-anchor="start" x="330" y="-317.8" font-family="Helvetica,sans-Serif" font-size="9.00">__gnu_cxx::enc_filebuf</text>
<text text-anchor="middle" x="381.5" y="-307.8" font-family="Helvetica,sans-Serif" font-size="9.00">&lt; _CharT &gt;</text>
</a>
</g>
</g>
<!-- Node2&#45;&gt;Node3 -->
<g id="edge2_Node000002_Node000003" class="edge">
<title>Node2&#45;&gt;Node3</title>
<g id="a_edge2_Node000002_Node000003"><a xlink:title=" ">
<path fill="none" stroke="#63b8ff" d="M290.84,-315C301.21,-315 311.74,-315 321.77,-315"/>
<polygon fill="#63b8ff" stroke="#63b8ff" points="290.54,-311.5 280.54,-315 290.54,-318.5 290.54,-311.5"/>
</a>
</g>
</g>
<!-- Node8 -->
<g id="Node000008" class="node">
<title>Node8</title>
<g id="a_Node000008"><a xlink:href="a12269.html" target="_top" xlink:title="Provides a layer of compatibility for C/POSIX.">
<polygon fill="white" stroke="#666666" points="444,-120 319,-120 319,-92 444,-92 444,-120"/>
<text text-anchor="start" x="327" y="-108.8" font-family="Helvetica,sans-Serif" font-size="9.00">__gnu_cxx::stdio_filebuf</text>
<text text-anchor="middle" x="381.5" y="-98.8" font-family="Helvetica,sans-Serif" font-size="9.00">&lt; _CharT, _Traits &gt;</text>
</a>
</g>
</g>
<!-- Node7&#45;&gt;Node8 -->
<g id="edge7_Node000007_Node000008" class="edge">
<title>Node7&#45;&gt;Node8</title>
<g id="a_edge7_Node000007_Node000008"><a xlink:title=" ">
<path fill="none" stroke="#63b8ff" d="M276.98,-106C290.69,-106 305.24,-106 318.97,-106"/>
<polygon fill="#63b8ff" stroke="#63b8ff" points="276.7,-102.5 266.7,-106 276.7,-109.5 276.7,-102.5"/>
</a>
</g>
</g>
</g>
</svg>
