<?xml version="1.0" encoding="UTF-8" standalone="no"?>
<!DOCTYPE svg PUBLIC "-//W3C//DTD SVG 1.1//EN"
 "http://www.w3.org/Graphics/SVG/1.1/DTD/svg11.dtd">
<!-- Generated by graphviz version 2.43.0 (0)
 -->
<!-- Title: std::logic_error Pages: 1 -->
<svg width="519pt" height="313pt"
 viewBox="0.00 0.00 519.00 313.00" xmlns="http://www.w3.org/2000/svg" xmlns:xlink="http://www.w3.org/1999/xlink">
<g id="graph0" class="graph" transform="scale(1 1) rotate(0) translate(4 309)">
<title>std::logic_error</title>
<!-- Node1 -->
<g id="Node000001" class="node">
<title>Node1</title>
<g id="a_Node000001"><a xlink:title="One of two subclasses of exception.">
<polygon fill="#999999" stroke="#666666" points="201,-126 117,-126 117,-108 201,-108 201,-126"/>
<text text-anchor="middle" x="159" y="-114.8" font-family="Helvetica,sans-Serif" font-size="9.00">std::logic_error</text>
</a>
</g>
</g>
<!-- Node3 -->
<g id="Node000003" class="node">
<title>Node3</title>
<g id="a_Node000003"><a xlink:href="a12729.html" target="_top" xlink:title="Base class for exceptions.">
<polygon fill="white" stroke="#666666" points="356,-264 237,-264 237,-236 356,-236 356,-264"/>
<text text-anchor="start" x="245" y="-252.8" font-family="Helvetica,sans-Serif" font-size="9.00">__gnu_pbds::container</text>
<text text-anchor="middle" x="296.5" y="-242.8" font-family="Helvetica,sans-Serif" font-size="9.00">_error</text>
</a>
</g>
</g>
<!-- Node1&#45;&gt;Node3 -->
<g id="edge2_Node000001_Node000003" class="edge">
<title>Node1&#45;&gt;Node3</title>
<g id="a_edge2_Node000001_Node000003"><a xlink:title=" ">
<path fill="none" stroke="#63b8ff" d="M168.44,-135.13C180.5,-159.2 204.8,-201.63 237,-227 241.29,-230.38 246.13,-233.31 251.15,-235.85"/>
<polygon fill="#63b8ff" stroke="#63b8ff" points="171.55,-133.51 164.04,-126.03 165.25,-136.56 171.55,-133.51"/>
</a>
</g>
</g>
<!-- Node7 -->
<g id="Node000007" class="node">
<title>Node7</title>
<g id="a_Node000007"><a xlink:href="a03465.html" target="_top" xlink:title=" ">
<polygon fill="white" stroke="#666666" points="345,-218 248,-218 248,-200 345,-200 345,-218"/>
<text text-anchor="middle" x="296.5" y="-206.8" font-family="Helvetica,sans-Serif" font-size="9.00">std::domain_error</text>
</a>
</g>
</g>
<!-- Node1&#45;&gt;Node7 -->
<g id="edge6_Node000001_Node000007" class="edge">
<title>Node1&#45;&gt;Node7</title>
<g id="a_edge6_Node000001_Node000007"><a xlink:title=" ">
<path fill="none" stroke="#63b8ff" d="M173.55,-134.04C187.72,-150.78 211.42,-175.94 237,-191 243.14,-194.61 250.07,-197.57 256.96,-199.96"/>
<polygon fill="#63b8ff" stroke="#63b8ff" points="176.11,-131.64 167.05,-126.15 170.71,-136.09 176.11,-131.64"/>
</a>
</g>
</g>
<!-- Node8 -->
<g id="Node000008" class="node">
<title>Node8</title>
<g id="a_Node000008"><a xlink:href="a11701.html" target="_top" xlink:title="Exception class thrown when a disengaged optional object is dereferenced.">
<polygon fill="white" stroke="#666666" points="355.5,-182 237.5,-182 237.5,-144 355.5,-144 355.5,-182"/>
<text text-anchor="start" x="245.5" y="-170.8" font-family="Helvetica,sans-Serif" font-size="9.00">std::experimental::</text>
<text text-anchor="start" x="245.5" y="-160.8" font-family="Helvetica,sans-Serif" font-size="9.00">fundamentals_v1::bad</text>
<text text-anchor="middle" x="296.5" y="-150.8" font-family="Helvetica,sans-Serif" font-size="9.00">_optional_access</text>
</a>
</g>
</g>
<!-- Node1&#45;&gt;Node8 -->
<g id="edge7_Node000001_Node000008" class="edge">
<title>Node1&#45;&gt;Node8</title>
<g id="a_edge7_Node000001_Node000008"><a xlink:title=" ">
<path fill="none" stroke="#63b8ff" d="M196.42,-129.37C209.63,-133.85 224.86,-139.02 239.37,-143.94"/>
<polygon fill="#63b8ff" stroke="#63b8ff" points="197.36,-125.99 186.77,-126.09 195.11,-132.62 197.36,-125.99"/>
</a>
</g>
</g>
<!-- Node9 -->
<g id="Node000009" class="node">
<title>Node9</title>
<g id="a_Node000009"><a xlink:href="a02657.html" target="_top" xlink:title="Exception type thrown by futures.">
<polygon fill="white" stroke="#666666" points="342,-126 251,-126 251,-108 342,-108 342,-126"/>
<text text-anchor="middle" x="296.5" y="-114.8" font-family="Helvetica,sans-Serif" font-size="9.00">std::future_error</text>
</a>
</g>
</g>
<!-- Node1&#45;&gt;Node9 -->
<g id="edge8_Node000001_Node000009" class="edge">
<title>Node1&#45;&gt;Node9</title>
<g id="a_edge8_Node000001_Node000009"><a xlink:title=" ">
<path fill="none" stroke="#63b8ff" d="M211.24,-117C224.27,-117 238.17,-117 250.84,-117"/>
<polygon fill="#63b8ff" stroke="#63b8ff" points="211.02,-113.5 201.02,-117 211.02,-120.5 211.02,-113.5"/>
</a>
</g>
</g>
<!-- Node10 -->
<g id="Node000010" class="node">
<title>Node10</title>
<g id="a_Node000010"><a xlink:href="a03469.html" target="_top" xlink:title=" ">
<polygon fill="white" stroke="#666666" points="354.5,-90 238.5,-90 238.5,-72 354.5,-72 354.5,-90"/>
<text text-anchor="middle" x="296.5" y="-78.8" font-family="Helvetica,sans-Serif" font-size="9.00">std::invalid_argument</text>
</a>
</g>
</g>
<!-- Node1&#45;&gt;Node10 -->
<g id="edge9_Node000001_Node000010" class="edge">
<title>Node1&#45;&gt;Node10</title>
<g id="a_edge9_Node000001_Node000010"><a xlink:title=" ">
<path fill="none" stroke="#63b8ff" d="M203.92,-105.33C222.54,-100.38 243.91,-94.71 261.32,-90.08"/>
<polygon fill="#63b8ff" stroke="#63b8ff" points="202.96,-101.97 194.19,-107.92 204.76,-108.73 202.96,-101.97"/>
</a>
</g>
</g>
<!-- Node11 -->
<g id="Node000011" class="node">
<title>Node11</title>
<g id="a_Node000011"><a xlink:href="a03473.html" target="_top" xlink:title=" ">
<polygon fill="white" stroke="#666666" points="342.5,-54 250.5,-54 250.5,-36 342.5,-36 342.5,-54"/>
<text text-anchor="middle" x="296.5" y="-42.8" font-family="Helvetica,sans-Serif" font-size="9.00">std::length_error</text>
</a>
</g>
</g>
<!-- Node1&#45;&gt;Node11 -->
<g id="edge10_Node000001_Node000011" class="edge">
<title>Node1&#45;&gt;Node11</title>
<g id="a_edge10_Node000001_Node000011"><a xlink:title=" ">
<path fill="none" stroke="#63b8ff" d="M178.74,-101.33C193.72,-89.45 215.67,-73.44 237,-63 244.16,-59.5 252.14,-56.5 259.86,-54.02"/>
<polygon fill="#63b8ff" stroke="#63b8ff" points="176.35,-98.76 170.78,-107.77 180.76,-104.2 176.35,-98.76"/>
</a>
</g>
</g>
<!-- Node12 -->
<g id="Node000012" class="node">
<title>Node12</title>
<g id="a_Node000012"><a xlink:href="a03477.html" target="_top" xlink:title=" ">
<polygon fill="white" stroke="#666666" points="344,-18 249,-18 249,0 344,0 344,-18"/>
<text text-anchor="middle" x="296.5" y="-6.8" font-family="Helvetica,sans-Serif" font-size="9.00">std::out_of_range</text>
</a>
</g>
</g>
<!-- Node1&#45;&gt;Node12 -->
<g id="edge11_Node000001_Node000012" class="edge">
<title>Node1&#45;&gt;Node12</title>
<g id="a_edge11_Node000001_Node000012"><a xlink:title=" ">
<path fill="none" stroke="#63b8ff" d="M170.72,-99.25C183.89,-78.92 208.06,-45.99 237,-27 242.6,-23.33 248.98,-20.37 255.43,-18"/>
<polygon fill="#63b8ff" stroke="#63b8ff" points="167.67,-97.52 165.32,-107.85 173.6,-101.24 167.67,-97.52"/>
</a>
</g>
</g>
<!-- Node2 -->
<g id="Node000002" class="node">
<title>Node2</title>
<g id="a_Node000002"><a xlink:href="a05761.html" target="_top" xlink:title="Base class for all library exceptions.">
<polygon fill="white" stroke="#666666" points="81,-126 0,-126 0,-108 81,-108 81,-126"/>
<text text-anchor="middle" x="40.5" y="-114.8" font-family="Helvetica,sans-Serif" font-size="9.00">std::exception</text>
</a>
</g>
</g>
<!-- Node2&#45;&gt;Node1 -->
<g id="edge1_Node000001_Node000002" class="edge">
<title>Node2&#45;&gt;Node1</title>
<g id="a_edge1_Node000001_Node000002"><a xlink:title=" ">
<path fill="none" stroke="#63b8ff" d="M91.43,-117C99.9,-117 108.61,-117 116.83,-117"/>
<polygon fill="#63b8ff" stroke="#63b8ff" points="91.27,-113.5 81.27,-117 91.27,-120.5 91.27,-113.5"/>
</a>
</g>
</g>
<!-- Node4 -->
<g id="Node000004" class="node">
<title>Node4</title>
<g id="a_Node000004"><a xlink:href="a12733.html" target="_top" xlink:title="An entry cannot be inserted into a container object for logical reasons (not, e.g....">
<polygon fill="white" stroke="#666666" points="502.5,-305 400.5,-305 400.5,-277 502.5,-277 502.5,-305"/>
<text text-anchor="start" x="408.5" y="-293.8" font-family="Helvetica,sans-Serif" font-size="9.00">__gnu_pbds::insert</text>
<text text-anchor="middle" x="451.5" y="-283.8" font-family="Helvetica,sans-Serif" font-size="9.00">_error</text>
</a>
</g>
</g>
<!-- Node3&#45;&gt;Node4 -->
<g id="edge3_Node000003_Node000004" class="edge">
<title>Node3&#45;&gt;Node4</title>
<g id="a_edge3_Node000003_Node000004"><a xlink:title=" ">
<path fill="none" stroke="#63b8ff" d="M359.83,-266.7C373.31,-270.31 387.39,-274.09 400.33,-277.56"/>
<polygon fill="#63b8ff" stroke="#63b8ff" points="360.72,-263.32 350.15,-264.11 358.91,-270.08 360.72,-263.32"/>
</a>
</g>
</g>
<!-- Node5 -->
<g id="Node000005" class="node">
<title>Node5</title>
<g id="a_Node000005"><a xlink:href="a12737.html" target="_top" xlink:title="A join cannot be performed logical reasons (i.e., the ranges of the two container objects being joine...">
<polygon fill="white" stroke="#666666" points="511,-259 392,-259 392,-241 511,-241 511,-259"/>
<text text-anchor="middle" x="451.5" y="-247.8" font-family="Helvetica,sans-Serif" font-size="9.00">__gnu_pbds::join_error</text>
</a>
</g>
</g>
<!-- Node3&#45;&gt;Node5 -->
<g id="edge4_Node000003_Node000005" class="edge">
<title>Node3&#45;&gt;Node5</title>
<g id="a_edge4_Node000003_Node000005"><a xlink:title=" ">
<path fill="none" stroke="#63b8ff" d="M366.49,-250C374.99,-250 383.62,-250 391.94,-250"/>
<polygon fill="#63b8ff" stroke="#63b8ff" points="366.22,-246.5 356.22,-250 366.22,-253.5 366.22,-246.5"/>
</a>
</g>
</g>
<!-- Node6 -->
<g id="Node000006" class="node">
<title>Node6</title>
<g id="a_Node000006"><a xlink:href="a12741.html" target="_top" xlink:title="A container cannot be resized.">
<polygon fill="white" stroke="#666666" points="502.5,-223 400.5,-223 400.5,-195 502.5,-195 502.5,-223"/>
<text text-anchor="start" x="408.5" y="-211.8" font-family="Helvetica,sans-Serif" font-size="9.00">__gnu_pbds::resize</text>
<text text-anchor="middle" x="451.5" y="-201.8" font-family="Helvetica,sans-Serif" font-size="9.00">_error</text>
</a>
</g>
</g>
<!-- Node3&#45;&gt;Node6 -->
<g id="edge5_Node000003_Node000006" class="edge">
<title>Node3&#45;&gt;Node6</title>
<g id="a_edge5_Node000003_Node000006"><a xlink:title=" ">
<path fill="none" stroke="#63b8ff" d="M359.83,-233.3C373.31,-229.69 387.39,-225.91 400.33,-222.44"/>
<polygon fill="#63b8ff" stroke="#63b8ff" points="358.91,-229.92 350.15,-235.89 360.72,-236.68 358.91,-229.92"/>
</a>
</g>
</g>
</g>
</svg>
