<?xml version="1.0" encoding="UTF-8" standalone="no"?>
<!DOCTYPE svg PUBLIC "-//W3C//DTD SVG 1.1//EN"
 "http://www.w3.org/Graphics/SVG/1.1/DTD/svg11.dtd">
<!-- Generated by graphviz version 2.43.0 (0)
 -->
<!-- Title: std::domain_error Pages: 1 -->
<svg width="105pt" height="134pt"
 viewBox="0.00 0.00 105.00 134.00" xmlns="http://www.w3.org/2000/svg" xmlns:xlink="http://www.w3.org/1999/xlink">
<g id="graph0" class="graph" transform="scale(1 1) rotate(0) translate(4 130)">
<title>std::domain_error</title>
<!-- Node1 -->
<g id="Node000001" class="node">
<title>Node1</title>
<g id="a_Node000001"><a xlink:title=" ">
<polygon fill="#999999" stroke="#666666" points="97,-18 0,-18 0,0 97,0 97,-18"/>
<text text-anchor="middle" x="48.5" y="-6.8" font-family="Helvetica,sans-Serif" font-size="9.00">std::domain_error</text>
</a>
</g>
</g>
<!-- Node2 -->
<g id="Node000002" class="node">
<title>Node2</title>
<g id="a_Node000002"><a xlink:href="a03461.html" target="_top" xlink:title="One of two subclasses of exception.">
<polygon fill="white" stroke="#666666" points="90.5,-72 6.5,-72 6.5,-54 90.5,-54 90.5,-72"/>
<text text-anchor="middle" x="48.5" y="-60.8" font-family="Helvetica,sans-Serif" font-size="9.00">std::logic_error</text>
</a>
</g>
</g>
<!-- Node2&#45;&gt;Node1 -->
<g id="edge1_Node000001_Node000002" class="edge">
<title>Node2&#45;&gt;Node1</title>
<g id="a_edge1_Node000001_Node000002"><a xlink:title=" ">
<path fill="none" stroke="#63b8ff" d="M48.5,-43.86C48.5,-35.13 48.5,-25.1 48.5,-18.24"/>
<polygon fill="#63b8ff" stroke="#63b8ff" points="45,-43.87 48.5,-53.88 52,-43.88 45,-43.87"/>
</a>
</g>
</g>
<!-- Node3 -->
<g id="Node000003" class="node">
<title>Node3</title>
<g id="a_Node000003"><a xlink:href="a05761.html" target="_top" xlink:title="Base class for all library exceptions.">
<polygon fill="white" stroke="#666666" points="89,-126 8,-126 8,-108 89,-108 89,-126"/>
<text text-anchor="middle" x="48.5" y="-114.8" font-family="Helvetica,sans-Serif" font-size="9.00">std::exception</text>
</a>
</g>
</g>
<!-- Node3&#45;&gt;Node2 -->
<g id="edge2_Node000002_Node000003" class="edge">
<title>Node3&#45;&gt;Node2</title>
<g id="a_edge2_Node000002_Node000003"><a xlink:title=" ">
<path fill="none" stroke="#63b8ff" d="M48.5,-97.86C48.5,-89.13 48.5,-79.1 48.5,-72.24"/>
<polygon fill="#63b8ff" stroke="#63b8ff" points="45,-97.87 48.5,-107.88 52,-97.88 45,-97.87"/>
</a>
</g>
</g>
</g>
</svg>
