<?xml version="1.0" encoding="UTF-8" standalone="no"?>
<!DOCTYPE svg PUBLIC "-//W3C//DTD SVG 1.1//EN"
 "http://www.w3.org/Graphics/SVG/1.1/DTD/svg11.dtd">
<!-- Generated by graphviz version 2.43.0 (0)
 -->
<!-- Title: std::runtime_error Pages: 1 -->
<svg width="563pt" height="170pt"
 viewBox="0.00 0.00 563.00 170.00" xmlns="http://www.w3.org/2000/svg" xmlns:xlink="http://www.w3.org/1999/xlink">
<g id="graph0" class="graph" transform="scale(1 1) rotate(0) translate(4 166)">
<title>std::runtime_error</title>
<!-- Node1 -->
<g id="Node000001" class="node">
<title>Node1</title>
<g id="a_Node000001"><a xlink:title="One of two subclasses of exception.">
<polygon fill="#999999" stroke="#666666" points="216,-90 117,-90 117,-72 216,-72 216,-90"/>
<text text-anchor="middle" x="166.5" y="-78.8" font-family="Helvetica,sans-Serif" font-size="9.00">std::runtime_error</text>
</a>
</g>
</g>
<!-- Node3 -->
<g id="Node000003" class="node">
<title>Node3</title>
<g id="a_Node000003"><a xlink:href="a03489.html" target="_top" xlink:title=" ">
<polygon fill="white" stroke="#666666" points="357,-162 256,-162 256,-144 357,-144 357,-162"/>
<text text-anchor="middle" x="306.5" y="-150.8" font-family="Helvetica,sans-Serif" font-size="9.00">std::overflow_error</text>
</a>
</g>
</g>
<!-- Node1&#45;&gt;Node3 -->
<g id="edge2_Node000001_Node000003" class="edge">
<title>Node1&#45;&gt;Node3</title>
<g id="a_edge2_Node000001_Node000003"><a xlink:title=" ">
<path fill="none" stroke="#63b8ff" d="M187.92,-96.07C204.54,-107.82 228.95,-123.96 252,-135 259.07,-138.39 266.95,-141.41 274.43,-143.98"/>
<polygon fill="#63b8ff" stroke="#63b8ff" points="189.71,-93.04 179.55,-90.04 185.62,-98.72 189.71,-93.04"/>
</a>
</g>
</g>
<!-- Node4 -->
<g id="Node000004" class="node">
<title>Node4</title>
<g id="a_Node000004"><a xlink:href="a03485.html" target="_top" xlink:title=" ">
<polygon fill="white" stroke="#666666" points="351,-126 262,-126 262,-108 351,-108 351,-126"/>
<text text-anchor="middle" x="306.5" y="-114.8" font-family="Helvetica,sans-Serif" font-size="9.00">std::range_error</text>
</a>
</g>
</g>
<!-- Node1&#45;&gt;Node4 -->
<g id="edge3_Node000001_Node000004" class="edge">
<title>Node1&#45;&gt;Node4</title>
<g id="a_edge3_Node000001_Node000004"><a xlink:title=" ">
<path fill="none" stroke="#63b8ff" d="M212.23,-92.67C231.2,-97.62 252.96,-103.29 270.69,-107.92"/>
<polygon fill="#63b8ff" stroke="#63b8ff" points="212.88,-89.22 202.32,-90.08 211.12,-96 212.88,-89.22"/>
</a>
</g>
</g>
<!-- Node5 -->
<g id="Node000005" class="node">
<title>Node5</title>
<g id="a_Node000005"><a xlink:href="a07461.html" target="_top" xlink:title="A regular expression exception class.">
<polygon fill="white" stroke="#666666" points="351,-90 262,-90 262,-72 351,-72 351,-90"/>
<text text-anchor="middle" x="306.5" y="-78.8" font-family="Helvetica,sans-Serif" font-size="9.00">std::regex_error</text>
</a>
</g>
</g>
<!-- Node1&#45;&gt;Node5 -->
<g id="edge4_Node000001_Node000005" class="edge">
<title>Node1&#45;&gt;Node5</title>
<g id="a_edge4_Node000001_Node000005"><a xlink:title=" ">
<path fill="none" stroke="#63b8ff" d="M226.46,-81C238.34,-81 250.64,-81 261.88,-81"/>
<polygon fill="#63b8ff" stroke="#63b8ff" points="226.15,-77.5 216.15,-81 226.15,-84.5 226.15,-77.5"/>
</a>
</g>
</g>
<!-- Node6 -->
<g id="Node000006" class="node">
<title>Node6</title>
<g id="a_Node000006"><a xlink:href="a03593.html" target="_top" xlink:title="An exception type that includes an error_code value.">
<polygon fill="white" stroke="#666666" points="354,-54 259,-54 259,-36 354,-36 354,-54"/>
<text text-anchor="middle" x="306.5" y="-42.8" font-family="Helvetica,sans-Serif" font-size="9.00">std::system_error</text>
</a>
</g>
</g>
<!-- Node1&#45;&gt;Node6 -->
<g id="edge5_Node000001_Node000006" class="edge">
<title>Node1&#45;&gt;Node6</title>
<g id="a_edge5_Node000001_Node000006"><a xlink:title=" ">
<path fill="none" stroke="#63b8ff" d="M212.23,-69.33C231.2,-64.38 252.96,-58.71 270.69,-54.08"/>
<polygon fill="#63b8ff" stroke="#63b8ff" points="211.12,-66 202.32,-71.92 212.88,-72.78 211.12,-66"/>
</a>
</g>
</g>
<!-- Node9 -->
<g id="Node000009" class="node">
<title>Node9</title>
<g id="a_Node000009"><a xlink:href="a03493.html" target="_top" xlink:title=" ">
<polygon fill="white" stroke="#666666" points="361,-18 252,-18 252,0 361,0 361,-18"/>
<text text-anchor="middle" x="306.5" y="-6.8" font-family="Helvetica,sans-Serif" font-size="9.00">std::underflow_error</text>
</a>
</g>
</g>
<!-- Node1&#45;&gt;Node9 -->
<g id="edge8_Node000001_Node000009" class="edge">
<title>Node1&#45;&gt;Node9</title>
<g id="a_edge8_Node000001_Node000009"><a xlink:title=" ">
<path fill="none" stroke="#63b8ff" d="M187.92,-65.93C204.54,-54.18 228.95,-38.04 252,-27 259.07,-23.61 266.95,-20.59 274.43,-18.02"/>
<polygon fill="#63b8ff" stroke="#63b8ff" points="185.62,-63.28 179.55,-71.96 189.71,-68.96 185.62,-63.28"/>
</a>
</g>
</g>
<!-- Node2 -->
<g id="Node000002" class="node">
<title>Node2</title>
<g id="a_Node000002"><a xlink:href="a05761.html" target="_top" xlink:title="Base class for all library exceptions.">
<polygon fill="white" stroke="#666666" points="81,-90 0,-90 0,-72 81,-72 81,-90"/>
<text text-anchor="middle" x="40.5" y="-78.8" font-family="Helvetica,sans-Serif" font-size="9.00">std::exception</text>
</a>
</g>
</g>
<!-- Node2&#45;&gt;Node1 -->
<g id="edge1_Node000001_Node000002" class="edge">
<title>Node2&#45;&gt;Node1</title>
<g id="a_edge1_Node000001_Node000002"><a xlink:title=" ">
<path fill="none" stroke="#63b8ff" d="M91.16,-81C99.58,-81 108.33,-81 116.74,-81"/>
<polygon fill="#63b8ff" stroke="#63b8ff" points="91.08,-77.5 81.08,-81 91.08,-84.5 91.08,-77.5"/>
</a>
</g>
</g>
<!-- Node7 -->
<g id="Node000007" class="node">
<title>Node7</title>
<g id="a_Node000007"><a xlink:href="a10421.html" target="_top" xlink:title="Exception type thrown by the Filesystem TS library.">
<polygon fill="white" stroke="#666666" points="555,-82 397,-82 397,-54 555,-54 555,-82"/>
<text text-anchor="start" x="405" y="-70.8" font-family="Helvetica,sans-Serif" font-size="9.00">std::experimental::</text>
<text text-anchor="middle" x="476" y="-60.8" font-family="Helvetica,sans-Serif" font-size="9.00">filesystem::v1::filesystem_error</text>
</a>
</g>
</g>
<!-- Node6&#45;&gt;Node7 -->
<g id="edge6_Node000006_Node000007" class="edge">
<title>Node6&#45;&gt;Node7</title>
<g id="a_edge6_Node000006_Node000007"><a xlink:title=" ">
<path fill="none" stroke="#63b8ff" d="M364.37,-52.81C374.81,-54.24 385.88,-55.76 396.83,-57.27"/>
<polygon fill="#63b8ff" stroke="#63b8ff" points="364.54,-49.3 354.16,-51.41 363.59,-56.23 364.54,-49.3"/>
</a>
</g>
</g>
<!-- Node8 -->
<g id="Node000008" class="node">
<title>Node8</title>
<g id="a_Node000008"><a xlink:href="a05833.html" target="_top" xlink:title="Exception type thrown by the Filesystem library.">
<polygon fill="white" stroke="#666666" points="543,-36 409,-36 409,-8 543,-8 543,-36"/>
<text text-anchor="start" x="417" y="-24.8" font-family="Helvetica,sans-Serif" font-size="9.00">std::filesystem::filesystem</text>
<text text-anchor="middle" x="476" y="-14.8" font-family="Helvetica,sans-Serif" font-size="9.00">_error</text>
</a>
</g>
</g>
<!-- Node6&#45;&gt;Node8 -->
<g id="edge7_Node000006_Node000008" class="edge">
<title>Node6&#45;&gt;Node8</title>
<g id="a_edge7_Node000006_Node000008"><a xlink:title=" ">
<path fill="none" stroke="#63b8ff" d="M364.35,-37.19C378.66,-35.23 394.15,-33.1 408.88,-31.08"/>
<polygon fill="#63b8ff" stroke="#63b8ff" points="363.59,-33.77 354.16,-38.59 364.54,-40.7 363.59,-33.77"/>
</a>
</g>
</g>
</g>
</svg>
