<?xml version="1.0" encoding="UTF-8" standalone="no"?>
<!DOCTYPE svg PUBLIC "-//W3C//DTD SVG 1.1//EN"
 "http://www.w3.org/Graphics/SVG/1.1/DTD/svg11.dtd">
<!-- Generated by graphviz version 2.43.0 (0)
 -->
<!-- Title: std::system_error Pages: 1 -->
<svg width="549pt" height="82pt"
 viewBox="0.00 0.00 549.00 82.00" xmlns="http://www.w3.org/2000/svg" xmlns:xlink="http://www.w3.org/1999/xlink">
<g id="graph0" class="graph" transform="scale(1 1) rotate(0) translate(4 78)">
<title>std::system_error</title>
<!-- Node1 -->
<g id="Node000001" class="node">
<title>Node1</title>
<g id="a_Node000001"><a xlink:title="An exception type that includes an error_code value.">
<polygon fill="#999999" stroke="#666666" points="347,-46 252,-46 252,-28 347,-28 347,-46"/>
<text text-anchor="middle" x="299.5" y="-34.8" font-family="Helvetica,sans-Serif" font-size="9.00">std::system_error</text>
</a>
</g>
</g>
<!-- Node4 -->
<g id="Node000004" class="node">
<title>Node4</title>
<g id="a_Node000004"><a xlink:href="a10421.html" target="_top" xlink:title="Exception type thrown by the Filesystem TS library.">
<polygon fill="white" stroke="#666666" points="541,-74 383,-74 383,-46 541,-46 541,-74"/>
<text text-anchor="start" x="391" y="-62.8" font-family="Helvetica,sans-Serif" font-size="9.00">std::experimental::</text>
<text text-anchor="middle" x="462" y="-52.8" font-family="Helvetica,sans-Serif" font-size="9.00">filesystem::v1::filesystem_error</text>
</a>
</g>
</g>
<!-- Node1&#45;&gt;Node4 -->
<g id="edge3_Node000001_Node000004" class="edge">
<title>Node1&#45;&gt;Node4</title>
<g id="a_edge3_Node000001_Node000004"><a xlink:title=" ">
<path fill="none" stroke="#63b8ff" d="M357.3,-45.14C365.63,-46.33 374.32,-47.58 382.98,-48.82"/>
<polygon fill="#63b8ff" stroke="#63b8ff" points="357.75,-41.67 347.35,-43.71 356.76,-48.6 357.75,-41.67"/>
</a>
</g>
</g>
<!-- Node5 -->
<g id="Node000005" class="node">
<title>Node5</title>
<g id="a_Node000005"><a xlink:href="a05833.html" target="_top" xlink:title="Exception type thrown by the Filesystem library.">
<polygon fill="white" stroke="#666666" points="529,-28 395,-28 395,0 529,0 529,-28"/>
<text text-anchor="start" x="403" y="-16.8" font-family="Helvetica,sans-Serif" font-size="9.00">std::filesystem::filesystem</text>
<text text-anchor="middle" x="462" y="-6.8" font-family="Helvetica,sans-Serif" font-size="9.00">_error</text>
</a>
</g>
</g>
<!-- Node1&#45;&gt;Node5 -->
<g id="edge4_Node000001_Node000005" class="edge">
<title>Node1&#45;&gt;Node5</title>
<g id="a_edge4_Node000001_Node000005"><a xlink:title=" ">
<path fill="none" stroke="#63b8ff" d="M357.31,-28.86C369.41,-27.13 382.29,-25.28 394.7,-23.5"/>
<polygon fill="#63b8ff" stroke="#63b8ff" points="356.76,-25.4 347.35,-30.29 357.75,-32.33 356.76,-25.4"/>
</a>
</g>
</g>
<!-- Node2 -->
<g id="Node000002" class="node">
<title>Node2</title>
<g id="a_Node000002"><a xlink:href="a03481.html" target="_top" xlink:title="One of two subclasses of exception.">
<polygon fill="white" stroke="#666666" points="216,-46 117,-46 117,-28 216,-28 216,-46"/>
<text text-anchor="middle" x="166.5" y="-34.8" font-family="Helvetica,sans-Serif" font-size="9.00">std::runtime_error</text>
</a>
</g>
</g>
<!-- Node2&#45;&gt;Node1 -->
<g id="edge1_Node000001_Node000002" class="edge">
<title>Node2&#45;&gt;Node1</title>
<g id="a_edge1_Node000001_Node000002"><a xlink:title=" ">
<path fill="none" stroke="#63b8ff" d="M226.52,-37C235.01,-37 243.65,-37 251.85,-37"/>
<polygon fill="#63b8ff" stroke="#63b8ff" points="226.28,-33.5 216.28,-37 226.28,-40.5 226.28,-33.5"/>
</a>
</g>
</g>
<!-- Node3 -->
<g id="Node000003" class="node">
<title>Node3</title>
<g id="a_Node000003"><a xlink:href="a05761.html" target="_top" xlink:title="Base class for all library exceptions.">
<polygon fill="white" stroke="#666666" points="81,-46 0,-46 0,-28 81,-28 81,-46"/>
<text text-anchor="middle" x="40.5" y="-34.8" font-family="Helvetica,sans-Serif" font-size="9.00">std::exception</text>
</a>
</g>
</g>
<!-- Node3&#45;&gt;Node2 -->
<g id="edge2_Node000002_Node000003" class="edge">
<title>Node3&#45;&gt;Node2</title>
<g id="a_edge2_Node000002_Node000003"><a xlink:title=" ">
<path fill="none" stroke="#63b8ff" d="M91.16,-37C99.58,-37 108.33,-37 116.74,-37"/>
<polygon fill="#63b8ff" stroke="#63b8ff" points="91.08,-33.5 81.08,-37 91.08,-40.5 91.08,-33.5"/>
</a>
</g>
</g>
</g>
</svg>
