<?xml version="1.0" encoding="UTF-8" standalone="no"?>
<!DOCTYPE svg PUBLIC "-//W3C//DTD SVG 1.1//EN"
 "http://www.w3.org/Graphics/SVG/1.1/DTD/svg11.dtd">
<!-- Generated by graphviz version 2.43.0 (0)
 -->
<!-- Title: std::integral_constant&lt; _Tp, __v &gt; Pages: 1 -->
<!--zoomable 1676 -->

<svg id="main" version="1.1" xmlns="http://www.w3.org/2000/svg" xmlns:xlink="http://www.w3.org/1999/xlink" xml:space="preserve" onload="init(evt)">
<style type="text/css"><![CDATA[
.node, .edge {opacity: 0.7;}
.node.selected, .edge.selected {opacity: 1;}
.edge:hover path { stroke: red; }
.edge:hover polygon { stroke: red; fill: red; }
]]></style>

<defs>
  <circle id="rim" cx="0" cy="0" r="7"/>
  <circle id="rim2" cx="0" cy="0" r="3.5"/>
  <g id="zoomPlus">
    <use xlink:href="#rim" fill="#404040"><set attributeName="fill" to="#808080" begin="zoomplus.mouseover" end="zoomplus.mouseout"/></use>
    <path d="M-4,0h8M0,-4v8" fill="none" stroke="white" stroke-width="1.5" pointer-events="none"/>
  </g>
  <g id="zoomMin">
    <use xlink:href="#rim" fill="#404040"><set attributeName="fill" to="#808080" begin="zoomminus.mouseover" end="zoomminus.mouseout"/></use>
    <path d="M-4,0h8" fill="none" stroke="white" stroke-width="1.5" pointer-events="none"/>
  </g>
  <g id="arrowUp" transform="translate(30 24)">
    <use xlink:href="#rim"/>
    <path pointer-events="none" fill="none" stroke="white" stroke-width="1.5" d="M0,-3.0v7 M-2.5,-0.5L0,-3.0L2.5,-0.5"/>
  </g>
  <g id="arrowRight" transform="rotate(90) translate(36 -43)">
    <use xlink:href="#rim"/>
    <path pointer-events="none" fill="none" stroke="white" stroke-width="1.5" d="M0,-3.0v7 M-2.5,-0.5L0,-3.0L2.5,-0.5"/>
  </g>
  <g id="arrowDown" transform="rotate(180) translate(-30 -48)">
    <use xlink:href="#rim"/>
    <path pointer-events="none" fill="none" stroke="white" stroke-width="1.5" d="M0,-3.0v7 M-2.5,-0.5L0,-3.0L2.5,-0.5"/>
  </g>
  <g id="arrowLeft" transform="rotate(270) translate(-36 17)">
    <use xlink:href="#rim"/>
    <path pointer-events="none" fill="none" stroke="white" stroke-width="1.5" d="M0,-3.0v7 M-2.5,-0.5L0,-3.0L2.5,-0.5"/>
  </g>
  <g id="resetDef">
    <use xlink:href="#rim2" fill="#404040"><set attributeName="fill" to="#808080" begin="reset.mouseover" end="reset.mouseout"/></use>
  </g>
</defs>
<script type="application/ecmascript">
var viewWidth = 458;
var viewHeight = 1676;
var sectionId = 'dynsection-0';
</script>
<script type="application/ecmascript" xlink:href="svg.min.js"/>
<svg id="graph" class="graph">
<g id="viewport">
<title>std::integral_constant&lt; _Tp, __v &gt;</title>
<!-- Node1 -->
<g id="Node000001" class="node">
<title>Node1</title>
<g id="a_Node000001"><a xlink:title="integral_constant">
<polygon fill="#999999" stroke="#666666" points="116,-810 0,-810 0,-782 116,-782 116,-810"/>
<text text-anchor="start" x="8" y="-798.8" font-family="Helvetica,sans-Serif" font-size="9.00">std::integral_constant</text>
<text text-anchor="middle" x="58" y="-788.8" font-family="Helvetica,sans-Serif" font-size="9.00">&lt; _Tp, __v &gt;</text>
</a>
</g>
</g>
<!-- Node2 -->
<g id="Node000002" class="node">
<title>Node2</title>
<g id="a_Node000002"><a xlink:href="a05953.html" target="_top" xlink:title=" ">
<polygon fill="white" stroke="#666666" points="302.5,-1668 168.5,-1668 168.5,-1630 302.5,-1630 302.5,-1668"/>
<text text-anchor="start" x="176.5" y="-1656.8" font-family="Helvetica,sans-Serif" font-size="9.00">std::__is_fast_hash</text>
<text text-anchor="start" x="176.5" y="-1646.8" font-family="Helvetica,sans-Serif" font-size="9.00">&lt; hash&lt; std::basic_string</text>
<text text-anchor="middle" x="235.5" y="-1636.8" font-family="Helvetica,sans-Serif" font-size="9.00">&lt; _CharT &gt; &gt; &gt;</text>
</a>
</g>
</g>
<!-- Node1&#45;&gt;Node2 -->
<g id="edge1_Node000001_Node000002" class="edge">
<title>Node1&#45;&gt;Node2</title>
<g id="a_edge1_Node000001_Node000002"><a xlink:title=" ">
<path fill="none" stroke="#63b8ff" d="M60.19,-820.15C66.79,-949.48 100.34,-1556.84 152,-1621 156.46,-1626.54 162.06,-1630.98 168.24,-1634.56"/>
<polygon fill="#63b8ff" stroke="#63b8ff" points="63.69,-819.89 59.69,-810.08 56.69,-820.24 63.69,-819.89"/>
</a>
</g>
</g>
<!-- Node3 -->
<g id="Node000003" class="node">
<title>Node3</title>
<g id="a_Node000003"><a xlink:href="a05953.html" target="_top" xlink:title=" ">
<polygon fill="white" stroke="#666666" points="285.5,-1612 185.5,-1612 185.5,-1584 285.5,-1584 285.5,-1612"/>
<text text-anchor="start" x="193.5" y="-1600.8" font-family="Helvetica,sans-Serif" font-size="9.00">std::__is_fast_hash</text>
<text text-anchor="middle" x="235.5" y="-1590.8" font-family="Helvetica,sans-Serif" font-size="9.00">&lt; hash&lt; _Tp &gt; &gt;</text>
</a>
</g>
</g>
<!-- Node1&#45;&gt;Node3 -->
<g id="edge2_Node000001_Node000003" class="edge">
<title>Node1&#45;&gt;Node3</title>
<g id="a_edge2_Node000001_Node000003"><a xlink:title=" ">
<path fill="none" stroke="#63b8ff" d="M60.31,-820.41C67.29,-946.05 101.54,-1516.16 152,-1575 160.42,-1584.82 172.65,-1590.62 185.12,-1594"/>
<polygon fill="#63b8ff" stroke="#63b8ff" points="63.8,-820.07 59.76,-810.28 56.81,-820.46 63.8,-820.07"/>
</a>
</g>
</g>
<!-- Node4 -->
<g id="Node000004" class="node">
<title>Node4</title>
<g id="a_Node000004"><a xlink:href="a04153.html" target="_top" xlink:title=" ">
<polygon fill="white" stroke="#666666" points="305,-1566 166,-1566 166,-1528 305,-1528 305,-1566"/>
<text text-anchor="start" x="174" y="-1554.8" font-family="Helvetica,sans-Serif" font-size="9.00">std::is_base_of&lt; random</text>
<text text-anchor="start" x="174" y="-1544.8" font-family="Helvetica,sans-Serif" font-size="9.00">_access_iterator_tag,</text>
<text text-anchor="middle" x="235.5" y="-1534.8" font-family="Helvetica,sans-Serif" font-size="9.00"> __iter_category_t&lt; _It &gt; &gt;</text>
</a>
</g>
</g>
<!-- Node1&#45;&gt;Node4 -->
<g id="edge3_Node000001_Node000004" class="edge">
<title>Node1&#45;&gt;Node4</title>
<g id="a_edge3_Node000001_Node000004"><a xlink:title=" ">
<path fill="none" stroke="#63b8ff" d="M58.79,-820.38C58.32,-933.78 61.84,-1408.81 152,-1519 155.93,-1523.8 160.71,-1527.78 165.98,-1531.08"/>
<polygon fill="#63b8ff" stroke="#63b8ff" points="62.3,-820.3 58.85,-810.28 55.3,-820.26 62.3,-820.3"/>
</a>
</g>
</g>
<!-- Node5 -->
<g id="Node000005" class="node">
<title>Node5</title>
<g id="a_Node000005"><a xlink:href="a05953.html" target="_top" xlink:title=" ">
<polygon fill="white" stroke="#666666" points="285.5,-1510 185.5,-1510 185.5,-1482 285.5,-1482 285.5,-1510"/>
<text text-anchor="start" x="193.5" y="-1498.8" font-family="Helvetica,sans-Serif" font-size="9.00">std::__is_fast_hash</text>
<text text-anchor="middle" x="235.5" y="-1488.8" font-family="Helvetica,sans-Serif" font-size="9.00">&lt; _Hash &gt;</text>
</a>
</g>
</g>
<!-- Node1&#45;&gt;Node5 -->
<g id="edge4_Node000001_Node000005" class="edge">
<title>Node1&#45;&gt;Node5</title>
<g id="a_edge4_Node000001_Node000005"><a xlink:title=" ">
<path fill="none" stroke="#63b8ff" d="M58.9,-820.3C58.95,-929.37 64.59,-1372.87 152,-1473 160.51,-1482.74 172.76,-1488.52 185.23,-1491.9"/>
<polygon fill="#63b8ff" stroke="#63b8ff" points="62.4,-820.01 58.91,-810 55.4,-820 62.4,-820.01"/>
</a>
</g>
</g>
<!-- Node6 -->
<g id="Node000006" class="node">
<title>Node6</title>
<g id="a_Node000006"><a xlink:href="a04373.html" target="_top" xlink:title="has_unique_object_representations">
<polygon fill="white" stroke="#666666" points="299.5,-1464 171.5,-1464 171.5,-1436 299.5,-1436 299.5,-1464"/>
<text text-anchor="start" x="179.5" y="-1452.8" font-family="Helvetica,sans-Serif" font-size="9.00">std::has_unique_object</text>
<text text-anchor="middle" x="235.5" y="-1442.8" font-family="Helvetica,sans-Serif" font-size="9.00">_representations&lt; _Tp &gt;</text>
</a>
</g>
</g>
<!-- Node1&#45;&gt;Node6 -->
<g id="edge5_Node000001_Node000006" class="edge">
<title>Node1&#45;&gt;Node6</title>
<g id="a_edge5_Node000001_Node000006"><a xlink:title=" ">
<path fill="none" stroke="#63b8ff" d="M59.17,-820.31C60.39,-924.76 70.39,-1334.44 152,-1427 157.31,-1433.02 164.05,-1437.53 171.38,-1440.89"/>
<polygon fill="#63b8ff" stroke="#63b8ff" points="62.67,-820.1 59.07,-810.13 55.67,-820.17 62.67,-820.1"/>
</a>
</g>
</g>
<!-- Node7 -->
<g id="Node000007" class="node">
<title>Node7</title>
<g id="a_Node000007"><a xlink:href="a04377.html" target="_top" xlink:title="is_aggregate &#45; true if the type is an aggregate.">
<polygon fill="white" stroke="#666666" points="286.5,-1418 184.5,-1418 184.5,-1390 286.5,-1390 286.5,-1418"/>
<text text-anchor="start" x="192.5" y="-1406.8" font-family="Helvetica,sans-Serif" font-size="9.00">std::is_aggregate&lt;</text>
<text text-anchor="middle" x="235.5" y="-1396.8" font-family="Helvetica,sans-Serif" font-size="9.00"> _Tp &gt;</text>
</a>
</g>
</g>
<!-- Node1&#45;&gt;Node7 -->
<g id="edge6_Node000001_Node000007" class="edge">
<title>Node1&#45;&gt;Node7</title>
<g id="a_edge6_Node000001_Node000007"><a xlink:title=" ">
<path fill="none" stroke="#63b8ff" d="M59.48,-820.43C61.95,-920.26 76.21,-1296.01 152,-1381 160.31,-1390.32 172.05,-1396 184.08,-1399.43"/>
<polygon fill="#63b8ff" stroke="#63b8ff" points="62.98,-820.06 59.25,-810.15 55.98,-820.22 62.98,-820.06"/>
</a>
</g>
</g>
<!-- Node8 -->
<g id="Node000008" class="node">
<title>Node8</title>
<g id="a_Node000008"><a xlink:href="a03793.html" target="_top" xlink:title="is_array">
<polygon fill="white" stroke="#666666" points="304.5,-1372 166.5,-1372 166.5,-1354 304.5,-1354 304.5,-1372"/>
<text text-anchor="middle" x="235.5" y="-1360.8" font-family="Helvetica,sans-Serif" font-size="9.00">std::is_array&lt; typename &gt;</text>
</a>
</g>
</g>
<!-- Node1&#45;&gt;Node8 -->
<g id="edge7_Node000001_Node000008" class="edge">
<title>Node1&#45;&gt;Node8</title>
<g id="a_edge7_Node000001_Node000008"><a xlink:title=" ">
<path fill="none" stroke="#63b8ff" d="M59.62,-820.27C62.6,-916.26 78.42,-1267.88 152,-1345 156.15,-1349.35 161.09,-1352.77 166.45,-1355.44"/>
<polygon fill="#63b8ff" stroke="#63b8ff" points="63.12,-820 59.33,-810.1 56.12,-820.2 63.12,-820"/>
</a>
</g>
</g>
<!-- Node9 -->
<g id="Node000009" class="node">
<title>Node9</title>
<g id="a_Node000009"><a xlink:href="a02509.html" target="_top" xlink:title="Trait that identifies a bind expression.">
<polygon fill="white" stroke="#666666" points="296,-1336 175,-1336 175,-1308 296,-1308 296,-1336"/>
<text text-anchor="start" x="183" y="-1324.8" font-family="Helvetica,sans-Serif" font-size="9.00">std::is_bind_expression</text>
<text text-anchor="middle" x="235.5" y="-1314.8" font-family="Helvetica,sans-Serif" font-size="9.00">&lt; _Tp &gt;</text>
</a>
</g>
</g>
<!-- Node1&#45;&gt;Node9 -->
<g id="edge8_Node000001_Node000009" class="edge">
<title>Node1&#45;&gt;Node9</title>
<g id="a_edge8_Node000001_Node000009"><a xlink:title=" ">
<path fill="none" stroke="#63b8ff" d="M60.16,-820.15C64.99,-910.52 86.41,-1227.29 152,-1299 158.22,-1305.8 166.27,-1310.66 174.89,-1314.11"/>
<polygon fill="#63b8ff" stroke="#63b8ff" points="63.65,-819.86 59.64,-810.05 56.66,-820.22 63.65,-819.86"/>
</a>
</g>
</g>
<!-- Node10 -->
<g id="Node000010" class="node">
<title>Node10</title>
<g id="a_Node000010"><a xlink:href="a02541.html" target="_top" xlink:title="Class template _Bind is always a bind expression.">
<polygon fill="white" stroke="#666666" points="301.5,-1290 169.5,-1290 169.5,-1262 301.5,-1262 301.5,-1290"/>
<text text-anchor="start" x="177.5" y="-1278.8" font-family="Helvetica,sans-Serif" font-size="9.00">std::is_bind_expression</text>
<text text-anchor="middle" x="235.5" y="-1268.8" font-family="Helvetica,sans-Serif" font-size="9.00">&lt; _Bind&lt; _Signature &gt; &gt;</text>
</a>
</g>
</g>
<!-- Node1&#45;&gt;Node10 -->
<g id="edge9_Node000001_Node000010" class="edge">
<title>Node1&#45;&gt;Node10</title>
<g id="a_edge9_Node000001_Node000010"><a xlink:title=" ">
<path fill="none" stroke="#63b8ff" d="M60.65,-820.12C66.94,-905.08 92.13,-1188.72 152,-1253 156.86,-1258.22 162.8,-1262.3 169.25,-1265.47"/>
<polygon fill="#63b8ff" stroke="#63b8ff" points="64.14,-819.86 59.93,-810.13 57.16,-820.36 64.14,-819.86"/>
</a>
</g>
</g>
<!-- Node11 -->
<g id="Node000011" class="node">
<title>Node11</title>
<g id="a_Node000011"><a xlink:href="a02557.html" target="_top" xlink:title="Class template _Bind_result is always a bind expression.">
<polygon fill="white" stroke="#666666" points="299.5,-1244 171.5,-1244 171.5,-1206 299.5,-1206 299.5,-1244"/>
<text text-anchor="start" x="179.5" y="-1232.8" font-family="Helvetica,sans-Serif" font-size="9.00">std::is_bind_expression</text>
<text text-anchor="start" x="179.5" y="-1222.8" font-family="Helvetica,sans-Serif" font-size="9.00">&lt; _Bind_result&lt; _Result,</text>
<text text-anchor="middle" x="235.5" y="-1212.8" font-family="Helvetica,sans-Serif" font-size="9.00"> _Signature &gt; &gt;</text>
</a>
</g>
</g>
<!-- Node1&#45;&gt;Node11 -->
<g id="edge10_Node000001_Node000011" class="edge">
<title>Node1&#45;&gt;Node11</title>
<g id="a_edge10_Node000001_Node000011"><a xlink:title=" ">
<path fill="none" stroke="#63b8ff" d="M61.55,-820.29C70.18,-898.24 100.68,-1140.32 152,-1197 157.38,-1202.94 164.07,-1207.63 171.29,-1211.31"/>
<polygon fill="#63b8ff" stroke="#63b8ff" points="64.99,-819.58 60.43,-810.02 58.03,-820.34 64.99,-819.58"/>
</a>
</g>
</g>
<!-- Node12 -->
<g id="Node000012" class="node">
<title>Node12</title>
<g id="a_Node000012"><a xlink:href="a02545.html" target="_top" xlink:title="Class template _Bind is always a bind expression.">
<polygon fill="white" stroke="#666666" points="315.5,-1188 155.5,-1188 155.5,-1160 315.5,-1160 315.5,-1188"/>
<text text-anchor="start" x="163.5" y="-1176.8" font-family="Helvetica,sans-Serif" font-size="9.00">std::is_bind_expression</text>
<text text-anchor="middle" x="235.5" y="-1166.8" font-family="Helvetica,sans-Serif" font-size="9.00">&lt; const _Bind&lt; _Signature &gt; &gt;</text>
</a>
</g>
</g>
<!-- Node1&#45;&gt;Node12 -->
<g id="edge11_Node000001_Node000012" class="edge">
<title>Node1&#45;&gt;Node12</title>
<g id="a_edge11_Node000001_Node000012"><a xlink:title=" ">
<path fill="none" stroke="#63b8ff" d="M62.21,-820.4C72.18,-892.59 104.8,-1103.05 152,-1151 155.34,-1154.39 159.13,-1157.29 163.21,-1159.78"/>
<polygon fill="#63b8ff" stroke="#63b8ff" points="65.62,-819.49 60.81,-810.05 58.68,-820.43 65.62,-819.49"/>
</a>
</g>
</g>
<!-- Node13 -->
<g id="Node000013" class="node">
<title>Node13</title>
<g id="a_Node000013"><a xlink:href="a02561.html" target="_top" xlink:title="Class template _Bind_result is always a bind expression.">
<polygon fill="white" stroke="#666666" points="299.5,-1142 171.5,-1142 171.5,-1104 299.5,-1104 299.5,-1142"/>
<text text-anchor="start" x="179.5" y="-1130.8" font-family="Helvetica,sans-Serif" font-size="9.00">std::is_bind_expression</text>
<text text-anchor="start" x="179.5" y="-1120.8" font-family="Helvetica,sans-Serif" font-size="9.00">&lt; const _Bind_result&lt;</text>
<text text-anchor="middle" x="235.5" y="-1110.8" font-family="Helvetica,sans-Serif" font-size="9.00"> _Result, _Signature &gt; &gt;</text>
</a>
</g>
</g>
<!-- Node1&#45;&gt;Node13 -->
<g id="edge12_Node000001_Node000013" class="edge">
<title>Node1&#45;&gt;Node13</title>
<g id="a_edge12_Node000001_Node000013"><a xlink:title=" ">
<path fill="none" stroke="#63b8ff" d="M59.45,-820.17C61.82,-876.27 75.52,-1016.53 152,-1095 157.49,-1100.63 164.15,-1105.13 171.29,-1108.73"/>
<polygon fill="#63b8ff" stroke="#63b8ff" points="62.95,-819.99 59.11,-810.11 55.95,-820.22 62.95,-819.99"/>
</a>
</g>
</g>
<!-- Node14 -->
<g id="Node000014" class="node">
<title>Node14</title>
<g id="a_Node000014"><a xlink:href="a02553.html" target="_top" xlink:title="Class template _Bind is always a bind expression.">
<polygon fill="white" stroke="#666666" points="296,-1086 175,-1086 175,-1048 296,-1048 296,-1086"/>
<text text-anchor="start" x="183" y="-1074.8" font-family="Helvetica,sans-Serif" font-size="9.00">std::is_bind_expression</text>
<text text-anchor="start" x="183" y="-1064.8" font-family="Helvetica,sans-Serif" font-size="9.00">&lt; const volatile _Bind</text>
<text text-anchor="middle" x="235.5" y="-1054.8" font-family="Helvetica,sans-Serif" font-size="9.00">&lt; _Signature &gt; &gt;</text>
</a>
</g>
</g>
<!-- Node1&#45;&gt;Node14 -->
<g id="edge13_Node000001_Node000014" class="edge">
<title>Node1&#45;&gt;Node14</title>
<g id="a_edge13_Node000001_Node000014"><a xlink:title=" ">
<path fill="none" stroke="#63b8ff" d="M61.49,-820.2C67.73,-868.58 88.44,-977.83 152,-1039 158.54,-1045.29 166.54,-1050.17 174.97,-1053.96"/>
<polygon fill="#63b8ff" stroke="#63b8ff" points="64.94,-819.57 60.28,-810.05 57.99,-820.4 64.94,-819.57"/>
</a>
</g>
</g>
<!-- Node15 -->
<g id="Node000015" class="node">
<title>Node15</title>
<g id="a_Node000015"><a xlink:href="a02569.html" target="_top" xlink:title="Class template _Bind_result is always a bind expression.">
<polygon fill="white" stroke="#666666" points="318,-1030 153,-1030 153,-992 318,-992 318,-1030"/>
<text text-anchor="start" x="161" y="-1018.8" font-family="Helvetica,sans-Serif" font-size="9.00">std::is_bind_expression</text>
<text text-anchor="start" x="161" y="-1008.8" font-family="Helvetica,sans-Serif" font-size="9.00">&lt; const volatile _Bind</text>
<text text-anchor="middle" x="235.5" y="-998.8" font-family="Helvetica,sans-Serif" font-size="9.00">_result&lt; _Result, _Signature &gt; &gt;</text>
</a>
</g>
</g>
<!-- Node1&#45;&gt;Node15 -->
<g id="edge14_Node000001_Node000015" class="edge">
<title>Node1&#45;&gt;Node15</title>
<g id="a_edge14_Node000001_Node000015"><a xlink:title=" ">
<path fill="none" stroke="#63b8ff" d="M64.6,-820.08C75.02,-859.67 101.11,-938.52 152,-983 155.87,-986.38 160.17,-989.36 164.72,-991.99"/>
<polygon fill="#63b8ff" stroke="#63b8ff" points="67.96,-819.08 62.12,-810.24 61.17,-820.79 67.96,-819.08"/>
</a>
</g>
</g>
<!-- Node16 -->
<g id="Node000016" class="node">
<title>Node16</title>
<g id="a_Node000016"><a xlink:href="a02549.html" target="_top" xlink:title="Class template _Bind is always a bind expression.">
<polygon fill="white" stroke="#666666" points="319,-974 152,-974 152,-946 319,-946 319,-974"/>
<text text-anchor="start" x="160" y="-962.8" font-family="Helvetica,sans-Serif" font-size="9.00">std::is_bind_expression</text>
<text text-anchor="middle" x="235.5" y="-952.8" font-family="Helvetica,sans-Serif" font-size="9.00">&lt; volatile _Bind&lt; _Signature &gt; &gt;</text>
</a>
</g>
</g>
<!-- Node1&#45;&gt;Node16 -->
<g id="edge15_Node000001_Node000016" class="edge">
<title>Node1&#45;&gt;Node16</title>
<g id="a_edge15_Node000001_Node000016"><a xlink:title=" ">
<path fill="none" stroke="#63b8ff" d="M68.15,-819.34C81.7,-850.82 110.09,-906.45 152,-937 156.81,-940.5 162.13,-943.47 167.68,-945.99"/>
<polygon fill="#63b8ff" stroke="#63b8ff" points="71.35,-817.91 64.28,-810.03 64.89,-820.6 71.35,-817.91"/>
</a>
</g>
</g>
<!-- Node17 -->
<g id="Node000017" class="node">
<title>Node17</title>
<g id="a_Node000017"><a xlink:href="a02565.html" target="_top" xlink:title="Class template _Bind_result is always a bind expression.">
<polygon fill="white" stroke="#666666" points="303,-928 168,-928 168,-890 303,-890 303,-928"/>
<text text-anchor="start" x="176" y="-916.8" font-family="Helvetica,sans-Serif" font-size="9.00">std::is_bind_expression</text>
<text text-anchor="start" x="176" y="-906.8" font-family="Helvetica,sans-Serif" font-size="9.00">&lt; volatile _Bind_result</text>
<text text-anchor="middle" x="235.5" y="-896.8" font-family="Helvetica,sans-Serif" font-size="9.00">&lt; _Result, _Signature &gt; &gt;</text>
</a>
</g>
</g>
<!-- Node1&#45;&gt;Node17 -->
<g id="edge16_Node000001_Node000017" class="edge">
<title>Node1&#45;&gt;Node17</title>
<g id="a_edge16_Node000001_Node000017"><a xlink:title=" ">
<path fill="none" stroke="#63b8ff" d="M78.02,-817.89C95.55,-836.89 123.17,-863.96 152,-881 157.6,-884.31 163.64,-887.3 169.83,-889.98"/>
<polygon fill="#63b8ff" stroke="#63b8ff" points="80.45,-815.36 71.14,-810.29 75.26,-820.06 80.45,-815.36"/>
</a>
</g>
</g>
<!-- Node18 -->
<g id="Node000018" class="node">
<title>Node18</title>
<g id="a_Node000018"><a xlink:href="a04401.html" target="_top" xlink:title="True for a type that is an array of known bound.">
<polygon fill="white" stroke="#666666" points="293.5,-872 177.5,-872 177.5,-844 293.5,-844 293.5,-872"/>
<text text-anchor="start" x="185.5" y="-860.8" font-family="Helvetica,sans-Serif" font-size="9.00">std::is_bounded_array</text>
<text text-anchor="middle" x="235.5" y="-850.8" font-family="Helvetica,sans-Serif" font-size="9.00">&lt; _Tp &gt;</text>
</a>
</g>
</g>
<!-- Node1&#45;&gt;Node18 -->
<g id="edge17_Node000001_Node000018" class="edge">
<title>Node1&#45;&gt;Node18</title>
<g id="a_edge17_Node000001_Node000018"><a xlink:title=" ">
<path fill="none" stroke="#63b8ff" d="M99.24,-814.17C115.45,-821.15 134.44,-828.9 152,-835 161.13,-838.17 170.94,-841.22 180.5,-843.99"/>
<polygon fill="#63b8ff" stroke="#63b8ff" points="100.61,-810.95 90.05,-810.17 97.82,-817.37 100.61,-810.95"/>
</a>
</g>
</g>
<!-- Node19 -->
<g id="Node000019" class="node">
<title>Node19</title>
<g id="a_Node000019"><a xlink:href="a03765.html" target="_top" xlink:title="is_const">
<polygon fill="white" stroke="#666666" points="305.5,-826 165.5,-826 165.5,-808 305.5,-808 305.5,-826"/>
<text text-anchor="middle" x="235.5" y="-814.8" font-family="Helvetica,sans-Serif" font-size="9.00">std::is_const&lt; typename &gt;</text>
</a>
</g>
</g>
<!-- Node1&#45;&gt;Node19 -->
<g id="edge18_Node000001_Node000019" class="edge">
<title>Node1&#45;&gt;Node19</title>
<g id="a_edge18_Node000001_Node000019"><a xlink:title=" ">
<path fill="none" stroke="#63b8ff" d="M126.51,-804.08C139.21,-805.6 152.52,-807.19 165.28,-808.72"/>
<polygon fill="#63b8ff" stroke="#63b8ff" points="126.81,-800.59 116.47,-802.88 125.98,-807.54 126.81,-800.59"/>
</a>
</g>
</g>
<!-- Node20 -->
<g id="Node000020" class="node">
<title>Node20</title>
<g id="a_Node000020"><a xlink:href="a03569.html" target="_top" xlink:title="is_error_code_enum">
<polygon fill="white" stroke="#666666" points="283.5,-790 187.5,-790 187.5,-762 283.5,-762 283.5,-790"/>
<text text-anchor="start" x="195.5" y="-778.8" font-family="Helvetica,sans-Serif" font-size="9.00">std::is_error_code</text>
<text text-anchor="middle" x="235.5" y="-768.8" font-family="Helvetica,sans-Serif" font-size="9.00">_enum&lt; _Tp &gt;</text>
</a>
</g>
</g>
<!-- Node1&#45;&gt;Node20 -->
<g id="edge19_Node000001_Node000020" class="edge">
<title>Node1&#45;&gt;Node20</title>
<g id="a_edge19_Node000001_Node000020"><a xlink:title=" ">
<path fill="none" stroke="#63b8ff" d="M126.61,-788.3C146.93,-785.98 168.77,-783.49 187.45,-781.36"/>
<polygon fill="#63b8ff" stroke="#63b8ff" points="126,-784.84 116.47,-789.45 126.8,-791.8 126,-784.84"/>
</a>
</g>
</g>
<!-- Node21 -->
<g id="Node000021" class="node">
<title>Node21</title>
<g id="a_Node000021"><a xlink:href="a02653.html" target="_top" xlink:title="Specialization that allows future_errc to convert to error_code.">
<polygon fill="white" stroke="#666666" points="295,-744 176,-744 176,-716 295,-716 295,-744"/>
<text text-anchor="start" x="184" y="-732.8" font-family="Helvetica,sans-Serif" font-size="9.00">std::is_error_code</text>
<text text-anchor="middle" x="235.5" y="-722.8" font-family="Helvetica,sans-Serif" font-size="9.00">_enum&lt; future_errc &gt;</text>
</a>
</g>
</g>
<!-- Node1&#45;&gt;Node21 -->
<g id="edge20_Node000001_Node000021" class="edge">
<title>Node1&#45;&gt;Node21</title>
<g id="a_edge20_Node000001_Node000021"><a xlink:title=" ">
<path fill="none" stroke="#63b8ff" d="M95.57,-777.43C112.48,-769.28 132.98,-760 152,-753 160.65,-749.82 169.95,-746.83 179.08,-744.12"/>
<polygon fill="#63b8ff" stroke="#63b8ff" points="94.03,-774.29 86.58,-781.82 97.11,-780.58 94.03,-774.29"/>
</a>
</g>
</g>
<!-- Node22 -->
<g id="Node000022" class="node">
<title>Node22</title>
<g id="a_Node000022"><a xlink:href="a03573.html" target="_top" xlink:title="is_error_condition_enum">
<polygon fill="white" stroke="#666666" points="293.5,-698 177.5,-698 177.5,-670 293.5,-670 293.5,-698"/>
<text text-anchor="start" x="185.5" y="-686.8" font-family="Helvetica,sans-Serif" font-size="9.00">std::is_error_condition</text>
<text text-anchor="middle" x="235.5" y="-676.8" font-family="Helvetica,sans-Serif" font-size="9.00">_enum&lt; _Tp &gt;</text>
</a>
</g>
</g>
<!-- Node1&#45;&gt;Node22 -->
<g id="edge21_Node000001_Node000022" class="edge">
<title>Node1&#45;&gt;Node22</title>
<g id="a_edge21_Node000001_Node000022"><a xlink:title=" ">
<path fill="none" stroke="#63b8ff" d="M76.47,-773.94C93.64,-753.69 121.62,-724.3 152,-707 159.75,-702.59 168.4,-698.98 177.1,-696.04"/>
<polygon fill="#63b8ff" stroke="#63b8ff" points="73.7,-771.8 70.01,-781.73 79.09,-776.26 73.7,-771.8"/>
</a>
</g>
</g>
<!-- Node23 -->
<g id="Node000023" class="node">
<title>Node23</title>
<g id="a_Node000023"><a xlink:href="a04409.html" target="_top" xlink:title=" ">
<polygon fill="white" stroke="#666666" points="301,-652 170,-652 170,-624 301,-624 301,-652"/>
<text text-anchor="start" x="178" y="-640.8" font-family="Helvetica,sans-Serif" font-size="9.00">std::is_layout_compatible</text>
<text text-anchor="middle" x="235.5" y="-630.8" font-family="Helvetica,sans-Serif" font-size="9.00">&lt; _Tp, _Up &gt;</text>
</a>
</g>
</g>
<!-- Node1&#45;&gt;Node23 -->
<g id="edge22_Node000001_Node000023" class="edge">
<title>Node1&#45;&gt;Node23</title>
<g id="a_edge22_Node000001_Node000023"><a xlink:title=" ">
<path fill="none" stroke="#63b8ff" d="M69.03,-772.33C83.11,-741.97 111.62,-689.81 152,-661 157.45,-657.11 163.53,-653.88 169.85,-651.2"/>
<polygon fill="#63b8ff" stroke="#63b8ff" points="65.72,-771.17 64.81,-781.72 72.1,-774.03 65.72,-771.17"/>
</a>
</g>
</g>
<!-- Node24 -->
<g id="Node000024" class="node">
<title>Node24</title>
<g id="a_Node000024"><a xlink:href="a03817.html" target="_top" xlink:title="is_lvalue_reference">
<polygon fill="white" stroke="#666666" points="296.5,-606 174.5,-606 174.5,-578 296.5,-578 296.5,-606"/>
<text text-anchor="start" x="182.5" y="-594.8" font-family="Helvetica,sans-Serif" font-size="9.00">std::is_lvalue_reference</text>
<text text-anchor="middle" x="235.5" y="-584.8" font-family="Helvetica,sans-Serif" font-size="9.00">&lt; typename &gt;</text>
</a>
</g>
</g>
<!-- Node1&#45;&gt;Node24 -->
<g id="edge23_Node000001_Node000024" class="edge">
<title>Node1&#45;&gt;Node24</title>
<g id="a_edge23_Node000001_Node000024"><a xlink:title=" ">
<path fill="none" stroke="#63b8ff" d="M64.71,-771.84C75.18,-732.89 101.19,-656.42 152,-615 158.57,-609.64 166.3,-605.53 174.36,-602.38"/>
<polygon fill="#63b8ff" stroke="#63b8ff" points="61.26,-771.21 62.16,-781.77 68.04,-772.95 61.26,-771.21"/>
</a>
</g>
</g>
<!-- Node25 -->
<g id="Node000025" class="node">
<title>Node25</title>
<g id="a_Node000025"><a xlink:href="a03853.html" target="_top" xlink:title="is_member_function_pointer">
<polygon fill="white" stroke="#666666" points="299.5,-560 171.5,-560 171.5,-532 299.5,-532 299.5,-560"/>
<text text-anchor="start" x="179.5" y="-548.8" font-family="Helvetica,sans-Serif" font-size="9.00">std::is_member_function</text>
<text text-anchor="middle" x="235.5" y="-538.8" font-family="Helvetica,sans-Serif" font-size="9.00">_pointer&lt; _Tp &gt;</text>
</a>
</g>
</g>
<!-- Node1&#45;&gt;Node25 -->
<g id="edge24_Node000001_Node000025" class="edge">
<title>Node1&#45;&gt;Node25</title>
<g id="a_edge24_Node000001_Node000025"><a xlink:title=" ">
<path fill="none" stroke="#63b8ff" d="M61.91,-771.8C68.8,-725.42 90.43,-623.76 152,-569 157.67,-563.96 164.35,-560.02 171.42,-556.93"/>
<polygon fill="#63b8ff" stroke="#63b8ff" points="58.43,-771.45 60.53,-781.84 65.36,-772.41 58.43,-771.45"/>
</a>
</g>
</g>
<!-- Node26 -->
<g id="Node000026" class="node">
<title>Node26</title>
<g id="a_Node000026"><a xlink:href="a03841.html" target="_top" xlink:title="is_member_object_pointer">
<polygon fill="white" stroke="#666666" points="295,-514 176,-514 176,-486 295,-486 295,-514"/>
<text text-anchor="start" x="184" y="-502.8" font-family="Helvetica,sans-Serif" font-size="9.00">std::is_member_object</text>
<text text-anchor="middle" x="235.5" y="-492.8" font-family="Helvetica,sans-Serif" font-size="9.00">_pointer&lt; _Tp &gt;</text>
</a>
</g>
</g>
<!-- Node1&#45;&gt;Node26 -->
<g id="edge25_Node000001_Node000026" class="edge">
<title>Node1&#45;&gt;Node26</title>
<g id="a_edge25_Node000001_Node000026"><a xlink:title=" ">
<path fill="none" stroke="#63b8ff" d="M59.99,-771.86C63.5,-718.85 79.47,-591.55 152,-523 158.7,-516.67 166.99,-512.05 175.72,-508.7"/>
<polygon fill="#63b8ff" stroke="#63b8ff" points="56.49,-771.81 59.41,-782 63.48,-772.21 56.49,-771.81"/>
</a>
</g>
</g>
<!-- Node27 -->
<g id="Node000027" class="node">
<title>Node27</title>
<g id="a_Node000027"><a xlink:href="a04161.html" target="_top" xlink:title="is_nothrow_convertible">
<polygon fill="white" stroke="#666666" points="305.5,-468 165.5,-468 165.5,-440 305.5,-440 305.5,-468"/>
<text text-anchor="start" x="173.5" y="-456.8" font-family="Helvetica,sans-Serif" font-size="9.00">std::is_nothrow_convertible</text>
<text text-anchor="middle" x="235.5" y="-446.8" font-family="Helvetica,sans-Serif" font-size="9.00">&lt; _From, _To &gt;</text>
</a>
</g>
</g>
<!-- Node1&#45;&gt;Node27 -->
<g id="edge26_Node000001_Node000027" class="edge">
<title>Node1&#45;&gt;Node27</title>
<g id="a_edge26_Node000001_Node000027"><a xlink:title=" ">
<path fill="none" stroke="#63b8ff" d="M58.6,-771.57C59,-712.26 68.55,-559.48 152,-477 155.91,-473.13 160.42,-469.9 165.26,-467.21"/>
<polygon fill="#63b8ff" stroke="#63b8ff" points="55.1,-771.84 58.61,-781.83 62.1,-771.82 55.1,-771.84"/>
</a>
</g>
</g>
<!-- Node28 -->
<g id="Node000028" class="node">
<title>Node28</title>
<g id="a_Node000028"><a xlink:href="a03877.html" target="_top" xlink:title="is_null_pointer (LWG 2247).">
<polygon fill="white" stroke="#666666" points="286,-422 185,-422 185,-394 286,-394 286,-422"/>
<text text-anchor="start" x="193" y="-410.8" font-family="Helvetica,sans-Serif" font-size="9.00">std::is_null_pointer</text>
<text text-anchor="middle" x="235.5" y="-400.8" font-family="Helvetica,sans-Serif" font-size="9.00">&lt; _Tp &gt;</text>
</a>
</g>
</g>
<!-- Node1&#45;&gt;Node28 -->
<g id="edge27_Node000001_Node000028" class="edge">
<title>Node1&#45;&gt;Node28</title>
<g id="a_edge27_Node000001_Node000028"><a xlink:title=" ">
<path fill="none" stroke="#63b8ff" d="M61.99,-771.87C71.53,-698.58 103.51,-480.59 152,-431 160.73,-422.07 172.62,-416.52 184.64,-413.1"/>
<polygon fill="#63b8ff" stroke="#63b8ff" points="58.49,-771.6 60.7,-781.97 65.44,-772.49 58.49,-771.6"/>
</a>
</g>
</g>
<!-- Node30 -->
<g id="Node000030" class="node">
<title>Node30</title>
<g id="a_Node000030"><a xlink:href="a03813.html" target="_top" xlink:title="is_pointer">
<polygon fill="white" stroke="#666666" points="294,-376 177,-376 177,-358 294,-358 294,-376"/>
<text text-anchor="middle" x="235.5" y="-364.8" font-family="Helvetica,sans-Serif" font-size="9.00">std::is_pointer&lt; _Tp &gt;</text>
</a>
</g>
</g>
<!-- Node1&#45;&gt;Node30 -->
<g id="edge29_Node000001_Node000030" class="edge">
<title>Node1&#45;&gt;Node30</title>
<g id="a_edge29_Node000001_Node000030"><a xlink:title=" ">
<path fill="none" stroke="#63b8ff" d="M61.11,-771.89C68.55,-692.39 96.2,-440.37 152,-385 158.87,-378.18 167.68,-373.69 176.97,-370.77"/>
<polygon fill="#63b8ff" stroke="#63b8ff" points="57.62,-771.65 60.19,-781.93 64.59,-772.29 57.62,-771.65"/>
</a>
</g>
</g>
<!-- Node31 -->
<g id="Node000031" class="node">
<title>Node31</title>
<g id="a_Node000031"><a xlink:href="a04413.html" target="_top" xlink:title="True if _Derived is standard&#45;layout and has a base class of type _Base">
<polygon fill="white" stroke="#666666" points="313.5,-340 157.5,-340 157.5,-312 313.5,-312 313.5,-340"/>
<text text-anchor="start" x="165.5" y="-328.8" font-family="Helvetica,sans-Serif" font-size="9.00">std::is_pointer_interconvertible</text>
<text text-anchor="middle" x="235.5" y="-318.8" font-family="Helvetica,sans-Serif" font-size="9.00">_base_of&lt; _Base, _Derived &gt;</text>
</a>
</g>
</g>
<!-- Node1&#45;&gt;Node31 -->
<g id="edge30_Node000001_Node000031" class="edge">
<title>Node1&#45;&gt;Node31</title>
<g id="a_edge30_Node000001_Node000031"><a xlink:title=" ">
<path fill="none" stroke="#63b8ff" d="M60.79,-771.59C67.45,-687.5 93.44,-411.6 152,-349 155.25,-345.53 158.98,-342.56 163.01,-340.03"/>
<polygon fill="#63b8ff" stroke="#63b8ff" points="57.29,-771.48 60.01,-781.72 64.27,-772.02 57.29,-771.48"/>
</a>
</g>
</g>
<!-- Node32 -->
<g id="Node000032" class="node">
<title>Node32</title>
<g id="a_Node000032"><a xlink:href="a03749.html" target="_top" xlink:title="is_reference">
<polygon fill="white" stroke="#666666" points="284.5,-294 186.5,-294 186.5,-266 284.5,-266 284.5,-294"/>
<text text-anchor="start" x="194.5" y="-282.8" font-family="Helvetica,sans-Serif" font-size="9.00">std::is_reference&lt;</text>
<text text-anchor="middle" x="235.5" y="-272.8" font-family="Helvetica,sans-Serif" font-size="9.00"> _Tp &gt;</text>
</a>
</g>
</g>
<!-- Node1&#45;&gt;Node32 -->
<g id="edge31_Node000001_Node000032" class="edge">
<title>Node1&#45;&gt;Node32</title>
<g id="a_edge31_Node000001_Node000032"><a xlink:title=" ">
<path fill="none" stroke="#63b8ff" d="M60.27,-771.74C65.42,-682.37 87.68,-373.06 152,-303 160.95,-293.25 173.65,-287.5 186.41,-284.15"/>
<polygon fill="#63b8ff" stroke="#63b8ff" points="56.77,-771.56 59.71,-781.74 63.76,-771.95 56.77,-771.56"/>
</a>
</g>
</g>
<!-- Node33 -->
<g id="Node000033" class="node">
<title>Node33</title>
<g id="a_Node000033"><a xlink:href="a03825.html" target="_top" xlink:title="is_rvalue_reference">
<polygon fill="white" stroke="#666666" points="297,-248 174,-248 174,-220 297,-220 297,-248"/>
<text text-anchor="start" x="182" y="-236.8" font-family="Helvetica,sans-Serif" font-size="9.00">std::is_rvalue_reference</text>
<text text-anchor="middle" x="235.5" y="-226.8" font-family="Helvetica,sans-Serif" font-size="9.00">&lt; typename &gt;</text>
</a>
</g>
</g>
<!-- Node1&#45;&gt;Node33 -->
<g id="edge32_Node000001_Node000033" class="edge">
<title>Node1&#45;&gt;Node33</title>
<g id="a_edge32_Node000001_Node000033"><a xlink:title=" ">
<path fill="none" stroke="#63b8ff" d="M59.84,-771.69C63.61,-677.03 81.95,-334.52 152,-257 157.98,-250.38 165.69,-245.6 173.99,-242.16"/>
<polygon fill="#63b8ff" stroke="#63b8ff" points="56.33,-771.84 59.45,-781.97 63.33,-772.11 56.33,-771.84"/>
</a>
</g>
</g>
<!-- Node34 -->
<g id="Node000034" class="node">
<title>Node34</title>
<g id="a_Node000034"><a xlink:href="a03933.html" target="_top" xlink:title="is_same">
<polygon fill="white" stroke="#666666" points="286,-202 185,-202 185,-174 286,-174 286,-202"/>
<text text-anchor="start" x="193" y="-190.8" font-family="Helvetica,sans-Serif" font-size="9.00">std::is_same&lt; _Tp,</text>
<text text-anchor="middle" x="235.5" y="-180.8" font-family="Helvetica,sans-Serif" font-size="9.00"> _Up &gt;</text>
</a>
</g>
</g>
<!-- Node1&#45;&gt;Node34 -->
<g id="edge33_Node000001_Node000034" class="edge">
<title>Node1&#45;&gt;Node34</title>
<g id="a_edge33_Node000001_Node000034"><a xlink:title=" ">
<path fill="none" stroke="#63b8ff" d="M59.48,-771.57C61.95,-671.74 76.21,-295.99 152,-211 160.51,-201.46 172.61,-195.73 184.94,-192.33"/>
<polygon fill="#63b8ff" stroke="#63b8ff" points="55.98,-771.78 59.25,-781.85 62.98,-771.94 55.98,-771.78"/>
</a>
</g>
</g>
<!-- Node35 -->
<g id="Node000035" class="node">
<title>Node35</title>
<g id="a_Node000035"><a xlink:href="a04405.html" target="_top" xlink:title="True for a type that is an array of unknown bound.">
<polygon fill="white" stroke="#666666" points="299.5,-156 171.5,-156 171.5,-128 299.5,-128 299.5,-156"/>
<text text-anchor="start" x="179.5" y="-144.8" font-family="Helvetica,sans-Serif" font-size="9.00">std::is_unbounded_array</text>
<text text-anchor="middle" x="235.5" y="-134.8" font-family="Helvetica,sans-Serif" font-size="9.00">&lt; _Tp &gt;</text>
</a>
</g>
</g>
<!-- Node1&#45;&gt;Node35 -->
<g id="edge34_Node000001_Node000035" class="edge">
<title>Node1&#45;&gt;Node35</title>
<g id="a_edge34_Node000001_Node000035"><a xlink:title=" ">
<path fill="none" stroke="#63b8ff" d="M59.17,-771.69C60.39,-667.24 70.39,-257.56 152,-165 157.31,-158.98 164.05,-154.47 171.38,-151.11"/>
<polygon fill="#63b8ff" stroke="#63b8ff" points="55.67,-771.83 59.07,-781.87 62.67,-771.9 55.67,-771.83"/>
</a>
</g>
</g>
<!-- Node36 -->
<g id="Node000036" class="node">
<title>Node36</title>
<g id="a_Node000036"><a xlink:href="a03757.html" target="_top" xlink:title="is_void">
<polygon fill="white" stroke="#666666" points="287.5,-110 183.5,-110 183.5,-92 287.5,-92 287.5,-110"/>
<text text-anchor="middle" x="235.5" y="-98.8" font-family="Helvetica,sans-Serif" font-size="9.00">std::is_void&lt; _Tp &gt;</text>
</a>
</g>
</g>
<!-- Node1&#45;&gt;Node36 -->
<g id="edge35_Node000001_Node000036" class="edge">
<title>Node1&#45;&gt;Node36</title>
<g id="a_edge35_Node000001_Node000036"><a xlink:title=" ">
<path fill="none" stroke="#63b8ff" d="M58.77,-771.92C58.24,-662.9 61.67,-216.69 152,-119 160.16,-110.17 171.56,-105.15 183.28,-102.41"/>
<polygon fill="#63b8ff" stroke="#63b8ff" points="55.27,-771.95 58.84,-781.93 62.27,-771.91 55.27,-771.95"/>
</a>
</g>
</g>
<!-- Node37 -->
<g id="Node000037" class="node">
<title>Node37</title>
<g id="a_Node000037"><a xlink:href="a03941.html" target="_top" xlink:title="is_volatile">
<polygon fill="white" stroke="#666666" points="308.5,-74 162.5,-74 162.5,-56 308.5,-56 308.5,-74"/>
<text text-anchor="middle" x="235.5" y="-62.8" font-family="Helvetica,sans-Serif" font-size="9.00">std::is_volatile&lt; typename &gt;</text>
</a>
</g>
</g>
<!-- Node1&#45;&gt;Node37 -->
<g id="edge36_Node000001_Node000037" class="edge">
<title>Node1&#45;&gt;Node37</title>
<g id="a_edge36_Node000001_Node000037"><a xlink:title=" ">
<path fill="none" stroke="#63b8ff" d="M58.58,-771.73C57.15,-658.86 57.01,-186.44 152,-83 155.27,-79.44 159.07,-76.49 163.21,-74.07"/>
<polygon fill="#63b8ff" stroke="#63b8ff" points="55.08,-771.83 58.73,-781.78 62.08,-771.73 55.08,-771.83"/>
</a>
</g>
</g>
<!-- Node38 -->
<g id="Node000038" class="node">
<title>Node38</title>
<g id="a_Node000038"><a xlink:href="a03693.html" target="_top" xlink:title="Partial specialization for tuples.">
<polygon fill="white" stroke="#666666" points="290.5,-38 180.5,-38 180.5,0 290.5,0 290.5,-38"/>
<text text-anchor="start" x="188.5" y="-26.8" font-family="Helvetica,sans-Serif" font-size="9.00">std::uses_allocator</text>
<text text-anchor="start" x="188.5" y="-16.8" font-family="Helvetica,sans-Serif" font-size="9.00">&lt; tuple&lt; _Types... &gt;</text>
<text text-anchor="middle" x="235.5" y="-6.8" font-family="Helvetica,sans-Serif" font-size="9.00">, _Alloc &gt;</text>
</a>
</g>
</g>
<!-- Node1&#45;&gt;Node38 -->
<g id="edge37_Node000001_Node000038" class="edge">
<title>Node1&#45;&gt;Node38</title>
<g id="a_edge37_Node000001_Node000038"><a xlink:title=" ">
<path fill="none" stroke="#63b8ff" d="M58.67,-771.5C57.61,-655.41 58.7,-161.54 152,-47 159.26,-38.09 169.48,-32 180.26,-27.84"/>
<polygon fill="#63b8ff" stroke="#63b8ff" points="55.18,-771.85 58.78,-781.81 62.18,-771.78 55.18,-771.85"/>
</a>
</g>
</g>
<!-- Node29 -->
<g id="Node000029" class="node">
<title>Node29</title>
<g id="a_Node000029"><a xlink:href="a03897.html" target="_top" xlink:title="__is_nullptr_t (deprecated extension).">
<polygon fill="white" stroke="#666666" points="450,-422 355,-422 355,-394 450,-394 450,-422"/>
<text text-anchor="start" x="363" y="-410.8" font-family="Helvetica,sans-Serif" font-size="9.00">std::__is_nullptr_t</text>
<text text-anchor="middle" x="402.5" y="-400.8" font-family="Helvetica,sans-Serif" font-size="9.00">&lt; _Tp &gt;</text>
</a>
</g>
</g>
<!-- Node28&#45;&gt;Node29 -->
<g id="edge28_Node000028_Node000029" class="edge">
<title>Node28&#45;&gt;Node29</title>
<g id="a_edge28_Node000028_Node000029"><a xlink:title=" ">
<path fill="none" stroke="#63b8ff" d="M296.21,-408C315.52,-408 336.64,-408 354.86,-408"/>
<polygon fill="#63b8ff" stroke="#63b8ff" points="296.01,-404.5 286.01,-408 296.01,-411.5 296.01,-404.5"/>
</a>
</g>
</g>
</g>
</svg>

<g id="navigator" transform="translate(0 0)" fill="#404254">
  <rect fill="#f2f5e9" fill-opacity="0.5" stroke="#606060" stroke-width=".5" x="0" y="0" width="60" height="60"/>
  <use id="zoomplus" xlink:href="#zoomPlus" x="17" y="9" onmousedown="handleZoom(evt,'in')"/>
  <use id="zoomminus" xlink:href="#zoomMin" x="42" y="9" onmousedown="handleZoom(evt,'out')"/>
  <use id="reset" xlink:href="#resetDef" x="30" y="36" onmousedown="handleReset()"/>
   <use id="arrowup" xlink:href="#arrowUp" x="0" y="0" onmousedown="handlePan(0,-1)"/>
  <use id="arrowright" xlink:href="#arrowRight" x="0" y="0" onmousedown="handlePan(1,0)"/>
  <use id="arrowdown" xlink:href="#arrowDown" x="0" y="0" onmousedown="handlePan(0,1)"/>
  <use id="arrowleft" xlink:href="#arrowLeft" x="0" y="0" onmousedown="handlePan(-1,0)"/>
</g>
<svg viewBox="0 0 15 15" width="100%" height="30px" preserveAspectRatio="xMaxYMin meet">
 <g id="arrow_out" transform="scale(0.3 0.3)">
  <a xlink:href="a03708_org.svg" target="_base">
   <rect id="button" ry="5" rx="5" y="6" x="6" height="38" width="38"
        fill="#f2f5e9" fill-opacity="0.5" stroke="#606060" stroke-width="1.0"/>
   <path id="arrow"
     d="M 11.500037,31.436501 C 11.940474,20.09759 22.043105,11.32322 32.158766,21.979434 L 37.068811,17.246167 C 37.068811,17.246167 37.088388,32 37.088388,32 L 22.160133,31.978069 C 22.160133,31.978069 26.997745,27.140456 26.997745,27.140456 C 18.528582,18.264221 13.291696,25.230495 11.500037,31.436501 z"
     style="fill:#404040;"/>
  </a>
 </g>
</svg>

<style type='text/css'>
<![CDATA[
[data-mouse-over-selected='false'] { opacity: 0.7; }
[data-mouse-over-selected='true']  { opacity: 1.0; }
]]>
</style>
<script type="application/ecmascript"><![CDATA[
document.addEventListener('DOMContentLoaded', (event) => {
  highlightEdges();
  highlightAdjacentNodes();
});
]]></script>
</svg>
