<?xml version="1.0" encoding="UTF-8" standalone="no"?>
<!DOCTYPE svg PUBLIC "-//W3C//DTD SVG 1.1//EN"
 "http://www.w3.org/Graphics/SVG/1.1/DTD/svg11.dtd">
<!-- Generated by graphviz version 2.43.0 (0)
 -->
<!-- Title: std::is_null_pointer&lt; _Tp &gt; Pages: 1 -->
<svg width="109pt" height="154pt"
 viewBox="0.00 0.00 109.00 154.00" xmlns="http://www.w3.org/2000/svg" xmlns:xlink="http://www.w3.org/1999/xlink">
<g id="graph0" class="graph" transform="scale(1 1) rotate(0) translate(4 150)">
<title>std::is_null_pointer&lt; _Tp &gt;</title>
<!-- Node1 -->
<g id="Node000001" class="node">
<title>Node1</title>
<g id="a_Node000001"><a xlink:title="is_null_pointer (LWG 2247).">
<polygon fill="#999999" stroke="#666666" points="101,-92 0,-92 0,-64 101,-64 101,-92"/>
<text text-anchor="start" x="8" y="-80.8" font-family="Helvetica,sans-Serif" font-size="9.00">std::is_null_pointer</text>
<text text-anchor="middle" x="50.5" y="-70.8" font-family="Helvetica,sans-Serif" font-size="9.00">&lt; _Tp &gt;</text>
</a>
</g>
</g>
<!-- Node3 -->
<g id="Node000003" class="node">
<title>Node3</title>
<g id="a_Node000003"><a xlink:href="a03897.html" target="_top" xlink:title="__is_nullptr_t (deprecated extension).">
<polygon fill="white" stroke="#666666" points="98,-28 3,-28 3,0 98,0 98,-28"/>
<text text-anchor="start" x="11" y="-16.8" font-family="Helvetica,sans-Serif" font-size="9.00">std::__is_nullptr_t</text>
<text text-anchor="middle" x="50.5" y="-6.8" font-family="Helvetica,sans-Serif" font-size="9.00">&lt; _Tp &gt;</text>
</a>
</g>
</g>
<!-- Node1&#45;&gt;Node3 -->
<g id="edge2_Node000001_Node000003" class="edge">
<title>Node1&#45;&gt;Node3</title>
<g id="a_edge2_Node000001_Node000003"><a xlink:title=" ">
<path fill="none" stroke="#63b8ff" d="M50.5,-53.6C50.5,-44.98 50.5,-35.52 50.5,-28.13"/>
<polygon fill="#63b8ff" stroke="#63b8ff" points="47,-53.85 50.5,-63.85 54,-53.85 47,-53.85"/>
</a>
</g>
</g>
<!-- Node2 -->
<g id="Node000002" class="node">
<title>Node2</title>
<g id="a_Node000002"><a xlink:href="a03709.html" target="_top" xlink:title="integral_constant">
<polygon fill="white" stroke="#666666" points="81.5,-146 19.5,-146 19.5,-128 81.5,-128 81.5,-146"/>
<text text-anchor="middle" x="50.5" y="-134.8" font-family="Helvetica,sans-Serif" font-size="9.00">false_type</text>
</a>
</g>
</g>
<!-- Node2&#45;&gt;Node1 -->
<g id="edge1_Node000001_Node000002" class="edge">
<title>Node2&#45;&gt;Node1</title>
<g id="a_edge1_Node000001_Node000002"><a xlink:title=" ">
<path fill="none" stroke="#63b8ff" d="M50.5,-117.49C50.5,-109.28 50.5,-99.81 50.5,-92.31"/>
<polygon fill="#63b8ff" stroke="#63b8ff" points="47,-117.59 50.5,-127.59 54,-117.59 47,-117.59"/>
</a>
</g>
</g>
</g>
</svg>
