<?xml version="1.0" encoding="UTF-8" standalone="no"?>
<!DOCTYPE svg PUBLIC "-//W3C//DTD SVG 1.1//EN"
 "http://www.w3.org/Graphics/SVG/1.1/DTD/svg11.dtd">
<!-- Generated by graphviz version 2.43.0 (0)
 -->
<!-- Title: std::allocator_traits&lt; _Alloc &gt; Pages: 1 -->
<svg width="290pt" height="82pt"
 viewBox="0.00 0.00 290.00 82.00" xmlns="http://www.w3.org/2000/svg" xmlns:xlink="http://www.w3.org/1999/xlink">
<g id="graph0" class="graph" transform="scale(1 1) rotate(0) translate(4 78)">
<title>std::allocator_traits&lt; _Alloc &gt;</title>
<!-- Node1 -->
<g id="Node000001" class="node">
<title>Node1</title>
<g id="a_Node000001"><a xlink:title="Uniform interface to all allocator types.">
<polygon fill="#999999" stroke="#666666" points="103,-51 0,-51 0,-23 103,-23 103,-51"/>
<text text-anchor="start" x="8" y="-39.8" font-family="Helvetica,sans-Serif" font-size="9.00">std::allocator_traits</text>
<text text-anchor="middle" x="51.5" y="-29.8" font-family="Helvetica,sans-Serif" font-size="9.00">&lt; _Alloc &gt;</text>
</a>
</g>
</g>
<!-- Node2 -->
<g id="Node000002" class="node">
<title>Node2</title>
<g id="a_Node000002"><a xlink:href="a11841.html" target="_top" xlink:title=" ">
<polygon fill="white" stroke="#666666" points="276,-74 145,-74 145,-46 276,-46 276,-74"/>
<text text-anchor="start" x="153" y="-62.8" font-family="Helvetica,sans-Serif" font-size="9.00">__gnu_cxx::__alloc</text>
<text text-anchor="middle" x="210.5" y="-52.8" font-family="Helvetica,sans-Serif" font-size="9.00">_traits&lt; _Tp_alloc_type &gt;</text>
</a>
</g>
</g>
<!-- Node1&#45;&gt;Node2 -->
<g id="edge1_Node000001_Node000002" class="edge">
<title>Node1&#45;&gt;Node2</title>
<g id="a_edge1_Node000001_Node000002"><a xlink:title=" ">
<path fill="none" stroke="#63b8ff" d="M112.94,-45.85C123.43,-47.39 134.38,-49 144.98,-50.55"/>
<polygon fill="#63b8ff" stroke="#63b8ff" points="113.44,-42.39 103.04,-44.4 112.43,-49.32 113.44,-42.39"/>
</a>
</g>
</g>
<!-- Node3 -->
<g id="Node000003" class="node">
<title>Node3</title>
<g id="a_Node000003"><a xlink:href="a11841.html" target="_top" xlink:title="Uniform interface to C++98 and C++11 allocators.">
<polygon fill="white" stroke="#666666" points="282,-28 139,-28 139,0 282,0 282,-28"/>
<text text-anchor="start" x="147" y="-16.8" font-family="Helvetica,sans-Serif" font-size="9.00">__gnu_cxx::__alloc</text>
<text text-anchor="middle" x="210.5" y="-6.8" font-family="Helvetica,sans-Serif" font-size="9.00">_traits&lt; _Alloc, typename &gt;</text>
</a>
</g>
</g>
<!-- Node1&#45;&gt;Node3 -->
<g id="edge2_Node000001_Node000003" class="edge">
<title>Node1&#45;&gt;Node3</title>
<g id="a_edge2_Node000001_Node000003"><a xlink:title=" ">
<path fill="none" stroke="#63b8ff" d="M113.11,-28.12C121.51,-26.89 130.19,-25.62 138.75,-24.36"/>
<polygon fill="#63b8ff" stroke="#63b8ff" points="112.43,-24.68 103.04,-29.6 113.44,-31.61 112.43,-24.68"/>
</a>
</g>
</g>
</g>
</svg>
