<?xml version="1.0" encoding="UTF-8" standalone="no"?>
<!DOCTYPE svg PUBLIC "-//W3C//DTD SVG 1.1//EN"
 "http://www.w3.org/Graphics/SVG/1.1/DTD/svg11.dtd">
<!-- Generated by graphviz version 2.43.0 (0)
 -->
<!-- Title: __gnu_cxx::char_traits&lt; _CharT &gt; Pages: 1 -->
<svg width="129pt" height="164pt"
 viewBox="0.00 0.00 129.00 164.00" xmlns="http://www.w3.org/2000/svg" xmlns:xlink="http://www.w3.org/1999/xlink">
<g id="graph0" class="graph" transform="scale(1 1) rotate(0) translate(4 160)">
<title>__gnu_cxx::char_traits&lt; _CharT &gt;</title>
<!-- Node1 -->
<g id="Node000001" class="node">
<title>Node1</title>
<g id="a_Node000001"><a xlink:title="Base class used to implement std::char_traits.">
<polygon fill="#999999" stroke="#666666" points="119.5,-156 1.5,-156 1.5,-128 119.5,-128 119.5,-156"/>
<text text-anchor="start" x="9.5" y="-144.8" font-family="Helvetica,sans-Serif" font-size="9.00">__gnu_cxx::char_traits</text>
<text text-anchor="middle" x="60.5" y="-134.8" font-family="Helvetica,sans-Serif" font-size="9.00">&lt; _CharT &gt;</text>
</a>
</g>
</g>
<!-- Node2 -->
<g id="Node000002" class="node">
<title>Node2</title>
<g id="a_Node000002"><a xlink:href="a05265.html" target="_top" xlink:title="Basis for explicit traits specializations.">
<polygon fill="white" stroke="#666666" points="108,-92 13,-92 13,-64 108,-64 108,-92"/>
<text text-anchor="start" x="21" y="-80.8" font-family="Helvetica,sans-Serif" font-size="9.00">std::char_traits&lt; </text>
<text text-anchor="middle" x="60.5" y="-70.8" font-family="Helvetica,sans-Serif" font-size="9.00">_CharT &gt;</text>
</a>
</g>
</g>
<!-- Node1&#45;&gt;Node2 -->
<g id="edge1_Node000001_Node000002" class="edge">
<title>Node1&#45;&gt;Node2</title>
<g id="a_edge1_Node000001_Node000002"><a xlink:title=" ">
<path fill="none" stroke="#63b8ff" d="M60.5,-117.6C60.5,-108.98 60.5,-99.52 60.5,-92.13"/>
<polygon fill="#63b8ff" stroke="#63b8ff" points="57,-117.85 60.5,-127.85 64,-117.85 57,-117.85"/>
</a>
</g>
</g>
<!-- Node3 -->
<g id="Node000003" class="node">
<title>Node3</title>
<g id="a_Node000003"><a xlink:href="a11921.html" target="_top" xlink:title="encoding_char_traits">
<polygon fill="white" stroke="#666666" points="121,-28 0,-28 0,0 121,0 121,-28"/>
<text text-anchor="start" x="8" y="-16.8" font-family="Helvetica,sans-Serif" font-size="9.00">__gnu_cxx::encoding</text>
<text text-anchor="middle" x="60.5" y="-6.8" font-family="Helvetica,sans-Serif" font-size="9.00">_char_traits&lt; _CharT &gt;</text>
</a>
</g>
</g>
<!-- Node2&#45;&gt;Node3 -->
<g id="edge2_Node000002_Node000003" class="edge">
<title>Node2&#45;&gt;Node3</title>
<g id="a_edge2_Node000002_Node000003"><a xlink:title=" ">
<path fill="none" stroke="#63b8ff" d="M60.5,-53.6C60.5,-44.98 60.5,-35.52 60.5,-28.13"/>
<polygon fill="#63b8ff" stroke="#63b8ff" points="57,-53.85 60.5,-63.85 64,-53.85 57,-53.85"/>
</a>
</g>
</g>
</g>
</svg>
