<?xml version="1.0" encoding="UTF-8" standalone="no"?>
<!DOCTYPE svg PUBLIC "-//W3C//DTD SVG 1.1//EN"
 "http://www.w3.org/Graphics/SVG/1.1/DTD/svg11.dtd">
<!-- Generated by graphviz version 2.43.0 (0)
 -->
<!-- Title: std::codecvt&lt; _InternT, _ExternT, _StateT &gt; Pages: 1 -->
<svg width="216pt" height="238pt"
 viewBox="0.00 0.00 215.50 238.00" xmlns="http://www.w3.org/2000/svg" xmlns:xlink="http://www.w3.org/1999/xlink">
<g id="graph0" class="graph" transform="scale(1 1) rotate(0) translate(4 234)">
<title>std::codecvt&lt; _InternT, _ExternT, _StateT &gt;</title>
<!-- Node1 -->
<g id="Node000001" class="node">
<title>Node1</title>
<g id="a_Node000001"><a xlink:title="Primary class template codecvt.">
<polygon fill="#999999" stroke="#666666" points="163.5,-102 39.5,-102 39.5,-74 163.5,-74 163.5,-102"/>
<text text-anchor="start" x="47.5" y="-90.8" font-family="Helvetica,sans-Serif" font-size="9.00">std::codecvt&lt; _InternT,</text>
<text text-anchor="middle" x="101.5" y="-80.8" font-family="Helvetica,sans-Serif" font-size="9.00"> _ExternT, _StateT &gt;</text>
</a>
</g>
</g>
<!-- Node5 -->
<g id="Node000005" class="node">
<title>Node5</title>
<g id="a_Node000005"><a xlink:href="a05493.html" target="_top" xlink:title="class codecvt_byname [22.2.1.6].">
<polygon fill="white" stroke="#666666" points="158.5,-38 44.5,-38 44.5,0 158.5,0 158.5,-38"/>
<text text-anchor="start" x="52.5" y="-26.8" font-family="Helvetica,sans-Serif" font-size="9.00">std::codecvt_byname</text>
<text text-anchor="start" x="52.5" y="-16.8" font-family="Helvetica,sans-Serif" font-size="9.00">&lt; _InternT, _ExternT,</text>
<text text-anchor="middle" x="101.5" y="-6.8" font-family="Helvetica,sans-Serif" font-size="9.00"> _StateT &gt;</text>
</a>
</g>
</g>
<!-- Node1&#45;&gt;Node5 -->
<g id="edge4_Node000001_Node000005" class="edge">
<title>Node1&#45;&gt;Node5</title>
<g id="a_edge4_Node000001_Node000005"><a xlink:title=" ">
<path fill="none" stroke="#63b8ff" d="M101.5,-63.5C101.5,-55.14 101.5,-45.86 101.5,-38.03"/>
<polygon fill="#63b8ff" stroke="#63b8ff" points="98,-63.76 101.5,-73.76 105,-63.76 98,-63.76"/>
</a>
</g>
</g>
<!-- Node2 -->
<g id="Node000002" class="node">
<title>Node2</title>
<g id="a_Node000002"><a xlink:href="a05469.html" target="_top" xlink:title="Common base for codecvt functions.">
<polygon fill="white" stroke="#666666" points="171,-176 32,-176 32,-138 171,-138 171,-176"/>
<text text-anchor="start" x="40" y="-164.8" font-family="Helvetica,sans-Serif" font-size="9.00">std::__codecvt_abstract</text>
<text text-anchor="start" x="40" y="-154.8" font-family="Helvetica,sans-Serif" font-size="9.00">_base&lt; _InternT, _ExternT,</text>
<text text-anchor="middle" x="101.5" y="-144.8" font-family="Helvetica,sans-Serif" font-size="9.00"> _StateT &gt;</text>
</a>
</g>
</g>
<!-- Node2&#45;&gt;Node1 -->
<g id="edge1_Node000001_Node000002" class="edge">
<title>Node2&#45;&gt;Node1</title>
<g id="a_edge1_Node000001_Node000002"><a xlink:title=" ">
<path fill="none" stroke="#63b8ff" d="M101.5,-127.46C101.5,-118.76 101.5,-109.6 101.5,-102.4"/>
<polygon fill="#63b8ff" stroke="#63b8ff" points="98,-127.69 101.5,-137.69 105,-127.69 98,-127.69"/>
</a>
</g>
</g>
<!-- Node3 -->
<g id="Node000003" class="node">
<title>Node3</title>
<g id="a_Node000003"><a xlink:href="a06141.html" target="_top" xlink:title="Localization functionality base class.">
<polygon fill="white" stroke="#666666" points="91,-230 0,-230 0,-212 91,-212 91,-230"/>
<text text-anchor="middle" x="45.5" y="-218.8" font-family="Helvetica,sans-Serif" font-size="9.00">std::locale::facet</text>
</a>
</g>
</g>
<!-- Node3&#45;&gt;Node2 -->
<g id="edge2_Node000002_Node000003" class="edge">
<title>Node3&#45;&gt;Node2</title>
<g id="a_edge2_Node000002_Node000003"><a xlink:title=" ">
<path fill="none" stroke="#63b8ff" d="M59.59,-204.4C67.38,-195.77 77.1,-185.01 85.22,-176.02"/>
<polygon fill="#63b8ff" stroke="#63b8ff" points="56.93,-202.13 52.82,-211.89 62.12,-206.82 56.93,-202.13"/>
</a>
</g>
</g>
<!-- Node4 -->
<g id="Node000004" class="node">
<title>Node4</title>
<g id="a_Node000004"><a xlink:href="a05465.html" target="_top" xlink:title="Empty base class for codecvt facet [22.2.1.5].">
<polygon fill="white" stroke="#666666" points="207.5,-230 109.5,-230 109.5,-212 207.5,-212 207.5,-230"/>
<text text-anchor="middle" x="158.5" y="-218.8" font-family="Helvetica,sans-Serif" font-size="9.00">std::codecvt_base</text>
</a>
</g>
</g>
<!-- Node4&#45;&gt;Node2 -->
<g id="edge3_Node000002_Node000004" class="edge">
<title>Node4&#45;&gt;Node2</title>
<g id="a_edge3_Node000002_Node000004"><a xlink:title=" ">
<path fill="none" stroke="#63b8ff" d="M144.16,-204.4C136.23,-195.77 126.33,-185.01 118.07,-176.02"/>
<polygon fill="#63b8ff" stroke="#63b8ff" points="141.7,-206.9 151.05,-211.89 146.86,-202.16 141.7,-206.9"/>
</a>
</g>
</g>
</g>
</svg>
