<?xml version="1.0" encoding="UTF-8" standalone="no"?>
<!DOCTYPE svg PUBLIC "-//W3C//DTD SVG 1.1//EN"
 "http://www.w3.org/Graphics/SVG/1.1/DTD/svg11.dtd">
<!-- Generated by graphviz version 2.43.0 (0)
 -->
<!-- Title: std::codecvt&lt; char, char, mbstate_t &gt; Pages: 1 -->
<svg width="216pt" height="154pt"
 viewBox="0.00 0.00 215.50 154.00" xmlns="http://www.w3.org/2000/svg" xmlns:xlink="http://www.w3.org/1999/xlink">
<g id="graph0" class="graph" transform="scale(1 1) rotate(0) translate(4 150)">
<title>std::codecvt&lt; char, char, mbstate_t &gt;</title>
<!-- Node1 -->
<g id="Node000001" class="node">
<title>Node1</title>
<g id="a_Node000001"><a xlink:title="class codecvt&lt;char, char, mbstate_t&gt; specialization.">
<polygon fill="#999999" stroke="#666666" points="155,-28 48,-28 48,0 155,0 155,-28"/>
<text text-anchor="start" x="56" y="-16.8" font-family="Helvetica,sans-Serif" font-size="9.00">std::codecvt&lt; char,</text>
<text text-anchor="middle" x="101.5" y="-6.8" font-family="Helvetica,sans-Serif" font-size="9.00"> char, mbstate_t &gt;</text>
</a>
</g>
</g>
<!-- Node2 -->
<g id="Node000002" class="node">
<title>Node2</title>
<g id="a_Node000002"><a xlink:href="a05469.html" target="_top" xlink:title=" ">
<polygon fill="white" stroke="#666666" points="182,-92 21,-92 21,-64 182,-64 182,-92"/>
<text text-anchor="start" x="29" y="-80.8" font-family="Helvetica,sans-Serif" font-size="9.00">std::__codecvt_abstract</text>
<text text-anchor="middle" x="101.5" y="-70.8" font-family="Helvetica,sans-Serif" font-size="9.00">_base&lt; char, char, mbstate_t &gt;</text>
</a>
</g>
</g>
<!-- Node2&#45;&gt;Node1 -->
<g id="edge1_Node000001_Node000002" class="edge">
<title>Node2&#45;&gt;Node1</title>
<g id="a_edge1_Node000001_Node000002"><a xlink:title=" ">
<path fill="none" stroke="#63b8ff" d="M101.5,-53.6C101.5,-44.98 101.5,-35.52 101.5,-28.13"/>
<polygon fill="#63b8ff" stroke="#63b8ff" points="98,-53.85 101.5,-63.85 105,-53.85 98,-53.85"/>
</a>
</g>
</g>
<!-- Node3 -->
<g id="Node000003" class="node">
<title>Node3</title>
<g id="a_Node000003"><a xlink:href="a06141.html" target="_top" xlink:title="Localization functionality base class.">
<polygon fill="white" stroke="#666666" points="91,-146 0,-146 0,-128 91,-128 91,-146"/>
<text text-anchor="middle" x="45.5" y="-134.8" font-family="Helvetica,sans-Serif" font-size="9.00">std::locale::facet</text>
</a>
</g>
</g>
<!-- Node3&#45;&gt;Node2 -->
<g id="edge2_Node000002_Node000003" class="edge">
<title>Node3&#45;&gt;Node2</title>
<g id="a_edge2_Node000002_Node000003"><a xlink:title=" ">
<path fill="none" stroke="#63b8ff" d="M60.99,-120.23C69.61,-111.46 80.22,-100.66 88.42,-92.31"/>
<polygon fill="#63b8ff" stroke="#63b8ff" points="58.27,-118 53.76,-127.59 63.27,-122.91 58.27,-118"/>
</a>
</g>
</g>
<!-- Node4 -->
<g id="Node000004" class="node">
<title>Node4</title>
<g id="a_Node000004"><a xlink:href="a05465.html" target="_top" xlink:title="Empty base class for codecvt facet [22.2.1.5].">
<polygon fill="white" stroke="#666666" points="207.5,-146 109.5,-146 109.5,-128 207.5,-128 207.5,-146"/>
<text text-anchor="middle" x="158.5" y="-134.8" font-family="Helvetica,sans-Serif" font-size="9.00">std::codecvt_base</text>
</a>
</g>
</g>
<!-- Node4&#45;&gt;Node2 -->
<g id="edge3_Node000002_Node000004" class="edge">
<title>Node4&#45;&gt;Node2</title>
<g id="a_edge3_Node000002_Node000004"><a xlink:title=" ">
<path fill="none" stroke="#63b8ff" d="M143,-120.5C134.18,-111.68 123.24,-100.74 114.81,-92.31"/>
<polygon fill="#63b8ff" stroke="#63b8ff" points="140.54,-122.99 150.09,-127.59 145.49,-118.04 140.54,-122.99"/>
</a>
</g>
</g>
</g>
</svg>
