<?xml version="1.0" encoding="UTF-8" standalone="no"?>
<!DOCTYPE svg PUBLIC "-//W3C//DTD SVG 1.1//EN"
 "http://www.w3.org/Graphics/SVG/1.1/DTD/svg11.dtd">
<!-- Generated by graphviz version 2.43.0 (0)
 -->
<!-- Title: std::exception Pages: 1 -->
<!--zoomable 609 -->

<svg id="main" version="1.1" xmlns="http://www.w3.org/2000/svg" xmlns:xlink="http://www.w3.org/1999/xlink" xml:space="preserve" onload="init(evt)">
<style type="text/css"><![CDATA[
.node, .edge {opacity: 0.7;}
.node.selected, .edge.selected {opacity: 1;}
.edge:hover path { stroke: red; }
.edge:hover polygon { stroke: red; fill: red; }
]]></style>

<defs>
  <circle id="rim" cx="0" cy="0" r="7"/>
  <circle id="rim2" cx="0" cy="0" r="3.5"/>
  <g id="zoomPlus">
    <use xlink:href="#rim" fill="#404040"><set attributeName="fill" to="#808080" begin="zoomplus.mouseover" end="zoomplus.mouseout"/></use>
    <path d="M-4,0h8M0,-4v8" fill="none" stroke="white" stroke-width="1.5" pointer-events="none"/>
  </g>
  <g id="zoomMin">
    <use xlink:href="#rim" fill="#404040"><set attributeName="fill" to="#808080" begin="zoomminus.mouseover" end="zoomminus.mouseout"/></use>
    <path d="M-4,0h8" fill="none" stroke="white" stroke-width="1.5" pointer-events="none"/>
  </g>
  <g id="arrowUp" transform="translate(30 24)">
    <use xlink:href="#rim"/>
    <path pointer-events="none" fill="none" stroke="white" stroke-width="1.5" d="M0,-3.0v7 M-2.5,-0.5L0,-3.0L2.5,-0.5"/>
  </g>
  <g id="arrowRight" transform="rotate(90) translate(36 -43)">
    <use xlink:href="#rim"/>
    <path pointer-events="none" fill="none" stroke="white" stroke-width="1.5" d="M0,-3.0v7 M-2.5,-0.5L0,-3.0L2.5,-0.5"/>
  </g>
  <g id="arrowDown" transform="rotate(180) translate(-30 -48)">
    <use xlink:href="#rim"/>
    <path pointer-events="none" fill="none" stroke="white" stroke-width="1.5" d="M0,-3.0v7 M-2.5,-0.5L0,-3.0L2.5,-0.5"/>
  </g>
  <g id="arrowLeft" transform="rotate(270) translate(-36 17)">
    <use xlink:href="#rim"/>
    <path pointer-events="none" fill="none" stroke="white" stroke-width="1.5" d="M0,-3.0v7 M-2.5,-0.5L0,-3.0L2.5,-0.5"/>
  </g>
  <g id="resetDef">
    <use xlink:href="#rim2" fill="#404040"><set attributeName="fill" to="#808080" begin="reset.mouseover" end="reset.mouseout"/></use>
  </g>
</defs>
<script type="application/ecmascript">
var viewWidth = 603;
var viewHeight = 609;
var sectionId = 'dynsection-0';
</script>
<script type="application/ecmascript" xlink:href="svg.min.js"/>
<svg id="graph" class="graph">
<g id="viewport">
<title>std::exception</title>
<!-- Node1 -->
<g id="Node000001" class="node">
<title>Node1</title>
<g id="a_Node000001"><a xlink:title="Base class for all library exceptions.">
<polygon fill="#999999" stroke="#666666" points="81,-421 0,-421 0,-403 81,-403 81,-421"/>
<text text-anchor="middle" x="40.5" y="-409.8" font-family="Helvetica,sans-Serif" font-size="9.00">std::exception</text>
</a>
</g>
</g>
<!-- Node2 -->
<g id="Node000002" class="node">
<title>Node2</title>
<g id="a_Node000002"><a xlink:href="a12277.html" target="_top" xlink:title="Thrown by utilities for testing exception safety.">
<polygon fill="white" stroke="#666666" points="244,-601 119,-601 119,-583 244,-583 244,-601"/>
<text text-anchor="middle" x="181.5" y="-589.8" font-family="Helvetica,sans-Serif" font-size="9.00">__gnu_cxx::forced_error</text>
</a>
</g>
</g>
<!-- Node1&#45;&gt;Node2 -->
<g id="edge1_Node000001_Node000002" class="edge">
<title>Node1&#45;&gt;Node2</title>
<g id="a_edge1_Node000001_Node000002"><a xlink:title=" ">
<path fill="none" stroke="#63b8ff" d="M45.07,-431.36C52.36,-465.37 72.22,-535.86 117,-574 121.27,-577.64 126.24,-580.55 131.47,-582.87"/>
<polygon fill="#63b8ff" stroke="#63b8ff" points="48.45,-430.44 43.06,-421.32 41.59,-431.81 48.45,-430.44"/>
</a>
</g>
</g>
<!-- Node3 -->
<g id="Node000003" class="node">
<title>Node3</title>
<g id="a_Node000003"><a xlink:href="a01889.html" target="_top" xlink:title="Exception possibly thrown by new.">
<polygon fill="white" stroke="#666666" points="221,-565 142,-565 142,-547 221,-547 221,-565"/>
<text text-anchor="middle" x="181.5" y="-553.8" font-family="Helvetica,sans-Serif" font-size="9.00">std::bad_alloc</text>
</a>
</g>
</g>
<!-- Node1&#45;&gt;Node3 -->
<g id="edge2_Node000001_Node000003" class="edge">
<title>Node1&#45;&gt;Node3</title>
<g id="a_edge2_Node000001_Node000003"><a xlink:title=" ">
<path fill="none" stroke="#63b8ff" d="M47.71,-430.89C57.79,-458.58 80.36,-509.94 117,-538 124.19,-543.5 132.98,-547.33 141.72,-549.98"/>
<polygon fill="#63b8ff" stroke="#63b8ff" points="50.94,-429.52 44.35,-421.22 44.33,-431.82 50.94,-429.52"/>
</a>
</g>
</g>
<!-- Node4 -->
<g id="Node000004" class="node">
<title>Node4</title>
<g id="a_Node000004"><a xlink:href="a01909.html" target="_top" xlink:title="Thrown during incorrect typecasting.">
<polygon fill="white" stroke="#666666" points="220,-529 143,-529 143,-511 220,-511 220,-529"/>
<text text-anchor="middle" x="181.5" y="-517.8" font-family="Helvetica,sans-Serif" font-size="9.00">std::bad_cast</text>
</a>
</g>
</g>
<!-- Node1&#45;&gt;Node4 -->
<g id="edge3_Node000001_Node000004" class="edge">
<title>Node1&#45;&gt;Node4</title>
<g id="a_edge3_Node000001_Node000004"><a xlink:title=" ">
<path fill="none" stroke="#63b8ff" d="M51.86,-429.87C64.62,-450.31 88.18,-483.34 117,-502 124.79,-507.04 134.01,-510.7 142.97,-513.34"/>
<polygon fill="#63b8ff" stroke="#63b8ff" points="54.8,-427.96 46.63,-421.21 48.8,-431.58 54.8,-427.96"/>
</a>
</g>
</g>
<!-- Node7 -->
<g id="Node000007" class="node">
<title>Node7</title>
<g id="a_Node000007"><a xlink:href="a01881.html" target="_top" xlink:title=" ">
<polygon fill="white" stroke="#666666" points="233,-493 130,-493 130,-475 233,-475 233,-493"/>
<text text-anchor="middle" x="181.5" y="-481.8" font-family="Helvetica,sans-Serif" font-size="9.00">std::bad_exception</text>
</a>
</g>
</g>
<!-- Node1&#45;&gt;Node7 -->
<g id="edge6_Node000001_Node000007" class="edge">
<title>Node1&#45;&gt;Node7</title>
<g id="a_edge6_Node000001_Node000007"><a xlink:title=" ">
<path fill="none" stroke="#63b8ff" d="M59.76,-427.83C74.39,-439.79 95.88,-455.84 117,-466 124.33,-469.53 132.48,-472.48 140.43,-474.91"/>
<polygon fill="#63b8ff" stroke="#63b8ff" points="61.91,-425.06 52,-421.33 57.42,-430.43 61.91,-425.06"/>
</a>
</g>
</g>
<!-- Node8 -->
<g id="Node000008" class="node">
<title>Node8</title>
<g id="a_Node000008"><a xlink:href="a07765.html" target="_top" xlink:title="Exception class thrown when class template function&#39;s operator() is called with an empty target.">
<polygon fill="white" stroke="#666666" points="239.5,-457 123.5,-457 123.5,-439 239.5,-439 239.5,-457"/>
<text text-anchor="middle" x="181.5" y="-445.8" font-family="Helvetica,sans-Serif" font-size="9.00">std::bad_function_call</text>
</a>
</g>
</g>
<!-- Node1&#45;&gt;Node8 -->
<g id="edge7_Node000001_Node000008" class="edge">
<title>Node1&#45;&gt;Node8</title>
<g id="a_edge7_Node000001_Node000008"><a xlink:title=" ">
<path fill="none" stroke="#63b8ff" d="M86.3,-423.6C105.45,-428.56 127.49,-434.27 145.44,-438.92"/>
<polygon fill="#63b8ff" stroke="#63b8ff" points="87.13,-420.2 76.58,-421.08 85.38,-426.98 87.13,-420.2"/>
</a>
</g>
</g>
<!-- Node9 -->
<g id="Node000009" class="node">
<title>Node9</title>
<g id="a_Node000009"><a xlink:href="a02965.html" target="_top" xlink:title="Exception class thrown when a disengaged optional object is dereferenced.">
<polygon fill="white" stroke="#666666" points="246,-421 117,-421 117,-403 246,-403 246,-421"/>
<text text-anchor="middle" x="181.5" y="-409.8" font-family="Helvetica,sans-Serif" font-size="9.00">std::bad_optional_access</text>
</a>
</g>
</g>
<!-- Node1&#45;&gt;Node9 -->
<g id="edge8_Node000001_Node000009" class="edge">
<title>Node1&#45;&gt;Node9</title>
<g id="a_edge8_Node000001_Node000009"><a xlink:title=" ">
<path fill="none" stroke="#63b8ff" d="M91.48,-412C99.69,-412 108.29,-412 116.78,-412"/>
<polygon fill="#63b8ff" stroke="#63b8ff" points="91.33,-408.5 81.33,-412 91.33,-415.5 91.33,-408.5"/>
</a>
</g>
</g>
<!-- Node10 -->
<g id="Node000010" class="node">
<title>Node10</title>
<g id="a_Node000010"><a xlink:href="a01913.html" target="_top" xlink:title="Thrown when a NULL pointer in a typeid expression is used.">
<polygon fill="white" stroke="#666666" points="225,-385 138,-385 138,-367 225,-367 225,-385"/>
<text text-anchor="middle" x="181.5" y="-373.8" font-family="Helvetica,sans-Serif" font-size="9.00">std::bad_typeid</text>
</a>
</g>
</g>
<!-- Node1&#45;&gt;Node10 -->
<g id="edge9_Node000001_Node000010" class="edge">
<title>Node1&#45;&gt;Node10</title>
<g id="a_edge9_Node000001_Node000010"><a xlink:title=" ">
<path fill="none" stroke="#63b8ff" d="M86.3,-400.4C105.45,-395.44 127.49,-389.73 145.44,-385.08"/>
<polygon fill="#63b8ff" stroke="#63b8ff" points="85.38,-397.02 76.58,-402.92 87.13,-403.8 85.38,-397.02"/>
</a>
</g>
</g>
<!-- Node11 -->
<g id="Node000011" class="node">
<title>Node11</title>
<g id="a_Node000011"><a xlink:href="a07557.html" target="_top" xlink:title="Exception possibly thrown by shared_ptr.">
<polygon fill="white" stroke="#666666" points="231.5,-349 131.5,-349 131.5,-331 231.5,-331 231.5,-349"/>
<text text-anchor="middle" x="181.5" y="-337.8" font-family="Helvetica,sans-Serif" font-size="9.00">std::bad_weak_ptr</text>
</a>
</g>
</g>
<!-- Node1&#45;&gt;Node11 -->
<g id="edge10_Node000001_Node000011" class="edge">
<title>Node1&#45;&gt;Node11</title>
<g id="a_edge10_Node000001_Node000011"><a xlink:title=" ">
<path fill="none" stroke="#63b8ff" d="M59.76,-396.17C74.39,-384.21 95.88,-368.16 117,-358 124.33,-354.47 132.48,-351.52 140.43,-349.09"/>
<polygon fill="#63b8ff" stroke="#63b8ff" points="57.42,-393.57 52,-402.67 61.91,-398.94 57.42,-393.57"/>
</a>
</g>
</g>
<!-- Node12 -->
<g id="Node000012" class="node">
<title>Node12</title>
<g id="a_Node000012"><a xlink:href="a05977.html" target="_top" xlink:title="These are thrown to indicate problems with io.">
<polygon fill="white" stroke="#666666" points="235.5,-313 127.5,-313 127.5,-295 235.5,-295 235.5,-313"/>
<text text-anchor="middle" x="181.5" y="-301.8" font-family="Helvetica,sans-Serif" font-size="9.00">std::ios_base::failure</text>
</a>
</g>
</g>
<!-- Node1&#45;&gt;Node12 -->
<g id="edge11_Node000001_Node000012" class="edge">
<title>Node1&#45;&gt;Node12</title>
<g id="a_edge11_Node000001_Node000012"><a xlink:title=" ">
<path fill="none" stroke="#63b8ff" d="M51.86,-394.13C64.62,-373.69 88.18,-340.66 117,-322 122.68,-318.33 129.11,-315.39 135.65,-313.05"/>
<polygon fill="#63b8ff" stroke="#63b8ff" points="48.8,-392.42 46.63,-402.79 54.8,-396.04 48.8,-392.42"/>
</a>
</g>
</g>
<!-- Node13 -->
<g id="Node000013" class="node">
<title>Node13</title>
<g id="a_Node000013"><a xlink:href="a03461.html" target="_top" xlink:title="One of two subclasses of exception.">
<polygon fill="white" stroke="#666666" points="223.5,-277 139.5,-277 139.5,-259 223.5,-259 223.5,-277"/>
<text text-anchor="middle" x="181.5" y="-265.8" font-family="Helvetica,sans-Serif" font-size="9.00">std::logic_error</text>
</a>
</g>
</g>
<!-- Node1&#45;&gt;Node13 -->
<g id="edge12_Node000001_Node000013" class="edge">
<title>Node1&#45;&gt;Node13</title>
<g id="a_edge12_Node000001_Node000013"><a xlink:title=" ">
<path fill="none" stroke="#63b8ff" d="M47.71,-393.11C57.79,-365.42 80.36,-314.06 117,-286 123.55,-280.98 131.44,-277.36 139.39,-274.75"/>
<polygon fill="#63b8ff" stroke="#63b8ff" points="44.33,-392.18 44.35,-402.78 50.94,-394.48 44.33,-392.18"/>
</a>
</g>
</g>
<!-- Node24 -->
<g id="Node000024" class="node">
<title>Node24</title>
<g id="a_Node000024"><a xlink:href="a03481.html" target="_top" xlink:title="One of two subclasses of exception.">
<polygon fill="white" stroke="#666666" points="231,-108 132,-108 132,-90 231,-90 231,-108"/>
<text text-anchor="middle" x="181.5" y="-96.8" font-family="Helvetica,sans-Serif" font-size="9.00">std::runtime_error</text>
</a>
</g>
</g>
<!-- Node1&#45;&gt;Node24 -->
<g id="edge23_Node000001_Node000024" class="edge">
<title>Node1&#45;&gt;Node24</title>
<g id="a_edge23_Node000001_Node000024"><a xlink:title=" ">
<path fill="none" stroke="#63b8ff" d="M49.6,-393.77C75.75,-334.88 157.37,-151.08 176.47,-108.07"/>
<polygon fill="#63b8ff" stroke="#63b8ff" points="46.37,-392.41 45.51,-402.97 52.77,-395.25 46.37,-392.41"/>
</a>
</g>
</g>
<!-- Node5 -->
<g id="Node000005" class="node">
<title>Node5</title>
<g id="a_Node000005"><a xlink:href="a01917.html" target="_top" xlink:title="Exception class thrown by a failed any_cast.">
<polygon fill="white" stroke="#666666" points="390.5,-555 292.5,-555 292.5,-537 390.5,-537 390.5,-555"/>
<text text-anchor="middle" x="341.5" y="-543.8" font-family="Helvetica,sans-Serif" font-size="9.00">std::bad_any_cast</text>
</a>
</g>
</g>
<!-- Node4&#45;&gt;Node5 -->
<g id="edge4_Node000004_Node000005" class="edge">
<title>Node4&#45;&gt;Node5</title>
<g id="a_edge4_Node000004_Node000005"><a xlink:title=" ">
<path fill="none" stroke="#63b8ff" d="M230.33,-527.87C250.01,-531.11 272.77,-534.85 292.47,-538.1"/>
<polygon fill="#63b8ff" stroke="#63b8ff" points="230.78,-524.4 220.34,-526.23 229.64,-531.31 230.78,-524.4"/>
</a>
</g>
</g>
<!-- Node6 -->
<g id="Node000006" class="node">
<title>Node6</title>
<g id="a_Node000006"><a xlink:href="a11593.html" target="_top" xlink:title="Exception class thrown by a failed any_cast.">
<polygon fill="white" stroke="#666666" points="400.5,-519 282.5,-519 282.5,-481 400.5,-481 400.5,-519"/>
<text text-anchor="start" x="290.5" y="-507.8" font-family="Helvetica,sans-Serif" font-size="9.00">std::experimental::</text>
<text text-anchor="start" x="290.5" y="-497.8" font-family="Helvetica,sans-Serif" font-size="9.00">fundamentals_v1::bad</text>
<text text-anchor="middle" x="341.5" y="-487.8" font-family="Helvetica,sans-Serif" font-size="9.00">_any_cast</text>
</a>
</g>
</g>
<!-- Node4&#45;&gt;Node6 -->
<g id="edge5_Node000004_Node000006" class="edge">
<title>Node4&#45;&gt;Node6</title>
<g id="a_edge5_Node000004_Node000006"><a xlink:title=" ">
<path fill="none" stroke="#63b8ff" d="M230.71,-513.9C246.98,-511.84 265.32,-509.52 282.28,-507.37"/>
<polygon fill="#63b8ff" stroke="#63b8ff" points="229.83,-510.48 220.34,-515.21 230.71,-517.43 229.83,-510.48"/>
</a>
</g>
</g>
<!-- Node14 -->
<g id="Node000014" class="node">
<title>Node14</title>
<g id="a_Node000014"><a xlink:href="a12729.html" target="_top" xlink:title="Base class for exceptions.">
<polygon fill="white" stroke="#666666" points="401,-444 282,-444 282,-416 401,-416 401,-444"/>
<text text-anchor="start" x="290" y="-432.8" font-family="Helvetica,sans-Serif" font-size="9.00">__gnu_pbds::container</text>
<text text-anchor="middle" x="341.5" y="-422.8" font-family="Helvetica,sans-Serif" font-size="9.00">_error</text>
</a>
</g>
</g>
<!-- Node13&#45;&gt;Node14 -->
<g id="edge13_Node000013_Node000014" class="edge">
<title>Node13&#45;&gt;Node14</title>
<g id="a_edge13_Node000013_Node000014"><a xlink:title=" ">
<path fill="none" stroke="#63b8ff" d="M233.11,-277.04C237.85,-279.38 242.27,-282.32 246,-286 285.93,-325.42 244.06,-365.67 282,-407 285.17,-410.46 288.93,-413.4 292.99,-415.91"/>
<polygon fill="#63b8ff" stroke="#63b8ff" points="234.25,-273.72 223.67,-273.22 231.63,-280.21 234.25,-273.72"/>
</a>
</g>
</g>
<!-- Node18 -->
<g id="Node000018" class="node">
<title>Node18</title>
<g id="a_Node000018"><a xlink:href="a03465.html" target="_top" xlink:title=" ">
<polygon fill="white" stroke="#666666" points="390,-398 293,-398 293,-380 390,-380 390,-398"/>
<text text-anchor="middle" x="341.5" y="-386.8" font-family="Helvetica,sans-Serif" font-size="9.00">std::domain_error</text>
</a>
</g>
</g>
<!-- Node13&#45;&gt;Node18 -->
<g id="edge17_Node000013_Node000018" class="edge">
<title>Node13&#45;&gt;Node18</title>
<g id="a_edge17_Node000013_Node000018"><a xlink:title=" ">
<path fill="none" stroke="#63b8ff" d="M232.9,-277.56C237.65,-279.81 242.13,-282.58 246,-286 276.76,-313.15 251.55,-343.51 282,-371 286.1,-374.7 290.95,-377.64 296.07,-379.98"/>
<polygon fill="#63b8ff" stroke="#63b8ff" points="234.1,-274.27 223.51,-273.85 231.52,-280.78 234.1,-274.27"/>
</a>
</g>
</g>
<!-- Node19 -->
<g id="Node000019" class="node">
<title>Node19</title>
<g id="a_Node000019"><a xlink:href="a11701.html" target="_top" xlink:title="Exception class thrown when a disengaged optional object is dereferenced.">
<polygon fill="white" stroke="#666666" points="400.5,-362 282.5,-362 282.5,-324 400.5,-324 400.5,-362"/>
<text text-anchor="start" x="290.5" y="-350.8" font-family="Helvetica,sans-Serif" font-size="9.00">std::experimental::</text>
<text text-anchor="start" x="290.5" y="-340.8" font-family="Helvetica,sans-Serif" font-size="9.00">fundamentals_v1::bad</text>
<text text-anchor="middle" x="341.5" y="-330.8" font-family="Helvetica,sans-Serif" font-size="9.00">_optional_access</text>
</a>
</g>
</g>
<!-- Node13&#45;&gt;Node19 -->
<g id="edge18_Node000013_Node000019" class="edge">
<title>Node13&#45;&gt;Node19</title>
<g id="a_edge18_Node000013_Node000019"><a xlink:title=" ">
<path fill="none" stroke="#63b8ff" d="M233.37,-280.41C237.73,-282.07 242,-283.93 246,-286 264.25,-295.44 264.62,-304.05 282,-315 286.95,-318.12 292.31,-321.13 297.7,-323.94"/>
<polygon fill="#63b8ff" stroke="#63b8ff" points="234.34,-277.04 223.74,-277.07 232.04,-283.66 234.34,-277.04"/>
</a>
</g>
</g>
<!-- Node20 -->
<g id="Node000020" class="node">
<title>Node20</title>
<g id="a_Node000020"><a xlink:href="a02657.html" target="_top" xlink:title="Exception type thrown by futures.">
<polygon fill="white" stroke="#666666" points="387,-306 296,-306 296,-288 387,-288 387,-306"/>
<text text-anchor="middle" x="341.5" y="-294.8" font-family="Helvetica,sans-Serif" font-size="9.00">std::future_error</text>
</a>
</g>
</g>
<!-- Node13&#45;&gt;Node20 -->
<g id="edge19_Node000013_Node000020" class="edge">
<title>Node13&#45;&gt;Node20</title>
<g id="a_edge19_Node000013_Node000020"><a xlink:title=" ">
<path fill="none" stroke="#63b8ff" d="M233.49,-277.36C253.53,-281.04 276.33,-285.22 295.72,-288.78"/>
<polygon fill="#63b8ff" stroke="#63b8ff" points="234.07,-273.91 223.6,-275.54 232.8,-280.79 234.07,-273.91"/>
</a>
</g>
</g>
<!-- Node21 -->
<g id="Node000021" class="node">
<title>Node21</title>
<g id="a_Node000021"><a xlink:href="a03469.html" target="_top" xlink:title=" ">
<polygon fill="white" stroke="#666666" points="399.5,-270 283.5,-270 283.5,-252 399.5,-252 399.5,-270"/>
<text text-anchor="middle" x="341.5" y="-258.8" font-family="Helvetica,sans-Serif" font-size="9.00">std::invalid_argument</text>
</a>
</g>
</g>
<!-- Node13&#45;&gt;Node21 -->
<g id="edge20_Node000013_Node000021" class="edge">
<title>Node13&#45;&gt;Node21</title>
<g id="a_edge20_Node000013_Node000021"><a xlink:title=" ">
<path fill="none" stroke="#63b8ff" d="M233.72,-265.73C249.53,-265.03 267.05,-264.25 283.25,-263.54"/>
<polygon fill="#63b8ff" stroke="#63b8ff" points="233.44,-262.24 223.6,-266.18 233.75,-269.23 233.44,-262.24"/>
</a>
</g>
</g>
<!-- Node22 -->
<g id="Node000022" class="node">
<title>Node22</title>
<g id="a_Node000022"><a xlink:href="a03473.html" target="_top" xlink:title=" ">
<polygon fill="white" stroke="#666666" points="387.5,-234 295.5,-234 295.5,-216 387.5,-216 387.5,-234"/>
<text text-anchor="middle" x="341.5" y="-222.8" font-family="Helvetica,sans-Serif" font-size="9.00">std::length_error</text>
</a>
</g>
</g>
<!-- Node13&#45;&gt;Node22 -->
<g id="edge21_Node000013_Node000022" class="edge">
<title>Node13&#45;&gt;Node22</title>
<g id="a_edge21_Node000013_Node000022"><a xlink:title=" ">
<path fill="none" stroke="#63b8ff" d="M225.52,-256.29C251.32,-249.27 283.63,-240.48 307.42,-234"/>
<polygon fill="#63b8ff" stroke="#63b8ff" points="224.35,-252.98 215.62,-258.99 226.19,-259.74 224.35,-252.98"/>
</a>
</g>
</g>
<!-- Node23 -->
<g id="Node000023" class="node">
<title>Node23</title>
<g id="a_Node000023"><a xlink:href="a03477.html" target="_top" xlink:title=" ">
<polygon fill="white" stroke="#666666" points="389,-198 294,-198 294,-180 389,-180 389,-198"/>
<text text-anchor="middle" x="341.5" y="-186.8" font-family="Helvetica,sans-Serif" font-size="9.00">std::out_of_range</text>
</a>
</g>
</g>
<!-- Node13&#45;&gt;Node23 -->
<g id="edge22_Node000013_Node000023" class="edge">
<title>Node13&#45;&gt;Node23</title>
<g id="a_edge22_Node000013_Node000023"><a xlink:title=" ">
<path fill="none" stroke="#63b8ff" d="M203.56,-252.92C223.12,-239.44 253.46,-219.89 282,-207 289.55,-203.59 297.94,-200.58 305.94,-198.06"/>
<polygon fill="#63b8ff" stroke="#63b8ff" points="201.31,-250.22 195.12,-258.82 205.32,-255.96 201.31,-250.22"/>
</a>
</g>
</g>
<!-- Node15 -->
<g id="Node000015" class="node">
<title>Node15</title>
<g id="a_Node000015"><a xlink:href="a12733.html" target="_top" xlink:title="An entry cannot be inserted into a container object for logical reasons (not, e.g....">
<polygon fill="white" stroke="#666666" points="567,-485 465,-485 465,-457 567,-457 567,-485"/>
<text text-anchor="start" x="473" y="-473.8" font-family="Helvetica,sans-Serif" font-size="9.00">__gnu_pbds::insert</text>
<text text-anchor="middle" x="516" y="-463.8" font-family="Helvetica,sans-Serif" font-size="9.00">_error</text>
</a>
</g>
</g>
<!-- Node14&#45;&gt;Node15 -->
<g id="edge14_Node000014_Node000015" class="edge">
<title>Node14&#45;&gt;Node15</title>
<g id="a_edge14_Node000014_Node000015"><a xlink:title=" ">
<path fill="none" stroke="#63b8ff" d="M411.19,-446.33C429.06,-450.57 447.99,-455.07 464.72,-459.05"/>
<polygon fill="#63b8ff" stroke="#63b8ff" points="411.92,-442.9 401.38,-444 410.3,-449.71 411.92,-442.9"/>
</a>
</g>
</g>
<!-- Node16 -->
<g id="Node000016" class="node">
<title>Node16</title>
<g id="a_Node000016"><a xlink:href="a12737.html" target="_top" xlink:title="A join cannot be performed logical reasons (i.e., the ranges of the two container objects being joine...">
<polygon fill="white" stroke="#666666" points="575.5,-439 456.5,-439 456.5,-421 575.5,-421 575.5,-439"/>
<text text-anchor="middle" x="516" y="-427.8" font-family="Helvetica,sans-Serif" font-size="9.00">__gnu_pbds::join_error</text>
</a>
</g>
</g>
<!-- Node14&#45;&gt;Node16 -->
<g id="edge15_Node000014_Node000016" class="edge">
<title>Node14&#45;&gt;Node16</title>
<g id="a_edge15_Node000014_Node000016"><a xlink:title=" ">
<path fill="none" stroke="#63b8ff" d="M411.53,-430C426.39,-430 441.96,-430 456.38,-430"/>
<polygon fill="#63b8ff" stroke="#63b8ff" points="411.38,-426.5 401.38,-430 411.38,-433.5 411.38,-426.5"/>
</a>
</g>
</g>
<!-- Node17 -->
<g id="Node000017" class="node">
<title>Node17</title>
<g id="a_Node000017"><a xlink:href="a12741.html" target="_top" xlink:title="A container cannot be resized.">
<polygon fill="white" stroke="#666666" points="567,-403 465,-403 465,-375 567,-375 567,-403"/>
<text text-anchor="start" x="473" y="-391.8" font-family="Helvetica,sans-Serif" font-size="9.00">__gnu_pbds::resize</text>
<text text-anchor="middle" x="516" y="-381.8" font-family="Helvetica,sans-Serif" font-size="9.00">_error</text>
</a>
</g>
</g>
<!-- Node14&#45;&gt;Node17 -->
<g id="edge16_Node000014_Node000017" class="edge">
<title>Node14&#45;&gt;Node17</title>
<g id="a_edge16_Node000014_Node000017"><a xlink:title=" ">
<path fill="none" stroke="#63b8ff" d="M411.19,-413.67C429.06,-409.43 447.99,-404.93 464.72,-400.95"/>
<polygon fill="#63b8ff" stroke="#63b8ff" points="410.3,-410.29 401.38,-416 411.92,-417.1 410.3,-410.29"/>
</a>
</g>
</g>
<!-- Node25 -->
<g id="Node000025" class="node">
<title>Node25</title>
<g id="a_Node000025"><a xlink:href="a03489.html" target="_top" xlink:title=" ">
<polygon fill="white" stroke="#666666" points="392,-162 291,-162 291,-144 392,-144 392,-162"/>
<text text-anchor="middle" x="341.5" y="-150.8" font-family="Helvetica,sans-Serif" font-size="9.00">std::overflow_error</text>
</a>
</g>
</g>
<!-- Node24&#45;&gt;Node25 -->
<g id="edge24_Node000024_Node000025" class="edge">
<title>Node24&#45;&gt;Node25</title>
<g id="a_edge24_Node000024_Node000025"><a xlink:title=" ">
<path fill="none" stroke="#63b8ff" d="M216.03,-111.59C235.26,-118.7 259.9,-127.61 282,-135 291.07,-138.03 300.99,-141.16 310.05,-143.94"/>
<polygon fill="#63b8ff" stroke="#63b8ff" points="217.11,-108.26 206.51,-108.06 214.67,-114.82 217.11,-108.26"/>
</a>
</g>
</g>
<!-- Node26 -->
<g id="Node000026" class="node">
<title>Node26</title>
<g id="a_Node000026"><a xlink:href="a03485.html" target="_top" xlink:title=" ">
<polygon fill="white" stroke="#666666" points="386,-126 297,-126 297,-108 386,-108 386,-126"/>
<text text-anchor="middle" x="341.5" y="-114.8" font-family="Helvetica,sans-Serif" font-size="9.00">std::range_error</text>
</a>
</g>
</g>
<!-- Node24&#45;&gt;Node26 -->
<g id="edge25_Node000024_Node000026" class="edge">
<title>Node24&#45;&gt;Node26</title>
<g id="a_edge25_Node000024_Node000026"><a xlink:title=" ">
<path fill="none" stroke="#63b8ff" d="M241.23,-105.69C259.64,-107.79 279.62,-110.06 296.79,-112.02"/>
<polygon fill="#63b8ff" stroke="#63b8ff" points="241.53,-102.2 231.19,-104.55 240.73,-109.16 241.53,-102.2"/>
</a>
</g>
</g>
<!-- Node27 -->
<g id="Node000027" class="node">
<title>Node27</title>
<g id="a_Node000027"><a xlink:href="a07461.html" target="_top" xlink:title="A regular expression exception class.">
<polygon fill="white" stroke="#666666" points="386,-90 297,-90 297,-72 386,-72 386,-90"/>
<text text-anchor="middle" x="341.5" y="-78.8" font-family="Helvetica,sans-Serif" font-size="9.00">std::regex_error</text>
</a>
</g>
</g>
<!-- Node24&#45;&gt;Node27 -->
<g id="edge26_Node000024_Node000027" class="edge">
<title>Node24&#45;&gt;Node27</title>
<g id="a_edge26_Node000024_Node000027"><a xlink:title=" ">
<path fill="none" stroke="#63b8ff" d="M241.23,-92.31C259.64,-90.21 279.62,-87.94 296.79,-85.98"/>
<polygon fill="#63b8ff" stroke="#63b8ff" points="240.73,-88.84 231.19,-93.45 241.53,-95.8 240.73,-88.84"/>
</a>
</g>
</g>
<!-- Node28 -->
<g id="Node000028" class="node">
<title>Node28</title>
<g id="a_Node000028"><a xlink:href="a03593.html" target="_top" xlink:title="An exception type that includes an error_code value.">
<polygon fill="white" stroke="#666666" points="389,-54 294,-54 294,-36 389,-36 389,-54"/>
<text text-anchor="middle" x="341.5" y="-42.8" font-family="Helvetica,sans-Serif" font-size="9.00">std::system_error</text>
</a>
</g>
</g>
<!-- Node24&#45;&gt;Node28 -->
<g id="edge27_Node000024_Node000028" class="edge">
<title>Node24&#45;&gt;Node28</title>
<g id="a_edge27_Node000024_Node000028"><a xlink:title=" ">
<path fill="none" stroke="#63b8ff" d="M216.03,-86.41C235.26,-79.3 259.9,-70.39 282,-63 291.07,-59.97 300.99,-56.84 310.05,-54.06"/>
<polygon fill="#63b8ff" stroke="#63b8ff" points="214.67,-83.18 206.51,-89.94 217.11,-89.74 214.67,-83.18"/>
</a>
</g>
</g>
<!-- Node31 -->
<g id="Node000031" class="node">
<title>Node31</title>
<g id="a_Node000031"><a xlink:href="a03493.html" target="_top" xlink:title=" ">
<polygon fill="white" stroke="#666666" points="396,-18 287,-18 287,0 396,0 396,-18"/>
<text text-anchor="middle" x="341.5" y="-6.8" font-family="Helvetica,sans-Serif" font-size="9.00">std::underflow_error</text>
</a>
</g>
</g>
<!-- Node24&#45;&gt;Node31 -->
<g id="edge30_Node000024_Node000031" class="edge">
<title>Node24&#45;&gt;Node31</title>
<g id="a_edge30_Node000024_Node000031"><a xlink:title=" ">
<path fill="none" stroke="#63b8ff" d="M200.38,-83.25C219.44,-67.16 251.08,-42.41 282,-27 289.04,-23.49 296.89,-20.51 304.51,-18.04"/>
<polygon fill="#63b8ff" stroke="#63b8ff" points="198.1,-80.59 192.79,-89.76 202.66,-85.91 198.1,-80.59"/>
</a>
</g>
</g>
<!-- Node29 -->
<g id="Node000029" class="node">
<title>Node29</title>
<g id="a_Node000029"><a xlink:href="a10421.html" target="_top" xlink:title="Exception type thrown by the Filesystem TS library.">
<polygon fill="white" stroke="#666666" points="595,-82 437,-82 437,-54 595,-54 595,-82"/>
<text text-anchor="start" x="445" y="-70.8" font-family="Helvetica,sans-Serif" font-size="9.00">std::experimental::</text>
<text text-anchor="middle" x="516" y="-60.8" font-family="Helvetica,sans-Serif" font-size="9.00">filesystem::v1::filesystem_error</text>
</a>
</g>
</g>
<!-- Node28&#45;&gt;Node29 -->
<g id="edge28_Node000028_Node000029" class="edge">
<title>Node28&#45;&gt;Node29</title>
<g id="a_edge28_Node000028_Node000029"><a xlink:title=" ">
<path fill="none" stroke="#63b8ff" d="M399.42,-52.59C411.36,-54.18 424.14,-55.89 436.7,-57.56"/>
<polygon fill="#63b8ff" stroke="#63b8ff" points="399.56,-49.08 389.18,-51.22 398.63,-56.02 399.56,-49.08"/>
</a>
</g>
</g>
<!-- Node30 -->
<g id="Node000030" class="node">
<title>Node30</title>
<g id="a_Node000030"><a xlink:href="a05833.html" target="_top" xlink:title="Exception type thrown by the Filesystem library.">
<polygon fill="white" stroke="#666666" points="583,-36 449,-36 449,-8 583,-8 583,-36"/>
<text text-anchor="start" x="457" y="-24.8" font-family="Helvetica,sans-Serif" font-size="9.00">std::filesystem::filesystem</text>
<text text-anchor="middle" x="516" y="-14.8" font-family="Helvetica,sans-Serif" font-size="9.00">_error</text>
</a>
</g>
</g>
<!-- Node28&#45;&gt;Node30 -->
<g id="edge29_Node000028_Node000030" class="edge">
<title>Node28&#45;&gt;Node30</title>
<g id="a_edge29_Node000028_Node000030"><a xlink:title=" ">
<path fill="none" stroke="#63b8ff" d="M399.35,-37.42C415.19,-35.31 432.53,-33 448.85,-30.82"/>
<polygon fill="#63b8ff" stroke="#63b8ff" points="398.63,-33.98 389.18,-38.78 399.56,-40.92 398.63,-33.98"/>
</a>
</g>
</g>
</g>
</svg>

<g id="navigator" transform="translate(0 0)" fill="#404254">
  <rect fill="#f2f5e9" fill-opacity="0.5" stroke="#606060" stroke-width=".5" x="0" y="0" width="60" height="60"/>
  <use id="zoomplus" xlink:href="#zoomPlus" x="17" y="9" onmousedown="handleZoom(evt,'in')"/>
  <use id="zoomminus" xlink:href="#zoomMin" x="42" y="9" onmousedown="handleZoom(evt,'out')"/>
  <use id="reset" xlink:href="#resetDef" x="30" y="36" onmousedown="handleReset()"/>
   <use id="arrowup" xlink:href="#arrowUp" x="0" y="0" onmousedown="handlePan(0,-1)"/>
  <use id="arrowright" xlink:href="#arrowRight" x="0" y="0" onmousedown="handlePan(1,0)"/>
  <use id="arrowdown" xlink:href="#arrowDown" x="0" y="0" onmousedown="handlePan(0,1)"/>
  <use id="arrowleft" xlink:href="#arrowLeft" x="0" y="0" onmousedown="handlePan(-1,0)"/>
</g>
<svg viewBox="0 0 15 15" width="100%" height="30px" preserveAspectRatio="xMaxYMin meet">
 <g id="arrow_out" transform="scale(0.3 0.3)">
  <a xlink:href="a05760_org.svg" target="_base">
   <rect id="button" ry="5" rx="5" y="6" x="6" height="38" width="38"
        fill="#f2f5e9" fill-opacity="0.5" stroke="#606060" stroke-width="1.0"/>
   <path id="arrow"
     d="M 11.500037,31.436501 C 11.940474,20.09759 22.043105,11.32322 32.158766,21.979434 L 37.068811,17.246167 C 37.068811,17.246167 37.088388,32 37.088388,32 L 22.160133,31.978069 C 22.160133,31.978069 26.997745,27.140456 26.997745,27.140456 C 18.528582,18.264221 13.291696,25.230495 11.500037,31.436501 z"
     style="fill:#404040;"/>
  </a>
 </g>
</svg>

<style type='text/css'>
<![CDATA[
[data-mouse-over-selected='false'] { opacity: 0.7; }
[data-mouse-over-selected='true']  { opacity: 1.0; }
]]>
</style>
<script type="application/ecmascript"><![CDATA[
document.addEventListener('DOMContentLoaded', (event) => {
  highlightEdges();
  highlightAdjacentNodes();
});
]]></script>
</svg>
