<?xml version="1.0" encoding="UTF-8" standalone="no"?>
<!DOCTYPE svg PUBLIC "-//W3C//DTD SVG 1.1//EN"
 "http://www.w3.org/Graphics/SVG/1.1/DTD/svg11.dtd">
<!-- Generated by graphviz version 2.43.0 (0)
 -->
<!-- Title: std::ios_base Pages: 1 -->
<!--zoomable 470 -->

<svg id="main" version="1.1" xmlns="http://www.w3.org/2000/svg" xmlns:xlink="http://www.w3.org/1999/xlink" xml:space="preserve" onload="init(evt)">
<style type="text/css"><![CDATA[
.node, .edge {opacity: 0.7;}
.node.selected, .edge.selected {opacity: 1;}
.edge:hover path { stroke: red; }
.edge:hover polygon { stroke: red; fill: red; }
]]></style>

<defs>
  <circle id="rim" cx="0" cy="0" r="7"/>
  <circle id="rim2" cx="0" cy="0" r="3.5"/>
  <g id="zoomPlus">
    <use xlink:href="#rim" fill="#404040"><set attributeName="fill" to="#808080" begin="zoomplus.mouseover" end="zoomplus.mouseout"/></use>
    <path d="M-4,0h8M0,-4v8" fill="none" stroke="white" stroke-width="1.5" pointer-events="none"/>
  </g>
  <g id="zoomMin">
    <use xlink:href="#rim" fill="#404040"><set attributeName="fill" to="#808080" begin="zoomminus.mouseover" end="zoomminus.mouseout"/></use>
    <path d="M-4,0h8" fill="none" stroke="white" stroke-width="1.5" pointer-events="none"/>
  </g>
  <g id="arrowUp" transform="translate(30 24)">
    <use xlink:href="#rim"/>
    <path pointer-events="none" fill="none" stroke="white" stroke-width="1.5" d="M0,-3.0v7 M-2.5,-0.5L0,-3.0L2.5,-0.5"/>
  </g>
  <g id="arrowRight" transform="rotate(90) translate(36 -43)">
    <use xlink:href="#rim"/>
    <path pointer-events="none" fill="none" stroke="white" stroke-width="1.5" d="M0,-3.0v7 M-2.5,-0.5L0,-3.0L2.5,-0.5"/>
  </g>
  <g id="arrowDown" transform="rotate(180) translate(-30 -48)">
    <use xlink:href="#rim"/>
    <path pointer-events="none" fill="none" stroke="white" stroke-width="1.5" d="M0,-3.0v7 M-2.5,-0.5L0,-3.0L2.5,-0.5"/>
  </g>
  <g id="arrowLeft" transform="rotate(270) translate(-36 17)">
    <use xlink:href="#rim"/>
    <path pointer-events="none" fill="none" stroke="white" stroke-width="1.5" d="M0,-3.0v7 M-2.5,-0.5L0,-3.0L2.5,-0.5"/>
  </g>
  <g id="resetDef">
    <use xlink:href="#rim2" fill="#404040"><set attributeName="fill" to="#808080" begin="reset.mouseover" end="reset.mouseout"/></use>
  </g>
</defs>
<script type="application/ecmascript">
var viewWidth = 736;
var viewHeight = 470;
var sectionId = 'dynsection-0';
</script>
<script type="application/ecmascript" xlink:href="svg.min.js"/>
<svg id="graph" class="graph">
<g id="viewport">
<title>std::ios_base</title>
<!-- Node1 -->
<g id="Node000001" class="node">
<title>Node1</title>
<g id="a_Node000001"><a xlink:title="The base of the I/O class hierarchy.">
<polygon fill="#999999" stroke="#666666" points="74,-332 0,-332 0,-314 74,-314 74,-332"/>
<text text-anchor="middle" x="37" y="-320.8" font-family="Helvetica,sans-Serif" font-size="9.00">std::ios_base</text>
</a>
</g>
</g>
<!-- Node2 -->
<g id="Node000002" class="node">
<title>Node2</title>
<g id="a_Node000002"><a xlink:href="a02757.html" target="_top" xlink:title=" ">
<polygon fill="white" stroke="#666666" points="230,-383 120,-383 120,-355 230,-355 230,-383"/>
<text text-anchor="start" x="128" y="-371.8" font-family="Helvetica,sans-Serif" font-size="9.00">std::basic_ios&lt; char,</text>
<text text-anchor="middle" x="175" y="-361.8" font-family="Helvetica,sans-Serif" font-size="9.00"> _Traits &gt;</text>
</a>
</g>
</g>
<!-- Node1&#45;&gt;Node2 -->
<g id="edge1_Node000001_Node000002" class="edge">
<title>Node1&#45;&gt;Node2</title>
<g id="a_edge1_Node000001_Node000002"><a xlink:title=" ">
<path fill="none" stroke="#63b8ff" d="M74.38,-335.3C92.27,-341.36 113.92,-348.68 132.46,-354.95"/>
<polygon fill="#63b8ff" stroke="#63b8ff" points="75.46,-331.98 64.87,-332.09 73.22,-338.61 75.46,-331.98"/>
</a>
</g>
</g>
<!-- Node3 -->
<g id="Node000003" class="node">
<title>Node3</title>
<g id="a_Node000003"><a xlink:href="a02757.html" target="_top" xlink:title=" ">
<polygon fill="white" stroke="#666666" points="240,-337 110,-337 110,-309 240,-309 240,-337"/>
<text text-anchor="start" x="118" y="-325.8" font-family="Helvetica,sans-Serif" font-size="9.00">std::basic_ios&lt; _CharT,</text>
<text text-anchor="middle" x="175" y="-315.8" font-family="Helvetica,sans-Serif" font-size="9.00"> char_traits&lt; _CharT &gt; &gt;</text>
</a>
</g>
</g>
<!-- Node1&#45;&gt;Node3 -->
<g id="edge2_Node000001_Node000003" class="edge">
<title>Node1&#45;&gt;Node3</title>
<g id="a_edge2_Node000001_Node000003"><a xlink:title=" ">
<path fill="none" stroke="#63b8ff" d="M84.24,-323C92.49,-323 101.22,-323 109.86,-323"/>
<polygon fill="#63b8ff" stroke="#63b8ff" points="84.09,-319.5 74.09,-323 84.09,-326.5 84.09,-319.5"/>
</a>
</g>
</g>
<!-- Node4 -->
<g id="Node000004" class="node">
<title>Node4</title>
<g id="a_Node000004"><a xlink:href="a02757.html" target="_top" xlink:title="Template class basic_ios, virtual base class for all stream classes.">
<polygon fill="white" stroke="#666666" points="235.5,-291 114.5,-291 114.5,-263 235.5,-263 235.5,-291"/>
<text text-anchor="start" x="122.5" y="-279.8" font-family="Helvetica,sans-Serif" font-size="9.00">std::basic_ios&lt; _CharT,</text>
<text text-anchor="middle" x="175" y="-269.8" font-family="Helvetica,sans-Serif" font-size="9.00"> _Traits &gt;</text>
</a>
</g>
</g>
<!-- Node1&#45;&gt;Node4 -->
<g id="edge3_Node000001_Node000004" class="edge">
<title>Node1&#45;&gt;Node4</title>
<g id="a_edge3_Node000001_Node000004"><a xlink:title=" ">
<path fill="none" stroke="#63b8ff" d="M74.38,-310.7C92.27,-304.64 113.92,-297.32 132.46,-291.05"/>
<polygon fill="#63b8ff" stroke="#63b8ff" points="73.22,-307.39 64.87,-313.91 75.46,-314.02 73.22,-307.39"/>
</a>
</g>
</g>
<!-- Node5 -->
<g id="Node000005" class="node">
<title>Node5</title>
<g id="a_Node000005"><a xlink:href="a02765.html" target="_top" xlink:title=" ">
<polygon fill="white" stroke="#666666" points="381,-462 283,-462 283,-434 381,-434 381,-462"/>
<text text-anchor="start" x="291" y="-450.8" font-family="Helvetica,sans-Serif" font-size="9.00">std::basic_istream</text>
<text text-anchor="middle" x="332" y="-440.8" font-family="Helvetica,sans-Serif" font-size="9.00">&lt; char &gt;</text>
</a>
</g>
</g>
<!-- Node4&#45;&gt;Node5 -->
<g id="edge4_Node000004_Node000005" class="edge">
<title>Node4&#45;&gt;Node5</title>
<g id="a_edge4_Node000004_Node000005"><a xlink:title=" ">
<path fill="none" stroke="#63b8ff" d="M237.15,-297.21C238.14,-298.1 239.09,-299.03 240,-300 279.54,-342.18 237.55,-381.82 276,-425 279.1,-428.48 282.81,-431.44 286.81,-433.97"/>
<polygon fill="#63b8ff" stroke="#63b8ff" points="239.03,-294.25 228.9,-291.13 234.87,-299.88 239.03,-294.25"/>
</a>
</g>
</g>
<!-- Node6 -->
<g id="Node000006" class="node">
<title>Node6</title>
<g id="a_Node000006"><a xlink:href="a02765.html" target="_top" xlink:title=" ">
<polygon fill="white" stroke="#666666" points="381,-416 283,-416 283,-388 381,-388 381,-416"/>
<text text-anchor="start" x="291" y="-404.8" font-family="Helvetica,sans-Serif" font-size="9.00">std::basic_istream</text>
<text text-anchor="middle" x="332" y="-394.8" font-family="Helvetica,sans-Serif" font-size="9.00">&lt; char, _Traits &gt;</text>
</a>
</g>
</g>
<!-- Node4&#45;&gt;Node6 -->
<g id="edge5_Node000004_Node000006" class="edge">
<title>Node4&#45;&gt;Node6</title>
<g id="a_edge5_Node000004_Node000006"><a xlink:title=" ">
<path fill="none" stroke="#63b8ff" d="M235.96,-296.63C237.37,-297.7 238.72,-298.82 240,-300 268.39,-326.13 248.29,-352.15 276,-379 279.57,-382.46 283.73,-385.43 288.14,-387.97"/>
<polygon fill="#63b8ff" stroke="#63b8ff" points="237.73,-293.61 227.43,-291.13 233.94,-299.49 237.73,-293.61"/>
</a>
</g>
</g>
<!-- Node7 -->
<g id="Node000007" class="node">
<title>Node7</title>
<g id="a_Node000007"><a xlink:href="a02765.html" target="_top" xlink:title=" ">
<polygon fill="white" stroke="#666666" points="388,-370 276,-370 276,-332 388,-332 388,-370"/>
<text text-anchor="start" x="284" y="-358.8" font-family="Helvetica,sans-Serif" font-size="9.00">std::basic_istream</text>
<text text-anchor="start" x="284" y="-348.8" font-family="Helvetica,sans-Serif" font-size="9.00">&lt; _CharT, char_traits</text>
<text text-anchor="middle" x="332" y="-338.8" font-family="Helvetica,sans-Serif" font-size="9.00">&lt; _CharT &gt; &gt;</text>
</a>
</g>
</g>
<!-- Node4&#45;&gt;Node7 -->
<g id="edge6_Node000004_Node000007" class="edge">
<title>Node4&#45;&gt;Node7</title>
<g id="a_edge6_Node000004_Node000007"><a xlink:title=" ">
<path fill="none" stroke="#63b8ff" d="M228.82,-294.91C232.64,-296.53 236.41,-298.23 240,-300 257.04,-308.37 259.52,-313.57 276,-323 281.21,-325.98 286.77,-329 292.28,-331.89"/>
<polygon fill="#63b8ff" stroke="#63b8ff" points="229.82,-291.54 219.24,-291.04 227.2,-298.03 229.82,-291.54"/>
</a>
</g>
</g>
<!-- Node8 -->
<g id="Node000008" class="node">
<title>Node8</title>
<g id="a_Node000008"><a xlink:href="a02769.html" target="_top" xlink:title=" ">
<polygon fill="white" stroke="#666666" points="382.5,-314 281.5,-314 281.5,-286 382.5,-286 382.5,-314"/>
<text text-anchor="start" x="289.5" y="-302.8" font-family="Helvetica,sans-Serif" font-size="9.00">std::basic_ostream</text>
<text text-anchor="middle" x="332" y="-292.8" font-family="Helvetica,sans-Serif" font-size="9.00">&lt; char, _Traits &gt;</text>
</a>
</g>
</g>
<!-- Node4&#45;&gt;Node8 -->
<g id="edge7_Node000004_Node000008" class="edge">
<title>Node4&#45;&gt;Node8</title>
<g id="a_edge7_Node000004_Node000008"><a xlink:title=" ">
<path fill="none" stroke="#63b8ff" d="M245.87,-287.37C257.81,-289.14 270,-290.95 281.28,-292.62"/>
<polygon fill="#63b8ff" stroke="#63b8ff" points="246.33,-283.9 235.93,-285.89 245.3,-290.82 246.33,-283.9"/>
</a>
</g>
</g>
<!-- Node9 -->
<g id="Node000009" class="node">
<title>Node9</title>
<g id="a_Node000009"><a xlink:href="a02769.html" target="_top" xlink:title=" ">
<polygon fill="white" stroke="#666666" points="382.5,-268 281.5,-268 281.5,-240 382.5,-240 382.5,-268"/>
<text text-anchor="start" x="289.5" y="-256.8" font-family="Helvetica,sans-Serif" font-size="9.00">std::basic_ostream</text>
<text text-anchor="middle" x="332" y="-246.8" font-family="Helvetica,sans-Serif" font-size="9.00">&lt; char &gt;</text>
</a>
</g>
</g>
<!-- Node4&#45;&gt;Node9 -->
<g id="edge8_Node000004_Node000009" class="edge">
<title>Node4&#45;&gt;Node9</title>
<g id="a_edge8_Node000004_Node000009"><a xlink:title=" ">
<path fill="none" stroke="#63b8ff" d="M245.87,-266.63C257.81,-264.86 270,-263.05 281.28,-261.38"/>
<polygon fill="#63b8ff" stroke="#63b8ff" points="245.3,-263.18 235.93,-268.11 246.33,-270.1 245.3,-263.18"/>
</a>
</g>
</g>
<!-- Node10 -->
<g id="Node000010" class="node">
<title>Node10</title>
<g id="a_Node000010"><a xlink:href="a02769.html" target="_top" xlink:title=" ">
<polygon fill="white" stroke="#666666" points="388,-222 276,-222 276,-184 388,-184 388,-222"/>
<text text-anchor="start" x="284" y="-210.8" font-family="Helvetica,sans-Serif" font-size="9.00">std::basic_ostream</text>
<text text-anchor="start" x="284" y="-200.8" font-family="Helvetica,sans-Serif" font-size="9.00">&lt; _CharT, char_traits</text>
<text text-anchor="middle" x="332" y="-190.8" font-family="Helvetica,sans-Serif" font-size="9.00">&lt; _CharT &gt; &gt;</text>
</a>
</g>
</g>
<!-- Node4&#45;&gt;Node10 -->
<g id="edge9_Node000004_Node000010" class="edge">
<title>Node4&#45;&gt;Node10</title>
<g id="a_edge9_Node000004_Node000010"><a xlink:title=" ">
<path fill="none" stroke="#63b8ff" d="M214.75,-258.5C238.02,-247.39 267.57,-233.28 291.05,-222.07"/>
<polygon fill="#63b8ff" stroke="#63b8ff" points="213.04,-255.44 205.52,-262.91 216.05,-261.76 213.04,-255.44"/>
</a>
</g>
</g>
<!-- Node11 -->
<g id="Node000011" class="node">
<title>Node11</title>
<g id="a_Node000011"><a xlink:href="a02765.html" target="_top" xlink:title="Template class basic_istream.">
<polygon fill="white" stroke="#666666" points="383.5,-120 280.5,-120 280.5,-92 383.5,-92 383.5,-120"/>
<text text-anchor="start" x="288.5" y="-108.8" font-family="Helvetica,sans-Serif" font-size="9.00">std::basic_istream</text>
<text text-anchor="middle" x="332" y="-98.8" font-family="Helvetica,sans-Serif" font-size="9.00">&lt; _CharT, _Traits &gt;</text>
</a>
</g>
</g>
<!-- Node4&#45;&gt;Node11 -->
<g id="edge10_Node000004_Node000011" class="edge">
<title>Node4&#45;&gt;Node11</title>
<g id="a_edge10_Node000004_Node000011"><a xlink:title=" ">
<path fill="none" stroke="#63b8ff" d="M186.4,-253.69C201.77,-221.62 233.39,-163.91 276,-129 280.16,-125.59 284.9,-122.62 289.82,-120.04"/>
<polygon fill="#63b8ff" stroke="#63b8ff" points="183.22,-252.23 182.16,-262.77 189.56,-255.19 183.22,-252.23"/>
</a>
</g>
</g>
<!-- Node18 -->
<g id="Node000018" class="node">
<title>Node18</title>
<g id="a_Node000018"><a xlink:href="a02769.html" target="_top" xlink:title="Template class basic_ostream.">
<polygon fill="white" stroke="#666666" points="383.5,-166 280.5,-166 280.5,-138 383.5,-138 383.5,-166"/>
<text text-anchor="start" x="288.5" y="-154.8" font-family="Helvetica,sans-Serif" font-size="9.00">std::basic_ostream</text>
<text text-anchor="middle" x="332" y="-144.8" font-family="Helvetica,sans-Serif" font-size="9.00">&lt; _CharT, _Traits &gt;</text>
</a>
</g>
</g>
<!-- Node4&#45;&gt;Node18 -->
<g id="edge17_Node000004_Node000018" class="edge">
<title>Node4&#45;&gt;Node18</title>
<g id="a_edge17_Node000004_Node000018"><a xlink:title=" ">
<path fill="none" stroke="#63b8ff" d="M193.31,-254.7C211.77,-232.13 242.87,-197.46 276,-175 280.88,-171.69 286.32,-168.71 291.82,-166.09"/>
<polygon fill="#63b8ff" stroke="#63b8ff" points="190.41,-252.72 186.87,-262.71 195.86,-257.11 190.41,-252.72"/>
</a>
</g>
</g>
<!-- Node12 -->
<g id="Node000012" class="node">
<title>Node12</title>
<g id="a_Node000012"><a xlink:href="a02773.html" target="_top" xlink:title=" ">
<polygon fill="white" stroke="#666666" points="543,-166 439,-166 439,-138 543,-138 543,-166"/>
<text text-anchor="start" x="447" y="-154.8" font-family="Helvetica,sans-Serif" font-size="9.00">std::basic_iostream</text>
<text text-anchor="middle" x="491" y="-144.8" font-family="Helvetica,sans-Serif" font-size="9.00">&lt; char &gt;</text>
</a>
</g>
</g>
<!-- Node11&#45;&gt;Node12 -->
<g id="edge11_Node000011_Node000012" class="edge">
<title>Node11&#45;&gt;Node12</title>
<g id="a_edge11_Node000011_Node000012"><a xlink:title=" ">
<path fill="none" stroke="#63b8ff" d="M390.71,-122.91C407.6,-127.86 425.86,-133.21 442.07,-137.96"/>
<polygon fill="#63b8ff" stroke="#63b8ff" points="391.54,-119.5 380.96,-120.05 389.57,-126.22 391.54,-119.5"/>
</a>
</g>
</g>
<!-- Node13 -->
<g id="Node000013" class="node">
<title>Node13</title>
<g id="a_Node000013"><a xlink:href="a02493.html" target="_top" xlink:title="Controlling input for files.">
<polygon fill="white" stroke="#666666" points="542.5,-74 439.5,-74 439.5,-46 542.5,-46 542.5,-74"/>
<text text-anchor="start" x="447.5" y="-62.8" font-family="Helvetica,sans-Serif" font-size="9.00">std::basic_ifstream</text>
<text text-anchor="middle" x="491" y="-52.8" font-family="Helvetica,sans-Serif" font-size="9.00">&lt; _CharT, _Traits &gt;</text>
</a>
</g>
</g>
<!-- Node11&#45;&gt;Node13 -->
<g id="edge12_Node000011_Node000013" class="edge">
<title>Node11&#45;&gt;Node13</title>
<g id="a_edge12_Node000011_Node000013"><a xlink:title=" ">
<path fill="none" stroke="#63b8ff" d="M390.71,-89.09C407.6,-84.14 425.86,-78.79 442.07,-74.04"/>
<polygon fill="#63b8ff" stroke="#63b8ff" points="389.57,-85.78 380.96,-91.95 391.54,-92.5 389.57,-85.78"/>
</a>
</g>
</g>
<!-- Node14 -->
<g id="Node000014" class="node">
<title>Node14</title>
<g id="a_Node000014"><a xlink:href="a02773.html" target="_top" xlink:title="Template class basic_iostream.">
<polygon fill="white" stroke="#666666" points="543,-120 439,-120 439,-92 543,-92 543,-120"/>
<text text-anchor="start" x="447" y="-108.8" font-family="Helvetica,sans-Serif" font-size="9.00">std::basic_iostream</text>
<text text-anchor="middle" x="491" y="-98.8" font-family="Helvetica,sans-Serif" font-size="9.00">&lt; _CharT, _Traits &gt;</text>
</a>
</g>
</g>
<!-- Node11&#45;&gt;Node14 -->
<g id="edge13_Node000011_Node000014" class="edge">
<title>Node11&#45;&gt;Node14</title>
<g id="a_edge13_Node000011_Node000014"><a xlink:title=" ">
<path fill="none" stroke="#63b8ff" d="M393.67,-106C408.56,-106 424.35,-106 438.75,-106"/>
<polygon fill="#63b8ff" stroke="#63b8ff" points="393.54,-102.5 383.54,-106 393.54,-109.5 393.54,-102.5"/>
</a>
</g>
</g>
<!-- Node17 -->
<g id="Node000017" class="node">
<title>Node17</title>
<g id="a_Node000017"><a xlink:href="a02781.html" target="_top" xlink:title="Controlling input for std::string.">
<polygon fill="white" stroke="#666666" points="558,-28 424,-28 424,0 558,0 558,-28"/>
<text text-anchor="start" x="432" y="-16.8" font-family="Helvetica,sans-Serif" font-size="9.00">std::basic_istringstream</text>
<text text-anchor="middle" x="491" y="-6.8" font-family="Helvetica,sans-Serif" font-size="9.00">&lt; _CharT, _Traits, _Alloc &gt;</text>
</a>
</g>
</g>
<!-- Node11&#45;&gt;Node17 -->
<g id="edge16_Node000011_Node000017" class="edge">
<title>Node11&#45;&gt;Node17</title>
<g id="a_edge16_Node000011_Node000017"><a xlink:title=" ">
<path fill="none" stroke="#63b8ff" d="M356.38,-84.99C373.97,-70.02 399.22,-50.28 424,-37 430.2,-33.68 436.98,-30.68 443.76,-28.03"/>
<polygon fill="#63b8ff" stroke="#63b8ff" points="353.66,-82.71 348.39,-91.9 358.24,-88 353.66,-82.71"/>
</a>
</g>
</g>
<!-- Node15 -->
<g id="Node000015" class="node">
<title>Node15</title>
<g id="a_Node000015"><a xlink:href="a02501.html" target="_top" xlink:title="Controlling input and output for files.">
<polygon fill="white" stroke="#666666" points="712.5,-143 609.5,-143 609.5,-115 712.5,-115 712.5,-143"/>
<text text-anchor="start" x="617.5" y="-131.8" font-family="Helvetica,sans-Serif" font-size="9.00">std::basic_fstream</text>
<text text-anchor="middle" x="661" y="-121.8" font-family="Helvetica,sans-Serif" font-size="9.00">&lt; _CharT, _Traits &gt;</text>
</a>
</g>
</g>
<!-- Node14&#45;&gt;Node15 -->
<g id="edge14_Node000014_Node000015" class="edge">
<title>Node14&#45;&gt;Node15</title>
<g id="a_edge14_Node000014_Node000015"><a xlink:title=" ">
<path fill="none" stroke="#63b8ff" d="M553.34,-114.4C571.72,-116.91 591.67,-119.65 609.28,-122.06"/>
<polygon fill="#63b8ff" stroke="#63b8ff" points="553.7,-110.91 543.32,-113.03 552.75,-117.85 553.7,-110.91"/>
</a>
</g>
</g>
<!-- Node16 -->
<g id="Node000016" class="node">
<title>Node16</title>
<g id="a_Node000016"><a xlink:href="a02789.html" target="_top" xlink:title="Controlling input and output for std::string.">
<polygon fill="white" stroke="#666666" points="728,-97 594,-97 594,-69 728,-69 728,-97"/>
<text text-anchor="start" x="602" y="-85.8" font-family="Helvetica,sans-Serif" font-size="9.00">std::basic_stringstream</text>
<text text-anchor="middle" x="661" y="-75.8" font-family="Helvetica,sans-Serif" font-size="9.00">&lt; _CharT, _Traits, _Alloc &gt;</text>
</a>
</g>
</g>
<!-- Node14&#45;&gt;Node16 -->
<g id="edge15_Node000014_Node000016" class="edge">
<title>Node14&#45;&gt;Node16</title>
<g id="a_edge15_Node000014_Node000016"><a xlink:title=" ">
<path fill="none" stroke="#63b8ff" d="M553.23,-97.62C566.42,-95.81 580.43,-93.89 593.8,-92.06"/>
<polygon fill="#63b8ff" stroke="#63b8ff" points="552.75,-94.15 543.32,-98.97 553.7,-101.09 552.75,-94.15"/>
</a>
</g>
</g>
<!-- Node18&#45;&gt;Node12 -->
<g id="edge18_Node000018_Node000012" class="edge">
<title>Node18&#45;&gt;Node12</title>
<g id="a_edge18_Node000018_Node000012"><a xlink:title=" ">
<path fill="none" stroke="#63b8ff" d="M393.67,-152C408.56,-152 424.35,-152 438.75,-152"/>
<polygon fill="#63b8ff" stroke="#63b8ff" points="393.54,-148.5 383.54,-152 393.54,-155.5 393.54,-148.5"/>
</a>
</g>
</g>
<!-- Node18&#45;&gt;Node14 -->
<g id="edge19_Node000018_Node000014" class="edge">
<title>Node18&#45;&gt;Node14</title>
<g id="a_edge19_Node000018_Node000014"><a xlink:title=" ">
<path fill="none" stroke="#63b8ff" d="M390.71,-135.09C407.6,-130.14 425.86,-124.79 442.07,-120.04"/>
<polygon fill="#63b8ff" stroke="#63b8ff" points="389.57,-131.78 380.96,-137.95 391.54,-138.5 389.57,-131.78"/>
</a>
</g>
</g>
<!-- Node19 -->
<g id="Node000019" class="node">
<title>Node19</title>
<g id="a_Node000019"><a xlink:href="a02497.html" target="_top" xlink:title="Controlling output for files.">
<polygon fill="white" stroke="#666666" points="543,-258 439,-258 439,-230 543,-230 543,-258"/>
<text text-anchor="start" x="447" y="-246.8" font-family="Helvetica,sans-Serif" font-size="9.00">std::basic_ofstream</text>
<text text-anchor="middle" x="491" y="-236.8" font-family="Helvetica,sans-Serif" font-size="9.00">&lt; _CharT, _Traits &gt;</text>
</a>
</g>
</g>
<!-- Node18&#45;&gt;Node19 -->
<g id="edge20_Node000018_Node000019" class="edge">
<title>Node18&#45;&gt;Node19</title>
<g id="a_edge20_Node000018_Node000019"><a xlink:title=" ">
<path fill="none" stroke="#63b8ff" d="M382.33,-171.07C384.29,-172.31 386.19,-173.62 388,-175 408.64,-190.74 402.89,-205.89 424,-221 428.84,-224.46 434.24,-227.44 439.81,-229.99"/>
<polygon fill="#63b8ff" stroke="#63b8ff" points="383.82,-167.89 373.39,-166.03 380.38,-173.99 383.82,-167.89"/>
</a>
</g>
</g>
<!-- Node20 -->
<g id="Node000020" class="node">
<title>Node20</title>
<g id="a_Node000020"><a xlink:href="a02785.html" target="_top" xlink:title="Controlling output for std::string.">
<polygon fill="white" stroke="#666666" points="558,-212 424,-212 424,-184 558,-184 558,-212"/>
<text text-anchor="start" x="432" y="-200.8" font-family="Helvetica,sans-Serif" font-size="9.00">std::basic_ostringstream</text>
<text text-anchor="middle" x="491" y="-190.8" font-family="Helvetica,sans-Serif" font-size="9.00">&lt; _CharT, _Traits, _Alloc &gt;</text>
</a>
</g>
</g>
<!-- Node18&#45;&gt;Node20 -->
<g id="edge21_Node000018_Node000020" class="edge">
<title>Node18&#45;&gt;Node20</title>
<g id="a_edge21_Node000018_Node000020"><a xlink:title=" ">
<path fill="none" stroke="#63b8ff" d="M390.71,-168.91C407.6,-173.86 425.86,-179.21 442.07,-183.96"/>
<polygon fill="#63b8ff" stroke="#63b8ff" points="391.54,-165.5 380.96,-166.05 389.57,-172.22 391.54,-165.5"/>
</a>
</g>
</g>
</g>
</svg>

<g id="navigator" transform="translate(0 0)" fill="#404254">
  <rect fill="#f2f5e9" fill-opacity="0.5" stroke="#606060" stroke-width=".5" x="0" y="0" width="60" height="60"/>
  <use id="zoomplus" xlink:href="#zoomPlus" x="17" y="9" onmousedown="handleZoom(evt,'in')"/>
  <use id="zoomminus" xlink:href="#zoomMin" x="42" y="9" onmousedown="handleZoom(evt,'out')"/>
  <use id="reset" xlink:href="#resetDef" x="30" y="36" onmousedown="handleReset()"/>
   <use id="arrowup" xlink:href="#arrowUp" x="0" y="0" onmousedown="handlePan(0,-1)"/>
  <use id="arrowright" xlink:href="#arrowRight" x="0" y="0" onmousedown="handlePan(1,0)"/>
  <use id="arrowdown" xlink:href="#arrowDown" x="0" y="0" onmousedown="handlePan(0,1)"/>
  <use id="arrowleft" xlink:href="#arrowLeft" x="0" y="0" onmousedown="handlePan(-1,0)"/>
</g>
<svg viewBox="0 0 15 15" width="100%" height="30px" preserveAspectRatio="xMaxYMin meet">
 <g id="arrow_out" transform="scale(0.3 0.3)">
  <a xlink:href="a05972_org.svg" target="_base">
   <rect id="button" ry="5" rx="5" y="6" x="6" height="38" width="38"
        fill="#f2f5e9" fill-opacity="0.5" stroke="#606060" stroke-width="1.0"/>
   <path id="arrow"
     d="M 11.500037,31.436501 C 11.940474,20.09759 22.043105,11.32322 32.158766,21.979434 L 37.068811,17.246167 C 37.068811,17.246167 37.088388,32 37.088388,32 L 22.160133,31.978069 C 22.160133,31.978069 26.997745,27.140456 26.997745,27.140456 C 18.528582,18.264221 13.291696,25.230495 11.500037,31.436501 z"
     style="fill:#404040;"/>
  </a>
 </g>
</svg>

<style type='text/css'>
<![CDATA[
[data-mouse-over-selected='false'] { opacity: 0.7; }
[data-mouse-over-selected='true']  { opacity: 1.0; }
]]>
</style>
<script type="application/ecmascript"><![CDATA[
document.addEventListener('DOMContentLoaded', (event) => {
  highlightEdges();
  highlightAdjacentNodes();
});
]]></script>
</svg>
