<?xml version="1.0" encoding="UTF-8" standalone="no"?>
<!DOCTYPE svg PUBLIC "-//W3C//DTD SVG 1.1//EN"
 "http://www.w3.org/Graphics/SVG/1.1/DTD/svg11.dtd">
<!-- Generated by graphviz version 2.43.0 (0)
 -->
<!-- Title: std::ctype&lt; char &gt; Pages: 1 -->
<svg width="206pt" height="144pt"
 viewBox="0.00 0.00 205.50 144.00" xmlns="http://www.w3.org/2000/svg" xmlns:xlink="http://www.w3.org/1999/xlink">
<g id="graph0" class="graph" transform="scale(1 1) rotate(0) translate(4 140)">
<title>std::ctype&lt; char &gt;</title>
<!-- Node1 -->
<g id="Node000001" class="node">
<title>Node1</title>
<g id="a_Node000001"><a xlink:title="The ctype&lt;char&gt; specialization.">
<polygon fill="#999999" stroke="#666666" points="151.5,-82 47.5,-82 47.5,-64 151.5,-64 151.5,-82"/>
<text text-anchor="middle" x="99.5" y="-70.8" font-family="Helvetica,sans-Serif" font-size="9.00">std::ctype&lt; char &gt;</text>
</a>
</g>
</g>
<!-- Node4 -->
<g id="Node000004" class="node">
<title>Node4</title>
<g id="a_Node000004"><a xlink:href="a06197.html" target="_top" xlink:title="22.2.1.4 Class ctype_byname specializations.">
<polygon fill="white" stroke="#666666" points="155,-28 44,-28 44,0 155,0 155,-28"/>
<text text-anchor="start" x="52" y="-16.8" font-family="Helvetica,sans-Serif" font-size="9.00">std::ctype_byname&lt;</text>
<text text-anchor="middle" x="99.5" y="-6.8" font-family="Helvetica,sans-Serif" font-size="9.00"> char &gt;</text>
</a>
</g>
</g>
<!-- Node1&#45;&gt;Node4 -->
<g id="edge3_Node000001_Node000004" class="edge">
<title>Node1&#45;&gt;Node4</title>
<g id="a_edge3_Node000001_Node000004"><a xlink:title=" ">
<path fill="none" stroke="#63b8ff" d="M99.5,-53.49C99.5,-45.28 99.5,-35.81 99.5,-28.31"/>
<polygon fill="#63b8ff" stroke="#63b8ff" points="96,-53.59 99.5,-63.59 103,-53.59 96,-53.59"/>
</a>
</g>
</g>
<!-- Node2 -->
<g id="Node000002" class="node">
<title>Node2</title>
<g id="a_Node000002"><a xlink:href="a06141.html" target="_top" xlink:title="Localization functionality base class.">
<polygon fill="white" stroke="#666666" points="91,-136 0,-136 0,-118 91,-118 91,-136"/>
<text text-anchor="middle" x="45.5" y="-124.8" font-family="Helvetica,sans-Serif" font-size="9.00">std::locale::facet</text>
</a>
</g>
</g>
<!-- Node2&#45;&gt;Node1 -->
<g id="edge1_Node000001_Node000002" class="edge">
<title>Node2&#45;&gt;Node1</title>
<g id="a_edge1_Node000001_Node000002"><a xlink:title=" ">
<path fill="none" stroke="#63b8ff" d="M61.38,-110.71C71.05,-101.4 83.02,-89.87 90.94,-82.24"/>
<polygon fill="#63b8ff" stroke="#63b8ff" points="58.71,-108.42 53.94,-117.88 63.57,-113.46 58.71,-108.42"/>
</a>
</g>
</g>
<!-- Node3 -->
<g id="Node000003" class="node">
<title>Node3</title>
<g id="a_Node000003"><a xlink:href="a09257.html" target="_top" xlink:title="Base class for ctype.">
<polygon fill="white" stroke="#666666" points="197.5,-136 109.5,-136 109.5,-118 197.5,-118 197.5,-136"/>
<text text-anchor="middle" x="153.5" y="-124.8" font-family="Helvetica,sans-Serif" font-size="9.00">std::ctype_base</text>
</a>
</g>
</g>
<!-- Node3&#45;&gt;Node1 -->
<g id="edge2_Node000001_Node000003" class="edge">
<title>Node3&#45;&gt;Node1</title>
<g id="a_edge2_Node000001_Node000003"><a xlink:title=" ">
<path fill="none" stroke="#63b8ff" d="M137.62,-110.71C127.95,-101.4 115.98,-89.87 108.06,-82.24"/>
<polygon fill="#63b8ff" stroke="#63b8ff" points="135.43,-113.46 145.06,-117.88 140.29,-108.42 135.43,-113.46"/>
</a>
</g>
</g>
</g>
</svg>
