<?xml version="1.0" encoding="UTF-8" standalone="no"?>
<!DOCTYPE svg PUBLIC "-//W3C//DTD SVG 1.1//EN"
 "http://www.w3.org/Graphics/SVG/1.1/DTD/svg11.dtd">
<!-- Generated by graphviz version 2.43.0 (0)
 -->
<!-- Title: std::collate&lt; _CharT &gt; Pages: 1 -->
<svg width="126pt" height="144pt"
 viewBox="0.00 0.00 126.00 144.00" xmlns="http://www.w3.org/2000/svg" xmlns:xlink="http://www.w3.org/1999/xlink">
<g id="graph0" class="graph" transform="scale(1 1) rotate(0) translate(4 140)">
<title>std::collate&lt; _CharT &gt;</title>
<!-- Node1 -->
<g id="Node000001" class="node">
<title>Node1</title>
<g id="a_Node000001"><a xlink:title="Facet for localized string comparison.">
<polygon fill="#999999" stroke="#666666" points="118,-82 0,-82 0,-64 118,-64 118,-82"/>
<text text-anchor="middle" x="59" y="-70.8" font-family="Helvetica,sans-Serif" font-size="9.00">std::collate&lt; _CharT &gt;</text>
</a>
</g>
</g>
<!-- Node3 -->
<g id="Node000003" class="node">
<title>Node3</title>
<g id="a_Node000003"><a xlink:href="a06157.html" target="_top" xlink:title="class collate_byname [22.2.4.2].">
<polygon fill="white" stroke="#666666" points="112.5,-28 5.5,-28 5.5,0 112.5,0 112.5,-28"/>
<text text-anchor="start" x="13.5" y="-16.8" font-family="Helvetica,sans-Serif" font-size="9.00">std::collate_byname</text>
<text text-anchor="middle" x="59" y="-6.8" font-family="Helvetica,sans-Serif" font-size="9.00">&lt; _CharT &gt;</text>
</a>
</g>
</g>
<!-- Node1&#45;&gt;Node3 -->
<g id="edge2_Node000001_Node000003" class="edge">
<title>Node1&#45;&gt;Node3</title>
<g id="a_edge2_Node000001_Node000003"><a xlink:title=" ">
<path fill="none" stroke="#63b8ff" d="M59,-53.49C59,-45.28 59,-35.81 59,-28.31"/>
<polygon fill="#63b8ff" stroke="#63b8ff" points="55.5,-53.59 59,-63.59 62.5,-53.59 55.5,-53.59"/>
</a>
</g>
</g>
<!-- Node2 -->
<g id="Node000002" class="node">
<title>Node2</title>
<g id="a_Node000002"><a xlink:href="a06141.html" target="_top" xlink:title="Localization functionality base class.">
<polygon fill="white" stroke="#666666" points="104.5,-136 13.5,-136 13.5,-118 104.5,-118 104.5,-136"/>
<text text-anchor="middle" x="59" y="-124.8" font-family="Helvetica,sans-Serif" font-size="9.00">std::locale::facet</text>
</a>
</g>
</g>
<!-- Node2&#45;&gt;Node1 -->
<g id="edge1_Node000001_Node000002" class="edge">
<title>Node2&#45;&gt;Node1</title>
<g id="a_edge1_Node000001_Node000002"><a xlink:title=" ">
<path fill="none" stroke="#63b8ff" d="M59,-107.86C59,-99.13 59,-89.1 59,-82.24"/>
<polygon fill="#63b8ff" stroke="#63b8ff" points="55.5,-107.87 59,-117.88 62.5,-107.88 55.5,-107.87"/>
</a>
</g>
</g>
</g>
</svg>
