<?xml version="1.0" encoding="UTF-8" standalone="no"?>
<!DOCTYPE svg PUBLIC "-//W3C//DTD SVG 1.1//EN"
 "http://www.w3.org/Graphics/SVG/1.1/DTD/svg11.dtd">
<!-- Generated by graphviz version 2.43.0 (0)
 -->
<!-- Title: std::__ctype_abstract_base&lt; _CharT &gt; Pages: 1 -->
<svg width="206pt" height="208pt"
 viewBox="0.00 0.00 205.50 208.00" xmlns="http://www.w3.org/2000/svg" xmlns:xlink="http://www.w3.org/1999/xlink">

<svg id="main" version="1.1" xmlns="http://www.w3.org/2000/svg" xmlns:xlink="http://www.w3.org/1999/xlink" xml:space="preserve" onload="init(evt)">
<style type="text/css"><![CDATA[
.node, .edge {opacity: 0.7;}
.node.selected, .edge.selected {opacity: 1;}
.edge:hover path { stroke: red; }
.edge:hover polygon { stroke: red; fill: red; }
]]></style>
<script type="application/ecmascript" xlink:href="svg.min.js"/>
<svg id="graph" class="graph">
<g id="graph0" class="graph" transform="scale(1 1) rotate(0) translate(4 204)">
<title>std::__ctype_abstract_base&lt; _CharT &gt;</title>
<!-- Node1 -->
<g id="Node000001" class="node">
<title>Node1</title>
<g id="a_Node000001"><a xlink:title="Common base for ctype facet.">
<polygon fill="#999999" stroke="#666666" points="156,-146 43,-146 43,-118 156,-118 156,-146"/>
<text text-anchor="start" x="51" y="-134.8" font-family="Helvetica,sans-Serif" font-size="9.00">std::__ctype_abstract</text>
<text text-anchor="middle" x="99.5" y="-124.8" font-family="Helvetica,sans-Serif" font-size="9.00">_base&lt; _CharT &gt;</text>
</a>
</g>
</g>
<!-- Node4 -->
<g id="Node000004" class="node">
<title>Node4</title>
<g id="a_Node000004"><a xlink:href="a06181.html" target="_top" xlink:title="Primary class template ctype facet.">
<polygon fill="white" stroke="#666666" points="156.5,-82 42.5,-82 42.5,-64 156.5,-64 156.5,-82"/>
<text text-anchor="middle" x="99.5" y="-70.8" font-family="Helvetica,sans-Serif" font-size="9.00">std::ctype&lt; _CharT &gt;</text>
</a>
</g>
</g>
<!-- Node1&#45;&gt;Node4 -->
<g id="edge3_Node000001_Node000004" class="edge">
<title>Node1&#45;&gt;Node4</title>
<g id="a_edge3_Node000001_Node000004"><a xlink:title=" ">
<path fill="none" stroke="#63b8ff" d="M99.5,-107.66C99.5,-98.55 99.5,-88.72 99.5,-82.05"/>
<polygon fill="#63b8ff" stroke="#63b8ff" points="96,-107.78 99.5,-117.78 103,-107.78 96,-107.78"/>
</a>
</g>
</g>
<!-- Node2 -->
<g id="Node000002" class="node">
<title>Node2</title>
<g id="a_Node000002"><a xlink:href="a06141.html" target="_top" xlink:title="Localization functionality base class.">
<polygon fill="white" stroke="#666666" points="91,-200 0,-200 0,-182 91,-182 91,-200"/>
<text text-anchor="middle" x="45.5" y="-188.8" font-family="Helvetica,sans-Serif" font-size="9.00">std::locale::facet</text>
</a>
</g>
</g>
<!-- Node2&#45;&gt;Node1 -->
<g id="edge1_Node000001_Node000002" class="edge">
<title>Node2&#45;&gt;Node1</title>
<g id="a_edge1_Node000001_Node000002"><a xlink:title=" ">
<path fill="none" stroke="#63b8ff" d="M60.44,-174.23C68.75,-165.46 78.98,-154.66 86.89,-146.31"/>
<polygon fill="#63b8ff" stroke="#63b8ff" points="57.8,-171.92 53.47,-181.59 62.89,-176.74 57.8,-171.92"/>
</a>
</g>
</g>
<!-- Node3 -->
<g id="Node000003" class="node">
<title>Node3</title>
<g id="a_Node000003"><a xlink:href="a09257.html" target="_top" xlink:title="Base class for ctype.">
<polygon fill="white" stroke="#666666" points="197.5,-200 109.5,-200 109.5,-182 197.5,-182 197.5,-200"/>
<text text-anchor="middle" x="153.5" y="-188.8" font-family="Helvetica,sans-Serif" font-size="9.00">std::ctype_base</text>
</a>
</g>
</g>
<!-- Node3&#45;&gt;Node1 -->
<g id="edge2_Node000001_Node000003" class="edge">
<title>Node3&#45;&gt;Node1</title>
<g id="a_edge2_Node000001_Node000003"><a xlink:title=" ">
<path fill="none" stroke="#63b8ff" d="M138.56,-174.23C130.25,-165.46 120.02,-154.66 112.11,-146.31"/>
<polygon fill="#63b8ff" stroke="#63b8ff" points="136.11,-176.74 145.53,-181.59 141.2,-171.92 136.11,-176.74"/>
</a>
</g>
</g>
<!-- Node5 -->
<g id="Node000005" class="node">
<title>Node5</title>
<g id="a_Node000005"><a xlink:href="a06193.html" target="_top" xlink:title="class ctype_byname [22.2.1.2].">
<polygon fill="white" stroke="#666666" points="155,-28 44,-28 44,0 155,0 155,-28"/>
<text text-anchor="start" x="52" y="-16.8" font-family="Helvetica,sans-Serif" font-size="9.00">std::ctype_byname&lt;</text>
<text text-anchor="middle" x="99.5" y="-6.8" font-family="Helvetica,sans-Serif" font-size="9.00"> _CharT &gt;</text>
</a>
</g>
</g>
<!-- Node4&#45;&gt;Node5 -->
<g id="edge4_Node000004_Node000005" class="edge">
<title>Node4&#45;&gt;Node5</title>
<g id="a_edge4_Node000004_Node000005"><a xlink:title=" ">
<path fill="none" stroke="#63b8ff" d="M99.5,-53.49C99.5,-45.28 99.5,-35.81 99.5,-28.31"/>
<polygon fill="#63b8ff" stroke="#63b8ff" points="96,-53.59 99.5,-63.59 103,-53.59 96,-53.59"/>
</a>
</g>
</g>
</g>
</svg>
</svg>

<style type='text/css'>
<![CDATA[
[data-mouse-over-selected='false'] { opacity: 0.7; }
[data-mouse-over-selected='true']  { opacity: 1.0; }
]]>
</style>
<script type="application/ecmascript"><![CDATA[
document.addEventListener('DOMContentLoaded', (event) => {
  highlightEdges();
  highlightAdjacentNodes();
});
]]></script>
</svg>
