<?xml version="1.0" encoding="UTF-8" standalone="no"?>
<!DOCTYPE svg PUBLIC "-//W3C//DTD SVG 1.1//EN"
 "http://www.w3.org/Graphics/SVG/1.1/DTD/svg11.dtd">
<!-- Generated by graphviz version 2.43.0 (0)
 -->
<!-- Title: std::locale::facet Pages: 1 -->
<!--zoomable 920 -->

<svg id="main" version="1.1" xmlns="http://www.w3.org/2000/svg" xmlns:xlink="http://www.w3.org/1999/xlink" xml:space="preserve" onload="init(evt)">
<style type="text/css"><![CDATA[
.node, .edge {opacity: 0.7;}
.node.selected, .edge.selected {opacity: 1;}
.edge:hover path { stroke: red; }
.edge:hover polygon { stroke: red; fill: red; }
]]></style>

<defs>
  <circle id="rim" cx="0" cy="0" r="7"/>
  <circle id="rim2" cx="0" cy="0" r="3.5"/>
  <g id="zoomPlus">
    <use xlink:href="#rim" fill="#404040"><set attributeName="fill" to="#808080" begin="zoomplus.mouseover" end="zoomplus.mouseout"/></use>
    <path d="M-4,0h8M0,-4v8" fill="none" stroke="white" stroke-width="1.5" pointer-events="none"/>
  </g>
  <g id="zoomMin">
    <use xlink:href="#rim" fill="#404040"><set attributeName="fill" to="#808080" begin="zoomminus.mouseover" end="zoomminus.mouseout"/></use>
    <path d="M-4,0h8" fill="none" stroke="white" stroke-width="1.5" pointer-events="none"/>
  </g>
  <g id="arrowUp" transform="translate(30 24)">
    <use xlink:href="#rim"/>
    <path pointer-events="none" fill="none" stroke="white" stroke-width="1.5" d="M0,-3.0v7 M-2.5,-0.5L0,-3.0L2.5,-0.5"/>
  </g>
  <g id="arrowRight" transform="rotate(90) translate(36 -43)">
    <use xlink:href="#rim"/>
    <path pointer-events="none" fill="none" stroke="white" stroke-width="1.5" d="M0,-3.0v7 M-2.5,-0.5L0,-3.0L2.5,-0.5"/>
  </g>
  <g id="arrowDown" transform="rotate(180) translate(-30 -48)">
    <use xlink:href="#rim"/>
    <path pointer-events="none" fill="none" stroke="white" stroke-width="1.5" d="M0,-3.0v7 M-2.5,-0.5L0,-3.0L2.5,-0.5"/>
  </g>
  <g id="arrowLeft" transform="rotate(270) translate(-36 17)">
    <use xlink:href="#rim"/>
    <path pointer-events="none" fill="none" stroke="white" stroke-width="1.5" d="M0,-3.0v7 M-2.5,-0.5L0,-3.0L2.5,-0.5"/>
  </g>
  <g id="resetDef">
    <use xlink:href="#rim2" fill="#404040"><set attributeName="fill" to="#808080" begin="reset.mouseover" end="reset.mouseout"/></use>
  </g>
</defs>
<script type="application/ecmascript">
var viewWidth = 634;
var viewHeight = 920;
var sectionId = 'dynsection-0';
</script>
<script type="application/ecmascript" xlink:href="svg.min.js"/>
<svg id="graph" class="graph">
<g id="viewport">
<title>std::locale::facet</title>
<!-- Node1 -->
<g id="Node000001" class="node">
<title>Node1</title>
<g id="a_Node000001"><a xlink:title="Localization functionality base class.">
<polygon fill="#999999" stroke="#666666" points="91,-430 0,-430 0,-412 91,-412 91,-430"/>
<text text-anchor="middle" x="45.5" y="-418.8" font-family="Helvetica,sans-Serif" font-size="9.00">std::locale::facet</text>
</a>
</g>
</g>
<!-- Node2 -->
<g id="Node000002" class="node">
<title>Node2</title>
<g id="a_Node000002"><a xlink:href="a05469.html" target="_top" xlink:title=" ">
<polygon fill="white" stroke="#666666" points="280.5,-912 141.5,-912 141.5,-874 280.5,-874 280.5,-912"/>
<text text-anchor="start" x="149.5" y="-900.8" font-family="Helvetica,sans-Serif" font-size="9.00">std::__codecvt_abstract</text>
<text text-anchor="start" x="149.5" y="-890.8" font-family="Helvetica,sans-Serif" font-size="9.00">_base&lt; _InternT, _ExternT,</text>
<text text-anchor="middle" x="211" y="-880.8" font-family="Helvetica,sans-Serif" font-size="9.00"> encoding_state &gt;</text>
</a>
</g>
</g>
<!-- Node1&#45;&gt;Node2 -->
<g id="edge1_Node000001_Node000002" class="edge">
<title>Node1&#45;&gt;Node2</title>
<g id="a_edge1_Node000001_Node000002"><a xlink:title=" ">
<path fill="none" stroke="#63b8ff" d="M47.45,-440.3C51.59,-517.03 70.5,-799.58 127,-865 131.08,-869.72 135.97,-873.64 141.33,-876.91"/>
<polygon fill="#63b8ff" stroke="#63b8ff" points="50.94,-439.97 46.92,-430.16 43.95,-440.33 50.94,-439.97"/>
</a>
</g>
</g>
<!-- Node4 -->
<g id="Node000004" class="node">
<title>Node4</title>
<g id="a_Node000004"><a xlink:href="a05469.html" target="_top" xlink:title=" ">
<polygon fill="white" stroke="#666666" points="291.5,-856 130.5,-856 130.5,-828 291.5,-828 291.5,-856"/>
<text text-anchor="start" x="138.5" y="-844.8" font-family="Helvetica,sans-Serif" font-size="9.00">std::__codecvt_abstract</text>
<text text-anchor="middle" x="211" y="-834.8" font-family="Helvetica,sans-Serif" font-size="9.00">_base&lt; char, char, mbstate_t &gt;</text>
</a>
</g>
</g>
<!-- Node1&#45;&gt;Node4 -->
<g id="edge3_Node000001_Node000004" class="edge">
<title>Node1&#45;&gt;Node4</title>
<g id="a_edge3_Node000001_Node000004"><a xlink:title=" ">
<path fill="none" stroke="#63b8ff" d="M47.81,-440.64C53.01,-512.91 74.54,-762.69 127,-819 130.16,-822.39 133.77,-825.3 137.68,-827.79"/>
<polygon fill="#63b8ff" stroke="#63b8ff" points="51.27,-440.02 47.09,-430.29 44.29,-440.51 51.27,-440.02"/>
</a>
</g>
</g>
<!-- Node6 -->
<g id="Node000006" class="node">
<title>Node6</title>
<g id="a_Node000006"><a xlink:href="a05469.html" target="_top" xlink:title=" ">
<polygon fill="white" stroke="#666666" points="273,-810 149,-810 149,-772 273,-772 273,-810"/>
<text text-anchor="start" x="157" y="-798.8" font-family="Helvetica,sans-Serif" font-size="9.00">std::__codecvt_abstract</text>
<text text-anchor="start" x="157" y="-788.8" font-family="Helvetica,sans-Serif" font-size="9.00">_base&lt; char16_t, char,</text>
<text text-anchor="middle" x="211" y="-778.8" font-family="Helvetica,sans-Serif" font-size="9.00"> mbstate_t &gt;</text>
</a>
</g>
</g>
<!-- Node1&#45;&gt;Node6 -->
<g id="edge5_Node000001_Node000006" class="edge">
<title>Node1&#45;&gt;Node6</title>
<g id="a_edge5_Node000001_Node000006"><a xlink:title=" ">
<path fill="none" stroke="#63b8ff" d="M48.58,-440.27C55.95,-505.16 82.75,-714.38 127,-763 133.04,-769.64 140.7,-774.7 148.92,-778.57"/>
<polygon fill="#63b8ff" stroke="#63b8ff" points="52.04,-439.76 47.46,-430.21 45.09,-440.53 52.04,-439.76"/>
</a>
</g>
</g>
<!-- Node8 -->
<g id="Node000008" class="node">
<title>Node8</title>
<g id="a_Node000008"><a xlink:href="a05469.html" target="_top" xlink:title=" ">
<polygon fill="white" stroke="#666666" points="273,-754 149,-754 149,-716 273,-716 273,-754"/>
<text text-anchor="start" x="157" y="-742.8" font-family="Helvetica,sans-Serif" font-size="9.00">std::__codecvt_abstract</text>
<text text-anchor="start" x="157" y="-732.8" font-family="Helvetica,sans-Serif" font-size="9.00">_base&lt; char32_t, char,</text>
<text text-anchor="middle" x="211" y="-722.8" font-family="Helvetica,sans-Serif" font-size="9.00"> mbstate_t &gt;</text>
</a>
</g>
</g>
<!-- Node1&#45;&gt;Node8 -->
<g id="edge7_Node000001_Node000008" class="edge">
<title>Node1&#45;&gt;Node8</title>
<g id="a_edge7_Node000001_Node000008"><a xlink:title=" ">
<path fill="none" stroke="#63b8ff" d="M46.14,-440.34C46.25,-491.15 53.65,-629.81 127,-707 133.08,-713.39 140.66,-718.33 148.75,-722.14"/>
<polygon fill="#63b8ff" stroke="#63b8ff" points="49.64,-440.16 46.21,-430.14 42.64,-440.11 49.64,-440.16"/>
</a>
</g>
</g>
<!-- Node10 -->
<g id="Node000010" class="node">
<title>Node10</title>
<g id="a_Node000010"><a xlink:href="a05469.html" target="_top" xlink:title=" ">
<polygon fill="white" stroke="#666666" points="273,-698 149,-698 149,-660 273,-660 273,-698"/>
<text text-anchor="start" x="157" y="-686.8" font-family="Helvetica,sans-Serif" font-size="9.00">std::__codecvt_abstract</text>
<text text-anchor="start" x="157" y="-676.8" font-family="Helvetica,sans-Serif" font-size="9.00">_base&lt; wchar_t, char,</text>
<text text-anchor="middle" x="211" y="-666.8" font-family="Helvetica,sans-Serif" font-size="9.00"> mbstate_t &gt;</text>
</a>
</g>
</g>
<!-- Node1&#45;&gt;Node10 -->
<g id="edge9_Node000001_Node000010" class="edge">
<title>Node1&#45;&gt;Node10</title>
<g id="a_edge9_Node000001_Node000010"><a xlink:title=" ">
<path fill="none" stroke="#63b8ff" d="M47.73,-440.59C51.53,-484.47 66.8,-591.48 127,-651 133.16,-657.09 140.7,-661.86 148.69,-665.59"/>
<polygon fill="#63b8ff" stroke="#63b8ff" points="51.2,-440.12 46.96,-430.41 44.22,-440.65 51.2,-440.12"/>
</a>
</g>
</g>
<!-- Node12 -->
<g id="Node000012" class="node">
<title>Node12</title>
<g id="a_Node000012"><a xlink:href="a05469.html" target="_top" xlink:title=" ">
<polygon fill="white" stroke="#666666" points="295,-642 127,-642 127,-614 295,-614 295,-642"/>
<text text-anchor="start" x="135" y="-630.8" font-family="Helvetica,sans-Serif" font-size="9.00">std::__codecvt_abstract</text>
<text text-anchor="middle" x="211" y="-620.8" font-family="Helvetica,sans-Serif" font-size="9.00">_base&lt; _Elem, char, mbstate_t &gt;</text>
</a>
</g>
</g>
<!-- Node1&#45;&gt;Node12 -->
<g id="edge11_Node000001_Node000012" class="edge">
<title>Node1&#45;&gt;Node12</title>
<g id="a_edge11_Node000001_Node000012"><a xlink:title=" ">
<path fill="none" stroke="#63b8ff" d="M49.39,-440.39C56.03,-477.92 75.91,-560.7 127,-605 130.95,-608.43 135.38,-611.35 140.07,-613.84"/>
<polygon fill="#63b8ff" stroke="#63b8ff" points="52.81,-439.59 47.74,-430.29 45.9,-440.72 52.81,-439.59"/>
</a>
</g>
</g>
<!-- Node13 -->
<g id="Node000013" class="node">
<title>Node13</title>
<g id="a_Node000013"><a xlink:href="a06177.html" target="_top" xlink:title=" ">
<polygon fill="white" stroke="#666666" points="267.5,-596 154.5,-596 154.5,-568 267.5,-568 267.5,-596"/>
<text text-anchor="start" x="162.5" y="-584.8" font-family="Helvetica,sans-Serif" font-size="9.00">std::__ctype_abstract</text>
<text text-anchor="middle" x="211" y="-574.8" font-family="Helvetica,sans-Serif" font-size="9.00">_base&lt; wchar_t &gt;</text>
</a>
</g>
</g>
<!-- Node1&#45;&gt;Node13 -->
<g id="edge12_Node000001_Node000013" class="edge">
<title>Node1&#45;&gt;Node13</title>
<g id="a_edge12_Node000001_Node000013"><a xlink:title=" ">
<path fill="none" stroke="#63b8ff" d="M52.22,-439.61C62.35,-469.4 86.3,-527.64 127,-559 135.05,-565.21 144.69,-569.74 154.49,-573.05"/>
<polygon fill="#63b8ff" stroke="#63b8ff" points="55.53,-438.45 49.11,-430.02 48.87,-440.61 55.53,-438.45"/>
</a>
</g>
</g>
<!-- Node15 -->
<g id="Node000015" class="node">
<title>Node15</title>
<g id="a_Node000015"><a xlink:href="a05469.html" target="_top" xlink:title="Common base for codecvt functions.">
<polygon fill="white" stroke="#666666" points="280.5,-550 141.5,-550 141.5,-512 280.5,-512 280.5,-550"/>
<text text-anchor="start" x="149.5" y="-538.8" font-family="Helvetica,sans-Serif" font-size="9.00">std::__codecvt_abstract</text>
<text text-anchor="start" x="149.5" y="-528.8" font-family="Helvetica,sans-Serif" font-size="9.00">_base&lt; _InternT, _ExternT,</text>
<text text-anchor="middle" x="211" y="-518.8" font-family="Helvetica,sans-Serif" font-size="9.00"> _StateT &gt;</text>
</a>
</g>
</g>
<!-- Node1&#45;&gt;Node15 -->
<g id="edge14_Node000001_Node000015" class="edge">
<title>Node1&#45;&gt;Node15</title>
<g id="a_edge14_Node000001_Node000015"><a xlink:title=" ">
<path fill="none" stroke="#63b8ff" d="M59.44,-438.38C74,-456.81 99.26,-485.61 127,-503 132.28,-506.31 138,-509.28 143.88,-511.93"/>
<polygon fill="#63b8ff" stroke="#63b8ff" points="62.06,-436.05 53.19,-430.26 56.52,-440.32 62.06,-436.05"/>
</a>
</g>
</g>
<!-- Node19 -->
<g id="Node000019" class="node">
<title>Node19</title>
<g id="a_Node000019"><a xlink:href="a06177.html" target="_top" xlink:title="Common base for ctype facet.">
<polygon fill="white" stroke="#666666" points="267.5,-494 154.5,-494 154.5,-466 267.5,-466 267.5,-494"/>
<text text-anchor="start" x="162.5" y="-482.8" font-family="Helvetica,sans-Serif" font-size="9.00">std::__ctype_abstract</text>
<text text-anchor="middle" x="211" y="-472.8" font-family="Helvetica,sans-Serif" font-size="9.00">_base&lt; _CharT &gt;</text>
</a>
</g>
</g>
<!-- Node1&#45;&gt;Node19 -->
<g id="edge18_Node000001_Node000019" class="edge">
<title>Node1&#45;&gt;Node19</title>
<g id="a_edge18_Node000001_Node000019"><a xlink:title=" ">
<path fill="none" stroke="#63b8ff" d="M74.13,-434.6C89.48,-441.83 109.04,-450.54 127,-457 135.86,-460.19 145.39,-463.2 154.72,-465.93"/>
<polygon fill="#63b8ff" stroke="#63b8ff" points="75.25,-431.25 64.72,-430.1 72.23,-437.57 75.25,-431.25"/>
</a>
</g>
</g>
<!-- Node22 -->
<g id="Node000022" class="node">
<title>Node22</title>
<g id="a_Node000022"><a xlink:href="a06153.html" target="_top" xlink:title="Facet for localized string comparison.">
<polygon fill="white" stroke="#666666" points="270,-448 152,-448 152,-430 270,-430 270,-448"/>
<text text-anchor="middle" x="211" y="-436.8" font-family="Helvetica,sans-Serif" font-size="9.00">std::collate&lt; _CharT &gt;</text>
</a>
</g>
</g>
<!-- Node1&#45;&gt;Node22 -->
<g id="edge21_Node000001_Node000022" class="edge">
<title>Node1&#45;&gt;Node22</title>
<g id="a_edge21_Node000001_Node000022"><a xlink:title=" ">
<path fill="none" stroke="#63b8ff" d="M101.56,-427.06C117.74,-428.84 135.5,-430.8 151.87,-432.6"/>
<polygon fill="#63b8ff" stroke="#63b8ff" points="101.5,-423.53 91.18,-425.92 100.73,-430.49 101.5,-423.53"/>
</a>
</g>
</g>
<!-- Node24 -->
<g id="Node000024" class="node">
<title>Node24</title>
<g id="a_Node000024"><a xlink:href="a06185.html" target="_top" xlink:title="The ctype&lt;char&gt; specialization.">
<polygon fill="white" stroke="#666666" points="263,-412 159,-412 159,-394 263,-394 263,-412"/>
<text text-anchor="middle" x="211" y="-400.8" font-family="Helvetica,sans-Serif" font-size="9.00">std::ctype&lt; char &gt;</text>
</a>
</g>
</g>
<!-- Node1&#45;&gt;Node24 -->
<g id="edge23_Node000001_Node000024" class="edge">
<title>Node1&#45;&gt;Node24</title>
<g id="a_edge23_Node000001_Node000024"><a xlink:title=" ">
<path fill="none" stroke="#63b8ff" d="M101.24,-414.97C119.8,-412.93 140.45,-410.66 158.73,-408.64"/>
<polygon fill="#63b8ff" stroke="#63b8ff" points="100.73,-411.51 91.18,-416.08 101.5,-418.47 100.73,-411.51"/>
</a>
</g>
</g>
<!-- Node26 -->
<g id="Node000026" class="node">
<title>Node26</title>
<g id="a_Node000026"><a xlink:href="a06301.html" target="_top" xlink:title="Primary class template messages.">
<polygon fill="white" stroke="#666666" points="277.5,-376 144.5,-376 144.5,-358 277.5,-358 277.5,-376"/>
<text text-anchor="middle" x="211" y="-364.8" font-family="Helvetica,sans-Serif" font-size="9.00">std::messages&lt; _CharT &gt;</text>
</a>
</g>
</g>
<!-- Node1&#45;&gt;Node26 -->
<g id="edge25_Node000001_Node000026" class="edge">
<title>Node1&#45;&gt;Node26</title>
<g id="a_edge25_Node000001_Node000026"><a xlink:title=" ">
<path fill="none" stroke="#63b8ff" d="M73.39,-407.29C88.78,-399.87 108.62,-391.03 127,-385 137.65,-381.51 149.29,-378.5 160.39,-376"/>
<polygon fill="#63b8ff" stroke="#63b8ff" points="71.42,-404.36 63.99,-411.91 74.5,-410.64 71.42,-404.36"/>
</a>
</g>
</g>
<!-- Node28 -->
<g id="Node000028" class="node">
<title>Node28</title>
<g id="a_Node000028"><a xlink:href="a06289.html" target="_top" xlink:title="Primary class template money_get.">
<polygon fill="white" stroke="#666666" points="276.5,-340 145.5,-340 145.5,-312 276.5,-312 276.5,-340"/>
<text text-anchor="start" x="153.5" y="-328.8" font-family="Helvetica,sans-Serif" font-size="9.00">std::money_get&lt; _CharT,</text>
<text text-anchor="middle" x="211" y="-318.8" font-family="Helvetica,sans-Serif" font-size="9.00"> _InIter &gt;</text>
</a>
</g>
</g>
<!-- Node1&#45;&gt;Node28 -->
<g id="edge27_Node000001_Node000028" class="edge">
<title>Node1&#45;&gt;Node28</title>
<g id="a_edge27_Node000001_Node000028"><a xlink:title=" ">
<path fill="none" stroke="#63b8ff" d="M61.32,-403.79C76.31,-387.42 100.94,-363.24 127,-349 133.3,-345.56 140.15,-342.6 147.13,-340.06"/>
<polygon fill="#63b8ff" stroke="#63b8ff" points="58.45,-401.75 54.4,-411.54 63.67,-406.41 58.45,-401.75"/>
</a>
</g>
</g>
<!-- Node29 -->
<g id="Node000029" class="node">
<title>Node29</title>
<g id="a_Node000029"><a xlink:href="a06293.html" target="_top" xlink:title="Primary class template money_put.">
<polygon fill="white" stroke="#666666" points="277,-294 145,-294 145,-266 277,-266 277,-294"/>
<text text-anchor="start" x="153" y="-282.8" font-family="Helvetica,sans-Serif" font-size="9.00">std::money_put&lt; _CharT,</text>
<text text-anchor="middle" x="211" y="-272.8" font-family="Helvetica,sans-Serif" font-size="9.00"> _OutIter &gt;</text>
</a>
</g>
</g>
<!-- Node1&#45;&gt;Node29 -->
<g id="edge28_Node000001_Node000029" class="edge">
<title>Node1&#45;&gt;Node29</title>
<g id="a_edge28_Node000001_Node000029"><a xlink:title=" ">
<path fill="none" stroke="#63b8ff" d="M54.13,-402.5C65.87,-376.35 90.86,-328.87 127,-303 132.47,-299.08 138.58,-295.83 144.94,-293.14"/>
<polygon fill="#63b8ff" stroke="#63b8ff" points="50.91,-401.12 50.16,-411.69 57.34,-403.9 50.91,-401.12"/>
</a>
</g>
</g>
<!-- Node30 -->
<g id="Node000030" class="node">
<title>Node30</title>
<g id="a_Node000030"><a xlink:href="a06281.html" target="_top" xlink:title="Primary class template moneypunct.">
<polygon fill="white" stroke="#666666" points="280.5,-248 141.5,-248 141.5,-220 280.5,-220 280.5,-248"/>
<text text-anchor="start" x="149.5" y="-236.8" font-family="Helvetica,sans-Serif" font-size="9.00">std::moneypunct&lt; _CharT,</text>
<text text-anchor="middle" x="211" y="-226.8" font-family="Helvetica,sans-Serif" font-size="9.00"> _Intl &gt;</text>
</a>
</g>
</g>
<!-- Node1&#45;&gt;Node30 -->
<g id="edge29_Node000001_Node000030" class="edge">
<title>Node1&#45;&gt;Node30</title>
<g id="a_edge29_Node000001_Node000030"><a xlink:title=" ">
<path fill="none" stroke="#63b8ff" d="M50.48,-401.84C58.63,-367.53 80.5,-295.57 127,-257 131.37,-253.37 136.28,-250.32 141.46,-247.74"/>
<polygon fill="#63b8ff" stroke="#63b8ff" points="46.99,-401.41 48.23,-411.94 53.83,-402.94 46.99,-401.41"/>
</a>
</g>
</g>
<!-- Node32 -->
<g id="Node000032" class="node">
<title>Node32</title>
<g id="a_Node000032"><a xlink:href="a06221.html" target="_top" xlink:title="Primary class template num_get.">
<polygon fill="white" stroke="#666666" points="272,-202 150,-202 150,-174 272,-174 272,-202"/>
<text text-anchor="start" x="158" y="-190.8" font-family="Helvetica,sans-Serif" font-size="9.00">std::num_get&lt; _CharT,</text>
<text text-anchor="middle" x="211" y="-180.8" font-family="Helvetica,sans-Serif" font-size="9.00"> _InIter &gt;</text>
</a>
</g>
</g>
<!-- Node1&#45;&gt;Node32 -->
<g id="edge31_Node000001_Node000032" class="edge">
<title>Node1&#45;&gt;Node32</title>
<g id="a_edge31_Node000001_Node000032"><a xlink:title=" ">
<path fill="none" stroke="#63b8ff" d="M48.19,-401.77C52.86,-360.53 69.68,-263.08 127,-211 133.53,-205.07 141.46,-200.65 149.79,-197.36"/>
<polygon fill="#63b8ff" stroke="#63b8ff" points="44.69,-401.53 47.17,-411.83 51.66,-402.23 44.69,-401.53"/>
</a>
</g>
</g>
<!-- Node33 -->
<g id="Node000033" class="node">
<title>Node33</title>
<g id="a_Node000033"><a xlink:href="a06225.html" target="_top" xlink:title="Primary class template num_put.">
<polygon fill="white" stroke="#666666" points="272,-156 150,-156 150,-128 272,-128 272,-156"/>
<text text-anchor="start" x="158" y="-144.8" font-family="Helvetica,sans-Serif" font-size="9.00">std::num_put&lt; _CharT,</text>
<text text-anchor="middle" x="211" y="-134.8" font-family="Helvetica,sans-Serif" font-size="9.00"> _OutIter &gt;</text>
</a>
</g>
</g>
<!-- Node1&#45;&gt;Node33 -->
<g id="edge32_Node000001_Node000033" class="edge">
<title>Node1&#45;&gt;Node33</title>
<g id="a_edge32_Node000001_Node000033"><a xlink:title=" ">
<path fill="none" stroke="#63b8ff" d="M46.65,-401.89C48.1,-354.59 58.59,-231.1 127,-165 133.45,-158.77 141.44,-154.19 149.89,-150.84"/>
<polygon fill="#63b8ff" stroke="#63b8ff" points="43.15,-401.9 46.45,-411.96 50.15,-402.04 43.15,-401.9"/>
</a>
</g>
</g>
<!-- Node34 -->
<g id="Node000034" class="node">
<title>Node34</title>
<g id="a_Node000034"><a xlink:href="a06213.html" target="_top" xlink:title="Primary class template numpunct.">
<polygon fill="white" stroke="#666666" points="279.5,-110 142.5,-110 142.5,-92 279.5,-92 279.5,-110"/>
<text text-anchor="middle" x="211" y="-98.8" font-family="Helvetica,sans-Serif" font-size="9.00">std::numpunct&lt; _CharT &gt;</text>
</a>
</g>
</g>
<!-- Node1&#45;&gt;Node34 -->
<g id="edge33_Node000001_Node000034" class="edge">
<title>Node1&#45;&gt;Node34</title>
<g id="a_edge33_Node000001_Node000034"><a xlink:title=" ">
<path fill="none" stroke="#63b8ff" d="M48.98,-401.89C57.16,-341.91 85.14,-158.94 127,-119 131.48,-114.73 136.72,-111.37 142.36,-108.74"/>
<polygon fill="#63b8ff" stroke="#63b8ff" points="45.5,-401.51 47.65,-411.89 52.44,-402.44 45.5,-401.51"/>
</a>
</g>
</g>
<!-- Node36 -->
<g id="Node000036" class="node">
<title>Node36</title>
<g id="a_Node000036"><a xlink:href="a06253.html" target="_top" xlink:title="Primary class template time_get.">
<polygon fill="white" stroke="#666666" points="271.5,-74 150.5,-74 150.5,-46 271.5,-46 271.5,-74"/>
<text text-anchor="start" x="158.5" y="-62.8" font-family="Helvetica,sans-Serif" font-size="9.00">std::time_get&lt; _CharT,</text>
<text text-anchor="middle" x="211" y="-52.8" font-family="Helvetica,sans-Serif" font-size="9.00"> _InIter &gt;</text>
</a>
</g>
</g>
<!-- Node1&#45;&gt;Node36 -->
<g id="edge35_Node000001_Node000036" class="edge">
<title>Node1&#45;&gt;Node36</title>
<g id="a_edge35_Node000001_Node000036"><a xlink:title=" ">
<path fill="none" stroke="#63b8ff" d="M48.51,-401.86C55.67,-337.43 81.87,-129.8 127,-83 133.43,-76.33 141.62,-71.54 150.33,-68.11"/>
<polygon fill="#63b8ff" stroke="#63b8ff" points="45.03,-401.54 47.43,-411.85 51.99,-402.29 45.03,-401.54"/>
</a>
</g>
</g>
<!-- Node38 -->
<g id="Node000038" class="node">
<title>Node38</title>
<g id="a_Node000038"><a xlink:href="a06261.html" target="_top" xlink:title="Primary class template time_put.">
<polygon fill="white" stroke="#666666" points="272,-28 150,-28 150,0 272,0 272,-28"/>
<text text-anchor="start" x="158" y="-16.8" font-family="Helvetica,sans-Serif" font-size="9.00">std::time_put&lt; _CharT,</text>
<text text-anchor="middle" x="211" y="-6.8" font-family="Helvetica,sans-Serif" font-size="9.00"> _OutIter &gt;</text>
</a>
</g>
</g>
<!-- Node1&#45;&gt;Node38 -->
<g id="edge37_Node000001_Node000038" class="edge">
<title>Node1&#45;&gt;Node38</title>
<g id="a_edge37_Node000001_Node000038"><a xlink:title=" ">
<path fill="none" stroke="#63b8ff" d="M47.95,-401.58C53.57,-331.25 76.23,-91.11 127,-37 133.24,-30.35 141.22,-25.56 149.76,-22.13"/>
<polygon fill="#63b8ff" stroke="#63b8ff" points="44.45,-401.45 47.16,-411.69 51.43,-401.99 44.45,-401.45"/>
</a>
</g>
</g>
<!-- Node3 -->
<g id="Node000003" class="node">
<title>Node3</title>
<g id="a_Node000003"><a xlink:href="a11925.html" target="_top" xlink:title="codecvt&lt;InternT, _ExternT, encoding_state&gt; specialization.">
<polygon fill="white" stroke="#666666" points="476,-907 331,-907 331,-879 476,-879 476,-907"/>
<text text-anchor="start" x="339" y="-895.8" font-family="Helvetica,sans-Serif" font-size="9.00">std::codecvt&lt; _InternT,</text>
<text text-anchor="middle" x="403.5" y="-885.8" font-family="Helvetica,sans-Serif" font-size="9.00"> _ExternT, encoding_state &gt;</text>
</a>
</g>
</g>
<!-- Node2&#45;&gt;Node3 -->
<g id="edge2_Node000002_Node000003" class="edge">
<title>Node2&#45;&gt;Node3</title>
<g id="a_edge2_Node000002_Node000003"><a xlink:title=" ">
<path fill="none" stroke="#63b8ff" d="M290.57,-893C303.88,-893 317.63,-893 330.75,-893"/>
<polygon fill="#63b8ff" stroke="#63b8ff" points="290.51,-889.5 280.51,-893 290.51,-896.5 290.51,-889.5"/>
</a>
</g>
</g>
<!-- Node5 -->
<g id="Node000005" class="node">
<title>Node5</title>
<g id="a_Node000005"><a xlink:href="a05477.html" target="_top" xlink:title="class codecvt&lt;char, char, mbstate_t&gt; specialization.">
<polygon fill="white" stroke="#666666" points="457,-856 350,-856 350,-828 457,-828 457,-856"/>
<text text-anchor="start" x="358" y="-844.8" font-family="Helvetica,sans-Serif" font-size="9.00">std::codecvt&lt; char,</text>
<text text-anchor="middle" x="403.5" y="-834.8" font-family="Helvetica,sans-Serif" font-size="9.00"> char, mbstate_t &gt;</text>
</a>
</g>
</g>
<!-- Node4&#45;&gt;Node5 -->
<g id="edge4_Node000004_Node000005" class="edge">
<title>Node4&#45;&gt;Node5</title>
<g id="a_edge4_Node000004_Node000005"><a xlink:title=" ">
<path fill="none" stroke="#63b8ff" d="M301.89,-842C318.36,-842 335.05,-842 349.97,-842"/>
<polygon fill="#63b8ff" stroke="#63b8ff" points="301.69,-838.5 291.69,-842 301.69,-845.5 301.69,-838.5"/>
</a>
</g>
</g>
<!-- Node7 -->
<g id="Node000007" class="node">
<title>Node7</title>
<g id="a_Node000007"><a xlink:href="a05485.html" target="_top" xlink:title="Class codecvt&lt;char16_t, char, mbstate_t&gt; specialization.">
<polygon fill="white" stroke="#666666" points="461.5,-805 345.5,-805 345.5,-777 461.5,-777 461.5,-805"/>
<text text-anchor="start" x="353.5" y="-793.8" font-family="Helvetica,sans-Serif" font-size="9.00">std::codecvt&lt; char16</text>
<text text-anchor="middle" x="403.5" y="-783.8" font-family="Helvetica,sans-Serif" font-size="9.00">_t, char, mbstate_t &gt;</text>
</a>
</g>
</g>
<!-- Node6&#45;&gt;Node7 -->
<g id="edge6_Node000006_Node000007" class="edge">
<title>Node6&#45;&gt;Node7</title>
<g id="a_edge6_Node000006_Node000007"><a xlink:title=" ">
<path fill="none" stroke="#63b8ff" d="M283.29,-791C303.77,-791 325.83,-791 345.34,-791"/>
<polygon fill="#63b8ff" stroke="#63b8ff" points="283.06,-787.5 273.06,-791 283.06,-794.5 283.06,-787.5"/>
</a>
</g>
</g>
<!-- Node9 -->
<g id="Node000009" class="node">
<title>Node9</title>
<g id="a_Node000009"><a xlink:href="a05489.html" target="_top" xlink:title="Class codecvt&lt;char32_t, char, mbstate_t&gt; specialization.">
<polygon fill="white" stroke="#666666" points="461.5,-749 345.5,-749 345.5,-721 461.5,-721 461.5,-749"/>
<text text-anchor="start" x="353.5" y="-737.8" font-family="Helvetica,sans-Serif" font-size="9.00">std::codecvt&lt; char32</text>
<text text-anchor="middle" x="403.5" y="-727.8" font-family="Helvetica,sans-Serif" font-size="9.00">_t, char, mbstate_t &gt;</text>
</a>
</g>
</g>
<!-- Node8&#45;&gt;Node9 -->
<g id="edge8_Node000008_Node000009" class="edge">
<title>Node8&#45;&gt;Node9</title>
<g id="a_edge8_Node000008_Node000009"><a xlink:title=" ">
<path fill="none" stroke="#63b8ff" d="M283.29,-735C303.77,-735 325.83,-735 345.34,-735"/>
<polygon fill="#63b8ff" stroke="#63b8ff" points="283.06,-731.5 273.06,-735 283.06,-738.5 283.06,-731.5"/>
</a>
</g>
</g>
<!-- Node11 -->
<g id="Node000011" class="node">
<title>Node11</title>
<g id="a_Node000011"><a xlink:href="a05481.html" target="_top" xlink:title="Class codecvt&lt;wchar_t, char, mbstate_t&gt; specialization.">
<polygon fill="white" stroke="#666666" points="460,-693 347,-693 347,-665 460,-665 460,-693"/>
<text text-anchor="start" x="355" y="-681.8" font-family="Helvetica,sans-Serif" font-size="9.00">std::codecvt&lt; wchar</text>
<text text-anchor="middle" x="403.5" y="-671.8" font-family="Helvetica,sans-Serif" font-size="9.00">_t, char, mbstate_t &gt;</text>
</a>
</g>
</g>
<!-- Node10&#45;&gt;Node11 -->
<g id="edge10_Node000010_Node000011" class="edge">
<title>Node10&#45;&gt;Node11</title>
<g id="a_edge10_Node000010_Node000011"><a xlink:title=" ">
<path fill="none" stroke="#63b8ff" d="M283.24,-679C304.3,-679 327.03,-679 346.94,-679"/>
<polygon fill="#63b8ff" stroke="#63b8ff" points="283.06,-675.5 273.06,-679 283.06,-682.5 283.06,-675.5"/>
</a>
</g>
</g>
<!-- Node14 -->
<g id="Node000014" class="node">
<title>Node14</title>
<g id="a_Node000014"><a xlink:href="a06189.html" target="_top" xlink:title="The ctype&lt;wchar_t&gt; specialization.">
<polygon fill="white" stroke="#666666" points="463,-622 344,-622 344,-604 463,-604 463,-622"/>
<text text-anchor="middle" x="403.5" y="-610.8" font-family="Helvetica,sans-Serif" font-size="9.00">std::ctype&lt; wchar_t &gt;</text>
</a>
</g>
</g>
<!-- Node13&#45;&gt;Node14 -->
<g id="edge13_Node000013_Node000014" class="edge">
<title>Node13&#45;&gt;Node14</title>
<g id="a_edge13_Node000013_Node000014"><a xlink:title=" ">
<path fill="none" stroke="#63b8ff" d="M277.5,-592.66C300.18,-596.35 325.36,-600.45 347.15,-603.99"/>
<polygon fill="#63b8ff" stroke="#63b8ff" points="278.04,-589.2 267.61,-591.05 276.92,-596.11 278.04,-589.2"/>
</a>
</g>
</g>
<!-- Node16 -->
<g id="Node000016" class="node">
<title>Node16</title>
<g id="a_Node000016"><a xlink:href="a05473.html" target="_top" xlink:title=" ">
<polygon fill="white" stroke="#666666" points="460,-586 347,-586 347,-558 460,-558 460,-586"/>
<text text-anchor="start" x="355" y="-574.8" font-family="Helvetica,sans-Serif" font-size="9.00">std::codecvt&lt; _Elem,</text>
<text text-anchor="middle" x="403.5" y="-564.8" font-family="Helvetica,sans-Serif" font-size="9.00"> char, mbstate_t &gt;</text>
</a>
</g>
</g>
<!-- Node15&#45;&gt;Node16 -->
<g id="edge15_Node000015_Node000016" class="edge">
<title>Node15&#45;&gt;Node16</title>
<g id="a_edge15_Node000015_Node000016"><a xlink:title=" ">
<path fill="none" stroke="#63b8ff" d="M290.31,-547.85C309.26,-551.93 329.13,-556.21 346.8,-560.01"/>
<polygon fill="#63b8ff" stroke="#63b8ff" points="291.02,-544.43 280.51,-545.74 289.55,-551.27 291.02,-544.43"/>
</a>
</g>
</g>
<!-- Node17 -->
<g id="Node000017" class="node">
<title>Node17</title>
<g id="a_Node000017"><a xlink:href="a05473.html" target="_top" xlink:title="Primary class template codecvt.">
<polygon fill="white" stroke="#666666" points="465.5,-540 341.5,-540 341.5,-512 465.5,-512 465.5,-540"/>
<text text-anchor="start" x="349.5" y="-528.8" font-family="Helvetica,sans-Serif" font-size="9.00">std::codecvt&lt; _InternT,</text>
<text text-anchor="middle" x="403.5" y="-518.8" font-family="Helvetica,sans-Serif" font-size="9.00"> _ExternT, _StateT &gt;</text>
</a>
</g>
</g>
<!-- Node15&#45;&gt;Node17 -->
<g id="edge16_Node000015_Node000017" class="edge">
<title>Node15&#45;&gt;Node17</title>
<g id="a_edge16_Node000015_Node000017"><a xlink:title=" ">
<path fill="none" stroke="#63b8ff" d="M290.87,-528.93C307.68,-528.49 325.2,-528.03 341.24,-527.61"/>
<polygon fill="#63b8ff" stroke="#63b8ff" points="290.41,-525.44 280.51,-529.2 290.59,-532.44 290.41,-525.44"/>
</a>
</g>
</g>
<!-- Node18 -->
<g id="Node000018" class="node">
<title>Node18</title>
<g id="a_Node000018"><a xlink:href="a05493.html" target="_top" xlink:title="class codecvt_byname [22.2.1.6].">
<polygon fill="white" stroke="#666666" points="626,-547 512,-547 512,-509 626,-509 626,-547"/>
<text text-anchor="start" x="520" y="-535.8" font-family="Helvetica,sans-Serif" font-size="9.00">std::codecvt_byname</text>
<text text-anchor="start" x="520" y="-525.8" font-family="Helvetica,sans-Serif" font-size="9.00">&lt; _InternT, _ExternT,</text>
<text text-anchor="middle" x="569" y="-515.8" font-family="Helvetica,sans-Serif" font-size="9.00"> _StateT &gt;</text>
</a>
</g>
</g>
<!-- Node17&#45;&gt;Node18 -->
<g id="edge17_Node000017_Node000018" class="edge">
<title>Node17&#45;&gt;Node18</title>
<g id="a_edge17_Node000017_Node000018"><a xlink:title=" ">
<path fill="none" stroke="#63b8ff" d="M475.9,-526.87C487.97,-527.02 500.36,-527.17 511.97,-527.31"/>
<polygon fill="#63b8ff" stroke="#63b8ff" points="475.89,-523.37 465.85,-526.75 475.8,-530.37 475.89,-523.37"/>
</a>
</g>
</g>
<!-- Node20 -->
<g id="Node000020" class="node">
<title>Node20</title>
<g id="a_Node000020"><a xlink:href="a06181.html" target="_top" xlink:title="Primary class template ctype facet.">
<polygon fill="white" stroke="#666666" points="460.5,-489 346.5,-489 346.5,-471 460.5,-471 460.5,-489"/>
<text text-anchor="middle" x="403.5" y="-477.8" font-family="Helvetica,sans-Serif" font-size="9.00">std::ctype&lt; _CharT &gt;</text>
</a>
</g>
</g>
<!-- Node19&#45;&gt;Node20 -->
<g id="edge19_Node000019_Node000020" class="edge">
<title>Node19&#45;&gt;Node20</title>
<g id="a_edge19_Node000019_Node000020"><a xlink:title=" ">
<path fill="none" stroke="#63b8ff" d="M277.71,-480C300.11,-480 324.92,-480 346.49,-480"/>
<polygon fill="#63b8ff" stroke="#63b8ff" points="277.61,-476.5 267.61,-480 277.61,-483.5 277.61,-476.5"/>
</a>
</g>
</g>
<!-- Node21 -->
<g id="Node000021" class="node">
<title>Node21</title>
<g id="a_Node000021"><a xlink:href="a06193.html" target="_top" xlink:title="class ctype_byname [22.2.1.2].">
<polygon fill="white" stroke="#666666" points="624.5,-491 513.5,-491 513.5,-463 624.5,-463 624.5,-491"/>
<text text-anchor="start" x="521.5" y="-479.8" font-family="Helvetica,sans-Serif" font-size="9.00">std::ctype_byname&lt;</text>
<text text-anchor="middle" x="569" y="-469.8" font-family="Helvetica,sans-Serif" font-size="9.00"> _CharT &gt;</text>
</a>
</g>
</g>
<!-- Node20&#45;&gt;Node21 -->
<g id="edge20_Node000020_Node000021" class="edge">
<title>Node20&#45;&gt;Node21</title>
<g id="a_edge20_Node000020_Node000021"><a xlink:title=" ">
<path fill="none" stroke="#63b8ff" d="M470.89,-478.78C484.97,-478.52 499.69,-478.25 513.29,-478"/>
<polygon fill="#63b8ff" stroke="#63b8ff" points="470.7,-475.28 460.77,-478.97 470.83,-482.28 470.7,-475.28"/>
</a>
</g>
</g>
<!-- Node23 -->
<g id="Node000023" class="node">
<title>Node23</title>
<g id="a_Node000023"><a xlink:href="a06157.html" target="_top" xlink:title="class collate_byname [22.2.4.2].">
<polygon fill="white" stroke="#666666" points="457,-453 350,-453 350,-425 457,-425 457,-453"/>
<text text-anchor="start" x="358" y="-441.8" font-family="Helvetica,sans-Serif" font-size="9.00">std::collate_byname</text>
<text text-anchor="middle" x="403.5" y="-431.8" font-family="Helvetica,sans-Serif" font-size="9.00">&lt; _CharT &gt;</text>
</a>
</g>
</g>
<!-- Node22&#45;&gt;Node23 -->
<g id="edge22_Node000022_Node000023" class="edge">
<title>Node22&#45;&gt;Node23</title>
<g id="a_edge22_Node000022_Node000023"><a xlink:title=" ">
<path fill="none" stroke="#63b8ff" d="M280.2,-439C303.11,-439 328.31,-439 349.85,-439"/>
<polygon fill="#63b8ff" stroke="#63b8ff" points="280.19,-435.5 270.19,-439 280.19,-442.5 280.19,-435.5"/>
</a>
</g>
</g>
<!-- Node25 -->
<g id="Node000025" class="node">
<title>Node25</title>
<g id="a_Node000025"><a xlink:href="a06197.html" target="_top" xlink:title="22.2.1.4 Class ctype_byname specializations.">
<polygon fill="white" stroke="#666666" points="459,-407 348,-407 348,-379 459,-379 459,-407"/>
<text text-anchor="start" x="356" y="-395.8" font-family="Helvetica,sans-Serif" font-size="9.00">std::ctype_byname&lt;</text>
<text text-anchor="middle" x="403.5" y="-385.8" font-family="Helvetica,sans-Serif" font-size="9.00"> char &gt;</text>
</a>
</g>
</g>
<!-- Node24&#45;&gt;Node25 -->
<g id="edge24_Node000024_Node000025" class="edge">
<title>Node24&#45;&gt;Node25</title>
<g id="a_edge24_Node000024_Node000025"><a xlink:title=" ">
<path fill="none" stroke="#63b8ff" d="M273.13,-399.79C297.19,-398.53 324.6,-397.09 347.97,-395.86"/>
<polygon fill="#63b8ff" stroke="#63b8ff" points="272.85,-396.3 263.05,-400.32 273.22,-403.29 272.85,-396.3"/>
</a>
</g>
</g>
<!-- Node27 -->
<g id="Node000027" class="node">
<title>Node27</title>
<g id="a_Node000027"><a xlink:href="a06305.html" target="_top" xlink:title="class messages_byname [22.2.7.2].">
<polygon fill="white" stroke="#666666" points="464.5,-361 342.5,-361 342.5,-333 464.5,-333 464.5,-361"/>
<text text-anchor="start" x="350.5" y="-349.8" font-family="Helvetica,sans-Serif" font-size="9.00">std::messages_byname</text>
<text text-anchor="middle" x="403.5" y="-339.8" font-family="Helvetica,sans-Serif" font-size="9.00">&lt; _CharT &gt;</text>
</a>
</g>
</g>
<!-- Node26&#45;&gt;Node27 -->
<g id="edge26_Node000026_Node000027" class="edge">
<title>Node26&#45;&gt;Node27</title>
<g id="a_edge26_Node000026_Node000027"><a xlink:title=" ">
<path fill="none" stroke="#63b8ff" d="M287.54,-359.07C305.71,-357.16 324.89,-355.15 342.26,-353.32"/>
<polygon fill="#63b8ff" stroke="#63b8ff" points="287.14,-355.59 277.56,-360.12 287.87,-362.55 287.14,-355.59"/>
</a>
</g>
</g>
<!-- Node31 -->
<g id="Node000031" class="node">
<title>Node31</title>
<g id="a_Node000031"><a xlink:href="a06285.html" target="_top" xlink:title="class moneypunct_byname [22.2.6.4].">
<polygon fill="white" stroke="#666666" points="471.5,-248 335.5,-248 335.5,-220 471.5,-220 471.5,-248"/>
<text text-anchor="start" x="343.5" y="-236.8" font-family="Helvetica,sans-Serif" font-size="9.00">std::moneypunct_byname</text>
<text text-anchor="middle" x="403.5" y="-226.8" font-family="Helvetica,sans-Serif" font-size="9.00">&lt; _CharT, _Intl &gt;</text>
</a>
</g>
</g>
<!-- Node30&#45;&gt;Node31 -->
<g id="edge30_Node000030_Node000031" class="edge">
<title>Node30&#45;&gt;Node31</title>
<g id="a_edge30_Node000030_Node000031"><a xlink:title=" ">
<path fill="none" stroke="#63b8ff" d="M290.65,-234C305.46,-234 320.82,-234 335.24,-234"/>
<polygon fill="#63b8ff" stroke="#63b8ff" points="290.51,-230.5 280.51,-234 290.51,-237.5 290.51,-230.5"/>
</a>
</g>
</g>
<!-- Node35 -->
<g id="Node000035" class="node">
<title>Node35</title>
<g id="a_Node000035"><a xlink:href="a06217.html" target="_top" xlink:title="class numpunct_byname [22.2.3.2].">
<polygon fill="white" stroke="#666666" points="466.5,-120 340.5,-120 340.5,-92 466.5,-92 466.5,-120"/>
<text text-anchor="start" x="348.5" y="-108.8" font-family="Helvetica,sans-Serif" font-size="9.00">std::numpunct_byname</text>
<text text-anchor="middle" x="403.5" y="-98.8" font-family="Helvetica,sans-Serif" font-size="9.00">&lt; _CharT &gt;</text>
</a>
</g>
</g>
<!-- Node34&#45;&gt;Node35 -->
<g id="edge34_Node000034_Node000035" class="edge">
<title>Node34&#45;&gt;Node35</title>
<g id="a_edge34_Node000034_Node000035"><a xlink:title=" ">
<path fill="none" stroke="#63b8ff" d="M290.04,-103.05C306.82,-103.49 324.34,-103.95 340.42,-104.37"/>
<polygon fill="#63b8ff" stroke="#63b8ff" points="289.79,-99.54 279.7,-102.78 289.6,-106.54 289.79,-99.54"/>
</a>
</g>
</g>
<!-- Node37 -->
<g id="Node000037" class="node">
<title>Node37</title>
<g id="a_Node000037"><a xlink:href="a06257.html" target="_top" xlink:title="class time_get_byname [22.2.5.2].">
<polygon fill="white" stroke="#666666" points="462.5,-74 344.5,-74 344.5,-46 462.5,-46 462.5,-74"/>
<text text-anchor="start" x="352.5" y="-62.8" font-family="Helvetica,sans-Serif" font-size="9.00">std::time_get_byname</text>
<text text-anchor="middle" x="403.5" y="-52.8" font-family="Helvetica,sans-Serif" font-size="9.00">&lt; _CharT, _InIter &gt;</text>
</a>
</g>
</g>
<!-- Node36&#45;&gt;Node37 -->
<g id="edge36_Node000036_Node000037" class="edge">
<title>Node36&#45;&gt;Node37</title>
<g id="a_edge36_Node000036_Node000037"><a xlink:title=" ">
<path fill="none" stroke="#63b8ff" d="M281.97,-60C302.44,-60 324.6,-60 344.26,-60"/>
<polygon fill="#63b8ff" stroke="#63b8ff" points="281.75,-56.5 271.75,-60 281.75,-63.5 281.75,-56.5"/>
</a>
</g>
</g>
<!-- Node39 -->
<g id="Node000039" class="node">
<title>Node39</title>
<g id="a_Node000039"><a xlink:href="a06265.html" target="_top" xlink:title="class time_put_byname [22.2.5.4].">
<polygon fill="white" stroke="#666666" points="463,-28 344,-28 344,0 463,0 463,-28"/>
<text text-anchor="start" x="352" y="-16.8" font-family="Helvetica,sans-Serif" font-size="9.00">std::time_put_byname</text>
<text text-anchor="middle" x="403.5" y="-6.8" font-family="Helvetica,sans-Serif" font-size="9.00">&lt; _CharT, _OutIter &gt;</text>
</a>
</g>
</g>
<!-- Node38&#45;&gt;Node39 -->
<g id="edge38_Node000038_Node000039" class="edge">
<title>Node38&#45;&gt;Node39</title>
<g id="a_edge38_Node000038_Node000039"><a xlink:title=" ">
<path fill="none" stroke="#63b8ff" d="M282.12,-14C302.38,-14 324.28,-14 343.77,-14"/>
<polygon fill="#63b8ff" stroke="#63b8ff" points="282.01,-10.5 272.01,-14 282.01,-17.5 282.01,-10.5"/>
</a>
</g>
</g>
</g>
</svg>

<g id="navigator" transform="translate(0 0)" fill="#404254">
  <rect fill="#f2f5e9" fill-opacity="0.5" stroke="#606060" stroke-width=".5" x="0" y="0" width="60" height="60"/>
  <use id="zoomplus" xlink:href="#zoomPlus" x="17" y="9" onmousedown="handleZoom(evt,'in')"/>
  <use id="zoomminus" xlink:href="#zoomMin" x="42" y="9" onmousedown="handleZoom(evt,'out')"/>
  <use id="reset" xlink:href="#resetDef" x="30" y="36" onmousedown="handleReset()"/>
   <use id="arrowup" xlink:href="#arrowUp" x="0" y="0" onmousedown="handlePan(0,-1)"/>
  <use id="arrowright" xlink:href="#arrowRight" x="0" y="0" onmousedown="handlePan(1,0)"/>
  <use id="arrowdown" xlink:href="#arrowDown" x="0" y="0" onmousedown="handlePan(0,1)"/>
  <use id="arrowleft" xlink:href="#arrowLeft" x="0" y="0" onmousedown="handlePan(-1,0)"/>
</g>
<svg viewBox="0 0 15 15" width="100%" height="30px" preserveAspectRatio="xMaxYMin meet">
 <g id="arrow_out" transform="scale(0.3 0.3)">
  <a xlink:href="a06140_org.svg" target="_base">
   <rect id="button" ry="5" rx="5" y="6" x="6" height="38" width="38"
        fill="#f2f5e9" fill-opacity="0.5" stroke="#606060" stroke-width="1.0"/>
   <path id="arrow"
     d="M 11.500037,31.436501 C 11.940474,20.09759 22.043105,11.32322 32.158766,21.979434 L 37.068811,17.246167 C 37.068811,17.246167 37.088388,32 37.088388,32 L 22.160133,31.978069 C 22.160133,31.978069 26.997745,27.140456 26.997745,27.140456 C 18.528582,18.264221 13.291696,25.230495 11.500037,31.436501 z"
     style="fill:#404040;"/>
  </a>
 </g>
</svg>

<style type='text/css'>
<![CDATA[
[data-mouse-over-selected='false'] { opacity: 0.7; }
[data-mouse-over-selected='true']  { opacity: 1.0; }
]]>
</style>
<script type="application/ecmascript"><![CDATA[
document.addEventListener('DOMContentLoaded', (event) => {
  highlightEdges();
  highlightAdjacentNodes();
});
]]></script>
</svg>
