<?xml version="1.0" encoding="UTF-8" standalone="no"?>
<!DOCTYPE svg PUBLIC "-//W3C//DTD SVG 1.1//EN"
 "http://www.w3.org/Graphics/SVG/1.1/DTD/svg11.dtd">
<!-- Generated by graphviz version 2.43.0 (0)
 -->
<!-- Title: std::ctype&lt; wchar_t &gt; Pages: 1 -->
<svg width="206pt" height="144pt"
 viewBox="0.00 0.00 205.50 144.00" xmlns="http://www.w3.org/2000/svg" xmlns:xlink="http://www.w3.org/1999/xlink">
<g id="graph0" class="graph" transform="scale(1 1) rotate(0) translate(4 140)">
<title>std::ctype&lt; wchar_t &gt;</title>
<!-- Node1 -->
<g id="Node000001" class="node">
<title>Node1</title>
<g id="a_Node000001"><a xlink:title="The ctype&lt;wchar_t&gt; specialization.">
<polygon fill="#999999" stroke="#666666" points="159,-18 40,-18 40,0 159,0 159,-18"/>
<text text-anchor="middle" x="99.5" y="-6.8" font-family="Helvetica,sans-Serif" font-size="9.00">std::ctype&lt; wchar_t &gt;</text>
</a>
</g>
</g>
<!-- Node2 -->
<g id="Node000002" class="node">
<title>Node2</title>
<g id="a_Node000002"><a xlink:href="a06177.html" target="_top" xlink:title=" ">
<polygon fill="white" stroke="#666666" points="156,-82 43,-82 43,-54 156,-54 156,-82"/>
<text text-anchor="start" x="51" y="-70.8" font-family="Helvetica,sans-Serif" font-size="9.00">std::__ctype_abstract</text>
<text text-anchor="middle" x="99.5" y="-60.8" font-family="Helvetica,sans-Serif" font-size="9.00">_base&lt; wchar_t &gt;</text>
</a>
</g>
</g>
<!-- Node2&#45;&gt;Node1 -->
<g id="edge1_Node000001_Node000002" class="edge">
<title>Node2&#45;&gt;Node1</title>
<g id="a_edge1_Node000001_Node000002"><a xlink:title=" ">
<path fill="none" stroke="#63b8ff" d="M99.5,-43.66C99.5,-34.55 99.5,-24.72 99.5,-18.05"/>
<polygon fill="#63b8ff" stroke="#63b8ff" points="96,-43.78 99.5,-53.78 103,-43.78 96,-43.78"/>
</a>
</g>
</g>
<!-- Node3 -->
<g id="Node000003" class="node">
<title>Node3</title>
<g id="a_Node000003"><a xlink:href="a06141.html" target="_top" xlink:title="Localization functionality base class.">
<polygon fill="white" stroke="#666666" points="91,-136 0,-136 0,-118 91,-118 91,-136"/>
<text text-anchor="middle" x="45.5" y="-124.8" font-family="Helvetica,sans-Serif" font-size="9.00">std::locale::facet</text>
</a>
</g>
</g>
<!-- Node3&#45;&gt;Node2 -->
<g id="edge2_Node000002_Node000003" class="edge">
<title>Node3&#45;&gt;Node2</title>
<g id="a_edge2_Node000002_Node000003"><a xlink:title=" ">
<path fill="none" stroke="#63b8ff" d="M60.44,-110.23C68.75,-101.46 78.98,-90.66 86.89,-82.31"/>
<polygon fill="#63b8ff" stroke="#63b8ff" points="57.8,-107.92 53.47,-117.59 62.89,-112.74 57.8,-107.92"/>
</a>
</g>
</g>
<!-- Node4 -->
<g id="Node000004" class="node">
<title>Node4</title>
<g id="a_Node000004"><a xlink:href="a09257.html" target="_top" xlink:title="Base class for ctype.">
<polygon fill="white" stroke="#666666" points="197.5,-136 109.5,-136 109.5,-118 197.5,-118 197.5,-136"/>
<text text-anchor="middle" x="153.5" y="-124.8" font-family="Helvetica,sans-Serif" font-size="9.00">std::ctype_base</text>
</a>
</g>
</g>
<!-- Node4&#45;&gt;Node2 -->
<g id="edge3_Node000002_Node000004" class="edge">
<title>Node4&#45;&gt;Node2</title>
<g id="a_edge3_Node000002_Node000004"><a xlink:title=" ">
<path fill="none" stroke="#63b8ff" d="M138.56,-110.23C130.25,-101.46 120.02,-90.66 112.11,-82.31"/>
<polygon fill="#63b8ff" stroke="#63b8ff" points="136.11,-112.74 145.53,-117.59 141.2,-107.92 136.11,-112.74"/>
</a>
</g>
</g>
</g>
</svg>
