<?xml version="1.0" encoding="UTF-8" standalone="no"?>
<!DOCTYPE svg PUBLIC "-//W3C//DTD SVG 1.1//EN"
 "http://www.w3.org/Graphics/SVG/1.1/DTD/svg11.dtd">
<!-- Generated by graphviz version 2.43.0 (0)
 -->
<!-- Title: std::time_get_byname&lt; _CharT, _InIter &gt; Pages: 1 -->
<svg width="200pt" height="154pt"
 viewBox="0.00 0.00 200.00 154.00" xmlns="http://www.w3.org/2000/svg" xmlns:xlink="http://www.w3.org/1999/xlink">
<g id="graph0" class="graph" transform="scale(1 1) rotate(0) translate(4 150)">
<title>std::time_get_byname&lt; _CharT, _InIter &gt;</title>
<!-- Node1 -->
<g id="Node000001" class="node">
<title>Node1</title>
<g id="a_Node000001"><a xlink:title="class time_get_byname [22.2.5.2].">
<polygon fill="#999999" stroke="#666666" points="156.5,-28 38.5,-28 38.5,0 156.5,0 156.5,-28"/>
<text text-anchor="start" x="46.5" y="-16.8" font-family="Helvetica,sans-Serif" font-size="9.00">std::time_get_byname</text>
<text text-anchor="middle" x="97.5" y="-6.8" font-family="Helvetica,sans-Serif" font-size="9.00">&lt; _CharT, _InIter &gt;</text>
</a>
</g>
</g>
<!-- Node2 -->
<g id="Node000002" class="node">
<title>Node2</title>
<g id="a_Node000002"><a xlink:href="a06253.html" target="_top" xlink:title="Primary class template time_get.">
<polygon fill="white" stroke="#666666" points="158,-92 37,-92 37,-64 158,-64 158,-92"/>
<text text-anchor="start" x="45" y="-80.8" font-family="Helvetica,sans-Serif" font-size="9.00">std::time_get&lt; _CharT,</text>
<text text-anchor="middle" x="97.5" y="-70.8" font-family="Helvetica,sans-Serif" font-size="9.00"> _InIter &gt;</text>
</a>
</g>
</g>
<!-- Node2&#45;&gt;Node1 -->
<g id="edge1_Node000001_Node000002" class="edge">
<title>Node2&#45;&gt;Node1</title>
<g id="a_edge1_Node000001_Node000002"><a xlink:title=" ">
<path fill="none" stroke="#63b8ff" d="M97.5,-53.6C97.5,-44.98 97.5,-35.52 97.5,-28.13"/>
<polygon fill="#63b8ff" stroke="#63b8ff" points="94,-53.85 97.5,-63.85 101,-53.85 94,-53.85"/>
</a>
</g>
</g>
<!-- Node3 -->
<g id="Node000003" class="node">
<title>Node3</title>
<g id="a_Node000003"><a xlink:href="a06141.html" target="_top" xlink:title="Localization functionality base class.">
<polygon fill="white" stroke="#666666" points="91,-146 0,-146 0,-128 91,-128 91,-146"/>
<text text-anchor="middle" x="45.5" y="-134.8" font-family="Helvetica,sans-Serif" font-size="9.00">std::locale::facet</text>
</a>
</g>
</g>
<!-- Node3&#45;&gt;Node2 -->
<g id="edge2_Node000002_Node000003" class="edge">
<title>Node3&#45;&gt;Node2</title>
<g id="a_edge2_Node000002_Node000003"><a xlink:title=" ">
<path fill="none" stroke="#63b8ff" d="M60.13,-119.96C68.09,-111.24 77.82,-100.57 85.35,-92.31"/>
<polygon fill="#63b8ff" stroke="#63b8ff" points="57.33,-117.84 53.17,-127.59 62.5,-122.56 57.33,-117.84"/>
</a>
</g>
</g>
<!-- Node4 -->
<g id="Node000004" class="node">
<title>Node4</title>
<g id="a_Node000004"><a xlink:href="a06237.html" target="_top" xlink:title="Time format ordering data.">
<polygon fill="white" stroke="#666666" points="192,-146 109,-146 109,-128 192,-128 192,-146"/>
<text text-anchor="middle" x="150.5" y="-134.8" font-family="Helvetica,sans-Serif" font-size="9.00">std::time_base</text>
</a>
</g>
</g>
<!-- Node4&#45;&gt;Node2 -->
<g id="edge3_Node000002_Node000004" class="edge">
<title>Node4&#45;&gt;Node2</title>
<g id="a_edge3_Node000002_Node000004"><a xlink:title=" ">
<path fill="none" stroke="#63b8ff" d="M135.84,-120.23C127.68,-111.46 117.64,-100.66 109.88,-92.31"/>
<polygon fill="#63b8ff" stroke="#63b8ff" points="133.31,-122.65 142.68,-127.59 138.43,-117.88 133.31,-122.65"/>
</a>
</g>
</g>
</g>
</svg>
