<?xml version="1.0" encoding="UTF-8" standalone="no"?>
<!DOCTYPE svg PUBLIC "-//W3C//DTD SVG 1.1//EN"
 "http://www.w3.org/Graphics/SVG/1.1/DTD/svg11.dtd">
<!-- Generated by graphviz version 2.43.0 (0)
 -->
<!-- Title: std::money_base Pages: 1 -->
<svg width="147pt" height="154pt"
 viewBox="0.00 0.00 147.00 154.00" xmlns="http://www.w3.org/2000/svg" xmlns:xlink="http://www.w3.org/1999/xlink">
<g id="graph0" class="graph" transform="scale(1 1) rotate(0) translate(4 150)">
<title>std::money_base</title>
<!-- Node1 -->
<g id="Node000001" class="node">
<title>Node1</title>
<g id="a_Node000001"><a xlink:title="Money format ordering data.">
<polygon fill="#999999" stroke="#666666" points="116,-146 23,-146 23,-128 116,-128 116,-146"/>
<text text-anchor="middle" x="69.5" y="-134.8" font-family="Helvetica,sans-Serif" font-size="9.00">std::money_base</text>
</a>
</g>
</g>
<!-- Node2 -->
<g id="Node000002" class="node">
<title>Node2</title>
<g id="a_Node000002"><a xlink:href="a06281.html" target="_top" xlink:title="Primary class template moneypunct.">
<polygon fill="white" stroke="#666666" points="139,-92 0,-92 0,-64 139,-64 139,-92"/>
<text text-anchor="start" x="8" y="-80.8" font-family="Helvetica,sans-Serif" font-size="9.00">std::moneypunct&lt; _CharT,</text>
<text text-anchor="middle" x="69.5" y="-70.8" font-family="Helvetica,sans-Serif" font-size="9.00"> _Intl &gt;</text>
</a>
</g>
</g>
<!-- Node1&#45;&gt;Node2 -->
<g id="edge1_Node000001_Node000002" class="edge">
<title>Node1&#45;&gt;Node2</title>
<g id="a_edge1_Node000001_Node000002"><a xlink:title=" ">
<path fill="none" stroke="#63b8ff" d="M69.5,-117.49C69.5,-109.28 69.5,-99.81 69.5,-92.31"/>
<polygon fill="#63b8ff" stroke="#63b8ff" points="66,-117.59 69.5,-127.59 73,-117.59 66,-117.59"/>
</a>
</g>
</g>
<!-- Node3 -->
<g id="Node000003" class="node">
<title>Node3</title>
<g id="a_Node000003"><a xlink:href="a06285.html" target="_top" xlink:title="class moneypunct_byname [22.2.6.4].">
<polygon fill="white" stroke="#666666" points="137.5,-28 1.5,-28 1.5,0 137.5,0 137.5,-28"/>
<text text-anchor="start" x="9.5" y="-16.8" font-family="Helvetica,sans-Serif" font-size="9.00">std::moneypunct_byname</text>
<text text-anchor="middle" x="69.5" y="-6.8" font-family="Helvetica,sans-Serif" font-size="9.00">&lt; _CharT, _Intl &gt;</text>
</a>
</g>
</g>
<!-- Node2&#45;&gt;Node3 -->
<g id="edge2_Node000002_Node000003" class="edge">
<title>Node2&#45;&gt;Node3</title>
<g id="a_edge2_Node000002_Node000003"><a xlink:title=" ">
<path fill="none" stroke="#63b8ff" d="M69.5,-53.6C69.5,-44.98 69.5,-35.52 69.5,-28.13"/>
<polygon fill="#63b8ff" stroke="#63b8ff" points="66,-53.85 69.5,-63.85 73,-53.85 66,-53.85"/>
</a>
</g>
</g>
</g>
</svg>
