<?xml version="1.0" encoding="UTF-8" standalone="no"?>
<!DOCTYPE svg PUBLIC "-//W3C//DTD SVG 1.1//EN"
 "http://www.w3.org/Graphics/SVG/1.1/DTD/svg11.dtd">
<!-- Generated by graphviz version 2.43.0 (0)
 -->
<!-- Title: std::moneypunct&lt; _CharT, _Intl &gt; Pages: 1 -->
<svg width="210pt" height="154pt"
 viewBox="0.00 0.00 210.00 154.00" xmlns="http://www.w3.org/2000/svg" xmlns:xlink="http://www.w3.org/1999/xlink">
<g id="graph0" class="graph" transform="scale(1 1) rotate(0) translate(4 150)">
<title>std::moneypunct&lt; _CharT, _Intl &gt;</title>
<!-- Node1 -->
<g id="Node000001" class="node">
<title>Node1</title>
<g id="a_Node000001"><a xlink:title="Primary class template moneypunct.">
<polygon fill="#999999" stroke="#666666" points="170,-92 31,-92 31,-64 170,-64 170,-92"/>
<text text-anchor="start" x="39" y="-80.8" font-family="Helvetica,sans-Serif" font-size="9.00">std::moneypunct&lt; _CharT,</text>
<text text-anchor="middle" x="100.5" y="-70.8" font-family="Helvetica,sans-Serif" font-size="9.00"> _Intl &gt;</text>
</a>
</g>
</g>
<!-- Node4 -->
<g id="Node000004" class="node">
<title>Node4</title>
<g id="a_Node000004"><a xlink:href="a06285.html" target="_top" xlink:title="class moneypunct_byname [22.2.6.4].">
<polygon fill="white" stroke="#666666" points="168.5,-28 32.5,-28 32.5,0 168.5,0 168.5,-28"/>
<text text-anchor="start" x="40.5" y="-16.8" font-family="Helvetica,sans-Serif" font-size="9.00">std::moneypunct_byname</text>
<text text-anchor="middle" x="100.5" y="-6.8" font-family="Helvetica,sans-Serif" font-size="9.00">&lt; _CharT, _Intl &gt;</text>
</a>
</g>
</g>
<!-- Node1&#45;&gt;Node4 -->
<g id="edge3_Node000001_Node000004" class="edge">
<title>Node1&#45;&gt;Node4</title>
<g id="a_edge3_Node000001_Node000004"><a xlink:title=" ">
<path fill="none" stroke="#63b8ff" d="M100.5,-53.6C100.5,-44.98 100.5,-35.52 100.5,-28.13"/>
<polygon fill="#63b8ff" stroke="#63b8ff" points="97,-53.85 100.5,-63.85 104,-53.85 97,-53.85"/>
</a>
</g>
</g>
<!-- Node2 -->
<g id="Node000002" class="node">
<title>Node2</title>
<g id="a_Node000002"><a xlink:href="a06141.html" target="_top" xlink:title="Localization functionality base class.">
<polygon fill="white" stroke="#666666" points="91,-146 0,-146 0,-128 91,-128 91,-146"/>
<text text-anchor="middle" x="45.5" y="-134.8" font-family="Helvetica,sans-Serif" font-size="9.00">std::locale::facet</text>
</a>
</g>
</g>
<!-- Node2&#45;&gt;Node1 -->
<g id="edge1_Node000001_Node000002" class="edge">
<title>Node2&#45;&gt;Node1</title>
<g id="a_edge1_Node000001_Node000002"><a xlink:title=" ">
<path fill="none" stroke="#63b8ff" d="M60.72,-120.23C69.18,-111.46 79.6,-100.66 87.65,-92.31"/>
<polygon fill="#63b8ff" stroke="#63b8ff" points="58.04,-117.96 53.62,-127.59 63.08,-122.82 58.04,-117.96"/>
</a>
</g>
</g>
<!-- Node3 -->
<g id="Node000003" class="node">
<title>Node3</title>
<g id="a_Node000003"><a xlink:href="a06269.html" target="_top" xlink:title="Money format ordering data.">
<polygon fill="white" stroke="#666666" points="202,-146 109,-146 109,-128 202,-128 202,-146"/>
<text text-anchor="middle" x="155.5" y="-134.8" font-family="Helvetica,sans-Serif" font-size="9.00">std::money_base</text>
</a>
</g>
</g>
<!-- Node3&#45;&gt;Node1 -->
<g id="edge2_Node000001_Node000003" class="edge">
<title>Node3&#45;&gt;Node1</title>
<g id="a_edge2_Node000001_Node000003"><a xlink:title=" ">
<path fill="none" stroke="#63b8ff" d="M140.28,-120.23C131.82,-111.46 121.4,-100.66 113.35,-92.31"/>
<polygon fill="#63b8ff" stroke="#63b8ff" points="137.92,-122.82 147.38,-127.59 142.96,-117.96 137.92,-122.82"/>
</a>
</g>
</g>
</g>
</svg>
