<?xml version="1.0" encoding="UTF-8" standalone="no"?>
<!DOCTYPE svg PUBLIC "-//W3C//DTD SVG 1.1//EN"
 "http://www.w3.org/Graphics/SVG/1.1/DTD/svg11.dtd">
<!-- Generated by graphviz version 2.43.0 (0)
 -->
<!-- Title: std::messages_byname&lt; _CharT &gt; Pages: 1 -->
<svg width="224pt" height="144pt"
 viewBox="0.00 0.00 224.00 144.00" xmlns="http://www.w3.org/2000/svg" xmlns:xlink="http://www.w3.org/1999/xlink">
<g id="graph0" class="graph" transform="scale(1 1) rotate(0) translate(4 140)">
<title>std::messages_byname&lt; _CharT &gt;</title>
<!-- Node1 -->
<g id="Node000001" class="node">
<title>Node1</title>
<g id="a_Node000001"><a xlink:title="class messages_byname [22.2.7.2].">
<polygon fill="#999999" stroke="#666666" points="164.5,-28 42.5,-28 42.5,0 164.5,0 164.5,-28"/>
<text text-anchor="start" x="50.5" y="-16.8" font-family="Helvetica,sans-Serif" font-size="9.00">std::messages_byname</text>
<text text-anchor="middle" x="103.5" y="-6.8" font-family="Helvetica,sans-Serif" font-size="9.00">&lt; _CharT &gt;</text>
</a>
</g>
</g>
<!-- Node2 -->
<g id="Node000002" class="node">
<title>Node2</title>
<g id="a_Node000002"><a xlink:href="a06301.html" target="_top" xlink:title="Primary class template messages.">
<polygon fill="white" stroke="#666666" points="170,-82 37,-82 37,-64 170,-64 170,-82"/>
<text text-anchor="middle" x="103.5" y="-70.8" font-family="Helvetica,sans-Serif" font-size="9.00">std::messages&lt; _CharT &gt;</text>
</a>
</g>
</g>
<!-- Node2&#45;&gt;Node1 -->
<g id="edge1_Node000001_Node000002" class="edge">
<title>Node2&#45;&gt;Node1</title>
<g id="a_edge1_Node000001_Node000002"><a xlink:title=" ">
<path fill="none" stroke="#63b8ff" d="M103.5,-53.49C103.5,-45.28 103.5,-35.81 103.5,-28.31"/>
<polygon fill="#63b8ff" stroke="#63b8ff" points="100,-53.59 103.5,-63.59 107,-53.59 100,-53.59"/>
</a>
</g>
</g>
<!-- Node3 -->
<g id="Node000003" class="node">
<title>Node3</title>
<g id="a_Node000003"><a xlink:href="a06141.html" target="_top" xlink:title="Localization functionality base class.">
<polygon fill="white" stroke="#666666" points="91,-136 0,-136 0,-118 91,-118 91,-136"/>
<text text-anchor="middle" x="45.5" y="-124.8" font-family="Helvetica,sans-Serif" font-size="9.00">std::locale::facet</text>
</a>
</g>
</g>
<!-- Node3&#45;&gt;Node2 -->
<g id="edge2_Node000002_Node000003" class="edge">
<title>Node3&#45;&gt;Node2</title>
<g id="a_edge2_Node000002_Node000003"><a xlink:title=" ">
<path fill="none" stroke="#63b8ff" d="M62.24,-110.99C72.68,-101.63 85.72,-89.94 94.31,-82.24"/>
<polygon fill="#63b8ff" stroke="#63b8ff" points="59.67,-108.59 54.56,-117.88 64.34,-113.81 59.67,-108.59"/>
</a>
</g>
</g>
<!-- Node4 -->
<g id="Node000004" class="node">
<title>Node4</title>
<g id="a_Node000004"><a xlink:href="a06297.html" target="_top" xlink:title="Messages facet base class providing catalog typedef.">
<polygon fill="white" stroke="#666666" points="216,-136 109,-136 109,-118 216,-118 216,-136"/>
<text text-anchor="middle" x="162.5" y="-124.8" font-family="Helvetica,sans-Serif" font-size="9.00">std::messages_base</text>
</a>
</g>
</g>
<!-- Node4&#45;&gt;Node2 -->
<g id="edge3_Node000002_Node000004" class="edge">
<title>Node4&#45;&gt;Node2</title>
<g id="a_edge3_Node000002_Node000004"><a xlink:title=" ">
<path fill="none" stroke="#63b8ff" d="M145.47,-110.99C134.85,-101.63 121.59,-89.94 112.85,-82.24"/>
<polygon fill="#63b8ff" stroke="#63b8ff" points="143.46,-113.89 153.28,-117.88 148.09,-108.64 143.46,-113.89"/>
</a>
</g>
</g>
</g>
</svg>
