<?xml version="1.0" encoding="UTF-8" standalone="no"?>
<!DOCTYPE svg PUBLIC "-//W3C//DTD SVG 1.1//EN"
 "http://www.w3.org/Graphics/SVG/1.1/DTD/svg11.dtd">
<!-- Generated by graphviz version 2.43.0 (0)
 -->
<!-- Title: std::binary_function&lt; _Arg1, _Arg2, _Result &gt; Pages: 1 -->
<svg width="312pt" height="256pt"
 viewBox="0.00 0.00 312.00 256.00" xmlns="http://www.w3.org/2000/svg" xmlns:xlink="http://www.w3.org/1999/xlink">
<g id="graph0" class="graph" transform="scale(1 1) rotate(0) translate(4 252)">
<title>std::binary_function&lt; _Arg1, _Arg2, _Result &gt;</title>
<!-- Node1 -->
<g id="Node000001" class="node">
<title>Node1</title>
<g id="a_Node000001"><a xlink:title=" ">
<polygon fill="#999999" stroke="#666666" points="134,-153 0,-153 0,-125 134,-125 134,-153"/>
<text text-anchor="start" x="8" y="-141.8" font-family="Helvetica,sans-Serif" font-size="9.00">std::binary_function</text>
<text text-anchor="middle" x="67" y="-131.8" font-family="Helvetica,sans-Serif" font-size="9.00">&lt; _Arg1, _Arg2, _Result &gt;</text>
</a>
</g>
</g>
<!-- Node2 -->
<g id="Node000002" class="node">
<title>Node2</title>
<g id="a_Node000002"><a xlink:href="a08093.html" target="_top" xlink:title=" ">
<polygon fill="white" stroke="#666666" points="295,-248 179,-248 179,-230 295,-230 295,-248"/>
<text text-anchor="middle" x="237" y="-236.8" font-family="Helvetica,sans-Serif" font-size="9.00">std::equal_to&lt; _Key &gt;</text>
</a>
</g>
</g>
<!-- Node1&#45;&gt;Node2 -->
<g id="edge1_Node000001_Node000002" class="edge">
<title>Node1&#45;&gt;Node2</title>
<g id="a_edge1_Node000001_Node000002"><a xlink:title=" ">
<path fill="none" stroke="#63b8ff" d="M88.9,-160.18C108.33,-178.72 138.87,-205.12 170,-221 177.09,-224.62 184.99,-227.57 192.79,-229.97"/>
<polygon fill="#63b8ff" stroke="#63b8ff" points="91.14,-157.47 81.53,-153.01 86.26,-162.49 91.14,-157.47"/>
</a>
</g>
</g>
<!-- Node3 -->
<g id="Node000003" class="node">
<title>Node3</title>
<g id="a_Node000003"><a xlink:href="a08093.html" target="_top" xlink:title=" ">
<polygon fill="white" stroke="#666666" points="299.5,-212 174.5,-212 174.5,-194 299.5,-194 299.5,-212"/>
<text text-anchor="middle" x="237" y="-200.8" font-family="Helvetica,sans-Serif" font-size="9.00">std::equal_to&lt; _Value &gt;</text>
</a>
</g>
</g>
<!-- Node1&#45;&gt;Node3 -->
<g id="edge2_Node000001_Node000003" class="edge">
<title>Node1&#45;&gt;Node3</title>
<g id="a_edge2_Node000001_Node000003"><a xlink:title=" ">
<path fill="none" stroke="#63b8ff" d="M105.31,-157.53C124.37,-166.56 148.11,-177.13 170,-185 179.17,-188.29 189.23,-191.32 198.68,-193.92"/>
<polygon fill="#63b8ff" stroke="#63b8ff" points="106.61,-154.28 96.08,-153.11 103.59,-160.59 106.61,-154.28"/>
</a>
</g>
</g>
<!-- Node4 -->
<g id="Node000004" class="node">
<title>Node4</title>
<g id="a_Node000004"><a xlink:href="a08105.html" target="_top" xlink:title=" ">
<polygon fill="white" stroke="#666666" points="304,-176 170,-176 170,-148 304,-148 304,-176"/>
<text text-anchor="start" x="178" y="-164.8" font-family="Helvetica,sans-Serif" font-size="9.00">std::less&lt; typename</text>
<text text-anchor="middle" x="237" y="-154.8" font-family="Helvetica,sans-Serif" font-size="9.00"> _Sequence::value_type &gt;</text>
</a>
</g>
</g>
<!-- Node1&#45;&gt;Node4 -->
<g id="edge3_Node000001_Node000004" class="edge">
<title>Node1&#45;&gt;Node4</title>
<g id="a_edge3_Node000001_Node000004"><a xlink:title=" ">
<path fill="none" stroke="#63b8ff" d="M144.32,-149.45C152.83,-150.61 161.44,-151.79 169.81,-152.94"/>
<polygon fill="#63b8ff" stroke="#63b8ff" points="144.78,-145.98 134.4,-148.09 143.83,-152.91 144.78,-145.98"/>
</a>
</g>
</g>
<!-- Node5 -->
<g id="Node000005" class="node">
<title>Node5</title>
<g id="a_Node000005"><a xlink:href="a09941.html" target="_top" xlink:title="Similar to std::multiplies, but allows two different types.">
<polygon fill="white" stroke="#666666" points="303.5,-130 170.5,-130 170.5,-102 303.5,-102 303.5,-130"/>
<text text-anchor="start" x="178.5" y="-118.8" font-family="Helvetica,sans-Serif" font-size="9.00">__gnu_parallel::_Multiplies</text>
<text text-anchor="middle" x="237" y="-108.8" font-family="Helvetica,sans-Serif" font-size="9.00">&lt; _Tp1, _Tp2, _Result &gt;</text>
</a>
</g>
</g>
<!-- Node1&#45;&gt;Node5 -->
<g id="edge4_Node000001_Node000005" class="edge">
<title>Node1&#45;&gt;Node5</title>
<g id="a_edge4_Node000001_Node000005"><a xlink:title=" ">
<path fill="none" stroke="#63b8ff" d="M144.47,-128.53C153.12,-127.35 161.87,-126.15 170.36,-124.99"/>
<polygon fill="#63b8ff" stroke="#63b8ff" points="143.83,-125.09 134.4,-129.91 144.78,-132.02 143.83,-125.09"/>
</a>
</g>
</g>
<!-- Node6 -->
<g id="Node000006" class="node">
<title>Node6</title>
<g id="a_Node000006"><a xlink:href="a09933.html" target="_top" xlink:title="Similar to std::plus, but allows two different types.">
<polygon fill="white" stroke="#666666" points="299.5,-84 174.5,-84 174.5,-56 299.5,-56 299.5,-84"/>
<text text-anchor="start" x="182.5" y="-72.8" font-family="Helvetica,sans-Serif" font-size="9.00">__gnu_parallel::_Plus</text>
<text text-anchor="middle" x="237" y="-62.8" font-family="Helvetica,sans-Serif" font-size="9.00">&lt; _Tp1, _Tp2, _Result &gt;</text>
</a>
</g>
</g>
<!-- Node1&#45;&gt;Node6 -->
<g id="edge5_Node000001_Node000006" class="edge">
<title>Node1&#45;&gt;Node6</title>
<g id="a_edge5_Node000001_Node000006"><a xlink:title=" ">
<path fill="none" stroke="#63b8ff" d="M106.79,-120.53C125.69,-111.79 148.85,-101.43 170,-93 177.66,-89.94 185.91,-86.89 193.9,-84.05"/>
<polygon fill="#63b8ff" stroke="#63b8ff" points="105.19,-117.42 97.61,-124.81 108.15,-123.76 105.19,-117.42"/>
</a>
</g>
</g>
<!-- Node7 -->
<g id="Node000007" class="node">
<title>Node7</title>
<g id="a_Node000007"><a xlink:href="a08289.html" target="_top" xlink:title="One of the adaptors for function pointers.">
<polygon fill="white" stroke="#666666" points="302.5,-38 171.5,-38 171.5,0 302.5,0 302.5,-38"/>
<text text-anchor="start" x="179.5" y="-26.8" font-family="Helvetica,sans-Serif" font-size="9.00">std::pointer_to_binary</text>
<text text-anchor="start" x="179.5" y="-16.8" font-family="Helvetica,sans-Serif" font-size="9.00">_function&lt; _Arg1, _Arg2,</text>
<text text-anchor="middle" x="237" y="-6.8" font-family="Helvetica,sans-Serif" font-size="9.00"> _Result &gt;</text>
</a>
</g>
</g>
<!-- Node1&#45;&gt;Node7 -->
<g id="edge6_Node000001_Node000007" class="edge">
<title>Node1&#45;&gt;Node7</title>
<g id="a_edge6_Node000001_Node000007"><a xlink:title=" ">
<path fill="none" stroke="#63b8ff" d="M87.75,-117.45C107.16,-97.22 138.4,-67.15 170,-47 175.04,-43.79 180.51,-40.8 186.07,-38.06"/>
<polygon fill="#63b8ff" stroke="#63b8ff" points="85,-115.27 80.67,-124.94 90.08,-120.08 85,-115.27"/>
</a>
</g>
</g>
</g>
</svg>
