<?xml version="1.0" encoding="UTF-8" standalone="no"?>
<!DOCTYPE svg PUBLIC "-//W3C//DTD SVG 1.1//EN"
 "http://www.w3.org/Graphics/SVG/1.1/DTD/svg11.dtd">
<!-- Generated by graphviz version 2.43.0 (0)
 -->
<!-- Title: std::_Deque_base&lt; _Tp, _Alloc &gt; Pages: 1 -->
<svg width="298pt" height="90pt"
 viewBox="0.00 0.00 297.50 90.00" xmlns="http://www.w3.org/2000/svg" xmlns:xlink="http://www.w3.org/1999/xlink">
<g id="graph0" class="graph" transform="scale(1 1) rotate(0) translate(4 86)">
<title>std::_Deque_base&lt; _Tp, _Alloc &gt;</title>
<!-- Node1 -->
<g id="Node000001" class="node">
<title>Node1</title>
<g id="a_Node000001"><a xlink:title=" ">
<polygon fill="#999999" stroke="#666666" points="199,-82 92,-82 92,-54 199,-54 199,-82"/>
<text text-anchor="start" x="100" y="-70.8" font-family="Helvetica,sans-Serif" font-size="9.00">std::_Deque_base&lt; </text>
<text text-anchor="middle" x="145.5" y="-60.8" font-family="Helvetica,sans-Serif" font-size="9.00">_Tp, _Alloc &gt;</text>
</a>
</g>
</g>
<!-- Node2 -->
<g id="Node000002" class="node">
<title>Node2</title>
<g id="a_Node000002"><a xlink:href="a08029.html" target="_top" xlink:title=" ">
<polygon fill="white" stroke="#666666" points="137,-18 0,-18 0,0 137,0 137,-18"/>
<text text-anchor="middle" x="68.5" y="-6.8" font-family="Helvetica,sans-Serif" font-size="9.00">std::deque&lt; _StateSeqT &gt;</text>
</a>
</g>
</g>
<!-- Node1&#45;&gt;Node2 -->
<g id="edge1_Node000001_Node000002" class="edge">
<title>Node1&#45;&gt;Node2</title>
<g id="a_edge1_Node000001_Node000002"><a xlink:title=" ">
<path fill="none" stroke="darkgreen" d="M119.5,-47.75C105.81,-37.62 89.75,-25.73 79.37,-18.05"/>
<polygon fill="darkgreen" stroke="darkgreen" points="117.52,-50.64 127.64,-53.78 121.69,-45.02 117.52,-50.64"/>
</a>
</g>
</g>
<!-- Node3 -->
<g id="Node000003" class="node">
<title>Node3</title>
<g id="a_Node000003"><a xlink:href="a08029.html" target="_top" xlink:title="A standard container using fixed&#45;size memory allocation and constant&#45;time manipulation of elements at...">
<polygon fill="white" stroke="#666666" points="289.5,-18 155.5,-18 155.5,0 289.5,0 289.5,-18"/>
<text text-anchor="middle" x="222.5" y="-6.8" font-family="Helvetica,sans-Serif" font-size="9.00">std::deque&lt; _Tp, _Alloc &gt;</text>
</a>
</g>
</g>
<!-- Node1&#45;&gt;Node3 -->
<g id="edge2_Node000001_Node000003" class="edge">
<title>Node1&#45;&gt;Node3</title>
<g id="a_edge2_Node000001_Node000003"><a xlink:title=" ">
<path fill="none" stroke="darkgreen" d="M171.5,-47.75C185.19,-37.62 201.25,-25.73 211.63,-18.05"/>
<polygon fill="darkgreen" stroke="darkgreen" points="169.31,-45.02 163.36,-53.78 173.48,-50.64 169.31,-45.02"/>
</a>
</g>
</g>
</g>
</svg>
