<?xml version="1.0" encoding="UTF-8" standalone="no"?>
<!DOCTYPE svg PUBLIC "-//W3C//DTD SVG 1.1//EN"
 "http://www.w3.org/Graphics/SVG/1.1/DTD/svg11.dtd">
<!-- Generated by graphviz version 2.43.0 (0)
 -->
<!-- Title: std::bidirectional_iterator_tag Pages: 1 -->
<svg width="152pt" height="262pt"
 viewBox="0.00 0.00 152.00 262.00" xmlns="http://www.w3.org/2000/svg" xmlns:xlink="http://www.w3.org/1999/xlink">
<g id="graph0" class="graph" transform="scale(1 1) rotate(0) translate(4 258)">
<title>std::bidirectional_iterator_tag</title>
<!-- Node1 -->
<g id="Node000001" class="node">
<title>Node1</title>
<g id="a_Node000001"><a xlink:title="Bidirectional iterators support a superset of forward iterator operations.">
<polygon fill="#999999" stroke="#666666" points="118,-146 26,-146 26,-118 118,-118 118,-146"/>
<text text-anchor="start" x="34" y="-134.8" font-family="Helvetica,sans-Serif" font-size="9.00">std::bidirectional</text>
<text text-anchor="middle" x="72" y="-124.8" font-family="Helvetica,sans-Serif" font-size="9.00">_iterator_tag</text>
</a>
</g>
</g>
<!-- Node4 -->
<g id="Node000004" class="node">
<title>Node4</title>
<g id="a_Node000004"><a xlink:href="a08485.html" target="_top" xlink:title="Random&#45;access iterators support a superset of bidirectional iterator operations.">
<polygon fill="white" stroke="#666666" points="125.5,-82 18.5,-82 18.5,-54 125.5,-54 125.5,-82"/>
<text text-anchor="start" x="26.5" y="-70.8" font-family="Helvetica,sans-Serif" font-size="9.00">std::random_access</text>
<text text-anchor="middle" x="72" y="-60.8" font-family="Helvetica,sans-Serif" font-size="9.00">_iterator_tag</text>
</a>
</g>
</g>
<!-- Node1&#45;&gt;Node4 -->
<g id="edge3_Node000001_Node000004" class="edge">
<title>Node1&#45;&gt;Node4</title>
<g id="a_edge3_Node000001_Node000004"><a xlink:title=" ">
<path fill="none" stroke="#63b8ff" d="M72,-107.6C72,-98.98 72,-89.52 72,-82.13"/>
<polygon fill="#63b8ff" stroke="#63b8ff" points="68.5,-107.85 72,-117.85 75.5,-107.85 68.5,-107.85"/>
</a>
</g>
</g>
<!-- Node2 -->
<g id="Node000002" class="node">
<title>Node2</title>
<g id="a_Node000002"><a xlink:href="a08477.html" target="_top" xlink:title="Forward iterators support a superset of input iterator operations.">
<polygon fill="white" stroke="#666666" points="136,-200 8,-200 8,-182 136,-182 136,-200"/>
<text text-anchor="middle" x="72" y="-188.8" font-family="Helvetica,sans-Serif" font-size="9.00">std::forward_iterator_tag</text>
</a>
</g>
</g>
<!-- Node2&#45;&gt;Node1 -->
<g id="edge1_Node000001_Node000002" class="edge">
<title>Node2&#45;&gt;Node1</title>
<g id="a_edge1_Node000001_Node000002"><a xlink:title=" ">
<path fill="none" stroke="#63b8ff" d="M72,-171.49C72,-163.28 72,-153.81 72,-146.31"/>
<polygon fill="#63b8ff" stroke="#63b8ff" points="68.5,-171.59 72,-181.59 75.5,-171.59 68.5,-171.59"/>
</a>
</g>
</g>
<!-- Node3 -->
<g id="Node000003" class="node">
<title>Node3</title>
<g id="a_Node000003"><a xlink:href="a08469.html" target="_top" xlink:title="Marking input iterators.">
<polygon fill="white" stroke="#666666" points="131,-254 13,-254 13,-236 131,-236 131,-254"/>
<text text-anchor="middle" x="72" y="-242.8" font-family="Helvetica,sans-Serif" font-size="9.00">std::input_iterator_tag</text>
</a>
</g>
</g>
<!-- Node3&#45;&gt;Node2 -->
<g id="edge2_Node000002_Node000003" class="edge">
<title>Node3&#45;&gt;Node2</title>
<g id="a_edge2_Node000002_Node000003"><a xlink:title=" ">
<path fill="none" stroke="#63b8ff" d="M72,-225.86C72,-217.13 72,-207.1 72,-200.24"/>
<polygon fill="#63b8ff" stroke="#63b8ff" points="68.5,-225.87 72,-235.88 75.5,-225.88 68.5,-225.87"/>
</a>
</g>
</g>
<!-- Node5 -->
<g id="Node000005" class="node">
<title>Node5</title>
<g id="a_Node000005"><a xlink:href="a08489.html" target="_top" xlink:title="Contiguous iterators point to objects stored contiguously in memory.">
<polygon fill="white" stroke="#666666" points="144,-18 0,-18 0,0 144,0 144,-18"/>
<text text-anchor="middle" x="72" y="-6.8" font-family="Helvetica,sans-Serif" font-size="9.00">std::contiguous_iterator_tag</text>
</a>
</g>
</g>
<!-- Node4&#45;&gt;Node5 -->
<g id="edge4_Node000004_Node000005" class="edge">
<title>Node4&#45;&gt;Node5</title>
<g id="a_edge4_Node000004_Node000005"><a xlink:title=" ">
<path fill="none" stroke="#63b8ff" d="M72,-43.66C72,-34.55 72,-24.72 72,-18.05"/>
<polygon fill="#63b8ff" stroke="#63b8ff" points="68.5,-43.78 72,-53.78 75.5,-43.78 68.5,-43.78"/>
</a>
</g>
</g>
</g>
</svg>
