<?xml version="1.0" encoding="UTF-8" standalone="no"?>
<!DOCTYPE svg PUBLIC "-//W3C//DTD SVG 1.1//EN"
 "http://www.w3.org/Graphics/SVG/1.1/DTD/svg11.dtd">
<!-- Generated by graphviz version 2.43.0 (0)
 -->
<!-- Title: std::_Vector_base&lt; _Tp, _Alloc &gt; Pages: 1 -->
<!--zoomable 1060 -->

<svg id="main" version="1.1" xmlns="http://www.w3.org/2000/svg" xmlns:xlink="http://www.w3.org/1999/xlink" xml:space="preserve" onload="init(evt)">
<style type="text/css"><![CDATA[
.node, .edge {opacity: 0.7;}
.node.selected, .edge.selected {opacity: 1;}
.edge:hover path { stroke: red; }
.edge:hover polygon { stroke: red; fill: red; }
]]></style>

<defs>
  <circle id="rim" cx="0" cy="0" r="7"/>
  <circle id="rim2" cx="0" cy="0" r="3.5"/>
  <g id="zoomPlus">
    <use xlink:href="#rim" fill="#404040"><set attributeName="fill" to="#808080" begin="zoomplus.mouseover" end="zoomplus.mouseout"/></use>
    <path d="M-4,0h8M0,-4v8" fill="none" stroke="white" stroke-width="1.5" pointer-events="none"/>
  </g>
  <g id="zoomMin">
    <use xlink:href="#rim" fill="#404040"><set attributeName="fill" to="#808080" begin="zoomminus.mouseover" end="zoomminus.mouseout"/></use>
    <path d="M-4,0h8" fill="none" stroke="white" stroke-width="1.5" pointer-events="none"/>
  </g>
  <g id="arrowUp" transform="translate(30 24)">
    <use xlink:href="#rim"/>
    <path pointer-events="none" fill="none" stroke="white" stroke-width="1.5" d="M0,-3.0v7 M-2.5,-0.5L0,-3.0L2.5,-0.5"/>
  </g>
  <g id="arrowRight" transform="rotate(90) translate(36 -43)">
    <use xlink:href="#rim"/>
    <path pointer-events="none" fill="none" stroke="white" stroke-width="1.5" d="M0,-3.0v7 M-2.5,-0.5L0,-3.0L2.5,-0.5"/>
  </g>
  <g id="arrowDown" transform="rotate(180) translate(-30 -48)">
    <use xlink:href="#rim"/>
    <path pointer-events="none" fill="none" stroke="white" stroke-width="1.5" d="M0,-3.0v7 M-2.5,-0.5L0,-3.0L2.5,-0.5"/>
  </g>
  <g id="arrowLeft" transform="rotate(270) translate(-36 17)">
    <use xlink:href="#rim"/>
    <path pointer-events="none" fill="none" stroke="white" stroke-width="1.5" d="M0,-3.0v7 M-2.5,-0.5L0,-3.0L2.5,-0.5"/>
  </g>
  <g id="resetDef">
    <use xlink:href="#rim2" fill="#404040"><set attributeName="fill" to="#808080" begin="reset.mouseover" end="reset.mouseout"/></use>
  </g>
</defs>
<script type="application/ecmascript">
var viewWidth = 447;
var viewHeight = 1060;
var sectionId = 'dynsection-0';
</script>
<script type="application/ecmascript" xlink:href="svg.min.js"/>
<svg id="graph" class="graph">
<g id="viewport">
<title>std::_Vector_base&lt; _Tp, _Alloc &gt;</title>
<!-- Node1 -->
<g id="Node000001" class="node">
<title>Node1</title>
<g id="a_Node000001"><a xlink:title="See bits/stl_deque.h&#39;s _Deque_base for an explanation.">
<polygon fill="#999999" stroke="#666666" points="103,-505 0,-505 0,-477 103,-477 103,-505"/>
<text text-anchor="start" x="8" y="-493.8" font-family="Helvetica,sans-Serif" font-size="9.00">std::_Vector_base&lt;</text>
<text text-anchor="middle" x="51.5" y="-483.8" font-family="Helvetica,sans-Serif" font-size="9.00"> _Tp, _Alloc &gt;</text>
</a>
</g>
</g>
<!-- Node2 -->
<g id="Node000002" class="node">
<title>Node2</title>
<g id="a_Node000002"><a xlink:href="a08705.html" target="_top" xlink:title=" ">
<polygon fill="white" stroke="#666666" points="286.5,-1052 154.5,-1052 154.5,-1024 286.5,-1024 286.5,-1052"/>
<text text-anchor="start" x="162.5" y="-1040.8" font-family="Helvetica,sans-Serif" font-size="9.00">std::vector&lt; _State</text>
<text text-anchor="middle" x="220.5" y="-1030.8" font-family="Helvetica,sans-Serif" font-size="9.00">&lt; _TraitsT::char_type &gt; &gt;</text>
</a>
</g>
</g>
<!-- Node1&#45;&gt;Node2 -->
<g id="edge1_Node000001_Node000002" class="edge">
<title>Node1&#45;&gt;Node2</title>
<g id="a_edge1_Node000001_Node000002"><a xlink:title=" ">
<path fill="none" stroke="darkgreen" d="M53.16,-515.22C56.2,-608.01 71.64,-939.44 139,-1015 143.35,-1019.88 148.66,-1023.76 154.46,-1026.83"/>
<polygon fill="darkgreen" stroke="darkgreen" points="56.66,-515.01 52.85,-505.12 49.66,-515.22 56.66,-515.01"/>
</a>
</g>
</g>
<!-- Node3 -->
<g id="Node000003" class="node">
<title>Node3</title>
<g id="a_Node000003"><a xlink:href="a08705.html" target="_top" xlink:title=" ">
<polygon fill="white" stroke="#666666" points="296.5,-1006 144.5,-1006 144.5,-968 296.5,-968 296.5,-1006"/>
<text text-anchor="start" x="152.5" y="-994.8" font-family="Helvetica,sans-Serif" font-size="9.00">std::vector&lt; sub_match</text>
<text text-anchor="start" x="152.5" y="-984.8" font-family="Helvetica,sans-Serif" font-size="9.00">&lt; _Bi_iter &gt;, allocator</text>
<text text-anchor="middle" x="220.5" y="-974.8" font-family="Helvetica,sans-Serif" font-size="9.00">&lt; sub_match&lt; _Bi_iter &gt; &gt; &gt;</text>
</a>
</g>
</g>
<!-- Node1&#45;&gt;Node3 -->
<g id="edge2_Node000001_Node000003" class="edge">
<title>Node1&#45;&gt;Node3</title>
<g id="a_edge2_Node000001_Node000003"><a xlink:title=" ">
<path fill="none" stroke="darkgreen" d="M53.85,-515.55C59.06,-602.04 80.61,-890.98 139,-959 141.89,-962.37 145.21,-965.33 148.82,-967.94"/>
<polygon fill="darkgreen" stroke="darkgreen" points="57.33,-515.16 53.25,-505.38 50.34,-515.57 57.33,-515.16"/>
</a>
</g>
</g>
<!-- Node4 -->
<g id="Node000004" class="node">
<title>Node4</title>
<g id="a_Node000004"><a xlink:href="a08705.html" target="_top" xlink:title=" ">
<polygon fill="white" stroke="#666666" points="281,-950 160,-950 160,-922 281,-922 281,-950"/>
<text text-anchor="start" x="168" y="-938.8" font-family="Helvetica,sans-Serif" font-size="9.00">std::vector&lt; block</text>
<text text-anchor="middle" x="220.5" y="-928.8" font-family="Helvetica,sans-Serif" font-size="9.00">_type, allocator_type &gt;</text>
</a>
</g>
</g>
<!-- Node1&#45;&gt;Node4 -->
<g id="edge3_Node000001_Node000004" class="edge">
<title>Node1&#45;&gt;Node4</title>
<g id="a_edge3_Node000001_Node000004"><a xlink:title=" ">
<path fill="none" stroke="darkgreen" d="M54.25,-515.59C60.51,-596.72 84.38,-854.06 139,-913 144.73,-919.18 152,-923.75 159.81,-927.1"/>
<polygon fill="darkgreen" stroke="darkgreen" points="57.72,-515.06 53.48,-505.35 50.74,-515.58 57.72,-515.06"/>
</a>
</g>
</g>
<!-- Node5 -->
<g id="Node000005" class="node">
<title>Node5</title>
<g id="a_Node000005"><a xlink:href="a08705.html" target="_top" xlink:title=" ">
<polygon fill="white" stroke="#666666" points="274,-904 167,-904 167,-876 274,-876 274,-904"/>
<text text-anchor="start" x="175" y="-892.8" font-family="Helvetica,sans-Serif" font-size="9.00">std::vector&lt; _Node</text>
<text text-anchor="middle" x="220.5" y="-882.8" font-family="Helvetica,sans-Serif" font-size="9.00"> *, _Nodeptr_Alloc &gt;</text>
</a>
</g>
</g>
<!-- Node1&#45;&gt;Node5 -->
<g id="edge4_Node000001_Node000005" class="edge">
<title>Node1&#45;&gt;Node5</title>
<g id="a_edge4_Node000001_Node000005"><a xlink:title=" ">
<path fill="none" stroke="darkgreen" d="M54.89,-515.32C62.73,-590.2 89.99,-815.36 139,-867 146.5,-874.91 156.52,-880.15 166.93,-883.62"/>
<polygon fill="darkgreen" stroke="darkgreen" points="58.34,-514.61 53.84,-505.02 51.37,-515.32 58.34,-514.61"/>
</a>
</g>
</g>
<!-- Node6 -->
<g id="Node000006" class="node">
<title>Node6</title>
<g id="a_Node000006"><a xlink:href="a08705.html" target="_top" xlink:title=" ">
<polygon fill="white" stroke="#666666" points="274.5,-858 166.5,-858 166.5,-820 274.5,-820 274.5,-858"/>
<text text-anchor="start" x="174.5" y="-846.8" font-family="Helvetica,sans-Serif" font-size="9.00">std::vector&lt; __gnu</text>
<text text-anchor="start" x="174.5" y="-836.8" font-family="Helvetica,sans-Serif" font-size="9.00">_parallel::_Piece&lt; </text>
<text text-anchor="middle" x="220.5" y="-826.8" font-family="Helvetica,sans-Serif" font-size="9.00">_DifferenceType &gt; &gt;</text>
</a>
</g>
</g>
<!-- Node1&#45;&gt;Node6 -->
<g id="edge5_Node000001_Node000006" class="edge">
<title>Node1&#45;&gt;Node6</title>
<g id="a_edge5_Node000001_Node000006"><a xlink:title=" ">
<path fill="none" stroke="darkgreen" d="M51.85,-515.55C51.64,-574.51 59.4,-725.56 139,-811 146.36,-818.9 156.07,-824.58 166.19,-828.65"/>
<polygon fill="darkgreen" stroke="darkgreen" points="55.35,-515.38 51.97,-505.33 48.35,-515.29 55.35,-515.38"/>
</a>
</g>
</g>
<!-- Node7 -->
<g id="Node000007" class="node">
<title>Node7</title>
<g id="a_Node000007"><a xlink:href="a08705.html" target="_top" xlink:title=" ">
<polygon fill="white" stroke="#666666" points="275.5,-802 165.5,-802 165.5,-774 275.5,-774 275.5,-802"/>
<text text-anchor="start" x="173.5" y="-790.8" font-family="Helvetica,sans-Serif" font-size="9.00">std::vector&lt; Catalog</text>
<text text-anchor="middle" x="220.5" y="-780.8" font-family="Helvetica,sans-Serif" font-size="9.00">_info * &gt;</text>
</a>
</g>
</g>
<!-- Node1&#45;&gt;Node7 -->
<g id="edge6_Node000001_Node000007" class="edge">
<title>Node1&#45;&gt;Node7</title>
<g id="a_edge6_Node000001_Node000007"><a xlink:title=" ">
<path fill="none" stroke="darkgreen" d="M52.86,-515.15C55.01,-568.19 67.73,-695.67 139,-765 146.29,-772.09 155.62,-777.03 165.31,-780.45"/>
<polygon fill="darkgreen" stroke="darkgreen" points="56.36,-514.89 52.55,-505.01 49.36,-515.11 56.36,-514.89"/>
</a>
</g>
</g>
<!-- Node8 -->
<g id="Node000008" class="node">
<title>Node8</title>
<g id="a_Node000008"><a xlink:href="a08705.html" target="_top" xlink:title=" ">
<polygon fill="white" stroke="#666666" points="279,-756 162,-756 162,-738 279,-738 279,-756"/>
<text text-anchor="middle" x="220.5" y="-744.8" font-family="Helvetica,sans-Serif" font-size="9.00">std::vector&lt; _CharT &gt;</text>
</a>
</g>
</g>
<!-- Node1&#45;&gt;Node8 -->
<g id="edge7_Node000001_Node000008" class="edge">
<title>Node1&#45;&gt;Node8</title>
<g id="a_edge7_Node000001_Node000008"><a xlink:title=" ">
<path fill="none" stroke="darkgreen" d="M53.91,-515.24C58.08,-563.62 74.51,-672.32 139,-729 145.56,-734.77 153.57,-738.81 161.95,-741.62"/>
<polygon fill="darkgreen" stroke="darkgreen" points="57.38,-514.8 53.14,-505.09 50.4,-515.33 57.38,-514.8"/>
</a>
</g>
</g>
<!-- Node9 -->
<g id="Node000009" class="node">
<title>Node9</title>
<g id="a_Node000009"><a xlink:href="a08705.html" target="_top" xlink:title=" ">
<polygon fill="white" stroke="#666666" points="282.5,-720 158.5,-720 158.5,-702 282.5,-702 282.5,-720"/>
<text text-anchor="middle" x="220.5" y="-708.8" font-family="Helvetica,sans-Serif" font-size="9.00">std::vector&lt; _StringT &gt;</text>
</a>
</g>
</g>
<!-- Node1&#45;&gt;Node9 -->
<g id="edge8_Node000001_Node000009" class="edge">
<title>Node1&#45;&gt;Node9</title>
<g id="a_edge8_Node000001_Node000009"><a xlink:title=" ">
<path fill="none" stroke="darkgreen" d="M55.67,-515.15C62.61,-557.88 83.25,-646.7 139,-693 144.62,-697.67 151.19,-701.19 158.12,-703.84"/>
<polygon fill="darkgreen" stroke="darkgreen" points="59.1,-514.46 54.15,-505.09 52.18,-515.5 59.1,-514.46"/>
</a>
</g>
</g>
<!-- Node10 -->
<g id="Node000010" class="node">
<title>Node10</title>
<g id="a_Node000010"><a xlink:href="a08705.html" target="_top" xlink:title=" ">
<polygon fill="white" stroke="#666666" points="295,-684 146,-684 146,-656 295,-656 295,-684"/>
<text text-anchor="start" x="154" y="-672.8" font-family="Helvetica,sans-Serif" font-size="9.00">std::vector&lt; std::pair</text>
<text text-anchor="middle" x="220.5" y="-662.8" font-family="Helvetica,sans-Serif" font-size="9.00">&lt; _StrTransT, _StrTransT &gt; &gt;</text>
</a>
</g>
</g>
<!-- Node1&#45;&gt;Node10 -->
<g id="edge9_Node000001_Node000010" class="edge">
<title>Node1&#45;&gt;Node10</title>
<g id="a_edge9_Node000001_Node000010"><a xlink:title=" ">
<path fill="none" stroke="darkgreen" d="M59.24,-514.72C70.23,-549.05 95.27,-612.26 139,-647 143.32,-650.44 148.14,-653.36 153.2,-655.84"/>
<polygon fill="darkgreen" stroke="darkgreen" points="62.56,-513.59 56.28,-505.06 55.86,-515.64 62.56,-513.59"/>
</a>
</g>
</g>
<!-- Node11 -->
<g id="Node000011" class="node">
<title>Node11</title>
<g id="a_Node000011"><a xlink:href="a08705.html" target="_top" xlink:title=" ">
<polygon fill="white" stroke="#666666" points="290.5,-638 150.5,-638 150.5,-620 290.5,-620 290.5,-638"/>
<text text-anchor="middle" x="220.5" y="-626.8" font-family="Helvetica,sans-Serif" font-size="9.00">std::vector&lt; _CharClassT &gt;</text>
</a>
</g>
</g>
<!-- Node1&#45;&gt;Node11 -->
<g id="edge10_Node000001_Node000011" class="edge">
<title>Node1&#45;&gt;Node11</title>
<g id="a_edge10_Node000001_Node000011"><a xlink:title=" ">
<path fill="none" stroke="darkgreen" d="M62.86,-514.34C76.34,-541.87 102.53,-586.95 139,-611 144.5,-614.63 150.62,-617.53 156.96,-619.86"/>
<polygon fill="darkgreen" stroke="darkgreen" points="65.91,-512.6 58.48,-505.06 59.58,-515.59 65.91,-512.6"/>
</a>
</g>
</g>
<!-- Node12 -->
<g id="Node000012" class="node">
<title>Node12</title>
<g id="a_Node000012"><a xlink:href="a08705.html" target="_top" xlink:title=" ">
<polygon fill="white" stroke="#666666" points="283.5,-602 157.5,-602 157.5,-574 283.5,-574 283.5,-602"/>
<text text-anchor="start" x="165.5" y="-590.8" font-family="Helvetica,sans-Serif" font-size="9.00">std::vector&lt; sub_match</text>
<text text-anchor="middle" x="220.5" y="-580.8" font-family="Helvetica,sans-Serif" font-size="9.00">&lt; _BiIter &gt;, _Alloc &gt;</text>
</a>
</g>
</g>
<!-- Node1&#45;&gt;Node12 -->
<g id="edge11_Node000001_Node000012" class="edge">
<title>Node1&#45;&gt;Node12</title>
<g id="a_edge11_Node000001_Node000012"><a xlink:title=" ">
<path fill="none" stroke="darkgreen" d="M72.58,-512.65C88.99,-529.17 113.57,-551.34 139,-565 145.4,-568.44 152.37,-571.41 159.45,-573.97"/>
<polygon fill="darkgreen" stroke="darkgreen" points="74.68,-509.8 65.21,-505.06 69.66,-514.67 74.68,-509.8"/>
</a>
</g>
</g>
<!-- Node13 -->
<g id="Node000013" class="node">
<title>Node13</title>
<g id="a_Node000013"><a xlink:href="a08705.html" target="_top" xlink:title=" ">
<polygon fill="white" stroke="#666666" points="277,-556 164,-556 164,-528 277,-528 277,-556"/>
<text text-anchor="start" x="172" y="-544.8" font-family="Helvetica,sans-Serif" font-size="9.00">std::vector&lt; std::pair</text>
<text text-anchor="middle" x="220.5" y="-534.8" font-family="Helvetica,sans-Serif" font-size="9.00">&lt; _BiIter, int &gt; &gt;</text>
</a>
</g>
</g>
<!-- Node1&#45;&gt;Node13 -->
<g id="edge12_Node000001_Node000013" class="edge">
<title>Node1&#45;&gt;Node13</title>
<g id="a_edge12_Node000001_Node000013"><a xlink:title=" ">
<path fill="none" stroke="darkgreen" d="M104.79,-508.25C116.05,-511.87 127.91,-515.62 139,-519 148.73,-521.96 159.16,-525.03 169.18,-527.91"/>
<polygon fill="darkgreen" stroke="darkgreen" points="105.68,-504.86 95.08,-505.11 103.52,-511.52 105.68,-504.86"/>
</a>
</g>
</g>
<!-- Node14 -->
<g id="Node000014" class="node">
<title>Node14</title>
<g id="a_Node000014"><a xlink:href="a08705.html" target="_top" xlink:title=" ">
<polygon fill="white" stroke="#666666" points="302,-510 139,-510 139,-472 302,-472 302,-510"/>
<text text-anchor="start" x="147" y="-498.8" font-family="Helvetica,sans-Serif" font-size="9.00">std::vector&lt; std::pair</text>
<text text-anchor="start" x="147" y="-488.8" font-family="Helvetica,sans-Serif" font-size="9.00">&lt; _StateIdT, vector&lt; sub</text>
<text text-anchor="middle" x="220.5" y="-478.8" font-family="Helvetica,sans-Serif" font-size="9.00">_match&lt; _BiIter &gt;, _Alloc &gt; &gt; &gt;</text>
</a>
</g>
</g>
<!-- Node1&#45;&gt;Node14 -->
<g id="edge13_Node000001_Node000014" class="edge">
<title>Node1&#45;&gt;Node14</title>
<g id="a_edge13_Node000001_Node000014"><a xlink:title=" ">
<path fill="none" stroke="darkgreen" d="M113.1,-491C121.49,-491 130.21,-491 138.89,-491"/>
<polygon fill="darkgreen" stroke="darkgreen" points="113.06,-487.5 103.06,-491 113.06,-494.5 113.06,-487.5"/>
</a>
</g>
</g>
<!-- Node15 -->
<g id="Node000015" class="node">
<title>Node15</title>
<g id="a_Node000015"><a xlink:href="a08705.html" target="_top" xlink:title=" ">
<polygon fill="white" stroke="#666666" points="276,-454 165,-454 165,-436 276,-436 276,-454"/>
<text text-anchor="middle" x="220.5" y="-442.8" font-family="Helvetica,sans-Serif" font-size="9.00">std::vector&lt; size_t &gt;</text>
</a>
</g>
</g>
<!-- Node1&#45;&gt;Node15 -->
<g id="edge14_Node000001_Node000015" class="edge">
<title>Node1&#45;&gt;Node15</title>
<g id="a_edge14_Node000001_Node000015"><a xlink:title=" ">
<path fill="none" stroke="darkgreen" d="M102.88,-473.82C114.67,-470.04 127.22,-466.22 139,-463 150.74,-459.79 163.56,-456.73 175.45,-454.07"/>
<polygon fill="darkgreen" stroke="darkgreen" points="101.62,-470.55 93.19,-476.97 103.78,-477.21 101.62,-470.55"/>
</a>
</g>
</g>
<!-- Node16 -->
<g id="Node000016" class="node">
<title>Node16</title>
<g id="a_Node000016"><a xlink:href="a08705.html" target="_top" xlink:title=" ">
<polygon fill="white" stroke="#666666" points="270,-418 171,-418 171,-390 270,-390 270,-418"/>
<text text-anchor="start" x="179" y="-406.8" font-family="Helvetica,sans-Serif" font-size="9.00">std::vector&lt; __diff</text>
<text text-anchor="middle" x="220.5" y="-396.8" font-family="Helvetica,sans-Serif" font-size="9.00">_type &gt;</text>
</a>
</g>
</g>
<!-- Node1&#45;&gt;Node16 -->
<g id="edge15_Node000001_Node000016" class="edge">
<title>Node1&#45;&gt;Node16</title>
<g id="a_edge15_Node000001_Node000016"><a xlink:title=" ">
<path fill="none" stroke="darkgreen" d="M75.97,-469.99C92.56,-456.09 115.88,-438.39 139,-427 148.91,-422.12 160.03,-418.11 170.77,-414.88"/>
<polygon fill="darkgreen" stroke="darkgreen" points="73.26,-467.7 67.94,-476.86 77.81,-473.01 73.26,-467.7"/>
</a>
</g>
</g>
<!-- Node17 -->
<g id="Node000017" class="node">
<title>Node17</title>
<g id="a_Node000017"><a xlink:href="a08705.html" target="_top" xlink:title=" ">
<polygon fill="white" stroke="#666666" points="286.5,-372 154.5,-372 154.5,-354 286.5,-354 286.5,-372"/>
<text text-anchor="middle" x="220.5" y="-360.8" font-family="Helvetica,sans-Serif" font-size="9.00">std::vector&lt; time_zone &gt;</text>
</a>
</g>
</g>
<!-- Node1&#45;&gt;Node17 -->
<g id="edge16_Node000001_Node000017" class="edge">
<title>Node1&#45;&gt;Node17</title>
<g id="a_edge16_Node000001_Node000017"><a xlink:title=" ">
<path fill="none" stroke="darkgreen" d="M64.22,-468.07C78.42,-442.71 104.73,-402.59 139,-381 144.82,-377.34 151.28,-374.41 157.95,-372.08"/>
<polygon fill="darkgreen" stroke="darkgreen" points="61.07,-466.53 59.39,-476.99 67.23,-469.87 61.07,-466.53"/>
</a>
</g>
</g>
<!-- Node18 -->
<g id="Node000018" class="node">
<title>Node18</title>
<g id="a_Node000018"><a xlink:href="a08705.html" target="_top" xlink:title=" ">
<polygon fill="white" stroke="#666666" points="281.5,-336 159.5,-336 159.5,-308 281.5,-308 281.5,-336"/>
<text text-anchor="start" x="167.5" y="-324.8" font-family="Helvetica,sans-Serif" font-size="9.00">std::vector&lt; time_zone</text>
<text text-anchor="middle" x="220.5" y="-314.8" font-family="Helvetica,sans-Serif" font-size="9.00">_link &gt;</text>
</a>
</g>
</g>
<!-- Node1&#45;&gt;Node18 -->
<g id="edge17_Node000001_Node000018" class="edge">
<title>Node1&#45;&gt;Node18</title>
<g id="a_edge17_Node000001_Node000018"><a xlink:title=" ">
<path fill="none" stroke="darkgreen" d="M60.18,-467.39C71.95,-434.95 97.53,-376.99 139,-345 145.1,-340.29 152.12,-336.55 159.43,-333.57"/>
<polygon fill="darkgreen" stroke="darkgreen" points="56.83,-466.36 56.84,-476.96 63.44,-468.67 56.83,-466.36"/>
</a>
</g>
</g>
<!-- Node19 -->
<g id="Node000019" class="node">
<title>Node19</title>
<g id="a_Node000019"><a xlink:href="a08705.html" target="_top" xlink:title=" ">
<polygon fill="white" stroke="#666666" points="291.5,-290 149.5,-290 149.5,-272 291.5,-272 291.5,-290"/>
<text text-anchor="middle" x="220.5" y="-278.8" font-family="Helvetica,sans-Serif" font-size="9.00">std::vector&lt; leap_second &gt;</text>
</a>
</g>
</g>
<!-- Node1&#45;&gt;Node19 -->
<g id="edge18_Node000001_Node000019" class="edge">
<title>Node1&#45;&gt;Node19</title>
<g id="a_edge18_Node000001_Node000019"><a xlink:title=" ">
<path fill="none" stroke="darkgreen" d="M56.27,-466.87C64,-425.78 85.67,-342.46 139,-299 143.44,-295.38 148.46,-292.45 153.77,-290.09"/>
<polygon fill="darkgreen" stroke="darkgreen" points="52.8,-466.36 54.51,-476.81 59.7,-467.57 52.8,-466.36"/>
</a>
</g>
</g>
<!-- Node20 -->
<g id="Node000020" class="node">
<title>Node20</title>
<g id="a_Node000020"><a xlink:href="a08705.html" target="_top" xlink:title=" ">
<polygon fill="white" stroke="#666666" points="279,-254 162,-254 162,-236 279,-236 279,-254"/>
<text text-anchor="middle" x="220.5" y="-242.8" font-family="Helvetica,sans-Serif" font-size="9.00">std::vector&lt; double &gt;</text>
</a>
</g>
</g>
<!-- Node1&#45;&gt;Node20 -->
<g id="edge19_Node000001_Node000020" class="edge">
<title>Node1&#45;&gt;Node20</title>
<g id="a_edge19_Node000001_Node000020"><a xlink:title=" ">
<path fill="none" stroke="darkgreen" d="M54.35,-466.79C59.27,-419.94 76.95,-316.78 139,-263 145.49,-257.37 153.36,-253.39 161.61,-250.6"/>
<polygon fill="darkgreen" stroke="darkgreen" points="50.84,-466.63 53.39,-476.91 57.81,-467.29 50.84,-466.63"/>
</a>
</g>
</g>
<!-- Node21 -->
<g id="Node000021" class="node">
<title>Node21</title>
<g id="a_Node000021"><a xlink:href="a08705.html" target="_top" xlink:title=" ">
<polygon fill="white" stroke="#666666" points="278.5,-218 162.5,-218 162.5,-200 278.5,-200 278.5,-218"/>
<text text-anchor="middle" x="220.5" y="-206.8" font-family="Helvetica,sans-Serif" font-size="9.00">std::vector&lt; _Cmpt &gt;</text>
</a>
</g>
</g>
<!-- Node1&#45;&gt;Node21 -->
<g id="edge20_Node000001_Node000021" class="edge">
<title>Node1&#45;&gt;Node21</title>
<g id="a_edge20_Node000001_Node000021"><a xlink:title=" ">
<path fill="none" stroke="darkgreen" d="M52.91,-466.68C55.16,-414.49 68.15,-291.31 139,-227 145.57,-221.03 153.69,-216.9 162.2,-214.06"/>
<polygon fill="darkgreen" stroke="darkgreen" points="49.41,-466.58 52.57,-476.69 56.4,-466.81 49.41,-466.58"/>
</a>
</g>
</g>
<!-- Node22 -->
<g id="Node000022" class="node">
<title>Node22</title>
<g id="a_Node000022"><a xlink:href="a08705.html" target="_top" xlink:title=" ">
<polygon fill="white" stroke="#666666" points="285.5,-182 155.5,-182 155.5,-164 285.5,-164 285.5,-182"/>
<text text-anchor="middle" x="220.5" y="-170.8" font-family="Helvetica,sans-Serif" font-size="9.00">std::vector&lt; _RealType &gt;</text>
</a>
</g>
</g>
<!-- Node1&#45;&gt;Node22 -->
<g id="edge21_Node000001_Node000022" class="edge">
<title>Node1&#45;&gt;Node22</title>
<g id="a_edge21_Node000001_Node000022"><a xlink:title=" ">
<path fill="none" stroke="darkgreen" d="M51.78,-466.63C51.5,-409.49 59.25,-266.05 139,-191 143.69,-186.58 149.22,-183.16 155.15,-180.53"/>
<polygon fill="darkgreen" stroke="darkgreen" points="48.28,-466.91 51.92,-476.86 55.28,-466.81 48.28,-466.91"/>
</a>
</g>
</g>
<!-- Node23 -->
<g id="Node000023" class="node">
<title>Node23</title>
<g id="a_Node000023"><a xlink:href="a08705.html" target="_top" xlink:title=" ">
<polygon fill="white" stroke="#666666" points="285,-146 156,-146 156,-128 285,-128 285,-146"/>
<text text-anchor="middle" x="220.5" y="-134.8" font-family="Helvetica,sans-Serif" font-size="9.00">std::vector&lt; _BigBlock &gt;</text>
</a>
</g>
</g>
<!-- Node1&#45;&gt;Node23 -->
<g id="edge22_Node000001_Node000023" class="edge">
<title>Node1&#45;&gt;Node23</title>
<g id="a_edge22_Node000001_Node000023"><a xlink:title=" ">
<path fill="none" stroke="darkgreen" d="M55.44,-466.87C64.4,-397.39 93.51,-199.05 139,-155 143.83,-150.32 149.61,-146.75 155.81,-144.04"/>
<polygon fill="darkgreen" stroke="darkgreen" points="51.96,-466.51 54.18,-476.87 58.9,-467.38 51.96,-466.51"/>
</a>
</g>
</g>
<!-- Node24 -->
<g id="Node000024" class="node">
<title>Node24</title>
<g id="a_Node000024"><a xlink:href="a08705.html" target="_top" xlink:title=" ">
<polygon fill="white" stroke="#666666" points="269.5,-110 171.5,-110 171.5,-92 269.5,-92 269.5,-110"/>
<text text-anchor="middle" x="220.5" y="-98.8" font-family="Helvetica,sans-Serif" font-size="9.00">std::vector&lt; int &gt;</text>
</a>
</g>
</g>
<!-- Node1&#45;&gt;Node24 -->
<g id="edge23_Node000001_Node000024" class="edge">
<title>Node1&#45;&gt;Node24</title>
<g id="a_edge23_Node000001_Node000024"><a xlink:title=" ">
<path fill="none" stroke="darkgreen" d="M54.85,-466.31C62.49,-391.36 89.06,-168.51 139,-119 147.64,-110.43 159.42,-105.57 171.3,-102.89"/>
<polygon fill="darkgreen" stroke="darkgreen" points="51.33,-466.35 53.82,-476.64 58.3,-467.04 51.33,-466.35"/>
</a>
</g>
</g>
<!-- Node25 -->
<g id="Node000025" class="node">
<title>Node25</title>
<g id="a_Node000025"><a xlink:href="a08705.html" target="_top" xlink:title=" ">
<polygon fill="white" stroke="#666666" points="271,-74 170,-74 170,-46 271,-46 271,-74"/>
<text text-anchor="start" x="178" y="-62.8" font-family="Helvetica,sans-Serif" font-size="9.00">std::vector&lt; result</text>
<text text-anchor="middle" x="220.5" y="-52.8" font-family="Helvetica,sans-Serif" font-size="9.00">_type &gt;</text>
</a>
</g>
</g>
<!-- Node1&#45;&gt;Node25 -->
<g id="edge24_Node000001_Node000025" class="edge">
<title>Node1&#45;&gt;Node25</title>
<g id="a_edge24_Node000001_Node000025"><a xlink:title=" ">
<path fill="none" stroke="darkgreen" d="M54.41,-466.69C61.12,-387.65 86.05,-139.76 139,-83 147.13,-74.28 158.31,-68.79 169.75,-65.35"/>
<polygon fill="darkgreen" stroke="darkgreen" points="50.92,-466.43 53.59,-476.69 57.9,-467.01 50.92,-466.43"/>
</a>
</g>
</g>
<!-- Node26 -->
<g id="Node000026" class="node">
<title>Node26</title>
<g id="a_Node000026"><a xlink:href="a08705.html" target="_top" xlink:title="A standard container which offers fixed time access to individual elements in any order.">
<polygon fill="white" stroke="#666666" points="269.5,-28 171.5,-28 171.5,0 269.5,0 269.5,-28"/>
<text text-anchor="start" x="179.5" y="-16.8" font-family="Helvetica,sans-Serif" font-size="9.00">std::vector&lt; _Tp, </text>
<text text-anchor="middle" x="220.5" y="-6.8" font-family="Helvetica,sans-Serif" font-size="9.00">_Alloc &gt;</text>
</a>
</g>
</g>
<!-- Node1&#45;&gt;Node26 -->
<g id="edge25_Node000001_Node000026" class="edge">
<title>Node1&#45;&gt;Node26</title>
<g id="a_edge25_Node000001_Node000026"><a xlink:title=" ">
<path fill="none" stroke="darkgreen" d="M53.84,-466.8C59,-382.19 80.34,-101.2 139,-37 147.43,-27.77 159.28,-22.15 171.31,-18.75"/>
<polygon fill="darkgreen" stroke="darkgreen" points="50.33,-466.79 53.24,-476.98 57.32,-467.2 50.33,-466.79"/>
</a>
</g>
</g>
<!-- Node27 -->
<g id="Node000027" class="node">
<title>Node27</title>
<g id="a_Node000027"><a xlink:href="a07337.html" target="_top" xlink:title="The results of a match or search operation.">
<polygon fill="white" stroke="#666666" points="439,-28 338,-28 338,0 439,0 439,-28"/>
<text text-anchor="start" x="346" y="-16.8" font-family="Helvetica,sans-Serif" font-size="9.00">std::match_results</text>
<text text-anchor="middle" x="388.5" y="-6.8" font-family="Helvetica,sans-Serif" font-size="9.00">&lt; _Bi_iter, _Alloc &gt;</text>
</a>
</g>
</g>
<!-- Node26&#45;&gt;Node27 -->
<g id="edge26_Node000026_Node000027" class="edge">
<title>Node26&#45;&gt;Node27</title>
<g id="a_edge26_Node000026_Node000027"><a xlink:title=" ">
<path fill="none" stroke="#8b1a1a" d="M279.56,-14C298.58,-14 319.52,-14 337.86,-14"/>
<polygon fill="#8b1a1a" stroke="#8b1a1a" points="279.51,-10.5 269.51,-14 279.51,-17.5 279.51,-10.5"/>
</a>
</g>
</g>
</g>
</svg>

<g id="navigator" transform="translate(0 0)" fill="#404254">
  <rect fill="#f2f5e9" fill-opacity="0.5" stroke="#606060" stroke-width=".5" x="0" y="0" width="60" height="60"/>
  <use id="zoomplus" xlink:href="#zoomPlus" x="17" y="9" onmousedown="handleZoom(evt,'in')"/>
  <use id="zoomminus" xlink:href="#zoomMin" x="42" y="9" onmousedown="handleZoom(evt,'out')"/>
  <use id="reset" xlink:href="#resetDef" x="30" y="36" onmousedown="handleReset()"/>
   <use id="arrowup" xlink:href="#arrowUp" x="0" y="0" onmousedown="handlePan(0,-1)"/>
  <use id="arrowright" xlink:href="#arrowRight" x="0" y="0" onmousedown="handlePan(1,0)"/>
  <use id="arrowdown" xlink:href="#arrowDown" x="0" y="0" onmousedown="handlePan(0,1)"/>
  <use id="arrowleft" xlink:href="#arrowLeft" x="0" y="0" onmousedown="handlePan(-1,0)"/>
</g>
<svg viewBox="0 0 15 15" width="100%" height="30px" preserveAspectRatio="xMaxYMin meet">
 <g id="arrow_out" transform="scale(0.3 0.3)">
  <a xlink:href="a08692_org.svg" target="_base">
   <rect id="button" ry="5" rx="5" y="6" x="6" height="38" width="38"
        fill="#f2f5e9" fill-opacity="0.5" stroke="#606060" stroke-width="1.0"/>
   <path id="arrow"
     d="M 11.500037,31.436501 C 11.940474,20.09759 22.043105,11.32322 32.158766,21.979434 L 37.068811,17.246167 C 37.068811,17.246167 37.088388,32 37.088388,32 L 22.160133,31.978069 C 22.160133,31.978069 26.997745,27.140456 26.997745,27.140456 C 18.528582,18.264221 13.291696,25.230495 11.500037,31.436501 z"
     style="fill:#404040;"/>
  </a>
 </g>
</svg>

<style type='text/css'>
<![CDATA[
[data-mouse-over-selected='false'] { opacity: 0.7; }
[data-mouse-over-selected='true']  { opacity: 1.0; }
]]>
</style>
<script type="application/ecmascript"><![CDATA[
document.addEventListener('DOMContentLoaded', (event) => {
  highlightEdges();
  highlightAdjacentNodes();
});
]]></script>
</svg>
