<?xml version="1.0" encoding="UTF-8" standalone="no"?>
<!DOCTYPE svg PUBLIC "-//W3C//DTD SVG 1.1//EN"
 "http://www.w3.org/Graphics/SVG/1.1/DTD/svg11.dtd">
<!-- Generated by graphviz version 2.43.0 (0)
 -->
<!-- Title: std::ctype_base Pages: 1 -->
<svg width="547pt" height="123pt"
 viewBox="0.00 0.00 547.00 123.00" xmlns="http://www.w3.org/2000/svg" xmlns:xlink="http://www.w3.org/1999/xlink">
<g id="graph0" class="graph" transform="scale(1 1) rotate(0) translate(4 119)">
<title>std::ctype_base</title>
<!-- Node1 -->
<g id="Node000001" class="node">
<title>Node1</title>
<g id="a_Node000001"><a xlink:title="Base class for ctype.">
<polygon fill="#999999" stroke="#666666" points="88,-64 0,-64 0,-46 88,-46 88,-64"/>
<text text-anchor="middle" x="44" y="-52.8" font-family="Helvetica,sans-Serif" font-size="9.00">std::ctype_base</text>
</a>
</g>
</g>
<!-- Node2 -->
<g id="Node000002" class="node">
<title>Node2</title>
<g id="a_Node000002"><a xlink:href="a06177.html" target="_top" xlink:title=" ">
<polygon fill="white" stroke="#666666" points="237,-115 124,-115 124,-87 237,-87 237,-115"/>
<text text-anchor="start" x="132" y="-103.8" font-family="Helvetica,sans-Serif" font-size="9.00">std::__ctype_abstract</text>
<text text-anchor="middle" x="180.5" y="-93.8" font-family="Helvetica,sans-Serif" font-size="9.00">_base&lt; wchar_t &gt;</text>
</a>
</g>
</g>
<!-- Node1&#45;&gt;Node2 -->
<g id="edge1_Node000001_Node000002" class="edge">
<title>Node1&#45;&gt;Node2</title>
<g id="a_edge1_Node000001_Node000002"><a xlink:title=" ">
<path fill="none" stroke="#63b8ff" d="M81.47,-67.47C99.07,-73.49 120.25,-80.74 138.41,-86.95"/>
<polygon fill="#63b8ff" stroke="#63b8ff" points="82.17,-64.01 71.57,-64.09 79.9,-70.64 82.17,-64.01"/>
</a>
</g>
</g>
<!-- Node4 -->
<g id="Node000004" class="node">
<title>Node4</title>
<g id="a_Node000004"><a xlink:href="a06177.html" target="_top" xlink:title="Common base for ctype facet.">
<polygon fill="white" stroke="#666666" points="237,-69 124,-69 124,-41 237,-41 237,-69"/>
<text text-anchor="start" x="132" y="-57.8" font-family="Helvetica,sans-Serif" font-size="9.00">std::__ctype_abstract</text>
<text text-anchor="middle" x="180.5" y="-47.8" font-family="Helvetica,sans-Serif" font-size="9.00">_base&lt; _CharT &gt;</text>
</a>
</g>
</g>
<!-- Node1&#45;&gt;Node4 -->
<g id="edge3_Node000001_Node000004" class="edge">
<title>Node1&#45;&gt;Node4</title>
<g id="a_edge3_Node000001_Node000004"><a xlink:title=" ">
<path fill="none" stroke="#63b8ff" d="M98.38,-55C106.8,-55 115.52,-55 123.99,-55"/>
<polygon fill="#63b8ff" stroke="#63b8ff" points="98.3,-51.5 88.3,-55 98.3,-58.5 98.3,-51.5"/>
</a>
</g>
</g>
<!-- Node7 -->
<g id="Node000007" class="node">
<title>Node7</title>
<g id="a_Node000007"><a xlink:href="a06185.html" target="_top" xlink:title="The ctype&lt;char&gt; specialization.">
<polygon fill="white" stroke="#666666" points="232.5,-23 128.5,-23 128.5,-5 232.5,-5 232.5,-23"/>
<text text-anchor="middle" x="180.5" y="-11.8" font-family="Helvetica,sans-Serif" font-size="9.00">std::ctype&lt; char &gt;</text>
</a>
</g>
</g>
<!-- Node1&#45;&gt;Node7 -->
<g id="edge6_Node000001_Node000007" class="edge">
<title>Node1&#45;&gt;Node7</title>
<g id="a_edge6_Node000001_Node000007"><a xlink:title=" ">
<path fill="none" stroke="#63b8ff" d="M84.69,-42.9C105.51,-36.55 130.6,-28.91 149.73,-23.07"/>
<polygon fill="#63b8ff" stroke="#63b8ff" points="83.39,-39.64 74.85,-45.9 85.44,-46.33 83.39,-39.64"/>
</a>
</g>
</g>
<!-- Node3 -->
<g id="Node000003" class="node">
<title>Node3</title>
<g id="a_Node000003"><a xlink:href="a06189.html" target="_top" xlink:title="The ctype&lt;wchar_t&gt; specialization.">
<polygon fill="white" stroke="#666666" points="392,-110 273,-110 273,-92 392,-92 392,-110"/>
<text text-anchor="middle" x="332.5" y="-98.8" font-family="Helvetica,sans-Serif" font-size="9.00">std::ctype&lt; wchar_t &gt;</text>
</a>
</g>
</g>
<!-- Node2&#45;&gt;Node3 -->
<g id="edge2_Node000002_Node000003" class="edge">
<title>Node2&#45;&gt;Node3</title>
<g id="a_edge2_Node000002_Node000003"><a xlink:title=" ">
<path fill="none" stroke="#63b8ff" d="M247.53,-101C255.96,-101 264.54,-101 272.84,-101"/>
<polygon fill="#63b8ff" stroke="#63b8ff" points="247.35,-97.5 237.35,-101 247.35,-104.5 247.35,-97.5"/>
</a>
</g>
</g>
<!-- Node5 -->
<g id="Node000005" class="node">
<title>Node5</title>
<g id="a_Node000005"><a xlink:href="a06181.html" target="_top" xlink:title="Primary class template ctype facet.">
<polygon fill="white" stroke="#666666" points="389.5,-64 275.5,-64 275.5,-46 389.5,-46 389.5,-64"/>
<text text-anchor="middle" x="332.5" y="-52.8" font-family="Helvetica,sans-Serif" font-size="9.00">std::ctype&lt; _CharT &gt;</text>
</a>
</g>
</g>
<!-- Node4&#45;&gt;Node5 -->
<g id="edge4_Node000004_Node000005" class="edge">
<title>Node4&#45;&gt;Node5</title>
<g id="a_edge4_Node000004_Node000005"><a xlink:title=" ">
<path fill="none" stroke="#63b8ff" d="M247.38,-55C256.7,-55 266.23,-55 275.35,-55"/>
<polygon fill="#63b8ff" stroke="#63b8ff" points="247.35,-51.5 237.35,-55 247.35,-58.5 247.35,-51.5"/>
</a>
</g>
</g>
<!-- Node6 -->
<g id="Node000006" class="node">
<title>Node6</title>
<g id="a_Node000006"><a xlink:href="a06193.html" target="_top" xlink:title="class ctype_byname [22.2.1.2].">
<polygon fill="white" stroke="#666666" points="539,-69 428,-69 428,-41 539,-41 539,-69"/>
<text text-anchor="start" x="436" y="-57.8" font-family="Helvetica,sans-Serif" font-size="9.00">std::ctype_byname&lt;</text>
<text text-anchor="middle" x="483.5" y="-47.8" font-family="Helvetica,sans-Serif" font-size="9.00"> _CharT &gt;</text>
</a>
</g>
</g>
<!-- Node5&#45;&gt;Node6 -->
<g id="edge5_Node000005_Node000006" class="edge">
<title>Node5&#45;&gt;Node6</title>
<g id="a_edge5_Node000005_Node000006"><a xlink:title=" ">
<path fill="none" stroke="#63b8ff" d="M400.1,-55C409.28,-55 418.63,-55 427.57,-55"/>
<polygon fill="#63b8ff" stroke="#63b8ff" points="399.83,-51.5 389.83,-55 399.83,-58.5 399.83,-51.5"/>
</a>
</g>
</g>
<!-- Node8 -->
<g id="Node000008" class="node">
<title>Node8</title>
<g id="a_Node000008"><a xlink:href="a06197.html" target="_top" xlink:title="22.2.1.4 Class ctype_byname specializations.">
<polygon fill="white" stroke="#666666" points="388,-28 277,-28 277,0 388,0 388,-28"/>
<text text-anchor="start" x="285" y="-16.8" font-family="Helvetica,sans-Serif" font-size="9.00">std::ctype_byname&lt;</text>
<text text-anchor="middle" x="332.5" y="-6.8" font-family="Helvetica,sans-Serif" font-size="9.00"> char &gt;</text>
</a>
</g>
</g>
<!-- Node7&#45;&gt;Node8 -->
<g id="edge7_Node000007_Node000008" class="edge">
<title>Node7&#45;&gt;Node8</title>
<g id="a_edge7_Node000007_Node000008"><a xlink:title=" ">
<path fill="none" stroke="#63b8ff" d="M242.91,-14C254.18,-14 265.88,-14 276.94,-14"/>
<polygon fill="#63b8ff" stroke="#63b8ff" points="242.7,-10.5 232.7,-14 242.7,-17.5 242.7,-10.5"/>
</a>
</g>
</g>
</g>
</svg>
