<?xml version="1.0" encoding="UTF-8" standalone="no"?>
<!DOCTYPE svg PUBLIC "-//W3C//DTD SVG 1.1//EN"
 "http://www.w3.org/Graphics/SVG/1.1/DTD/svg11.dtd">
<!-- Generated by graphviz version 2.43.0 (0)
 -->
<!-- Title: __gnu_debug::_Safe_sequence&lt; _Sequence &gt; Pages: 1 -->
<svg width="170pt" height="164pt"
 viewBox="0.00 0.00 170.00 164.00" xmlns="http://www.w3.org/2000/svg" xmlns:xlink="http://www.w3.org/1999/xlink">
<g id="graph0" class="graph" transform="scale(1 1) rotate(0) translate(4 160)">
<title>__gnu_debug::_Safe_sequence&lt; _Sequence &gt;</title>
<!-- Node1 -->
<g id="Node000001" class="node">
<title>Node1</title>
<g id="a_Node000001"><a xlink:title="Base class for constructing a safe sequence type that tracks iterators that reference it.">
<polygon fill="#999999" stroke="#666666" points="148.5,-92 13.5,-92 13.5,-64 148.5,-64 148.5,-92"/>
<text text-anchor="start" x="21.5" y="-80.8" font-family="Helvetica,sans-Serif" font-size="9.00">__gnu_debug::_Safe</text>
<text text-anchor="middle" x="81" y="-70.8" font-family="Helvetica,sans-Serif" font-size="9.00">_sequence&lt; _Sequence &gt;</text>
</a>
</g>
</g>
<!-- Node3 -->
<g id="Node000003" class="node">
<title>Node3</title>
<g id="a_Node000003"><a xlink:href="a09541.html" target="_top" xlink:title="Like _Safe_sequence but with a special _M_invalidate_all implementation not invalidating past&#45;the&#45;end...">
<polygon fill="white" stroke="#666666" points="162,-28 0,-28 0,0 162,0 162,-28"/>
<text text-anchor="start" x="8" y="-16.8" font-family="Helvetica,sans-Serif" font-size="9.00">__gnu_debug::_Safe</text>
<text text-anchor="middle" x="81" y="-6.8" font-family="Helvetica,sans-Serif" font-size="9.00">_node_sequence&lt; _Sequence &gt;</text>
</a>
</g>
</g>
<!-- Node1&#45;&gt;Node3 -->
<g id="edge2_Node000001_Node000003" class="edge">
<title>Node1&#45;&gt;Node3</title>
<g id="a_edge2_Node000001_Node000003"><a xlink:title=" ">
<path fill="none" stroke="#63b8ff" d="M81,-53.6C81,-44.98 81,-35.52 81,-28.13"/>
<polygon fill="#63b8ff" stroke="#63b8ff" points="77.5,-53.85 81,-63.85 84.5,-53.85 77.5,-53.85"/>
</a>
</g>
</g>
<!-- Node2 -->
<g id="Node000002" class="node">
<title>Node2</title>
<g id="a_Node000002"><a xlink:href="a09497.html" target="_top" xlink:title="Base class that supports tracking of iterators that reference a sequence.">
<polygon fill="white" stroke="#666666" points="134.5,-156 27.5,-156 27.5,-128 134.5,-128 134.5,-156"/>
<text text-anchor="start" x="35.5" y="-144.8" font-family="Helvetica,sans-Serif" font-size="9.00">__gnu_debug::_Safe</text>
<text text-anchor="middle" x="81" y="-134.8" font-family="Helvetica,sans-Serif" font-size="9.00">_sequence_base</text>
</a>
</g>
</g>
<!-- Node2&#45;&gt;Node1 -->
<g id="edge1_Node000001_Node000002" class="edge">
<title>Node2&#45;&gt;Node1</title>
<g id="a_edge1_Node000001_Node000002"><a xlink:title=" ">
<path fill="none" stroke="#63b8ff" d="M81,-117.6C81,-108.98 81,-99.52 81,-92.13"/>
<polygon fill="#63b8ff" stroke="#63b8ff" points="77.5,-117.85 81,-127.85 84.5,-117.85 77.5,-117.85"/>
</a>
</g>
</g>
</g>
</svg>
