<?xml version="1.0" encoding="UTF-8" standalone="no"?>
<!DOCTYPE svg PUBLIC "-//W3C//DTD SVG 1.1//EN"
 "http://www.w3.org/Graphics/SVG/1.1/DTD/svg11.dtd">
<!-- Generated by graphviz version 2.43.0 (0)
 -->
<!-- Title: __gnu_debug::_Safe_iterator_base Pages: 1 -->
<svg width="469pt" height="229pt"
 viewBox="0.00 0.00 469.00 229.00" xmlns="http://www.w3.org/2000/svg" xmlns:xlink="http://www.w3.org/1999/xlink">

<svg id="main" version="1.1" xmlns="http://www.w3.org/2000/svg" xmlns:xlink="http://www.w3.org/1999/xlink" xml:space="preserve" onload="init(evt)">
<style type="text/css"><![CDATA[
.node, .edge {opacity: 0.7;}
.node.selected, .edge.selected {opacity: 1;}
.edge:hover path { stroke: red; }
.edge:hover polygon { stroke: red; fill: red; }
]]></style>
<script type="application/ecmascript" xlink:href="svg.min.js"/>
<svg id="graph" class="graph">
<g id="graph0" class="graph" transform="scale(1 1) rotate(0) translate(4 225)">
<title>__gnu_debug::_Safe_iterator_base</title>
<!-- Node1 -->
<g id="Node000001" class="node">
<title>Node1</title>
<g id="a_Node000001"><a xlink:title="Basic functionality for a safe iterator.">
<polygon fill="#999999" stroke="#666666" points="107,-114 0,-114 0,-86 107,-86 107,-114"/>
<text text-anchor="start" x="8" y="-102.8" font-family="Helvetica,sans-Serif" font-size="9.00">__gnu_debug::_Safe</text>
<text text-anchor="middle" x="53.5" y="-92.8" font-family="Helvetica,sans-Serif" font-size="9.00">_iterator_base</text>
</a>
</g>
</g>
<!-- Node2 -->
<g id="Node000002" class="node">
<title>Node2</title>
<g id="a_Node000002"><a xlink:href="a04937.html" target="_top" xlink:title=" ">
<polygon fill="white" stroke="#666666" points="283.5,-221 153.5,-221 153.5,-173 283.5,-173 283.5,-221"/>
<text text-anchor="start" x="161.5" y="-209.8" font-family="Helvetica,sans-Serif" font-size="9.00">__gnu_debug::_Safe</text>
<text text-anchor="start" x="161.5" y="-199.8" font-family="Helvetica,sans-Serif" font-size="9.00">_iterator&lt; _Iterator,</text>
<text text-anchor="start" x="161.5" y="-189.8" font-family="Helvetica,sans-Serif" font-size="9.00"> _Sequence, std::forward</text>
<text text-anchor="middle" x="218.5" y="-179.8" font-family="Helvetica,sans-Serif" font-size="9.00">_iterator_tag &gt;</text>
</a>
</g>
</g>
<!-- Node1&#45;&gt;Node2 -->
<g id="edge1_Node000001_Node000002" class="edge">
<title>Node1&#45;&gt;Node2</title>
<g id="a_edge1_Node000001_Node000002"><a xlink:title=" ">
<path fill="none" stroke="#63b8ff" d="M79.63,-120.35C96.84,-133.73 120.54,-151.09 143,-164 148.4,-167.1 154.14,-170.11 159.95,-172.97"/>
<polygon fill="#63b8ff" stroke="#63b8ff" points="81.75,-117.57 71.73,-114.13 77.42,-123.07 81.75,-117.57"/>
</a>
</g>
</g>
<!-- Node3 -->
<g id="Node000003" class="node">
<title>Node3</title>
<g id="a_Node000003"><a xlink:href="a04937.html" target="_top" xlink:title=" ">
<polygon fill="white" stroke="#666666" points="294,-155 143,-155 143,-107 294,-107 294,-155"/>
<text text-anchor="start" x="151" y="-143.8" font-family="Helvetica,sans-Serif" font-size="9.00">__gnu_debug::_Safe</text>
<text text-anchor="start" x="151" y="-133.8" font-family="Helvetica,sans-Serif" font-size="9.00">_iterator&lt; _Iterator,</text>
<text text-anchor="start" x="151" y="-123.8" font-family="Helvetica,sans-Serif" font-size="9.00"> _Sequence, std::bidirectional</text>
<text text-anchor="middle" x="218.5" y="-113.8" font-family="Helvetica,sans-Serif" font-size="9.00">_iterator_tag &gt;</text>
</a>
</g>
</g>
<!-- Node1&#45;&gt;Node3 -->
<g id="edge2_Node000001_Node000003" class="edge">
<title>Node1&#45;&gt;Node3</title>
<g id="a_edge2_Node000001_Node000003"><a xlink:title=" ">
<path fill="none" stroke="#63b8ff" d="M117.44,-111.97C125.79,-113.56 134.41,-115.2 142.93,-116.82"/>
<polygon fill="#63b8ff" stroke="#63b8ff" points="117.9,-108.49 107.42,-110.06 116.59,-115.37 117.9,-108.49"/>
</a>
</g>
</g>
<!-- Node4 -->
<g id="Node000004" class="node">
<title>Node4</title>
<g id="a_Node000004"><a xlink:href="a04937.html" target="_top" xlink:title="Safe iterator wrapper.">
<polygon fill="white" stroke="#666666" points="284,-89 153,-89 153,-51 284,-51 284,-89"/>
<text text-anchor="start" x="161" y="-77.8" font-family="Helvetica,sans-Serif" font-size="9.00">__gnu_debug::_Safe</text>
<text text-anchor="start" x="161" y="-67.8" font-family="Helvetica,sans-Serif" font-size="9.00">_iterator&lt; _Iterator,</text>
<text text-anchor="middle" x="218.5" y="-57.8" font-family="Helvetica,sans-Serif" font-size="9.00"> _Sequence, _Category &gt;</text>
</a>
</g>
</g>
<!-- Node1&#45;&gt;Node4 -->
<g id="edge3_Node000001_Node000004" class="edge">
<title>Node1&#45;&gt;Node4</title>
<g id="a_edge3_Node000001_Node000004"><a xlink:title=" ">
<path fill="none" stroke="#63b8ff" d="M117.47,-88.41C129.08,-86.27 141.22,-84.04 152.88,-81.89"/>
<polygon fill="#63b8ff" stroke="#63b8ff" points="116.62,-85.01 107.42,-90.26 117.89,-91.89 116.62,-85.01"/>
</a>
</g>
</g>
<!-- Node5 -->
<g id="Node000005" class="node">
<title>Node5</title>
<g id="a_Node000005"><a xlink:href="a09545.html" target="_top" xlink:title="Basic functionality for a safe iterator.">
<polygon fill="white" stroke="#666666" points="272,-33 165,-33 165,-5 272,-5 272,-33"/>
<text text-anchor="start" x="173" y="-21.8" font-family="Helvetica,sans-Serif" font-size="9.00">__gnu_debug::_Safe</text>
<text text-anchor="middle" x="218.5" y="-11.8" font-family="Helvetica,sans-Serif" font-size="9.00">_local_iterator_base</text>
</a>
</g>
</g>
<!-- Node1&#45;&gt;Node5 -->
<g id="edge4_Node000001_Node000005" class="edge">
<title>Node1&#45;&gt;Node5</title>
<g id="a_edge4_Node000001_Node000005"><a xlink:title=" ">
<path fill="none" stroke="#63b8ff" d="M80.91,-79.86C97.92,-67.61 120.92,-52.39 143,-42 149.98,-38.72 157.55,-35.75 165.09,-33.13"/>
<polygon fill="#63b8ff" stroke="#63b8ff" points="78.59,-77.22 72.59,-85.95 82.73,-82.86 78.59,-77.22"/>
</a>
</g>
</g>
<!-- Node6 -->
<g id="Node000006" class="node">
<title>Node6</title>
<g id="a_Node000006"><a xlink:href="a09393.html" target="_top" xlink:title="Safe iterator wrapper.">
<polygon fill="white" stroke="#666666" points="461,-38 330,-38 330,0 461,0 461,-38"/>
<text text-anchor="start" x="338" y="-26.8" font-family="Helvetica,sans-Serif" font-size="9.00">__gnu_debug::_Safe</text>
<text text-anchor="start" x="338" y="-16.8" font-family="Helvetica,sans-Serif" font-size="9.00">_local_iterator&lt; _Iterator,</text>
<text text-anchor="middle" x="395.5" y="-6.8" font-family="Helvetica,sans-Serif" font-size="9.00"> _Sequence &gt;</text>
</a>
</g>
</g>
<!-- Node5&#45;&gt;Node6 -->
<g id="edge5_Node000005_Node000006" class="edge">
<title>Node5&#45;&gt;Node6</title>
<g id="a_edge5_Node000005_Node000006"><a xlink:title=" ">
<path fill="none" stroke="#63b8ff" d="M282.04,-19C297.6,-19 314.3,-19 329.96,-19"/>
<polygon fill="#63b8ff" stroke="#63b8ff" points="282.01,-15.5 272.01,-19 282.01,-22.5 282.01,-15.5"/>
</a>
</g>
</g>
</g>
</svg>
</svg>

<style type='text/css'>
<![CDATA[
[data-mouse-over-selected='false'] { opacity: 0.7; }
[data-mouse-over-selected='true']  { opacity: 1.0; }
]]>
</style>
<script type="application/ecmascript"><![CDATA[
document.addEventListener('DOMContentLoaded', (event) => {
  highlightEdges();
  highlightAdjacentNodes();
});
]]></script>
</svg>
