<?xml version="1.0" encoding="UTF-8" standalone="no"?>
<!DOCTYPE svg PUBLIC "-//W3C//DTD SVG 1.1//EN"
 "http://www.w3.org/Graphics/SVG/1.1/DTD/svg11.dtd">
<!-- Generated by graphviz version 2.43.0 (0)
 -->
<!-- Title: __gnu_debug::_Safe_sequence_base Pages: 1 -->
<svg width="505pt" height="138pt"
 viewBox="0.00 0.00 505.00 138.00" xmlns="http://www.w3.org/2000/svg" xmlns:xlink="http://www.w3.org/1999/xlink">
<g id="graph0" class="graph" transform="scale(1 1) rotate(0) translate(4 134)">
<title>__gnu_debug::_Safe_sequence_base</title>
<!-- Node1 -->
<g id="Node000001" class="node">
<title>Node1</title>
<g id="a_Node000001"><a xlink:title="Base class that supports tracking of iterators that reference a sequence.">
<polygon fill="#999999" stroke="#666666" points="107,-84 0,-84 0,-56 107,-56 107,-84"/>
<text text-anchor="start" x="8" y="-72.8" font-family="Helvetica,sans-Serif" font-size="9.00">__gnu_debug::_Safe</text>
<text text-anchor="middle" x="53.5" y="-62.8" font-family="Helvetica,sans-Serif" font-size="9.00">_sequence_base</text>
</a>
</g>
</g>
<!-- Node2 -->
<g id="Node000002" class="node">
<title>Node2</title>
<g id="a_Node000002"><a xlink:href="a09397.html" target="_top" xlink:title=" ">
<polygon fill="white" stroke="#666666" points="298,-130 143,-130 143,-102 298,-102 298,-130"/>
<text text-anchor="start" x="151" y="-118.8" font-family="Helvetica,sans-Serif" font-size="9.00">__gnu_debug::_Safe</text>
<text text-anchor="middle" x="220.5" y="-108.8" font-family="Helvetica,sans-Serif" font-size="9.00">_sequence&lt; _SafeSequence &gt;</text>
</a>
</g>
</g>
<!-- Node1&#45;&gt;Node2 -->
<g id="edge1_Node000001_Node000002" class="edge">
<title>Node1&#45;&gt;Node2</title>
<g id="a_edge1_Node000001_Node000002"><a xlink:title=" ">
<path fill="none" stroke="#63b8ff" d="M114.66,-86.77C132.54,-91.76 151.93,-97.16 169.12,-101.96"/>
<polygon fill="#63b8ff" stroke="#63b8ff" points="115.47,-83.37 104.9,-84.05 113.59,-90.11 115.47,-83.37"/>
</a>
</g>
</g>
<!-- Node4 -->
<g id="Node000004" class="node">
<title>Node4</title>
<g id="a_Node000004"><a xlink:href="a09397.html" target="_top" xlink:title="Base class for constructing a safe sequence type that tracks iterators that reference it.">
<polygon fill="white" stroke="#666666" points="288,-84 153,-84 153,-56 288,-56 288,-84"/>
<text text-anchor="start" x="161" y="-72.8" font-family="Helvetica,sans-Serif" font-size="9.00">__gnu_debug::_Safe</text>
<text text-anchor="middle" x="220.5" y="-62.8" font-family="Helvetica,sans-Serif" font-size="9.00">_sequence&lt; _Sequence &gt;</text>
</a>
</g>
</g>
<!-- Node1&#45;&gt;Node4 -->
<g id="edge3_Node000001_Node000004" class="edge">
<title>Node1&#45;&gt;Node4</title>
<g id="a_edge3_Node000001_Node000004"><a xlink:title=" ">
<path fill="none" stroke="#63b8ff" d="M117.23,-70C128.87,-70 141.08,-70 152.84,-70"/>
<polygon fill="#63b8ff" stroke="#63b8ff" points="117.16,-66.5 107.16,-70 117.16,-73.5 117.16,-66.5"/>
</a>
</g>
</g>
<!-- Node6 -->
<g id="Node000006" class="node">
<title>Node6</title>
<g id="a_Node000006"><a xlink:href="a09549.html" target="_top" xlink:title="Base class that supports tracking of local iterators that reference an unordered container.">
<polygon fill="white" stroke="#666666" points="291,-36 150,-36 150,-8 291,-8 291,-36"/>
<text text-anchor="start" x="158" y="-24.8" font-family="Helvetica,sans-Serif" font-size="9.00">__gnu_debug::_Safe</text>
<text text-anchor="middle" x="220.5" y="-14.8" font-family="Helvetica,sans-Serif" font-size="9.00">_unordered_container_base</text>
</a>
</g>
</g>
<!-- Node1&#45;&gt;Node6 -->
<g id="edge5_Node000001_Node000006" class="edge">
<title>Node1&#45;&gt;Node6</title>
<g id="a_edge5_Node000001_Node000006"><a xlink:title=" ">
<path fill="none" stroke="#63b8ff" d="M112.51,-53.12C131.72,-47.54 152.88,-41.38 171.27,-36.03"/>
<polygon fill="#63b8ff" stroke="#63b8ff" points="111.29,-49.83 102.67,-55.99 113.25,-56.55 111.29,-49.83"/>
</a>
</g>
</g>
<!-- Node3 -->
<g id="Node000003" class="node">
<title>Node3</title>
<g id="a_Node000003"><a xlink:href="a09597.html" target="_top" xlink:title="Special iterators swap and invalidation for forward_list because of the before_begin iterator.">
<polygon fill="white" stroke="#666666" points="497,-130 334,-130 334,-102 497,-102 497,-130"/>
<text text-anchor="start" x="342" y="-118.8" font-family="Helvetica,sans-Serif" font-size="9.00">__gnu_debug::_Safe</text>
<text text-anchor="middle" x="415.5" y="-108.8" font-family="Helvetica,sans-Serif" font-size="9.00">_forward_list&lt; _SafeSequence &gt;</text>
</a>
</g>
</g>
<!-- Node2&#45;&gt;Node3 -->
<g id="edge2_Node000002_Node000003" class="edge">
<title>Node2&#45;&gt;Node3</title>
<g id="a_edge2_Node000002_Node000003"><a xlink:title=" ">
<path fill="none" stroke="#63b8ff" d="M308.08,-116C316.68,-116 325.38,-116 333.92,-116"/>
<polygon fill="#63b8ff" stroke="#63b8ff" points="308.06,-112.5 298.06,-116 308.06,-119.5 308.06,-112.5"/>
</a>
</g>
</g>
<!-- Node5 -->
<g id="Node000005" class="node">
<title>Node5</title>
<g id="a_Node000005"><a xlink:href="a09541.html" target="_top" xlink:title="Like _Safe_sequence but with a special _M_invalidate_all implementation not invalidating past&#45;the&#45;end...">
<polygon fill="white" stroke="#666666" points="496.5,-84 334.5,-84 334.5,-56 496.5,-56 496.5,-84"/>
<text text-anchor="start" x="342.5" y="-72.8" font-family="Helvetica,sans-Serif" font-size="9.00">__gnu_debug::_Safe</text>
<text text-anchor="middle" x="415.5" y="-62.8" font-family="Helvetica,sans-Serif" font-size="9.00">_node_sequence&lt; _Sequence &gt;</text>
</a>
</g>
</g>
<!-- Node4&#45;&gt;Node5 -->
<g id="edge4_Node000004_Node000005" class="edge">
<title>Node4&#45;&gt;Node5</title>
<g id="a_edge4_Node000004_Node000005"><a xlink:title=" ">
<path fill="none" stroke="#63b8ff" d="M298.4,-70C310.17,-70 322.33,-70 334.17,-70"/>
<polygon fill="#63b8ff" stroke="#63b8ff" points="298.19,-66.5 288.19,-70 298.19,-73.5 298.19,-66.5"/>
</a>
</g>
</g>
<!-- Node7 -->
<g id="Node000007" class="node">
<title>Node7</title>
<g id="a_Node000007"><a xlink:href="a09553.html" target="_top" xlink:title="Base class for constructing a safe unordered container type that tracks iterators that reference it.">
<polygon fill="white" stroke="#666666" points="473.5,-38 357.5,-38 357.5,0 473.5,0 473.5,-38"/>
<text text-anchor="start" x="365.5" y="-26.8" font-family="Helvetica,sans-Serif" font-size="9.00">__gnu_debug::_Safe</text>
<text text-anchor="start" x="365.5" y="-16.8" font-family="Helvetica,sans-Serif" font-size="9.00">_unordered_container</text>
<text text-anchor="middle" x="415.5" y="-6.8" font-family="Helvetica,sans-Serif" font-size="9.00">&lt; _Container &gt;</text>
</a>
</g>
</g>
<!-- Node6&#45;&gt;Node7 -->
<g id="edge6_Node000006_Node000007" class="edge">
<title>Node6&#45;&gt;Node7</title>
<g id="a_edge6_Node000006_Node000007"><a xlink:title=" ">
<path fill="none" stroke="#63b8ff" d="M301.22,-20.76C320.02,-20.47 339.71,-20.16 357.3,-19.89"/>
<polygon fill="#63b8ff" stroke="#63b8ff" points="301.12,-17.26 291.18,-20.92 301.23,-24.26 301.12,-17.26"/>
</a>
</g>
</g>
</g>
</svg>
