<?xml version="1.0" encoding="UTF-8" standalone="no"?>
<!DOCTYPE svg PUBLIC "-//W3C//DTD SVG 1.1//EN"
 "http://www.w3.org/Graphics/SVG/1.1/DTD/svg11.dtd">
<!-- Generated by graphviz version 2.43.0 (0)
 -->
<!-- Title: __gnu_debug::_Safe_container&lt; _SafeContainer, _Alloc, _SafeBase, _IsCxx11AllocatorAware &gt; Pages: 1 -->
<svg width="384pt" height="658pt"
 viewBox="0.00 0.00 384.00 658.00" xmlns="http://www.w3.org/2000/svg" xmlns:xlink="http://www.w3.org/1999/xlink">
<g id="graph0" class="graph" transform="scale(1 1) rotate(0) translate(4 654)">
<title>__gnu_debug::_Safe_container&lt; _SafeContainer, _Alloc, _SafeBase, _IsCxx11AllocatorAware &gt;</title>
<!-- Node1 -->
<g id="Node000001" class="node">
<title>Node1</title>
<g id="a_Node000001"><a xlink:title="Safe class dealing with some allocator dependent operations.">
<polygon fill="#999999" stroke="#666666" points="182,-354 0,-354 0,-306 182,-306 182,-354"/>
<text text-anchor="start" x="8" y="-342.8" font-family="Helvetica,sans-Serif" font-size="9.00">__gnu_debug::_Safe</text>
<text text-anchor="start" x="8" y="-332.8" font-family="Helvetica,sans-Serif" font-size="9.00">_container&lt; _SafeContainer,</text>
<text text-anchor="start" x="8" y="-322.8" font-family="Helvetica,sans-Serif" font-size="9.00"> _Alloc, _SafeBase, _IsCxx11Allocator</text>
<text text-anchor="middle" x="91" y="-312.8" font-family="Helvetica,sans-Serif" font-size="9.00">Aware &gt;</text>
</a>
</g>
</g>
<!-- Node2 -->
<g id="Node000002" class="node">
<title>Node2</title>
<g id="a_Node000002"><a xlink:href="a09633.html" target="_top" xlink:title="Class std::basic_string with safety/checking/debug instrumentation.">
<polygon fill="white" stroke="#666666" points="360,-650 234,-650 234,-612 360,-612 360,-650"/>
<text text-anchor="start" x="242" y="-638.8" font-family="Helvetica,sans-Serif" font-size="9.00">__gnu_debug::basic</text>
<text text-anchor="start" x="242" y="-628.8" font-family="Helvetica,sans-Serif" font-size="9.00">_string&lt; _CharT, _Traits,</text>
<text text-anchor="middle" x="297" y="-618.8" font-family="Helvetica,sans-Serif" font-size="9.00"> _Allocator &gt;</text>
</a>
</g>
</g>
<!-- Node1&#45;&gt;Node2 -->
<g id="edge1_Node000001_Node000002" class="edge">
<title>Node1&#45;&gt;Node2</title>
<g id="a_edge1_Node000001_Node000002"><a xlink:title=" ">
<path fill="none" stroke="#63b8ff" d="M98.77,-364.13C111.84,-421.37 145.88,-536.95 218,-603 222.67,-607.28 228.04,-610.91 233.73,-613.99"/>
<polygon fill="#63b8ff" stroke="#63b8ff" points="102.14,-363.15 96.56,-354.14 95.3,-364.66 102.14,-363.15"/>
</a>
</g>
</g>
<!-- Node3 -->
<g id="Node000003" class="node">
<title>Node3</title>
<g id="a_Node000003"><a xlink:href="a09585.html" target="_top" xlink:title="Class std::deque with safety/checking/debug instrumentation.">
<polygon fill="white" stroke="#666666" points="352,-594 242,-594 242,-566 352,-566 352,-594"/>
<text text-anchor="start" x="250" y="-582.8" font-family="Helvetica,sans-Serif" font-size="9.00">std::__debug::deque</text>
<text text-anchor="middle" x="297" y="-572.8" font-family="Helvetica,sans-Serif" font-size="9.00">&lt; _Tp, _Allocator &gt;</text>
</a>
</g>
</g>
<!-- Node1&#45;&gt;Node3 -->
<g id="edge2_Node000001_Node000003" class="edge">
<title>Node1&#45;&gt;Node3</title>
<g id="a_edge2_Node000001_Node000003"><a xlink:title=" ">
<path fill="none" stroke="#63b8ff" d="M101.7,-363.88C117.69,-413.61 154.32,-505.98 218,-557 224.94,-562.56 233.19,-566.78 241.68,-569.98"/>
<polygon fill="#63b8ff" stroke="#63b8ff" points="105.01,-362.73 98.69,-354.23 98.33,-364.82 105.01,-362.73"/>
</a>
</g>
</g>
<!-- Node4 -->
<g id="Node000004" class="node">
<title>Node4</title>
<g id="a_Node000004"><a xlink:href="a09593.html" target="_top" xlink:title="Class std::forward_list with safety/checking/debug instrumentation.">
<polygon fill="white" stroke="#666666" points="355,-548 239,-548 239,-520 355,-520 355,-548"/>
<text text-anchor="start" x="247" y="-536.8" font-family="Helvetica,sans-Serif" font-size="9.00">std::__debug::forward</text>
<text text-anchor="middle" x="297" y="-526.8" font-family="Helvetica,sans-Serif" font-size="9.00">_list&lt; _Tp, _Alloc &gt;</text>
</a>
</g>
</g>
<!-- Node1&#45;&gt;Node4 -->
<g id="edge3_Node000001_Node000004" class="edge">
<title>Node1&#45;&gt;Node4</title>
<g id="a_edge3_Node000001_Node000004"><a xlink:title=" ">
<path fill="none" stroke="#63b8ff" d="M106.63,-363.42C126.19,-404.23 164.67,-472.54 218,-511 224.3,-515.54 231.49,-519.19 238.9,-522.13"/>
<polygon fill="#63b8ff" stroke="#63b8ff" points="109.71,-361.74 102.3,-354.17 103.37,-364.71 109.71,-361.74"/>
</a>
</g>
</g>
<!-- Node5 -->
<g id="Node000005" class="node">
<title>Node5</title>
<g id="a_Node000005"><a xlink:href="a09617.html" target="_top" xlink:title="Class std::list with safety/checking/debug instrumentation.">
<polygon fill="white" stroke="#666666" points="348.5,-502 245.5,-502 245.5,-474 348.5,-474 348.5,-502"/>
<text text-anchor="start" x="253.5" y="-490.8" font-family="Helvetica,sans-Serif" font-size="9.00">std::__debug::list</text>
<text text-anchor="middle" x="297" y="-480.8" font-family="Helvetica,sans-Serif" font-size="9.00">&lt; _Tp, _Allocator &gt;</text>
</a>
</g>
</g>
<!-- Node1&#45;&gt;Node5 -->
<g id="edge4_Node000001_Node000005" class="edge">
<title>Node1&#45;&gt;Node5</title>
<g id="a_edge4_Node000001_Node000005"><a xlink:title=" ">
<path fill="none" stroke="#63b8ff" d="M114.25,-362.42C136.94,-393.12 174.87,-438.36 218,-465 226.29,-470.12 235.77,-474.15 245.21,-477.31"/>
<polygon fill="#63b8ff" stroke="#63b8ff" points="116.97,-360.21 108.27,-354.18 111.31,-364.33 116.97,-360.21"/>
</a>
</g>
</g>
<!-- Node6 -->
<g id="Node000006" class="node">
<title>Node6</title>
<g id="a_Node000006"><a xlink:href="a09469.html" target="_top" xlink:title="Class std::map with safety/checking/debug instrumentation.">
<polygon fill="white" stroke="#666666" points="355,-456 239,-456 239,-418 355,-418 355,-456"/>
<text text-anchor="start" x="247" y="-444.8" font-family="Helvetica,sans-Serif" font-size="9.00">std::__debug::map&lt;</text>
<text text-anchor="start" x="247" y="-434.8" font-family="Helvetica,sans-Serif" font-size="9.00"> _Key, _Tp, _Compare,</text>
<text text-anchor="middle" x="297" y="-424.8" font-family="Helvetica,sans-Serif" font-size="9.00"> _Allocator &gt;</text>
</a>
</g>
</g>
<!-- Node1&#45;&gt;Node6 -->
<g id="edge5_Node000001_Node000006" class="edge">
<title>Node1&#45;&gt;Node6</title>
<g id="a_edge5_Node000001_Node000006"><a xlink:title=" ">
<path fill="none" stroke="#63b8ff" d="M134.33,-359.76C158.19,-375.69 188.94,-394.88 218,-409 224.6,-412.21 231.67,-415.25 238.75,-418.06"/>
<polygon fill="#63b8ff" stroke="#63b8ff" points="136.12,-356.74 125.88,-354.05 132.21,-362.54 136.12,-356.74"/>
</a>
</g>
</g>
<!-- Node7 -->
<g id="Node000007" class="node">
<title>Node7</title>
<g id="a_Node000007"><a xlink:href="a09477.html" target="_top" xlink:title="Class std::multimap with safety/checking/debug instrumentation.">
<polygon fill="white" stroke="#666666" points="359.5,-400 234.5,-400 234.5,-362 359.5,-362 359.5,-400"/>
<text text-anchor="start" x="242.5" y="-388.8" font-family="Helvetica,sans-Serif" font-size="9.00">std::__debug::multimap</text>
<text text-anchor="start" x="242.5" y="-378.8" font-family="Helvetica,sans-Serif" font-size="9.00">&lt; _Key, _Tp, _Compare,</text>
<text text-anchor="middle" x="297" y="-368.8" font-family="Helvetica,sans-Serif" font-size="9.00"> _Allocator &gt;</text>
</a>
</g>
</g>
<!-- Node1&#45;&gt;Node7 -->
<g id="edge6_Node000001_Node000007" class="edge">
<title>Node1&#45;&gt;Node7</title>
<g id="a_edge6_Node000001_Node000007"><a xlink:title=" ">
<path fill="none" stroke="#63b8ff" d="M192.01,-355C206.41,-358.6 220.86,-362.21 234.21,-365.55"/>
<polygon fill="#63b8ff" stroke="#63b8ff" points="192.62,-351.55 182.07,-352.52 190.92,-358.34 192.62,-351.55"/>
</a>
</g>
</g>
<!-- Node8 -->
<g id="Node000008" class="node">
<title>Node8</title>
<g id="a_Node000008"><a xlink:href="a09485.html" target="_top" xlink:title="Class std::multiset with safety/checking/debug instrumentation.">
<polygon fill="white" stroke="#666666" points="376,-344 218,-344 218,-316 376,-316 376,-344"/>
<text text-anchor="start" x="226" y="-332.8" font-family="Helvetica,sans-Serif" font-size="9.00">std::__debug::multiset</text>
<text text-anchor="middle" x="297" y="-322.8" font-family="Helvetica,sans-Serif" font-size="9.00">&lt; _Key, _Compare, _Allocator &gt;</text>
</a>
</g>
</g>
<!-- Node1&#45;&gt;Node8 -->
<g id="edge7_Node000001_Node000008" class="edge">
<title>Node1&#45;&gt;Node8</title>
<g id="a_edge7_Node000001_Node000008"><a xlink:title=" ">
<path fill="none" stroke="#63b8ff" d="M192.2,-330C200.84,-330 209.5,-330 217.93,-330"/>
<polygon fill="#63b8ff" stroke="#63b8ff" points="192.07,-326.5 182.07,-330 192.07,-333.5 192.07,-326.5"/>
</a>
</g>
</g>
<!-- Node9 -->
<g id="Node000009" class="node">
<title>Node9</title>
<g id="a_Node000009"><a xlink:href="a09569.html" target="_top" xlink:title="Class std::set with safety/checking/debug instrumentation.">
<polygon fill="white" stroke="#666666" points="372.5,-298 221.5,-298 221.5,-270 372.5,-270 372.5,-298"/>
<text text-anchor="start" x="229.5" y="-286.8" font-family="Helvetica,sans-Serif" font-size="9.00">std::__debug::set&lt;</text>
<text text-anchor="middle" x="297" y="-276.8" font-family="Helvetica,sans-Serif" font-size="9.00"> _Key, _Compare, _Allocator &gt;</text>
</a>
</g>
</g>
<!-- Node1&#45;&gt;Node9 -->
<g id="edge8_Node000001_Node000009" class="edge">
<title>Node1&#45;&gt;Node9</title>
<g id="a_edge8_Node000001_Node000009"><a xlink:title=" ">
<path fill="none" stroke="#63b8ff" d="M191.95,-307.46C206.26,-304.24 220.62,-301 233.91,-298"/>
<polygon fill="#63b8ff" stroke="#63b8ff" points="191.06,-304.08 182.07,-309.69 192.6,-310.9 191.06,-304.08"/>
</a>
</g>
</g>
<!-- Node10 -->
<g id="Node000010" class="node">
<title>Node10</title>
<g id="a_Node000010"><a xlink:href="a09649.html" target="_top" xlink:title="Class std::unordered_map with safety/checking/debug instrumentation.">
<polygon fill="white" stroke="#666666" points="362,-252 232,-252 232,-214 362,-214 362,-252"/>
<text text-anchor="start" x="240" y="-240.8" font-family="Helvetica,sans-Serif" font-size="9.00">std::__debug::unordered</text>
<text text-anchor="start" x="240" y="-230.8" font-family="Helvetica,sans-Serif" font-size="9.00">_map&lt; _Key, _Tp, _Hash,</text>
<text text-anchor="middle" x="297" y="-220.8" font-family="Helvetica,sans-Serif" font-size="9.00"> _Pred, _Alloc &gt;</text>
</a>
</g>
</g>
<!-- Node1&#45;&gt;Node10 -->
<g id="edge9_Node000001_Node000010" class="edge">
<title>Node1&#45;&gt;Node10</title>
<g id="a_edge9_Node000001_Node000010"><a xlink:title=" ">
<path fill="none" stroke="#63b8ff" d="M140.9,-300.89C163.88,-287.83 191.9,-272.75 218,-261 224.82,-257.93 232.09,-254.95 239.34,-252.16"/>
<polygon fill="#63b8ff" stroke="#63b8ff" points="138.97,-297.97 132.04,-305.98 142.45,-304.04 138.97,-297.97"/>
</a>
</g>
</g>
<!-- Node11 -->
<g id="Node000011" class="node">
<title>Node11</title>
<g id="a_Node000011"><a xlink:href="a09653.html" target="_top" xlink:title="Class std::unordered_multimap with safety/checking/debug instrumentation.">
<polygon fill="white" stroke="#666666" points="361,-196 233,-196 233,-158 361,-158 361,-196"/>
<text text-anchor="start" x="241" y="-184.8" font-family="Helvetica,sans-Serif" font-size="9.00">std::__debug::unordered</text>
<text text-anchor="start" x="241" y="-174.8" font-family="Helvetica,sans-Serif" font-size="9.00">_multimap&lt; _Key, _Tp,</text>
<text text-anchor="middle" x="297" y="-164.8" font-family="Helvetica,sans-Serif" font-size="9.00"> _Hash, _Pred, _Alloc &gt;</text>
</a>
</g>
</g>
<!-- Node1&#45;&gt;Node11 -->
<g id="edge10_Node000001_Node000011" class="edge">
<title>Node1&#45;&gt;Node11</title>
<g id="a_edge10_Node000001_Node000011"><a xlink:title=" ">
<path fill="none" stroke="#63b8ff" d="M117.46,-297.75C140.96,-269.85 178.16,-230.15 218,-205 223.23,-201.7 228.91,-198.71 234.73,-196.04"/>
<polygon fill="#63b8ff" stroke="#63b8ff" points="114.6,-295.71 110.91,-305.64 119.99,-300.18 114.6,-295.71"/>
</a>
</g>
</g>
<!-- Node12 -->
<g id="Node000012" class="node">
<title>Node12</title>
<g id="a_Node000012"><a xlink:href="a09669.html" target="_top" xlink:title="Class std::unordered_multiset with safety/checking/debug instrumentation.">
<polygon fill="white" stroke="#666666" points="363.5,-140 230.5,-140 230.5,-102 363.5,-102 363.5,-140"/>
<text text-anchor="start" x="238.5" y="-128.8" font-family="Helvetica,sans-Serif" font-size="9.00">std::__debug::unordered</text>
<text text-anchor="start" x="238.5" y="-118.8" font-family="Helvetica,sans-Serif" font-size="9.00">_multiset&lt; _Value, _Hash,</text>
<text text-anchor="middle" x="297" y="-108.8" font-family="Helvetica,sans-Serif" font-size="9.00"> _Pred, _Alloc &gt;</text>
</a>
</g>
</g>
<!-- Node1&#45;&gt;Node12 -->
<g id="edge11_Node000001_Node000012" class="edge">
<title>Node1&#45;&gt;Node12</title>
<g id="a_edge11_Node000001_Node000012"><a xlink:title=" ">
<path fill="none" stroke="#63b8ff" d="M107.16,-296.75C127.14,-256.41 165.94,-188.88 218,-149 222.34,-145.68 227.11,-142.72 232.09,-140.1"/>
<polygon fill="#63b8ff" stroke="#63b8ff" points="103.94,-295.37 102.72,-305.89 110.24,-298.43 103.94,-295.37"/>
</a>
</g>
</g>
<!-- Node13 -->
<g id="Node000013" class="node">
<title>Node13</title>
<g id="a_Node000013"><a xlink:href="a09665.html" target="_top" xlink:title="Class std::unordered_set with safety/checking/debug instrumentation.">
<polygon fill="white" stroke="#666666" points="361,-84 233,-84 233,-46 361,-46 361,-84"/>
<text text-anchor="start" x="241" y="-72.8" font-family="Helvetica,sans-Serif" font-size="9.00">std::__debug::unordered</text>
<text text-anchor="start" x="241" y="-62.8" font-family="Helvetica,sans-Serif" font-size="9.00">_set&lt; _Value, _Hash, </text>
<text text-anchor="middle" x="297" y="-52.8" font-family="Helvetica,sans-Serif" font-size="9.00">_Pred, _Alloc &gt;</text>
</a>
</g>
</g>
<!-- Node1&#45;&gt;Node13 -->
<g id="edge12_Node000001_Node000013" class="edge">
<title>Node1&#45;&gt;Node13</title>
<g id="a_edge12_Node000001_Node000013"><a xlink:title=" ">
<path fill="none" stroke="#63b8ff" d="M101.43,-295.92C117.26,-244.84 153.88,-148.49 218,-93 222.46,-89.14 227.49,-85.8 232.8,-82.91"/>
<polygon fill="#63b8ff" stroke="#63b8ff" points="97.99,-295.22 98.46,-305.81 104.69,-297.24 97.99,-295.22"/>
</a>
</g>
</g>
<!-- Node14 -->
<g id="Node000014" class="node">
<title>Node14</title>
<g id="a_Node000014"><a xlink:href="a09681.html" target="_top" xlink:title="Class std::vector with safety/checking/debug instrumentation.">
<polygon fill="white" stroke="#666666" points="352,-28 242,-28 242,0 352,0 352,-28"/>
<text text-anchor="start" x="250" y="-16.8" font-family="Helvetica,sans-Serif" font-size="9.00">std::__debug::vector</text>
<text text-anchor="middle" x="297" y="-6.8" font-family="Helvetica,sans-Serif" font-size="9.00">&lt; _Tp, _Allocator &gt;</text>
</a>
</g>
</g>
<!-- Node1&#45;&gt;Node14 -->
<g id="edge13_Node000001_Node000014" class="edge">
<title>Node1&#45;&gt;Node14</title>
<g id="a_edge13_Node000001_Node000014"><a xlink:title=" ">
<path fill="none" stroke="#63b8ff" d="M97.03,-296C107.86,-235.04 139.1,-107 218,-37 224.86,-30.91 233.27,-26.43 242,-23.13"/>
<polygon fill="#63b8ff" stroke="#63b8ff" points="93.58,-295.44 95.35,-305.88 100.48,-296.61 93.58,-295.44"/>
</a>
</g>
</g>
</g>
</svg>
