<?xml version="1.0" encoding="UTF-8" standalone="no"?>
<!DOCTYPE svg PUBLIC "-//W3C//DTD SVG 1.1//EN"
 "http://www.w3.org/Graphics/SVG/1.1/DTD/svg11.dtd">
<!-- Generated by graphviz version 2.43.0 (0)
 -->
<!-- Title: __gnu_debug::_Safe_local_iterator_base Pages: 1 -->
<svg width="139pt" height="174pt"
 viewBox="0.00 0.00 139.00 174.00" xmlns="http://www.w3.org/2000/svg" xmlns:xlink="http://www.w3.org/1999/xlink">
<g id="graph0" class="graph" transform="scale(1 1) rotate(0) translate(4 170)">
<title>__gnu_debug::_Safe_local_iterator_base</title>
<!-- Node1 -->
<g id="Node000001" class="node">
<title>Node1</title>
<g id="a_Node000001"><a xlink:title="Basic functionality for a safe iterator.">
<polygon fill="#999999" stroke="#666666" points="119,-102 12,-102 12,-74 119,-74 119,-102"/>
<text text-anchor="start" x="20" y="-90.8" font-family="Helvetica,sans-Serif" font-size="9.00">__gnu_debug::_Safe</text>
<text text-anchor="middle" x="65.5" y="-80.8" font-family="Helvetica,sans-Serif" font-size="9.00">_local_iterator_base</text>
</a>
</g>
</g>
<!-- Node3 -->
<g id="Node000003" class="node">
<title>Node3</title>
<g id="a_Node000003"><a xlink:href="a09393.html" target="_top" xlink:title="Safe iterator wrapper.">
<polygon fill="white" stroke="#666666" points="131,-38 0,-38 0,0 131,0 131,-38"/>
<text text-anchor="start" x="8" y="-26.8" font-family="Helvetica,sans-Serif" font-size="9.00">__gnu_debug::_Safe</text>
<text text-anchor="start" x="8" y="-16.8" font-family="Helvetica,sans-Serif" font-size="9.00">_local_iterator&lt; _Iterator,</text>
<text text-anchor="middle" x="65.5" y="-6.8" font-family="Helvetica,sans-Serif" font-size="9.00"> _Sequence &gt;</text>
</a>
</g>
</g>
<!-- Node1&#45;&gt;Node3 -->
<g id="edge2_Node000001_Node000003" class="edge">
<title>Node1&#45;&gt;Node3</title>
<g id="a_edge2_Node000001_Node000003"><a xlink:title=" ">
<path fill="none" stroke="#63b8ff" d="M65.5,-63.5C65.5,-55.14 65.5,-45.86 65.5,-38.03"/>
<polygon fill="#63b8ff" stroke="#63b8ff" points="62,-63.76 65.5,-73.76 69,-63.76 62,-63.76"/>
</a>
</g>
</g>
<!-- Node2 -->
<g id="Node000002" class="node">
<title>Node2</title>
<g id="a_Node000002"><a xlink:href="a09493.html" target="_top" xlink:title="Basic functionality for a safe iterator.">
<polygon fill="white" stroke="#666666" points="119,-166 12,-166 12,-138 119,-138 119,-166"/>
<text text-anchor="start" x="20" y="-154.8" font-family="Helvetica,sans-Serif" font-size="9.00">__gnu_debug::_Safe</text>
<text text-anchor="middle" x="65.5" y="-144.8" font-family="Helvetica,sans-Serif" font-size="9.00">_iterator_base</text>
</a>
</g>
</g>
<!-- Node2&#45;&gt;Node1 -->
<g id="edge1_Node000001_Node000002" class="edge">
<title>Node2&#45;&gt;Node1</title>
<g id="a_edge1_Node000001_Node000002"><a xlink:title=" ">
<path fill="none" stroke="#63b8ff" d="M65.5,-127.6C65.5,-118.98 65.5,-109.52 65.5,-102.13"/>
<polygon fill="#63b8ff" stroke="#63b8ff" points="62,-127.85 65.5,-137.85 69,-127.85 62,-127.85"/>
</a>
</g>
</g>
</g>
</svg>
