<?xml version="1.0" encoding="UTF-8" standalone="no"?>
<!DOCTYPE svg PUBLIC "-//W3C//DTD SVG 1.1//EN"
 "http://www.w3.org/Graphics/SVG/1.1/DTD/svg11.dtd">
<!-- Generated by graphviz version 2.43.0 (0)
 -->
<!-- Title: __gnu_parallel::__generic_for_each_selector&lt; _It &gt; Pages: 1 -->
<!--zoomable 598 -->

<svg id="main" version="1.1" xmlns="http://www.w3.org/2000/svg" xmlns:xlink="http://www.w3.org/1999/xlink" xml:space="preserve" onload="init(evt)">
<style type="text/css"><![CDATA[
.node, .edge {opacity: 0.7;}
.node.selected, .edge.selected {opacity: 1;}
.edge:hover path { stroke: red; }
.edge:hover polygon { stroke: red; fill: red; }
]]></style>

<defs>
  <circle id="rim" cx="0" cy="0" r="7"/>
  <circle id="rim2" cx="0" cy="0" r="3.5"/>
  <g id="zoomPlus">
    <use xlink:href="#rim" fill="#404040"><set attributeName="fill" to="#808080" begin="zoomplus.mouseover" end="zoomplus.mouseout"/></use>
    <path d="M-4,0h8M0,-4v8" fill="none" stroke="white" stroke-width="1.5" pointer-events="none"/>
  </g>
  <g id="zoomMin">
    <use xlink:href="#rim" fill="#404040"><set attributeName="fill" to="#808080" begin="zoomminus.mouseover" end="zoomminus.mouseout"/></use>
    <path d="M-4,0h8" fill="none" stroke="white" stroke-width="1.5" pointer-events="none"/>
  </g>
  <g id="arrowUp" transform="translate(30 24)">
    <use xlink:href="#rim"/>
    <path pointer-events="none" fill="none" stroke="white" stroke-width="1.5" d="M0,-3.0v7 M-2.5,-0.5L0,-3.0L2.5,-0.5"/>
  </g>
  <g id="arrowRight" transform="rotate(90) translate(36 -43)">
    <use xlink:href="#rim"/>
    <path pointer-events="none" fill="none" stroke="white" stroke-width="1.5" d="M0,-3.0v7 M-2.5,-0.5L0,-3.0L2.5,-0.5"/>
  </g>
  <g id="arrowDown" transform="rotate(180) translate(-30 -48)">
    <use xlink:href="#rim"/>
    <path pointer-events="none" fill="none" stroke="white" stroke-width="1.5" d="M0,-3.0v7 M-2.5,-0.5L0,-3.0L2.5,-0.5"/>
  </g>
  <g id="arrowLeft" transform="rotate(270) translate(-36 17)">
    <use xlink:href="#rim"/>
    <path pointer-events="none" fill="none" stroke="white" stroke-width="1.5" d="M0,-3.0v7 M-2.5,-0.5L0,-3.0L2.5,-0.5"/>
  </g>
  <g id="resetDef">
    <use xlink:href="#rim2" fill="#404040"><set attributeName="fill" to="#808080" begin="reset.mouseover" end="reset.mouseout"/></use>
  </g>
</defs>
<script type="application/ecmascript">
var viewWidth = 324;
var viewHeight = 598;
var sectionId = 'dynsection-0';
</script>
<script type="application/ecmascript" xlink:href="svg.min.js"/>
<svg id="graph" class="graph">
<g id="viewport">
<title>__gnu_parallel::__generic_for_each_selector&lt; _It &gt;</title>
<!-- Node1 -->
<g id="Node000001" class="node">
<title>Node1</title>
<g id="a_Node000001"><a xlink:title="Generic __selector for embarrassingly parallel functions.">
<polygon fill="#999999" stroke="#666666" points="131,-314 0,-314 0,-286 131,-286 131,-314"/>
<text text-anchor="start" x="8" y="-302.8" font-family="Helvetica,sans-Serif" font-size="9.00">__gnu_parallel::__generic</text>
<text text-anchor="middle" x="65.5" y="-292.8" font-family="Helvetica,sans-Serif" font-size="9.00">_for_each_selector&lt; _It &gt;</text>
</a>
</g>
</g>
<!-- Node2 -->
<g id="Node000002" class="node">
<title>Node2</title>
<g id="a_Node000002"><a xlink:href="a10017.html" target="_top" xlink:title="std::accumulate() selector.">
<polygon fill="white" stroke="#666666" points="316,-590 167,-590 167,-562 316,-562 316,-590"/>
<text text-anchor="start" x="175" y="-578.8" font-family="Helvetica,sans-Serif" font-size="9.00">__gnu_parallel::__accumulate</text>
<text text-anchor="middle" x="241.5" y="-568.8" font-family="Helvetica,sans-Serif" font-size="9.00">_selector&lt; _It &gt;</text>
</a>
</g>
</g>
<!-- Node1&#45;&gt;Node2 -->
<g id="edge1_Node000001_Node000002" class="edge">
<title>Node1&#45;&gt;Node2</title>
<g id="a_edge1_Node000001_Node000002"><a xlink:title=" ">
<path fill="none" stroke="#63b8ff" d="M69.22,-324.31C76.11,-374.42 98.88,-489.79 167,-553 170.72,-556.46 174.96,-559.39 179.48,-561.89"/>
<polygon fill="#63b8ff" stroke="#63b8ff" points="72.65,-323.59 67.91,-314.11 65.71,-324.48 72.65,-323.59"/>
</a>
</g>
</g>
<!-- Node3 -->
<g id="Node000003" class="node">
<title>Node3</title>
<g id="a_Node000003"><a xlink:href="a10029.html" target="_top" xlink:title="Selector that returns the difference between two adjacent __elements.">
<polygon fill="white" stroke="#666666" points="310.5,-544 172.5,-544 172.5,-516 310.5,-516 310.5,-544"/>
<text text-anchor="start" x="180.5" y="-532.8" font-family="Helvetica,sans-Serif" font-size="9.00">__gnu_parallel::__adjacent</text>
<text text-anchor="middle" x="241.5" y="-522.8" font-family="Helvetica,sans-Serif" font-size="9.00">_difference_selector&lt; _It &gt;</text>
</a>
</g>
</g>
<!-- Node1&#45;&gt;Node3 -->
<g id="edge2_Node000001_Node000003" class="edge">
<title>Node1&#45;&gt;Node3</title>
<g id="a_edge2_Node000001_Node000003"><a xlink:title=" ">
<path fill="none" stroke="#63b8ff" d="M71.57,-324.05C81.88,-367.09 109.38,-457.37 167,-507 171.05,-510.49 175.63,-513.45 180.48,-515.96"/>
<polygon fill="#63b8ff" stroke="#63b8ff" points="74.95,-323.15 69.31,-314.19 68.13,-324.72 74.95,-323.15"/>
</a>
</g>
</g>
<!-- Node4 -->
<g id="Node000004" class="node">
<title>Node4</title>
<g id="a_Node000004"><a xlink:href="a10013.html" target="_top" xlink:title="std::count_if () selector.">
<polygon fill="white" stroke="#666666" points="303.5,-498 179.5,-498 179.5,-470 303.5,-470 303.5,-498"/>
<text text-anchor="start" x="187.5" y="-486.8" font-family="Helvetica,sans-Serif" font-size="9.00">__gnu_parallel::__count</text>
<text text-anchor="middle" x="241.5" y="-476.8" font-family="Helvetica,sans-Serif" font-size="9.00">_if_selector&lt; _It, _Diff &gt;</text>
</a>
</g>
</g>
<!-- Node1&#45;&gt;Node4 -->
<g id="edge3_Node000001_Node000004" class="edge">
<title>Node1&#45;&gt;Node4</title>
<g id="a_edge3_Node000001_Node000004"><a xlink:title=" ">
<path fill="none" stroke="#63b8ff" d="M75.15,-323.9C89.07,-359.06 119.78,-424.5 167,-461 171.44,-464.43 176.41,-467.36 181.6,-469.85"/>
<polygon fill="#63b8ff" stroke="#63b8ff" points="78.36,-322.51 71.51,-314.43 71.83,-325.02 78.36,-322.51"/>
</a>
</g>
</g>
<!-- Node5 -->
<g id="Node000005" class="node">
<title>Node5</title>
<g id="a_Node000005"><a xlink:href="a10009.html" target="_top" xlink:title="std::count() selector.">
<polygon fill="white" stroke="#666666" points="302.5,-452 180.5,-452 180.5,-424 302.5,-424 302.5,-452"/>
<text text-anchor="start" x="188.5" y="-440.8" font-family="Helvetica,sans-Serif" font-size="9.00">__gnu_parallel::__count</text>
<text text-anchor="middle" x="241.5" y="-430.8" font-family="Helvetica,sans-Serif" font-size="9.00">_selector&lt; _It, _Diff &gt;</text>
</a>
</g>
</g>
<!-- Node1&#45;&gt;Node5 -->
<g id="edge4_Node000001_Node000005" class="edge">
<title>Node1&#45;&gt;Node5</title>
<g id="a_edge4_Node000001_Node000005"><a xlink:title=" ">
<path fill="none" stroke="#63b8ff" d="M80.68,-322.72C98,-348.66 129.65,-390.64 167,-415 172.26,-418.43 178.07,-421.38 184.05,-423.91"/>
<polygon fill="#63b8ff" stroke="#63b8ff" points="83.56,-320.73 75.17,-314.27 77.7,-324.55 83.56,-320.73"/>
</a>
</g>
</g>
<!-- Node6 -->
<g id="Node000006" class="node">
<title>Node6</title>
<g id="a_Node000006"><a xlink:href="a09989.html" target="_top" xlink:title="std::fill() selector.">
<polygon fill="white" stroke="#666666" points="294.5,-406 188.5,-406 188.5,-378 294.5,-378 294.5,-406"/>
<text text-anchor="start" x="196.5" y="-394.8" font-family="Helvetica,sans-Serif" font-size="9.00">__gnu_parallel::__fill</text>
<text text-anchor="middle" x="241.5" y="-384.8" font-family="Helvetica,sans-Serif" font-size="9.00">_selector&lt; _It &gt;</text>
</a>
</g>
</g>
<!-- Node1&#45;&gt;Node6 -->
<g id="edge5_Node000001_Node000006" class="edge">
<title>Node1&#45;&gt;Node6</title>
<g id="a_edge5_Node000001_Node000006"><a xlink:title=" ">
<path fill="none" stroke="#63b8ff" d="M91.75,-320.5C111.32,-335.59 139.64,-355.7 167,-369 173.85,-372.33 181.3,-375.32 188.73,-377.95"/>
<polygon fill="#63b8ff" stroke="#63b8ff" points="93.69,-317.58 83.66,-314.17 89.38,-323.09 93.69,-317.58"/>
</a>
</g>
</g>
<!-- Node7 -->
<g id="Node000007" class="node">
<title>Node7</title>
<g id="a_Node000007"><a xlink:href="a09981.html" target="_top" xlink:title="std::for_each() selector.">
<polygon fill="white" stroke="#666666" points="299,-360 184,-360 184,-332 299,-332 299,-360"/>
<text text-anchor="start" x="192" y="-348.8" font-family="Helvetica,sans-Serif" font-size="9.00">__gnu_parallel::__for</text>
<text text-anchor="middle" x="241.5" y="-338.8" font-family="Helvetica,sans-Serif" font-size="9.00">_each_selector&lt; _It &gt;</text>
</a>
</g>
</g>
<!-- Node1&#45;&gt;Node7 -->
<g id="edge6_Node000001_Node000007" class="edge">
<title>Node1&#45;&gt;Node7</title>
<g id="a_edge6_Node000001_Node000007"><a xlink:title=" ">
<path fill="none" stroke="#63b8ff" d="M129.41,-316.63C148.41,-321.66 169.08,-327.12 187.37,-331.96"/>
<polygon fill="#63b8ff" stroke="#63b8ff" points="130.21,-313.22 119.65,-314.05 128.42,-319.99 130.21,-313.22"/>
</a>
</g>
</g>
<!-- Node8 -->
<g id="Node000008" class="node">
<title>Node8</title>
<g id="a_Node000008"><a xlink:href="a09985.html" target="_top" xlink:title="std::generate() selector.">
<polygon fill="white" stroke="#666666" points="309.5,-314 173.5,-314 173.5,-286 309.5,-286 309.5,-314"/>
<text text-anchor="start" x="181.5" y="-302.8" font-family="Helvetica,sans-Serif" font-size="9.00">__gnu_parallel::__generate</text>
<text text-anchor="middle" x="241.5" y="-292.8" font-family="Helvetica,sans-Serif" font-size="9.00">_selector&lt; _It &gt;</text>
</a>
</g>
</g>
<!-- Node1&#45;&gt;Node8 -->
<g id="edge7_Node000001_Node000008" class="edge">
<title>Node1&#45;&gt;Node8</title>
<g id="a_edge7_Node000001_Node000008"><a xlink:title=" ">
<path fill="none" stroke="#63b8ff" d="M141.38,-300C152,-300 162.87,-300 173.33,-300"/>
<polygon fill="#63b8ff" stroke="#63b8ff" points="141.29,-296.5 131.29,-300 141.29,-303.5 141.29,-296.5"/>
</a>
</g>
</g>
<!-- Node9 -->
<g id="Node000009" class="node">
<title>Node9</title>
<g id="a_Node000009"><a xlink:href="a10025.html" target="_top" xlink:title="Selector that just returns the passed iterator.">
<polygon fill="white" stroke="#666666" points="306.5,-268 176.5,-268 176.5,-240 306.5,-240 306.5,-268"/>
<text text-anchor="start" x="184.5" y="-256.8" font-family="Helvetica,sans-Serif" font-size="9.00">__gnu_parallel::__identity</text>
<text text-anchor="middle" x="241.5" y="-246.8" font-family="Helvetica,sans-Serif" font-size="9.00">_selector&lt; _It &gt;</text>
</a>
</g>
</g>
<!-- Node1&#45;&gt;Node9 -->
<g id="edge8_Node000001_Node000009" class="edge">
<title>Node1&#45;&gt;Node9</title>
<g id="a_edge8_Node000001_Node000009"><a xlink:title=" ">
<path fill="none" stroke="#63b8ff" d="M129.41,-283.37C148.41,-278.34 169.08,-272.88 187.37,-268.04"/>
<polygon fill="#63b8ff" stroke="#63b8ff" points="128.42,-280.01 119.65,-285.95 130.21,-286.78 128.42,-280.01"/>
</a>
</g>
</g>
<!-- Node10 -->
<g id="Node000010" class="node">
<title>Node10</title>
<g id="a_Node000010"><a xlink:href="a10021.html" target="_top" xlink:title="std::inner_product() selector.">
<polygon fill="white" stroke="#666666" points="302.5,-222 180.5,-222 180.5,-184 302.5,-184 302.5,-222"/>
<text text-anchor="start" x="188.5" y="-210.8" font-family="Helvetica,sans-Serif" font-size="9.00">__gnu_parallel::__inner</text>
<text text-anchor="start" x="188.5" y="-200.8" font-family="Helvetica,sans-Serif" font-size="9.00">_product_selector&lt; _It,</text>
<text text-anchor="middle" x="241.5" y="-190.8" font-family="Helvetica,sans-Serif" font-size="9.00"> _It2, _Tp &gt;</text>
</a>
</g>
</g>
<!-- Node1&#45;&gt;Node10 -->
<g id="edge9_Node000001_Node000010" class="edge">
<title>Node1&#45;&gt;Node10</title>
<g id="a_edge9_Node000001_Node000010"><a xlink:title=" ">
<path fill="none" stroke="#63b8ff" d="M92.35,-279.71C112.03,-264.9 140.22,-245.04 167,-231 173.05,-227.83 179.54,-224.83 186.06,-222.06"/>
<polygon fill="#63b8ff" stroke="#63b8ff" points="90.03,-277.07 84.2,-285.91 94.27,-282.64 90.03,-277.07"/>
</a>
</g>
</g>
<!-- Node11 -->
<g id="Node000011" class="node">
<title>Node11</title>
<g id="a_Node000011"><a xlink:href="a10005.html" target="_top" xlink:title="std::replace() selector.">
<polygon fill="white" stroke="#666666" points="313,-166 170,-166 170,-138 313,-138 313,-166"/>
<text text-anchor="start" x="178" y="-154.8" font-family="Helvetica,sans-Serif" font-size="9.00">__gnu_parallel::__replace</text>
<text text-anchor="middle" x="241.5" y="-144.8" font-family="Helvetica,sans-Serif" font-size="9.00">_if_selector&lt; _It, _Op, _Tp &gt;</text>
</a>
</g>
</g>
<!-- Node1&#45;&gt;Node11 -->
<g id="edge10_Node000001_Node000011" class="edge">
<title>Node1&#45;&gt;Node11</title>
<g id="a_edge10_Node000001_Node000011"><a xlink:title=" ">
<path fill="none" stroke="#63b8ff" d="M79.19,-276.98C95.81,-248.92 127.52,-201.92 167,-175 172.08,-171.54 177.71,-168.57 183.52,-166.04"/>
<polygon fill="#63b8ff" stroke="#63b8ff" points="76.12,-275.3 74.15,-285.71 82.18,-278.8 76.12,-275.3"/>
</a>
</g>
</g>
<!-- Node12 -->
<g id="Node000012" class="node">
<title>Node12</title>
<g id="a_Node000012"><a xlink:href="a10001.html" target="_top" xlink:title="std::replace() selector.">
<polygon fill="white" stroke="#666666" points="305.5,-120 177.5,-120 177.5,-92 305.5,-92 305.5,-120"/>
<text text-anchor="start" x="185.5" y="-108.8" font-family="Helvetica,sans-Serif" font-size="9.00">__gnu_parallel::__replace</text>
<text text-anchor="middle" x="241.5" y="-98.8" font-family="Helvetica,sans-Serif" font-size="9.00">_selector&lt; _It, _Tp &gt;</text>
</a>
</g>
</g>
<!-- Node1&#45;&gt;Node12 -->
<g id="edge11_Node000001_Node000012" class="edge">
<title>Node1&#45;&gt;Node12</title>
<g id="a_edge11_Node000001_Node000012"><a xlink:title=" ">
<path fill="none" stroke="#63b8ff" d="M74.33,-275.74C87.52,-238.69 117.68,-168.19 167,-129 171.4,-125.51 176.33,-122.54 181.5,-120.02"/>
<polygon fill="#63b8ff" stroke="#63b8ff" points="70.86,-275.08 70.92,-285.67 77.48,-277.35 70.86,-275.08"/>
</a>
</g>
</g>
<!-- Node13 -->
<g id="Node000013" class="node">
<title>Node13</title>
<g id="a_Node000013"><a xlink:href="a09993.html" target="_top" xlink:title="std::transform() __selector, one input sequence variant.">
<polygon fill="white" stroke="#666666" points="314.5,-74 168.5,-74 168.5,-46 314.5,-46 314.5,-74"/>
<text text-anchor="start" x="176.5" y="-62.8" font-family="Helvetica,sans-Serif" font-size="9.00">__gnu_parallel::__transform1</text>
<text text-anchor="middle" x="241.5" y="-52.8" font-family="Helvetica,sans-Serif" font-size="9.00">_selector&lt; _It &gt;</text>
</a>
</g>
</g>
<!-- Node1&#45;&gt;Node13 -->
<g id="edge12_Node000001_Node000013" class="edge">
<title>Node1&#45;&gt;Node13</title>
<g id="a_edge12_Node000001_Node000013"><a xlink:title=" ">
<path fill="none" stroke="#63b8ff" d="M70.94,-276.06C80.47,-231.5 107.03,-135.62 167,-83 170.92,-79.56 175.35,-76.64 180.05,-74.15"/>
<polygon fill="#63b8ff" stroke="#63b8ff" points="67.49,-275.48 68.93,-285.98 74.35,-276.88 67.49,-275.48"/>
</a>
</g>
</g>
<!-- Node14 -->
<g id="Node000014" class="node">
<title>Node14</title>
<g id="a_Node000014"><a xlink:href="a09997.html" target="_top" xlink:title="std::transform() __selector, two input sequences variant.">
<polygon fill="white" stroke="#666666" points="314.5,-28 168.5,-28 168.5,0 314.5,0 314.5,-28"/>
<text text-anchor="start" x="176.5" y="-16.8" font-family="Helvetica,sans-Serif" font-size="9.00">__gnu_parallel::__transform2</text>
<text text-anchor="middle" x="241.5" y="-6.8" font-family="Helvetica,sans-Serif" font-size="9.00">_selector&lt; _It &gt;</text>
</a>
</g>
</g>
<!-- Node1&#45;&gt;Node14 -->
<g id="edge13_Node000001_Node000014" class="edge">
<title>Node1&#45;&gt;Node14</title>
<g id="a_edge13_Node000001_Node000014"><a xlink:title=" ">
<path fill="none" stroke="#63b8ff" d="M68.78,-275.8C74.93,-224.33 96.49,-103.28 167,-37 170.7,-33.52 174.92,-30.57 179.43,-28.06"/>
<polygon fill="#63b8ff" stroke="#63b8ff" points="65.28,-275.64 67.66,-285.96 72.24,-276.41 65.28,-275.64"/>
</a>
</g>
</g>
</g>
</svg>

<g id="navigator" transform="translate(0 0)" fill="#404254">
  <rect fill="#f2f5e9" fill-opacity="0.5" stroke="#606060" stroke-width=".5" x="0" y="0" width="60" height="60"/>
  <use id="zoomplus" xlink:href="#zoomPlus" x="17" y="9" onmousedown="handleZoom(evt,'in')"/>
  <use id="zoomminus" xlink:href="#zoomMin" x="42" y="9" onmousedown="handleZoom(evt,'out')"/>
  <use id="reset" xlink:href="#resetDef" x="30" y="36" onmousedown="handleReset()"/>
   <use id="arrowup" xlink:href="#arrowUp" x="0" y="0" onmousedown="handlePan(0,-1)"/>
  <use id="arrowright" xlink:href="#arrowRight" x="0" y="0" onmousedown="handlePan(1,0)"/>
  <use id="arrowdown" xlink:href="#arrowDown" x="0" y="0" onmousedown="handlePan(0,1)"/>
  <use id="arrowleft" xlink:href="#arrowLeft" x="0" y="0" onmousedown="handlePan(-1,0)"/>
</g>
<svg viewBox="0 0 15 15" width="100%" height="30px" preserveAspectRatio="xMaxYMin meet">
 <g id="arrow_out" transform="scale(0.3 0.3)">
  <a xlink:href="a09976_org.svg" target="_base">
   <rect id="button" ry="5" rx="5" y="6" x="6" height="38" width="38"
        fill="#f2f5e9" fill-opacity="0.5" stroke="#606060" stroke-width="1.0"/>
   <path id="arrow"
     d="M 11.500037,31.436501 C 11.940474,20.09759 22.043105,11.32322 32.158766,21.979434 L 37.068811,17.246167 C 37.068811,17.246167 37.088388,32 37.088388,32 L 22.160133,31.978069 C 22.160133,31.978069 26.997745,27.140456 26.997745,27.140456 C 18.528582,18.264221 13.291696,25.230495 11.500037,31.436501 z"
     style="fill:#404040;"/>
  </a>
 </g>
</svg>

<style type='text/css'>
<![CDATA[
[data-mouse-over-selected='false'] { opacity: 0.7; }
[data-mouse-over-selected='true']  { opacity: 1.0; }
]]>
</style>
<script type="application/ecmascript"><![CDATA[
document.addEventListener('DOMContentLoaded', (event) => {
  highlightEdges();
  highlightAdjacentNodes();
});
]]></script>
</svg>
