<?xml version="1.0" encoding="UTF-8" standalone="no"?>
<!DOCTYPE svg PUBLIC "-//W3C//DTD SVG 1.1//EN"
 "http://www.w3.org/Graphics/SVG/1.1/DTD/svg11.dtd">
<!-- Generated by graphviz version 2.43.0 (0)
 -->
<!-- Title: __gnu_parallel::_LoserTreeBase&lt; _Tp, _Compare &gt; Pages: 1 -->
<svg width="323pt" height="82pt"
 viewBox="0.00 0.00 323.00 82.00" xmlns="http://www.w3.org/2000/svg" xmlns:xlink="http://www.w3.org/1999/xlink">
<g id="graph0" class="graph" transform="scale(1 1) rotate(0) translate(4 78)">
<title>__gnu_parallel::_LoserTreeBase&lt; _Tp, _Compare &gt;</title>
<!-- Node1 -->
<g id="Node000001" class="node">
<title>Node1</title>
<g id="a_Node000001"><a xlink:title="Guarded loser/tournament tree.">
<polygon fill="#999999" stroke="#666666" points="133,-51 0,-51 0,-23 133,-23 133,-51"/>
<text text-anchor="start" x="8" y="-39.8" font-family="Helvetica,sans-Serif" font-size="9.00">__gnu_parallel::_LoserTree</text>
<text text-anchor="middle" x="66.5" y="-29.8" font-family="Helvetica,sans-Serif" font-size="9.00">Base&lt; _Tp, _Compare &gt;</text>
</a>
</g>
</g>
<!-- Node2 -->
<g id="Node000002" class="node">
<title>Node2</title>
<g id="a_Node000002"><a xlink:href="a10069.html" target="_top" xlink:title="Stable _LoserTree variant.">
<polygon fill="white" stroke="#666666" points="315,-74 169,-74 169,-46 315,-46 315,-74"/>
<text text-anchor="start" x="177" y="-62.8" font-family="Helvetica,sans-Serif" font-size="9.00">__gnu_parallel::_LoserTree</text>
<text text-anchor="middle" x="242" y="-52.8" font-family="Helvetica,sans-Serif" font-size="9.00">&lt; __stable, _Tp, _Compare &gt;</text>
</a>
</g>
</g>
<!-- Node1&#45;&gt;Node2 -->
<g id="edge1_Node000001_Node000002" class="edge">
<title>Node1&#45;&gt;Node2</title>
<g id="a_edge1_Node000001_Node000002"><a xlink:title=" ">
<path fill="none" stroke="#63b8ff" d="M143.08,-47.02C151.66,-48.16 160.4,-49.31 168.93,-50.45"/>
<polygon fill="#63b8ff" stroke="#63b8ff" points="143.47,-43.54 133.09,-45.7 142.55,-50.48 143.47,-43.54"/>
</a>
</g>
</g>
<!-- Node3 -->
<g id="Node000003" class="node">
<title>Node3</title>
<g id="a_Node000003"><a xlink:href="a10073.html" target="_top" xlink:title="Unstable _LoserTree variant.">
<polygon fill="white" stroke="#666666" points="308.5,-28 175.5,-28 175.5,0 308.5,0 308.5,-28"/>
<text text-anchor="start" x="183.5" y="-16.8" font-family="Helvetica,sans-Serif" font-size="9.00">__gnu_parallel::_LoserTree</text>
<text text-anchor="middle" x="242" y="-6.8" font-family="Helvetica,sans-Serif" font-size="9.00">&lt; false, _Tp, _Compare &gt;</text>
</a>
</g>
</g>
<!-- Node1&#45;&gt;Node3 -->
<g id="edge2_Node000001_Node000003" class="edge">
<title>Node1&#45;&gt;Node3</title>
<g id="a_edge2_Node000001_Node000003"><a xlink:title=" ">
<path fill="none" stroke="#63b8ff" d="M143.25,-26.96C153.93,-25.54 164.84,-24.1 175.31,-22.71"/>
<polygon fill="#63b8ff" stroke="#63b8ff" points="142.55,-23.52 133.09,-28.3 143.47,-30.46 142.55,-23.52"/>
</a>
</g>
</g>
</g>
</svg>
