<?xml version="1.0" encoding="UTF-8" standalone="no"?>
<!DOCTYPE svg PUBLIC "-//W3C//DTD SVG 1.1//EN"
 "http://www.w3.org/Graphics/SVG/1.1/DTD/svg11.dtd">
<!-- Generated by graphviz version 2.43.0 (0)
 -->
<!-- Title: __gnu_parallel::_LoserTreePointerUnguardedBase&lt; _Tp, _Compare &gt; Pages: 1 -->
<svg width="326pt" height="102pt"
 viewBox="0.00 0.00 326.00 102.00" xmlns="http://www.w3.org/2000/svg" xmlns:xlink="http://www.w3.org/1999/xlink">
<g id="graph0" class="graph" transform="scale(1 1) rotate(0) translate(4 98)">
<title>__gnu_parallel::_LoserTreePointerUnguardedBase&lt; _Tp, _Compare &gt;</title>
<!-- Node1 -->
<g id="Node000001" class="node">
<title>Node1</title>
<g id="a_Node000001"><a xlink:title="Unguarded loser tree, keeping only pointers to the elements in the tree structure.">
<polygon fill="#999999" stroke="#666666" points="133,-66 0,-66 0,-28 133,-28 133,-66"/>
<text text-anchor="start" x="8" y="-54.8" font-family="Helvetica,sans-Serif" font-size="9.00">__gnu_parallel::_LoserTree</text>
<text text-anchor="start" x="8" y="-44.8" font-family="Helvetica,sans-Serif" font-size="9.00">PointerUnguardedBase&lt; </text>
<text text-anchor="middle" x="66.5" y="-34.8" font-family="Helvetica,sans-Serif" font-size="9.00">_Tp, _Compare &gt;</text>
</a>
</g>
</g>
<!-- Node2 -->
<g id="Node000002" class="node">
<title>Node2</title>
<g id="a_Node000002"><a xlink:href="a10117.html" target="_top" xlink:title="Stable unguarded _LoserTree variant storing pointers.">
<polygon fill="white" stroke="#666666" points="318,-94 169,-94 169,-56 318,-56 318,-94"/>
<text text-anchor="start" x="177" y="-82.8" font-family="Helvetica,sans-Serif" font-size="9.00">__gnu_parallel::_LoserTree</text>
<text text-anchor="start" x="177" y="-72.8" font-family="Helvetica,sans-Serif" font-size="9.00">PointerUnguarded&lt; __stable,</text>
<text text-anchor="middle" x="243.5" y="-62.8" font-family="Helvetica,sans-Serif" font-size="9.00"> _Tp, _Compare &gt;</text>
</a>
</g>
</g>
<!-- Node1&#45;&gt;Node2 -->
<g id="edge1_Node000001_Node000002" class="edge">
<title>Node1&#45;&gt;Node2</title>
<g id="a_edge1_Node000001_Node000002"><a xlink:title=" ">
<path fill="none" stroke="#63b8ff" d="M143.09,-59.09C151.63,-60.46 160.32,-61.85 168.83,-63.21"/>
<polygon fill="#63b8ff" stroke="#63b8ff" points="143.59,-55.63 133.16,-57.51 142.48,-62.54 143.59,-55.63"/>
</a>
</g>
</g>
<!-- Node3 -->
<g id="Node000003" class="node">
<title>Node3</title>
<g id="a_Node000003"><a xlink:href="a10121.html" target="_top" xlink:title="Unstable unguarded _LoserTree variant storing pointers.">
<polygon fill="white" stroke="#666666" points="310,-38 177,-38 177,0 310,0 310,-38"/>
<text text-anchor="start" x="185" y="-26.8" font-family="Helvetica,sans-Serif" font-size="9.00">__gnu_parallel::_LoserTree</text>
<text text-anchor="start" x="185" y="-16.8" font-family="Helvetica,sans-Serif" font-size="9.00">PointerUnguarded&lt; false,</text>
<text text-anchor="middle" x="243.5" y="-6.8" font-family="Helvetica,sans-Serif" font-size="9.00"> _Tp, _Compare &gt;</text>
</a>
</g>
</g>
<!-- Node1&#45;&gt;Node3 -->
<g id="edge2_Node000001_Node000003" class="edge">
<title>Node1&#45;&gt;Node3</title>
<g id="a_edge2_Node000001_Node000003"><a xlink:title=" ">
<path fill="none" stroke="#63b8ff" d="M143.3,-34.87C154.44,-33.09 165.84,-31.26 176.76,-29.52"/>
<polygon fill="#63b8ff" stroke="#63b8ff" points="142.48,-31.46 133.16,-36.49 143.59,-38.37 142.48,-31.46"/>
</a>
</g>
</g>
</g>
</svg>
