<?xml version="1.0" encoding="UTF-8" standalone="no"?>
<!DOCTYPE svg PUBLIC "-//W3C//DTD SVG 1.1//EN"
 "http://www.w3.org/Graphics/SVG/1.1/DTD/svg11.dtd">
<!-- Generated by graphviz version 2.43.0 (0)
 -->
<!-- Title: __gnu_parallel::parallel_tag Pages: 1 -->
<!--zoomable 492 -->

<svg id="main" version="1.1" xmlns="http://www.w3.org/2000/svg" xmlns:xlink="http://www.w3.org/1999/xlink" xml:space="preserve" onload="init(evt)">
<style type="text/css"><![CDATA[
.node, .edge {opacity: 0.7;}
.node.selected, .edge.selected {opacity: 1;}
.edge:hover path { stroke: red; }
.edge:hover polygon { stroke: red; fill: red; }
]]></style>

<defs>
  <circle id="rim" cx="0" cy="0" r="7"/>
  <circle id="rim2" cx="0" cy="0" r="3.5"/>
  <g id="zoomPlus">
    <use xlink:href="#rim" fill="#404040"><set attributeName="fill" to="#808080" begin="zoomplus.mouseover" end="zoomplus.mouseout"/></use>
    <path d="M-4,0h8M0,-4v8" fill="none" stroke="white" stroke-width="1.5" pointer-events="none"/>
  </g>
  <g id="zoomMin">
    <use xlink:href="#rim" fill="#404040"><set attributeName="fill" to="#808080" begin="zoomminus.mouseover" end="zoomminus.mouseout"/></use>
    <path d="M-4,0h8" fill="none" stroke="white" stroke-width="1.5" pointer-events="none"/>
  </g>
  <g id="arrowUp" transform="translate(30 24)">
    <use xlink:href="#rim"/>
    <path pointer-events="none" fill="none" stroke="white" stroke-width="1.5" d="M0,-3.0v7 M-2.5,-0.5L0,-3.0L2.5,-0.5"/>
  </g>
  <g id="arrowRight" transform="rotate(90) translate(36 -43)">
    <use xlink:href="#rim"/>
    <path pointer-events="none" fill="none" stroke="white" stroke-width="1.5" d="M0,-3.0v7 M-2.5,-0.5L0,-3.0L2.5,-0.5"/>
  </g>
  <g id="arrowDown" transform="rotate(180) translate(-30 -48)">
    <use xlink:href="#rim"/>
    <path pointer-events="none" fill="none" stroke="white" stroke-width="1.5" d="M0,-3.0v7 M-2.5,-0.5L0,-3.0L2.5,-0.5"/>
  </g>
  <g id="arrowLeft" transform="rotate(270) translate(-36 17)">
    <use xlink:href="#rim"/>
    <path pointer-events="none" fill="none" stroke="white" stroke-width="1.5" d="M0,-3.0v7 M-2.5,-0.5L0,-3.0L2.5,-0.5"/>
  </g>
  <g id="resetDef">
    <use xlink:href="#rim2" fill="#404040"><set attributeName="fill" to="#808080" begin="reset.mouseover" end="reset.mouseout"/></use>
  </g>
</defs>
<script type="application/ecmascript">
var viewWidth = 341;
var viewHeight = 492;
var sectionId = 'dynsection-0';
</script>
<script type="application/ecmascript" xlink:href="svg.min.js"/>
<svg id="graph" class="graph">
<g id="viewport">
<title>__gnu_parallel::parallel_tag</title>
<!-- Node1 -->
<g id="Node000001" class="node">
<title>Node1</title>
<g id="a_Node000001"><a xlink:title="Recommends parallel execution at compile time, optionally using a user&#45;specified number of threads.">
<polygon fill="#999999" stroke="#666666" points="138,-246 0,-246 0,-228 138,-228 138,-246"/>
<text text-anchor="middle" x="69" y="-234.8" font-family="Helvetica,sans-Serif" font-size="9.00">__gnu_parallel::parallel_tag</text>
</a>
</g>
</g>
<!-- Node2 -->
<g id="Node000002" class="node">
<title>Node2</title>
<g id="a_Node000002"><a xlink:href="a10313.html" target="_top" xlink:title="Forces parallel sorting using balanced quicksort at compile time.">
<polygon fill="white" stroke="#666666" points="317.5,-484 189.5,-484 189.5,-456 317.5,-456 317.5,-484"/>
<text text-anchor="start" x="197.5" y="-472.8" font-family="Helvetica,sans-Serif" font-size="9.00">__gnu_parallel::balanced</text>
<text text-anchor="middle" x="253.5" y="-462.8" font-family="Helvetica,sans-Serif" font-size="9.00">_quicksort_tag</text>
</a>
</g>
</g>
<!-- Node1&#45;&gt;Node2 -->
<g id="edge1_Node000001_Node000002" class="edge">
<title>Node1&#45;&gt;Node2</title>
<g id="a_edge1_Node000001_Node000002"><a xlink:title=" ">
<path fill="none" stroke="#63b8ff" d="M73.98,-256C83.6,-297.16 112.04,-395.03 174,-447 178.57,-450.83 183.75,-454.03 189.23,-456.69"/>
<polygon fill="#63b8ff" stroke="#63b8ff" points="77.38,-255.19 71.8,-246.19 70.55,-256.71 77.38,-255.19"/>
</a>
</g>
</g>
<!-- Node3 -->
<g id="Node000003" class="node">
<title>Node3</title>
<g id="a_Node000003"><a xlink:href="a10269.html" target="_top" xlink:title="Recommends parallel execution using dynamic load&#45;balancing at compile time.">
<polygon fill="white" stroke="#666666" points="327,-438 180,-438 180,-420 327,-420 327,-438"/>
<text text-anchor="middle" x="253.5" y="-426.8" font-family="Helvetica,sans-Serif" font-size="9.00">__gnu_parallel::balanced_tag</text>
</a>
</g>
</g>
<!-- Node1&#45;&gt;Node3 -->
<g id="edge2_Node000001_Node000003" class="edge">
<title>Node1&#45;&gt;Node3</title>
<g id="a_edge2_Node000001_Node000003"><a xlink:title=" ">
<path fill="none" stroke="#63b8ff" d="M75.81,-256.15C87.84,-292.42 119.06,-371.05 174,-411 178.98,-414.62 184.56,-417.52 190.4,-419.86"/>
<polygon fill="#63b8ff" stroke="#63b8ff" points="79.06,-254.81 72.69,-246.35 72.39,-256.94 79.06,-254.81"/>
</a>
</g>
</g>
<!-- Node4 -->
<g id="Node000004" class="node">
<title>Node4</title>
<g id="a_Node000004"><a xlink:href="a10265.html" target="_top" xlink:title="Recommends parallel execution using the default parallel algorithm.">
<polygon fill="white" stroke="#666666" points="312.5,-402 194.5,-402 194.5,-374 312.5,-374 312.5,-402"/>
<text text-anchor="start" x="202.5" y="-390.8" font-family="Helvetica,sans-Serif" font-size="9.00">__gnu_parallel::default</text>
<text text-anchor="middle" x="253.5" y="-380.8" font-family="Helvetica,sans-Serif" font-size="9.00">_parallel_tag</text>
</a>
</g>
</g>
<!-- Node1&#45;&gt;Node4 -->
<g id="edge3_Node000001_Node000004" class="edge">
<title>Node1&#45;&gt;Node4</title>
<g id="a_edge3_Node000001_Node000004"><a xlink:title=" ">
<path fill="none" stroke="#63b8ff" d="M79.78,-255C95.79,-282.78 130.25,-335.92 174,-365 180.15,-369.09 187.04,-372.47 194.12,-375.25"/>
<polygon fill="#63b8ff" stroke="#63b8ff" points="82.68,-253.01 74.73,-246 76.57,-256.44 82.68,-253.01"/>
</a>
</g>
</g>
<!-- Node5 -->
<g id="Node000005" class="node">
<title>Node5</title>
<g id="a_Node000005"><a xlink:href="a10289.html" target="_top" xlink:title="Forces parallel merging with exact splitting, at compile time.">
<polygon fill="white" stroke="#666666" points="319,-356 188,-356 188,-338 319,-338 319,-356"/>
<text text-anchor="middle" x="253.5" y="-344.8" font-family="Helvetica,sans-Serif" font-size="9.00">__gnu_parallel::exact_tag</text>
</a>
</g>
</g>
<!-- Node1&#45;&gt;Node5 -->
<g id="edge4_Node000001_Node000005" class="edge">
<title>Node1&#45;&gt;Node5</title>
<g id="a_edge4_Node000001_Node000005"><a xlink:title=" ">
<path fill="none" stroke="#63b8ff" d="M84.25,-254C102.75,-274.92 137.07,-310.01 174,-329 181.09,-332.64 188.91,-335.56 196.79,-337.88"/>
<polygon fill="#63b8ff" stroke="#63b8ff" points="86.72,-251.51 77.54,-246.23 81.43,-256.09 86.72,-251.51"/>
</a>
</g>
</g>
<!-- Node6 -->
<g id="Node000006" class="node">
<title>Node6</title>
<g id="a_Node000006"><a xlink:href="a10301.html" target="_top" xlink:title="Forces parallel sorting using multiway mergesort with exact splitting at compile time.">
<polygon fill="white" stroke="#666666" points="317.5,-320 189.5,-320 189.5,-292 317.5,-292 317.5,-320"/>
<text text-anchor="start" x="197.5" y="-308.8" font-family="Helvetica,sans-Serif" font-size="9.00">__gnu_parallel::multiway</text>
<text text-anchor="middle" x="253.5" y="-298.8" font-family="Helvetica,sans-Serif" font-size="9.00">_mergesort_exact_tag</text>
</a>
</g>
</g>
<!-- Node1&#45;&gt;Node6 -->
<g id="edge5_Node000001_Node000006" class="edge">
<title>Node1&#45;&gt;Node6</title>
<g id="a_edge5_Node000001_Node000006"><a xlink:title=" ">
<path fill="none" stroke="#63b8ff" d="M97.65,-250.42C118.37,-260.19 147.59,-273.34 174,-283 182.67,-286.17 192,-289.22 201.09,-291.99"/>
<polygon fill="#63b8ff" stroke="#63b8ff" points="99.02,-247.2 88.48,-246.06 96.01,-253.52 99.02,-247.2"/>
</a>
</g>
</g>
<!-- Node7 -->
<g id="Node000007" class="node">
<title>Node7</title>
<g id="a_Node000007"><a xlink:href="a10305.html" target="_top" xlink:title="Forces parallel sorting using multiway mergesort with splitting by sampling at compile time.">
<polygon fill="white" stroke="#666666" points="320,-274 187,-274 187,-246 320,-246 320,-274"/>
<text text-anchor="start" x="195" y="-262.8" font-family="Helvetica,sans-Serif" font-size="9.00">__gnu_parallel::multiway</text>
<text text-anchor="middle" x="253.5" y="-252.8" font-family="Helvetica,sans-Serif" font-size="9.00">_mergesort_sampling_tag</text>
</a>
</g>
</g>
<!-- Node1&#45;&gt;Node7 -->
<g id="edge6_Node000001_Node000007" class="edge">
<title>Node1&#45;&gt;Node7</title>
<g id="a_edge6_Node000001_Node000007"><a xlink:title=" ">
<path fill="none" stroke="#63b8ff" d="M148.39,-246.88C161.19,-248.49 174.33,-250.15 186.79,-251.72"/>
<polygon fill="#63b8ff" stroke="#63b8ff" points="148.57,-243.37 138.22,-245.6 147.7,-250.32 148.57,-243.37"/>
</a>
</g>
</g>
<!-- Node8 -->
<g id="Node000008" class="node">
<title>Node8</title>
<g id="a_Node000008"><a xlink:href="a10297.html" target="_top" xlink:title="Forces parallel sorting using multiway mergesort at compile time.">
<polygon fill="white" stroke="#666666" points="317.5,-228 189.5,-228 189.5,-200 317.5,-200 317.5,-228"/>
<text text-anchor="start" x="197.5" y="-216.8" font-family="Helvetica,sans-Serif" font-size="9.00">__gnu_parallel::multiway</text>
<text text-anchor="middle" x="253.5" y="-206.8" font-family="Helvetica,sans-Serif" font-size="9.00">_mergesort_tag</text>
</a>
</g>
</g>
<!-- Node1&#45;&gt;Node8 -->
<g id="edge7_Node000001_Node000008" class="edge">
<title>Node1&#45;&gt;Node8</title>
<g id="a_edge7_Node000001_Node000008"><a xlink:title=" ">
<path fill="none" stroke="#63b8ff" d="M148.17,-227.15C161.97,-225.41 176.18,-223.62 189.49,-221.94"/>
<polygon fill="#63b8ff" stroke="#63b8ff" points="147.7,-223.68 138.22,-228.4 148.57,-230.63 147.7,-223.68"/>
</a>
</g>
</g>
<!-- Node9 -->
<g id="Node000009" class="node">
<title>Node9</title>
<g id="a_Node000009"><a xlink:href="a10281.html" target="_top" xlink:title="Recommends parallel execution using OpenMP static load&#45;balancing at compile time.">
<polygon fill="white" stroke="#666666" points="307,-182 200,-182 200,-154 307,-154 307,-182"/>
<text text-anchor="start" x="208" y="-170.8" font-family="Helvetica,sans-Serif" font-size="9.00">__gnu_parallel::omp</text>
<text text-anchor="middle" x="253.5" y="-160.8" font-family="Helvetica,sans-Serif" font-size="9.00">_loop_static_tag</text>
</a>
</g>
</g>
<!-- Node1&#45;&gt;Node9 -->
<g id="edge8_Node000001_Node000009" class="edge">
<title>Node1&#45;&gt;Node9</title>
<g id="a_edge8_Node000001_Node000009"><a xlink:title=" ">
<path fill="none" stroke="#63b8ff" d="M97.65,-223.58C118.37,-213.81 147.59,-200.66 174,-191 182.67,-187.83 192,-184.78 201.09,-182.01"/>
<polygon fill="#63b8ff" stroke="#63b8ff" points="96.01,-220.48 88.48,-227.94 99.02,-226.8 96.01,-220.48"/>
</a>
</g>
</g>
<!-- Node10 -->
<g id="Node000010" class="node">
<title>Node10</title>
<g id="a_Node000010"><a xlink:href="a10277.html" target="_top" xlink:title="Recommends parallel execution using OpenMP dynamic load&#45;balancing at compile time.">
<polygon fill="white" stroke="#666666" points="307,-136 200,-136 200,-108 307,-108 307,-136"/>
<text text-anchor="start" x="208" y="-124.8" font-family="Helvetica,sans-Serif" font-size="9.00">__gnu_parallel::omp</text>
<text text-anchor="middle" x="253.5" y="-114.8" font-family="Helvetica,sans-Serif" font-size="9.00">_loop_tag</text>
</a>
</g>
</g>
<!-- Node1&#45;&gt;Node10 -->
<g id="edge9_Node000001_Node000010" class="edge">
<title>Node1&#45;&gt;Node10</title>
<g id="a_edge9_Node000001_Node000010"><a xlink:title=" ">
<path fill="none" stroke="#63b8ff" d="M84.43,-220.35C103.13,-199.79 137.65,-165.08 174,-145 181.96,-140.61 190.84,-136.97 199.69,-133.99"/>
<polygon fill="#63b8ff" stroke="#63b8ff" points="81.69,-218.18 77.65,-227.97 86.91,-222.84 81.69,-218.18"/>
</a>
</g>
</g>
<!-- Node11 -->
<g id="Node000011" class="node">
<title>Node11</title>
<g id="a_Node000011"><a xlink:href="a10309.html" target="_top" xlink:title="Forces parallel sorting using unbalanced quicksort at compile time.">
<polygon fill="white" stroke="#666666" points="327.5,-90 179.5,-90 179.5,-72 327.5,-72 327.5,-90"/>
<text text-anchor="middle" x="253.5" y="-78.8" font-family="Helvetica,sans-Serif" font-size="9.00">__gnu_parallel::quicksort_tag</text>
</a>
</g>
</g>
<!-- Node1&#45;&gt;Node11 -->
<g id="edge10_Node000001_Node000011" class="edge">
<title>Node1&#45;&gt;Node11</title>
<g id="a_edge10_Node000001_Node000011"><a xlink:title=" ">
<path fill="none" stroke="#63b8ff" d="M78.56,-218.53C93.47,-188.49 127.16,-129.37 174,-99 179.63,-95.35 185.91,-92.43 192.4,-90.11"/>
<polygon fill="#63b8ff" stroke="#63b8ff" points="75.26,-217.32 74.08,-227.84 81.56,-220.35 75.26,-217.32"/>
</a>
</g>
</g>
<!-- Node12 -->
<g id="Node000012" class="node">
<title>Node12</title>
<g id="a_Node000012"><a xlink:href="a10293.html" target="_top" xlink:title="Forces parallel merging with exact splitting, at compile time.">
<polygon fill="white" stroke="#666666" points="327,-54 180,-54 180,-36 327,-36 327,-54"/>
<text text-anchor="middle" x="253.5" y="-42.8" font-family="Helvetica,sans-Serif" font-size="9.00">__gnu_parallel::sampling_tag</text>
</a>
</g>
</g>
<!-- Node1&#45;&gt;Node12 -->
<g id="edge11_Node000001_Node000012" class="edge">
<title>Node1&#45;&gt;Node12</title>
<g id="a_edge11_Node000001_Node000012"><a xlink:title=" ">
<path fill="none" stroke="#63b8ff" d="M75.81,-217.85C87.84,-181.58 119.06,-102.95 174,-63 178.98,-59.38 184.56,-56.48 190.4,-54.14"/>
<polygon fill="#63b8ff" stroke="#63b8ff" points="72.39,-217.06 72.69,-227.65 79.06,-219.19 72.39,-217.06"/>
</a>
</g>
</g>
<!-- Node13 -->
<g id="Node000013" class="node">
<title>Node13</title>
<g id="a_Node000013"><a xlink:href="a10273.html" target="_top" xlink:title="Recommends parallel execution using static load&#45;balancing at compile time.">
<polygon fill="white" stroke="#666666" points="333,-18 174,-18 174,0 333,0 333,-18"/>
<text text-anchor="middle" x="253.5" y="-6.8" font-family="Helvetica,sans-Serif" font-size="9.00">__gnu_parallel::unbalanced_tag</text>
</a>
</g>
</g>
<!-- Node1&#45;&gt;Node13 -->
<g id="edge12_Node000001_Node000013" class="edge">
<title>Node1&#45;&gt;Node13</title>
<g id="a_edge12_Node000001_Node000013"><a xlink:title=" ">
<path fill="none" stroke="#63b8ff" d="M73.75,-217.72C82.92,-176.01 110.52,-77.1 174,-27 178.61,-23.36 183.82,-20.43 189.31,-18.08"/>
<polygon fill="#63b8ff" stroke="#63b8ff" points="70.29,-217.17 71.68,-227.67 77.14,-218.59 70.29,-217.17"/>
</a>
</g>
</g>
</g>
</svg>

<g id="navigator" transform="translate(0 0)" fill="#404254">
  <rect fill="#f2f5e9" fill-opacity="0.5" stroke="#606060" stroke-width=".5" x="0" y="0" width="60" height="60"/>
  <use id="zoomplus" xlink:href="#zoomPlus" x="17" y="9" onmousedown="handleZoom(evt,'in')"/>
  <use id="zoomminus" xlink:href="#zoomMin" x="42" y="9" onmousedown="handleZoom(evt,'out')"/>
  <use id="reset" xlink:href="#resetDef" x="30" y="36" onmousedown="handleReset()"/>
   <use id="arrowup" xlink:href="#arrowUp" x="0" y="0" onmousedown="handlePan(0,-1)"/>
  <use id="arrowright" xlink:href="#arrowRight" x="0" y="0" onmousedown="handlePan(1,0)"/>
  <use id="arrowdown" xlink:href="#arrowDown" x="0" y="0" onmousedown="handlePan(0,1)"/>
  <use id="arrowleft" xlink:href="#arrowLeft" x="0" y="0" onmousedown="handlePan(-1,0)"/>
</g>
<svg viewBox="0 0 15 15" width="100%" height="30px" preserveAspectRatio="xMaxYMin meet">
 <g id="arrow_out" transform="scale(0.3 0.3)">
  <a xlink:href="a10260_org.svg" target="_base">
   <rect id="button" ry="5" rx="5" y="6" x="6" height="38" width="38"
        fill="#f2f5e9" fill-opacity="0.5" stroke="#606060" stroke-width="1.0"/>
   <path id="arrow"
     d="M 11.500037,31.436501 C 11.940474,20.09759 22.043105,11.32322 32.158766,21.979434 L 37.068811,17.246167 C 37.068811,17.246167 37.088388,32 37.088388,32 L 22.160133,31.978069 C 22.160133,31.978069 26.997745,27.140456 26.997745,27.140456 C 18.528582,18.264221 13.291696,25.230495 11.500037,31.436501 z"
     style="fill:#404040;"/>
  </a>
 </g>
</svg>

<style type='text/css'>
<![CDATA[
[data-mouse-over-selected='false'] { opacity: 0.7; }
[data-mouse-over-selected='true']  { opacity: 1.0; }
]]>
</style>
<script type="application/ecmascript"><![CDATA[
document.addEventListener('DOMContentLoaded', (event) => {
  highlightEdges();
  highlightAdjacentNodes();
});
]]></script>
</svg>
