<?xml version="1.0" encoding="UTF-8" standalone="no"?>
<!DOCTYPE svg PUBLIC "-//W3C//DTD SVG 1.1//EN"
 "http://www.w3.org/Graphics/SVG/1.1/DTD/svg11.dtd">
<!-- Generated by graphviz version 2.43.0 (0)
 -->
<!-- Title: std::experimental::filesystem::v1::filesystem_error Pages: 1 -->
<svg width="166pt" height="198pt"
 viewBox="0.00 0.00 166.00 198.00" xmlns="http://www.w3.org/2000/svg" xmlns:xlink="http://www.w3.org/1999/xlink">
<g id="graph0" class="graph" transform="scale(1 1) rotate(0) translate(4 194)">
<title>std::experimental::filesystem::v1::filesystem_error</title>
<!-- Node1 -->
<g id="Node000001" class="node">
<title>Node1</title>
<g id="a_Node000001"><a xlink:title="Exception type thrown by the Filesystem TS library.">
<polygon fill="#999999" stroke="#666666" points="158,-28 0,-28 0,0 158,0 158,-28"/>
<text text-anchor="start" x="8" y="-16.8" font-family="Helvetica,sans-Serif" font-size="9.00">std::experimental::</text>
<text text-anchor="middle" x="79" y="-6.8" font-family="Helvetica,sans-Serif" font-size="9.00">filesystem::v1::filesystem_error</text>
</a>
</g>
</g>
<!-- Node2 -->
<g id="Node000002" class="node">
<title>Node2</title>
<g id="a_Node000002"><a xlink:href="a03593.html" target="_top" xlink:title="An exception type that includes an error_code value.">
<polygon fill="white" stroke="#666666" points="126.5,-82 31.5,-82 31.5,-64 126.5,-64 126.5,-82"/>
<text text-anchor="middle" x="79" y="-70.8" font-family="Helvetica,sans-Serif" font-size="9.00">std::system_error</text>
</a>
</g>
</g>
<!-- Node2&#45;&gt;Node1 -->
<g id="edge1_Node000001_Node000002" class="edge">
<title>Node2&#45;&gt;Node1</title>
<g id="a_edge1_Node000001_Node000002"><a xlink:title=" ">
<path fill="none" stroke="#63b8ff" d="M79,-53.49C79,-45.28 79,-35.81 79,-28.31"/>
<polygon fill="#63b8ff" stroke="#63b8ff" points="75.5,-53.59 79,-63.59 82.5,-53.59 75.5,-53.59"/>
</a>
</g>
</g>
<!-- Node3 -->
<g id="Node000003" class="node">
<title>Node3</title>
<g id="a_Node000003"><a xlink:href="a03481.html" target="_top" xlink:title="One of two subclasses of exception.">
<polygon fill="white" stroke="#666666" points="128.5,-136 29.5,-136 29.5,-118 128.5,-118 128.5,-136"/>
<text text-anchor="middle" x="79" y="-124.8" font-family="Helvetica,sans-Serif" font-size="9.00">std::runtime_error</text>
</a>
</g>
</g>
<!-- Node3&#45;&gt;Node2 -->
<g id="edge2_Node000002_Node000003" class="edge">
<title>Node3&#45;&gt;Node2</title>
<g id="a_edge2_Node000002_Node000003"><a xlink:title=" ">
<path fill="none" stroke="#63b8ff" d="M79,-107.86C79,-99.13 79,-89.1 79,-82.24"/>
<polygon fill="#63b8ff" stroke="#63b8ff" points="75.5,-107.87 79,-117.88 82.5,-107.88 75.5,-107.87"/>
</a>
</g>
</g>
<!-- Node4 -->
<g id="Node000004" class="node">
<title>Node4</title>
<g id="a_Node000004"><a xlink:href="a05761.html" target="_top" xlink:title="Base class for all library exceptions.">
<polygon fill="white" stroke="#666666" points="119.5,-190 38.5,-190 38.5,-172 119.5,-172 119.5,-190"/>
<text text-anchor="middle" x="79" y="-178.8" font-family="Helvetica,sans-Serif" font-size="9.00">std::exception</text>
</a>
</g>
</g>
<!-- Node4&#45;&gt;Node3 -->
<g id="edge3_Node000003_Node000004" class="edge">
<title>Node4&#45;&gt;Node3</title>
<g id="a_edge3_Node000003_Node000004"><a xlink:title=" ">
<path fill="none" stroke="#63b8ff" d="M79,-161.86C79,-153.13 79,-143.1 79,-136.24"/>
<polygon fill="#63b8ff" stroke="#63b8ff" points="75.5,-161.87 79,-171.88 82.5,-161.88 75.5,-161.87"/>
</a>
</g>
</g>
</g>
</svg>
