<?xml version="1.0" encoding="UTF-8" standalone="no"?>
<!DOCTYPE svg PUBLIC "-//W3C//DTD SVG 1.1//EN"
 "http://www.w3.org/Graphics/SVG/1.1/DTD/svg11.dtd">
<!-- Generated by graphviz version 2.43.0 (0)
 -->
<!-- Title: __gnu_cxx::__pool_base Pages: 1 -->
<svg width="236pt" height="90pt"
 viewBox="0.00 0.00 236.00 90.00" xmlns="http://www.w3.org/2000/svg" xmlns:xlink="http://www.w3.org/1999/xlink">
<g id="graph0" class="graph" transform="scale(1 1) rotate(0) translate(4 86)">
<title>__gnu_cxx::__pool_base</title>
<!-- Node1 -->
<g id="Node000001" class="node">
<title>Node1</title>
<g id="a_Node000001"><a xlink:title="Base class for pool object.">
<polygon fill="#999999" stroke="#666666" points="175,-82 52,-82 52,-64 175,-64 175,-82"/>
<text text-anchor="middle" x="113.5" y="-70.8" font-family="Helvetica,sans-Serif" font-size="9.00">__gnu_cxx::__pool_base</text>
</a>
</g>
</g>
<!-- Node2 -->
<g id="Node000002" class="node">
<title>Node2</title>
<g id="a_Node000002"><a xlink:href="a12009.html" target="_top" xlink:title="Specialization for single thread.">
<polygon fill="white" stroke="#666666" points="105,-28 0,-28 0,0 105,0 105,-28"/>
<text text-anchor="start" x="8" y="-16.8" font-family="Helvetica,sans-Serif" font-size="9.00">__gnu_cxx::__pool&lt;</text>
<text text-anchor="middle" x="52.5" y="-6.8" font-family="Helvetica,sans-Serif" font-size="9.00"> false &gt;</text>
</a>
</g>
</g>
<!-- Node1&#45;&gt;Node2 -->
<g id="edge1_Node000001_Node000002" class="edge">
<title>Node1&#45;&gt;Node2</title>
<g id="a_edge1_Node000001_Node000002"><a xlink:title=" ">
<path fill="none" stroke="#63b8ff" d="M97.19,-56.76C87.75,-47.94 75.97,-36.93 66.88,-28.43"/>
<polygon fill="#63b8ff" stroke="#63b8ff" points="95.06,-59.56 104.76,-63.83 99.84,-54.45 95.06,-59.56"/>
</a>
</g>
</g>
<!-- Node3 -->
<g id="Node000003" class="node">
<title>Node3</title>
<g id="a_Node000003"><a xlink:href="a12021.html" target="_top" xlink:title="Specialization for thread enabled, via gthreads.h.">
<polygon fill="white" stroke="#666666" points="228,-28 123,-28 123,0 228,0 228,-28"/>
<text text-anchor="start" x="131" y="-16.8" font-family="Helvetica,sans-Serif" font-size="9.00">__gnu_cxx::__pool&lt;</text>
<text text-anchor="middle" x="175.5" y="-6.8" font-family="Helvetica,sans-Serif" font-size="9.00"> true &gt;</text>
</a>
</g>
</g>
<!-- Node1&#45;&gt;Node3 -->
<g id="edge2_Node000001_Node000003" class="edge">
<title>Node1&#45;&gt;Node3</title>
<g id="a_edge2_Node000001_Node000003"><a xlink:title=" ">
<path fill="none" stroke="#63b8ff" d="M129.79,-57.03C139.43,-48.16 151.55,-37.02 160.89,-28.43"/>
<polygon fill="#63b8ff" stroke="#63b8ff" points="127.38,-54.49 122.38,-63.83 132.11,-59.64 127.38,-54.49"/>
</a>
</g>
</g>
</g>
</svg>
