<?xml version="1.0" encoding="UTF-8" standalone="no"?>
<!DOCTYPE svg PUBLIC "-//W3C//DTD SVG 1.1//EN"
 "http://www.w3.org/Graphics/SVG/1.1/DTD/svg11.dtd">
<!-- Generated by graphviz version 2.43.0 (0)
 -->
<!-- Title: __gnu_cxx::limit_condition Pages: 1 -->
<svg width="679pt" height="82pt"
 viewBox="0.00 0.00 679.00 82.00" xmlns="http://www.w3.org/2000/svg" xmlns:xlink="http://www.w3.org/1999/xlink">
<g id="graph0" class="graph" transform="scale(1 1) rotate(0) translate(4 78)">
<title>__gnu_cxx::limit_condition</title>
<!-- Node1 -->
<g id="Node000001" class="node">
<title>Node1</title>
<g id="a_Node000001"><a xlink:title="Base class for incremental control and throw.">
<polygon fill="#999999" stroke="#666666" points="309,-46 173,-46 173,-28 309,-28 309,-46"/>
<text text-anchor="middle" x="241" y="-34.8" font-family="Helvetica,sans-Serif" font-size="9.00">__gnu_cxx::limit_condition</text>
</a>
</g>
</g>
<!-- Node3 -->
<g id="Node000003" class="node">
<title>Node3</title>
<g id="a_Node000003"><a xlink:href="a12341.html" target="_top" xlink:title=" ">
<polygon fill="white" stroke="#666666" points="496,-74 345,-74 345,-46 496,-46 496,-74"/>
<text text-anchor="start" x="353" y="-62.8" font-family="Helvetica,sans-Serif" font-size="9.00">__gnu_cxx::throw_allocator</text>
<text text-anchor="middle" x="420.5" y="-52.8" font-family="Helvetica,sans-Serif" font-size="9.00">_base&lt; _Tp, limit_condition &gt;</text>
</a>
</g>
</g>
<!-- Node1&#45;&gt;Node3 -->
<g id="edge2_Node000001_Node000003" class="edge">
<title>Node1&#45;&gt;Node3</title>
<g id="a_edge2_Node000001_Node000003"><a xlink:title=" ">
<path fill="none" stroke="#63b8ff" d="M319.07,-46.99C327.63,-48.1 336.34,-49.22 344.87,-50.33"/>
<polygon fill="#63b8ff" stroke="#63b8ff" points="319.47,-43.51 309.11,-45.7 318.57,-50.45 319.47,-43.51"/>
</a>
</g>
</g>
<!-- Node5 -->
<g id="Node000005" class="node">
<title>Node5</title>
<g id="a_Node000005"><a xlink:href="a12329.html" target="_top" xlink:title=" ">
<polygon fill="white" stroke="#666666" points="485,-28 356,-28 356,0 485,0 485,-28"/>
<text text-anchor="start" x="364" y="-16.8" font-family="Helvetica,sans-Serif" font-size="9.00">__gnu_cxx::throw_value</text>
<text text-anchor="middle" x="420.5" y="-6.8" font-family="Helvetica,sans-Serif" font-size="9.00">_base&lt; limit_condition &gt;</text>
</a>
</g>
</g>
<!-- Node1&#45;&gt;Node5 -->
<g id="edge4_Node000001_Node000005" class="edge">
<title>Node1&#45;&gt;Node5</title>
<g id="a_edge4_Node000001_Node000005"><a xlink:title=" ">
<path fill="none" stroke="#63b8ff" d="M319.27,-26.99C331.47,-25.41 343.97,-23.79 355.82,-22.25"/>
<polygon fill="#63b8ff" stroke="#63b8ff" points="318.57,-23.55 309.11,-28.3 319.47,-30.49 318.57,-23.55"/>
</a>
</g>
</g>
<!-- Node2 -->
<g id="Node000002" class="node">
<title>Node2</title>
<g id="a_Node000002"><a xlink:href="a12285.html" target="_top" xlink:title="Base struct for condition policy.">
<polygon fill="white" stroke="#666666" points="137,-46 0,-46 0,-28 137,-28 137,-46"/>
<text text-anchor="middle" x="68.5" y="-34.8" font-family="Helvetica,sans-Serif" font-size="9.00">__gnu_cxx::condition_base</text>
</a>
</g>
</g>
<!-- Node2&#45;&gt;Node1 -->
<g id="edge1_Node000001_Node000002" class="edge">
<title>Node2&#45;&gt;Node1</title>
<g id="a_edge1_Node000001_Node000002"><a xlink:title=" ">
<path fill="none" stroke="#63b8ff" d="M147.61,-37C156.07,-37 164.61,-37 172.91,-37"/>
<polygon fill="#63b8ff" stroke="#63b8ff" points="147.38,-33.5 137.38,-37 147.38,-40.5 147.38,-33.5"/>
</a>
</g>
</g>
<!-- Node4 -->
<g id="Node000004" class="node">
<title>Node4</title>
<g id="a_Node000004"><a xlink:href="a12345.html" target="_top" xlink:title="Allocator throwing via limit condition.">
<polygon fill="white" stroke="#666666" points="671,-74 532,-74 532,-46 671,-46 671,-74"/>
<text text-anchor="start" x="540" y="-62.8" font-family="Helvetica,sans-Serif" font-size="9.00">__gnu_cxx::throw_allocator</text>
<text text-anchor="middle" x="601.5" y="-52.8" font-family="Helvetica,sans-Serif" font-size="9.00">_limit&lt; _Tp &gt;</text>
</a>
</g>
</g>
<!-- Node3&#45;&gt;Node4 -->
<g id="edge3_Node000003_Node000004" class="edge">
<title>Node3&#45;&gt;Node4</title>
<g id="a_edge3_Node000003_Node000004"><a xlink:title=" ">
<path fill="none" stroke="#63b8ff" d="M506.14,-60C514.71,-60 523.35,-60 531.73,-60"/>
<polygon fill="#63b8ff" stroke="#63b8ff" points="506.12,-56.5 496.12,-60 506.12,-63.5 506.12,-56.5"/>
</a>
</g>
</g>
<!-- Node6 -->
<g id="Node000006" class="node">
<title>Node6</title>
<g id="a_Node000006"><a xlink:href="a12333.html" target="_top" xlink:title="Type throwing via limit condition.">
<polygon fill="white" stroke="#666666" points="664,-28 539,-28 539,0 664,0 664,-28"/>
<text text-anchor="start" x="547" y="-16.8" font-family="Helvetica,sans-Serif" font-size="9.00">__gnu_cxx::throw_value</text>
<text text-anchor="middle" x="601.5" y="-6.8" font-family="Helvetica,sans-Serif" font-size="9.00">_limit</text>
</a>
</g>
</g>
<!-- Node5&#45;&gt;Node6 -->
<g id="edge5_Node000005_Node000006" class="edge">
<title>Node5&#45;&gt;Node6</title>
<g id="a_edge5_Node000005_Node000006"><a xlink:title=" ">
<path fill="none" stroke="#63b8ff" d="M495.5,-14C509.93,-14 524.92,-14 538.89,-14"/>
<polygon fill="#63b8ff" stroke="#63b8ff" points="495.11,-10.5 485.11,-14 495.11,-17.5 495.11,-10.5"/>
</a>
</g>
</g>
</g>
</svg>
