<?xml version="1.0" encoding="UTF-8" standalone="no"?>
<!DOCTYPE svg PUBLIC "-//W3C//DTD SVG 1.1//EN"
 "http://www.w3.org/Graphics/SVG/1.1/DTD/svg11.dtd">
<!-- Generated by graphviz version 2.43.0 (0)
 -->
<!-- Title: __gnu_cxx::stdio_filebuf&lt; _CharT, _Traits &gt; Pages: 1 -->
<svg width="133pt" height="164pt"
 viewBox="0.00 0.00 133.00 164.00" xmlns="http://www.w3.org/2000/svg" xmlns:xlink="http://www.w3.org/1999/xlink">
<g id="graph0" class="graph" transform="scale(1 1) rotate(0) translate(4 160)">
<title>__gnu_cxx::stdio_filebuf&lt; _CharT, _Traits &gt;</title>
<!-- Node1 -->
<g id="Node000001" class="node">
<title>Node1</title>
<g id="a_Node000001"><a xlink:title="Provides a layer of compatibility for C/POSIX.">
<polygon fill="#999999" stroke="#666666" points="125,-28 0,-28 0,0 125,0 125,-28"/>
<text text-anchor="start" x="8" y="-16.8" font-family="Helvetica,sans-Serif" font-size="9.00">__gnu_cxx::stdio_filebuf</text>
<text text-anchor="middle" x="62.5" y="-6.8" font-family="Helvetica,sans-Serif" font-size="9.00">&lt; _CharT, _Traits &gt;</text>
</a>
</g>
</g>
<!-- Node2 -->
<g id="Node000002" class="node">
<title>Node2</title>
<g id="a_Node000002"><a xlink:href="a02489.html" target="_top" xlink:title="The actual work of input and output (for files).">
<polygon fill="white" stroke="#666666" points="114,-92 11,-92 11,-64 114,-64 114,-92"/>
<text text-anchor="start" x="19" y="-80.8" font-family="Helvetica,sans-Serif" font-size="9.00">std::basic_filebuf</text>
<text text-anchor="middle" x="62.5" y="-70.8" font-family="Helvetica,sans-Serif" font-size="9.00">&lt; _CharT, _Traits &gt;</text>
</a>
</g>
</g>
<!-- Node2&#45;&gt;Node1 -->
<g id="edge1_Node000001_Node000002" class="edge">
<title>Node2&#45;&gt;Node1</title>
<g id="a_edge1_Node000001_Node000002"><a xlink:title=" ">
<path fill="none" stroke="#63b8ff" d="M62.5,-53.6C62.5,-44.98 62.5,-35.52 62.5,-28.13"/>
<polygon fill="#63b8ff" stroke="#63b8ff" points="59,-53.85 62.5,-63.85 66,-53.85 59,-53.85"/>
</a>
</g>
</g>
<!-- Node3 -->
<g id="Node000003" class="node">
<title>Node3</title>
<g id="a_Node000003"><a xlink:href="a02761.html" target="_top" xlink:title="The actual work of input and output (interface).">
<polygon fill="white" stroke="#666666" points="118,-156 7,-156 7,-128 118,-128 118,-156"/>
<text text-anchor="start" x="15" y="-144.8" font-family="Helvetica,sans-Serif" font-size="9.00">std::basic_streambuf</text>
<text text-anchor="middle" x="62.5" y="-134.8" font-family="Helvetica,sans-Serif" font-size="9.00">&lt; _CharT, _Traits &gt;</text>
</a>
</g>
</g>
<!-- Node3&#45;&gt;Node2 -->
<g id="edge2_Node000002_Node000003" class="edge">
<title>Node3&#45;&gt;Node2</title>
<g id="a_edge2_Node000002_Node000003"><a xlink:title=" ">
<path fill="none" stroke="#63b8ff" d="M62.5,-117.6C62.5,-108.98 62.5,-99.52 62.5,-92.13"/>
<polygon fill="#63b8ff" stroke="#63b8ff" points="59,-117.85 62.5,-127.85 66,-117.85 59,-117.85"/>
</a>
</g>
</g>
</g>
</svg>
