<?xml version="1.0" encoding="UTF-8" standalone="no"?>
<!DOCTYPE svg PUBLIC "-//W3C//DTD SVG 1.1//EN"
 "http://www.w3.org/Graphics/SVG/1.1/DTD/svg11.dtd">
<!-- Generated by graphviz version 2.43.0 (0)
 -->
<!-- Title: __gnu_cxx::throw_allocator_random&lt; _Tp &gt; Pages: 1 -->
<svg width="314pt" height="208pt"
 viewBox="0.00 0.00 314.00 208.00" xmlns="http://www.w3.org/2000/svg" xmlns:xlink="http://www.w3.org/1999/xlink">
<g id="graph0" class="graph" transform="scale(1 1) rotate(0) translate(4 204)">
<title>__gnu_cxx::throw_allocator_random&lt; _Tp &gt;</title>
<!-- Node1 -->
<g id="Node000001" class="node">
<title>Node1</title>
<g id="a_Node000001"><a xlink:title="Allocator throwing via random condition.">
<polygon fill="#999999" stroke="#666666" points="218.5,-28 79.5,-28 79.5,0 218.5,0 218.5,-28"/>
<text text-anchor="start" x="87.5" y="-16.8" font-family="Helvetica,sans-Serif" font-size="9.00">__gnu_cxx::throw_allocator</text>
<text text-anchor="middle" x="149" y="-6.8" font-family="Helvetica,sans-Serif" font-size="9.00">_random&lt; _Tp &gt;</text>
</a>
</g>
</g>
<!-- Node2 -->
<g id="Node000002" class="node">
<title>Node2</title>
<g id="a_Node000002"><a xlink:href="a12341.html" target="_top" xlink:title=" ">
<polygon fill="white" stroke="#666666" points="232.5,-92 65.5,-92 65.5,-64 232.5,-64 232.5,-92"/>
<text text-anchor="start" x="73.5" y="-80.8" font-family="Helvetica,sans-Serif" font-size="9.00">__gnu_cxx::throw_allocator</text>
<text text-anchor="middle" x="149" y="-70.8" font-family="Helvetica,sans-Serif" font-size="9.00">_base&lt; _Tp, random_condition &gt;</text>
</a>
</g>
</g>
<!-- Node2&#45;&gt;Node1 -->
<g id="edge1_Node000001_Node000002" class="edge">
<title>Node2&#45;&gt;Node1</title>
<g id="a_edge1_Node000001_Node000002"><a xlink:title=" ">
<path fill="none" stroke="#63b8ff" d="M149,-53.6C149,-44.98 149,-35.52 149,-28.13"/>
<polygon fill="#63b8ff" stroke="#63b8ff" points="145.5,-53.85 149,-63.85 152.5,-53.85 145.5,-53.85"/>
</a>
</g>
</g>
<!-- Node3 -->
<g id="Node000003" class="node">
<title>Node3</title>
<g id="a_Node000003"><a xlink:href="a12281.html" target="_top" xlink:title="Base class for checking address and label information about allocations. Create a std::map between th...">
<polygon fill="white" stroke="#666666" points="136,-146 0,-146 0,-128 136,-128 136,-146"/>
<text text-anchor="middle" x="68" y="-134.8" font-family="Helvetica,sans-Serif" font-size="9.00">__gnu_cxx::annotate_base</text>
</a>
</g>
</g>
<!-- Node3&#45;&gt;Node2 -->
<g id="edge2_Node000002_Node000003" class="edge">
<title>Node3&#45;&gt;Node2</title>
<g id="a_edge2_Node000002_Node000003"><a xlink:title=" ">
<path fill="none" stroke="#63b8ff" d="M87.84,-122.04C100.76,-112.94 117.52,-101.15 130.22,-92.21"/>
<polygon fill="#63b8ff" stroke="#63b8ff" points="85.77,-119.22 79.61,-127.83 89.8,-124.94 85.77,-119.22"/>
</a>
</g>
</g>
<!-- Node4 -->
<g id="Node000004" class="node">
<title>Node4</title>
<g id="a_Node000004"><a xlink:href="a12309.html" target="_top" xlink:title="Base class for random probability control and throw.">
<polygon fill="white" stroke="#666666" points="306,-146 154,-146 154,-128 306,-128 306,-146"/>
<text text-anchor="middle" x="230" y="-134.8" font-family="Helvetica,sans-Serif" font-size="9.00">__gnu_cxx::random_condition</text>
</a>
</g>
</g>
<!-- Node4&#45;&gt;Node2 -->
<g id="edge3_Node000002_Node000004" class="edge">
<title>Node4&#45;&gt;Node2</title>
<g id="a_edge3_Node000002_Node000004"><a xlink:title=" ">
<path fill="none" stroke="#63b8ff" d="M210.16,-122.04C197.24,-112.94 180.48,-101.15 167.78,-92.21"/>
<polygon fill="#63b8ff" stroke="#63b8ff" points="208.2,-124.94 218.39,-127.83 212.23,-119.22 208.2,-124.94"/>
</a>
</g>
</g>
<!-- Node5 -->
<g id="Node000005" class="node">
<title>Node5</title>
<g id="a_Node000005"><a xlink:href="a12285.html" target="_top" xlink:title="Base struct for condition policy.">
<polygon fill="white" stroke="#666666" points="298.5,-200 161.5,-200 161.5,-182 298.5,-182 298.5,-200"/>
<text text-anchor="middle" x="230" y="-188.8" font-family="Helvetica,sans-Serif" font-size="9.00">__gnu_cxx::condition_base</text>
</a>
</g>
</g>
<!-- Node5&#45;&gt;Node4 -->
<g id="edge4_Node000004_Node000005" class="edge">
<title>Node5&#45;&gt;Node4</title>
<g id="a_edge4_Node000004_Node000005"><a xlink:title=" ">
<path fill="none" stroke="#63b8ff" d="M230,-171.86C230,-163.13 230,-153.1 230,-146.24"/>
<polygon fill="#63b8ff" stroke="#63b8ff" points="226.5,-171.87 230,-181.88 233.5,-171.88 226.5,-171.87"/>
</a>
</g>
</g>
</g>
</svg>
