<?xml version="1.0" encoding="UTF-8" standalone="no"?>
<!DOCTYPE svg PUBLIC "-//W3C//DTD SVG 1.1//EN"
 "http://www.w3.org/Graphics/SVG/1.1/DTD/svg11.dtd">
<!-- Generated by graphviz version 2.43.0 (0)
 -->
<!-- Title: __gnu_cxx::random_condition Pages: 1 -->
<svg width="711pt" height="82pt"
 viewBox="0.00 0.00 711.00 82.00" xmlns="http://www.w3.org/2000/svg" xmlns:xlink="http://www.w3.org/1999/xlink">
<g id="graph0" class="graph" transform="scale(1 1) rotate(0) translate(4 78)">
<title>__gnu_cxx::random_condition</title>
<!-- Node1 -->
<g id="Node000001" class="node">
<title>Node1</title>
<g id="a_Node000001"><a xlink:title="Base class for random probability control and throw.">
<polygon fill="#999999" stroke="#666666" points="325,-46 173,-46 173,-28 325,-28 325,-46"/>
<text text-anchor="middle" x="249" y="-34.8" font-family="Helvetica,sans-Serif" font-size="9.00">__gnu_cxx::random_condition</text>
</a>
</g>
</g>
<!-- Node3 -->
<g id="Node000003" class="node">
<title>Node3</title>
<g id="a_Node000003"><a xlink:href="a12341.html" target="_top" xlink:title=" ">
<polygon fill="white" stroke="#666666" points="528,-74 361,-74 361,-46 528,-46 528,-74"/>
<text text-anchor="start" x="369" y="-62.8" font-family="Helvetica,sans-Serif" font-size="9.00">__gnu_cxx::throw_allocator</text>
<text text-anchor="middle" x="444.5" y="-52.8" font-family="Helvetica,sans-Serif" font-size="9.00">_base&lt; _Tp, random_condition &gt;</text>
</a>
</g>
</g>
<!-- Node1&#45;&gt;Node3 -->
<g id="edge2_Node000001_Node000003" class="edge">
<title>Node1&#45;&gt;Node3</title>
<g id="a_edge2_Node000001_Node000003"><a xlink:title=" ">
<path fill="none" stroke="#63b8ff" d="M335.04,-47.11C343.58,-48.12 352.24,-49.15 360.75,-50.16"/>
<polygon fill="#63b8ff" stroke="#63b8ff" points="335.43,-43.63 325.09,-45.93 334.61,-50.58 335.43,-43.63"/>
</a>
</g>
</g>
<!-- Node5 -->
<g id="Node000005" class="node">
<title>Node5</title>
<g id="a_Node000005"><a xlink:href="a12329.html" target="_top" xlink:title=" ">
<polygon fill="white" stroke="#666666" points="517,-28 372,-28 372,0 517,0 517,-28"/>
<text text-anchor="start" x="380" y="-16.8" font-family="Helvetica,sans-Serif" font-size="9.00">__gnu_cxx::throw_value</text>
<text text-anchor="middle" x="444.5" y="-6.8" font-family="Helvetica,sans-Serif" font-size="9.00">_base&lt; random_condition &gt;</text>
</a>
</g>
</g>
<!-- Node1&#45;&gt;Node5 -->
<g id="edge4_Node000001_Node000005" class="edge">
<title>Node1&#45;&gt;Node5</title>
<g id="a_edge4_Node000001_Node000005"><a xlink:title=" ">
<path fill="none" stroke="#63b8ff" d="M335.29,-26.86C347.53,-25.41 360.01,-23.92 371.94,-22.51"/>
<polygon fill="#63b8ff" stroke="#63b8ff" points="334.61,-23.42 325.09,-28.07 335.43,-30.37 334.61,-23.42"/>
</a>
</g>
</g>
<!-- Node2 -->
<g id="Node000002" class="node">
<title>Node2</title>
<g id="a_Node000002"><a xlink:href="a12285.html" target="_top" xlink:title="Base struct for condition policy.">
<polygon fill="white" stroke="#666666" points="137,-46 0,-46 0,-28 137,-28 137,-46"/>
<text text-anchor="middle" x="68.5" y="-34.8" font-family="Helvetica,sans-Serif" font-size="9.00">__gnu_cxx::condition_base</text>
</a>
</g>
</g>
<!-- Node2&#45;&gt;Node1 -->
<g id="edge1_Node000001_Node000002" class="edge">
<title>Node2&#45;&gt;Node1</title>
<g id="a_edge1_Node000001_Node000002"><a xlink:title=" ">
<path fill="none" stroke="#63b8ff" d="M147.44,-37C155.88,-37 164.45,-37 172.85,-37"/>
<polygon fill="#63b8ff" stroke="#63b8ff" points="147.24,-33.5 137.24,-37 147.24,-40.5 147.24,-33.5"/>
</a>
</g>
</g>
<!-- Node4 -->
<g id="Node000004" class="node">
<title>Node4</title>
<g id="a_Node000004"><a xlink:href="a12353.html" target="_top" xlink:title="Allocator throwing via random condition.">
<polygon fill="white" stroke="#666666" points="703,-74 564,-74 564,-46 703,-46 703,-74"/>
<text text-anchor="start" x="572" y="-62.8" font-family="Helvetica,sans-Serif" font-size="9.00">__gnu_cxx::throw_allocator</text>
<text text-anchor="middle" x="633.5" y="-52.8" font-family="Helvetica,sans-Serif" font-size="9.00">_random&lt; _Tp &gt;</text>
</a>
</g>
</g>
<!-- Node3&#45;&gt;Node4 -->
<g id="edge3_Node000003_Node000004" class="edge">
<title>Node3&#45;&gt;Node4</title>
<g id="a_edge3_Node000003_Node000004"><a xlink:title=" ">
<path fill="none" stroke="#63b8ff" d="M538.18,-60C546.81,-60 555.45,-60 563.81,-60"/>
<polygon fill="#63b8ff" stroke="#63b8ff" points="538.07,-56.5 528.07,-60 538.07,-63.5 538.07,-56.5"/>
</a>
</g>
</g>
<!-- Node6 -->
<g id="Node000006" class="node">
<title>Node6</title>
<g id="a_Node000006"><a xlink:href="a12337.html" target="_top" xlink:title="Type throwing via random condition.">
<polygon fill="white" stroke="#666666" points="696,-28 571,-28 571,0 696,0 696,-28"/>
<text text-anchor="start" x="579" y="-16.8" font-family="Helvetica,sans-Serif" font-size="9.00">__gnu_cxx::throw_value</text>
<text text-anchor="middle" x="633.5" y="-6.8" font-family="Helvetica,sans-Serif" font-size="9.00">_random</text>
</a>
</g>
</g>
<!-- Node5&#45;&gt;Node6 -->
<g id="edge5_Node000005_Node000006" class="edge">
<title>Node5&#45;&gt;Node6</title>
<g id="a_edge5_Node000005_Node000006"><a xlink:title=" ">
<path fill="none" stroke="#63b8ff" d="M527.33,-14C541.98,-14 557.02,-14 570.98,-14"/>
<polygon fill="#63b8ff" stroke="#63b8ff" points="527.26,-10.5 517.26,-14 527.26,-17.5 527.26,-10.5"/>
</a>
</g>
</g>
</g>
</svg>
