<?xml version="1.0" encoding="UTF-8" standalone="no"?>
<!DOCTYPE svg PUBLIC "-//W3C//DTD SVG 1.1//EN"
 "http://www.w3.org/Graphics/SVG/1.1/DTD/svg11.dtd">
<!-- Generated by graphviz version 2.43.0 (0)
 -->
<!-- Title: __gnu_cxx::throw_allocator_limit&lt; _Tp &gt; Pages: 1 -->
<svg width="299pt" height="208pt"
 viewBox="0.00 0.00 298.50 208.00" xmlns="http://www.w3.org/2000/svg" xmlns:xlink="http://www.w3.org/1999/xlink">
<g id="graph0" class="graph" transform="scale(1 1) rotate(0) translate(4 204)">
<title>__gnu_cxx::throw_allocator_limit&lt; _Tp &gt;</title>
<!-- Node1 -->
<g id="Node000001" class="node">
<title>Node1</title>
<g id="a_Node000001"><a xlink:title="Allocator throwing via limit condition.">
<polygon fill="#999999" stroke="#666666" points="214.5,-28 75.5,-28 75.5,0 214.5,0 214.5,-28"/>
<text text-anchor="start" x="83.5" y="-16.8" font-family="Helvetica,sans-Serif" font-size="9.00">__gnu_cxx::throw_allocator</text>
<text text-anchor="middle" x="145" y="-6.8" font-family="Helvetica,sans-Serif" font-size="9.00">_limit&lt; _Tp &gt;</text>
</a>
</g>
</g>
<!-- Node2 -->
<g id="Node000002" class="node">
<title>Node2</title>
<g id="a_Node000002"><a xlink:href="a12341.html" target="_top" xlink:title=" ">
<polygon fill="white" stroke="#666666" points="220.5,-92 69.5,-92 69.5,-64 220.5,-64 220.5,-92"/>
<text text-anchor="start" x="77.5" y="-80.8" font-family="Helvetica,sans-Serif" font-size="9.00">__gnu_cxx::throw_allocator</text>
<text text-anchor="middle" x="145" y="-70.8" font-family="Helvetica,sans-Serif" font-size="9.00">_base&lt; _Tp, limit_condition &gt;</text>
</a>
</g>
</g>
<!-- Node2&#45;&gt;Node1 -->
<g id="edge1_Node000001_Node000002" class="edge">
<title>Node2&#45;&gt;Node1</title>
<g id="a_edge1_Node000001_Node000002"><a xlink:title=" ">
<path fill="none" stroke="#63b8ff" d="M145,-53.6C145,-44.98 145,-35.52 145,-28.13"/>
<polygon fill="#63b8ff" stroke="#63b8ff" points="141.5,-53.85 145,-63.85 148.5,-53.85 141.5,-53.85"/>
</a>
</g>
</g>
<!-- Node3 -->
<g id="Node000003" class="node">
<title>Node3</title>
<g id="a_Node000003"><a xlink:href="a12281.html" target="_top" xlink:title="Base class for checking address and label information about allocations. Create a std::map between th...">
<polygon fill="white" stroke="#666666" points="136,-146 0,-146 0,-128 136,-128 136,-146"/>
<text text-anchor="middle" x="68" y="-134.8" font-family="Helvetica,sans-Serif" font-size="9.00">__gnu_cxx::annotate_base</text>
</a>
</g>
</g>
<!-- Node3&#45;&gt;Node2 -->
<g id="edge2_Node000002_Node000003" class="edge">
<title>Node3&#45;&gt;Node2</title>
<g id="a_edge2_Node000002_Node000003"><a xlink:title=" ">
<path fill="none" stroke="#63b8ff" d="M87.22,-121.77C99.45,-112.72 115.19,-101.07 127.15,-92.21"/>
<polygon fill="#63b8ff" stroke="#63b8ff" points="84.99,-119.07 79.03,-127.83 89.15,-124.7 84.99,-119.07"/>
</a>
</g>
</g>
<!-- Node4 -->
<g id="Node000004" class="node">
<title>Node4</title>
<g id="a_Node000004"><a xlink:href="a12289.html" target="_top" xlink:title="Base class for incremental control and throw.">
<polygon fill="white" stroke="#666666" points="290,-146 154,-146 154,-128 290,-128 290,-146"/>
<text text-anchor="middle" x="222" y="-134.8" font-family="Helvetica,sans-Serif" font-size="9.00">__gnu_cxx::limit_condition</text>
</a>
</g>
</g>
<!-- Node4&#45;&gt;Node2 -->
<g id="edge3_Node000002_Node000004" class="edge">
<title>Node4&#45;&gt;Node2</title>
<g id="a_edge3_Node000002_Node000004"><a xlink:title=" ">
<path fill="none" stroke="#63b8ff" d="M202.78,-121.77C190.55,-112.72 174.81,-101.07 162.85,-92.21"/>
<polygon fill="#63b8ff" stroke="#63b8ff" points="200.85,-124.7 210.97,-127.83 205.01,-119.07 200.85,-124.7"/>
</a>
</g>
</g>
<!-- Node5 -->
<g id="Node000005" class="node">
<title>Node5</title>
<g id="a_Node000005"><a xlink:href="a12285.html" target="_top" xlink:title="Base struct for condition policy.">
<polygon fill="white" stroke="#666666" points="290.5,-200 153.5,-200 153.5,-182 290.5,-182 290.5,-200"/>
<text text-anchor="middle" x="222" y="-188.8" font-family="Helvetica,sans-Serif" font-size="9.00">__gnu_cxx::condition_base</text>
</a>
</g>
</g>
<!-- Node5&#45;&gt;Node4 -->
<g id="edge4_Node000004_Node000005" class="edge">
<title>Node5&#45;&gt;Node4</title>
<g id="a_edge4_Node000004_Node000005"><a xlink:title=" ">
<path fill="none" stroke="#63b8ff" d="M222,-171.86C222,-163.13 222,-153.1 222,-146.24"/>
<polygon fill="#63b8ff" stroke="#63b8ff" points="218.5,-171.87 222,-181.88 225.5,-171.88 218.5,-171.87"/>
</a>
</g>
</g>
</g>
</svg>
