<?xml version="1.0" encoding="UTF-8" standalone="no"?>
<!DOCTYPE svg PUBLIC "-//W3C//DTD SVG 1.1//EN"
 "http://www.w3.org/Graphics/SVG/1.1/DTD/svg11.dtd">
<!-- Generated by graphviz version 2.43.0 (0)
 -->
<!-- Title: __gnu_pbds::basic_branch&lt; Key, Mapped, Tag, Node_Update, Policy_Tl, _Alloc &gt; Pages: 1 -->
<svg width="308pt" height="102pt"
 viewBox="0.00 0.00 308.00 102.00" xmlns="http://www.w3.org/2000/svg" xmlns:xlink="http://www.w3.org/1999/xlink">
<g id="graph0" class="graph" transform="scale(1 1) rotate(0) translate(4 98)">
<title>__gnu_pbds::basic_branch&lt; Key, Mapped, Tag, Node_Update, Policy_Tl, _Alloc &gt;</title>
<!-- Node1 -->
<g id="Node000001" class="node">
<title>Node1</title>
<g id="a_Node000001"><a xlink:title=" ">
<polygon fill="#999999" stroke="#666666" points="140,-66 0,-66 0,-28 140,-28 140,-66"/>
<text text-anchor="start" x="8" y="-54.8" font-family="Helvetica,sans-Serif" font-size="9.00">__gnu_pbds::basic_branch</text>
<text text-anchor="start" x="8" y="-44.8" font-family="Helvetica,sans-Serif" font-size="9.00">&lt; Key, Mapped, Tag, Node</text>
<text text-anchor="middle" x="70" y="-34.8" font-family="Helvetica,sans-Serif" font-size="9.00">_Update, Policy_Tl, _Alloc &gt;</text>
</a>
</g>
</g>
<!-- Node2 -->
<g id="Node000002" class="node">
<title>Node2</title>
<g id="a_Node000002"><a xlink:href="a12717.html" target="_top" xlink:title=" ">
<polygon fill="white" stroke="#666666" points="300,-94 176,-94 176,-56 300,-56 300,-94"/>
<text text-anchor="start" x="184" y="-82.8" font-family="Helvetica,sans-Serif" font-size="9.00">__gnu_pbds::tree&lt; Key,</text>
<text text-anchor="start" x="184" y="-72.8" font-family="Helvetica,sans-Serif" font-size="9.00"> Mapped, Cmp_Fn, Tag,</text>
<text text-anchor="middle" x="238" y="-62.8" font-family="Helvetica,sans-Serif" font-size="9.00"> Node_Update, _Alloc &gt;</text>
</a>
</g>
</g>
<!-- Node1&#45;&gt;Node2 -->
<g id="edge1_Node000001_Node000002" class="edge">
<title>Node1&#45;&gt;Node2</title>
<g id="a_edge1_Node000001_Node000002"><a xlink:title=" ">
<path fill="none" stroke="#63b8ff" d="M150.4,-60.39C158.92,-61.83 167.5,-63.28 175.76,-64.67"/>
<polygon fill="#63b8ff" stroke="#63b8ff" points="150.88,-56.92 140.44,-58.71 149.72,-63.83 150.88,-56.92"/>
</a>
</g>
</g>
<!-- Node3 -->
<g id="Node000003" class="node">
<title>Node3</title>
<g id="a_Node000003"><a xlink:href="a12721.html" target="_top" xlink:title=" ">
<polygon fill="white" stroke="#666666" points="299,-38 177,-38 177,0 299,0 299,-38"/>
<text text-anchor="start" x="185" y="-26.8" font-family="Helvetica,sans-Serif" font-size="9.00">__gnu_pbds::trie&lt; Key,</text>
<text text-anchor="start" x="185" y="-16.8" font-family="Helvetica,sans-Serif" font-size="9.00"> Mapped, _ATraits, Tag,</text>
<text text-anchor="middle" x="238" y="-6.8" font-family="Helvetica,sans-Serif" font-size="9.00"> Node_Update, _Alloc &gt;</text>
</a>
</g>
</g>
<!-- Node1&#45;&gt;Node3 -->
<g id="edge2_Node000001_Node000003" class="edge">
<title>Node1&#45;&gt;Node3</title>
<g id="a_edge2_Node000001_Node000003"><a xlink:title=" ">
<path fill="none" stroke="#63b8ff" d="M150.42,-33.6C159.29,-32.11 168.23,-30.6 176.81,-29.15"/>
<polygon fill="#63b8ff" stroke="#63b8ff" points="149.72,-30.17 140.44,-35.29 150.88,-37.08 149.72,-30.17"/>
</a>
</g>
</g>
</g>
</svg>
