<?xml version="1.0" encoding="UTF-8" standalone="no"?>
<!DOCTYPE svg PUBLIC "-//W3C//DTD SVG 1.1//EN"
 "http://www.w3.org/Graphics/SVG/1.1/DTD/svg11.dtd">
<!-- Generated by graphviz version 2.43.0 (0)
 -->
<!-- Title: __gnu_pbds::container_error Pages: 1 -->
<svg width="368pt" height="208pt"
 viewBox="0.00 0.00 368.00 208.00" xmlns="http://www.w3.org/2000/svg" xmlns:xlink="http://www.w3.org/1999/xlink">

<svg id="main" version="1.1" xmlns="http://www.w3.org/2000/svg" xmlns:xlink="http://www.w3.org/1999/xlink" xml:space="preserve" onload="init(evt)">
<style type="text/css"><![CDATA[
.node, .edge {opacity: 0.7;}
.node.selected, .edge.selected {opacity: 1;}
.edge:hover path { stroke: red; }
.edge:hover polygon { stroke: red; fill: red; }
]]></style>
<script type="application/ecmascript" xlink:href="svg.min.js"/>
<svg id="graph" class="graph">
<g id="graph0" class="graph" transform="scale(1 1) rotate(0) translate(4 204)">
<title>__gnu_pbds::container_error</title>
<!-- Node1 -->
<g id="Node000001" class="node">
<title>Node1</title>
<g id="a_Node000001"><a xlink:title="Base class for exceptions.">
<polygon fill="#999999" stroke="#666666" points="239.5,-92 120.5,-92 120.5,-64 239.5,-64 239.5,-92"/>
<text text-anchor="start" x="128.5" y="-80.8" font-family="Helvetica,sans-Serif" font-size="9.00">__gnu_pbds::container</text>
<text text-anchor="middle" x="180" y="-70.8" font-family="Helvetica,sans-Serif" font-size="9.00">_error</text>
</a>
</g>
</g>
<!-- Node4 -->
<g id="Node000004" class="node">
<title>Node4</title>
<g id="a_Node000004"><a xlink:href="a12733.html" target="_top" xlink:title="An entry cannot be inserted into a container object for logical reasons (not, e.g....">
<polygon fill="white" stroke="#666666" points="102,-28 0,-28 0,0 102,0 102,-28"/>
<text text-anchor="start" x="8" y="-16.8" font-family="Helvetica,sans-Serif" font-size="9.00">__gnu_pbds::insert</text>
<text text-anchor="middle" x="51" y="-6.8" font-family="Helvetica,sans-Serif" font-size="9.00">_error</text>
</a>
</g>
</g>
<!-- Node1&#45;&gt;Node4 -->
<g id="edge3_Node000001_Node000004" class="edge">
<title>Node1&#45;&gt;Node4</title>
<g id="a_edge3_Node000001_Node000004"><a xlink:title=" ">
<path fill="none" stroke="#63b8ff" d="M143.5,-59.46C122.79,-49.5 97.29,-37.25 78.32,-28.13"/>
<polygon fill="#63b8ff" stroke="#63b8ff" points="142.11,-62.67 152.64,-63.85 145.15,-56.36 142.11,-62.67"/>
</a>
</g>
</g>
<!-- Node5 -->
<g id="Node000005" class="node">
<title>Node5</title>
<g id="a_Node000005"><a xlink:href="a12737.html" target="_top" xlink:title="A join cannot be performed logical reasons (i.e., the ranges of the two container objects being joine...">
<polygon fill="white" stroke="#666666" points="239.5,-23 120.5,-23 120.5,-5 239.5,-5 239.5,-23"/>
<text text-anchor="middle" x="180" y="-11.8" font-family="Helvetica,sans-Serif" font-size="9.00">__gnu_pbds::join_error</text>
</a>
</g>
</g>
<!-- Node1&#45;&gt;Node5 -->
<g id="edge4_Node000001_Node000005" class="edge">
<title>Node1&#45;&gt;Node5</title>
<g id="a_edge4_Node000001_Node000005"><a xlink:title=" ">
<path fill="none" stroke="#63b8ff" d="M180,-53.71C180,-42.91 180,-30.77 180,-23.02"/>
<polygon fill="#63b8ff" stroke="#63b8ff" points="176.5,-53.85 180,-63.85 183.5,-53.85 176.5,-53.85"/>
</a>
</g>
</g>
<!-- Node6 -->
<g id="Node000006" class="node">
<title>Node6</title>
<g id="a_Node000006"><a xlink:href="a12741.html" target="_top" xlink:title="A container cannot be resized.">
<polygon fill="white" stroke="#666666" points="360,-28 258,-28 258,0 360,0 360,-28"/>
<text text-anchor="start" x="266" y="-16.8" font-family="Helvetica,sans-Serif" font-size="9.00">__gnu_pbds::resize</text>
<text text-anchor="middle" x="309" y="-6.8" font-family="Helvetica,sans-Serif" font-size="9.00">_error</text>
</a>
</g>
</g>
<!-- Node1&#45;&gt;Node6 -->
<g id="edge5_Node000001_Node000006" class="edge">
<title>Node1&#45;&gt;Node6</title>
<g id="a_edge5_Node000001_Node000006"><a xlink:title=" ">
<path fill="none" stroke="#63b8ff" d="M216.5,-59.46C237.21,-49.5 262.71,-37.25 281.68,-28.13"/>
<polygon fill="#63b8ff" stroke="#63b8ff" points="214.85,-56.36 207.36,-63.85 217.89,-62.67 214.85,-56.36"/>
</a>
</g>
</g>
<!-- Node2 -->
<g id="Node000002" class="node">
<title>Node2</title>
<g id="a_Node000002"><a xlink:href="a03461.html" target="_top" xlink:title="One of two subclasses of exception.">
<polygon fill="white" stroke="#666666" points="222,-146 138,-146 138,-128 222,-128 222,-146"/>
<text text-anchor="middle" x="180" y="-134.8" font-family="Helvetica,sans-Serif" font-size="9.00">std::logic_error</text>
</a>
</g>
</g>
<!-- Node2&#45;&gt;Node1 -->
<g id="edge1_Node000001_Node000002" class="edge">
<title>Node2&#45;&gt;Node1</title>
<g id="a_edge1_Node000001_Node000002"><a xlink:title=" ">
<path fill="none" stroke="#63b8ff" d="M180,-117.49C180,-109.28 180,-99.81 180,-92.31"/>
<polygon fill="#63b8ff" stroke="#63b8ff" points="176.5,-117.59 180,-127.59 183.5,-117.59 176.5,-117.59"/>
</a>
</g>
</g>
<!-- Node3 -->
<g id="Node000003" class="node">
<title>Node3</title>
<g id="a_Node000003"><a xlink:href="a05761.html" target="_top" xlink:title="Base class for all library exceptions.">
<polygon fill="white" stroke="#666666" points="220.5,-200 139.5,-200 139.5,-182 220.5,-182 220.5,-200"/>
<text text-anchor="middle" x="180" y="-188.8" font-family="Helvetica,sans-Serif" font-size="9.00">std::exception</text>
</a>
</g>
</g>
<!-- Node3&#45;&gt;Node2 -->
<g id="edge2_Node000002_Node000003" class="edge">
<title>Node3&#45;&gt;Node2</title>
<g id="a_edge2_Node000002_Node000003"><a xlink:title=" ">
<path fill="none" stroke="#63b8ff" d="M180,-171.86C180,-163.13 180,-153.1 180,-146.24"/>
<polygon fill="#63b8ff" stroke="#63b8ff" points="176.5,-171.87 180,-181.88 183.5,-171.88 176.5,-171.87"/>
</a>
</g>
</g>
</g>
</svg>
</svg>

<style type='text/css'>
<![CDATA[
[data-mouse-over-selected='false'] { opacity: 0.7; }
[data-mouse-over-selected='true']  { opacity: 1.0; }
]]>
</style>
<script type="application/ecmascript"><![CDATA[
document.addEventListener('DOMContentLoaded', (event) => {
  highlightEdges();
  highlightAdjacentNodes();
});
]]></script>
</svg>
