<?xml version="1.0" encoding="UTF-8" standalone="no"?>
<!DOCTYPE svg PUBLIC "-//W3C//DTD SVG 1.1//EN"
 "http://www.w3.org/Graphics/SVG/1.1/DTD/svg11.dtd">
<!-- Generated by graphviz version 2.43.0 (0)
 -->
<!-- Title: __gnu_pbds::resize_error Pages: 1 -->
<svg width="127pt" height="208pt"
 viewBox="0.00 0.00 127.00 208.00" xmlns="http://www.w3.org/2000/svg" xmlns:xlink="http://www.w3.org/1999/xlink">
<g id="graph0" class="graph" transform="scale(1 1) rotate(0) translate(4 204)">
<title>__gnu_pbds::resize_error</title>
<!-- Node1 -->
<g id="Node000001" class="node">
<title>Node1</title>
<g id="a_Node000001"><a xlink:title="A container cannot be resized.">
<polygon fill="#999999" stroke="#666666" points="110.5,-28 8.5,-28 8.5,0 110.5,0 110.5,-28"/>
<text text-anchor="start" x="16.5" y="-16.8" font-family="Helvetica,sans-Serif" font-size="9.00">__gnu_pbds::resize</text>
<text text-anchor="middle" x="59.5" y="-6.8" font-family="Helvetica,sans-Serif" font-size="9.00">_error</text>
</a>
</g>
</g>
<!-- Node2 -->
<g id="Node000002" class="node">
<title>Node2</title>
<g id="a_Node000002"><a xlink:href="a12729.html" target="_top" xlink:title="Base class for exceptions.">
<polygon fill="white" stroke="#666666" points="119,-92 0,-92 0,-64 119,-64 119,-92"/>
<text text-anchor="start" x="8" y="-80.8" font-family="Helvetica,sans-Serif" font-size="9.00">__gnu_pbds::container</text>
<text text-anchor="middle" x="59.5" y="-70.8" font-family="Helvetica,sans-Serif" font-size="9.00">_error</text>
</a>
</g>
</g>
<!-- Node2&#45;&gt;Node1 -->
<g id="edge1_Node000001_Node000002" class="edge">
<title>Node2&#45;&gt;Node1</title>
<g id="a_edge1_Node000001_Node000002"><a xlink:title=" ">
<path fill="none" stroke="#63b8ff" d="M59.5,-53.6C59.5,-44.98 59.5,-35.52 59.5,-28.13"/>
<polygon fill="#63b8ff" stroke="#63b8ff" points="56,-53.85 59.5,-63.85 63,-53.85 56,-53.85"/>
</a>
</g>
</g>
<!-- Node3 -->
<g id="Node000003" class="node">
<title>Node3</title>
<g id="a_Node000003"><a xlink:href="a03461.html" target="_top" xlink:title="One of two subclasses of exception.">
<polygon fill="white" stroke="#666666" points="101.5,-146 17.5,-146 17.5,-128 101.5,-128 101.5,-146"/>
<text text-anchor="middle" x="59.5" y="-134.8" font-family="Helvetica,sans-Serif" font-size="9.00">std::logic_error</text>
</a>
</g>
</g>
<!-- Node3&#45;&gt;Node2 -->
<g id="edge2_Node000002_Node000003" class="edge">
<title>Node3&#45;&gt;Node2</title>
<g id="a_edge2_Node000002_Node000003"><a xlink:title=" ">
<path fill="none" stroke="#63b8ff" d="M59.5,-117.49C59.5,-109.28 59.5,-99.81 59.5,-92.31"/>
<polygon fill="#63b8ff" stroke="#63b8ff" points="56,-117.59 59.5,-127.59 63,-117.59 56,-117.59"/>
</a>
</g>
</g>
<!-- Node4 -->
<g id="Node000004" class="node">
<title>Node4</title>
<g id="a_Node000004"><a xlink:href="a05761.html" target="_top" xlink:title="Base class for all library exceptions.">
<polygon fill="white" stroke="#666666" points="100,-200 19,-200 19,-182 100,-182 100,-200"/>
<text text-anchor="middle" x="59.5" y="-188.8" font-family="Helvetica,sans-Serif" font-size="9.00">std::exception</text>
</a>
</g>
</g>
<!-- Node4&#45;&gt;Node3 -->
<g id="edge3_Node000003_Node000004" class="edge">
<title>Node4&#45;&gt;Node3</title>
<g id="a_edge3_Node000003_Node000004"><a xlink:title=" ">
<path fill="none" stroke="#63b8ff" d="M59.5,-171.86C59.5,-163.13 59.5,-153.1 59.5,-146.24"/>
<polygon fill="#63b8ff" stroke="#63b8ff" points="56,-171.87 59.5,-181.88 63,-171.88 56,-171.87"/>
</a>
</g>
</g>
</g>
</svg>
