<?xml version="1.0" encoding="UTF-8" standalone="no"?>
<!DOCTYPE svg PUBLIC "-//W3C//DTD SVG 1.1//EN"
 "http://www.w3.org/Graphics/SVG/1.1/DTD/svg11.dtd">
<!-- Generated by graphviz version 2.43.0 (0)
 -->
<!-- Title: __gnu_pbds::tree_tag Pages: 1 -->
<svg width="444pt" height="242pt"
 viewBox="0.00 0.00 443.50 242.00" xmlns="http://www.w3.org/2000/svg" xmlns:xlink="http://www.w3.org/1999/xlink">

<svg id="main" version="1.1" xmlns="http://www.w3.org/2000/svg" xmlns:xlink="http://www.w3.org/1999/xlink" xml:space="preserve" onload="init(evt)">
<style type="text/css"><![CDATA[
.node, .edge {opacity: 0.7;}
.node.selected, .edge.selected {opacity: 1;}
.edge:hover path { stroke: red; }
.edge:hover polygon { stroke: red; fill: red; }
]]></style>
<script type="application/ecmascript" xlink:href="svg.min.js"/>
<svg id="graph" class="graph">
<g id="graph0" class="graph" transform="scale(1 1) rotate(0) translate(4 238)">
<title>__gnu_pbds::tree_tag</title>
<!-- Node1 -->
<g id="Node000001" class="node">
<title>Node1</title>
<g id="a_Node000001"><a xlink:title="Basic tree structure.">
<polygon fill="#999999" stroke="#666666" points="268.5,-72 154.5,-72 154.5,-54 268.5,-54 268.5,-72"/>
<text text-anchor="middle" x="211.5" y="-60.8" font-family="Helvetica,sans-Serif" font-size="9.00">__gnu_pbds::tree_tag</text>
</a>
</g>
</g>
<!-- Node5 -->
<g id="Node000005" class="node">
<title>Node5</title>
<g id="a_Node000005"><a xlink:href="a12853.html" target="_top" xlink:title="Ordered&#45;vector tree.">
<polygon fill="white" stroke="#666666" points="129,-18 0,-18 0,0 129,0 129,-18"/>
<text text-anchor="middle" x="64.5" y="-6.8" font-family="Helvetica,sans-Serif" font-size="9.00">__gnu_pbds::ov_tree_tag</text>
</a>
</g>
</g>
<!-- Node1&#45;&gt;Node5 -->
<g id="edge4_Node000001_Node000005" class="edge">
<title>Node1&#45;&gt;Node5</title>
<g id="a_edge4_Node000001_Node000005"><a xlink:title=" ">
<path fill="none" stroke="#63b8ff" d="M179.19,-50.57C151.42,-40.75 112.05,-26.82 87.41,-18.11"/>
<polygon fill="#63b8ff" stroke="#63b8ff" points="178.26,-53.95 188.85,-53.99 180.59,-47.35 178.26,-53.95"/>
</a>
</g>
</g>
<!-- Node6 -->
<g id="Node000006" class="node">
<title>Node6</title>
<g id="a_Node000006"><a xlink:href="a12845.html" target="_top" xlink:title="Red&#45;black tree.">
<polygon fill="white" stroke="#666666" points="275.5,-18 147.5,-18 147.5,0 275.5,0 275.5,-18"/>
<text text-anchor="middle" x="211.5" y="-6.8" font-family="Helvetica,sans-Serif" font-size="9.00">__gnu_pbds::rb_tree_tag</text>
</a>
</g>
</g>
<!-- Node1&#45;&gt;Node6 -->
<g id="edge5_Node000001_Node000006" class="edge">
<title>Node1&#45;&gt;Node6</title>
<g id="a_edge5_Node000001_Node000006"><a xlink:title=" ">
<path fill="none" stroke="#63b8ff" d="M211.5,-43.86C211.5,-35.13 211.5,-25.1 211.5,-18.24"/>
<polygon fill="#63b8ff" stroke="#63b8ff" points="208,-43.87 211.5,-53.88 215,-43.88 208,-43.87"/>
</a>
</g>
</g>
<!-- Node7 -->
<g id="Node000007" class="node">
<title>Node7</title>
<g id="a_Node000007"><a xlink:href="a12849.html" target="_top" xlink:title="Splay tree.">
<polygon fill="white" stroke="#666666" points="435.5,-18 293.5,-18 293.5,0 435.5,0 435.5,-18"/>
<text text-anchor="middle" x="364.5" y="-6.8" font-family="Helvetica,sans-Serif" font-size="9.00">__gnu_pbds::splay_tree_tag</text>
</a>
</g>
</g>
<!-- Node1&#45;&gt;Node7 -->
<g id="edge6_Node000001_Node000007" class="edge">
<title>Node1&#45;&gt;Node7</title>
<g id="a_edge6_Node000001_Node000007"><a xlink:title=" ">
<path fill="none" stroke="#63b8ff" d="M244.78,-50.69C273.8,-40.83 315.17,-26.76 340.9,-18.02"/>
<polygon fill="#63b8ff" stroke="#63b8ff" points="243.41,-47.46 235.07,-53.99 245.67,-54.08 243.41,-47.46"/>
</a>
</g>
</g>
<!-- Node2 -->
<g id="Node000002" class="node">
<title>Node2</title>
<g id="a_Node000002"><a xlink:href="a12837.html" target="_top" xlink:title="Basic branch structure.">
<polygon fill="white" stroke="#666666" points="289.5,-126 133.5,-126 133.5,-108 289.5,-108 289.5,-126"/>
<text text-anchor="middle" x="211.5" y="-114.8" font-family="Helvetica,sans-Serif" font-size="9.00">__gnu_pbds::basic_branch_tag</text>
</a>
</g>
</g>
<!-- Node2&#45;&gt;Node1 -->
<g id="edge1_Node000001_Node000002" class="edge">
<title>Node2&#45;&gt;Node1</title>
<g id="a_edge1_Node000001_Node000002"><a xlink:title=" ">
<path fill="none" stroke="#63b8ff" d="M211.5,-97.86C211.5,-89.13 211.5,-79.1 211.5,-72.24"/>
<polygon fill="#63b8ff" stroke="#63b8ff" points="208,-97.87 211.5,-107.88 215,-97.88 208,-97.87"/>
</a>
</g>
</g>
<!-- Node3 -->
<g id="Node000003" class="node">
<title>Node3</title>
<g id="a_Node000003"><a xlink:href="a12821.html" target="_top" xlink:title="Basic associative&#45;container.">
<polygon fill="white" stroke="#666666" points="284,-180 139,-180 139,-162 284,-162 284,-180"/>
<text text-anchor="middle" x="211.5" y="-168.8" font-family="Helvetica,sans-Serif" font-size="9.00">__gnu_pbds::associative_tag</text>
</a>
</g>
</g>
<!-- Node3&#45;&gt;Node2 -->
<g id="edge2_Node000002_Node000003" class="edge">
<title>Node3&#45;&gt;Node2</title>
<g id="a_edge2_Node000002_Node000003"><a xlink:title=" ">
<path fill="none" stroke="#63b8ff" d="M211.5,-151.86C211.5,-143.13 211.5,-133.1 211.5,-126.24"/>
<polygon fill="#63b8ff" stroke="#63b8ff" points="208,-151.87 211.5,-161.88 215,-151.88 208,-151.87"/>
</a>
</g>
</g>
<!-- Node4 -->
<g id="Node000004" class="node">
<title>Node4</title>
<g id="a_Node000004"><a xlink:href="a12809.html" target="_top" xlink:title="Base data structure tag.">
<polygon fill="white" stroke="#666666" points="281,-234 142,-234 142,-216 281,-216 281,-234"/>
<text text-anchor="middle" x="211.5" y="-222.8" font-family="Helvetica,sans-Serif" font-size="9.00">__gnu_pbds::container_tag</text>
</a>
</g>
</g>
<!-- Node4&#45;&gt;Node3 -->
<g id="edge3_Node000003_Node000004" class="edge">
<title>Node4&#45;&gt;Node3</title>
<g id="a_edge3_Node000003_Node000004"><a xlink:title=" ">
<path fill="none" stroke="#63b8ff" d="M211.5,-205.86C211.5,-197.13 211.5,-187.1 211.5,-180.24"/>
<polygon fill="#63b8ff" stroke="#63b8ff" points="208,-205.87 211.5,-215.88 215,-205.88 208,-205.87"/>
</a>
</g>
</g>
</g>
</svg>
</svg>

<style type='text/css'>
<![CDATA[
[data-mouse-over-selected='false'] { opacity: 0.7; }
[data-mouse-over-selected='true']  { opacity: 1.0; }
]]>
</style>
<script type="application/ecmascript"><![CDATA[
document.addEventListener('DOMContentLoaded', (event) => {
  highlightEdges();
  highlightAdjacentNodes();
});
]]></script>
</svg>
