<?xml version="1.0" encoding="UTF-8" standalone="no"?>
<!DOCTYPE svg PUBLIC "-//W3C//DTD SVG 1.1//EN"
 "http://www.w3.org/Graphics/SVG/1.1/DTD/svg11.dtd">
<!-- Generated by graphviz version 2.43.0 (0)
 -->
<!-- Title: __gnu_pbds::basic_branch_tag Pages: 1 -->
<!--zoomable 134 -->

<svg id="main" version="1.1" xmlns="http://www.w3.org/2000/svg" xmlns:xlink="http://www.w3.org/1999/xlink" xml:space="preserve" onload="init(evt)">
<style type="text/css"><![CDATA[
.node, .edge {opacity: 0.7;}
.node.selected, .edge.selected {opacity: 1;}
.edge:hover path { stroke: red; }
.edge:hover polygon { stroke: red; fill: red; }
]]></style>

<defs>
  <circle id="rim" cx="0" cy="0" r="7"/>
  <circle id="rim2" cx="0" cy="0" r="3.5"/>
  <g id="zoomPlus">
    <use xlink:href="#rim" fill="#404040"><set attributeName="fill" to="#808080" begin="zoomplus.mouseover" end="zoomplus.mouseout"/></use>
    <path d="M-4,0h8M0,-4v8" fill="none" stroke="white" stroke-width="1.5" pointer-events="none"/>
  </g>
  <g id="zoomMin">
    <use xlink:href="#rim" fill="#404040"><set attributeName="fill" to="#808080" begin="zoomminus.mouseover" end="zoomminus.mouseout"/></use>
    <path d="M-4,0h8" fill="none" stroke="white" stroke-width="1.5" pointer-events="none"/>
  </g>
  <g id="arrowUp" transform="translate(30 24)">
    <use xlink:href="#rim"/>
    <path pointer-events="none" fill="none" stroke="white" stroke-width="1.5" d="M0,-3.0v7 M-2.5,-0.5L0,-3.0L2.5,-0.5"/>
  </g>
  <g id="arrowRight" transform="rotate(90) translate(36 -43)">
    <use xlink:href="#rim"/>
    <path pointer-events="none" fill="none" stroke="white" stroke-width="1.5" d="M0,-3.0v7 M-2.5,-0.5L0,-3.0L2.5,-0.5"/>
  </g>
  <g id="arrowDown" transform="rotate(180) translate(-30 -48)">
    <use xlink:href="#rim"/>
    <path pointer-events="none" fill="none" stroke="white" stroke-width="1.5" d="M0,-3.0v7 M-2.5,-0.5L0,-3.0L2.5,-0.5"/>
  </g>
  <g id="arrowLeft" transform="rotate(270) translate(-36 17)">
    <use xlink:href="#rim"/>
    <path pointer-events="none" fill="none" stroke="white" stroke-width="1.5" d="M0,-3.0v7 M-2.5,-0.5L0,-3.0L2.5,-0.5"/>
  </g>
  <g id="resetDef">
    <use xlink:href="#rim2" fill="#404040"><set attributeName="fill" to="#808080" begin="reset.mouseover" end="reset.mouseout"/></use>
  </g>
</defs>
<script type="application/ecmascript">
var viewWidth = 848;
var viewHeight = 134;
var sectionId = 'dynsection-0';
</script>
<script type="application/ecmascript" xlink:href="svg.min.js"/>
<svg id="graph" class="graph">
<g id="viewport">
<title>__gnu_pbds::basic_branch_tag</title>
<!-- Node1 -->
<g id="Node000001" class="node">
<title>Node1</title>
<g id="a_Node000001"><a xlink:title="Basic branch structure.">
<polygon fill="#999999" stroke="#666666" points="512,-36 356,-36 356,-18 512,-18 512,-36"/>
<text text-anchor="middle" x="434" y="-24.8" font-family="Helvetica,sans-Serif" font-size="9.00">__gnu_pbds::basic_branch_tag</text>
</a>
</g>
</g>
<!-- Node4 -->
<g id="Node000004" class="node">
<title>Node4</title>
<g id="a_Node000004"><a xlink:href="a12841.html" target="_top" xlink:title="Basic tree structure.">
<polygon fill="white" stroke="#666666" points="662,-72 548,-72 548,-54 662,-54 662,-72"/>
<text text-anchor="middle" x="605" y="-60.8" font-family="Helvetica,sans-Serif" font-size="9.00">__gnu_pbds::tree_tag</text>
</a>
</g>
</g>
<!-- Node1&#45;&gt;Node4 -->
<g id="edge3_Node000001_Node000004" class="edge">
<title>Node1&#45;&gt;Node4</title>
<g id="a_edge3_Node000001_Node000004"><a xlink:title=" ">
<path fill="none" stroke="#63b8ff" d="M487.59,-38.2C511.41,-43.28 539.21,-49.2 561.66,-53.98"/>
<polygon fill="#63b8ff" stroke="#63b8ff" points="488.16,-34.74 477.65,-36.08 486.7,-41.59 488.16,-34.74"/>
</a>
</g>
</g>
<!-- Node8 -->
<g id="Node000008" class="node">
<title>Node8</title>
<g id="a_Node000008"><a xlink:href="a12857.html" target="_top" xlink:title="Basic trie structure.">
<polygon fill="white" stroke="#666666" points="660.5,-18 549.5,-18 549.5,0 660.5,0 660.5,-18"/>
<text text-anchor="middle" x="605" y="-6.8" font-family="Helvetica,sans-Serif" font-size="9.00">__gnu_pbds::trie_tag</text>
</a>
</g>
</g>
<!-- Node1&#45;&gt;Node8 -->
<g id="edge7_Node000001_Node000008" class="edge">
<title>Node1&#45;&gt;Node8</title>
<g id="a_edge7_Node000001_Node000008"><a xlink:title=" ">
<path fill="none" stroke="#63b8ff" d="M522.1,-17.72C531.33,-16.74 540.52,-15.76 549.23,-14.83"/>
<polygon fill="#63b8ff" stroke="#63b8ff" points="521.65,-14.25 512.08,-18.79 522.4,-21.21 521.65,-14.25"/>
</a>
</g>
</g>
<!-- Node2 -->
<g id="Node000002" class="node">
<title>Node2</title>
<g id="a_Node000002"><a xlink:href="a12821.html" target="_top" xlink:title="Basic associative&#45;container.">
<polygon fill="white" stroke="#666666" points="320,-36 175,-36 175,-18 320,-18 320,-36"/>
<text text-anchor="middle" x="247.5" y="-24.8" font-family="Helvetica,sans-Serif" font-size="9.00">__gnu_pbds::associative_tag</text>
</a>
</g>
</g>
<!-- Node2&#45;&gt;Node1 -->
<g id="edge1_Node000001_Node000002" class="edge">
<title>Node2&#45;&gt;Node1</title>
<g id="a_edge1_Node000001_Node000002"><a xlink:title=" ">
<path fill="none" stroke="#63b8ff" d="M330.1,-27C338.69,-27 347.41,-27 355.94,-27"/>
<polygon fill="#63b8ff" stroke="#63b8ff" points="330.1,-23.5 320.1,-27 330.1,-30.5 330.1,-23.5"/>
</a>
</g>
</g>
<!-- Node3 -->
<g id="Node000003" class="node">
<title>Node3</title>
<g id="a_Node000003"><a xlink:href="a12809.html" target="_top" xlink:title="Base data structure tag.">
<polygon fill="white" stroke="#666666" points="139,-36 0,-36 0,-18 139,-18 139,-36"/>
<text text-anchor="middle" x="69.5" y="-24.8" font-family="Helvetica,sans-Serif" font-size="9.00">__gnu_pbds::container_tag</text>
</a>
</g>
</g>
<!-- Node3&#45;&gt;Node2 -->
<g id="edge2_Node000002_Node000003" class="edge">
<title>Node3&#45;&gt;Node2</title>
<g id="a_edge2_Node000002_Node000003"><a xlink:title=" ">
<path fill="none" stroke="#63b8ff" d="M149.08,-27C157.69,-27 166.42,-27 174.94,-27"/>
<polygon fill="#63b8ff" stroke="#63b8ff" points="149.05,-23.5 139.05,-27 149.05,-30.5 149.05,-23.5"/>
</a>
</g>
</g>
<!-- Node5 -->
<g id="Node000005" class="node">
<title>Node5</title>
<g id="a_Node000005"><a xlink:href="a12853.html" target="_top" xlink:title="Ordered&#45;vector tree.">
<polygon fill="white" stroke="#666666" points="833.5,-126 704.5,-126 704.5,-108 833.5,-108 833.5,-126"/>
<text text-anchor="middle" x="769" y="-114.8" font-family="Helvetica,sans-Serif" font-size="9.00">__gnu_pbds::ov_tree_tag</text>
</a>
</g>
</g>
<!-- Node4&#45;&gt;Node5 -->
<g id="edge4_Node000004_Node000005" class="edge">
<title>Node4&#45;&gt;Node5</title>
<g id="a_edge4_Node000004_Node000005"><a xlink:title=" ">
<path fill="none" stroke="#63b8ff" d="M636.23,-75.9C654.02,-83.22 677.07,-92.24 698,-99 708.03,-102.24 719.02,-105.29 729.25,-107.93"/>
<polygon fill="#63b8ff" stroke="#63b8ff" points="637.51,-72.64 626.93,-72.03 634.82,-79.1 637.51,-72.64"/>
</a>
</g>
</g>
<!-- Node6 -->
<g id="Node000006" class="node">
<title>Node6</title>
<g id="a_Node000006"><a xlink:href="a12845.html" target="_top" xlink:title="Red&#45;black tree.">
<polygon fill="white" stroke="#666666" points="833,-90 705,-90 705,-72 833,-72 833,-90"/>
<text text-anchor="middle" x="769" y="-78.8" font-family="Helvetica,sans-Serif" font-size="9.00">__gnu_pbds::rb_tree_tag</text>
</a>
</g>
</g>
<!-- Node4&#45;&gt;Node6 -->
<g id="edge5_Node000004_Node000006" class="edge">
<title>Node4&#45;&gt;Node6</title>
<g id="a_edge5_Node000004_Node000006"><a xlink:title=" ">
<path fill="none" stroke="#63b8ff" d="M672.39,-70.38C683.16,-71.57 694.28,-72.81 704.96,-74"/>
<polygon fill="#63b8ff" stroke="#63b8ff" points="672.53,-66.87 662.21,-69.25 671.76,-73.83 672.53,-66.87"/>
</a>
</g>
</g>
<!-- Node7 -->
<g id="Node000007" class="node">
<title>Node7</title>
<g id="a_Node000007"><a xlink:href="a12849.html" target="_top" xlink:title="Splay tree.">
<polygon fill="white" stroke="#666666" points="840,-54 698,-54 698,-36 840,-36 840,-54"/>
<text text-anchor="middle" x="769" y="-42.8" font-family="Helvetica,sans-Serif" font-size="9.00">__gnu_pbds::splay_tree_tag</text>
</a>
</g>
</g>
<!-- Node4&#45;&gt;Node7 -->
<g id="edge6_Node000004_Node000007" class="edge">
<title>Node4&#45;&gt;Node7</title>
<g id="a_edge6_Node000004_Node000007"><a xlink:title=" ">
<path fill="none" stroke="#63b8ff" d="M672.35,-55.63C680.78,-54.69 689.42,-53.73 697.91,-52.79"/>
<polygon fill="#63b8ff" stroke="#63b8ff" points="671.76,-52.17 662.21,-56.75 672.53,-59.13 671.76,-52.17"/>
</a>
</g>
</g>
<!-- Node9 -->
<g id="Node000009" class="node">
<title>Node9</title>
<g id="a_Node000009"><a xlink:href="a12861.html" target="_top" xlink:title="PATRICIA trie.">
<polygon fill="white" stroke="#666666" points="834.5,-18 703.5,-18 703.5,0 834.5,0 834.5,-18"/>
<text text-anchor="middle" x="769" y="-6.8" font-family="Helvetica,sans-Serif" font-size="9.00">__gnu_pbds::pat_trie_tag</text>
</a>
</g>
</g>
<!-- Node8&#45;&gt;Node9 -->
<g id="edge8_Node000008_Node000009" class="edge">
<title>Node8&#45;&gt;Node9</title>
<g id="a_edge8_Node000008_Node000009"><a xlink:title=" ">
<path fill="none" stroke="#63b8ff" d="M670.95,-9C681.65,-9 692.73,-9 703.41,-9"/>
<polygon fill="#63b8ff" stroke="#63b8ff" points="670.85,-5.5 660.85,-9 670.85,-12.5 670.85,-5.5"/>
</a>
</g>
</g>
</g>
</svg>

<g id="navigator" transform="translate(0 0)" fill="#404254">
  <rect fill="#f2f5e9" fill-opacity="0.5" stroke="#606060" stroke-width=".5" x="0" y="0" width="60" height="60"/>
  <use id="zoomplus" xlink:href="#zoomPlus" x="17" y="9" onmousedown="handleZoom(evt,'in')"/>
  <use id="zoomminus" xlink:href="#zoomMin" x="42" y="9" onmousedown="handleZoom(evt,'out')"/>
  <use id="reset" xlink:href="#resetDef" x="30" y="36" onmousedown="handleReset()"/>
   <use id="arrowup" xlink:href="#arrowUp" x="0" y="0" onmousedown="handlePan(0,-1)"/>
  <use id="arrowright" xlink:href="#arrowRight" x="0" y="0" onmousedown="handlePan(1,0)"/>
  <use id="arrowdown" xlink:href="#arrowDown" x="0" y="0" onmousedown="handlePan(0,1)"/>
  <use id="arrowleft" xlink:href="#arrowLeft" x="0" y="0" onmousedown="handlePan(-1,0)"/>
</g>
<svg viewBox="0 0 15 15" width="100%" height="30px" preserveAspectRatio="xMaxYMin meet">
 <g id="arrow_out" transform="scale(0.3 0.3)">
  <a xlink:href="a12836_org.svg" target="_base">
   <rect id="button" ry="5" rx="5" y="6" x="6" height="38" width="38"
        fill="#f2f5e9" fill-opacity="0.5" stroke="#606060" stroke-width="1.0"/>
   <path id="arrow"
     d="M 11.500037,31.436501 C 11.940474,20.09759 22.043105,11.32322 32.158766,21.979434 L 37.068811,17.246167 C 37.068811,17.246167 37.088388,32 37.088388,32 L 22.160133,31.978069 C 22.160133,31.978069 26.997745,27.140456 26.997745,27.140456 C 18.528582,18.264221 13.291696,25.230495 11.500037,31.436501 z"
     style="fill:#404040;"/>
  </a>
 </g>
</svg>

<style type='text/css'>
<![CDATA[
[data-mouse-over-selected='false'] { opacity: 0.7; }
[data-mouse-over-selected='true']  { opacity: 1.0; }
]]>
</style>
<script type="application/ecmascript"><![CDATA[
document.addEventListener('DOMContentLoaded', (event) => {
  highlightEdges();
  highlightAdjacentNodes();
});
]]></script>
</svg>
