<?xml version="1.0" encoding="UTF-8" standalone="no"?>
<!DOCTYPE svg PUBLIC "-//W3C//DTD SVG 1.1//EN"
 "http://www.w3.org/Graphics/SVG/1.1/DTD/svg11.dtd">
<!-- Generated by graphviz version 2.43.0 (0)
 -->
<!-- Title: __gnu_pbds::basic_branch_tag Pages: 1 -->
<svg width="848pt" height="134pt"
 viewBox="0.00 0.00 848.00 134.00" xmlns="http://www.w3.org/2000/svg" xmlns:xlink="http://www.w3.org/1999/xlink">
<g id="graph0" class="graph" transform="scale(1 1) rotate(0) translate(4 130)">
<title>__gnu_pbds::basic_branch_tag</title>
<!-- Node1 -->
<g id="Node000001" class="node">
<title>Node1</title>
<g id="a_Node000001"><a xlink:title="Basic branch structure.">
<polygon fill="#999999" stroke="#666666" points="512,-36 356,-36 356,-18 512,-18 512,-36"/>
<text text-anchor="middle" x="434" y="-24.8" font-family="Helvetica,sans-Serif" font-size="9.00">__gnu_pbds::basic_branch_tag</text>
</a>
</g>
</g>
<!-- Node4 -->
<g id="Node000004" class="node">
<title>Node4</title>
<g id="a_Node000004"><a xlink:href="a12841.html" target="_top" xlink:title="Basic tree structure.">
<polygon fill="white" stroke="#666666" points="662,-72 548,-72 548,-54 662,-54 662,-72"/>
<text text-anchor="middle" x="605" y="-60.8" font-family="Helvetica,sans-Serif" font-size="9.00">__gnu_pbds::tree_tag</text>
</a>
</g>
</g>
<!-- Node1&#45;&gt;Node4 -->
<g id="edge3_Node000001_Node000004" class="edge">
<title>Node1&#45;&gt;Node4</title>
<g id="a_edge3_Node000001_Node000004"><a xlink:title=" ">
<path fill="none" stroke="#63b8ff" d="M487.59,-38.2C511.41,-43.28 539.21,-49.2 561.66,-53.98"/>
<polygon fill="#63b8ff" stroke="#63b8ff" points="488.16,-34.74 477.65,-36.08 486.7,-41.59 488.16,-34.74"/>
</a>
</g>
</g>
<!-- Node8 -->
<g id="Node000008" class="node">
<title>Node8</title>
<g id="a_Node000008"><a xlink:href="a12857.html" target="_top" xlink:title="Basic trie structure.">
<polygon fill="white" stroke="#666666" points="660.5,-18 549.5,-18 549.5,0 660.5,0 660.5,-18"/>
<text text-anchor="middle" x="605" y="-6.8" font-family="Helvetica,sans-Serif" font-size="9.00">__gnu_pbds::trie_tag</text>
</a>
</g>
</g>
<!-- Node1&#45;&gt;Node8 -->
<g id="edge7_Node000001_Node000008" class="edge">
<title>Node1&#45;&gt;Node8</title>
<g id="a_edge7_Node000001_Node000008"><a xlink:title=" ">
<path fill="none" stroke="#63b8ff" d="M522.1,-17.72C531.33,-16.74 540.52,-15.76 549.23,-14.83"/>
<polygon fill="#63b8ff" stroke="#63b8ff" points="521.65,-14.25 512.08,-18.79 522.4,-21.21 521.65,-14.25"/>
</a>
</g>
</g>
<!-- Node2 -->
<g id="Node000002" class="node">
<title>Node2</title>
<g id="a_Node000002"><a xlink:href="a12821.html" target="_top" xlink:title="Basic associative&#45;container.">
<polygon fill="white" stroke="#666666" points="320,-36 175,-36 175,-18 320,-18 320,-36"/>
<text text-anchor="middle" x="247.5" y="-24.8" font-family="Helvetica,sans-Serif" font-size="9.00">__gnu_pbds::associative_tag</text>
</a>
</g>
</g>
<!-- Node2&#45;&gt;Node1 -->
<g id="edge1_Node000001_Node000002" class="edge">
<title>Node2&#45;&gt;Node1</title>
<g id="a_edge1_Node000001_Node000002"><a xlink:title=" ">
<path fill="none" stroke="#63b8ff" d="M330.1,-27C338.69,-27 347.41,-27 355.94,-27"/>
<polygon fill="#63b8ff" stroke="#63b8ff" points="330.1,-23.5 320.1,-27 330.1,-30.5 330.1,-23.5"/>
</a>
</g>
</g>
<!-- Node3 -->
<g id="Node000003" class="node">
<title>Node3</title>
<g id="a_Node000003"><a xlink:href="a12809.html" target="_top" xlink:title="Base data structure tag.">
<polygon fill="white" stroke="#666666" points="139,-36 0,-36 0,-18 139,-18 139,-36"/>
<text text-anchor="middle" x="69.5" y="-24.8" font-family="Helvetica,sans-Serif" font-size="9.00">__gnu_pbds::container_tag</text>
</a>
</g>
</g>
<!-- Node3&#45;&gt;Node2 -->
<g id="edge2_Node000002_Node000003" class="edge">
<title>Node3&#45;&gt;Node2</title>
<g id="a_edge2_Node000002_Node000003"><a xlink:title=" ">
<path fill="none" stroke="#63b8ff" d="M149.08,-27C157.69,-27 166.42,-27 174.94,-27"/>
<polygon fill="#63b8ff" stroke="#63b8ff" points="149.05,-23.5 139.05,-27 149.05,-30.5 149.05,-23.5"/>
</a>
</g>
</g>
<!-- Node5 -->
<g id="Node000005" class="node">
<title>Node5</title>
<g id="a_Node000005"><a xlink:href="a12853.html" target="_top" xlink:title="Ordered&#45;vector tree.">
<polygon fill="white" stroke="#666666" points="833.5,-126 704.5,-126 704.5,-108 833.5,-108 833.5,-126"/>
<text text-anchor="middle" x="769" y="-114.8" font-family="Helvetica,sans-Serif" font-size="9.00">__gnu_pbds::ov_tree_tag</text>
</a>
</g>
</g>
<!-- Node4&#45;&gt;Node5 -->
<g id="edge4_Node000004_Node000005" class="edge">
<title>Node4&#45;&gt;Node5</title>
<g id="a_edge4_Node000004_Node000005"><a xlink:title=" ">
<path fill="none" stroke="#63b8ff" d="M636.23,-75.9C654.02,-83.22 677.07,-92.24 698,-99 708.03,-102.24 719.02,-105.29 729.25,-107.93"/>
<polygon fill="#63b8ff" stroke="#63b8ff" points="637.51,-72.64 626.93,-72.03 634.82,-79.1 637.51,-72.64"/>
</a>
</g>
</g>
<!-- Node6 -->
<g id="Node000006" class="node">
<title>Node6</title>
<g id="a_Node000006"><a xlink:href="a12845.html" target="_top" xlink:title="Red&#45;black tree.">
<polygon fill="white" stroke="#666666" points="833,-90 705,-90 705,-72 833,-72 833,-90"/>
<text text-anchor="middle" x="769" y="-78.8" font-family="Helvetica,sans-Serif" font-size="9.00">__gnu_pbds::rb_tree_tag</text>
</a>
</g>
</g>
<!-- Node4&#45;&gt;Node6 -->
<g id="edge5_Node000004_Node000006" class="edge">
<title>Node4&#45;&gt;Node6</title>
<g id="a_edge5_Node000004_Node000006"><a xlink:title=" ">
<path fill="none" stroke="#63b8ff" d="M672.39,-70.38C683.16,-71.57 694.28,-72.81 704.96,-74"/>
<polygon fill="#63b8ff" stroke="#63b8ff" points="672.53,-66.87 662.21,-69.25 671.76,-73.83 672.53,-66.87"/>
</a>
</g>
</g>
<!-- Node7 -->
<g id="Node000007" class="node">
<title>Node7</title>
<g id="a_Node000007"><a xlink:href="a12849.html" target="_top" xlink:title="Splay tree.">
<polygon fill="white" stroke="#666666" points="840,-54 698,-54 698,-36 840,-36 840,-54"/>
<text text-anchor="middle" x="769" y="-42.8" font-family="Helvetica,sans-Serif" font-size="9.00">__gnu_pbds::splay_tree_tag</text>
</a>
</g>
</g>
<!-- Node4&#45;&gt;Node7 -->
<g id="edge6_Node000004_Node000007" class="edge">
<title>Node4&#45;&gt;Node7</title>
<g id="a_edge6_Node000004_Node000007"><a xlink:title=" ">
<path fill="none" stroke="#63b8ff" d="M672.35,-55.63C680.78,-54.69 689.42,-53.73 697.91,-52.79"/>
<polygon fill="#63b8ff" stroke="#63b8ff" points="671.76,-52.17 662.21,-56.75 672.53,-59.13 671.76,-52.17"/>
</a>
</g>
</g>
<!-- Node9 -->
<g id="Node000009" class="node">
<title>Node9</title>
<g id="a_Node000009"><a xlink:href="a12861.html" target="_top" xlink:title="PATRICIA trie.">
<polygon fill="white" stroke="#666666" points="834.5,-18 703.5,-18 703.5,0 834.5,0 834.5,-18"/>
<text text-anchor="middle" x="769" y="-6.8" font-family="Helvetica,sans-Serif" font-size="9.00">__gnu_pbds::pat_trie_tag</text>
</a>
</g>
</g>
<!-- Node8&#45;&gt;Node9 -->
<g id="edge8_Node000008_Node000009" class="edge">
<title>Node8&#45;&gt;Node9</title>
<g id="a_edge8_Node000008_Node000009"><a xlink:title=" ">
<path fill="none" stroke="#63b8ff" d="M670.95,-9C681.65,-9 692.73,-9 703.41,-9"/>
<polygon fill="#63b8ff" stroke="#63b8ff" points="670.85,-5.5 660.85,-9 670.85,-12.5 670.85,-5.5"/>
</a>
</g>
</g>
</g>
</svg>
