<?xml version="1.0" encoding="UTF-8" standalone="no"?>
<!DOCTYPE svg PUBLIC "-//W3C//DTD SVG 1.1//EN"
 "http://www.w3.org/Graphics/SVG/1.1/DTD/svg11.dtd">
<!-- Generated by graphviz version 2.43.0 (0)
 -->
<!-- Title: __gnu_pbds::sequence_tag Pages: 1 -->
<svg width="148pt" height="134pt"
 viewBox="0.00 0.00 148.00 134.00" xmlns="http://www.w3.org/2000/svg" xmlns:xlink="http://www.w3.org/1999/xlink">
<g id="graph0" class="graph" transform="scale(1 1) rotate(0) translate(4 130)">
<title>__gnu_pbds::sequence_tag</title>
<!-- Node1 -->
<g id="Node000001" class="node">
<title>Node1</title>
<g id="a_Node000001"><a xlink:title="Basic sequence.">
<polygon fill="#999999" stroke="#666666" points="140,-72 0,-72 0,-54 140,-54 140,-72"/>
<text text-anchor="middle" x="70" y="-60.8" font-family="Helvetica,sans-Serif" font-size="9.00">__gnu_pbds::sequence_tag</text>
</a>
</g>
</g>
<!-- Node3 -->
<g id="Node000003" class="node">
<title>Node3</title>
<g id="a_Node000003"><a xlink:href="a12817.html" target="_top" xlink:title="Basic string container, inclusive of strings, ropes, etc.">
<polygon fill="white" stroke="#666666" points="131,-18 9,-18 9,0 131,0 131,-18"/>
<text text-anchor="middle" x="70" y="-6.8" font-family="Helvetica,sans-Serif" font-size="9.00">__gnu_pbds::string_tag</text>
</a>
</g>
</g>
<!-- Node1&#45;&gt;Node3 -->
<g id="edge2_Node000001_Node000003" class="edge">
<title>Node1&#45;&gt;Node3</title>
<g id="a_edge2_Node000001_Node000003"><a xlink:title=" ">
<path fill="none" stroke="#63b8ff" d="M70,-43.86C70,-35.13 70,-25.1 70,-18.24"/>
<polygon fill="#63b8ff" stroke="#63b8ff" points="66.5,-43.87 70,-53.88 73.5,-43.88 66.5,-43.87"/>
</a>
</g>
</g>
<!-- Node2 -->
<g id="Node000002" class="node">
<title>Node2</title>
<g id="a_Node000002"><a xlink:href="a12809.html" target="_top" xlink:title="Base data structure tag.">
<polygon fill="white" stroke="#666666" points="139.5,-126 0.5,-126 0.5,-108 139.5,-108 139.5,-126"/>
<text text-anchor="middle" x="70" y="-114.8" font-family="Helvetica,sans-Serif" font-size="9.00">__gnu_pbds::container_tag</text>
</a>
</g>
</g>
<!-- Node2&#45;&gt;Node1 -->
<g id="edge1_Node000001_Node000002" class="edge">
<title>Node2&#45;&gt;Node1</title>
<g id="a_edge1_Node000001_Node000002"><a xlink:title=" ">
<path fill="none" stroke="#63b8ff" d="M70,-97.86C70,-89.13 70,-79.1 70,-72.24"/>
<polygon fill="#63b8ff" stroke="#63b8ff" points="66.5,-97.87 70,-107.88 73.5,-97.88 66.5,-97.87"/>
</a>
</g>
</g>
</g>
</svg>
