<?xml version="1.0" encoding="UTF-8" standalone="no"?>
<!DOCTYPE svg PUBLIC "-//W3C//DTD SVG 1.1//EN"
 "http://www.w3.org/Graphics/SVG/1.1/DTD/svg11.dtd">
<!-- Generated by graphviz version 2.43.0 (0)
 -->
<!-- Title: __gnu_pbds::binary_heap_tag Pages: 1 -->
<svg width="147pt" height="154pt"
 viewBox="0.00 0.00 147.00 154.00" xmlns="http://www.w3.org/2000/svg" xmlns:xlink="http://www.w3.org/1999/xlink">
<g id="graph0" class="graph" transform="scale(1 1) rotate(0) translate(4 150)">
<title>__gnu_pbds::binary_heap_tag</title>
<!-- Node1 -->
<g id="Node000001" class="node">
<title>Node1</title>
<g id="a_Node000001"><a xlink:title="Binary&#45;heap (array&#45;based).">
<polygon fill="#999999" stroke="#666666" points="122,-28 17,-28 17,0 122,0 122,-28"/>
<text text-anchor="start" x="25" y="-16.8" font-family="Helvetica,sans-Serif" font-size="9.00">__gnu_pbds::binary</text>
<text text-anchor="middle" x="69.5" y="-6.8" font-family="Helvetica,sans-Serif" font-size="9.00">_heap_tag</text>
</a>
</g>
</g>
<!-- Node2 -->
<g id="Node000002" class="node">
<title>Node2</title>
<g id="a_Node000002"><a xlink:href="a12869.html" target="_top" xlink:title="Basic priority&#45;queue.">
<polygon fill="white" stroke="#666666" points="124,-92 15,-92 15,-64 124,-64 124,-92"/>
<text text-anchor="start" x="23" y="-80.8" font-family="Helvetica,sans-Serif" font-size="9.00">__gnu_pbds::priority</text>
<text text-anchor="middle" x="69.5" y="-70.8" font-family="Helvetica,sans-Serif" font-size="9.00">_queue_tag</text>
</a>
</g>
</g>
<!-- Node2&#45;&gt;Node1 -->
<g id="edge1_Node000001_Node000002" class="edge">
<title>Node2&#45;&gt;Node1</title>
<g id="a_edge1_Node000001_Node000002"><a xlink:title=" ">
<path fill="none" stroke="#63b8ff" d="M69.5,-53.6C69.5,-44.98 69.5,-35.52 69.5,-28.13"/>
<polygon fill="#63b8ff" stroke="#63b8ff" points="66,-53.85 69.5,-63.85 73,-53.85 66,-53.85"/>
</a>
</g>
</g>
<!-- Node3 -->
<g id="Node000003" class="node">
<title>Node3</title>
<g id="a_Node000003"><a xlink:href="a12809.html" target="_top" xlink:title="Base data structure tag.">
<polygon fill="white" stroke="#666666" points="139,-146 0,-146 0,-128 139,-128 139,-146"/>
<text text-anchor="middle" x="69.5" y="-134.8" font-family="Helvetica,sans-Serif" font-size="9.00">__gnu_pbds::container_tag</text>
</a>
</g>
</g>
<!-- Node3&#45;&gt;Node2 -->
<g id="edge2_Node000002_Node000003" class="edge">
<title>Node3&#45;&gt;Node2</title>
<g id="a_edge2_Node000002_Node000003"><a xlink:title=" ">
<path fill="none" stroke="#63b8ff" d="M69.5,-117.49C69.5,-109.28 69.5,-99.81 69.5,-92.31"/>
<polygon fill="#63b8ff" stroke="#63b8ff" points="66,-117.59 69.5,-127.59 73,-117.59 66,-117.59"/>
</a>
</g>
</g>
</g>
</svg>
