<?xml version="1.0" encoding="UTF-8" standalone="no"?>
<!DOCTYPE svg PUBLIC "-//W3C//DTD SVG 1.1//EN"
 "http://www.w3.org/Graphics/SVG/1.1/DTD/svg11.dtd">
<!-- Generated by graphviz version 2.43.0 (0)
 -->
<!-- Title: __gnu_pbds::basic_hash_tag Pages: 1 -->
<svg width="294pt" height="188pt"
 viewBox="0.00 0.00 293.50 188.00" xmlns="http://www.w3.org/2000/svg" xmlns:xlink="http://www.w3.org/1999/xlink">

<svg id="main" version="1.1" xmlns="http://www.w3.org/2000/svg" xmlns:xlink="http://www.w3.org/1999/xlink" xml:space="preserve" onload="init(evt)">
<style type="text/css"><![CDATA[
.node, .edge {opacity: 0.7;}
.node.selected, .edge.selected {opacity: 1;}
.edge:hover path { stroke: red; }
.edge:hover polygon { stroke: red; fill: red; }
]]></style>
<script type="application/ecmascript" xlink:href="svg.min.js"/>
<svg id="graph" class="graph">
<g id="graph0" class="graph" transform="scale(1 1) rotate(0) translate(4 184)">
<title>__gnu_pbds::basic_hash_tag</title>
<!-- Node1 -->
<g id="Node000001" class="node">
<title>Node1</title>
<g id="a_Node000001"><a xlink:title="Basic hash structure.">
<polygon fill="#999999" stroke="#666666" points="215.5,-72 69.5,-72 69.5,-54 215.5,-54 215.5,-72"/>
<text text-anchor="middle" x="142.5" y="-60.8" font-family="Helvetica,sans-Serif" font-size="9.00">__gnu_pbds::basic_hash_tag</text>
</a>
</g>
</g>
<!-- Node4 -->
<g id="Node000004" class="node">
<title>Node4</title>
<g id="a_Node000004"><a xlink:href="a12829.html" target="_top" xlink:title="Collision&#45;chaining hash.">
<polygon fill="white" stroke="#666666" points="133,-18 0,-18 0,0 133,0 133,-18"/>
<text text-anchor="middle" x="66.5" y="-6.8" font-family="Helvetica,sans-Serif" font-size="9.00">__gnu_pbds::cc_hash_tag</text>
</a>
</g>
</g>
<!-- Node1&#45;&gt;Node4 -->
<g id="edge3_Node000001_Node000004" class="edge">
<title>Node1&#45;&gt;Node4</title>
<g id="a_edge3_Node000001_Node000004"><a xlink:title=" ">
<path fill="none" stroke="#63b8ff" d="M122.17,-48.09C108.24,-38.56 90.25,-26.25 78.54,-18.24"/>
<polygon fill="#63b8ff" stroke="#63b8ff" points="120.4,-51.12 130.62,-53.88 124.35,-45.34 120.4,-51.12"/>
</a>
</g>
</g>
<!-- Node5 -->
<g id="Node000005" class="node">
<title>Node5</title>
<g id="a_Node000005"><a xlink:href="a12833.html" target="_top" xlink:title="General&#45;probing hash.">
<polygon fill="white" stroke="#666666" points="285.5,-18 151.5,-18 151.5,0 285.5,0 285.5,-18"/>
<text text-anchor="middle" x="218.5" y="-6.8" font-family="Helvetica,sans-Serif" font-size="9.00">__gnu_pbds::gp_hash_tag</text>
</a>
</g>
</g>
<!-- Node1&#45;&gt;Node5 -->
<g id="edge4_Node000001_Node000005" class="edge">
<title>Node1&#45;&gt;Node5</title>
<g id="a_edge4_Node000001_Node000005"><a xlink:title=" ">
<path fill="none" stroke="#63b8ff" d="M162.83,-48.09C176.76,-38.56 194.75,-26.25 206.46,-18.24"/>
<polygon fill="#63b8ff" stroke="#63b8ff" points="160.65,-45.34 154.38,-53.88 164.6,-51.12 160.65,-45.34"/>
</a>
</g>
</g>
<!-- Node2 -->
<g id="Node000002" class="node">
<title>Node2</title>
<g id="a_Node000002"><a xlink:href="a12821.html" target="_top" xlink:title="Basic associative&#45;container.">
<polygon fill="white" stroke="#666666" points="215,-126 70,-126 70,-108 215,-108 215,-126"/>
<text text-anchor="middle" x="142.5" y="-114.8" font-family="Helvetica,sans-Serif" font-size="9.00">__gnu_pbds::associative_tag</text>
</a>
</g>
</g>
<!-- Node2&#45;&gt;Node1 -->
<g id="edge1_Node000001_Node000002" class="edge">
<title>Node2&#45;&gt;Node1</title>
<g id="a_edge1_Node000001_Node000002"><a xlink:title=" ">
<path fill="none" stroke="#63b8ff" d="M142.5,-97.86C142.5,-89.13 142.5,-79.1 142.5,-72.24"/>
<polygon fill="#63b8ff" stroke="#63b8ff" points="139,-97.87 142.5,-107.88 146,-97.88 139,-97.87"/>
</a>
</g>
</g>
<!-- Node3 -->
<g id="Node000003" class="node">
<title>Node3</title>
<g id="a_Node000003"><a xlink:href="a12809.html" target="_top" xlink:title="Base data structure tag.">
<polygon fill="white" stroke="#666666" points="212,-180 73,-180 73,-162 212,-162 212,-180"/>
<text text-anchor="middle" x="142.5" y="-168.8" font-family="Helvetica,sans-Serif" font-size="9.00">__gnu_pbds::container_tag</text>
</a>
</g>
</g>
<!-- Node3&#45;&gt;Node2 -->
<g id="edge2_Node000002_Node000003" class="edge">
<title>Node3&#45;&gt;Node2</title>
<g id="a_edge2_Node000002_Node000003"><a xlink:title=" ">
<path fill="none" stroke="#63b8ff" d="M142.5,-151.86C142.5,-143.13 142.5,-133.1 142.5,-126.24"/>
<polygon fill="#63b8ff" stroke="#63b8ff" points="139,-151.87 142.5,-161.88 146,-151.88 139,-151.87"/>
</a>
</g>
</g>
</g>
</svg>
</svg>

<style type='text/css'>
<![CDATA[
[data-mouse-over-selected='false'] { opacity: 0.7; }
[data-mouse-over-selected='true']  { opacity: 1.0; }
]]>
</style>
<script type="application/ecmascript"><![CDATA[
document.addEventListener('DOMContentLoaded', (event) => {
  highlightEdges();
  highlightAdjacentNodes();
});
]]></script>
</svg>
