<?xml version="1.0" encoding="UTF-8" standalone="no"?>
<!DOCTYPE svg PUBLIC "-//W3C//DTD SVG 1.1//EN"
 "http://www.w3.org/Graphics/SVG/1.1/DTD/svg11.dtd">
<!-- Generated by graphviz version 2.43.0 (0)
 -->
<!-- Title: __gnu_pbds::detail::stored_value&lt; _Tv &gt; Pages: 1 -->
<svg width="264pt" height="102pt"
 viewBox="0.00 0.00 264.00 102.00" xmlns="http://www.w3.org/2000/svg" xmlns:xlink="http://www.w3.org/1999/xlink">
<g id="graph0" class="graph" transform="scale(1 1) rotate(0) translate(4 98)">
<title>__gnu_pbds::detail::stored_value&lt; _Tv &gt;</title>
<!-- Node1 -->
<g id="Node000001" class="node">
<title>Node1</title>
<g id="a_Node000001"><a xlink:title="Stored value.">
<polygon fill="#999999" stroke="#666666" points="116,-61 0,-61 0,-33 116,-33 116,-61"/>
<text text-anchor="start" x="8" y="-49.8" font-family="Helvetica,sans-Serif" font-size="9.00">__gnu_pbds::detail</text>
<text text-anchor="middle" x="58" y="-39.8" font-family="Helvetica,sans-Serif" font-size="9.00">::stored_value&lt; _Tv &gt;</text>
</a>
</g>
</g>
<!-- Node2 -->
<g id="Node000002" class="node">
<title>Node2</title>
<g id="a_Node000002"><a xlink:href="a13133.html" target="_top" xlink:title="Primary template for representation of stored data. Two types of data can be stored: value and hash.">
<polygon fill="white" stroke="#666666" points="256,-94 152,-94 152,-56 256,-56 256,-94"/>
<text text-anchor="start" x="160" y="-82.8" font-family="Helvetica,sans-Serif" font-size="9.00">__gnu_pbds::detail</text>
<text text-anchor="start" x="160" y="-72.8" font-family="Helvetica,sans-Serif" font-size="9.00">::stored_data&lt; _Tv,</text>
<text text-anchor="middle" x="204" y="-62.8" font-family="Helvetica,sans-Serif" font-size="9.00"> _Th, Store_Hash &gt;</text>
</a>
</g>
</g>
<!-- Node1&#45;&gt;Node2 -->
<g id="edge1_Node000001_Node000002" class="edge">
<title>Node1&#45;&gt;Node2</title>
<g id="a_edge1_Node000001_Node000002"><a xlink:title=" ">
<path fill="none" stroke="#63b8ff" d="M126.35,-60.1C134.95,-61.77 143.64,-63.46 151.93,-65.07"/>
<polygon fill="#63b8ff" stroke="#63b8ff" points="126.81,-56.62 116.33,-58.15 125.47,-63.49 126.81,-56.62"/>
</a>
</g>
</g>
<!-- Node3 -->
<g id="Node000003" class="node">
<title>Node3</title>
<g id="a_Node000003"><a xlink:href="a13137.html" target="_top" xlink:title="Specialization for representation of stored data of just value type.">
<polygon fill="white" stroke="#666666" points="256,-38 152,-38 152,0 256,0 256,-38"/>
<text text-anchor="start" x="160" y="-26.8" font-family="Helvetica,sans-Serif" font-size="9.00">__gnu_pbds::detail</text>
<text text-anchor="start" x="160" y="-16.8" font-family="Helvetica,sans-Serif" font-size="9.00">::stored_data&lt; _Tv,</text>
<text text-anchor="middle" x="204" y="-6.8" font-family="Helvetica,sans-Serif" font-size="9.00"> _Th, false &gt;</text>
</a>
</g>
</g>
<!-- Node1&#45;&gt;Node3 -->
<g id="edge2_Node000001_Node000003" class="edge">
<title>Node1&#45;&gt;Node3</title>
<g id="a_edge2_Node000001_Node000003"><a xlink:title=" ">
<path fill="none" stroke="#63b8ff" d="M126.35,-33.9C134.95,-32.23 143.64,-30.54 151.93,-28.93"/>
<polygon fill="#63b8ff" stroke="#63b8ff" points="125.47,-30.51 116.33,-35.85 126.81,-37.38 125.47,-30.51"/>
</a>
</g>
</g>
</g>
</svg>
