<?xml version="1.0" encoding="UTF-8" standalone="no"?>
<!DOCTYPE svg PUBLIC "-//W3C//DTD SVG 1.1//EN"
 "http://www.w3.org/Graphics/SVG/1.1/DTD/svg11.dtd">
<!-- Generated by graphviz version 2.43.0 (0)
 -->
<!-- Title: __gnu_pbds::detail::stored_data&lt; _Tv, _Th, Store_Hash &gt; Pages: 1 -->
<svg width="256pt" height="110pt"
 viewBox="0.00 0.00 256.00 110.00" xmlns="http://www.w3.org/2000/svg" xmlns:xlink="http://www.w3.org/1999/xlink">
<g id="graph0" class="graph" transform="scale(1 1) rotate(0) translate(4 106)">
<title>__gnu_pbds::detail::stored_data&lt; _Tv, _Th, Store_Hash &gt;</title>
<!-- Node1 -->
<g id="Node000001" class="node">
<title>Node1</title>
<g id="a_Node000001"><a xlink:title="Primary template for representation of stored data. Two types of data can be stored: value and hash.">
<polygon fill="#999999" stroke="#666666" points="176,-38 72,-38 72,0 176,0 176,-38"/>
<text text-anchor="start" x="80" y="-26.8" font-family="Helvetica,sans-Serif" font-size="9.00">__gnu_pbds::detail</text>
<text text-anchor="start" x="80" y="-16.8" font-family="Helvetica,sans-Serif" font-size="9.00">::stored_data&lt; _Tv,</text>
<text text-anchor="middle" x="124" y="-6.8" font-family="Helvetica,sans-Serif" font-size="9.00"> _Th, Store_Hash &gt;</text>
</a>
</g>
</g>
<!-- Node2 -->
<g id="Node000002" class="node">
<title>Node2</title>
<g id="a_Node000002"><a xlink:href="a13125.html" target="_top" xlink:title="Stored value.">
<polygon fill="white" stroke="#666666" points="116,-102 0,-102 0,-74 116,-74 116,-102"/>
<text text-anchor="start" x="8" y="-90.8" font-family="Helvetica,sans-Serif" font-size="9.00">__gnu_pbds::detail</text>
<text text-anchor="middle" x="58" y="-80.8" font-family="Helvetica,sans-Serif" font-size="9.00">::stored_value&lt; _Tv &gt;</text>
</a>
</g>
</g>
<!-- Node2&#45;&gt;Node1 -->
<g id="edge1_Node000001_Node000002" class="edge">
<title>Node2&#45;&gt;Node1</title>
<g id="a_edge1_Node000001_Node000002"><a xlink:title=" ">
<path fill="none" stroke="#63b8ff" d="M78.14,-66.55C87.11,-57.45 97.57,-46.83 106.24,-38.03"/>
<polygon fill="#63b8ff" stroke="#63b8ff" points="75.56,-64.18 71.04,-73.76 80.55,-69.1 75.56,-64.18"/>
</a>
</g>
</g>
<!-- Node3 -->
<g id="Node000003" class="node">
<title>Node3</title>
<g id="a_Node000003"><a xlink:href="a13129.html" target="_top" xlink:title="Stored hash.">
<polygon fill="white" stroke="#666666" points="248,-102 134,-102 134,-74 248,-74 248,-102"/>
<text text-anchor="start" x="142" y="-90.8" font-family="Helvetica,sans-Serif" font-size="9.00">__gnu_pbds::detail</text>
<text text-anchor="middle" x="191" y="-80.8" font-family="Helvetica,sans-Serif" font-size="9.00">::stored_hash&lt; _Th &gt;</text>
</a>
</g>
</g>
<!-- Node3&#45;&gt;Node1 -->
<g id="edge2_Node000001_Node000003" class="edge">
<title>Node3&#45;&gt;Node1</title>
<g id="a_edge2_Node000001_Node000003"><a xlink:title=" ">
<path fill="none" stroke="#63b8ff" d="M170.55,-66.55C161.45,-57.45 150.83,-46.83 142.03,-38.03"/>
<polygon fill="#63b8ff" stroke="#63b8ff" points="168.22,-69.17 177.76,-73.76 173.17,-64.22 168.22,-69.17"/>
</a>
</g>
</g>
</g>
</svg>
