<?xml version="1.0" encoding="UTF-8" standalone="no"?>
<!DOCTYPE svg PUBLIC "-//W3C//DTD SVG 1.1//EN"
 "http://www.w3.org/Graphics/SVG/1.1/DTD/svg11.dtd">
<!-- Generated by graphviz version 2.43.0 (0)
 -->
<!-- Title: __gnu_pbds::detail::binomial_heap_base&lt; Value_Type, Cmp_Fn, _Alloc &gt; Pages: 1 -->
<svg width="477pt" height="112pt"
 viewBox="0.00 0.00 477.00 112.00" xmlns="http://www.w3.org/2000/svg" xmlns:xlink="http://www.w3.org/1999/xlink">
<g id="graph0" class="graph" transform="scale(1 1) rotate(0) translate(4 108)">
<title>__gnu_pbds::detail::binomial_heap_base&lt; Value_Type, Cmp_Fn, _Alloc &gt;</title>
<!-- Node1 -->
<g id="Node000001" class="node">
<title>Node1</title>
<g id="a_Node000001"><a xlink:title="Base class for binomial heap.">
<polygon fill="#999999" stroke="#666666" points="307,-78 185,-78 185,-30 307,-30 307,-78"/>
<text text-anchor="start" x="193" y="-66.8" font-family="Helvetica,sans-Serif" font-size="9.00">__gnu_pbds::detail</text>
<text text-anchor="start" x="193" y="-56.8" font-family="Helvetica,sans-Serif" font-size="9.00">::binomial_heap_base</text>
<text text-anchor="start" x="193" y="-46.8" font-family="Helvetica,sans-Serif" font-size="9.00">&lt; Value_Type, Cmp_Fn,</text>
<text text-anchor="middle" x="246" y="-36.8" font-family="Helvetica,sans-Serif" font-size="9.00"> _Alloc &gt;</text>
</a>
</g>
</g>
<!-- Node3 -->
<g id="Node000003" class="node">
<title>Node3</title>
<g id="a_Node000003"><a xlink:href="a13213.html" target="_top" xlink:title=" ">
<polygon fill="white" stroke="#666666" points="469,-104 343,-104 343,-66 469,-66 469,-104"/>
<text text-anchor="start" x="351" y="-92.8" font-family="Helvetica,sans-Serif" font-size="9.00">__gnu_pbds::detail</text>
<text text-anchor="start" x="351" y="-82.8" font-family="Helvetica,sans-Serif" font-size="9.00">::binomial_heap&lt; Value</text>
<text text-anchor="middle" x="406" y="-72.8" font-family="Helvetica,sans-Serif" font-size="9.00">_Type, Cmp_Fn, _Alloc &gt;</text>
</a>
</g>
</g>
<!-- Node1&#45;&gt;Node3 -->
<g id="edge2_Node000001_Node000003" class="edge">
<title>Node1&#45;&gt;Node3</title>
<g id="a_edge2_Node000001_Node000003"><a xlink:title=" ">
<path fill="none" stroke="#63b8ff" d="M317.16,-67.77C325.73,-69.45 334.44,-71.16 342.89,-72.81"/>
<polygon fill="#63b8ff" stroke="#63b8ff" points="317.67,-64.3 307.18,-65.81 316.32,-71.17 317.67,-64.3"/>
</a>
</g>
</g>
<!-- Node4 -->
<g id="Node000004" class="node">
<title>Node4</title>
<g id="a_Node000004"><a xlink:href="a13541.html" target="_top" xlink:title=" ">
<polygon fill="white" stroke="#666666" points="463,-48 349,-48 349,0 463,0 463,-48"/>
<text text-anchor="start" x="357" y="-36.8" font-family="Helvetica,sans-Serif" font-size="9.00">__gnu_pbds::detail</text>
<text text-anchor="start" x="357" y="-26.8" font-family="Helvetica,sans-Serif" font-size="9.00">::rc_binomial_heap&lt;</text>
<text text-anchor="start" x="357" y="-16.8" font-family="Helvetica,sans-Serif" font-size="9.00"> Value_Type, Cmp_Fn,</text>
<text text-anchor="middle" x="406" y="-6.8" font-family="Helvetica,sans-Serif" font-size="9.00"> _Alloc &gt;</text>
</a>
</g>
</g>
<!-- Node1&#45;&gt;Node4 -->
<g id="edge3_Node000001_Node000004" class="edge">
<title>Node1&#45;&gt;Node4</title>
<g id="a_edge3_Node000001_Node000004"><a xlink:title=" ">
<path fill="none" stroke="#63b8ff" d="M317.25,-40.66C327.84,-38.65 338.64,-36.6 348.88,-34.66"/>
<polygon fill="#63b8ff" stroke="#63b8ff" points="316.36,-37.27 307.18,-42.57 317.66,-44.15 316.36,-37.27"/>
</a>
</g>
</g>
<!-- Node2 -->
<g id="Node000002" class="node">
<title>Node2</title>
<g id="a_Node000002"><a xlink:href="a13369.html" target="_top" xlink:title=" ">
<polygon fill="white" stroke="#666666" points="149,-78 0,-78 0,-30 149,-30 149,-78"/>
<text text-anchor="start" x="8" y="-66.8" font-family="Helvetica,sans-Serif" font-size="9.00">__gnu_pbds::detail</text>
<text text-anchor="start" x="8" y="-56.8" font-family="Helvetica,sans-Serif" font-size="9.00">::left_child_next_sibling</text>
<text text-anchor="start" x="8" y="-46.8" font-family="Helvetica,sans-Serif" font-size="9.00">_heap&lt; Value_Type, Cmp_Fn,</text>
<text text-anchor="middle" x="74.5" y="-36.8" font-family="Helvetica,sans-Serif" font-size="9.00"> _Alloc::size_type, _Alloc &gt;</text>
</a>
</g>
</g>
<!-- Node2&#45;&gt;Node1 -->
<g id="edge1_Node000001_Node000002" class="edge">
<title>Node2&#45;&gt;Node1</title>
<g id="a_edge1_Node000001_Node000002"><a xlink:title=" ">
<path fill="none" stroke="#63b8ff" d="M159.41,-54C168,-54 176.6,-54 184.87,-54"/>
<polygon fill="#63b8ff" stroke="#63b8ff" points="159.35,-50.5 149.35,-54 159.35,-57.5 159.35,-50.5"/>
</a>
</g>
</g>
</g>
</svg>
