<?xml version="1.0" encoding="UTF-8" standalone="no"?>
<!DOCTYPE svg PUBLIC "-//W3C//DTD SVG 1.1//EN"
 "http://www.w3.org/Graphics/SVG/1.1/DTD/svg11.dtd">
<!-- Generated by graphviz version 2.43.0 (0)
 -->
<!-- Title: __gnu_pbds::detail::gp_ht_map&lt; Key, Mapped, Hash_Fn, Eq_Fn, _Alloc, Store_Hash, Comb_Probe_Fn, Probe_Fn, Resize_Policy &gt; Pages: 1 -->
<svg width="539pt" height="178pt"
 viewBox="0.00 0.00 539.00 178.00" xmlns="http://www.w3.org/2000/svg" xmlns:xlink="http://www.w3.org/1999/xlink">
<g id="graph0" class="graph" transform="scale(1 1) rotate(0) translate(4 174)">
<title>__gnu_pbds::detail::gp_ht_map&lt; Key, Mapped, Hash_Fn, Eq_Fn, _Alloc, Store_Hash, Comb_Probe_Fn, Probe_Fn, Resize_Policy &gt;</title>
<!-- Node1 -->
<g id="Node000001" class="node">
<title>Node1</title>
<g id="a_Node000001"><a xlink:title=" ">
<polygon fill="#999999" stroke="#666666" points="531,-119 377,-119 377,-61 531,-61 531,-119"/>
<text text-anchor="start" x="385" y="-107.8" font-family="Helvetica,sans-Serif" font-size="9.00">__gnu_pbds::detail</text>
<text text-anchor="start" x="385" y="-97.8" font-family="Helvetica,sans-Serif" font-size="9.00">::gp_ht_map&lt; Key, Mapped,</text>
<text text-anchor="start" x="385" y="-87.8" font-family="Helvetica,sans-Serif" font-size="9.00"> Hash_Fn, Eq_Fn, _Alloc,</text>
<text text-anchor="start" x="385" y="-77.8" font-family="Helvetica,sans-Serif" font-size="9.00"> Store_Hash, Comb_Probe</text>
<text text-anchor="middle" x="454" y="-67.8" font-family="Helvetica,sans-Serif" font-size="9.00">_Fn, Probe_Fn, Resize_Policy &gt;</text>
</a>
</g>
</g>
<!-- Node2 -->
<g id="Node000002" class="node">
<title>Node2</title>
<g id="a_Node000002"><a xlink:href="a13281.html" target="_top" xlink:title="Primary template.">
<polygon fill="white" stroke="#666666" points="318,-170 187,-170 187,-132 318,-132 318,-170"/>
<text text-anchor="start" x="195" y="-158.8" font-family="Helvetica,sans-Serif" font-size="9.00">__gnu_pbds::detail</text>
<text text-anchor="start" x="195" y="-148.8" font-family="Helvetica,sans-Serif" font-size="9.00">::hash_eq_fn&lt; Key, Eq</text>
<text text-anchor="middle" x="252.5" y="-138.8" font-family="Helvetica,sans-Serif" font-size="9.00">_Fn, _Alloc, Store_Hash &gt;</text>
</a>
</g>
</g>
<!-- Node2&#45;&gt;Node1 -->
<g id="edge1_Node000001_Node000002" class="edge">
<title>Node2&#45;&gt;Node1</title>
<g id="a_edge1_Node000001_Node000002"><a xlink:title=" ">
<path fill="none" stroke="#63b8ff" d="M325.47,-128.99C342.15,-123.9 359.94,-118.45 376.79,-113.3"/>
<polygon fill="#63b8ff" stroke="#63b8ff" points="324.34,-125.68 315.8,-131.95 326.39,-132.37 324.34,-125.68"/>
</a>
</g>
</g>
<!-- Node3 -->
<g id="Node000003" class="node">
<title>Node3</title>
<g id="a_Node000003"><a xlink:href="a13333.html" target="_top" xlink:title="Primary template.">
<polygon fill="white" stroke="#666666" points="341,-114 164,-114 164,-66 341,-66 341,-114"/>
<text text-anchor="start" x="172" y="-102.8" font-family="Helvetica,sans-Serif" font-size="9.00">__gnu_pbds::detail</text>
<text text-anchor="start" x="172" y="-92.8" font-family="Helvetica,sans-Serif" font-size="9.00">::ranged_probe_fn&lt; Key,</text>
<text text-anchor="start" x="172" y="-82.8" font-family="Helvetica,sans-Serif" font-size="9.00"> Hash_Fn, _Alloc, Comb</text>
<text text-anchor="middle" x="252.5" y="-72.8" font-family="Helvetica,sans-Serif" font-size="9.00">_Probe_Fn, Probe_Fn, Store_Hash &gt;</text>
</a>
</g>
</g>
<!-- Node3&#45;&gt;Node1 -->
<g id="edge2_Node000001_Node000003" class="edge">
<title>Node3&#45;&gt;Node1</title>
<g id="a_edge2_Node000001_Node000003"><a xlink:title=" ">
<path fill="none" stroke="#63b8ff" d="M351.11,-90C359.75,-90 368.41,-90 376.82,-90"/>
<polygon fill="#63b8ff" stroke="#63b8ff" points="351,-86.5 341,-90 351,-93.5 351,-86.5"/>
</a>
</g>
</g>
<!-- Node4 -->
<g id="Node000004" class="node">
<title>Node4</title>
<g id="a_Node000004"><a xlink:href="a13161.html" target="_top" xlink:title="Traits for abstract types.">
<polygon fill="white" stroke="#666666" points="311,-48 194,-48 194,0 311,0 311,-48"/>
<text text-anchor="start" x="202" y="-36.8" font-family="Helvetica,sans-Serif" font-size="9.00">__gnu_pbds::detail</text>
<text text-anchor="start" x="202" y="-26.8" font-family="Helvetica,sans-Serif" font-size="9.00">::types_traits&lt; Key,</text>
<text text-anchor="start" x="202" y="-16.8" font-family="Helvetica,sans-Serif" font-size="9.00"> Mapped, _Alloc, Store</text>
<text text-anchor="middle" x="252.5" y="-6.8" font-family="Helvetica,sans-Serif" font-size="9.00">_Hash &gt;</text>
</a>
</g>
</g>
<!-- Node4&#45;&gt;Node1 -->
<g id="edge3_Node000001_Node000004" class="edge">
<title>Node4&#45;&gt;Node1</title>
<g id="a_edge3_Node000001_Node000004"><a xlink:title=" ">
<path fill="none" stroke="#63b8ff" d="M321,-46.33C338.95,-52.27 358.47,-58.73 376.85,-64.81"/>
<polygon fill="#63b8ff" stroke="#63b8ff" points="321.8,-42.91 311.2,-43.09 319.6,-49.55 321.8,-42.91"/>
</a>
</g>
</g>
<!-- Node5 -->
<g id="Node000005" class="node">
<title>Node5</title>
<g id="a_Node000005"><a xlink:href="a13149.html" target="_top" xlink:title="Base class for conditionally defining a static data member.">
<polygon fill="white" stroke="#666666" points="128,-48 0,-48 0,0 128,0 128,-48"/>
<text text-anchor="start" x="8" y="-36.8" font-family="Helvetica,sans-Serif" font-size="9.00">__gnu_pbds::detail</text>
<text text-anchor="start" x="8" y="-26.8" font-family="Helvetica,sans-Serif" font-size="9.00">::maybe_null_type&lt; Key,</text>
<text text-anchor="start" x="8" y="-16.8" font-family="Helvetica,sans-Serif" font-size="9.00"> Mapped, _Alloc, Store</text>
<text text-anchor="middle" x="64" y="-6.8" font-family="Helvetica,sans-Serif" font-size="9.00">_Hash &gt;</text>
</a>
</g>
</g>
<!-- Node5&#45;&gt;Node4 -->
<g id="edge4_Node000004_Node000005" class="edge">
<title>Node5&#45;&gt;Node4</title>
<g id="a_edge4_Node000004_Node000005"><a xlink:title=" ">
<path fill="none" stroke="#63b8ff" d="M138.25,-24C156.68,-24 176.21,-24 193.76,-24"/>
<polygon fill="#63b8ff" stroke="#63b8ff" points="138.14,-20.5 128.14,-24 138.14,-27.5 138.14,-20.5"/>
</a>
</g>
</g>
</g>
</svg>
