<?xml version="1.0" encoding="UTF-8" standalone="no"?>
<!DOCTYPE svg PUBLIC "-//W3C//DTD SVG 1.1//EN"
 "http://www.w3.org/Graphics/SVG/1.1/DTD/svg11.dtd">
<!-- Generated by graphviz version 2.43.0 (0)
 -->
<!-- Title: __gnu_pbds::detail::branch_policy&lt; Node_CItr, Node_Itr, _Alloc &gt; Pages: 1 -->
<svg width="496pt" height="155pt"
 viewBox="0.00 0.00 496.00 155.00" xmlns="http://www.w3.org/2000/svg" xmlns:xlink="http://www.w3.org/1999/xlink">
<g id="graph0" class="graph" transform="scale(1 1) rotate(0) translate(4 151)">
<title>__gnu_pbds::detail::branch_policy&lt; Node_CItr, Node_Itr, _Alloc &gt;</title>
<!-- Node1 -->
<g id="Node000001" class="node">
<title>Node1</title>
<g id="a_Node000001"><a xlink:title="Primary template, base class for branch structure policies.">
<polygon fill="#999999" stroke="#666666" points="124,-76 0,-76 0,-38 124,-38 124,-76"/>
<text text-anchor="start" x="8" y="-64.8" font-family="Helvetica,sans-Serif" font-size="9.00">__gnu_pbds::detail</text>
<text text-anchor="start" x="8" y="-54.8" font-family="Helvetica,sans-Serif" font-size="9.00">::branch_policy&lt; Node</text>
<text text-anchor="middle" x="62" y="-44.8" font-family="Helvetica,sans-Serif" font-size="9.00">_CItr, Node_Itr, _Alloc &gt;</text>
</a>
</g>
</g>
<!-- Node2 -->
<g id="Node000002" class="node">
<title>Node2</title>
<g id="a_Node000002"><a xlink:href="a13637.html" target="_top" xlink:title="Base class for trie policies.">
<polygon fill="white" stroke="#666666" points="287,-114 176,-114 176,-66 287,-66 287,-114"/>
<text text-anchor="start" x="184" y="-102.8" font-family="Helvetica,sans-Serif" font-size="9.00">__gnu_pbds::detail</text>
<text text-anchor="start" x="184" y="-92.8" font-family="Helvetica,sans-Serif" font-size="9.00">::trie_policy_base&lt;</text>
<text text-anchor="start" x="184" y="-82.8" font-family="Helvetica,sans-Serif" font-size="9.00"> Node_CItr, Node_Itr,</text>
<text text-anchor="middle" x="231.5" y="-72.8" font-family="Helvetica,sans-Serif" font-size="9.00"> _ATraits, _Alloc &gt;</text>
</a>
</g>
</g>
<!-- Node1&#45;&gt;Node2 -->
<g id="edge1_Node000001_Node000002" class="edge">
<title>Node1&#45;&gt;Node2</title>
<g id="a_edge1_Node000001_Node000002"><a xlink:title=" ">
<path fill="none" stroke="#63b8ff" d="M134.39,-71.07C148.23,-73.79 162.53,-76.61 175.73,-79.21"/>
<polygon fill="#63b8ff" stroke="#63b8ff" points="134.91,-67.6 124.42,-69.1 133.55,-74.47 134.91,-67.6"/>
</a>
</g>
</g>
<!-- Node5 -->
<g id="Node000005" class="node">
<title>Node5</title>
<g id="a_Node000005"><a xlink:href="a12961.html" target="_top" xlink:title="Functor updating ranks of entrees.">
<polygon fill="white" stroke="#666666" points="303,-48 160,-48 160,0 303,0 303,-48"/>
<text text-anchor="start" x="168" y="-36.8" font-family="Helvetica,sans-Serif" font-size="9.00">__gnu_pbds::tree_order</text>
<text text-anchor="start" x="168" y="-26.8" font-family="Helvetica,sans-Serif" font-size="9.00">_statistics_node_update</text>
<text text-anchor="start" x="168" y="-16.8" font-family="Helvetica,sans-Serif" font-size="9.00">&lt; Node_CItr, Node_Itr, Cmp</text>
<text text-anchor="middle" x="231.5" y="-6.8" font-family="Helvetica,sans-Serif" font-size="9.00">_Fn, _Alloc &gt;</text>
</a>
</g>
</g>
<!-- Node1&#45;&gt;Node5 -->
<g id="edge4_Node000001_Node000005" class="edge">
<title>Node1&#45;&gt;Node5</title>
<g id="a_edge4_Node000001_Node000005"><a xlink:title=" ">
<path fill="none" stroke="#8b1a1a" d="M134.23,-42.97C142.68,-41.3 151.29,-39.6 159.73,-37.94"/>
<polygon fill="#8b1a1a" stroke="#8b1a1a" points="133.55,-39.53 124.42,-44.9 134.91,-46.4 133.55,-39.53"/>
</a>
</g>
</g>
<!-- Node3 -->
<g id="Node000003" class="node">
<title>Node3</title>
<g id="a_Node000003"><a xlink:href="a12973.html" target="_top" xlink:title="Functor updating ranks of entrees.">
<polygon fill="white" stroke="#666666" points="476,-147 351,-147 351,-99 476,-99 476,-147"/>
<text text-anchor="start" x="359" y="-135.8" font-family="Helvetica,sans-Serif" font-size="9.00">__gnu_pbds::trie_order</text>
<text text-anchor="start" x="359" y="-125.8" font-family="Helvetica,sans-Serif" font-size="9.00">_statistics_node_update</text>
<text text-anchor="start" x="359" y="-115.8" font-family="Helvetica,sans-Serif" font-size="9.00">&lt; Node_CItr, Node_Itr, </text>
<text text-anchor="middle" x="413.5" y="-105.8" font-family="Helvetica,sans-Serif" font-size="9.00">_ATraits, _Alloc &gt;</text>
</a>
</g>
</g>
<!-- Node2&#45;&gt;Node3 -->
<g id="edge2_Node000002_Node000003" class="edge">
<title>Node2&#45;&gt;Node3</title>
<g id="a_edge2_Node000002_Node000003"><a xlink:title=" ">
<path fill="none" stroke="#8b1a1a" d="M297.56,-101.93C314.96,-105.12 333.73,-108.56 350.94,-111.71"/>
<polygon fill="#8b1a1a" stroke="#8b1a1a" points="297.95,-98.44 287.48,-100.08 296.69,-105.33 297.95,-98.44"/>
</a>
</g>
</g>
<!-- Node4 -->
<g id="Node000004" class="node">
<title>Node4</title>
<g id="a_Node000004"><a xlink:href="a12969.html" target="_top" xlink:title="A node updator that allows tries to be searched for the range of values that match a certain prefix.">
<polygon fill="white" stroke="#666666" points="488,-81 339,-81 339,-33 488,-33 488,-81"/>
<text text-anchor="start" x="347" y="-69.8" font-family="Helvetica,sans-Serif" font-size="9.00">__gnu_pbds::trie_prefix</text>
<text text-anchor="start" x="347" y="-59.8" font-family="Helvetica,sans-Serif" font-size="9.00">_search_node_update&lt; Node</text>
<text text-anchor="start" x="347" y="-49.8" font-family="Helvetica,sans-Serif" font-size="9.00">_CItr, Node_Itr, _ATraits,</text>
<text text-anchor="middle" x="413.5" y="-39.8" font-family="Helvetica,sans-Serif" font-size="9.00"> _Alloc &gt;</text>
</a>
</g>
</g>
<!-- Node2&#45;&gt;Node4 -->
<g id="edge3_Node000002_Node000004" class="edge">
<title>Node2&#45;&gt;Node4</title>
<g id="a_edge3_Node000002_Node000004"><a xlink:title=" ">
<path fill="none" stroke="#8b1a1a" d="M297.58,-78.07C311.01,-75.61 325.24,-73 338.95,-70.48"/>
<polygon fill="#8b1a1a" stroke="#8b1a1a" points="296.69,-74.67 287.48,-79.92 297.95,-81.56 296.69,-74.67"/>
</a>
</g>
</g>
</g>
</svg>
