<?xml version="1.0" encoding="UTF-8" standalone="no"?>
<!DOCTYPE svg PUBLIC "-//W3C//DTD SVG 1.1//EN"
 "http://www.w3.org/Graphics/SVG/1.1/DTD/svg11.dtd">
<!-- Generated by graphviz version 2.43.0 (0)
 -->
<!-- Title: __gnu_pbds::detail::pat_trie_map&lt; Key, Mapped, Node_And_It_Traits, _Alloc &gt; Pages: 1 -->
<svg width="451pt" height="97pt"
 viewBox="0.00 0.00 451.00 97.00" xmlns="http://www.w3.org/2000/svg" xmlns:xlink="http://www.w3.org/1999/xlink">
<g id="graph0" class="graph" transform="scale(1 1) rotate(0) translate(4 93)">
<title>__gnu_pbds::detail::pat_trie_map&lt; Key, Mapped, Node_And_It_Traits, _Alloc &gt;</title>
<!-- Node1 -->
<g id="Node000001" class="node">
<title>Node1</title>
<g id="a_Node000001"><a xlink:title="PATRICIA trie.">
<polygon fill="#999999" stroke="#666666" points="443,-63 324,-63 324,-15 443,-15 443,-63"/>
<text text-anchor="start" x="332" y="-51.8" font-family="Helvetica,sans-Serif" font-size="9.00">__gnu_pbds::detail</text>
<text text-anchor="start" x="332" y="-41.8" font-family="Helvetica,sans-Serif" font-size="9.00">::pat_trie_map&lt; Key,</text>
<text text-anchor="start" x="332" y="-31.8" font-family="Helvetica,sans-Serif" font-size="9.00"> Mapped, Node_And_It</text>
<text text-anchor="middle" x="383.5" y="-21.8" font-family="Helvetica,sans-Serif" font-size="9.00">_Traits, _Alloc &gt;</text>
</a>
</g>
</g>
<!-- Node2 -->
<g id="Node000002" class="node">
<title>Node2</title>
<g id="a_Node000002"><a xlink:href="a13161.html" target="_top" xlink:title=" ">
<polygon fill="white" stroke="#666666" points="288,-84 164,-84 164,-46 288,-46 288,-84"/>
<text text-anchor="start" x="172" y="-72.8" font-family="Helvetica,sans-Serif" font-size="9.00">__gnu_pbds::detail</text>
<text text-anchor="start" x="172" y="-62.8" font-family="Helvetica,sans-Serif" font-size="9.00">::types_traits&lt; Key,</text>
<text text-anchor="middle" x="226" y="-52.8" font-family="Helvetica,sans-Serif" font-size="9.00"> Mapped, _Alloc, false &gt;</text>
</a>
</g>
</g>
<!-- Node2&#45;&gt;Node1 -->
<g id="edge1_Node000001_Node000002" class="edge">
<title>Node2&#45;&gt;Node1</title>
<g id="a_edge1_Node000001_Node000002"><a xlink:title=" ">
<path fill="none" stroke="#63b8ff" d="M298.09,-53.11C306.75,-51.67 315.51,-50.2 323.95,-48.79"/>
<polygon fill="#63b8ff" stroke="#63b8ff" points="297.3,-49.7 288.01,-54.8 298.45,-56.6 297.3,-49.7"/>
</a>
</g>
</g>
<!-- Node3 -->
<g id="Node000003" class="node">
<title>Node3</title>
<g id="a_Node000003"><a xlink:href="a13149.html" target="_top" xlink:title="Base class for conditionally defining a static data member.">
<polygon fill="white" stroke="#666666" points="128,-89 0,-89 0,-41 128,-41 128,-89"/>
<text text-anchor="start" x="8" y="-77.8" font-family="Helvetica,sans-Serif" font-size="9.00">__gnu_pbds::detail</text>
<text text-anchor="start" x="8" y="-67.8" font-family="Helvetica,sans-Serif" font-size="9.00">::maybe_null_type&lt; Key,</text>
<text text-anchor="start" x="8" y="-57.8" font-family="Helvetica,sans-Serif" font-size="9.00"> Mapped, _Alloc, Store</text>
<text text-anchor="middle" x="64" y="-47.8" font-family="Helvetica,sans-Serif" font-size="9.00">_Hash &gt;</text>
</a>
</g>
</g>
<!-- Node3&#45;&gt;Node2 -->
<g id="edge2_Node000002_Node000003" class="edge">
<title>Node3&#45;&gt;Node2</title>
<g id="a_edge2_Node000002_Node000003"><a xlink:title=" ">
<path fill="none" stroke="#63b8ff" d="M138.49,-65C146.95,-65 155.51,-65 163.79,-65"/>
<polygon fill="#63b8ff" stroke="#63b8ff" points="138.24,-61.5 128.24,-65 138.24,-68.5 138.24,-61.5"/>
</a>
</g>
</g>
<!-- Node4 -->
<g id="Node000004" class="node">
<title>Node4</title>
<g id="a_Node000004"><a xlink:href="a13453.html" target="_top" xlink:title="Base type for PATRICIA trees.">
<polygon fill="white" stroke="#666666" points="276.5,-28 175.5,-28 175.5,0 276.5,0 276.5,-28"/>
<text text-anchor="start" x="183.5" y="-16.8" font-family="Helvetica,sans-Serif" font-size="9.00">__gnu_pbds::detail</text>
<text text-anchor="middle" x="226" y="-6.8" font-family="Helvetica,sans-Serif" font-size="9.00">::pat_trie_base</text>
</a>
</g>
</g>
<!-- Node4&#45;&gt;Node1 -->
<g id="edge3_Node000001_Node000004" class="edge">
<title>Node4&#45;&gt;Node1</title>
<g id="a_edge3_Node000001_Node000004"><a xlink:title=" ">
<path fill="none" stroke="#63b8ff" d="M286.69,-23.6C298.88,-25.56 311.69,-27.62 323.84,-29.57"/>
<polygon fill="#63b8ff" stroke="#63b8ff" points="287.06,-20.11 276.63,-21.98 285.95,-27.02 287.06,-20.11"/>
</a>
</g>
</g>
</g>
</svg>
