<?xml version="1.0" encoding="UTF-8" standalone="no"?>
<!DOCTYPE svg PUBLIC "-//W3C//DTD SVG 1.1//EN"
 "http://www.w3.org/Graphics/SVG/1.1/DTD/svg11.dtd">
<!-- Generated by graphviz version 2.43.0 (0)
 -->
<!-- Title: Graph Legend Pages: 1 -->
<svg width="516pt" height="154pt"
 viewBox="0.00 0.00 516.00 154.00" xmlns="http://www.w3.org/2000/svg" xmlns:xlink="http://www.w3.org/1999/xlink">
<g id="graph0" class="graph" transform="scale(1 1) rotate(0) translate(4 150)">
<title>Graph Legend</title>
<!-- Node9 -->
<g id="Node000009" class="node">
<title>Node9</title>
<g id="a_Node000009"><a xlink:title=" ">
<polygon fill="#999999" stroke="#666666" points="293.5,-18 235.5,-18 235.5,0 293.5,0 293.5,-18"/>
<text text-anchor="middle" x="264.5" y="-6.8" font-family="Helvetica,sans-Serif" font-size="9.00">Inherited</text>
</a>
</g>
</g>
<!-- Node10 -->
<g id="Node000010" class="node">
<title>Node10</title>
<g id="a_Node000010"><a xlink:title=" ">
<polygon fill="white" stroke="#666666" points="65,-82 0,-82 0,-64 65,-64 65,-82"/>
<text text-anchor="middle" x="32.5" y="-70.8" font-family="Helvetica,sans-Serif" font-size="9.00">PublicBase</text>
</a>
</g>
</g>
<!-- Node10&#45;&gt;Node9 -->
<g id="edge1" class="edge">
<title>Node10&#45;&gt;Node9</title>
<g id="a_edge1"><a xlink:title=" ">
<path fill="none" stroke="#63b8ff" d="M72.54,-61.3C118.88,-48.92 194.09,-28.82 235.26,-17.81"/>
<polygon fill="#63b8ff" stroke="#63b8ff" points="71.59,-57.93 62.83,-63.89 73.39,-64.69 71.59,-57.93"/>
</a>
</g>
</g>
<!-- Node11 -->
<g id="Node000011" class="node">
<title>Node11</title>
<g id="a_Node000011"><a xlink:title=" ">
<polygon fill="#fff0f0" stroke="red" points="63.5,-146 1.5,-146 1.5,-128 63.5,-128 63.5,-146"/>
<text text-anchor="middle" x="32.5" y="-134.8" font-family="Helvetica,sans-Serif" font-size="9.00">Truncated</text>
</a>
</g>
</g>
<!-- Node11&#45;&gt;Node10 -->
<g id="edge2" class="edge">
<title>Node11&#45;&gt;Node10</title>
<g id="a_edge2"><a xlink:title=" ">
<path fill="none" stroke="#63b8ff" d="M32.5,-117.83C32.5,-106.08 32.5,-91.34 32.5,-82.31"/>
<polygon fill="#63b8ff" stroke="#63b8ff" points="29,-117.89 32.5,-127.89 36,-117.89 29,-117.89"/>
</a>
</g>
</g>
<!-- Node13 -->
<g id="node4" class="node">
<title>Node13</title>
<g id="a_node4"><a xlink:title=" ">
<polygon fill="white" stroke="#666666" points="164,-82 83,-82 83,-64 164,-64 164,-82"/>
<text text-anchor="middle" x="123.5" y="-70.8" font-family="Helvetica,sans-Serif" font-size="9.00">ProtectedBase</text>
</a>
</g>
</g>
<!-- Node13&#45;&gt;Node9 -->
<g id="edge3" class="edge">
<title>Node13&#45;&gt;Node9</title>
<g id="a_edge3"><a xlink:title=" ">
<path fill="none" stroke="darkgreen" d="M151.2,-59.82C179.26,-47.48 221.89,-28.74 246.06,-18.11"/>
<polygon fill="darkgreen" stroke="darkgreen" points="149.68,-56.67 141.93,-63.89 152.5,-63.07 149.68,-56.67"/>
</a>
</g>
</g>
<!-- Node14 -->
<g id="node5" class="node">
<title>Node14</title>
<g id="a_node5"><a xlink:title=" ">
<polygon fill="white" stroke="#666666" points="250.5,-82 182.5,-82 182.5,-64 250.5,-64 250.5,-82"/>
<text text-anchor="middle" x="216.5" y="-70.8" font-family="Helvetica,sans-Serif" font-size="9.00">PrivateBase</text>
</a>
</g>
</g>
<!-- Node14&#45;&gt;Node9 -->
<g id="edge4" class="edge">
<title>Node14&#45;&gt;Node9</title>
<g id="a_edge4"><a xlink:title=" ">
<path fill="none" stroke="#8b1a1a" d="M228.91,-55.97C238.24,-43.92 250.64,-27.9 258.07,-18.31"/>
<polygon fill="#8b1a1a" stroke="#8b1a1a" points="226.13,-53.84 222.78,-63.89 231.66,-58.13 226.13,-53.84"/>
</a>
</g>
</g>
<!-- Node15 -->
<g id="Node000015" class="node">
<title>Node15</title>
<g id="a_Node000015"><a xlink:title=" ">
<polygon fill="#e0e0e0" stroke="#999999" points="356,-82 269,-82 269,-64 356,-64 356,-82"/>
<text text-anchor="middle" x="312.5" y="-70.8" font-family="Helvetica,sans-Serif" font-size="9.00">Undocumented</text>
</a>
</g>
</g>
<!-- Node15&#45;&gt;Node9 -->
<g id="edge5" class="edge">
<title>Node15&#45;&gt;Node9</title>
<g id="a_edge5"><a xlink:title=" ">
<path fill="none" stroke="#63b8ff" d="M300.09,-55.97C290.76,-43.92 278.36,-27.9 270.93,-18.31"/>
<polygon fill="#63b8ff" stroke="#63b8ff" points="297.34,-58.13 306.22,-63.89 302.87,-53.84 297.34,-58.13"/>
</a>
</g>
</g>
<!-- Node16 -->
<g id="node7" class="node">
<title>Node16</title>
<g id="a_node7"><a xlink:title=" ">
<polygon fill="white" stroke="#666666" points="450.5,-82 374.5,-82 374.5,-64 450.5,-64 450.5,-82"/>
<text text-anchor="middle" x="412.5" y="-70.8" font-family="Helvetica,sans-Serif" font-size="9.00">Templ&lt; int &gt;</text>
</a>
</g>
</g>
<!-- Node16&#45;&gt;Node9 -->
<g id="edge6" class="edge">
<title>Node16&#45;&gt;Node9</title>
<g id="a_edge6"><a xlink:title=" ">
<path fill="none" stroke="#63b8ff" d="M383.81,-59.98C354.36,-47.64 309.34,-28.78 283.85,-18.11"/>
<polygon fill="#63b8ff" stroke="#63b8ff" points="382.58,-63.26 393.15,-63.89 385.28,-56.8 382.58,-63.26"/>
</a>
</g>
</g>
<!-- Node17 -->
<g id="node8" class="node">
<title>Node17</title>
<g id="a_node8"><a xlink:title=" ">
<polygon fill="white" stroke="#666666" points="447,-146 378,-146 378,-128 447,-128 447,-146"/>
<text text-anchor="middle" x="412.5" y="-134.8" font-family="Helvetica,sans-Serif" font-size="9.00">Templ&lt; T &gt;</text>
</a>
</g>
</g>
<!-- Node17&#45;&gt;Node16 -->
<g id="edge7" class="edge">
<title>Node17&#45;&gt;Node16</title>
<g id="a_edge7"><a xlink:title=" ">
<path fill="none" stroke="orange" stroke-dasharray="5,2" d="M412.5,-117.83C412.5,-106.08 412.5,-91.34 412.5,-82.31"/>
<polygon fill="orange" stroke="orange" points="409,-117.89 412.5,-127.89 416,-117.89 409,-117.89"/>
</a>
</g>
<text text-anchor="middle" x="429.5" y="-102.8" font-family="Helvetica,sans-Serif" font-size="9.00" fill="grey">&lt; int &gt;</text>
</g>
<!-- Node18 -->
<g id="node9" class="node">
<title>Node18</title>
<g id="a_node9"><a xlink:title=" ">
<polygon fill="white" stroke="#666666" points="508,-82 469,-82 469,-64 508,-64 508,-82"/>
<text text-anchor="middle" x="488.5" y="-70.8" font-family="Helvetica,sans-Serif" font-size="9.00">Used</text>
</a>
</g>
</g>
<!-- Node18&#45;&gt;Node9 -->
<g id="edge8" class="edge">
<title>Node18&#45;&gt;Node9</title>
<g id="a_edge8"><a xlink:title=" ">
<path fill="none" stroke="#9a32cd" stroke-dasharray="5,2" d="M458.75,-63.77C415.7,-51.85 336.52,-29.93 293.75,-18.1"/>
<polygon fill="#9a32cd" stroke="#9a32cd" points="458.05,-67.2 468.62,-66.5 459.92,-60.46 458.05,-67.2"/>
</a>
</g>
<text text-anchor="middle" x="418.5" y="-38.8" font-family="Helvetica,sans-Serif" font-size="9.00" fill="grey">m_usedClass</text>
</g>
</g>
</svg>
