<?xml version="1.0" encoding="UTF-8" standalone="no"?>
<!DOCTYPE svg PUBLIC "-//W3C//DTD SVG 1.1//EN"
 "http://www.w3.org/Graphics/SVG/1.1/DTD/svg11.dtd">
<!-- Generated by graphviz version 2.43.0 (0)
 -->
<!-- Title: Graphical Class Hierarchy Pages: 1 -->
<svg width="485pt" height="137pt"
 viewBox="0.00 0.00 485.00 137.00" xmlns="http://www.w3.org/2000/svg" xmlns:xlink="http://www.w3.org/1999/xlink">
<g id="graph0" class="graph" transform="scale(1 1) rotate(0) translate(4 133)">
<title>Graphical Class Hierarchy</title>
<!-- Node0 -->
<g id="Node000000" class="node">
<title>Node0</title>
<g id="a_Node000000"><a xlink:href="a13369.html" target="_top" xlink:title=" ">
<polygon fill="white" stroke="#666666" points="149,-73 0,-73 0,-25 149,-25 149,-73"/>
<text text-anchor="start" x="8" y="-61.8" font-family="Helvetica,sans-Serif" font-size="9.00">__gnu_pbds::detail</text>
<text text-anchor="start" x="8" y="-51.8" font-family="Helvetica,sans-Serif" font-size="9.00">::left_child_next_sibling</text>
<text text-anchor="start" x="8" y="-41.8" font-family="Helvetica,sans-Serif" font-size="9.00">_heap&lt; Value_Type, Cmp_Fn,</text>
<text text-anchor="middle" x="74.5" y="-31.8" font-family="Helvetica,sans-Serif" font-size="9.00"> _Alloc::size_type, _Alloc &gt;</text>
</a>
</g>
</g>
<!-- Node1 -->
<g id="Node000001" class="node">
<title>Node1</title>
<g id="a_Node000001"><a xlink:href="a13217.html" target="_top" xlink:title="Base class for binomial heap.">
<polygon fill="white" stroke="#666666" points="311,-104 189,-104 189,-56 311,-56 311,-104"/>
<text text-anchor="start" x="197" y="-92.8" font-family="Helvetica,sans-Serif" font-size="9.00">__gnu_pbds::detail</text>
<text text-anchor="start" x="197" y="-82.8" font-family="Helvetica,sans-Serif" font-size="9.00">::binomial_heap_base</text>
<text text-anchor="start" x="197" y="-72.8" font-family="Helvetica,sans-Serif" font-size="9.00">&lt; Value_Type, Cmp_Fn,</text>
<text text-anchor="middle" x="250" y="-62.8" font-family="Helvetica,sans-Serif" font-size="9.00"> _Alloc &gt;</text>
</a>
</g>
</g>
<!-- Node0&#45;&gt;Node1 -->
<g id="edge137_Node000000_Node000001" class="edge">
<title>Node0&#45;&gt;Node1</title>
<g id="a_edge137_Node000000_Node000001"><a xlink:title=" ">
<path fill="none" stroke="#63b8ff" d="M159.11,-63.94C169.19,-65.74 179.32,-67.55 188.96,-69.27"/>
<polygon fill="#63b8ff" stroke="#63b8ff" points="159.54,-60.46 149.08,-62.15 158.31,-67.35 159.54,-60.46"/>
</a>
</g>
</g>
<!-- Node4 -->
<g id="Node000004" class="node">
<title>Node4</title>
<g id="a_Node000004"><a xlink:href="a13589.html" target="_top" xlink:title=" ">
<polygon fill="white" stroke="#666666" points="315,-38 185,-38 185,0 315,0 315,-38"/>
<text text-anchor="start" x="193" y="-26.8" font-family="Helvetica,sans-Serif" font-size="9.00">__gnu_pbds::detail</text>
<text text-anchor="start" x="193" y="-16.8" font-family="Helvetica,sans-Serif" font-size="9.00">::thin_heap&lt; Value_Type,</text>
<text text-anchor="middle" x="250" y="-6.8" font-family="Helvetica,sans-Serif" font-size="9.00"> Cmp_Fn, _Alloc &gt;</text>
</a>
</g>
</g>
<!-- Node0&#45;&gt;Node4 -->
<g id="edge140_Node000000_Node000004" class="edge">
<title>Node0&#45;&gt;Node4</title>
<g id="a_edge140_Node000000_Node000004"><a xlink:title=" ">
<path fill="none" stroke="#63b8ff" d="M159.19,-34.53C167.84,-33.03 176.53,-31.53 184.91,-30.08"/>
<polygon fill="#63b8ff" stroke="#63b8ff" points="158.34,-31.12 149.08,-36.28 159.53,-38.02 158.34,-31.12"/>
</a>
</g>
</g>
<!-- Node2 -->
<g id="Node000002" class="node">
<title>Node2</title>
<g id="a_Node000002"><a xlink:href="a13213.html" target="_top" xlink:title=" ">
<polygon fill="white" stroke="#666666" points="477,-129 351,-129 351,-91 477,-91 477,-129"/>
<text text-anchor="start" x="359" y="-117.8" font-family="Helvetica,sans-Serif" font-size="9.00">__gnu_pbds::detail</text>
<text text-anchor="start" x="359" y="-107.8" font-family="Helvetica,sans-Serif" font-size="9.00">::binomial_heap&lt; Value</text>
<text text-anchor="middle" x="414" y="-97.8" font-family="Helvetica,sans-Serif" font-size="9.00">_Type, Cmp_Fn, _Alloc &gt;</text>
</a>
</g>
</g>
<!-- Node1&#45;&gt;Node2 -->
<g id="edge138_Node000001_Node000002" class="edge">
<title>Node1&#45;&gt;Node2</title>
<g id="a_edge138_Node000001_Node000002"><a xlink:title=" ">
<path fill="none" stroke="#63b8ff" d="M321.4,-93.04C331.16,-94.84 341.13,-96.69 350.73,-98.47"/>
<polygon fill="#63b8ff" stroke="#63b8ff" points="321.79,-89.55 311.32,-91.17 320.52,-96.43 321.79,-89.55"/>
</a>
</g>
</g>
<!-- Node3 -->
<g id="Node000003" class="node">
<title>Node3</title>
<g id="a_Node000003"><a xlink:href="a13541.html" target="_top" xlink:title=" ">
<polygon fill="white" stroke="#666666" points="471,-73 357,-73 357,-25 471,-25 471,-73"/>
<text text-anchor="start" x="365" y="-61.8" font-family="Helvetica,sans-Serif" font-size="9.00">__gnu_pbds::detail</text>
<text text-anchor="start" x="365" y="-51.8" font-family="Helvetica,sans-Serif" font-size="9.00">::rc_binomial_heap&lt;</text>
<text text-anchor="start" x="365" y="-41.8" font-family="Helvetica,sans-Serif" font-size="9.00"> Value_Type, Cmp_Fn,</text>
<text text-anchor="middle" x="414" y="-31.8" font-family="Helvetica,sans-Serif" font-size="9.00"> _Alloc &gt;</text>
</a>
</g>
</g>
<!-- Node1&#45;&gt;Node3 -->
<g id="edge139_Node000001_Node000003" class="edge">
<title>Node1&#45;&gt;Node3</title>
<g id="a_edge139_Node000001_Node000003"><a xlink:title=" ">
<path fill="none" stroke="#63b8ff" d="M321.24,-66.56C333.17,-64.28 345.41,-61.93 356.92,-59.73"/>
<polygon fill="#63b8ff" stroke="#63b8ff" points="320.49,-63.14 311.32,-68.46 321.8,-70.01 320.49,-63.14"/>
</a>
</g>
</g>
</g>
</svg>
