<?xml version="1.0" encoding="UTF-8" standalone="no"?>
<!DOCTYPE svg PUBLIC "-//W3C//DTD SVG 1.1//EN"
 "http://www.w3.org/Graphics/SVG/1.1/DTD/svg11.dtd">
<!-- Generated by graphviz version 2.43.0 (0)
 -->
<!-- Title: Graphical Class Hierarchy Pages: 1 -->
<svg width="384pt" height="663pt"
 viewBox="0.00 0.00 384.00 663.00" xmlns="http://www.w3.org/2000/svg" xmlns:xlink="http://www.w3.org/1999/xlink">
<g id="graph0" class="graph" transform="scale(1 1) rotate(0) translate(4 659)">
<title>Graphical Class Hierarchy</title>
<!-- Node0 -->
<g id="Node000000" class="node">
<title>Node0</title>
<g id="a_Node000000"><a xlink:href="a09501.html" target="_top" xlink:title="Safe class dealing with some allocator dependent operations.">
<polygon fill="white" stroke="#666666" points="182,-359 0,-359 0,-311 182,-311 182,-359"/>
<text text-anchor="start" x="8" y="-347.8" font-family="Helvetica,sans-Serif" font-size="9.00">__gnu_debug::_Safe</text>
<text text-anchor="start" x="8" y="-337.8" font-family="Helvetica,sans-Serif" font-size="9.00">_container&lt; _SafeContainer,</text>
<text text-anchor="start" x="8" y="-327.8" font-family="Helvetica,sans-Serif" font-size="9.00"> _Alloc, _SafeBase, _IsCxx11Allocator</text>
<text text-anchor="middle" x="91" y="-317.8" font-family="Helvetica,sans-Serif" font-size="9.00">Aware &gt;</text>
</a>
</g>
</g>
<!-- Node1 -->
<g id="Node000001" class="node">
<title>Node1</title>
<g id="a_Node000001"><a xlink:href="a09633.html" target="_top" xlink:title="Class std::basic_string with safety/checking/debug instrumentation.">
<polygon fill="white" stroke="#666666" points="360,-655 234,-655 234,-617 360,-617 360,-655"/>
<text text-anchor="start" x="242" y="-643.8" font-family="Helvetica,sans-Serif" font-size="9.00">__gnu_debug::basic</text>
<text text-anchor="start" x="242" y="-633.8" font-family="Helvetica,sans-Serif" font-size="9.00">_string&lt; _CharT, _Traits,</text>
<text text-anchor="middle" x="297" y="-623.8" font-family="Helvetica,sans-Serif" font-size="9.00"> _Allocator &gt;</text>
</a>
</g>
</g>
<!-- Node0&#45;&gt;Node1 -->
<g id="edge21_Node000000_Node000001" class="edge">
<title>Node0&#45;&gt;Node1</title>
<g id="a_edge21_Node000000_Node000001"><a xlink:title=" ">
<path fill="none" stroke="#63b8ff" d="M98.77,-369.13C111.84,-426.37 145.88,-541.95 218,-608 222.67,-612.28 228.04,-615.91 233.73,-618.99"/>
<polygon fill="#63b8ff" stroke="#63b8ff" points="102.14,-368.15 96.56,-359.14 95.3,-369.66 102.14,-368.15"/>
</a>
</g>
</g>
<!-- Node3 -->
<g id="Node000003" class="node">
<title>Node3</title>
<g id="a_Node000003"><a xlink:href="a09585.html" target="_top" xlink:title="Class std::deque with safety/checking/debug instrumentation.">
<polygon fill="white" stroke="#666666" points="352,-599 242,-599 242,-571 352,-571 352,-599"/>
<text text-anchor="start" x="250" y="-587.8" font-family="Helvetica,sans-Serif" font-size="9.00">std::__debug::deque</text>
<text text-anchor="middle" x="297" y="-577.8" font-family="Helvetica,sans-Serif" font-size="9.00">&lt; _Tp, _Allocator &gt;</text>
</a>
</g>
</g>
<!-- Node0&#45;&gt;Node3 -->
<g id="edge22_Node000000_Node000003" class="edge">
<title>Node0&#45;&gt;Node3</title>
<g id="a_edge22_Node000000_Node000003"><a xlink:title=" ">
<path fill="none" stroke="#63b8ff" d="M101.7,-368.88C117.69,-418.61 154.32,-510.98 218,-562 224.94,-567.56 233.19,-571.78 241.68,-574.98"/>
<polygon fill="#63b8ff" stroke="#63b8ff" points="105.01,-367.73 98.69,-359.23 98.33,-369.82 105.01,-367.73"/>
</a>
</g>
</g>
<!-- Node4 -->
<g id="Node000004" class="node">
<title>Node4</title>
<g id="a_Node000004"><a xlink:href="a09593.html" target="_top" xlink:title="Class std::forward_list with safety/checking/debug instrumentation.">
<polygon fill="white" stroke="#666666" points="355,-553 239,-553 239,-525 355,-525 355,-553"/>
<text text-anchor="start" x="247" y="-541.8" font-family="Helvetica,sans-Serif" font-size="9.00">std::__debug::forward</text>
<text text-anchor="middle" x="297" y="-531.8" font-family="Helvetica,sans-Serif" font-size="9.00">_list&lt; _Tp, _Alloc &gt;</text>
</a>
</g>
</g>
<!-- Node0&#45;&gt;Node4 -->
<g id="edge23_Node000000_Node000004" class="edge">
<title>Node0&#45;&gt;Node4</title>
<g id="a_edge23_Node000000_Node000004"><a xlink:title=" ">
<path fill="none" stroke="#63b8ff" d="M106.63,-368.42C126.19,-409.23 164.67,-477.54 218,-516 224.3,-520.54 231.49,-524.19 238.9,-527.13"/>
<polygon fill="#63b8ff" stroke="#63b8ff" points="109.71,-366.74 102.3,-359.17 103.37,-369.71 109.71,-366.74"/>
</a>
</g>
</g>
<!-- Node5 -->
<g id="Node000005" class="node">
<title>Node5</title>
<g id="a_Node000005"><a xlink:href="a09617.html" target="_top" xlink:title="Class std::list with safety/checking/debug instrumentation.">
<polygon fill="white" stroke="#666666" points="348.5,-507 245.5,-507 245.5,-479 348.5,-479 348.5,-507"/>
<text text-anchor="start" x="253.5" y="-495.8" font-family="Helvetica,sans-Serif" font-size="9.00">std::__debug::list</text>
<text text-anchor="middle" x="297" y="-485.8" font-family="Helvetica,sans-Serif" font-size="9.00">&lt; _Tp, _Allocator &gt;</text>
</a>
</g>
</g>
<!-- Node0&#45;&gt;Node5 -->
<g id="edge24_Node000000_Node000005" class="edge">
<title>Node0&#45;&gt;Node5</title>
<g id="a_edge24_Node000000_Node000005"><a xlink:title=" ">
<path fill="none" stroke="#63b8ff" d="M114.25,-367.42C136.94,-398.12 174.87,-443.36 218,-470 226.29,-475.12 235.77,-479.15 245.21,-482.31"/>
<polygon fill="#63b8ff" stroke="#63b8ff" points="116.97,-365.21 108.27,-359.18 111.31,-369.33 116.97,-365.21"/>
</a>
</g>
</g>
<!-- Node6 -->
<g id="Node000006" class="node">
<title>Node6</title>
<g id="a_Node000006"><a xlink:href="a09469.html" target="_top" xlink:title="Class std::map with safety/checking/debug instrumentation.">
<polygon fill="white" stroke="#666666" points="355,-461 239,-461 239,-423 355,-423 355,-461"/>
<text text-anchor="start" x="247" y="-449.8" font-family="Helvetica,sans-Serif" font-size="9.00">std::__debug::map&lt;</text>
<text text-anchor="start" x="247" y="-439.8" font-family="Helvetica,sans-Serif" font-size="9.00"> _Key, _Tp, _Compare,</text>
<text text-anchor="middle" x="297" y="-429.8" font-family="Helvetica,sans-Serif" font-size="9.00"> _Allocator &gt;</text>
</a>
</g>
</g>
<!-- Node0&#45;&gt;Node6 -->
<g id="edge25_Node000000_Node000006" class="edge">
<title>Node0&#45;&gt;Node6</title>
<g id="a_edge25_Node000000_Node000006"><a xlink:title=" ">
<path fill="none" stroke="#63b8ff" d="M134.33,-364.76C158.19,-380.69 188.94,-399.88 218,-414 224.6,-417.21 231.67,-420.25 238.75,-423.06"/>
<polygon fill="#63b8ff" stroke="#63b8ff" points="136.12,-361.74 125.88,-359.05 132.21,-367.54 136.12,-361.74"/>
</a>
</g>
</g>
<!-- Node7 -->
<g id="Node000007" class="node">
<title>Node7</title>
<g id="a_Node000007"><a xlink:href="a09477.html" target="_top" xlink:title="Class std::multimap with safety/checking/debug instrumentation.">
<polygon fill="white" stroke="#666666" points="359.5,-405 234.5,-405 234.5,-367 359.5,-367 359.5,-405"/>
<text text-anchor="start" x="242.5" y="-393.8" font-family="Helvetica,sans-Serif" font-size="9.00">std::__debug::multimap</text>
<text text-anchor="start" x="242.5" y="-383.8" font-family="Helvetica,sans-Serif" font-size="9.00">&lt; _Key, _Tp, _Compare,</text>
<text text-anchor="middle" x="297" y="-373.8" font-family="Helvetica,sans-Serif" font-size="9.00"> _Allocator &gt;</text>
</a>
</g>
</g>
<!-- Node0&#45;&gt;Node7 -->
<g id="edge26_Node000000_Node000007" class="edge">
<title>Node0&#45;&gt;Node7</title>
<g id="a_edge26_Node000000_Node000007"><a xlink:title=" ">
<path fill="none" stroke="#63b8ff" d="M192.01,-360C206.41,-363.6 220.86,-367.21 234.21,-370.55"/>
<polygon fill="#63b8ff" stroke="#63b8ff" points="192.62,-356.55 182.07,-357.52 190.92,-363.34 192.62,-356.55"/>
</a>
</g>
</g>
<!-- Node8 -->
<g id="Node000008" class="node">
<title>Node8</title>
<g id="a_Node000008"><a xlink:href="a09485.html" target="_top" xlink:title="Class std::multiset with safety/checking/debug instrumentation.">
<polygon fill="white" stroke="#666666" points="376,-349 218,-349 218,-321 376,-321 376,-349"/>
<text text-anchor="start" x="226" y="-337.8" font-family="Helvetica,sans-Serif" font-size="9.00">std::__debug::multiset</text>
<text text-anchor="middle" x="297" y="-327.8" font-family="Helvetica,sans-Serif" font-size="9.00">&lt; _Key, _Compare, _Allocator &gt;</text>
</a>
</g>
</g>
<!-- Node0&#45;&gt;Node8 -->
<g id="edge27_Node000000_Node000008" class="edge">
<title>Node0&#45;&gt;Node8</title>
<g id="a_edge27_Node000000_Node000008"><a xlink:title=" ">
<path fill="none" stroke="#63b8ff" d="M192.2,-335C200.84,-335 209.5,-335 217.93,-335"/>
<polygon fill="#63b8ff" stroke="#63b8ff" points="192.07,-331.5 182.07,-335 192.07,-338.5 192.07,-331.5"/>
</a>
</g>
</g>
<!-- Node9 -->
<g id="Node000009" class="node">
<title>Node9</title>
<g id="a_Node000009"><a xlink:href="a09569.html" target="_top" xlink:title="Class std::set with safety/checking/debug instrumentation.">
<polygon fill="white" stroke="#666666" points="372.5,-303 221.5,-303 221.5,-275 372.5,-275 372.5,-303"/>
<text text-anchor="start" x="229.5" y="-291.8" font-family="Helvetica,sans-Serif" font-size="9.00">std::__debug::set&lt;</text>
<text text-anchor="middle" x="297" y="-281.8" font-family="Helvetica,sans-Serif" font-size="9.00"> _Key, _Compare, _Allocator &gt;</text>
</a>
</g>
</g>
<!-- Node0&#45;&gt;Node9 -->
<g id="edge28_Node000000_Node000009" class="edge">
<title>Node0&#45;&gt;Node9</title>
<g id="a_edge28_Node000000_Node000009"><a xlink:title=" ">
<path fill="none" stroke="#63b8ff" d="M191.95,-312.46C206.26,-309.24 220.62,-306 233.91,-303"/>
<polygon fill="#63b8ff" stroke="#63b8ff" points="191.06,-309.08 182.07,-314.69 192.6,-315.9 191.06,-309.08"/>
</a>
</g>
</g>
<!-- Node10 -->
<g id="Node000010" class="node">
<title>Node10</title>
<g id="a_Node000010"><a xlink:href="a09649.html" target="_top" xlink:title="Class std::unordered_map with safety/checking/debug instrumentation.">
<polygon fill="white" stroke="#666666" points="362,-257 232,-257 232,-219 362,-219 362,-257"/>
<text text-anchor="start" x="240" y="-245.8" font-family="Helvetica,sans-Serif" font-size="9.00">std::__debug::unordered</text>
<text text-anchor="start" x="240" y="-235.8" font-family="Helvetica,sans-Serif" font-size="9.00">_map&lt; _Key, _Tp, _Hash,</text>
<text text-anchor="middle" x="297" y="-225.8" font-family="Helvetica,sans-Serif" font-size="9.00"> _Pred, _Alloc &gt;</text>
</a>
</g>
</g>
<!-- Node0&#45;&gt;Node10 -->
<g id="edge29_Node000000_Node000010" class="edge">
<title>Node0&#45;&gt;Node10</title>
<g id="a_edge29_Node000000_Node000010"><a xlink:title=" ">
<path fill="none" stroke="#63b8ff" d="M140.9,-305.89C163.88,-292.83 191.9,-277.75 218,-266 224.82,-262.93 232.09,-259.95 239.34,-257.16"/>
<polygon fill="#63b8ff" stroke="#63b8ff" points="138.97,-302.97 132.04,-310.98 142.45,-309.04 138.97,-302.97"/>
</a>
</g>
</g>
<!-- Node11 -->
<g id="Node000011" class="node">
<title>Node11</title>
<g id="a_Node000011"><a xlink:href="a09653.html" target="_top" xlink:title="Class std::unordered_multimap with safety/checking/debug instrumentation.">
<polygon fill="white" stroke="#666666" points="361,-201 233,-201 233,-163 361,-163 361,-201"/>
<text text-anchor="start" x="241" y="-189.8" font-family="Helvetica,sans-Serif" font-size="9.00">std::__debug::unordered</text>
<text text-anchor="start" x="241" y="-179.8" font-family="Helvetica,sans-Serif" font-size="9.00">_multimap&lt; _Key, _Tp,</text>
<text text-anchor="middle" x="297" y="-169.8" font-family="Helvetica,sans-Serif" font-size="9.00"> _Hash, _Pred, _Alloc &gt;</text>
</a>
</g>
</g>
<!-- Node0&#45;&gt;Node11 -->
<g id="edge30_Node000000_Node000011" class="edge">
<title>Node0&#45;&gt;Node11</title>
<g id="a_edge30_Node000000_Node000011"><a xlink:title=" ">
<path fill="none" stroke="#63b8ff" d="M117.46,-302.75C140.96,-274.85 178.16,-235.15 218,-210 223.23,-206.7 228.91,-203.71 234.73,-201.04"/>
<polygon fill="#63b8ff" stroke="#63b8ff" points="114.6,-300.71 110.91,-310.64 119.99,-305.18 114.6,-300.71"/>
</a>
</g>
</g>
<!-- Node12 -->
<g id="Node000012" class="node">
<title>Node12</title>
<g id="a_Node000012"><a xlink:href="a09669.html" target="_top" xlink:title="Class std::unordered_multiset with safety/checking/debug instrumentation.">
<polygon fill="white" stroke="#666666" points="363.5,-145 230.5,-145 230.5,-107 363.5,-107 363.5,-145"/>
<text text-anchor="start" x="238.5" y="-133.8" font-family="Helvetica,sans-Serif" font-size="9.00">std::__debug::unordered</text>
<text text-anchor="start" x="238.5" y="-123.8" font-family="Helvetica,sans-Serif" font-size="9.00">_multiset&lt; _Value, _Hash,</text>
<text text-anchor="middle" x="297" y="-113.8" font-family="Helvetica,sans-Serif" font-size="9.00"> _Pred, _Alloc &gt;</text>
</a>
</g>
</g>
<!-- Node0&#45;&gt;Node12 -->
<g id="edge31_Node000000_Node000012" class="edge">
<title>Node0&#45;&gt;Node12</title>
<g id="a_edge31_Node000000_Node000012"><a xlink:title=" ">
<path fill="none" stroke="#63b8ff" d="M107.16,-301.75C127.14,-261.41 165.94,-193.88 218,-154 222.34,-150.68 227.11,-147.72 232.09,-145.1"/>
<polygon fill="#63b8ff" stroke="#63b8ff" points="103.94,-300.37 102.72,-310.89 110.24,-303.43 103.94,-300.37"/>
</a>
</g>
</g>
<!-- Node13 -->
<g id="Node000013" class="node">
<title>Node13</title>
<g id="a_Node000013"><a xlink:href="a09665.html" target="_top" xlink:title="Class std::unordered_set with safety/checking/debug instrumentation.">
<polygon fill="white" stroke="#666666" points="361,-89 233,-89 233,-51 361,-51 361,-89"/>
<text text-anchor="start" x="241" y="-77.8" font-family="Helvetica,sans-Serif" font-size="9.00">std::__debug::unordered</text>
<text text-anchor="start" x="241" y="-67.8" font-family="Helvetica,sans-Serif" font-size="9.00">_set&lt; _Value, _Hash, </text>
<text text-anchor="middle" x="297" y="-57.8" font-family="Helvetica,sans-Serif" font-size="9.00">_Pred, _Alloc &gt;</text>
</a>
</g>
</g>
<!-- Node0&#45;&gt;Node13 -->
<g id="edge32_Node000000_Node000013" class="edge">
<title>Node0&#45;&gt;Node13</title>
<g id="a_edge32_Node000000_Node000013"><a xlink:title=" ">
<path fill="none" stroke="#63b8ff" d="M101.43,-300.92C117.26,-249.84 153.88,-153.49 218,-98 222.46,-94.14 227.49,-90.8 232.8,-87.91"/>
<polygon fill="#63b8ff" stroke="#63b8ff" points="97.99,-300.22 98.46,-310.81 104.69,-302.24 97.99,-300.22"/>
</a>
</g>
</g>
<!-- Node14 -->
<g id="Node000014" class="node">
<title>Node14</title>
<g id="a_Node000014"><a xlink:href="a09681.html" target="_top" xlink:title="Class std::vector with safety/checking/debug instrumentation.">
<polygon fill="white" stroke="#666666" points="352,-33 242,-33 242,-5 352,-5 352,-33"/>
<text text-anchor="start" x="250" y="-21.8" font-family="Helvetica,sans-Serif" font-size="9.00">std::__debug::vector</text>
<text text-anchor="middle" x="297" y="-11.8" font-family="Helvetica,sans-Serif" font-size="9.00">&lt; _Tp, _Allocator &gt;</text>
</a>
</g>
</g>
<!-- Node0&#45;&gt;Node14 -->
<g id="edge33_Node000000_Node000014" class="edge">
<title>Node0&#45;&gt;Node14</title>
<g id="a_edge33_Node000000_Node000014"><a xlink:title=" ">
<path fill="none" stroke="#63b8ff" d="M97.03,-301C107.86,-240.04 139.1,-112 218,-42 224.86,-35.91 233.27,-31.43 242,-28.13"/>
<polygon fill="#63b8ff" stroke="#63b8ff" points="93.58,-300.44 95.35,-310.88 100.48,-301.61 93.58,-300.44"/>
</a>
</g>
</g>
<!-- Node15 -->
<g id="Node000015" class="node">
<title>Node15</title>
<g id="a_Node000015"><a xlink:href="a09685.html" target="_top" xlink:title="Base class for Debug Mode vector.">
<polygon fill="white" stroke="#666666" points="157,-38 25,-38 25,0 157,0 157,-38"/>
<text text-anchor="start" x="33" y="-26.8" font-family="Helvetica,sans-Serif" font-size="9.00">__gnu_debug::_Safe</text>
<text text-anchor="start" x="33" y="-16.8" font-family="Helvetica,sans-Serif" font-size="9.00">_vector&lt; _SafeSequence,</text>
<text text-anchor="middle" x="91" y="-6.8" font-family="Helvetica,sans-Serif" font-size="9.00"> _BaseSequence &gt;</text>
</a>
</g>
</g>
<!-- Node15&#45;&gt;Node14 -->
<g id="edge34_Node000015_Node000014" class="edge">
<title>Node15&#45;&gt;Node14</title>
<g id="a_edge34_Node000015_Node000014"><a xlink:title=" ">
<path fill="none" stroke="#63b8ff" d="M167.18,-19C191.91,-19 218.9,-19 241.76,-19"/>
<polygon fill="#63b8ff" stroke="#63b8ff" points="167.11,-15.5 157.11,-19 167.11,-22.5 167.11,-15.5"/>
</a>
</g>
</g>
<!-- Node2 -->
<g id="Node000002" class="node">
<title>Node2</title>
<g id="a_Node000002"><a xlink:href="a05505.html" target="_top" xlink:title="Managing sequences of characters and character&#45;like objects.">
<polygon fill="white" stroke="#666666" points="154.5,-650 27.5,-650 27.5,-622 154.5,-622 154.5,-650"/>
<text text-anchor="start" x="35.5" y="-638.8" font-family="Helvetica,sans-Serif" font-size="9.00">std::basic_string&lt;</text>
<text text-anchor="middle" x="91" y="-628.8" font-family="Helvetica,sans-Serif" font-size="9.00"> _CharT, _Traits, _Alloc &gt;</text>
</a>
</g>
</g>
<!-- Node2&#45;&gt;Node1 -->
<g id="edge35_Node000002_Node000001" class="edge">
<title>Node2&#45;&gt;Node1</title>
<g id="a_edge35_Node000002_Node000001"><a xlink:title=" ">
<path fill="none" stroke="#63b8ff" d="M164.81,-636C187.4,-636 212.08,-636 233.88,-636"/>
<polygon fill="#63b8ff" stroke="#63b8ff" points="164.59,-632.5 154.59,-636 164.59,-639.5 164.59,-632.5"/>
</a>
</g>
</g>
</g>
</svg>
