<?xml version="1.0" encoding="UTF-8" standalone="no"?>
<!DOCTYPE svg PUBLIC "-//W3C//DTD SVG 1.1//EN"
 "http://www.w3.org/Graphics/SVG/1.1/DTD/svg11.dtd">
<!-- Generated by graphviz version 2.43.0 (0)
 -->
<!-- Title: Graphical Class Hierarchy Pages: 1 -->
<svg width="262pt" height="72pt"
 viewBox="0.00 0.00 262.00 72.00" xmlns="http://www.w3.org/2000/svg" xmlns:xlink="http://www.w3.org/1999/xlink">
<g id="graph0" class="graph" transform="scale(1 1) rotate(0) translate(4 68)">
<title>Graphical Class Hierarchy</title>
<!-- Node0 -->
<g id="Node000000" class="node">
<title>Node0</title>
<g id="a_Node000000"><a xlink:href="a08505.html" target="_top" xlink:title="Common part of a node in the list.">
<polygon fill="white" stroke="#666666" points="97,-48 0,-48 0,-20 97,-20 97,-48"/>
<text text-anchor="start" x="8" y="-36.8" font-family="Helvetica,sans-Serif" font-size="9.00">std::__detail::_List</text>
<text text-anchor="middle" x="48.5" y="-26.8" font-family="Helvetica,sans-Serif" font-size="9.00">_node_base</text>
</a>
</g>
</g>
<!-- Node1 -->
<g id="Node000001" class="node">
<title>Node1</title>
<g id="a_Node000001"><a xlink:href="a08525.html" target="_top" xlink:title="An actual node in the list.">
<polygon fill="white" stroke="#666666" points="254,-64 133,-64 133,-46 254,-46 254,-64"/>
<text text-anchor="middle" x="193.5" y="-52.8" font-family="Helvetica,sans-Serif" font-size="9.00">std::_List_node&lt; _Tp &gt;</text>
</a>
</g>
</g>
<!-- Node0&#45;&gt;Node1 -->
<g id="edge167_Node000000_Node000001" class="edge">
<title>Node0&#45;&gt;Node1</title>
<g id="a_edge167_Node000000_Node000001"><a xlink:title=" ">
<path fill="none" stroke="#63b8ff" d="M107.25,-42.48C115.69,-43.72 124.4,-45 132.88,-46.24"/>
<polygon fill="#63b8ff" stroke="#63b8ff" points="107.52,-38.98 97.12,-40.99 106.5,-45.91 107.52,-38.98"/>
</a>
</g>
</g>
<!-- Node2 -->
<g id="Node000002" class="node">
<title>Node2</title>
<g id="a_Node000002"><a xlink:href="a08509.html" target="_top" xlink:title="The list node header.">
<polygon fill="white" stroke="#666666" points="242,-28 145,-28 145,0 242,0 242,-28"/>
<text text-anchor="start" x="153" y="-16.8" font-family="Helvetica,sans-Serif" font-size="9.00">std::__detail::_List</text>
<text text-anchor="middle" x="193.5" y="-6.8" font-family="Helvetica,sans-Serif" font-size="9.00">_node_header</text>
</a>
</g>
</g>
<!-- Node0&#45;&gt;Node2 -->
<g id="edge168_Node000000_Node000002" class="edge">
<title>Node0&#45;&gt;Node2</title>
<g id="a_edge168_Node000000_Node000002"><a xlink:title=" ">
<path fill="none" stroke="#63b8ff" d="M107.34,-25.91C119.72,-24.18 132.65,-22.37 144.6,-20.7"/>
<polygon fill="#63b8ff" stroke="#63b8ff" points="106.54,-22.49 97.12,-27.34 107.51,-29.42 106.54,-22.49"/>
</a>
</g>
</g>
</g>
</svg>
