<?xml version="1.0" encoding="UTF-8" standalone="no"?>
<!DOCTYPE svg PUBLIC "-//W3C//DTD SVG 1.1//EN"
 "http://www.w3.org/Graphics/SVG/1.1/DTD/svg11.dtd">
<!-- Generated by graphviz version 2.43.0 (0)
 -->
<!-- Title: Graphical Class Hierarchy Pages: 1 -->
<svg width="298pt" height="82pt"
 viewBox="0.00 0.00 298.00 82.00" xmlns="http://www.w3.org/2000/svg" xmlns:xlink="http://www.w3.org/1999/xlink">
<g id="graph0" class="graph" transform="scale(1 1) rotate(0) translate(4 78)">
<title>Graphical Class Hierarchy</title>
<!-- Node0 -->
<g id="Node000000" class="node">
<title>Node0</title>
<g id="a_Node000000"><a xlink:href="a07193.html" target="_top" xlink:title="The ranges::view_interface class template.">
<polygon fill="white" stroke="#666666" points="138,-51 0,-51 0,-23 138,-23 138,-51"/>
<text text-anchor="start" x="8" y="-39.8" font-family="Helvetica,sans-Serif" font-size="9.00">std::ranges::view_interface</text>
<text text-anchor="middle" x="69" y="-29.8" font-family="Helvetica,sans-Serif" font-size="9.00">&lt; _Derived &gt;</text>
</a>
</g>
</g>
<!-- Node1 -->
<g id="Node000001" class="node">
<title>Node1</title>
<g id="a_Node000001"><a xlink:href="a07269.html" target="_top" xlink:title=" ">
<polygon fill="white" stroke="#666666" points="290,-74 174,-74 174,-46 290,-46 290,-74"/>
<text text-anchor="start" x="182" y="-62.8" font-family="Helvetica,sans-Serif" font-size="9.00">std::ranges::subrange</text>
<text text-anchor="middle" x="232" y="-52.8" font-family="Helvetica,sans-Serif" font-size="9.00">&lt; iterator_t&lt; _Vp &gt; &gt;</text>
</a>
</g>
</g>
<!-- Node0&#45;&gt;Node1 -->
<g id="edge447_Node000000_Node000001" class="edge">
<title>Node0&#45;&gt;Node1</title>
<g id="a_edge447_Node000000_Node000001"><a xlink:title=" ">
<path fill="none" stroke="#63b8ff" d="M148.32,-48.19C156.91,-49.42 165.53,-50.65 173.79,-51.83"/>
<polygon fill="#63b8ff" stroke="#63b8ff" points="148.67,-44.7 138.28,-46.75 147.68,-51.63 148.67,-44.7"/>
</a>
</g>
</g>
<!-- Node2 -->
<g id="Node000002" class="node">
<title>Node2</title>
<g id="a_Node000002"><a xlink:href="a07269.html" target="_top" xlink:title="The ranges::subrange class template.">
<polygon fill="white" stroke="#666666" points="290,-28 174,-28 174,0 290,0 290,-28"/>
<text text-anchor="start" x="182" y="-16.8" font-family="Helvetica,sans-Serif" font-size="9.00">std::ranges::subrange</text>
<text text-anchor="middle" x="232" y="-6.8" font-family="Helvetica,sans-Serif" font-size="9.00">&lt; _It, _Sent, _Kind &gt;</text>
</a>
</g>
</g>
<!-- Node0&#45;&gt;Node2 -->
<g id="edge448_Node000000_Node000002" class="edge">
<title>Node0&#45;&gt;Node2</title>
<g id="a_edge448_Node000000_Node000002"><a xlink:title=" ">
<path fill="none" stroke="#63b8ff" d="M148.32,-25.81C156.91,-24.58 165.53,-23.35 173.79,-22.17"/>
<polygon fill="#63b8ff" stroke="#63b8ff" points="147.68,-22.37 138.28,-27.25 148.67,-29.3 147.68,-22.37"/>
</a>
</g>
</g>
</g>
</svg>
