<?xml version="1.0" encoding="UTF-8" standalone="no"?>
<!DOCTYPE svg PUBLIC "-//W3C//DTD SVG 1.1//EN"
 "http://www.w3.org/Graphics/SVG/1.1/DTD/svg11.dtd">
<!-- Generated by graphviz version 2.43.0 (0)
 -->
<!-- Title: Graphical Class Hierarchy Pages: 1 -->
<svg width="249pt" height="72pt"
 viewBox="0.00 0.00 249.00 72.00" xmlns="http://www.w3.org/2000/svg" xmlns:xlink="http://www.w3.org/1999/xlink">
<g id="graph0" class="graph" transform="scale(1 1) rotate(0) translate(4 68)">
<title>Graphical Class Hierarchy</title>
<!-- Node0 -->
<g id="Node000000" class="node">
<title>Node0</title>
<g id="a_Node000000"><a xlink:href="a02677.html" target="_top" xlink:title=" ">
<polygon fill="white" stroke="#666666" points="101,-48 0,-48 0,-20 101,-20 101,-48"/>
<text text-anchor="start" x="8" y="-36.8" font-family="Helvetica,sans-Serif" font-size="9.00">std::__basic_future</text>
<text text-anchor="middle" x="50.5" y="-26.8" font-family="Helvetica,sans-Serif" font-size="9.00">&lt; void &gt;</text>
</a>
</g>
</g>
<!-- Node1 -->
<g id="Node000001" class="node">
<title>Node1</title>
<g id="a_Node000001"><a xlink:href="a02689.html" target="_top" xlink:title="Explicit specialization for future&lt;void&gt;">
<polygon fill="white" stroke="#666666" points="241,-64 137,-64 137,-46 241,-46 241,-64"/>
<text text-anchor="middle" x="189" y="-52.8" font-family="Helvetica,sans-Serif" font-size="9.00">std::future&lt; void &gt;</text>
</a>
</g>
</g>
<!-- Node0&#45;&gt;Node1 -->
<g id="edge165_Node000000_Node000001" class="edge">
<title>Node0&#45;&gt;Node1</title>
<g id="a_edge165_Node000000_Node000001"><a xlink:title=" ">
<path fill="none" stroke="#63b8ff" d="M111.09,-43.17C119.65,-44.48 128.39,-45.83 136.77,-47.12"/>
<polygon fill="#63b8ff" stroke="#63b8ff" points="111.58,-39.7 101.17,-41.64 110.52,-46.62 111.58,-39.7"/>
</a>
</g>
</g>
<!-- Node2 -->
<g id="Node000002" class="node">
<title>Node2</title>
<g id="a_Node000002"><a xlink:href="a02697.html" target="_top" xlink:title="Explicit specialization for shared_future&lt;void&gt;">
<polygon fill="white" stroke="#666666" points="239,-28 139,-28 139,0 239,0 239,-28"/>
<text text-anchor="start" x="147" y="-16.8" font-family="Helvetica,sans-Serif" font-size="9.00">std::shared_future</text>
<text text-anchor="middle" x="189" y="-6.8" font-family="Helvetica,sans-Serif" font-size="9.00">&lt; void &gt;</text>
</a>
</g>
</g>
<!-- Node0&#45;&gt;Node2 -->
<g id="edge166_Node000000_Node000002" class="edge">
<title>Node0&#45;&gt;Node2</title>
<g id="a_edge166_Node000000_Node000002"><a xlink:title=" ">
<path fill="none" stroke="#63b8ff" d="M111.33,-25.23C120.44,-23.9 129.75,-22.54 138.6,-21.24"/>
<polygon fill="#63b8ff" stroke="#63b8ff" points="110.55,-21.81 101.17,-26.72 111.57,-28.74 110.55,-21.81"/>
</a>
</g>
</g>
</g>
</svg>
