<?xml version="1.0" encoding="UTF-8" standalone="no"?>
<!DOCTYPE svg PUBLIC "-//W3C//DTD SVG 1.1//EN"
 "http://www.w3.org/Graphics/SVG/1.1/DTD/svg11.dtd">
<!-- Generated by graphviz version 2.43.0 (0)
 -->
<!-- Title: Graphical Class Hierarchy Pages: 1 -->
<svg width="285pt" height="128pt"
 viewBox="0.00 0.00 285.00 128.00" xmlns="http://www.w3.org/2000/svg" xmlns:xlink="http://www.w3.org/1999/xlink">
<g id="graph0" class="graph" transform="scale(1 1) rotate(0) translate(4 124)">
<title>Graphical Class Hierarchy</title>
<!-- Node0 -->
<g id="Node000000" class="node">
<title>Node0</title>
<g id="a_Node000000"><a xlink:href="a03013.html" target="_top" xlink:title="Class template that provides copy/move constructors of optional.">
<polygon fill="white" stroke="#666666" points="104,-69 0,-69 0,-41 104,-41 104,-69"/>
<text text-anchor="start" x="8" y="-57.8" font-family="Helvetica,sans-Serif" font-size="9.00">std::_Optional_base</text>
<text text-anchor="middle" x="52" y="-47.8" font-family="Helvetica,sans-Serif" font-size="9.00">&lt; _Tp, bool, bool &gt;</text>
</a>
</g>
</g>
<!-- Node1 -->
<g id="Node000001" class="node">
<title>Node1</title>
<g id="a_Node000001"><a xlink:href="a02953.html" target="_top" xlink:title=" ">
<polygon fill="white" stroke="#666666" points="264.5,-120 152.5,-120 152.5,-92 264.5,-92 264.5,-120"/>
<text text-anchor="start" x="160.5" y="-108.8" font-family="Helvetica,sans-Serif" font-size="9.00">std::optional&lt; _Inner</text>
<text text-anchor="middle" x="208.5" y="-98.8" font-family="Helvetica,sans-Serif" font-size="9.00">_iter &gt;</text>
</a>
</g>
</g>
<!-- Node0&#45;&gt;Node1 -->
<g id="edge183_Node000000_Node000001" class="edge">
<title>Node0&#45;&gt;Node1</title>
<g id="a_edge183_Node000000_Node000001"><a xlink:title=" ">
<path fill="none" stroke="#8b1a1a" d="M105.26,-72.25C124.71,-78.67 146.54,-85.88 165.01,-91.97"/>
<polygon fill="#8b1a1a" stroke="#8b1a1a" points="106.22,-68.88 95.63,-69.07 104.03,-75.53 106.22,-68.88"/>
</a>
</g>
</g>
<!-- Node2 -->
<g id="Node000002" class="node">
<title>Node2</title>
<g id="a_Node000002"><a xlink:href="a11689.html" target="_top" xlink:title="Class template for optional values.">
<polygon fill="white" stroke="#666666" points="277,-74 140,-74 140,-36 277,-36 277,-74"/>
<text text-anchor="start" x="148" y="-62.8" font-family="Helvetica,sans-Serif" font-size="9.00">std::experimental::</text>
<text text-anchor="start" x="148" y="-52.8" font-family="Helvetica,sans-Serif" font-size="9.00">fundamentals_v1::optional</text>
<text text-anchor="middle" x="208.5" y="-42.8" font-family="Helvetica,sans-Serif" font-size="9.00">&lt; _Tp &gt;</text>
</a>
</g>
</g>
<!-- Node0&#45;&gt;Node2 -->
<g id="edge184_Node000000_Node000002" class="edge">
<title>Node0&#45;&gt;Node2</title>
<g id="a_edge184_Node000000_Node000002"><a xlink:title=" ">
<path fill="none" stroke="#8b1a1a" d="M114.12,-55C122.53,-55 131.2,-55 139.73,-55"/>
<polygon fill="#8b1a1a" stroke="#8b1a1a" points="114.02,-51.5 104.02,-55 114.02,-58.5 114.02,-51.5"/>
</a>
</g>
</g>
<!-- Node3 -->
<g id="Node000003" class="node">
<title>Node3</title>
<g id="a_Node000003"><a xlink:href="a02953.html" target="_top" xlink:title="Class template for optional values.">
<polygon fill="white" stroke="#666666" points="263.5,-18 153.5,-18 153.5,0 263.5,0 263.5,-18"/>
<text text-anchor="middle" x="208.5" y="-6.8" font-family="Helvetica,sans-Serif" font-size="9.00">std::optional&lt; _Tp &gt;</text>
</a>
</g>
</g>
<!-- Node0&#45;&gt;Node3 -->
<g id="edge185_Node000000_Node000003" class="edge">
<title>Node0&#45;&gt;Node3</title>
<g id="a_edge185_Node000000_Node000003"><a xlink:title=" ">
<path fill="none" stroke="#8b1a1a" d="M105.2,-37.73C116.63,-34.07 128.7,-30.32 140,-27 150.47,-23.92 161.92,-20.78 172.37,-18.01"/>
<polygon fill="#8b1a1a" stroke="#8b1a1a" points="103.79,-34.5 95.35,-40.9 105.94,-41.16 103.79,-34.5"/>
</a>
</g>
</g>
</g>
</svg>
