<?xml version="1.0" encoding="UTF-8" standalone="no"?>
<!DOCTYPE svg PUBLIC "-//W3C//DTD SVG 1.1//EN"
 "http://www.w3.org/Graphics/SVG/1.1/DTD/svg11.dtd">
<!-- Generated by graphviz version 2.43.0 (0)
 -->
<!-- Title: Graphical Class Hierarchy Pages: 1 -->
<svg width="251pt" height="72pt"
 viewBox="0.00 0.00 251.00 72.00" xmlns="http://www.w3.org/2000/svg" xmlns:xlink="http://www.w3.org/1999/xlink">
<g id="graph0" class="graph" transform="scale(1 1) rotate(0) translate(4 68)">
<title>Graphical Class Hierarchy</title>
<!-- Node0 -->
<g id="Node000000" class="node">
<title>Node0</title>
<g id="a_Node000000"><a xlink:href="a02677.html" target="_top" xlink:title="Common implementation for future and shared_future.">
<polygon fill="white" stroke="#666666" points="101,-48 0,-48 0,-20 101,-20 101,-48"/>
<text text-anchor="start" x="8" y="-36.8" font-family="Helvetica,sans-Serif" font-size="9.00">std::__basic_future</text>
<text text-anchor="middle" x="50.5" y="-26.8" font-family="Helvetica,sans-Serif" font-size="9.00">&lt; _Res &gt;</text>
</a>
</g>
</g>
<!-- Node1 -->
<g id="Node000001" class="node">
<title>Node1</title>
<g id="a_Node000001"><a xlink:href="a02661.html" target="_top" xlink:title="Primary template for future.">
<polygon fill="white" stroke="#666666" points="243,-64 137,-64 137,-46 243,-46 243,-64"/>
<text text-anchor="middle" x="190" y="-52.8" font-family="Helvetica,sans-Serif" font-size="9.00">std::future&lt; _Res &gt;</text>
</a>
</g>
</g>
<!-- Node0&#45;&gt;Node1 -->
<g id="edge163_Node000000_Node000001" class="edge">
<title>Node0&#45;&gt;Node1</title>
<g id="a_edge163_Node000000_Node000001"><a xlink:title=" ">
<path fill="none" stroke="#63b8ff" d="M111.03,-43.09C119.56,-44.39 128.27,-45.73 136.65,-47"/>
<polygon fill="#63b8ff" stroke="#63b8ff" points="111.55,-39.63 101.14,-41.58 110.5,-46.55 111.55,-39.63"/>
</a>
</g>
</g>
<!-- Node2 -->
<g id="Node000002" class="node">
<title>Node2</title>
<g id="a_Node000002"><a xlink:href="a02665.html" target="_top" xlink:title="Primary template for shared_future.">
<polygon fill="white" stroke="#666666" points="240,-28 140,-28 140,0 240,0 240,-28"/>
<text text-anchor="start" x="148" y="-16.8" font-family="Helvetica,sans-Serif" font-size="9.00">std::shared_future</text>
<text text-anchor="middle" x="190" y="-6.8" font-family="Helvetica,sans-Serif" font-size="9.00">&lt; _Res &gt;</text>
</a>
</g>
</g>
<!-- Node0&#45;&gt;Node2 -->
<g id="edge164_Node000000_Node000002" class="edge">
<title>Node0&#45;&gt;Node2</title>
<g id="a_edge164_Node000000_Node000002"><a xlink:title=" ">
<path fill="none" stroke="#63b8ff" d="M111.05,-25.34C120.68,-23.94 130.55,-22.5 139.89,-21.14"/>
<polygon fill="#63b8ff" stroke="#63b8ff" points="110.53,-21.88 101.14,-26.78 111.54,-28.8 110.53,-21.88"/>
</a>
</g>
</g>
</g>
</svg>
