<?xml version="1.0" encoding="UTF-8" standalone="no"?>
<!DOCTYPE svg PUBLIC "-//W3C//DTD SVG 1.1//EN"
 "http://www.w3.org/Graphics/SVG/1.1/DTD/svg11.dtd">
<!-- Generated by graphviz version 2.43.0 (0)
 -->
<!-- Title: Graphical Class Hierarchy Pages: 1 -->
<svg width="507pt" height="102pt"
 viewBox="0.00 0.00 507.00 102.00" xmlns="http://www.w3.org/2000/svg" xmlns:xlink="http://www.w3.org/1999/xlink">
<g id="graph0" class="graph" transform="scale(1 1) rotate(0) translate(4 98)">
<title>Graphical Class Hierarchy</title>
<!-- Node0 -->
<g id="Node000000" class="node">
<title>Node0</title>
<g id="a_Node000000"><a xlink:href="a12769.html" target="_top" xlink:title="A size policy whose sequence of sizes form an exponential sequence (typically powers of 2.">
<polygon fill="white" stroke="#666666" points="320,-94 165,-94 165,-66 320,-66 320,-94"/>
<text text-anchor="start" x="173" y="-82.8" font-family="Helvetica,sans-Serif" font-size="9.00">__gnu_pbds::hash_exponential</text>
<text text-anchor="middle" x="242.5" y="-72.8" font-family="Helvetica,sans-Serif" font-size="9.00">_size_policy&lt; Size_Type &gt;</text>
</a>
</g>
</g>
<!-- Node1 -->
<g id="Node000001" class="node">
<title>Node1</title>
<g id="a_Node000001"><a xlink:href="a12777.html" target="_top" xlink:title="A resize policy which delegates operations to size and trigger policies.">
<polygon fill="white" stroke="#666666" points="499,-76 356,-76 356,-28 499,-28 499,-76"/>
<text text-anchor="start" x="364" y="-64.8" font-family="Helvetica,sans-Serif" font-size="9.00">__gnu_pbds::hash_standard</text>
<text text-anchor="start" x="364" y="-54.8" font-family="Helvetica,sans-Serif" font-size="9.00">_resize_policy&lt; Size_Policy,</text>
<text text-anchor="start" x="364" y="-44.8" font-family="Helvetica,sans-Serif" font-size="9.00"> Trigger_Policy, External</text>
<text text-anchor="middle" x="427.5" y="-34.8" font-family="Helvetica,sans-Serif" font-size="9.00">_Size_Access, Size_Type &gt;</text>
</a>
</g>
</g>
<!-- Node0&#45;&gt;Node1 -->
<g id="edge157_Node000000_Node000001" class="edge">
<title>Node0&#45;&gt;Node1</title>
<g id="a_edge157_Node000000_Node000001"><a xlink:title=" ">
<path fill="none" stroke="#63b8ff" d="M330.11,-66.75C338.72,-65.43 347.39,-64.1 355.81,-62.82"/>
<polygon fill="#63b8ff" stroke="#63b8ff" points="329.4,-63.32 320.05,-68.29 330.46,-70.23 329.4,-63.32"/>
</a>
</g>
</g>
<!-- Node3 -->
<g id="Node000003" class="node">
<title>Node3</title>
<g id="a_Node000003"><a xlink:href="a13545.html" target="_top" xlink:title="Primary template.">
<polygon fill="white" stroke="#666666" points="129,-48 0,-48 0,0 129,0 129,-48"/>
<text text-anchor="start" x="8" y="-36.8" font-family="Helvetica,sans-Serif" font-size="9.00">__gnu_pbds::detail</text>
<text text-anchor="start" x="8" y="-26.8" font-family="Helvetica,sans-Serif" font-size="9.00">::hash_load_check_resize</text>
<text text-anchor="start" x="8" y="-16.8" font-family="Helvetica,sans-Serif" font-size="9.00">_trigger_size_base&lt; Size</text>
<text text-anchor="middle" x="64.5" y="-6.8" font-family="Helvetica,sans-Serif" font-size="9.00">_Type, Hold_Size &gt;</text>
</a>
</g>
</g>
<!-- Node2 -->
<g id="Node000002" class="node">
<title>Node2</title>
<g id="a_Node000002"><a xlink:href="a12761.html" target="_top" xlink:title="A resize trigger policy based on a load check. It keeps the load factor between some load factors loa...">
<polygon fill="white" stroke="#666666" points="306.5,-48 178.5,-48 178.5,0 306.5,0 306.5,-48"/>
<text text-anchor="start" x="186.5" y="-36.8" font-family="Helvetica,sans-Serif" font-size="9.00">__gnu_pbds::hash_load</text>
<text text-anchor="start" x="186.5" y="-26.8" font-family="Helvetica,sans-Serif" font-size="9.00">_check_resize_trigger</text>
<text text-anchor="start" x="186.5" y="-16.8" font-family="Helvetica,sans-Serif" font-size="9.00">&lt; External_Load_Access,</text>
<text text-anchor="middle" x="242.5" y="-6.8" font-family="Helvetica,sans-Serif" font-size="9.00"> Size_Type &gt;</text>
</a>
</g>
</g>
<!-- Node3&#45;&gt;Node2 -->
<g id="edge158_Node000003_Node000002" class="edge">
<title>Node3&#45;&gt;Node2</title>
<g id="a_edge158_Node000003_Node000002"><a xlink:title=" ">
<path fill="none" stroke="#8b1a1a" d="M139.33,-24C152.3,-24 165.7,-24 178.35,-24"/>
<polygon fill="#8b1a1a" stroke="#8b1a1a" points="139.04,-20.5 129.04,-24 139.04,-27.5 139.04,-20.5"/>
</a>
</g>
</g>
<!-- Node2&#45;&gt;Node1 -->
<g id="edge159_Node000002_Node000001" class="edge">
<title>Node2&#45;&gt;Node1</title>
<g id="a_edge159_Node000002_Node000001"><a xlink:title=" ">
<path fill="none" stroke="#63b8ff" d="M316.88,-35.23C329.7,-37.19 343,-39.22 355.74,-41.17"/>
<polygon fill="#63b8ff" stroke="#63b8ff" points="317.15,-31.73 306.73,-33.68 316.09,-38.65 317.15,-31.73"/>
</a>
</g>
</g>
</g>
</svg>
