<?xml version="1.0" encoding="UTF-8" standalone="no"?>
<!DOCTYPE svg PUBLIC "-//W3C//DTD SVG 1.1//EN"
 "http://www.w3.org/Graphics/SVG/1.1/DTD/svg11.dtd">
<!-- Generated by graphviz version 2.43.0 (0)
 -->
<!-- Title: Graphical Class Hierarchy Pages: 1 -->
<svg width="329pt" height="174pt"
 viewBox="0.00 0.00 329.00 174.00" xmlns="http://www.w3.org/2000/svg" xmlns:xlink="http://www.w3.org/1999/xlink">
<g id="graph0" class="graph" transform="scale(1 1) rotate(0) translate(4 170)">
<title>Graphical Class Hierarchy</title>
<!-- Node0 -->
<g id="Node000000" class="node">
<title>Node0</title>
<g id="a_Node000000"><a xlink:href="a09957.html" target="_top" xlink:title="Base class of all __gnu_parallel::__find_template selectors.">
<polygon fill="white" stroke="#666666" points="129,-97 0,-97 0,-69 129,-69 129,-97"/>
<text text-anchor="start" x="8" y="-85.8" font-family="Helvetica,sans-Serif" font-size="9.00">__gnu_parallel::__generic</text>
<text text-anchor="middle" x="64.5" y="-75.8" font-family="Helvetica,sans-Serif" font-size="9.00">_find_selector</text>
</a>
</g>
</g>
<!-- Node1 -->
<g id="Node000001" class="node">
<title>Node1</title>
<g id="a_Node000001"><a xlink:href="a09965.html" target="_top" xlink:title="Test predicate on two adjacent elements.">
<polygon fill="white" stroke="#666666" points="310,-166 176,-166 176,-138 310,-138 310,-166"/>
<text text-anchor="start" x="184" y="-154.8" font-family="Helvetica,sans-Serif" font-size="9.00">__gnu_parallel::__adjacent</text>
<text text-anchor="middle" x="243" y="-144.8" font-family="Helvetica,sans-Serif" font-size="9.00">_find_selector</text>
</a>
</g>
</g>
<!-- Node0&#45;&gt;Node1 -->
<g id="edge47_Node000000_Node000001" class="edge">
<title>Node0&#45;&gt;Node1</title>
<g id="a_edge47_Node000000_Node000001"><a xlink:title=" ">
<path fill="none" stroke="#63b8ff" d="M102.59,-101.68C121.07,-110.6 143.93,-121.03 165,-129 173.35,-132.16 182.34,-135.18 191.12,-137.93"/>
<polygon fill="#63b8ff" stroke="#63b8ff" points="103.87,-98.41 93.35,-97.18 100.8,-104.71 103.87,-98.41"/>
</a>
</g>
</g>
<!-- Node2 -->
<g id="Node000002" class="node">
<title>Node2</title>
<g id="a_Node000002"><a xlink:href="a09973.html" target="_top" xlink:title="Test predicate on several elements.">
<polygon fill="white" stroke="#666666" points="321,-120 165,-120 165,-92 321,-92 321,-120"/>
<text text-anchor="start" x="173" y="-108.8" font-family="Helvetica,sans-Serif" font-size="9.00">__gnu_parallel::__find</text>
<text text-anchor="middle" x="243" y="-98.8" font-family="Helvetica,sans-Serif" font-size="9.00">_first_of_selector&lt; _FIterator &gt;</text>
</a>
</g>
</g>
<!-- Node0&#45;&gt;Node2 -->
<g id="edge48_Node000000_Node000002" class="edge">
<title>Node0&#45;&gt;Node2</title>
<g id="a_edge48_Node000000_Node000002"><a xlink:title=" ">
<path fill="none" stroke="#63b8ff" d="M139.37,-92.63C147.78,-93.72 156.37,-94.84 164.83,-95.94"/>
<polygon fill="#63b8ff" stroke="#63b8ff" points="139.59,-89.13 129.22,-91.3 138.68,-96.07 139.59,-89.13"/>
</a>
</g>
</g>
<!-- Node3 -->
<g id="Node000003" class="node">
<title>Node3</title>
<g id="a_Node000003"><a xlink:href="a09961.html" target="_top" xlink:title="Test predicate on a single element, used for std::find() and std::find_if ().">
<polygon fill="white" stroke="#666666" points="299.5,-74 186.5,-74 186.5,-46 299.5,-46 299.5,-74"/>
<text text-anchor="start" x="194.5" y="-62.8" font-family="Helvetica,sans-Serif" font-size="9.00">__gnu_parallel::__find</text>
<text text-anchor="middle" x="243" y="-52.8" font-family="Helvetica,sans-Serif" font-size="9.00">_if_selector</text>
</a>
</g>
</g>
<!-- Node0&#45;&gt;Node3 -->
<g id="edge49_Node000000_Node000003" class="edge">
<title>Node0&#45;&gt;Node3</title>
<g id="a_edge49_Node000000_Node000003"><a xlink:title=" ">
<path fill="none" stroke="#63b8ff" d="M139.41,-73.37C155.09,-71.33 171.39,-69.2 186.26,-67.26"/>
<polygon fill="#63b8ff" stroke="#63b8ff" points="138.68,-69.93 129.22,-74.7 139.59,-76.87 138.68,-69.93"/>
</a>
</g>
</g>
<!-- Node4 -->
<g id="Node000004" class="node">
<title>Node4</title>
<g id="a_Node000004"><a xlink:href="a09969.html" target="_top" xlink:title="Test inverted predicate on a single element.">
<polygon fill="white" stroke="#666666" points="313,-28 173,-28 173,0 313,0 313,-28"/>
<text text-anchor="start" x="181" y="-16.8" font-family="Helvetica,sans-Serif" font-size="9.00">__gnu_parallel::__mismatch</text>
<text text-anchor="middle" x="243" y="-6.8" font-family="Helvetica,sans-Serif" font-size="9.00">_selector</text>
</a>
</g>
</g>
<!-- Node0&#45;&gt;Node4 -->
<g id="edge50_Node000000_Node000004" class="edge">
<title>Node0&#45;&gt;Node4</title>
<g id="a_edge50_Node000000_Node000004"><a xlink:title=" ">
<path fill="none" stroke="#63b8ff" d="M102.59,-64.32C121.07,-55.4 143.93,-44.97 165,-37 173.35,-33.84 182.34,-30.82 191.12,-28.07"/>
<polygon fill="#63b8ff" stroke="#63b8ff" points="100.8,-61.29 93.35,-68.82 103.87,-67.59 100.8,-61.29"/>
</a>
</g>
</g>
</g>
</svg>
