<?xml version="1.0" encoding="UTF-8" standalone="no"?>
<!DOCTYPE svg PUBLIC "-//W3C//DTD SVG 1.1//EN"
 "http://www.w3.org/Graphics/SVG/1.1/DTD/svg11.dtd">
<!-- Generated by graphviz version 2.43.0 (0)
 -->
<!-- Title: Graphical Class Hierarchy Pages: 1 -->
<svg width="288pt" height="62pt"
 viewBox="0.00 0.00 288.00 62.00" xmlns="http://www.w3.org/2000/svg" xmlns:xlink="http://www.w3.org/1999/xlink">
<g id="graph0" class="graph" transform="scale(1 1) rotate(0) translate(4 58)">
<title>Graphical Class Hierarchy</title>
<!-- Node0 -->
<g id="Node000000" class="node">
<title>Node0</title>
<g id="a_Node000000"><a xlink:href="a08017.html" target="_top" xlink:title=" ">
<polygon fill="white" stroke="#666666" points="107,-41 0,-41 0,-13 107,-13 107,-41"/>
<text text-anchor="start" x="8" y="-29.8" font-family="Helvetica,sans-Serif" font-size="9.00">std::_Deque_base&lt; </text>
<text text-anchor="middle" x="53.5" y="-19.8" font-family="Helvetica,sans-Serif" font-size="9.00">_Tp, _Alloc &gt;</text>
</a>
</g>
</g>
<!-- Node1 -->
<g id="Node000001" class="node">
<title>Node1</title>
<g id="a_Node000001"><a xlink:href="a08029.html" target="_top" xlink:title=" ">
<polygon fill="white" stroke="#666666" points="280,-54 143,-54 143,-36 280,-36 280,-54"/>
<text text-anchor="middle" x="211.5" y="-42.8" font-family="Helvetica,sans-Serif" font-size="9.00">std::deque&lt; _StateSeqT &gt;</text>
</a>
</g>
</g>
<!-- Node0&#45;&gt;Node1 -->
<g id="edge174_Node000000_Node000001" class="edge">
<title>Node0&#45;&gt;Node1</title>
<g id="a_edge174_Node000000_Node000001"><a xlink:title=" ">
<path fill="none" stroke="darkgreen" d="M117.38,-34.26C125.75,-35.22 134.36,-36.21 142.81,-37.19"/>
<polygon fill="darkgreen" stroke="darkgreen" points="117.65,-30.76 107.31,-33.09 116.85,-37.72 117.65,-30.76"/>
</a>
</g>
</g>
<!-- Node2 -->
<g id="Node000002" class="node">
<title>Node2</title>
<g id="a_Node000002"><a xlink:href="a08029.html" target="_top" xlink:title="A standard container using fixed&#45;size memory allocation and constant&#45;time manipulation of elements at...">
<polygon fill="white" stroke="#666666" points="278.5,-18 144.5,-18 144.5,0 278.5,0 278.5,-18"/>
<text text-anchor="middle" x="211.5" y="-6.8" font-family="Helvetica,sans-Serif" font-size="9.00">std::deque&lt; _Tp, _Alloc &gt;</text>
</a>
</g>
</g>
<!-- Node0&#45;&gt;Node2 -->
<g id="edge175_Node000000_Node000002" class="edge">
<title>Node0&#45;&gt;Node2</title>
<g id="a_edge175_Node000000_Node000002"><a xlink:title=" ">
<path fill="none" stroke="darkgreen" d="M117.27,-19.76C126.22,-18.72 135.45,-17.66 144.46,-16.62"/>
<polygon fill="darkgreen" stroke="darkgreen" points="116.85,-16.28 107.31,-20.91 117.65,-23.24 116.85,-16.28"/>
</a>
</g>
</g>
</g>
</svg>
