<?xml version="1.0" encoding="UTF-8" standalone="no"?>
<!DOCTYPE svg PUBLIC "-//W3C//DTD SVG 1.1//EN"
 "http://www.w3.org/Graphics/SVG/1.1/DTD/svg11.dtd">
<!-- Generated by graphviz version 2.43.0 (0)
 -->
<!-- Title: Graphical Class Hierarchy Pages: 1 -->
<svg width="868pt" height="453pt"
 viewBox="0.00 0.00 868.00 453.00" xmlns="http://www.w3.org/2000/svg" xmlns:xlink="http://www.w3.org/1999/xlink">
<g id="graph0" class="graph" transform="scale(1 1) rotate(0) translate(4 449)">
<title>Graphical Class Hierarchy</title>
<!-- Node0 -->
<g id="Node000000" class="node">
<title>Node0</title>
<g id="a_Node000000"><a xlink:href="a12809.html" target="_top" xlink:title="Base data structure tag.">
<polygon fill="white" stroke="#666666" points="139,-141 0,-141 0,-123 139,-123 139,-141"/>
<text text-anchor="middle" x="69.5" y="-129.8" font-family="Helvetica,sans-Serif" font-size="9.00">__gnu_pbds::container_tag</text>
</a>
</g>
</g>
<!-- Node1 -->
<g id="Node000001" class="node">
<title>Node1</title>
<g id="a_Node000001"><a xlink:href="a12821.html" target="_top" xlink:title="Basic associative&#45;container.">
<polygon fill="white" stroke="#666666" points="320,-292 175,-292 175,-274 320,-274 320,-292"/>
<text text-anchor="middle" x="247.5" y="-280.8" font-family="Helvetica,sans-Serif" font-size="9.00">__gnu_pbds::associative_tag</text>
</a>
</g>
</g>
<!-- Node0&#45;&gt;Node1 -->
<g id="edge93_Node000000_Node000001" class="edge">
<title>Node0&#45;&gt;Node1</title>
<g id="a_edge93_Node000000_Node000001"><a xlink:title=" ">
<path fill="none" stroke="#63b8ff" d="M89.21,-148.05C126.04,-179.65 206.91,-249.03 235.9,-273.9"/>
<polygon fill="#63b8ff" stroke="#63b8ff" points="91.11,-145.07 81.24,-141.22 86.56,-150.39 91.11,-145.07"/>
</a>
</g>
</g>
<!-- Node13 -->
<g id="Node000013" class="node">
<title>Node13</title>
<g id="a_Node000013"><a xlink:href="a12869.html" target="_top" xlink:title="Basic priority&#45;queue.">
<polygon fill="white" stroke="#666666" points="302,-146 193,-146 193,-118 302,-118 302,-146"/>
<text text-anchor="start" x="201" y="-134.8" font-family="Helvetica,sans-Serif" font-size="9.00">__gnu_pbds::priority</text>
<text text-anchor="middle" x="247.5" y="-124.8" font-family="Helvetica,sans-Serif" font-size="9.00">_queue_tag</text>
</a>
</g>
</g>
<!-- Node0&#45;&gt;Node13 -->
<g id="edge105_Node000000_Node000013" class="edge">
<title>Node0&#45;&gt;Node13</title>
<g id="a_edge105_Node000000_Node000013"><a xlink:title=" ">
<path fill="none" stroke="#63b8ff" d="M149.19,-132C163.95,-132 179.07,-132 192.85,-132"/>
<polygon fill="#63b8ff" stroke="#63b8ff" points="149.05,-128.5 139.05,-132 149.05,-135.5 149.05,-128.5"/>
</a>
</g>
</g>
<!-- Node19 -->
<g id="Node000019" class="node">
<title>Node19</title>
<g id="a_Node000019"><a xlink:href="a12813.html" target="_top" xlink:title="Basic sequence.">
<polygon fill="white" stroke="#666666" points="317.5,-59 177.5,-59 177.5,-41 317.5,-41 317.5,-59"/>
<text text-anchor="middle" x="247.5" y="-47.8" font-family="Helvetica,sans-Serif" font-size="9.00">__gnu_pbds::sequence_tag</text>
</a>
</g>
</g>
<!-- Node0&#45;&gt;Node19 -->
<g id="edge111_Node000000_Node000019" class="edge">
<title>Node0&#45;&gt;Node19</title>
<g id="a_edge111_Node000000_Node000019"><a xlink:title=" ">
<path fill="none" stroke="#63b8ff" d="M99.49,-118.49C135.6,-101.67 196.28,-73.4 227.17,-59"/>
<polygon fill="#63b8ff" stroke="#63b8ff" points="97.59,-115.52 90.01,-122.91 100.55,-121.86 97.59,-115.52"/>
</a>
</g>
</g>
<!-- Node2 -->
<g id="Node000002" class="node">
<title>Node2</title>
<g id="a_Node000002"><a xlink:href="a12837.html" target="_top" xlink:title="Basic branch structure.">
<polygon fill="white" stroke="#666666" points="512,-346 356,-346 356,-328 512,-328 512,-346"/>
<text text-anchor="middle" x="434" y="-334.8" font-family="Helvetica,sans-Serif" font-size="9.00">__gnu_pbds::basic_branch_tag</text>
</a>
</g>
</g>
<!-- Node1&#45;&gt;Node2 -->
<g id="edge94_Node000001_Node000002" class="edge">
<title>Node1&#45;&gt;Node2</title>
<g id="a_edge94_Node000001_Node000002"><a xlink:title=" ">
<path fill="none" stroke="#63b8ff" d="M282.93,-295.44C303.9,-302.79 331.32,-312 356,-319 367.36,-322.22 379.78,-325.31 391.26,-327.99"/>
<polygon fill="#63b8ff" stroke="#63b8ff" points="284.08,-292.14 273.49,-292.11 281.75,-298.74 284.08,-292.14"/>
</a>
</g>
</g>
<!-- Node9 -->
<g id="Node000009" class="node">
<title>Node9</title>
<g id="a_Node000009"><a xlink:href="a12825.html" target="_top" xlink:title="Basic hash structure.">
<polygon fill="white" stroke="#666666" points="507,-310 361,-310 361,-292 507,-292 507,-310"/>
<text text-anchor="middle" x="434" y="-298.8" font-family="Helvetica,sans-Serif" font-size="9.00">__gnu_pbds::basic_hash_tag</text>
</a>
</g>
</g>
<!-- Node1&#45;&gt;Node9 -->
<g id="edge101_Node000001_Node000009" class="edge">
<title>Node1&#45;&gt;Node9</title>
<g id="a_edge101_Node000001_Node000009"><a xlink:title=" ">
<path fill="none" stroke="#63b8ff" d="M330.22,-290.97C340.42,-291.97 350.79,-292.98 360.84,-293.96"/>
<polygon fill="#63b8ff" stroke="#63b8ff" points="330.39,-287.47 320.1,-289.99 329.71,-294.44 330.39,-287.47"/>
</a>
</g>
</g>
<!-- Node12 -->
<g id="Node000012" class="node">
<title>Node12</title>
<g id="a_Node000012"><a xlink:href="a12865.html" target="_top" xlink:title="List&#45;update.">
<polygon fill="white" stroke="#666666" points="507,-274 361,-274 361,-256 507,-256 507,-274"/>
<text text-anchor="middle" x="434" y="-262.8" font-family="Helvetica,sans-Serif" font-size="9.00">__gnu_pbds::list_update_tag</text>
</a>
</g>
</g>
<!-- Node1&#45;&gt;Node12 -->
<g id="edge104_Node000001_Node000012" class="edge">
<title>Node1&#45;&gt;Node12</title>
<g id="a_edge104_Node000001_Node000012"><a xlink:title=" ">
<path fill="none" stroke="#63b8ff" d="M330.22,-275.03C340.42,-274.03 350.79,-273.02 360.84,-272.04"/>
<polygon fill="#63b8ff" stroke="#63b8ff" points="329.71,-271.56 320.1,-276.01 330.39,-278.53 329.71,-271.56"/>
</a>
</g>
</g>
<!-- Node3 -->
<g id="Node000003" class="node">
<title>Node3</title>
<g id="a_Node000003"><a xlink:href="a12841.html" target="_top" xlink:title="Basic tree structure.">
<polygon fill="white" stroke="#666666" points="672,-400 558,-400 558,-382 672,-382 672,-400"/>
<text text-anchor="middle" x="615" y="-388.8" font-family="Helvetica,sans-Serif" font-size="9.00">__gnu_pbds::tree_tag</text>
</a>
</g>
</g>
<!-- Node2&#45;&gt;Node3 -->
<g id="edge95_Node000002_Node000003" class="edge">
<title>Node2&#45;&gt;Node3</title>
<g id="a_edge95_Node000002_Node000003"><a xlink:title=" ">
<path fill="none" stroke="#63b8ff" d="M474.74,-348.99C507.74,-358.94 553.96,-372.89 583.94,-381.93"/>
<polygon fill="#63b8ff" stroke="#63b8ff" points="475.55,-345.58 464.96,-346.04 473.52,-352.28 475.55,-345.58"/>
</a>
</g>
</g>
<!-- Node7 -->
<g id="Node000007" class="node">
<title>Node7</title>
<g id="a_Node000007"><a xlink:href="a12857.html" target="_top" xlink:title="Basic trie structure.">
<polygon fill="white" stroke="#666666" points="670.5,-346 559.5,-346 559.5,-328 670.5,-328 670.5,-346"/>
<text text-anchor="middle" x="615" y="-334.8" font-family="Helvetica,sans-Serif" font-size="9.00">__gnu_pbds::trie_tag</text>
</a>
</g>
</g>
<!-- Node2&#45;&gt;Node7 -->
<g id="edge99_Node000002_Node000007" class="edge">
<title>Node2&#45;&gt;Node7</title>
<g id="a_edge99_Node000002_Node000007"><a xlink:title=" ">
<path fill="none" stroke="#63b8ff" d="M522.32,-337C534.97,-337 547.67,-337 559.42,-337"/>
<polygon fill="#63b8ff" stroke="#63b8ff" points="522.21,-333.5 512.21,-337 522.21,-340.5 522.21,-333.5"/>
</a>
</g>
</g>
<!-- Node4 -->
<g id="Node000004" class="node">
<title>Node4</title>
<g id="a_Node000004"><a xlink:href="a12853.html" target="_top" xlink:title="Ordered&#45;vector tree.">
<polygon fill="white" stroke="#666666" points="853.5,-445 724.5,-445 724.5,-427 853.5,-427 853.5,-445"/>
<text text-anchor="middle" x="789" y="-433.8" font-family="Helvetica,sans-Serif" font-size="9.00">__gnu_pbds::ov_tree_tag</text>
</a>
</g>
</g>
<!-- Node3&#45;&gt;Node4 -->
<g id="edge96_Node000003_Node000004" class="edge">
<title>Node3&#45;&gt;Node4</title>
<g id="a_edge96_Node000003_Node000004"><a xlink:title=" ">
<path fill="none" stroke="#63b8ff" d="M659.66,-402.63C677.71,-407.42 698.86,-413.01 718,-418 729.29,-420.95 741.62,-424.13 752.74,-426.98"/>
<polygon fill="#63b8ff" stroke="#63b8ff" points="660.55,-399.24 649.98,-400.06 658.75,-406.01 660.55,-399.24"/>
</a>
</g>
</g>
<!-- Node5 -->
<g id="Node000005" class="node">
<title>Node5</title>
<g id="a_Node000005"><a xlink:href="a12845.html" target="_top" xlink:title="Red&#45;black tree.">
<polygon fill="white" stroke="#666666" points="853,-409 725,-409 725,-391 853,-391 853,-409"/>
<text text-anchor="middle" x="789" y="-397.8" font-family="Helvetica,sans-Serif" font-size="9.00">__gnu_pbds::rb_tree_tag</text>
</a>
</g>
</g>
<!-- Node3&#45;&gt;Node5 -->
<g id="edge97_Node000003_Node000005" class="edge">
<title>Node3&#45;&gt;Node5</title>
<g id="a_edge97_Node000003_Node000005"><a xlink:title=" ">
<path fill="none" stroke="#63b8ff" d="M682.31,-394.47C696.24,-395.2 710.89,-395.97 724.71,-396.69"/>
<polygon fill="#63b8ff" stroke="#63b8ff" points="682.49,-390.97 672.32,-393.95 682.12,-397.96 682.49,-390.97"/>
</a>
</g>
</g>
<!-- Node6 -->
<g id="Node000006" class="node">
<title>Node6</title>
<g id="a_Node000006"><a xlink:href="a12849.html" target="_top" xlink:title="Splay tree.">
<polygon fill="white" stroke="#666666" points="860,-373 718,-373 718,-355 860,-355 860,-373"/>
<text text-anchor="middle" x="789" y="-361.8" font-family="Helvetica,sans-Serif" font-size="9.00">__gnu_pbds::splay_tree_tag</text>
</a>
</g>
</g>
<!-- Node3&#45;&gt;Node6 -->
<g id="edge98_Node000003_Node000006" class="edge">
<title>Node3&#45;&gt;Node6</title>
<g id="a_edge98_Node000003_Node000006"><a xlink:title=" ">
<path fill="none" stroke="#63b8ff" d="M682.53,-380.56C698.32,-378.08 715.03,-375.46 730.38,-373.05"/>
<polygon fill="#63b8ff" stroke="#63b8ff" points="681.66,-377.15 672.32,-382.16 682.74,-384.07 681.66,-377.15"/>
</a>
</g>
</g>
<!-- Node8 -->
<g id="Node000008" class="node">
<title>Node8</title>
<g id="a_Node000008"><a xlink:href="a12861.html" target="_top" xlink:title="PATRICIA trie.">
<polygon fill="white" stroke="#666666" points="854.5,-337 723.5,-337 723.5,-319 854.5,-319 854.5,-337"/>
<text text-anchor="middle" x="789" y="-325.8" font-family="Helvetica,sans-Serif" font-size="9.00">__gnu_pbds::pat_trie_tag</text>
</a>
</g>
</g>
<!-- Node7&#45;&gt;Node8 -->
<g id="edge100_Node000007_Node000008" class="edge">
<title>Node7&#45;&gt;Node8</title>
<g id="a_edge100_Node000007_Node000008"><a xlink:title=" ">
<path fill="none" stroke="#63b8ff" d="M681.28,-333.58C695.08,-332.86 709.65,-332.1 723.42,-331.38"/>
<polygon fill="#63b8ff" stroke="#63b8ff" points="680.7,-330.11 670.89,-334.13 681.06,-337.1 680.7,-330.11"/>
</a>
</g>
</g>
<!-- Node10 -->
<g id="Node000010" class="node">
<title>Node10</title>
<g id="a_Node000010"><a xlink:href="a12829.html" target="_top" xlink:title="Collision&#45;chaining hash.">
<polygon fill="white" stroke="#666666" points="681.5,-310 548.5,-310 548.5,-292 681.5,-292 681.5,-310"/>
<text text-anchor="middle" x="615" y="-298.8" font-family="Helvetica,sans-Serif" font-size="9.00">__gnu_pbds::cc_hash_tag</text>
</a>
</g>
</g>
<!-- Node9&#45;&gt;Node10 -->
<g id="edge102_Node000009_Node000010" class="edge">
<title>Node9&#45;&gt;Node10</title>
<g id="a_edge102_Node000009_Node000010"><a xlink:title=" ">
<path fill="none" stroke="#63b8ff" d="M517.07,-301C527.59,-301 538.26,-301 548.48,-301"/>
<polygon fill="#63b8ff" stroke="#63b8ff" points="517.03,-297.5 507.03,-301 517.03,-304.5 517.03,-297.5"/>
</a>
</g>
</g>
<!-- Node11 -->
<g id="Node000011" class="node">
<title>Node11</title>
<g id="a_Node000011"><a xlink:href="a12833.html" target="_top" xlink:title="General&#45;probing hash.">
<polygon fill="white" stroke="#666666" points="682,-274 548,-274 548,-256 682,-256 682,-274"/>
<text text-anchor="middle" x="615" y="-262.8" font-family="Helvetica,sans-Serif" font-size="9.00">__gnu_pbds::gp_hash_tag</text>
</a>
</g>
</g>
<!-- Node9&#45;&gt;Node11 -->
<g id="edge103_Node000009_Node000011" class="edge">
<title>Node9&#45;&gt;Node11</title>
<g id="a_edge103_Node000009_Node000011"><a xlink:title=" ">
<path fill="none" stroke="#63b8ff" d="M490.02,-289.93C515.41,-284.83 545.16,-278.84 569.16,-274.02"/>
<polygon fill="#63b8ff" stroke="#63b8ff" points="489.28,-286.51 480.17,-291.92 490.66,-293.38 489.28,-286.51"/>
</a>
</g>
</g>
<!-- Node14 -->
<g id="Node000014" class="node">
<title>Node14</title>
<g id="a_Node000014"><a xlink:href="a12885.html" target="_top" xlink:title="Binary&#45;heap (array&#45;based).">
<polygon fill="white" stroke="#666666" points="486.5,-238 381.5,-238 381.5,-210 486.5,-210 486.5,-238"/>
<text text-anchor="start" x="389.5" y="-226.8" font-family="Helvetica,sans-Serif" font-size="9.00">__gnu_pbds::binary</text>
<text text-anchor="middle" x="434" y="-216.8" font-family="Helvetica,sans-Serif" font-size="9.00">_heap_tag</text>
</a>
</g>
</g>
<!-- Node13&#45;&gt;Node14 -->
<g id="edge106_Node000013_Node000014" class="edge">
<title>Node13&#45;&gt;Node14</title>
<g id="a_edge106_Node000013_Node000014"><a xlink:title=" ">
<path fill="none" stroke="#63b8ff" d="M275.11,-152.09C296.16,-167.22 326.77,-187.58 356,-201 363.99,-204.67 372.71,-207.92 381.31,-210.75"/>
<polygon fill="#63b8ff" stroke="#63b8ff" points="277.13,-149.23 266.99,-146.17 273.01,-154.89 277.13,-149.23"/>
</a>
</g>
</g>
<!-- Node15 -->
<g id="Node000015" class="node">
<title>Node15</title>
<g id="a_Node000015"><a xlink:href="a12877.html" target="_top" xlink:title="Binomial&#45;heap.">
<polygon fill="white" stroke="#666666" points="491.5,-192 376.5,-192 376.5,-164 491.5,-164 491.5,-192"/>
<text text-anchor="start" x="384.5" y="-180.8" font-family="Helvetica,sans-Serif" font-size="9.00">__gnu_pbds::binomial</text>
<text text-anchor="middle" x="434" y="-170.8" font-family="Helvetica,sans-Serif" font-size="9.00">_heap_tag</text>
</a>
</g>
</g>
<!-- Node13&#45;&gt;Node15 -->
<g id="edge107_Node000013_Node000015" class="edge">
<title>Node13&#45;&gt;Node15</title>
<g id="a_edge107_Node000013_Node000015"><a xlink:title=" ">
<path fill="none" stroke="#63b8ff" d="M312.16,-147.87C333.19,-153.11 356.41,-158.9 376.83,-163.99"/>
<polygon fill="#63b8ff" stroke="#63b8ff" points="312.91,-144.45 302.36,-145.43 311.22,-151.24 312.91,-144.45"/>
</a>
</g>
</g>
<!-- Node16 -->
<g id="Node000016" class="node">
<title>Node16</title>
<g id="a_Node000016"><a xlink:href="a12873.html" target="_top" xlink:title="Pairing&#45;heap.">
<polygon fill="white" stroke="#666666" points="488,-146 380,-146 380,-118 488,-118 488,-146"/>
<text text-anchor="start" x="388" y="-134.8" font-family="Helvetica,sans-Serif" font-size="9.00">__gnu_pbds::pairing</text>
<text text-anchor="middle" x="434" y="-124.8" font-family="Helvetica,sans-Serif" font-size="9.00">_heap_tag</text>
</a>
</g>
</g>
<!-- Node13&#45;&gt;Node16 -->
<g id="edge108_Node000013_Node000016" class="edge">
<title>Node13&#45;&gt;Node16</title>
<g id="a_edge108_Node000013_Node000016"><a xlink:title=" ">
<path fill="none" stroke="#63b8ff" d="M312.57,-132C334.48,-132 358.74,-132 379.71,-132"/>
<polygon fill="#63b8ff" stroke="#63b8ff" points="312.36,-128.5 302.36,-132 312.36,-135.5 312.36,-128.5"/>
</a>
</g>
</g>
<!-- Node17 -->
<g id="Node000017" class="node">
<title>Node17</title>
<g id="a_Node000017"><a xlink:href="a12881.html" target="_top" xlink:title="Redundant&#45;counter binomial&#45;heap.">
<polygon fill="white" stroke="#666666" points="498,-100 370,-100 370,-72 498,-72 498,-100"/>
<text text-anchor="start" x="378" y="-88.8" font-family="Helvetica,sans-Serif" font-size="9.00">__gnu_pbds::rc_binomial</text>
<text text-anchor="middle" x="434" y="-78.8" font-family="Helvetica,sans-Serif" font-size="9.00">_heap_tag</text>
</a>
</g>
</g>
<!-- Node13&#45;&gt;Node17 -->
<g id="edge109_Node000013_Node000017" class="edge">
<title>Node13&#45;&gt;Node17</title>
<g id="a_edge109_Node000013_Node000017"><a xlink:title=" ">
<path fill="none" stroke="#63b8ff" d="M312.16,-116.13C333.19,-110.89 356.41,-105.1 376.83,-100.01"/>
<polygon fill="#63b8ff" stroke="#63b8ff" points="311.22,-112.76 302.36,-118.57 312.91,-119.55 311.22,-112.76"/>
</a>
</g>
</g>
<!-- Node18 -->
<g id="Node000018" class="node">
<title>Node18</title>
<g id="a_Node000018"><a xlink:href="a12889.html" target="_top" xlink:title="Thin heap.">
<polygon fill="white" stroke="#666666" points="504.5,-54 363.5,-54 363.5,-36 504.5,-36 504.5,-54"/>
<text text-anchor="middle" x="434" y="-42.8" font-family="Helvetica,sans-Serif" font-size="9.00">__gnu_pbds::thin_heap_tag</text>
</a>
</g>
</g>
<!-- Node13&#45;&gt;Node18 -->
<g id="edge110_Node000013_Node000018" class="edge">
<title>Node13&#45;&gt;Node18</title>
<g id="a_edge110_Node000013_Node000018"><a xlink:title=" ">
<path fill="none" stroke="#63b8ff" d="M274.51,-111.68C295.45,-96.25 326.2,-75.6 356,-63 364.47,-59.42 373.78,-56.48 382.91,-54.09"/>
<polygon fill="#63b8ff" stroke="#63b8ff" points="272.35,-108.93 266.45,-117.73 276.55,-114.53 272.35,-108.93"/>
</a>
</g>
</g>
<!-- Node20 -->
<g id="Node000020" class="node">
<title>Node20</title>
<g id="a_Node000020"><a xlink:href="a12817.html" target="_top" xlink:title="Basic string container, inclusive of strings, ropes, etc.">
<polygon fill="white" stroke="#666666" points="495,-18 373,-18 373,0 495,0 495,-18"/>
<text text-anchor="middle" x="434" y="-6.8" font-family="Helvetica,sans-Serif" font-size="9.00">__gnu_pbds::string_tag</text>
</a>
</g>
</g>
<!-- Node19&#45;&gt;Node20 -->
<g id="edge112_Node000019_Node000020" class="edge">
<title>Node19&#45;&gt;Node20</title>
<g id="a_edge112_Node000019_Node000020"><a xlink:title=" ">
<path fill="none" stroke="#63b8ff" d="M299.5,-38.67C328.82,-32.15 365.13,-24.08 392.49,-18"/>
<polygon fill="#63b8ff" stroke="#63b8ff" points="298.45,-35.31 289.45,-40.9 299.97,-42.15 298.45,-35.31"/>
</a>
</g>
</g>
</g>
</svg>
