<?xml version="1.0" encoding="UTF-8" standalone="no"?>
<!DOCTYPE svg PUBLIC "-//W3C//DTD SVG 1.1//EN"
 "http://www.w3.org/Graphics/SVG/1.1/DTD/svg11.dtd">
<!-- Generated by graphviz version 2.43.0 (0)
 -->
<!-- Title: Graphical Class Hierarchy Pages: 1 -->
<svg width="321pt" height="128pt"
 viewBox="0.00 0.00 321.00 128.00" xmlns="http://www.w3.org/2000/svg" xmlns:xlink="http://www.w3.org/1999/xlink">
<g id="graph0" class="graph" transform="scale(1 1) rotate(0) translate(4 124)">
<title>Graphical Class Hierarchy</title>
<!-- Node0 -->
<g id="Node000000" class="node">
<title>Node0</title>
<g id="a_Node000000"><a xlink:href="a06313.html" target="_top" xlink:title="Class memory_resource.">
<polygon fill="white" stroke="#666666" points="143,-69 0,-69 0,-51 143,-51 143,-69"/>
<text text-anchor="middle" x="71.5" y="-57.8" font-family="Helvetica,sans-Serif" font-size="9.00">std::pmr::memory_resource</text>
</a>
</g>
</g>
<!-- Node1 -->
<g id="Node000001" class="node">
<title>Node1</title>
<g id="a_Node000001"><a xlink:href="a02921.html" target="_top" xlink:title="A memory resource that allocates from a fixed&#45;size buffer.">
<polygon fill="white" stroke="#666666" points="301,-120 191,-120 191,-92 301,-92 301,-120"/>
<text text-anchor="start" x="199" y="-108.8" font-family="Helvetica,sans-Serif" font-size="9.00">std::pmr::monotonic</text>
<text text-anchor="middle" x="246" y="-98.8" font-family="Helvetica,sans-Serif" font-size="9.00">_buffer_resource</text>
</a>
</g>
</g>
<!-- Node0&#45;&gt;Node1 -->
<g id="edge444_Node000000_Node000001" class="edge">
<title>Node0&#45;&gt;Node1</title>
<g id="a_edge444_Node000000_Node000001"><a xlink:title=" ">
<path fill="none" stroke="#63b8ff" d="M116.45,-71.72C139.55,-77.88 168.03,-85.47 192.31,-91.95"/>
<polygon fill="#63b8ff" stroke="#63b8ff" points="117.14,-68.28 106.58,-69.09 115.34,-75.05 117.14,-68.28"/>
</a>
</g>
</g>
<!-- Node2 -->
<g id="Node000002" class="node">
<title>Node2</title>
<g id="a_Node000002"><a xlink:href="a02913.html" target="_top" xlink:title="A thread&#45;safe memory resource that manages pools of fixed&#45;size blocks.">
<polygon fill="white" stroke="#666666" points="307,-74 185,-74 185,-46 307,-46 307,-74"/>
<text text-anchor="start" x="193" y="-62.8" font-family="Helvetica,sans-Serif" font-size="9.00">std::pmr::synchronized</text>
<text text-anchor="middle" x="246" y="-52.8" font-family="Helvetica,sans-Serif" font-size="9.00">_pool_resource</text>
</a>
</g>
</g>
<!-- Node0&#45;&gt;Node2 -->
<g id="edge445_Node000000_Node000002" class="edge">
<title>Node0&#45;&gt;Node2</title>
<g id="a_edge445_Node000000_Node000002"><a xlink:title=" ">
<path fill="none" stroke="#63b8ff" d="M153.31,-60C163.95,-60 174.71,-60 184.92,-60"/>
<polygon fill="#63b8ff" stroke="#63b8ff" points="153.16,-56.5 143.16,-60 153.16,-63.5 153.16,-56.5"/>
</a>
</g>
</g>
<!-- Node3 -->
<g id="Node000003" class="node">
<title>Node3</title>
<g id="a_Node000003"><a xlink:href="a02917.html" target="_top" xlink:title="A non&#45;thread&#45;safe memory resource that manages pools of fixed&#45;size blocks.">
<polygon fill="white" stroke="#666666" points="313,-28 179,-28 179,0 313,0 313,-28"/>
<text text-anchor="start" x="187" y="-16.8" font-family="Helvetica,sans-Serif" font-size="9.00">std::pmr::unsynchronized</text>
<text text-anchor="middle" x="246" y="-6.8" font-family="Helvetica,sans-Serif" font-size="9.00">_pool_resource</text>
</a>
</g>
</g>
<!-- Node0&#45;&gt;Node3 -->
<g id="edge446_Node000000_Node000003" class="edge">
<title>Node0&#45;&gt;Node3</title>
<g id="a_edge446_Node000000_Node000003"><a xlink:title=" ">
<path fill="none" stroke="#63b8ff" d="M116.45,-48.28C139.55,-42.12 168.03,-34.53 192.31,-28.05"/>
<polygon fill="#63b8ff" stroke="#63b8ff" points="115.34,-44.95 106.58,-50.91 117.14,-51.72 115.34,-44.95"/>
</a>
</g>
</g>
</g>
</svg>
