<?xml version="1.0" encoding="UTF-8" standalone="no"?>
<!DOCTYPE svg PUBLIC "-//W3C//DTD SVG 1.1//EN"
 "http://www.w3.org/Graphics/SVG/1.1/DTD/svg11.dtd">
<!-- Generated by graphviz version 2.43.0 (0)
 -->
<!-- Title: Graphical Class Hierarchy Pages: 1 -->
<svg width="312pt" height="174pt"
 viewBox="0.00 0.00 312.00 174.00" xmlns="http://www.w3.org/2000/svg" xmlns:xlink="http://www.w3.org/1999/xlink">
<g id="graph0" class="graph" transform="scale(1 1) rotate(0) translate(4 170)">
<title>Graphical Class Hierarchy</title>
<!-- Node0 -->
<g id="Node000000" class="node">
<title>Node0</title>
<g id="a_Node000000"><a xlink:href="a08041.html" target="_top" xlink:title=" ">
<polygon fill="white" stroke="#666666" points="107,-97 0,-97 0,-69 107,-69 107,-97"/>
<text text-anchor="start" x="8" y="-85.8" font-family="Helvetica,sans-Serif" font-size="9.00">std::binary_function</text>
<text text-anchor="middle" x="53.5" y="-75.8" font-family="Helvetica,sans-Serif" font-size="9.00">&lt; _T1, _T2, bool &gt;</text>
</a>
</g>
</g>
<!-- Node1 -->
<g id="Node000001" class="node">
<title>Node1</title>
<g id="a_Node000001"><a xlink:href="a09905.html" target="_top" xlink:title="Constructs predicate for equality from strict weak ordering predicate.">
<polygon fill="white" stroke="#666666" points="296,-166 151,-166 151,-138 296,-138 296,-166"/>
<text text-anchor="start" x="159" y="-154.8" font-family="Helvetica,sans-Serif" font-size="9.00">__gnu_parallel::_EqualFrom</text>
<text text-anchor="middle" x="223.5" y="-144.8" font-family="Helvetica,sans-Serif" font-size="9.00">Less&lt; _T1, _T2, _Compare &gt;</text>
</a>
</g>
</g>
<!-- Node0&#45;&gt;Node1 -->
<g id="edge240_Node000000_Node000001" class="edge">
<title>Node0&#45;&gt;Node1</title>
<g id="a_edge240_Node000000_Node000001"><a xlink:title=" ">
<path fill="none" stroke="#63b8ff" d="M87.44,-102.11C103.79,-111.07 124.05,-121.42 143,-129 151.14,-132.25 159.91,-135.26 168.56,-137.96"/>
<polygon fill="#63b8ff" stroke="#63b8ff" points="88.75,-98.83 78.31,-97.02 85.34,-104.94 88.75,-98.83"/>
</a>
</g>
</g>
<!-- Node2 -->
<g id="Node000002" class="node">
<title>Node2</title>
<g id="a_Node000002"><a xlink:href="a09921.html" target="_top" xlink:title="Similar to std::equal_to, but allows two different types.">
<polygon fill="white" stroke="#666666" points="286,-120 161,-120 161,-92 286,-92 286,-120"/>
<text text-anchor="start" x="169" y="-108.8" font-family="Helvetica,sans-Serif" font-size="9.00">__gnu_parallel::_EqualTo</text>
<text text-anchor="middle" x="223.5" y="-98.8" font-family="Helvetica,sans-Serif" font-size="9.00">&lt; _T1, _T2 &gt;</text>
</a>
</g>
</g>
<!-- Node0&#45;&gt;Node2 -->
<g id="edge241_Node000000_Node000002" class="edge">
<title>Node0&#45;&gt;Node2</title>
<g id="a_edge241_Node000000_Node000002"><a xlink:title=" ">
<path fill="none" stroke="#63b8ff" d="M117.38,-91.61C131.61,-93.56 146.71,-95.62 160.88,-97.56"/>
<polygon fill="#63b8ff" stroke="#63b8ff" points="117.58,-88.1 107.2,-90.21 116.63,-95.04 117.58,-88.1"/>
</a>
</g>
</g>
<!-- Node3 -->
<g id="Node000003" class="node">
<title>Node3</title>
<g id="a_Node000003"><a xlink:href="a09925.html" target="_top" xlink:title="Similar to std::less, but allows two different types.">
<polygon fill="white" stroke="#666666" points="278.5,-74 168.5,-74 168.5,-46 278.5,-46 278.5,-74"/>
<text text-anchor="start" x="176.5" y="-62.8" font-family="Helvetica,sans-Serif" font-size="9.00">__gnu_parallel::_Less</text>
<text text-anchor="middle" x="223.5" y="-52.8" font-family="Helvetica,sans-Serif" font-size="9.00">&lt; _T1, _T2 &gt;</text>
</a>
</g>
</g>
<!-- Node0&#45;&gt;Node3 -->
<g id="edge242_Node000000_Node000003" class="edge">
<title>Node0&#45;&gt;Node3</title>
<g id="a_edge242_Node000000_Node000003"><a xlink:title=" ">
<path fill="none" stroke="#63b8ff" d="M117.42,-74.39C134.14,-72.1 152.05,-69.65 168.25,-67.43"/>
<polygon fill="#63b8ff" stroke="#63b8ff" points="116.63,-70.96 107.2,-75.79 117.58,-77.9 116.63,-70.96"/>
</a>
</g>
</g>
<!-- Node4 -->
<g id="Node000004" class="node">
<title>Node4</title>
<g id="a_Node000004"><a xlink:href="a10129.html" target="_top" xlink:title="Compare __a pair of types lexicographically, descending.">
<polygon fill="white" stroke="#666666" points="304,-28 143,-28 143,0 304,0 304,-28"/>
<text text-anchor="start" x="151" y="-16.8" font-family="Helvetica,sans-Serif" font-size="9.00">__gnu_parallel::_Lexicographic</text>
<text text-anchor="middle" x="223.5" y="-6.8" font-family="Helvetica,sans-Serif" font-size="9.00">Reverse&lt; _T1, _T2, _Compare &gt;</text>
</a>
</g>
</g>
<!-- Node0&#45;&gt;Node4 -->
<g id="edge243_Node000000_Node000004" class="edge">
<title>Node0&#45;&gt;Node4</title>
<g id="a_edge243_Node000000_Node000004"><a xlink:title=" ">
<path fill="none" stroke="#63b8ff" d="M87.44,-63.89C103.79,-54.93 124.05,-44.58 143,-37 151.14,-33.75 159.91,-30.74 168.56,-28.04"/>
<polygon fill="#63b8ff" stroke="#63b8ff" points="85.34,-61.06 78.31,-68.98 88.75,-67.17 85.34,-61.06"/>
</a>
</g>
</g>
</g>
</svg>
