<?xml version="1.0" encoding="UTF-8" standalone="no"?>
<!DOCTYPE svg PUBLIC "-//W3C//DTD SVG 1.1//EN"
 "http://www.w3.org/Graphics/SVG/1.1/DTD/svg11.dtd">
<!-- Generated by graphviz version 2.43.0 (0)
 -->
<!-- Title: Graphical Class Hierarchy Pages: 1 -->
<svg width="336pt" height="82pt"
 viewBox="0.00 0.00 336.00 82.00" xmlns="http://www.w3.org/2000/svg" xmlns:xlink="http://www.w3.org/1999/xlink">
<g id="graph0" class="graph" transform="scale(1 1) rotate(0) translate(4 78)">
<title>Graphical Class Hierarchy</title>
<!-- Node0 -->
<g id="Node000000" class="node">
<title>Node0</title>
<g id="a_Node000000"><a xlink:href="a06349.html" target="_top" xlink:title=" ">
<polygon fill="white" stroke="#666666" points="144,-51 0,-51 0,-23 144,-23 144,-51"/>
<text text-anchor="start" x="8" y="-39.8" font-family="Helvetica,sans-Serif" font-size="9.00">std::_Node_handle_common</text>
<text text-anchor="middle" x="72" y="-29.8" font-family="Helvetica,sans-Serif" font-size="9.00">&lt; _Value, _NodeAlloc &gt;</text>
</a>
</g>
</g>
<!-- Node1 -->
<g id="Node000001" class="node">
<title>Node1</title>
<g id="a_Node000001"><a xlink:href="a06353.html" target="_top" xlink:title="Node handle type for maps.">
<polygon fill="white" stroke="#666666" points="324,-74 184,-74 184,-46 324,-46 324,-74"/>
<text text-anchor="start" x="192" y="-62.8" font-family="Helvetica,sans-Serif" font-size="9.00">std::_Node_handle&lt;</text>
<text text-anchor="middle" x="254" y="-52.8" font-family="Helvetica,sans-Serif" font-size="9.00"> _Key, _Value, _NodeAlloc &gt;</text>
</a>
</g>
</g>
<!-- Node0&#45;&gt;Node1 -->
<g id="edge181_Node000000_Node000001" class="edge">
<title>Node0&#45;&gt;Node1</title>
<g id="a_edge181_Node000000_Node000001"><a xlink:title=" ">
<path fill="none" stroke="#63b8ff" d="M154.34,-47.39C164.19,-48.65 174.19,-49.93 183.85,-51.16"/>
<polygon fill="#63b8ff" stroke="#63b8ff" points="154.5,-43.89 144.14,-46.09 153.62,-50.83 154.5,-43.89"/>
</a>
</g>
</g>
<!-- Node2 -->
<g id="Node000002" class="node">
<title>Node2</title>
<g id="a_Node000002"><a xlink:href="a06357.html" target="_top" xlink:title="Node handle type for sets.">
<polygon fill="white" stroke="#666666" points="328,-28 180,-28 180,0 328,0 328,-28"/>
<text text-anchor="start" x="188" y="-16.8" font-family="Helvetica,sans-Serif" font-size="9.00">std::_Node_handle&lt;</text>
<text text-anchor="middle" x="254" y="-6.8" font-family="Helvetica,sans-Serif" font-size="9.00"> _Value, _Value, _NodeAlloc &gt;</text>
</a>
</g>
</g>
<!-- Node0&#45;&gt;Node2 -->
<g id="edge182_Node000000_Node000002" class="edge">
<title>Node0&#45;&gt;Node2</title>
<g id="a_edge182_Node000000_Node000002"><a xlink:title=" ">
<path fill="none" stroke="#63b8ff" d="M154.09,-26.64C162.63,-25.55 171.28,-24.44 179.72,-23.36"/>
<polygon fill="#63b8ff" stroke="#63b8ff" points="153.62,-23.17 144.14,-27.91 154.5,-30.11 153.62,-23.17"/>
</a>
</g>
</g>
</g>
</svg>
