<?xml version="1.0" encoding="UTF-8" standalone="no"?>
<!DOCTYPE svg PUBLIC "-//W3C//DTD SVG 1.1//EN"
 "http://www.w3.org/Graphics/SVG/1.1/DTD/svg11.dtd">
<!-- Generated by graphviz version 2.43.0 (0)
 -->
<!-- Title: Graphical Class Hierarchy Pages: 1 -->
<svg width="264pt" height="102pt"
 viewBox="0.00 0.00 264.00 102.00" xmlns="http://www.w3.org/2000/svg" xmlns:xlink="http://www.w3.org/1999/xlink">
<g id="graph0" class="graph" transform="scale(1 1) rotate(0) translate(4 98)">
<title>Graphical Class Hierarchy</title>
<!-- Node0 -->
<g id="Node000000" class="node">
<title>Node0</title>
<g id="a_Node000000"><a xlink:href="a13129.html" target="_top" xlink:title="Stored hash.">
<polygon fill="white" stroke="#666666" points="115,-89 1,-89 1,-61 115,-61 115,-89"/>
<text text-anchor="start" x="9" y="-77.8" font-family="Helvetica,sans-Serif" font-size="9.00">__gnu_pbds::detail</text>
<text text-anchor="middle" x="58" y="-67.8" font-family="Helvetica,sans-Serif" font-size="9.00">::stored_hash&lt; _Th &gt;</text>
</a>
</g>
</g>
<!-- Node1 -->
<g id="Node000001" class="node">
<title>Node1</title>
<g id="a_Node000001"><a xlink:href="a13133.html" target="_top" xlink:title="Primary template for representation of stored data. Two types of data can be stored: value and hash.">
<polygon fill="white" stroke="#666666" points="256,-94 152,-94 152,-56 256,-56 256,-94"/>
<text text-anchor="start" x="160" y="-82.8" font-family="Helvetica,sans-Serif" font-size="9.00">__gnu_pbds::detail</text>
<text text-anchor="start" x="160" y="-72.8" font-family="Helvetica,sans-Serif" font-size="9.00">::stored_data&lt; _Tv,</text>
<text text-anchor="middle" x="204" y="-62.8" font-family="Helvetica,sans-Serif" font-size="9.00"> _Th, Store_Hash &gt;</text>
</a>
</g>
</g>
<!-- Node0&#45;&gt;Node1 -->
<g id="edge154_Node000000_Node000001" class="edge">
<title>Node0&#45;&gt;Node1</title>
<g id="a_edge154_Node000000_Node000001"><a xlink:title=" ">
<path fill="none" stroke="#63b8ff" d="M125.18,-75C134.18,-75 143.32,-75 152,-75"/>
<polygon fill="#63b8ff" stroke="#63b8ff" points="125.09,-71.5 115.09,-75 125.09,-78.5 125.09,-71.5"/>
</a>
</g>
</g>
<!-- Node2 -->
<g id="Node000002" class="node">
<title>Node2</title>
<g id="a_Node000002"><a xlink:href="a13125.html" target="_top" xlink:title="Stored value.">
<polygon fill="white" stroke="#666666" points="116,-38 0,-38 0,-10 116,-10 116,-38"/>
<text text-anchor="start" x="8" y="-26.8" font-family="Helvetica,sans-Serif" font-size="9.00">__gnu_pbds::detail</text>
<text text-anchor="middle" x="58" y="-16.8" font-family="Helvetica,sans-Serif" font-size="9.00">::stored_value&lt; _Tv &gt;</text>
</a>
</g>
</g>
<!-- Node2&#45;&gt;Node1 -->
<g id="edge155_Node000002_Node000001" class="edge">
<title>Node2&#45;&gt;Node1</title>
<g id="a_edge155_Node000002_Node000001"><a xlink:title=" ">
<path fill="none" stroke="#63b8ff" d="M108.22,-41.43C122.27,-46.41 137.62,-51.84 151.78,-56.86"/>
<polygon fill="#63b8ff" stroke="#63b8ff" points="109.32,-38.11 98.73,-38.07 106.99,-44.71 109.32,-38.11"/>
</a>
</g>
</g>
<!-- Node3 -->
<g id="Node000003" class="node">
<title>Node3</title>
<g id="a_Node000003"><a xlink:href="a13137.html" target="_top" xlink:title="Specialization for representation of stored data of just value type.">
<polygon fill="white" stroke="#666666" points="256,-38 152,-38 152,0 256,0 256,-38"/>
<text text-anchor="start" x="160" y="-26.8" font-family="Helvetica,sans-Serif" font-size="9.00">__gnu_pbds::detail</text>
<text text-anchor="start" x="160" y="-16.8" font-family="Helvetica,sans-Serif" font-size="9.00">::stored_data&lt; _Tv,</text>
<text text-anchor="middle" x="204" y="-6.8" font-family="Helvetica,sans-Serif" font-size="9.00"> _Th, false &gt;</text>
</a>
</g>
</g>
<!-- Node2&#45;&gt;Node3 -->
<g id="edge156_Node000002_Node000003" class="edge">
<title>Node2&#45;&gt;Node3</title>
<g id="a_edge156_Node000002_Node000003"><a xlink:title=" ">
<path fill="none" stroke="#63b8ff" d="M126.35,-21.66C134.95,-21.36 143.64,-21.06 151.93,-20.77"/>
<polygon fill="#63b8ff" stroke="#63b8ff" points="126.2,-18.16 116.33,-22.01 126.44,-25.16 126.2,-18.16"/>
</a>
</g>
</g>
</g>
</svg>
