<?xml version="1.0" encoding="UTF-8" standalone="no"?>
<!DOCTYPE svg PUBLIC "-//W3C//DTD SVG 1.1//EN"
 "http://www.w3.org/Graphics/SVG/1.1/DTD/svg11.dtd">
<!-- Generated by graphviz version 2.43.0 (0)
 -->
<!-- Title: Graphical Class Hierarchy Pages: 1 -->
<svg width="359pt" height="102pt"
 viewBox="0.00 0.00 359.00 102.00" xmlns="http://www.w3.org/2000/svg" xmlns:xlink="http://www.w3.org/1999/xlink">
<g id="graph0" class="graph" transform="scale(1 1) rotate(0) translate(4 98)">
<title>Graphical Class Hierarchy</title>
<!-- Node0 -->
<g id="Node000000" class="node">
<title>Node0</title>
<g id="a_Node000000"><a xlink:href="a10093.html" target="_top" xlink:title="Base class for unguarded _LoserTree implementation.">
<polygon fill="white" stroke="#666666" points="176,-61 0,-61 0,-33 176,-33 176,-61"/>
<text text-anchor="start" x="8" y="-49.8" font-family="Helvetica,sans-Serif" font-size="9.00">__gnu_parallel::_LoserTree</text>
<text text-anchor="middle" x="88" y="-39.8" font-family="Helvetica,sans-Serif" font-size="9.00">UnguardedBase&lt; _Tp, _Compare &gt;</text>
</a>
</g>
</g>
<!-- Node1 -->
<g id="Node000001" class="node">
<title>Node1</title>
<g id="a_Node000001"><a xlink:href="a10101.html" target="_top" xlink:title="Stable implementation of unguarded _LoserTree.">
<polygon fill="white" stroke="#666666" points="351,-94 212,-94 212,-56 351,-56 351,-94"/>
<text text-anchor="start" x="220" y="-82.8" font-family="Helvetica,sans-Serif" font-size="9.00">__gnu_parallel::_LoserTree</text>
<text text-anchor="start" x="220" y="-72.8" font-family="Helvetica,sans-Serif" font-size="9.00">Unguarded&lt; __stable, _Tp,</text>
<text text-anchor="middle" x="281.5" y="-62.8" font-family="Helvetica,sans-Serif" font-size="9.00"> _Compare &gt;</text>
</a>
</g>
</g>
<!-- Node0&#45;&gt;Node1 -->
<g id="edge70_Node000000_Node000001" class="edge">
<title>Node0&#45;&gt;Node1</title>
<g id="a_edge70_Node000000_Node000001"><a xlink:title=" ">
<path fill="none" stroke="#63b8ff" d="M186.18,-61.21C194.8,-62.47 203.41,-63.73 211.72,-64.94"/>
<polygon fill="#63b8ff" stroke="#63b8ff" points="186.47,-57.71 176.06,-59.73 185.45,-64.64 186.47,-57.71"/>
</a>
</g>
</g>
<!-- Node2 -->
<g id="Node000002" class="node">
<title>Node2</title>
<g id="a_Node000002"><a xlink:href="a10105.html" target="_top" xlink:title="Non&#45;Stable implementation of unguarded _LoserTree.">
<polygon fill="white" stroke="#666666" points="348,-38 215,-38 215,0 348,0 348,-38"/>
<text text-anchor="start" x="223" y="-26.8" font-family="Helvetica,sans-Serif" font-size="9.00">__gnu_parallel::_LoserTree</text>
<text text-anchor="start" x="223" y="-16.8" font-family="Helvetica,sans-Serif" font-size="9.00">Unguarded&lt; false, _Tp,</text>
<text text-anchor="middle" x="281.5" y="-6.8" font-family="Helvetica,sans-Serif" font-size="9.00"> _Compare &gt;</text>
</a>
</g>
</g>
<!-- Node0&#45;&gt;Node2 -->
<g id="edge71_Node000000_Node000002" class="edge">
<title>Node0&#45;&gt;Node2</title>
<g id="a_edge71_Node000000_Node000002"><a xlink:title=" ">
<path fill="none" stroke="#63b8ff" d="M186.18,-32.79C195.89,-31.37 205.59,-29.95 214.86,-28.6"/>
<polygon fill="#63b8ff" stroke="#63b8ff" points="185.45,-29.36 176.06,-34.27 186.47,-36.29 185.45,-29.36"/>
</a>
</g>
</g>
</g>
</svg>
