<?xml version="1.0" encoding="UTF-8" standalone="no"?>
<!DOCTYPE svg PUBLIC "-//W3C//DTD SVG 1.1//EN"
 "http://www.w3.org/Graphics/SVG/1.1/DTD/svg11.dtd">
<!-- Generated by graphviz version 2.43.0 (0)
 -->
<!-- Title: Graphical Class Hierarchy Pages: 1 -->
<svg width="275pt" height="298pt"
 viewBox="0.00 0.00 275.00 298.00" xmlns="http://www.w3.org/2000/svg" xmlns:xlink="http://www.w3.org/1999/xlink">
<g id="graph0" class="graph" transform="scale(1 1) rotate(0) translate(4 294)">
<title>Graphical Class Hierarchy</title>
<!-- Node0 -->
<g id="Node000000" class="node">
<title>Node0</title>
<g id="a_Node000000"><a xlink:href="a08041.html" target="_top" xlink:title=" ">
<polygon fill="white" stroke="#666666" points="107,-159 0,-159 0,-131 107,-131 107,-159"/>
<text text-anchor="start" x="8" y="-147.8" font-family="Helvetica,sans-Serif" font-size="9.00">std::binary_function</text>
<text text-anchor="middle" x="53.5" y="-137.8" font-family="Helvetica,sans-Serif" font-size="9.00">&lt; _Tp, _Tp, bool &gt;</text>
</a>
</g>
</g>
<!-- Node1 -->
<g id="Node000001" class="node">
<title>Node1</title>
<g id="a_Node000001"><a xlink:href="a08093.html" target="_top" xlink:title="One of the comparison functors.">
<polygon fill="white" stroke="#666666" points="261,-290 149,-290 149,-272 261,-272 261,-290"/>
<text text-anchor="middle" x="205" y="-278.8" font-family="Helvetica,sans-Serif" font-size="9.00">std::equal_to&lt; _Tp &gt;</text>
</a>
</g>
</g>
<!-- Node0&#45;&gt;Node1 -->
<g id="edge252_Node000000_Node000001" class="edge">
<title>Node0&#45;&gt;Node1</title>
<g id="a_edge252_Node000000_Node000001"><a xlink:title=" ">
<path fill="none" stroke="#63b8ff" d="M66.07,-168.39C80.49,-195.14 107.6,-238.41 143,-263 148.26,-266.65 154.27,-269.58 160.41,-271.91"/>
<polygon fill="#63b8ff" stroke="#63b8ff" points="69.08,-166.58 61.34,-159.34 62.88,-169.83 69.08,-166.58"/>
</a>
</g>
</g>
<!-- Node2 -->
<g id="Node000002" class="node">
<title>Node2</title>
<g id="a_Node000002"><a xlink:href="a08101.html" target="_top" xlink:title="One of the comparison functors.">
<polygon fill="white" stroke="#666666" points="258.5,-254 151.5,-254 151.5,-236 258.5,-236 258.5,-254"/>
<text text-anchor="middle" x="205" y="-242.8" font-family="Helvetica,sans-Serif" font-size="9.00">std::greater&lt; _Tp &gt;</text>
</a>
</g>
</g>
<!-- Node0&#45;&gt;Node2 -->
<g id="edge253_Node000000_Node000002" class="edge">
<title>Node0&#45;&gt;Node2</title>
<g id="a_edge253_Node000000_Node000002"><a xlink:title=" ">
<path fill="none" stroke="#63b8ff" d="M72.89,-166.97C89.46,-185.45 115.4,-211.3 143,-227 149.33,-230.6 156.46,-233.54 163.54,-235.93"/>
<polygon fill="#63b8ff" stroke="#63b8ff" points="75.4,-164.52 66.17,-159.3 70.13,-169.13 75.4,-164.52"/>
</a>
</g>
</g>
<!-- Node3 -->
<g id="Node000003" class="node">
<title>Node3</title>
<g id="a_Node000003"><a xlink:href="a08109.html" target="_top" xlink:title="One of the comparison functors.">
<polygon fill="white" stroke="#666666" points="254.5,-218 155.5,-218 155.5,-190 254.5,-190 254.5,-218"/>
<text text-anchor="start" x="163.5" y="-206.8" font-family="Helvetica,sans-Serif" font-size="9.00">std::greater_equal</text>
<text text-anchor="middle" x="205" y="-196.8" font-family="Helvetica,sans-Serif" font-size="9.00">&lt; _Tp &gt;</text>
</a>
</g>
</g>
<!-- Node0&#45;&gt;Node3 -->
<g id="edge254_Node000000_Node000003" class="edge">
<title>Node0&#45;&gt;Node3</title>
<g id="a_edge254_Node000000_Node000003"><a xlink:title=" ">
<path fill="none" stroke="#63b8ff" d="M98.05,-162.97C112.34,-168.8 128.32,-175.25 143,-181 150.48,-183.93 158.51,-187.01 166.2,-189.92"/>
<polygon fill="#63b8ff" stroke="#63b8ff" points="99.04,-159.6 88.46,-159.05 96.39,-166.08 99.04,-159.6"/>
</a>
</g>
</g>
<!-- Node4 -->
<g id="Node000004" class="node">
<title>Node4</title>
<g id="a_Node000004"><a xlink:href="a08105.html" target="_top" xlink:title="One of the comparison functors.">
<polygon fill="white" stroke="#666666" points="250,-172 160,-172 160,-154 250,-154 250,-172"/>
<text text-anchor="middle" x="205" y="-160.8" font-family="Helvetica,sans-Serif" font-size="9.00">std::less&lt; _Tp &gt;</text>
</a>
</g>
</g>
<!-- Node0&#45;&gt;Node4 -->
<g id="edge255_Node000000_Node000004" class="edge">
<title>Node0&#45;&gt;Node4</title>
<g id="a_edge255_Node000000_Node000004"><a xlink:title=" ">
<path fill="none" stroke="#63b8ff" d="M117.42,-152.58C131.63,-154.29 146.42,-156.07 159.68,-157.66"/>
<polygon fill="#63b8ff" stroke="#63b8ff" points="117.55,-149.07 107.21,-151.35 116.72,-156.02 117.55,-149.07"/>
</a>
</g>
</g>
<!-- Node5 -->
<g id="Node000005" class="node">
<title>Node5</title>
<g id="a_Node000005"><a xlink:href="a08113.html" target="_top" xlink:title="One of the comparison functors.">
<polygon fill="white" stroke="#666666" points="264.5,-136 145.5,-136 145.5,-118 264.5,-118 264.5,-136"/>
<text text-anchor="middle" x="205" y="-124.8" font-family="Helvetica,sans-Serif" font-size="9.00">std::less_equal&lt; _Tp &gt;</text>
</a>
</g>
</g>
<!-- Node0&#45;&gt;Node5 -->
<g id="edge256_Node000000_Node000005" class="edge">
<title>Node0&#45;&gt;Node5</title>
<g id="a_edge256_Node000000_Node000005"><a xlink:title=" ">
<path fill="none" stroke="#63b8ff" d="M117.21,-137.45C126.55,-136.32 136.15,-135.17 145.4,-134.06"/>
<polygon fill="#63b8ff" stroke="#63b8ff" points="116.72,-133.98 107.21,-138.65 117.55,-140.93 116.72,-133.98"/>
</a>
</g>
</g>
<!-- Node6 -->
<g id="Node000006" class="node">
<title>Node6</title>
<g id="a_Node000006"><a xlink:href="a08221.html" target="_top" xlink:title="One of the Boolean operations functors.">
<polygon fill="white" stroke="#666666" points="267,-100 143,-100 143,-82 267,-82 267,-100"/>
<text text-anchor="middle" x="205" y="-88.8" font-family="Helvetica,sans-Serif" font-size="9.00">std::logical_and&lt; _Tp &gt;</text>
</a>
</g>
</g>
<!-- Node0&#45;&gt;Node6 -->
<g id="edge257_Node000000_Node000006" class="edge">
<title>Node0&#45;&gt;Node6</title>
<g id="a_edge257_Node000000_Node000006"><a xlink:title=" ">
<path fill="none" stroke="#63b8ff" d="M96.29,-127C110.94,-120.96 127.59,-114.39 143,-109 152.07,-105.83 162.02,-102.73 171.2,-100.03"/>
<polygon fill="#63b8ff" stroke="#63b8ff" points="94.87,-123.8 86.99,-130.88 97.56,-130.27 94.87,-123.8"/>
</a>
</g>
</g>
<!-- Node7 -->
<g id="Node000007" class="node">
<title>Node7</title>
<g id="a_Node000007"><a xlink:href="a08225.html" target="_top" xlink:title="One of the Boolean operations functors.">
<polygon fill="white" stroke="#666666" points="263,-64 147,-64 147,-46 263,-46 263,-64"/>
<text text-anchor="middle" x="205" y="-52.8" font-family="Helvetica,sans-Serif" font-size="9.00">std::logical_or&lt; _Tp &gt;</text>
</a>
</g>
</g>
<!-- Node0&#45;&gt;Node7 -->
<g id="edge258_Node000000_Node000007" class="edge">
<title>Node0&#45;&gt;Node7</title>
<g id="a_edge258_Node000000_Node000007"><a xlink:title=" ">
<path fill="none" stroke="#63b8ff" d="M75.87,-123.47C92.79,-107.53 117.7,-86.33 143,-73 149.74,-69.45 157.28,-66.5 164.7,-64.1"/>
<polygon fill="#63b8ff" stroke="#63b8ff" points="73.02,-121.37 68.25,-130.82 77.88,-126.41 73.02,-121.37"/>
</a>
</g>
</g>
<!-- Node8 -->
<g id="Node000008" class="node">
<title>Node8</title>
<g id="a_Node000008"><a xlink:href="a08097.html" target="_top" xlink:title="One of the comparison functors.">
<polygon fill="white" stroke="#666666" points="256,-28 154,-28 154,0 256,0 256,-28"/>
<text text-anchor="start" x="162" y="-16.8" font-family="Helvetica,sans-Serif" font-size="9.00">std::not_equal_to&lt;</text>
<text text-anchor="middle" x="205" y="-6.8" font-family="Helvetica,sans-Serif" font-size="9.00"> _Tp &gt;</text>
</a>
</g>
</g>
<!-- Node0&#45;&gt;Node8 -->
<g id="edge259_Node000000_Node000008" class="edge">
<title>Node0&#45;&gt;Node8</title>
<g id="a_edge259_Node000000_Node000008"><a xlink:title=" ">
<path fill="none" stroke="#63b8ff" d="M68.05,-122.18C83.45,-98 110.69,-60.18 143,-37 147.78,-33.57 153.14,-30.58 158.64,-28"/>
<polygon fill="#63b8ff" stroke="#63b8ff" points="65.05,-120.38 62.74,-130.72 70.99,-124.08 65.05,-120.38"/>
</a>
</g>
</g>
</g>
</svg>
