<?xml version="1.0" encoding="UTF-8" standalone="no"?>
<!DOCTYPE svg PUBLIC "-//W3C//DTD SVG 1.1//EN"
 "http://www.w3.org/Graphics/SVG/1.1/DTD/svg11.dtd">
<!-- Generated by graphviz version 2.43.0 (0)
 -->
<!-- Title: Graphical Class Hierarchy Pages: 1 -->
<svg width="285pt" height="266pt"
 viewBox="0.00 0.00 285.00 266.00" xmlns="http://www.w3.org/2000/svg" xmlns:xlink="http://www.w3.org/1999/xlink">
<g id="graph0" class="graph" transform="scale(1 1) rotate(0) translate(4 262)">
<title>Graphical Class Hierarchy</title>
<!-- Node0 -->
<g id="Node000000" class="node">
<title>Node0</title>
<g id="a_Node000000"><a xlink:href="a08493.html" target="_top" xlink:title=" ">
<polygon fill="white" stroke="#666666" points="111,-148 0,-148 0,-110 111,-110 111,-148"/>
<text text-anchor="start" x="8" y="-136.8" font-family="Helvetica,sans-Serif" font-size="9.00">std::iterator&lt; output</text>
<text text-anchor="start" x="8" y="-126.8" font-family="Helvetica,sans-Serif" font-size="9.00">_iterator_tag, void,</text>
<text text-anchor="middle" x="55.5" y="-116.8" font-family="Helvetica,sans-Serif" font-size="9.00"> void, void, void &gt;</text>
</a>
</g>
</g>
<!-- Node1 -->
<g id="Node000001" class="node">
<title>Node1</title>
<g id="a_Node000001"><a xlink:href="a08357.html" target="_top" xlink:title="Turns assignment into insertion.">
<polygon fill="white" stroke="#666666" points="275,-258 149,-258 149,-230 275,-230 275,-258"/>
<text text-anchor="start" x="157" y="-246.8" font-family="Helvetica,sans-Serif" font-size="9.00">std::back_insert_iterator</text>
<text text-anchor="middle" x="212" y="-236.8" font-family="Helvetica,sans-Serif" font-size="9.00">&lt; _Container &gt;</text>
</a>
</g>
</g>
<!-- Node0&#45;&gt;Node1 -->
<g id="edge437_Node000000_Node000001" class="edge">
<title>Node0&#45;&gt;Node1</title>
<g id="a_edge437_Node000000_Node000001"><a xlink:title=" ">
<path fill="none" stroke="#63b8ff" d="M77.35,-156C94.23,-176.29 119.63,-203.49 147,-221 152.27,-224.37 158.1,-227.34 164.04,-229.91"/>
<polygon fill="#63b8ff" stroke="#63b8ff" points="79.9,-153.6 70.87,-148.06 74.48,-158.02 79.9,-153.6"/>
</a>
</g>
</g>
<!-- Node2 -->
<g id="Node000002" class="node">
<title>Node2</title>
<g id="a_Node000002"><a xlink:href="a08361.html" target="_top" xlink:title="Turns assignment into insertion.">
<polygon fill="white" stroke="#666666" points="275,-212 149,-212 149,-184 275,-184 275,-212"/>
<text text-anchor="start" x="157" y="-200.8" font-family="Helvetica,sans-Serif" font-size="9.00">std::front_insert_iterator</text>
<text text-anchor="middle" x="212" y="-190.8" font-family="Helvetica,sans-Serif" font-size="9.00">&lt; _Container &gt;</text>
</a>
</g>
</g>
<!-- Node0&#45;&gt;Node2 -->
<g id="edge438_Node000000_Node000002" class="edge">
<title>Node0&#45;&gt;Node2</title>
<g id="a_edge438_Node000000_Node000002"><a xlink:title=" ">
<path fill="none" stroke="#63b8ff" d="M100.93,-152.98C115.43,-160.43 131.74,-168.41 147,-175 154.15,-178.09 161.87,-181.11 169.39,-183.9"/>
<polygon fill="#63b8ff" stroke="#63b8ff" points="102.17,-149.68 91.69,-148.18 98.95,-155.89 102.17,-149.68"/>
</a>
</g>
</g>
<!-- Node3 -->
<g id="Node000003" class="node">
<title>Node3</title>
<g id="a_Node000003"><a xlink:href="a08365.html" target="_top" xlink:title="Turns assignment into insertion.">
<polygon fill="white" stroke="#666666" points="262,-166 162,-166 162,-138 262,-138 262,-166"/>
<text text-anchor="start" x="170" y="-154.8" font-family="Helvetica,sans-Serif" font-size="9.00">std::insert_iterator</text>
<text text-anchor="middle" x="212" y="-144.8" font-family="Helvetica,sans-Serif" font-size="9.00">&lt; _Container &gt;</text>
</a>
</g>
</g>
<!-- Node0&#45;&gt;Node3 -->
<g id="edge439_Node000000_Node000003" class="edge">
<title>Node0&#45;&gt;Node3</title>
<g id="a_edge439_Node000000_Node000003"><a xlink:title=" ">
<path fill="none" stroke="#63b8ff" d="M121.6,-138.69C135.11,-140.7 149.11,-142.79 161.93,-144.69"/>
<polygon fill="#63b8ff" stroke="#63b8ff" points="121.81,-135.18 111.41,-137.17 120.78,-142.11 121.81,-135.18"/>
</a>
</g>
</g>
<!-- Node4 -->
<g id="Node000004" class="node">
<title>Node4</title>
<g id="a_Node000004"><a xlink:href="a08725.html" target="_top" xlink:title="Provides output iterator semantics for streams.">
<polygon fill="white" stroke="#666666" points="274.5,-120 149.5,-120 149.5,-92 274.5,-92 274.5,-120"/>
<text text-anchor="start" x="157.5" y="-108.8" font-family="Helvetica,sans-Serif" font-size="9.00">std::ostream_iterator</text>
<text text-anchor="middle" x="212" y="-98.8" font-family="Helvetica,sans-Serif" font-size="9.00">&lt; _Tp, _CharT, _Traits &gt;</text>
</a>
</g>
</g>
<!-- Node0&#45;&gt;Node4 -->
<g id="edge440_Node000000_Node000004" class="edge">
<title>Node0&#45;&gt;Node4</title>
<g id="a_edge440_Node000000_Node000004"><a xlink:title=" ">
<path fill="none" stroke="#63b8ff" d="M121.37,-119.34C130.66,-117.96 140.21,-116.54 149.43,-115.17"/>
<polygon fill="#63b8ff" stroke="#63b8ff" points="120.78,-115.89 111.41,-120.83 121.81,-122.82 120.78,-115.89"/>
</a>
</g>
</g>
<!-- Node5 -->
<g id="Node000005" class="node">
<title>Node5</title>
<g id="a_Node000005"><a xlink:href="a02797.html" target="_top" xlink:title="Provides output iterator semantics for streambufs.">
<polygon fill="white" stroke="#666666" points="275,-74 149,-74 149,-46 275,-46 275,-74"/>
<text text-anchor="start" x="157" y="-62.8" font-family="Helvetica,sans-Serif" font-size="9.00">std::ostreambuf_iterator</text>
<text text-anchor="middle" x="212" y="-52.8" font-family="Helvetica,sans-Serif" font-size="9.00">&lt; _CharT, _Traits &gt;</text>
</a>
</g>
</g>
<!-- Node0&#45;&gt;Node5 -->
<g id="edge441_Node000000_Node000005" class="edge">
<title>Node0&#45;&gt;Node5</title>
<g id="a_edge441_Node000000_Node000005"><a xlink:title=" ">
<path fill="none" stroke="#63b8ff" d="M100.93,-105.02C115.43,-97.57 131.74,-89.59 147,-83 154.15,-79.91 161.87,-76.89 169.39,-74.1"/>
<polygon fill="#63b8ff" stroke="#63b8ff" points="98.95,-102.11 91.69,-109.82 102.17,-108.32 98.95,-102.11"/>
</a>
</g>
</g>
<!-- Node6 -->
<g id="Node000006" class="node">
<title>Node6</title>
<g id="a_Node000006"><a xlink:href="a08613.html" target="_top" xlink:title=" ">
<polygon fill="white" stroke="#666666" points="277,-28 147,-28 147,0 277,0 277,-28"/>
<text text-anchor="start" x="155" y="-16.8" font-family="Helvetica,sans-Serif" font-size="9.00">std::raw_storage_iterator</text>
<text text-anchor="middle" x="212" y="-6.8" font-family="Helvetica,sans-Serif" font-size="9.00">&lt; _OutputIterator, _Tp &gt;</text>
</a>
</g>
</g>
<!-- Node0&#45;&gt;Node6 -->
<g id="edge442_Node000000_Node000006" class="edge">
<title>Node0&#45;&gt;Node6</title>
<g id="a_edge442_Node000000_Node000006"><a xlink:title=" ">
<path fill="none" stroke="#63b8ff" d="M77.35,-102C94.23,-81.71 119.63,-54.51 147,-37 152.27,-33.63 158.1,-30.66 164.04,-28.09"/>
<polygon fill="#63b8ff" stroke="#63b8ff" points="74.48,-99.98 70.87,-109.94 79.9,-104.4 74.48,-99.98"/>
</a>
</g>
</g>
</g>
</svg>
