<?xml version="1.0" encoding="UTF-8" standalone="no"?>
<!DOCTYPE svg PUBLIC "-//W3C//DTD SVG 1.1//EN"
 "http://www.w3.org/Graphics/SVG/1.1/DTD/svg11.dtd">
<!-- Generated by graphviz version 2.43.0 (0)
 -->
<!-- Title: Graphical Class Hierarchy Pages: 1 -->
<svg width="261pt" height="72pt"
 viewBox="0.00 0.00 261.00 72.00" xmlns="http://www.w3.org/2000/svg" xmlns:xlink="http://www.w3.org/1999/xlink">
<g id="graph0" class="graph" transform="scale(1 1) rotate(0) translate(4 68)">
<title>Graphical Class Hierarchy</title>
<!-- Node0 -->
<g id="Node000000" class="node">
<title>Node0</title>
<g id="a_Node000000"><a xlink:href="a02677.html" target="_top" xlink:title=" ">
<polygon fill="white" stroke="#666666" points="101,-48 0,-48 0,-20 101,-20 101,-48"/>
<text text-anchor="start" x="8" y="-36.8" font-family="Helvetica,sans-Serif" font-size="9.00">std::__basic_future</text>
<text text-anchor="middle" x="50.5" y="-26.8" font-family="Helvetica,sans-Serif" font-size="9.00">&lt; _Res &amp; &gt;</text>
</a>
</g>
</g>
<!-- Node1 -->
<g id="Node000001" class="node">
<title>Node1</title>
<g id="a_Node000001"><a xlink:href="a02685.html" target="_top" xlink:title="Partial specialization for future&lt;R&amp;&gt;">
<polygon fill="white" stroke="#666666" points="253,-64 137,-64 137,-46 253,-46 253,-64"/>
<text text-anchor="middle" x="195" y="-52.8" font-family="Helvetica,sans-Serif" font-size="9.00">std::future&lt; _Res &amp; &gt;</text>
</a>
</g>
</g>
<!-- Node0&#45;&gt;Node1 -->
<g id="edge161_Node000000_Node000001" class="edge">
<title>Node0&#45;&gt;Node1</title>
<g id="a_edge161_Node000000_Node000001"><a xlink:title=" ">
<path fill="none" stroke="#63b8ff" d="M111.39,-42.83C119.75,-44.06 128.32,-45.32 136.62,-46.54"/>
<polygon fill="#63b8ff" stroke="#63b8ff" points="111.74,-39.34 101.34,-41.34 110.72,-46.27 111.74,-39.34"/>
</a>
</g>
</g>
<!-- Node2 -->
<g id="Node000002" class="node">
<title>Node2</title>
<g id="a_Node000002"><a xlink:href="a02693.html" target="_top" xlink:title="Partial specialization for shared_future&lt;R&amp;&gt;">
<polygon fill="white" stroke="#666666" points="245,-28 145,-28 145,0 245,0 245,-28"/>
<text text-anchor="start" x="153" y="-16.8" font-family="Helvetica,sans-Serif" font-size="9.00">std::shared_future</text>
<text text-anchor="middle" x="195" y="-6.8" font-family="Helvetica,sans-Serif" font-size="9.00">&lt; _Res &amp; &gt;</text>
</a>
</g>
</g>
<!-- Node0&#45;&gt;Node2 -->
<g id="edge162_Node000000_Node000002" class="edge">
<title>Node0&#45;&gt;Node2</title>
<g id="a_edge162_Node000000_Node000002"><a xlink:title=" ">
<path fill="none" stroke="#63b8ff" d="M111.44,-25.59C122.6,-24.02 134.13,-22.4 144.91,-20.89"/>
<polygon fill="#63b8ff" stroke="#63b8ff" points="110.76,-22.15 101.34,-27 111.73,-29.08 110.76,-22.15"/>
</a>
</g>
</g>
</g>
</svg>
