<?xml version="1.0" encoding="UTF-8" standalone="no"?>
<!DOCTYPE svg PUBLIC "-//W3C//DTD SVG 1.1//EN"
 "http://www.w3.org/Graphics/SVG/1.1/DTD/svg11.dtd">
<!-- Generated by graphviz version 2.43.0 (0)
 -->
<!-- Title: Graphical Class Hierarchy Pages: 1 -->
<svg width="736pt" height="470pt"
 viewBox="0.00 0.00 736.00 470.00" xmlns="http://www.w3.org/2000/svg" xmlns:xlink="http://www.w3.org/1999/xlink">
<g id="graph0" class="graph" transform="scale(1 1) rotate(0) translate(4 466)">
<title>Graphical Class Hierarchy</title>
<!-- Node0 -->
<g id="Node000000" class="node">
<title>Node0</title>
<g id="a_Node000000"><a xlink:href="a05973.html" target="_top" xlink:title="The base of the I/O class hierarchy.">
<polygon fill="white" stroke="#666666" points="74,-332 0,-332 0,-314 74,-314 74,-332"/>
<text text-anchor="middle" x="37" y="-320.8" font-family="Helvetica,sans-Serif" font-size="9.00">std::ios_base</text>
</a>
</g>
</g>
<!-- Node1 -->
<g id="Node000001" class="node">
<title>Node1</title>
<g id="a_Node000001"><a xlink:href="a02757.html" target="_top" xlink:title=" ">
<polygon fill="white" stroke="#666666" points="230,-383 120,-383 120,-355 230,-355 230,-383"/>
<text text-anchor="start" x="128" y="-371.8" font-family="Helvetica,sans-Serif" font-size="9.00">std::basic_ios&lt; char,</text>
<text text-anchor="middle" x="175" y="-361.8" font-family="Helvetica,sans-Serif" font-size="9.00"> _Traits &gt;</text>
</a>
</g>
</g>
<!-- Node0&#45;&gt;Node1 -->
<g id="edge412_Node000000_Node000001" class="edge">
<title>Node0&#45;&gt;Node1</title>
<g id="a_edge412_Node000000_Node000001"><a xlink:title=" ">
<path fill="none" stroke="#63b8ff" d="M74.38,-335.3C92.27,-341.36 113.92,-348.68 132.46,-354.95"/>
<polygon fill="#63b8ff" stroke="#63b8ff" points="75.46,-331.98 64.87,-332.09 73.22,-338.61 75.46,-331.98"/>
</a>
</g>
</g>
<!-- Node2 -->
<g id="Node000002" class="node">
<title>Node2</title>
<g id="a_Node000002"><a xlink:href="a02757.html" target="_top" xlink:title=" ">
<polygon fill="white" stroke="#666666" points="240,-337 110,-337 110,-309 240,-309 240,-337"/>
<text text-anchor="start" x="118" y="-325.8" font-family="Helvetica,sans-Serif" font-size="9.00">std::basic_ios&lt; _CharT,</text>
<text text-anchor="middle" x="175" y="-315.8" font-family="Helvetica,sans-Serif" font-size="9.00"> char_traits&lt; _CharT &gt; &gt;</text>
</a>
</g>
</g>
<!-- Node0&#45;&gt;Node2 -->
<g id="edge413_Node000000_Node000002" class="edge">
<title>Node0&#45;&gt;Node2</title>
<g id="a_edge413_Node000000_Node000002"><a xlink:title=" ">
<path fill="none" stroke="#63b8ff" d="M84.24,-323C92.49,-323 101.22,-323 109.86,-323"/>
<polygon fill="#63b8ff" stroke="#63b8ff" points="84.09,-319.5 74.09,-323 84.09,-326.5 84.09,-319.5"/>
</a>
</g>
</g>
<!-- Node3 -->
<g id="Node000003" class="node">
<title>Node3</title>
<g id="a_Node000003"><a xlink:href="a02757.html" target="_top" xlink:title="Template class basic_ios, virtual base class for all stream classes.">
<polygon fill="white" stroke="#666666" points="235.5,-291 114.5,-291 114.5,-263 235.5,-263 235.5,-291"/>
<text text-anchor="start" x="122.5" y="-279.8" font-family="Helvetica,sans-Serif" font-size="9.00">std::basic_ios&lt; _CharT,</text>
<text text-anchor="middle" x="175" y="-269.8" font-family="Helvetica,sans-Serif" font-size="9.00"> _Traits &gt;</text>
</a>
</g>
</g>
<!-- Node0&#45;&gt;Node3 -->
<g id="edge414_Node000000_Node000003" class="edge">
<title>Node0&#45;&gt;Node3</title>
<g id="a_edge414_Node000000_Node000003"><a xlink:title=" ">
<path fill="none" stroke="#63b8ff" d="M74.38,-310.7C92.27,-304.64 113.92,-297.32 132.46,-291.05"/>
<polygon fill="#63b8ff" stroke="#63b8ff" points="73.22,-307.39 64.87,-313.91 75.46,-314.02 73.22,-307.39"/>
</a>
</g>
</g>
<!-- Node4 -->
<g id="Node000004" class="node">
<title>Node4</title>
<g id="a_Node000004"><a xlink:href="a02765.html" target="_top" xlink:title=" ">
<polygon fill="white" stroke="#666666" points="381,-462 283,-462 283,-434 381,-434 381,-462"/>
<text text-anchor="start" x="291" y="-450.8" font-family="Helvetica,sans-Serif" font-size="9.00">std::basic_istream</text>
<text text-anchor="middle" x="332" y="-440.8" font-family="Helvetica,sans-Serif" font-size="9.00">&lt; char &gt;</text>
</a>
</g>
</g>
<!-- Node3&#45;&gt;Node4 -->
<g id="edge415_Node000003_Node000004" class="edge">
<title>Node3&#45;&gt;Node4</title>
<g id="a_edge415_Node000003_Node000004"><a xlink:title=" ">
<path fill="none" stroke="#63b8ff" d="M237.15,-297.21C238.14,-298.1 239.09,-299.03 240,-300 279.54,-342.18 237.55,-381.82 276,-425 279.1,-428.48 282.81,-431.44 286.81,-433.97"/>
<polygon fill="#63b8ff" stroke="#63b8ff" points="239.03,-294.25 228.9,-291.13 234.87,-299.88 239.03,-294.25"/>
</a>
</g>
</g>
<!-- Node5 -->
<g id="Node000005" class="node">
<title>Node5</title>
<g id="a_Node000005"><a xlink:href="a02765.html" target="_top" xlink:title=" ">
<polygon fill="white" stroke="#666666" points="381,-416 283,-416 283,-388 381,-388 381,-416"/>
<text text-anchor="start" x="291" y="-404.8" font-family="Helvetica,sans-Serif" font-size="9.00">std::basic_istream</text>
<text text-anchor="middle" x="332" y="-394.8" font-family="Helvetica,sans-Serif" font-size="9.00">&lt; char, _Traits &gt;</text>
</a>
</g>
</g>
<!-- Node3&#45;&gt;Node5 -->
<g id="edge416_Node000003_Node000005" class="edge">
<title>Node3&#45;&gt;Node5</title>
<g id="a_edge416_Node000003_Node000005"><a xlink:title=" ">
<path fill="none" stroke="#63b8ff" d="M235.96,-296.63C237.37,-297.7 238.72,-298.82 240,-300 268.39,-326.13 248.29,-352.15 276,-379 279.57,-382.46 283.73,-385.43 288.14,-387.97"/>
<polygon fill="#63b8ff" stroke="#63b8ff" points="237.73,-293.61 227.43,-291.13 233.94,-299.49 237.73,-293.61"/>
</a>
</g>
</g>
<!-- Node6 -->
<g id="Node000006" class="node">
<title>Node6</title>
<g id="a_Node000006"><a xlink:href="a02765.html" target="_top" xlink:title=" ">
<polygon fill="white" stroke="#666666" points="388,-370 276,-370 276,-332 388,-332 388,-370"/>
<text text-anchor="start" x="284" y="-358.8" font-family="Helvetica,sans-Serif" font-size="9.00">std::basic_istream</text>
<text text-anchor="start" x="284" y="-348.8" font-family="Helvetica,sans-Serif" font-size="9.00">&lt; _CharT, char_traits</text>
<text text-anchor="middle" x="332" y="-338.8" font-family="Helvetica,sans-Serif" font-size="9.00">&lt; _CharT &gt; &gt;</text>
</a>
</g>
</g>
<!-- Node3&#45;&gt;Node6 -->
<g id="edge417_Node000003_Node000006" class="edge">
<title>Node3&#45;&gt;Node6</title>
<g id="a_edge417_Node000003_Node000006"><a xlink:title=" ">
<path fill="none" stroke="#63b8ff" d="M228.82,-294.91C232.64,-296.53 236.41,-298.23 240,-300 257.04,-308.37 259.52,-313.57 276,-323 281.21,-325.98 286.77,-329 292.28,-331.89"/>
<polygon fill="#63b8ff" stroke="#63b8ff" points="229.82,-291.54 219.24,-291.04 227.2,-298.03 229.82,-291.54"/>
</a>
</g>
</g>
<!-- Node7 -->
<g id="Node000007" class="node">
<title>Node7</title>
<g id="a_Node000007"><a xlink:href="a02769.html" target="_top" xlink:title=" ">
<polygon fill="white" stroke="#666666" points="382.5,-314 281.5,-314 281.5,-286 382.5,-286 382.5,-314"/>
<text text-anchor="start" x="289.5" y="-302.8" font-family="Helvetica,sans-Serif" font-size="9.00">std::basic_ostream</text>
<text text-anchor="middle" x="332" y="-292.8" font-family="Helvetica,sans-Serif" font-size="9.00">&lt; char, _Traits &gt;</text>
</a>
</g>
</g>
<!-- Node3&#45;&gt;Node7 -->
<g id="edge418_Node000003_Node000007" class="edge">
<title>Node3&#45;&gt;Node7</title>
<g id="a_edge418_Node000003_Node000007"><a xlink:title=" ">
<path fill="none" stroke="#63b8ff" d="M245.87,-287.37C257.81,-289.14 270,-290.95 281.28,-292.62"/>
<polygon fill="#63b8ff" stroke="#63b8ff" points="246.33,-283.9 235.93,-285.89 245.3,-290.82 246.33,-283.9"/>
</a>
</g>
</g>
<!-- Node8 -->
<g id="Node000008" class="node">
<title>Node8</title>
<g id="a_Node000008"><a xlink:href="a02769.html" target="_top" xlink:title=" ">
<polygon fill="white" stroke="#666666" points="382.5,-268 281.5,-268 281.5,-240 382.5,-240 382.5,-268"/>
<text text-anchor="start" x="289.5" y="-256.8" font-family="Helvetica,sans-Serif" font-size="9.00">std::basic_ostream</text>
<text text-anchor="middle" x="332" y="-246.8" font-family="Helvetica,sans-Serif" font-size="9.00">&lt; char &gt;</text>
</a>
</g>
</g>
<!-- Node3&#45;&gt;Node8 -->
<g id="edge419_Node000003_Node000008" class="edge">
<title>Node3&#45;&gt;Node8</title>
<g id="a_edge419_Node000003_Node000008"><a xlink:title=" ">
<path fill="none" stroke="#63b8ff" d="M245.87,-266.63C257.81,-264.86 270,-263.05 281.28,-261.38"/>
<polygon fill="#63b8ff" stroke="#63b8ff" points="245.3,-263.18 235.93,-268.11 246.33,-270.1 245.3,-263.18"/>
</a>
</g>
</g>
<!-- Node9 -->
<g id="Node000009" class="node">
<title>Node9</title>
<g id="a_Node000009"><a xlink:href="a02769.html" target="_top" xlink:title=" ">
<polygon fill="white" stroke="#666666" points="388,-222 276,-222 276,-184 388,-184 388,-222"/>
<text text-anchor="start" x="284" y="-210.8" font-family="Helvetica,sans-Serif" font-size="9.00">std::basic_ostream</text>
<text text-anchor="start" x="284" y="-200.8" font-family="Helvetica,sans-Serif" font-size="9.00">&lt; _CharT, char_traits</text>
<text text-anchor="middle" x="332" y="-190.8" font-family="Helvetica,sans-Serif" font-size="9.00">&lt; _CharT &gt; &gt;</text>
</a>
</g>
</g>
<!-- Node3&#45;&gt;Node9 -->
<g id="edge420_Node000003_Node000009" class="edge">
<title>Node3&#45;&gt;Node9</title>
<g id="a_edge420_Node000003_Node000009"><a xlink:title=" ">
<path fill="none" stroke="#63b8ff" d="M214.75,-258.5C238.02,-247.39 267.57,-233.28 291.05,-222.07"/>
<polygon fill="#63b8ff" stroke="#63b8ff" points="213.04,-255.44 205.52,-262.91 216.05,-261.76 213.04,-255.44"/>
</a>
</g>
</g>
<!-- Node10 -->
<g id="Node000010" class="node">
<title>Node10</title>
<g id="a_Node000010"><a xlink:href="a02765.html" target="_top" xlink:title="Template class basic_istream.">
<polygon fill="white" stroke="#666666" points="383.5,-120 280.5,-120 280.5,-92 383.5,-92 383.5,-120"/>
<text text-anchor="start" x="288.5" y="-108.8" font-family="Helvetica,sans-Serif" font-size="9.00">std::basic_istream</text>
<text text-anchor="middle" x="332" y="-98.8" font-family="Helvetica,sans-Serif" font-size="9.00">&lt; _CharT, _Traits &gt;</text>
</a>
</g>
</g>
<!-- Node3&#45;&gt;Node10 -->
<g id="edge421_Node000003_Node000010" class="edge">
<title>Node3&#45;&gt;Node10</title>
<g id="a_edge421_Node000003_Node000010"><a xlink:title=" ">
<path fill="none" stroke="#63b8ff" d="M186.4,-253.69C201.77,-221.62 233.39,-163.91 276,-129 280.16,-125.59 284.9,-122.62 289.82,-120.04"/>
<polygon fill="#63b8ff" stroke="#63b8ff" points="183.22,-252.23 182.16,-262.77 189.56,-255.19 183.22,-252.23"/>
</a>
</g>
</g>
<!-- Node12 -->
<g id="Node000012" class="node">
<title>Node12</title>
<g id="a_Node000012"><a xlink:href="a02769.html" target="_top" xlink:title="Template class basic_ostream.">
<polygon fill="white" stroke="#666666" points="383.5,-166 280.5,-166 280.5,-138 383.5,-138 383.5,-166"/>
<text text-anchor="start" x="288.5" y="-154.8" font-family="Helvetica,sans-Serif" font-size="9.00">std::basic_ostream</text>
<text text-anchor="middle" x="332" y="-144.8" font-family="Helvetica,sans-Serif" font-size="9.00">&lt; _CharT, _Traits &gt;</text>
</a>
</g>
</g>
<!-- Node3&#45;&gt;Node12 -->
<g id="edge428_Node000003_Node000012" class="edge">
<title>Node3&#45;&gt;Node12</title>
<g id="a_edge428_Node000003_Node000012"><a xlink:title=" ">
<path fill="none" stroke="#63b8ff" d="M193.31,-254.7C211.77,-232.13 242.87,-197.46 276,-175 280.88,-171.69 286.32,-168.71 291.82,-166.09"/>
<polygon fill="#63b8ff" stroke="#63b8ff" points="190.41,-252.72 186.87,-262.71 195.86,-257.11 190.41,-252.72"/>
</a>
</g>
</g>
<!-- Node11 -->
<g id="Node000011" class="node">
<title>Node11</title>
<g id="a_Node000011"><a xlink:href="a02773.html" target="_top" xlink:title=" ">
<polygon fill="white" stroke="#666666" points="543,-166 439,-166 439,-138 543,-138 543,-166"/>
<text text-anchor="start" x="447" y="-154.8" font-family="Helvetica,sans-Serif" font-size="9.00">std::basic_iostream</text>
<text text-anchor="middle" x="491" y="-144.8" font-family="Helvetica,sans-Serif" font-size="9.00">&lt; char &gt;</text>
</a>
</g>
</g>
<!-- Node10&#45;&gt;Node11 -->
<g id="edge422_Node000010_Node000011" class="edge">
<title>Node10&#45;&gt;Node11</title>
<g id="a_edge422_Node000010_Node000011"><a xlink:title=" ">
<path fill="none" stroke="#63b8ff" d="M390.71,-122.91C407.6,-127.86 425.86,-133.21 442.07,-137.96"/>
<polygon fill="#63b8ff" stroke="#63b8ff" points="391.54,-119.5 380.96,-120.05 389.57,-126.22 391.54,-119.5"/>
</a>
</g>
</g>
<!-- Node18 -->
<g id="Node000018" class="node">
<title>Node18</title>
<g id="a_Node000018"><a xlink:href="a02493.html" target="_top" xlink:title="Controlling input for files.">
<polygon fill="white" stroke="#666666" points="542.5,-74 439.5,-74 439.5,-46 542.5,-46 542.5,-74"/>
<text text-anchor="start" x="447.5" y="-62.8" font-family="Helvetica,sans-Serif" font-size="9.00">std::basic_ifstream</text>
<text text-anchor="middle" x="491" y="-52.8" font-family="Helvetica,sans-Serif" font-size="9.00">&lt; _CharT, _Traits &gt;</text>
</a>
</g>
</g>
<!-- Node10&#45;&gt;Node18 -->
<g id="edge423_Node000010_Node000018" class="edge">
<title>Node10&#45;&gt;Node18</title>
<g id="a_edge423_Node000010_Node000018"><a xlink:title=" ">
<path fill="none" stroke="#63b8ff" d="M390.71,-89.09C407.6,-84.14 425.86,-78.79 442.07,-74.04"/>
<polygon fill="#63b8ff" stroke="#63b8ff" points="389.57,-85.78 380.96,-91.95 391.54,-92.5 389.57,-85.78"/>
</a>
</g>
</g>
<!-- Node13 -->
<g id="Node000013" class="node">
<title>Node13</title>
<g id="a_Node000013"><a xlink:href="a02773.html" target="_top" xlink:title="Template class basic_iostream.">
<polygon fill="white" stroke="#666666" points="543,-120 439,-120 439,-92 543,-92 543,-120"/>
<text text-anchor="start" x="447" y="-108.8" font-family="Helvetica,sans-Serif" font-size="9.00">std::basic_iostream</text>
<text text-anchor="middle" x="491" y="-98.8" font-family="Helvetica,sans-Serif" font-size="9.00">&lt; _CharT, _Traits &gt;</text>
</a>
</g>
</g>
<!-- Node10&#45;&gt;Node13 -->
<g id="edge424_Node000010_Node000013" class="edge">
<title>Node10&#45;&gt;Node13</title>
<g id="a_edge424_Node000010_Node000013"><a xlink:title=" ">
<path fill="none" stroke="#63b8ff" d="M393.67,-106C408.56,-106 424.35,-106 438.75,-106"/>
<polygon fill="#63b8ff" stroke="#63b8ff" points="393.54,-102.5 383.54,-106 393.54,-109.5 393.54,-102.5"/>
</a>
</g>
</g>
<!-- Node19 -->
<g id="Node000019" class="node">
<title>Node19</title>
<g id="a_Node000019"><a xlink:href="a02781.html" target="_top" xlink:title="Controlling input for std::string.">
<polygon fill="white" stroke="#666666" points="558,-28 424,-28 424,0 558,0 558,-28"/>
<text text-anchor="start" x="432" y="-16.8" font-family="Helvetica,sans-Serif" font-size="9.00">std::basic_istringstream</text>
<text text-anchor="middle" x="491" y="-6.8" font-family="Helvetica,sans-Serif" font-size="9.00">&lt; _CharT, _Traits, _Alloc &gt;</text>
</a>
</g>
</g>
<!-- Node10&#45;&gt;Node19 -->
<g id="edge427_Node000010_Node000019" class="edge">
<title>Node10&#45;&gt;Node19</title>
<g id="a_edge427_Node000010_Node000019"><a xlink:title=" ">
<path fill="none" stroke="#63b8ff" d="M356.38,-84.99C373.97,-70.02 399.22,-50.28 424,-37 430.2,-33.68 436.98,-30.68 443.76,-28.03"/>
<polygon fill="#63b8ff" stroke="#63b8ff" points="353.66,-82.71 348.39,-91.9 358.24,-88 353.66,-82.71"/>
</a>
</g>
</g>
<!-- Node14 -->
<g id="Node000014" class="node">
<title>Node14</title>
<g id="a_Node000014"><a xlink:href="a02501.html" target="_top" xlink:title="Controlling input and output for files.">
<polygon fill="white" stroke="#666666" points="712.5,-143 609.5,-143 609.5,-115 712.5,-115 712.5,-143"/>
<text text-anchor="start" x="617.5" y="-131.8" font-family="Helvetica,sans-Serif" font-size="9.00">std::basic_fstream</text>
<text text-anchor="middle" x="661" y="-121.8" font-family="Helvetica,sans-Serif" font-size="9.00">&lt; _CharT, _Traits &gt;</text>
</a>
</g>
</g>
<!-- Node13&#45;&gt;Node14 -->
<g id="edge425_Node000013_Node000014" class="edge">
<title>Node13&#45;&gt;Node14</title>
<g id="a_edge425_Node000013_Node000014"><a xlink:title=" ">
<path fill="none" stroke="#63b8ff" d="M553.34,-114.4C571.72,-116.91 591.67,-119.65 609.28,-122.06"/>
<polygon fill="#63b8ff" stroke="#63b8ff" points="553.7,-110.91 543.32,-113.03 552.75,-117.85 553.7,-110.91"/>
</a>
</g>
</g>
<!-- Node15 -->
<g id="Node000015" class="node">
<title>Node15</title>
<g id="a_Node000015"><a xlink:href="a02789.html" target="_top" xlink:title="Controlling input and output for std::string.">
<polygon fill="white" stroke="#666666" points="728,-97 594,-97 594,-69 728,-69 728,-97"/>
<text text-anchor="start" x="602" y="-85.8" font-family="Helvetica,sans-Serif" font-size="9.00">std::basic_stringstream</text>
<text text-anchor="middle" x="661" y="-75.8" font-family="Helvetica,sans-Serif" font-size="9.00">&lt; _CharT, _Traits, _Alloc &gt;</text>
</a>
</g>
</g>
<!-- Node13&#45;&gt;Node15 -->
<g id="edge426_Node000013_Node000015" class="edge">
<title>Node13&#45;&gt;Node15</title>
<g id="a_edge426_Node000013_Node000015"><a xlink:title=" ">
<path fill="none" stroke="#63b8ff" d="M553.23,-97.62C566.42,-95.81 580.43,-93.89 593.8,-92.06"/>
<polygon fill="#63b8ff" stroke="#63b8ff" points="552.75,-94.15 543.32,-98.97 553.7,-101.09 552.75,-94.15"/>
</a>
</g>
</g>
<!-- Node12&#45;&gt;Node11 -->
<g id="edge429_Node000012_Node000011" class="edge">
<title>Node12&#45;&gt;Node11</title>
<g id="a_edge429_Node000012_Node000011"><a xlink:title=" ">
<path fill="none" stroke="#63b8ff" d="M393.67,-152C408.56,-152 424.35,-152 438.75,-152"/>
<polygon fill="#63b8ff" stroke="#63b8ff" points="393.54,-148.5 383.54,-152 393.54,-155.5 393.54,-148.5"/>
</a>
</g>
</g>
<!-- Node12&#45;&gt;Node13 -->
<g id="edge430_Node000012_Node000013" class="edge">
<title>Node12&#45;&gt;Node13</title>
<g id="a_edge430_Node000012_Node000013"><a xlink:title=" ">
<path fill="none" stroke="#63b8ff" d="M390.71,-135.09C407.6,-130.14 425.86,-124.79 442.07,-120.04"/>
<polygon fill="#63b8ff" stroke="#63b8ff" points="389.57,-131.78 380.96,-137.95 391.54,-138.5 389.57,-131.78"/>
</a>
</g>
</g>
<!-- Node16 -->
<g id="Node000016" class="node">
<title>Node16</title>
<g id="a_Node000016"><a xlink:href="a02497.html" target="_top" xlink:title="Controlling output for files.">
<polygon fill="white" stroke="#666666" points="543,-258 439,-258 439,-230 543,-230 543,-258"/>
<text text-anchor="start" x="447" y="-246.8" font-family="Helvetica,sans-Serif" font-size="9.00">std::basic_ofstream</text>
<text text-anchor="middle" x="491" y="-236.8" font-family="Helvetica,sans-Serif" font-size="9.00">&lt; _CharT, _Traits &gt;</text>
</a>
</g>
</g>
<!-- Node12&#45;&gt;Node16 -->
<g id="edge431_Node000012_Node000016" class="edge">
<title>Node12&#45;&gt;Node16</title>
<g id="a_edge431_Node000012_Node000016"><a xlink:title=" ">
<path fill="none" stroke="#63b8ff" d="M382.33,-171.07C384.29,-172.31 386.19,-173.62 388,-175 408.64,-190.74 402.89,-205.89 424,-221 428.84,-224.46 434.24,-227.44 439.81,-229.99"/>
<polygon fill="#63b8ff" stroke="#63b8ff" points="383.82,-167.89 373.39,-166.03 380.38,-173.99 383.82,-167.89"/>
</a>
</g>
</g>
<!-- Node17 -->
<g id="Node000017" class="node">
<title>Node17</title>
<g id="a_Node000017"><a xlink:href="a02785.html" target="_top" xlink:title="Controlling output for std::string.">
<polygon fill="white" stroke="#666666" points="558,-212 424,-212 424,-184 558,-184 558,-212"/>
<text text-anchor="start" x="432" y="-200.8" font-family="Helvetica,sans-Serif" font-size="9.00">std::basic_ostringstream</text>
<text text-anchor="middle" x="491" y="-190.8" font-family="Helvetica,sans-Serif" font-size="9.00">&lt; _CharT, _Traits, _Alloc &gt;</text>
</a>
</g>
</g>
<!-- Node12&#45;&gt;Node17 -->
<g id="edge432_Node000012_Node000017" class="edge">
<title>Node12&#45;&gt;Node17</title>
<g id="a_edge432_Node000012_Node000017"><a xlink:title=" ">
<path fill="none" stroke="#63b8ff" d="M390.71,-168.91C407.6,-173.86 425.86,-179.21 442.07,-183.96"/>
<polygon fill="#63b8ff" stroke="#63b8ff" points="391.54,-165.5 380.96,-166.05 389.57,-172.22 391.54,-165.5"/>
</a>
</g>
</g>
</g>
</svg>
