<?xml version="1.0" encoding="UTF-8" standalone="no"?>
<!DOCTYPE svg PUBLIC "-//W3C//DTD SVG 1.1//EN"
 "http://www.w3.org/Graphics/SVG/1.1/DTD/svg11.dtd">
<!-- Generated by graphviz version 2.43.0 (0)
 -->
<!-- Title: Graphical Class Hierarchy Pages: 1 -->
<svg width="274pt" height="72pt"
 viewBox="0.00 0.00 274.00 72.00" xmlns="http://www.w3.org/2000/svg" xmlns:xlink="http://www.w3.org/1999/xlink">
<g id="graph0" class="graph" transform="scale(1 1) rotate(0) translate(4 68)">
<title>Graphical Class Hierarchy</title>
<!-- Node0 -->
<g id="Node000000" class="node">
<title>Node0</title>
<g id="a_Node000000"><a xlink:href="a08529.html" target="_top" xlink:title="See bits/stl_deque.h&#39;s _Deque_base for an explanation.">
<polygon fill="white" stroke="#666666" points="112,-43 0,-43 0,-15 112,-15 112,-43"/>
<text text-anchor="start" x="8" y="-31.8" font-family="Helvetica,sans-Serif" font-size="9.00">std::_List_base&lt; _Tp,</text>
<text text-anchor="middle" x="56" y="-21.8" font-family="Helvetica,sans-Serif" font-size="9.00"> _Alloc &gt;</text>
</a>
</g>
</g>
<!-- Node1 -->
<g id="Node000001" class="node">
<title>Node1</title>
<g id="a_Node000001"><a xlink:href="a08537.html" target="_top" xlink:title=" ">
<polygon fill="white" stroke="#666666" points="251.5,-64 162.5,-64 162.5,-36 251.5,-36 251.5,-64"/>
<text text-anchor="start" x="170.5" y="-52.8" font-family="Helvetica,sans-Serif" font-size="9.00">std::list&lt; __inp, </text>
<text text-anchor="middle" x="207" y="-42.8" font-family="Helvetica,sans-Serif" font-size="9.00">__rebind_inp &gt;</text>
</a>
</g>
</g>
<!-- Node0&#45;&gt;Node1 -->
<g id="edge179_Node000000_Node000001" class="edge">
<title>Node0&#45;&gt;Node1</title>
<g id="a_edge179_Node000000_Node000001"><a xlink:title=" ">
<path fill="none" stroke="darkgreen" d="M122.3,-38.2C135.84,-40.11 149.8,-42.08 162.33,-43.85"/>
<polygon fill="darkgreen" stroke="darkgreen" points="122.45,-34.69 112.06,-36.76 121.47,-41.62 122.45,-34.69"/>
</a>
</g>
</g>
<!-- Node2 -->
<g id="Node000002" class="node">
<title>Node2</title>
<g id="a_Node000002"><a xlink:href="a08537.html" target="_top" xlink:title="A standard container with linear time access to elements, and fixed time insertion/deletion at any po...">
<polygon fill="white" stroke="#666666" points="266,-18 148,-18 148,0 266,0 266,-18"/>
<text text-anchor="middle" x="207" y="-6.8" font-family="Helvetica,sans-Serif" font-size="9.00">std::list&lt; _Tp, _Alloc &gt;</text>
</a>
</g>
</g>
<!-- Node0&#45;&gt;Node2 -->
<g id="edge180_Node000000_Node000002" class="edge">
<title>Node0&#45;&gt;Node2</title>
<g id="a_edge180_Node000000_Node000002"><a xlink:title=" ">
<path fill="none" stroke="darkgreen" d="M122.06,-20.27C130.66,-19.11 139.44,-17.93 147.92,-16.8"/>
<polygon fill="darkgreen" stroke="darkgreen" points="121.5,-16.81 112.06,-21.61 122.44,-23.75 121.5,-16.81"/>
</a>
</g>
</g>
</g>
</svg>
