<?xml version="1.0" encoding="UTF-8" standalone="no"?>
<!DOCTYPE svg PUBLIC "-//W3C//DTD SVG 1.1//EN"
 "http://www.w3.org/Graphics/SVG/1.1/DTD/svg11.dtd">
<!-- Generated by graphviz version 2.43.0 (0)
 -->
<!-- Title: Graphical Class Hierarchy Pages: 1 -->
<svg width="323pt" height="282pt"
 viewBox="0.00 0.00 323.00 282.00" xmlns="http://www.w3.org/2000/svg" xmlns:xlink="http://www.w3.org/1999/xlink">
<g id="graph0" class="graph" transform="scale(1 1) rotate(0) translate(4 278)">
<title>Graphical Class Hierarchy</title>
<!-- Node0 -->
<g id="Node000000" class="node">
<title>Node0</title>
<g id="a_Node000000"><a xlink:href="a03633.html" target="_top" xlink:title=" ">
<polygon fill="white" stroke="#666666" points="109,-146 0,-146 0,-118 109,-118 109,-146"/>
<text text-anchor="start" x="8" y="-134.8" font-family="Helvetica,sans-Serif" font-size="9.00">std::_Tuple_impl&lt; 0,</text>
<text text-anchor="middle" x="54.5" y="-124.8" font-family="Helvetica,sans-Serif" font-size="9.00"> _Elements... &gt;</text>
</a>
</g>
</g>
<!-- Node1 -->
<g id="Node000001" class="node">
<title>Node1</title>
<g id="a_Node000001"><a xlink:href="a03609.html" target="_top" xlink:title=" ">
<polygon fill="white" stroke="#666666" points="282,-274 178,-274 178,-246 282,-246 282,-274"/>
<text text-anchor="start" x="186" y="-262.8" font-family="Helvetica,sans-Serif" font-size="9.00">std::tuple&lt; _Bound</text>
<text text-anchor="middle" x="230" y="-252.8" font-family="Helvetica,sans-Serif" font-size="9.00">_args... &gt;</text>
</a>
</g>
</g>
<!-- Node0&#45;&gt;Node1 -->
<g id="edge187_Node000000_Node000001" class="edge">
<title>Node0&#45;&gt;Node1</title>
<g id="a_edge187_Node000000_Node000001"><a xlink:title=" ">
<path fill="none" stroke="#63b8ff" d="M69.01,-154.75C84.42,-178.75 111.84,-215.93 145,-237 154.83,-243.24 166.34,-247.81 177.64,-251.15"/>
<polygon fill="#63b8ff" stroke="#63b8ff" points="71.97,-152.89 63.7,-146.27 66.04,-156.6 71.97,-152.89"/>
</a>
</g>
</g>
<!-- Node2 -->
<g id="Node000002" class="node">
<title>Node2</title>
<g id="a_Node000002"><a xlink:href="a03609.html" target="_top" xlink:title=" ">
<polygon fill="white" stroke="#666666" points="302,-228 158,-228 158,-210 302,-210 302,-228"/>
<text text-anchor="middle" x="230" y="-216.8" font-family="Helvetica,sans-Serif" font-size="9.00">std::tuple&lt; _BoundArgs... &gt;</text>
</a>
</g>
</g>
<!-- Node0&#45;&gt;Node2 -->
<g id="edge188_Node000000_Node000002" class="edge">
<title>Node0&#45;&gt;Node2</title>
<g id="a_edge188_Node000000_Node000002"><a xlink:title=" ">
<path fill="none" stroke="#63b8ff" d="M77.36,-153.4C94.42,-168.91 119.45,-189.16 145,-201 152.85,-204.64 161.45,-207.55 170.07,-209.88"/>
<polygon fill="#63b8ff" stroke="#63b8ff" points="79.35,-150.48 69.65,-146.23 74.58,-155.6 79.35,-150.48"/>
</a>
</g>
</g>
<!-- Node3 -->
<g id="Node000003" class="node">
<title>Node3</title>
<g id="a_Node000003"><a xlink:href="a03609.html" target="_top" xlink:title=" ">
<polygon fill="white" stroke="#666666" points="290.5,-192 169.5,-192 169.5,-164 290.5,-164 290.5,-192"/>
<text text-anchor="start" x="177.5" y="-180.8" font-family="Helvetica,sans-Serif" font-size="9.00">std::tuple&lt; std::array</text>
<text text-anchor="middle" x="230" y="-170.8" font-family="Helvetica,sans-Serif" font-size="9.00">&lt; _Tp, _Len &gt;, _Pred &gt;</text>
</a>
</g>
</g>
<!-- Node0&#45;&gt;Node3 -->
<g id="edge189_Node000000_Node000003" class="edge">
<title>Node0&#45;&gt;Node3</title>
<g id="a_edge189_Node000000_Node000003"><a xlink:title=" ">
<path fill="none" stroke="#63b8ff" d="M118.23,-148.63C137.18,-153.66 157.78,-159.12 176.03,-163.96"/>
<polygon fill="#63b8ff" stroke="#63b8ff" points="119.06,-145.23 108.5,-146.05 117.27,-152 119.06,-145.23"/>
</a>
</g>
</g>
<!-- Node4 -->
<g id="Node000004" class="node">
<title>Node4</title>
<g id="a_Node000004"><a xlink:href="a03609.html" target="_top" xlink:title=" ">
<polygon fill="white" stroke="#666666" points="315,-146 145,-146 145,-118 315,-118 315,-146"/>
<text text-anchor="start" x="153" y="-134.8" font-family="Helvetica,sans-Serif" font-size="9.00">std::tuple&lt; _ForwardIterator1,</text>
<text text-anchor="middle" x="230" y="-124.8" font-family="Helvetica,sans-Serif" font-size="9.00"> _ForwardIterator1, equal_to&lt;&gt; &gt;</text>
</a>
</g>
</g>
<!-- Node0&#45;&gt;Node4 -->
<g id="edge190_Node000000_Node000004" class="edge">
<title>Node0&#45;&gt;Node4</title>
<g id="a_edge190_Node000000_Node000004"><a xlink:title=" ">
<path fill="none" stroke="#63b8ff" d="M119.66,-132C127.87,-132 136.36,-132 144.82,-132"/>
<polygon fill="#63b8ff" stroke="#63b8ff" points="119.45,-128.5 109.45,-132 119.45,-135.5 119.45,-128.5"/>
</a>
</g>
</g>
<!-- Node5 -->
<g id="Node000005" class="node">
<title>Node5</title>
<g id="a_Node000005"><a xlink:href="a03609.html" target="_top" xlink:title=" ">
<polygon fill="white" stroke="#666666" points="287.5,-100 172.5,-100 172.5,-82 287.5,-82 287.5,-100"/>
<text text-anchor="middle" x="230" y="-88.8" font-family="Helvetica,sans-Serif" font-size="9.00">std::tuple&lt; _Args... &gt;</text>
</a>
</g>
</g>
<!-- Node0&#45;&gt;Node5 -->
<g id="edge191_Node000000_Node000005" class="edge">
<title>Node0&#45;&gt;Node5</title>
<g id="a_edge191_Node000000_Node000005"><a xlink:title=" ">
<path fill="none" stroke="#63b8ff" d="M118.74,-115.41C127.55,-113.2 136.49,-111 145,-109 158.07,-105.92 172.33,-102.78 185.33,-100.01"/>
<polygon fill="#63b8ff" stroke="#63b8ff" points="117.73,-112.06 108.89,-117.9 119.44,-118.84 117.73,-112.06"/>
</a>
</g>
</g>
<!-- Node6 -->
<g id="Node000006" class="node">
<title>Node6</title>
<g id="a_Node000006"><a xlink:href="a03609.html" target="_top" xlink:title=" ">
<polygon fill="white" stroke="#666666" points="294,-64 166,-64 166,-36 294,-36 294,-64"/>
<text text-anchor="start" x="174" y="-52.8" font-family="Helvetica,sans-Serif" font-size="9.00">std::tuple&lt; _MutexTypes</text>
<text text-anchor="middle" x="230" y="-42.8" font-family="Helvetica,sans-Serif" font-size="9.00"> &amp;... &gt;</text>
</a>
</g>
</g>
<!-- Node0&#45;&gt;Node6 -->
<g id="edge192_Node000000_Node000006" class="edge">
<title>Node0&#45;&gt;Node6</title>
<g id="a_edge192_Node000000_Node000006"><a xlink:title=" ">
<path fill="none" stroke="#63b8ff" d="M81.74,-111.49C98.93,-98.9 122.33,-83.26 145,-73 152.44,-69.63 160.48,-66.66 168.53,-64.07"/>
<polygon fill="#63b8ff" stroke="#63b8ff" points="79.27,-108.97 73.36,-117.76 83.46,-114.58 79.27,-108.97"/>
</a>
</g>
</g>
<!-- Node7 -->
<g id="Node000007" class="node">
<title>Node7</title>
<g id="a_Node000007"><a xlink:href="a03609.html" target="_top" xlink:title="Primary class template, tuple.">
<polygon fill="white" stroke="#666666" points="294,-18 166,-18 166,0 294,0 294,-18"/>
<text text-anchor="middle" x="230" y="-6.8" font-family="Helvetica,sans-Serif" font-size="9.00">std::tuple&lt; _Elements &gt;</text>
</a>
</g>
</g>
<!-- Node0&#45;&gt;Node7 -->
<g id="edge193_Node000000_Node000007" class="edge">
<title>Node0&#45;&gt;Node7</title>
<g id="a_edge193_Node000000_Node000007"><a xlink:title=" ">
<path fill="none" stroke="#63b8ff" d="M68.54,-109.28C83.71,-84.99 111.08,-47.24 145,-27 151.4,-23.18 158.51,-20.16 165.8,-17.79"/>
<polygon fill="#63b8ff" stroke="#63b8ff" points="65.53,-107.5 63.33,-117.86 71.51,-111.13 65.53,-107.5"/>
</a>
</g>
</g>
</g>
</svg>
