<?xml version="1.0" encoding="UTF-8" standalone="no"?>
<!DOCTYPE svg PUBLIC "-//W3C//DTD SVG 1.1//EN"
 "http://www.w3.org/Graphics/SVG/1.1/DTD/svg11.dtd">
<!-- Generated by graphviz version 2.43.0 (0)
 -->
<!-- Title: Graphical Class Hierarchy Pages: 1 -->
<svg width="308pt" height="158pt"
 viewBox="0.00 0.00 308.00 158.00" xmlns="http://www.w3.org/2000/svg" xmlns:xlink="http://www.w3.org/1999/xlink">
<g id="graph0" class="graph" transform="scale(1 1) rotate(0) translate(4 154)">
<title>Graphical Class Hierarchy</title>
<!-- Node0 -->
<g id="Node000000" class="node">
<title>Node0</title>
<g id="a_Node000000"><a xlink:href="a13465.html" target="_top" xlink:title="Node base.">
<polygon fill="white" stroke="#666666" points="145,-94 0,-94 0,-56 145,-56 145,-94"/>
<text text-anchor="start" x="8" y="-82.8" font-family="Helvetica,sans-Serif" font-size="9.00">__gnu_pbds::detail</text>
<text text-anchor="start" x="8" y="-72.8" font-family="Helvetica,sans-Serif" font-size="9.00">::pat_trie_base::_Node</text>
<text text-anchor="middle" x="72.5" y="-62.8" font-family="Helvetica,sans-Serif" font-size="9.00">_base&lt; _ATraits, Metadata &gt;</text>
</a>
</g>
</g>
<!-- Node1 -->
<g id="Node000001" class="node">
<title>Node1</title>
<g id="a_Node000001"><a xlink:href="a13469.html" target="_top" xlink:title="Head node for PATRICIA tree.">
<polygon fill="white" stroke="#666666" points="300,-150 181,-150 181,-112 300,-112 300,-150"/>
<text text-anchor="start" x="189" y="-138.8" font-family="Helvetica,sans-Serif" font-size="9.00">__gnu_pbds::detail</text>
<text text-anchor="start" x="189" y="-128.8" font-family="Helvetica,sans-Serif" font-size="9.00">::pat_trie_base::_Head</text>
<text text-anchor="middle" x="240.5" y="-118.8" font-family="Helvetica,sans-Serif" font-size="9.00">&lt; _ATraits, Metadata &gt;</text>
</a>
</g>
</g>
<!-- Node0&#45;&gt;Node1 -->
<g id="edge149_Node000000_Node000001" class="edge">
<title>Node0&#45;&gt;Node1</title>
<g id="a_edge149_Node000000_Node000001"><a xlink:title=" ">
<path fill="none" stroke="#63b8ff" d="M139.93,-97.41C154.23,-102.24 169.22,-107.29 183.09,-111.97"/>
<polygon fill="#63b8ff" stroke="#63b8ff" points="140.76,-94 130.16,-94.12 138.52,-100.63 140.76,-94"/>
</a>
</g>
</g>
<!-- Node2 -->
<g id="Node000002" class="node">
<title>Node2</title>
<g id="a_Node000002"><a xlink:href="a13477.html" target="_top" xlink:title="Internal node type, PATRICIA tree.">
<polygon fill="white" stroke="#666666" points="300,-94 181,-94 181,-56 300,-56 300,-94"/>
<text text-anchor="start" x="189" y="-82.8" font-family="Helvetica,sans-Serif" font-size="9.00">__gnu_pbds::detail</text>
<text text-anchor="start" x="189" y="-72.8" font-family="Helvetica,sans-Serif" font-size="9.00">::pat_trie_base::_Inode</text>
<text text-anchor="middle" x="240.5" y="-62.8" font-family="Helvetica,sans-Serif" font-size="9.00">&lt; _ATraits, Metadata &gt;</text>
</a>
</g>
</g>
<!-- Node0&#45;&gt;Node2 -->
<g id="edge150_Node000000_Node000002" class="edge">
<title>Node0&#45;&gt;Node2</title>
<g id="a_edge150_Node000000_Node000002"><a xlink:title=" ">
<path fill="none" stroke="#63b8ff" d="M155.38,-75C163.95,-75 172.53,-75 180.77,-75"/>
<polygon fill="#63b8ff" stroke="#63b8ff" points="155.34,-71.5 145.34,-75 155.34,-78.5 155.34,-71.5"/>
</a>
</g>
</g>
<!-- Node3 -->
<g id="Node000003" class="node">
<title>Node3</title>
<g id="a_Node000003"><a xlink:href="a13473.html" target="_top" xlink:title="Leaf node for PATRICIA tree.">
<polygon fill="white" stroke="#666666" points="300,-38 181,-38 181,0 300,0 300,-38"/>
<text text-anchor="start" x="189" y="-26.8" font-family="Helvetica,sans-Serif" font-size="9.00">__gnu_pbds::detail</text>
<text text-anchor="start" x="189" y="-16.8" font-family="Helvetica,sans-Serif" font-size="9.00">::pat_trie_base::_Leaf</text>
<text text-anchor="middle" x="240.5" y="-6.8" font-family="Helvetica,sans-Serif" font-size="9.00">&lt; _ATraits, Metadata &gt;</text>
</a>
</g>
</g>
<!-- Node0&#45;&gt;Node3 -->
<g id="edge151_Node000000_Node000003" class="edge">
<title>Node0&#45;&gt;Node3</title>
<g id="a_edge151_Node000000_Node000003"><a xlink:title=" ">
<path fill="none" stroke="#63b8ff" d="M139.93,-52.59C154.23,-47.76 169.22,-42.71 183.09,-38.03"/>
<polygon fill="#63b8ff" stroke="#63b8ff" points="138.52,-49.37 130.16,-55.88 140.76,-56 138.52,-49.37"/>
</a>
</g>
</g>
</g>
</svg>
