<?xml version="1.0" encoding="UTF-8" standalone="no"?>
<!DOCTYPE svg PUBLIC "-//W3C//DTD SVG 1.1//EN"
 "http://www.w3.org/Graphics/SVG/1.1/DTD/svg11.dtd">
<!-- Generated by graphviz version 2.43.0 (0)
 -->
<!-- Title: Graphical Class Hierarchy Pages: 1 -->
<svg width="539pt" height="381pt"
 viewBox="0.00 0.00 539.00 381.00" xmlns="http://www.w3.org/2000/svg" xmlns:xlink="http://www.w3.org/1999/xlink">
<g id="graph0" class="graph" transform="scale(1 1) rotate(0) translate(4 377)">
<title>Graphical Class Hierarchy</title>
<!-- Node0 -->
<g id="Node000000" class="node">
<title>Node0</title>
<g id="a_Node000000"><a xlink:href="a13281.html" target="_top" xlink:title="Primary template.">
<polygon fill="white" stroke="#666666" points="318,-307 187,-307 187,-269 318,-269 318,-307"/>
<text text-anchor="start" x="195" y="-295.8" font-family="Helvetica,sans-Serif" font-size="9.00">__gnu_pbds::detail</text>
<text text-anchor="start" x="195" y="-285.8" font-family="Helvetica,sans-Serif" font-size="9.00">::hash_eq_fn&lt; Key, Eq</text>
<text text-anchor="middle" x="252.5" y="-275.8" font-family="Helvetica,sans-Serif" font-size="9.00">_Fn, _Alloc, Store_Hash &gt;</text>
</a>
</g>
</g>
<!-- Node1 -->
<g id="Node000001" class="node">
<title>Node1</title>
<g id="a_Node000001"><a xlink:href="a13269.html" target="_top" xlink:title=" ">
<polygon fill="white" stroke="#666666" points="528.5,-332 379.5,-332 379.5,-274 528.5,-274 528.5,-332"/>
<text text-anchor="start" x="387.5" y="-320.8" font-family="Helvetica,sans-Serif" font-size="9.00">__gnu_pbds::detail</text>
<text text-anchor="start" x="387.5" y="-310.8" font-family="Helvetica,sans-Serif" font-size="9.00">::cc_ht_map&lt; Key, Mapped,</text>
<text text-anchor="start" x="387.5" y="-300.8" font-family="Helvetica,sans-Serif" font-size="9.00"> Hash_Fn, Eq_Fn, _Alloc,</text>
<text text-anchor="start" x="387.5" y="-290.8" font-family="Helvetica,sans-Serif" font-size="9.00"> Store_Hash, Comb_Hash_Fn,</text>
<text text-anchor="middle" x="454" y="-280.8" font-family="Helvetica,sans-Serif" font-size="9.00"> Resize_Policy &gt;</text>
</a>
</g>
</g>
<!-- Node0&#45;&gt;Node1 -->
<g id="edge125_Node000000_Node000001" class="edge">
<title>Node0&#45;&gt;Node1</title>
<g id="a_edge125_Node000000_Node000001"><a xlink:title=" ">
<path fill="none" stroke="#63b8ff" d="M328.47,-293.64C345.07,-294.88 362.65,-296.21 379.21,-297.45"/>
<polygon fill="#63b8ff" stroke="#63b8ff" points="328.51,-290.13 318.27,-292.87 327.98,-297.11 328.51,-290.13"/>
</a>
</g>
</g>
<!-- Node3 -->
<g id="Node000003" class="node">
<title>Node3</title>
<g id="a_Node000003"><a xlink:href="a13293.html" target="_top" xlink:title=" ">
<polygon fill="white" stroke="#666666" points="531,-256 377,-256 377,-198 531,-198 531,-256"/>
<text text-anchor="start" x="385" y="-244.8" font-family="Helvetica,sans-Serif" font-size="9.00">__gnu_pbds::detail</text>
<text text-anchor="start" x="385" y="-234.8" font-family="Helvetica,sans-Serif" font-size="9.00">::gp_ht_map&lt; Key, Mapped,</text>
<text text-anchor="start" x="385" y="-224.8" font-family="Helvetica,sans-Serif" font-size="9.00"> Hash_Fn, Eq_Fn, _Alloc,</text>
<text text-anchor="start" x="385" y="-214.8" font-family="Helvetica,sans-Serif" font-size="9.00"> Store_Hash, Comb_Probe</text>
<text text-anchor="middle" x="454" y="-204.8" font-family="Helvetica,sans-Serif" font-size="9.00">_Fn, Probe_Fn, Resize_Policy &gt;</text>
</a>
</g>
</g>
<!-- Node0&#45;&gt;Node3 -->
<g id="edge126_Node000000_Node000003" class="edge">
<title>Node0&#45;&gt;Node3</title>
<g id="a_edge126_Node000000_Node000003"><a xlink:title=" ">
<path fill="none" stroke="#63b8ff" d="M325.47,-265.99C342.15,-260.9 359.94,-255.45 376.79,-250.3"/>
<polygon fill="#63b8ff" stroke="#63b8ff" points="324.34,-262.68 315.8,-268.95 326.39,-269.37 324.34,-262.68"/>
</a>
</g>
</g>
<!-- Node5 -->
<g id="Node000005" class="node">
<title>Node5</title>
<g id="a_Node000005"><a xlink:href="a13149.html" target="_top" xlink:title="Base class for conditionally defining a static data member.">
<polygon fill="white" stroke="#666666" points="128,-185 0,-185 0,-137 128,-137 128,-185"/>
<text text-anchor="start" x="8" y="-173.8" font-family="Helvetica,sans-Serif" font-size="9.00">__gnu_pbds::detail</text>
<text text-anchor="start" x="8" y="-163.8" font-family="Helvetica,sans-Serif" font-size="9.00">::maybe_null_type&lt; Key,</text>
<text text-anchor="start" x="8" y="-153.8" font-family="Helvetica,sans-Serif" font-size="9.00"> Mapped, _Alloc, Store</text>
<text text-anchor="middle" x="64" y="-143.8" font-family="Helvetica,sans-Serif" font-size="9.00">_Hash &gt;</text>
</a>
</g>
</g>
<!-- Node6 -->
<g id="Node000006" class="node">
<title>Node6</title>
<g id="a_Node000006"><a xlink:href="a13161.html" target="_top" xlink:title=" ">
<polygon fill="white" stroke="#666666" points="314.5,-114 190.5,-114 190.5,-76 314.5,-76 314.5,-114"/>
<text text-anchor="start" x="198.5" y="-102.8" font-family="Helvetica,sans-Serif" font-size="9.00">__gnu_pbds::detail</text>
<text text-anchor="start" x="198.5" y="-92.8" font-family="Helvetica,sans-Serif" font-size="9.00">::types_traits&lt; Key,</text>
<text text-anchor="middle" x="252.5" y="-82.8" font-family="Helvetica,sans-Serif" font-size="9.00"> Mapped, _Alloc, false &gt;</text>
</a>
</g>
</g>
<!-- Node5&#45;&gt;Node6 -->
<g id="edge127_Node000005_Node000006" class="edge">
<title>Node5&#45;&gt;Node6</title>
<g id="a_edge127_Node000005_Node000006"><a xlink:title=" ">
<path fill="none" stroke="#63b8ff" d="M137.82,-135.23C157.79,-128.16 179.07,-120.63 197.76,-114.02"/>
<polygon fill="#63b8ff" stroke="#63b8ff" points="136.4,-132.02 128.14,-138.66 138.74,-138.62 136.4,-132.02"/>
</a>
</g>
</g>
<!-- Node2 -->
<g id="Node000002" class="node">
<title>Node2</title>
<g id="a_Node000002"><a xlink:href="a13161.html" target="_top" xlink:title="Traits for abstract types.">
<polygon fill="white" stroke="#666666" points="311,-251 194,-251 194,-203 311,-203 311,-251"/>
<text text-anchor="start" x="202" y="-239.8" font-family="Helvetica,sans-Serif" font-size="9.00">__gnu_pbds::detail</text>
<text text-anchor="start" x="202" y="-229.8" font-family="Helvetica,sans-Serif" font-size="9.00">::types_traits&lt; Key,</text>
<text text-anchor="start" x="202" y="-219.8" font-family="Helvetica,sans-Serif" font-size="9.00"> Mapped, _Alloc, Store</text>
<text text-anchor="middle" x="252.5" y="-209.8" font-family="Helvetica,sans-Serif" font-size="9.00">_Hash &gt;</text>
</a>
</g>
</g>
<!-- Node5&#45;&gt;Node2 -->
<g id="edge131_Node000005_Node000002" class="edge">
<title>Node5&#45;&gt;Node2</title>
<g id="a_edge131_Node000005_Node000002"><a xlink:title=" ">
<path fill="none" stroke="#63b8ff" d="M137.74,-186.74C156.32,-193.32 176.04,-200.3 193.76,-206.57"/>
<polygon fill="#63b8ff" stroke="#63b8ff" points="138.74,-183.38 128.14,-183.34 136.4,-189.98 138.74,-183.38"/>
</a>
</g>
</g>
<!-- Node7 -->
<g id="Node000007" class="node">
<title>Node7</title>
<g id="a_Node000007"><a xlink:href="a13393.html" target="_top" xlink:title="list&#45;based (with updates) associative container. Skip to the lu, my darling.">
<polygon fill="white" stroke="#666666" points="517.5,-114 390.5,-114 390.5,-66 517.5,-66 517.5,-114"/>
<text text-anchor="start" x="398.5" y="-102.8" font-family="Helvetica,sans-Serif" font-size="9.00">__gnu_pbds::detail</text>
<text text-anchor="start" x="398.5" y="-92.8" font-family="Helvetica,sans-Serif" font-size="9.00">::lu_map&lt; Key, Mapped,</text>
<text text-anchor="start" x="398.5" y="-82.8" font-family="Helvetica,sans-Serif" font-size="9.00"> Eq_Fn, _Alloc, Update</text>
<text text-anchor="middle" x="454" y="-72.8" font-family="Helvetica,sans-Serif" font-size="9.00">_Policy &gt;</text>
</a>
</g>
</g>
<!-- Node6&#45;&gt;Node7 -->
<g id="edge128_Node000006_Node000007" class="edge">
<title>Node6&#45;&gt;Node7</title>
<g id="a_edge128_Node000006_Node000007"><a xlink:title=" ">
<path fill="none" stroke="#63b8ff" d="M324.71,-93.22C346.09,-92.68 369.38,-92.1 390.18,-91.57"/>
<polygon fill="#63b8ff" stroke="#63b8ff" points="324.62,-89.72 314.71,-93.47 324.8,-96.71 324.62,-89.72"/>
</a>
</g>
</g>
<!-- Node8 -->
<g id="Node000008" class="node">
<title>Node8</title>
<g id="a_Node000008"><a xlink:href="a13421.html" target="_top" xlink:title="Ordered&#45;vector tree associative&#45;container.">
<polygon fill="white" stroke="#666666" points="518,-180 390,-180 390,-132 518,-132 518,-180"/>
<text text-anchor="start" x="398" y="-168.8" font-family="Helvetica,sans-Serif" font-size="9.00">__gnu_pbds::detail</text>
<text text-anchor="start" x="398" y="-158.8" font-family="Helvetica,sans-Serif" font-size="9.00">::ov_tree_map&lt; Key,</text>
<text text-anchor="start" x="398" y="-148.8" font-family="Helvetica,sans-Serif" font-size="9.00"> Mapped, Cmp_Fn, Node</text>
<text text-anchor="middle" x="454" y="-138.8" font-family="Helvetica,sans-Serif" font-size="9.00">_And_It_Traits, _Alloc &gt;</text>
</a>
</g>
</g>
<!-- Node6&#45;&gt;Node8 -->
<g id="edge129_Node000006_Node000008" class="edge">
<title>Node6&#45;&gt;Node8</title>
<g id="a_edge129_Node000006_Node000008"><a xlink:title=" ">
<path fill="none" stroke="#63b8ff" d="M324.37,-116.67C345.73,-123.2 369.01,-130.32 389.83,-136.69"/>
<polygon fill="#63b8ff" stroke="#63b8ff" points="325.3,-113.29 314.71,-113.72 323.25,-119.99 325.3,-113.29"/>
</a>
</g>
</g>
<!-- Node9 -->
<g id="Node000009" class="node">
<title>Node9</title>
<g id="a_Node000009"><a xlink:href="a13441.html" target="_top" xlink:title="PATRICIA trie.">
<polygon fill="white" stroke="#666666" points="513.5,-48 394.5,-48 394.5,0 513.5,0 513.5,-48"/>
<text text-anchor="start" x="402.5" y="-36.8" font-family="Helvetica,sans-Serif" font-size="9.00">__gnu_pbds::detail</text>
<text text-anchor="start" x="402.5" y="-26.8" font-family="Helvetica,sans-Serif" font-size="9.00">::pat_trie_map&lt; Key,</text>
<text text-anchor="start" x="402.5" y="-16.8" font-family="Helvetica,sans-Serif" font-size="9.00"> Mapped, Node_And_It</text>
<text text-anchor="middle" x="454" y="-6.8" font-family="Helvetica,sans-Serif" font-size="9.00">_Traits, _Alloc &gt;</text>
</a>
</g>
</g>
<!-- Node6&#45;&gt;Node9 -->
<g id="edge130_Node000006_Node000009" class="edge">
<title>Node6&#45;&gt;Node9</title>
<g id="a_edge130_Node000006_Node000009"><a xlink:title=" ">
<path fill="none" stroke="#63b8ff" d="M316.68,-72.52C341.59,-63.65 370.04,-53.52 394.48,-44.83"/>
<polygon fill="#63b8ff" stroke="#63b8ff" points="315.21,-69.32 306.96,-75.97 317.56,-75.92 315.21,-69.32"/>
</a>
</g>
</g>
<!-- Node2&#45;&gt;Node1 -->
<g id="edge132_Node000002_Node000001" class="edge">
<title>Node2&#45;&gt;Node1</title>
<g id="a_edge132_Node000002_Node000001"><a xlink:title=" ">
<path fill="none" stroke="#63b8ff" d="M321.19,-252.48C327.89,-255.02 334.58,-257.56 341,-260 353.36,-264.7 366.48,-269.72 379.22,-274.6"/>
<polygon fill="#63b8ff" stroke="#63b8ff" points="322,-249.05 311.41,-248.79 319.53,-255.6 322,-249.05"/>
</a>
</g>
</g>
<!-- Node2&#45;&gt;Node3 -->
<g id="edge133_Node000002_Node000003" class="edge">
<title>Node2&#45;&gt;Node3</title>
<g id="a_edge133_Node000002_Node000003"><a xlink:title=" ">
<path fill="none" stroke="#63b8ff" d="M321.5,-227C339.32,-227 358.64,-227 376.85,-227"/>
<polygon fill="#63b8ff" stroke="#63b8ff" points="321.2,-223.5 311.2,-227 321.2,-230.5 321.2,-223.5"/>
</a>
</g>
</g>
<!-- Node10 -->
<g id="Node000010" class="node">
<title>Node10</title>
<g id="a_Node000010"><a xlink:href="a13453.html" target="_top" xlink:title="Base type for PATRICIA trees.">
<polygon fill="white" stroke="#666666" points="303,-38 202,-38 202,-10 303,-10 303,-38"/>
<text text-anchor="start" x="210" y="-26.8" font-family="Helvetica,sans-Serif" font-size="9.00">__gnu_pbds::detail</text>
<text text-anchor="middle" x="252.5" y="-16.8" font-family="Helvetica,sans-Serif" font-size="9.00">::pat_trie_base</text>
</a>
</g>
</g>
<!-- Node10&#45;&gt;Node9 -->
<g id="edge134_Node000010_Node000009" class="edge">
<title>Node10&#45;&gt;Node9</title>
<g id="a_edge134_Node000010_Node000009"><a xlink:title=" ">
<path fill="none" stroke="#63b8ff" d="M313.07,-24C338.82,-24 368.84,-24 394.47,-24"/>
<polygon fill="#63b8ff" stroke="#63b8ff" points="313.07,-20.5 303.07,-24 313.07,-27.5 313.07,-20.5"/>
</a>
</g>
</g>
<!-- Node11 -->
<g id="Node000011" class="node">
<title>Node11</title>
<g id="a_Node000011"><a xlink:href="a13313.html" target="_top" xlink:title="Primary template.">
<polygon fill="white" stroke="#666666" points="316,-373 189,-373 189,-325 316,-325 316,-373"/>
<text text-anchor="start" x="197" y="-361.8" font-family="Helvetica,sans-Serif" font-size="9.00">__gnu_pbds::detail</text>
<text text-anchor="start" x="197" y="-351.8" font-family="Helvetica,sans-Serif" font-size="9.00">::ranged_hash_fn&lt; Key,</text>
<text text-anchor="start" x="197" y="-341.8" font-family="Helvetica,sans-Serif" font-size="9.00"> Hash_Fn, _Alloc, Comb</text>
<text text-anchor="middle" x="252.5" y="-331.8" font-family="Helvetica,sans-Serif" font-size="9.00">_Hash_Fn, Store_Hash &gt;</text>
</a>
</g>
</g>
<!-- Node11&#45;&gt;Node1 -->
<g id="edge135_Node000011_Node000001" class="edge">
<title>Node11&#45;&gt;Node1</title>
<g id="a_edge135_Node000011_Node000001"><a xlink:title=" ">
<path fill="none" stroke="#63b8ff" d="M326.15,-332.25C343.51,-328.24 362.07,-323.97 379.48,-319.95"/>
<polygon fill="#63b8ff" stroke="#63b8ff" points="325.03,-328.91 316.08,-334.57 326.61,-335.74 325.03,-328.91"/>
</a>
</g>
</g>
<!-- Node4 -->
<g id="Node000004" class="node">
<title>Node4</title>
<g id="a_Node000004"><a xlink:href="a13333.html" target="_top" xlink:title="Primary template.">
<polygon fill="white" stroke="#666666" points="341,-185 164,-185 164,-137 341,-137 341,-185"/>
<text text-anchor="start" x="172" y="-173.8" font-family="Helvetica,sans-Serif" font-size="9.00">__gnu_pbds::detail</text>
<text text-anchor="start" x="172" y="-163.8" font-family="Helvetica,sans-Serif" font-size="9.00">::ranged_probe_fn&lt; Key,</text>
<text text-anchor="start" x="172" y="-153.8" font-family="Helvetica,sans-Serif" font-size="9.00"> Hash_Fn, _Alloc, Comb</text>
<text text-anchor="middle" x="252.5" y="-143.8" font-family="Helvetica,sans-Serif" font-size="9.00">_Probe_Fn, Probe_Fn, Store_Hash &gt;</text>
</a>
</g>
</g>
<!-- Node4&#45;&gt;Node3 -->
<g id="edge136_Node000004_Node000003" class="edge">
<title>Node4&#45;&gt;Node3</title>
<g id="a_edge136_Node000004_Node000003"><a xlink:title=" ">
<path fill="none" stroke="#63b8ff" d="M335.86,-188.25C349.4,-192.73 363.39,-197.35 376.77,-201.78"/>
<polygon fill="#63b8ff" stroke="#63b8ff" points="336.68,-184.83 326.09,-185.01 334.48,-191.48 336.68,-184.83"/>
</a>
</g>
</g>
</g>
</svg>
