<?xml version="1.0" encoding="UTF-8" standalone="no"?>
<!DOCTYPE svg PUBLIC "-//W3C//DTD SVG 1.1//EN"
 "http://www.w3.org/Graphics/SVG/1.1/DTD/svg11.dtd">
<!-- Generated by graphviz version 2.43.0 (0)
 -->
<!-- Title: Graphical Class Hierarchy Pages: 1 -->
<svg width="268pt" height="170pt"
 viewBox="0.00 0.00 268.00 170.00" xmlns="http://www.w3.org/2000/svg" xmlns:xlink="http://www.w3.org/1999/xlink">
<g id="graph0" class="graph" transform="scale(1 1) rotate(0) translate(4 166)">
<title>Graphical Class Hierarchy</title>
<!-- Node0 -->
<g id="Node000000" class="node">
<title>Node0</title>
<g id="a_Node000000"><a xlink:href="a08041.html" target="_top" xlink:title=" ">
<polygon fill="white" stroke="#666666" points="107,-95 0,-95 0,-67 107,-67 107,-95"/>
<text text-anchor="start" x="8" y="-83.8" font-family="Helvetica,sans-Serif" font-size="9.00">std::binary_function</text>
<text text-anchor="middle" x="53.5" y="-73.8" font-family="Helvetica,sans-Serif" font-size="9.00">&lt; _Tp, _Tp, _Tp &gt;</text>
</a>
</g>
</g>
<!-- Node1 -->
<g id="Node000001" class="node">
<title>Node1</title>
<g id="a_Node000001"><a xlink:href="a08057.html" target="_top" xlink:title="One of the math functors.">
<polygon fill="white" stroke="#666666" points="254,-162 149,-162 149,-144 254,-144 254,-162"/>
<text text-anchor="middle" x="201.5" y="-150.8" font-family="Helvetica,sans-Serif" font-size="9.00">std::divides&lt; _Tp &gt;</text>
</a>
</g>
</g>
<!-- Node0&#45;&gt;Node1 -->
<g id="edge247_Node000000_Node000001" class="edge">
<title>Node0&#45;&gt;Node1</title>
<g id="a_edge247_Node000000_Node000001"><a xlink:title=" ">
<path fill="none" stroke="#63b8ff" d="M82.78,-100.71C99.69,-111.86 121.92,-125.44 143,-135 150.53,-138.41 158.88,-141.43 166.84,-143.98"/>
<polygon fill="#63b8ff" stroke="#63b8ff" points="84.71,-97.8 74.46,-95.14 80.82,-103.61 84.71,-97.8"/>
</a>
</g>
</g>
<!-- Node2 -->
<g id="Node000002" class="node">
<title>Node2</title>
<g id="a_Node000002"><a xlink:href="a08049.html" target="_top" xlink:title="One of the math functors.">
<polygon fill="white" stroke="#666666" points="252,-126 151,-126 151,-108 252,-108 252,-126"/>
<text text-anchor="middle" x="201.5" y="-114.8" font-family="Helvetica,sans-Serif" font-size="9.00">std::minus&lt; _Tp &gt;</text>
</a>
</g>
</g>
<!-- Node0&#45;&gt;Node2 -->
<g id="edge248_Node000000_Node000002" class="edge">
<title>Node0&#45;&gt;Node2</title>
<g id="a_edge248_Node000000_Node000002"><a xlink:title=" ">
<path fill="none" stroke="#63b8ff" d="M117.04,-96.42C133.02,-100.36 149.68,-104.47 163.87,-107.97"/>
<polygon fill="#63b8ff" stroke="#63b8ff" points="117.76,-92.99 107.21,-94 116.08,-99.79 117.76,-92.99"/>
</a>
</g>
</g>
<!-- Node3 -->
<g id="Node000003" class="node">
<title>Node3</title>
<g id="a_Node000003"><a xlink:href="a08061.html" target="_top" xlink:title="One of the math functors.">
<polygon fill="white" stroke="#666666" points="258,-90 145,-90 145,-72 258,-72 258,-90"/>
<text text-anchor="middle" x="201.5" y="-78.8" font-family="Helvetica,sans-Serif" font-size="9.00">std::modulus&lt; _Tp &gt;</text>
</a>
</g>
</g>
<!-- Node0&#45;&gt;Node3 -->
<g id="edge249_Node000000_Node000003" class="edge">
<title>Node0&#45;&gt;Node3</title>
<g id="a_edge249_Node000000_Node000003"><a xlink:title=" ">
<path fill="none" stroke="#63b8ff" d="M117.41,-81C126.56,-81 135.92,-81 144.91,-81"/>
<polygon fill="#63b8ff" stroke="#63b8ff" points="117.21,-77.5 107.21,-81 117.21,-84.5 117.21,-77.5"/>
</a>
</g>
</g>
<!-- Node4 -->
<g id="Node000004" class="node">
<title>Node4</title>
<g id="a_Node000004"><a xlink:href="a08053.html" target="_top" xlink:title="One of the math functors.">
<polygon fill="white" stroke="#666666" points="260,-54 143,-54 143,-36 260,-36 260,-54"/>
<text text-anchor="middle" x="201.5" y="-42.8" font-family="Helvetica,sans-Serif" font-size="9.00">std::multiplies&lt; _Tp &gt;</text>
</a>
</g>
</g>
<!-- Node0&#45;&gt;Node4 -->
<g id="edge250_Node000000_Node000004" class="edge">
<title>Node0&#45;&gt;Node4</title>
<g id="a_edge250_Node000000_Node000004"><a xlink:title=" ">
<path fill="none" stroke="#63b8ff" d="M117.04,-65.58C133.02,-61.64 149.68,-57.53 163.87,-54.03"/>
<polygon fill="#63b8ff" stroke="#63b8ff" points="116.08,-62.21 107.21,-68 117.76,-69.01 116.08,-62.21"/>
</a>
</g>
</g>
<!-- Node5 -->
<g id="Node000005" class="node">
<title>Node5</title>
<g id="a_Node000005"><a xlink:href="a08045.html" target="_top" xlink:title="One of the math functors.">
<polygon fill="white" stroke="#666666" points="247.5,-18 155.5,-18 155.5,0 247.5,0 247.5,-18"/>
<text text-anchor="middle" x="201.5" y="-6.8" font-family="Helvetica,sans-Serif" font-size="9.00">std::plus&lt; _Tp &gt;</text>
</a>
</g>
</g>
<!-- Node0&#45;&gt;Node5 -->
<g id="edge251_Node000000_Node000005" class="edge">
<title>Node0&#45;&gt;Node5</title>
<g id="a_edge251_Node000000_Node000005"><a xlink:title=" ">
<path fill="none" stroke="#63b8ff" d="M82.78,-61.29C99.69,-50.14 121.92,-36.56 143,-27 150.53,-23.59 158.88,-20.57 166.84,-18.02"/>
<polygon fill="#63b8ff" stroke="#63b8ff" points="80.82,-58.39 74.46,-66.86 84.71,-64.2 80.82,-58.39"/>
</a>
</g>
</g>
</g>
</svg>
