<?xml version="1.0" encoding="UTF-8" standalone="no"?>
<!DOCTYPE svg PUBLIC "-//W3C//DTD SVG 1.1//EN"
 "http://www.w3.org/Graphics/SVG/1.1/DTD/svg11.dtd">
<!-- Generated by graphviz version 2.43.0 (0)
 -->
<!-- Title: Graphical Class Hierarchy Pages: 1 -->
<svg width="650pt" height="920pt"
 viewBox="0.00 0.00 650.00 920.00" xmlns="http://www.w3.org/2000/svg" xmlns:xlink="http://www.w3.org/1999/xlink">
<g id="graph0" class="graph" transform="scale(1 1) rotate(0) translate(4 916)">
<title>Graphical Class Hierarchy</title>
<!-- Node0 -->
<g id="Node000000" class="node">
<title>Node0</title>
<g id="a_Node000000"><a xlink:href="a05465.html" target="_top" xlink:title="Empty base class for codecvt facet [22.2.1.5].">
<polygon fill="white" stroke="#666666" points="102.5,-744 4.5,-744 4.5,-726 102.5,-726 102.5,-744"/>
<text text-anchor="middle" x="53.5" y="-732.8" font-family="Helvetica,sans-Serif" font-size="9.00">std::codecvt_base</text>
</a>
</g>
</g>
<!-- Node1 -->
<g id="Node000001" class="node">
<title>Node1</title>
<g id="a_Node000001"><a xlink:href="a05469.html" target="_top" xlink:title=" ">
<polygon fill="white" stroke="#666666" points="296.5,-642 157.5,-642 157.5,-604 296.5,-604 296.5,-642"/>
<text text-anchor="start" x="165.5" y="-630.8" font-family="Helvetica,sans-Serif" font-size="9.00">std::__codecvt_abstract</text>
<text text-anchor="start" x="165.5" y="-620.8" font-family="Helvetica,sans-Serif" font-size="9.00">_base&lt; _InternT, _ExternT,</text>
<text text-anchor="middle" x="227" y="-610.8" font-family="Helvetica,sans-Serif" font-size="9.00"> encoding_state &gt;</text>
</a>
</g>
</g>
<!-- Node0&#45;&gt;Node1 -->
<g id="edge262_Node000000_Node000001" class="edge">
<title>Node0&#45;&gt;Node1</title>
<g id="a_edge262_Node000000_Node000001"><a xlink:title=" ">
<path fill="none" stroke="#63b8ff" d="M68.31,-718.05C84.44,-699.26 112.79,-669.2 143,-651 148.47,-647.7 154.38,-644.73 160.44,-642.08"/>
<polygon fill="#63b8ff" stroke="#63b8ff" points="65.55,-715.9 61.8,-725.81 70.91,-720.4 65.55,-715.9"/>
</a>
</g>
</g>
<!-- Node4 -->
<g id="Node000004" class="node">
<title>Node4</title>
<g id="a_Node000004"><a xlink:href="a05469.html" target="_top" xlink:title=" ">
<polygon fill="white" stroke="#666666" points="307.5,-586 146.5,-586 146.5,-558 307.5,-558 307.5,-586"/>
<text text-anchor="start" x="154.5" y="-574.8" font-family="Helvetica,sans-Serif" font-size="9.00">std::__codecvt_abstract</text>
<text text-anchor="middle" x="227" y="-564.8" font-family="Helvetica,sans-Serif" font-size="9.00">_base&lt; char, char, mbstate_t &gt;</text>
</a>
</g>
</g>
<!-- Node0&#45;&gt;Node4 -->
<g id="edge264_Node000000_Node000004" class="edge">
<title>Node0&#45;&gt;Node4</title>
<g id="a_edge264_Node000000_Node000004"><a xlink:title=" ">
<path fill="none" stroke="#63b8ff" d="M61.24,-716.11C73.02,-685.86 100.23,-626.76 143,-595 147.68,-591.52 152.86,-588.57 158.28,-586.07"/>
<polygon fill="#63b8ff" stroke="#63b8ff" points="57.83,-715.25 57.6,-725.84 64.38,-717.7 57.83,-715.25"/>
</a>
</g>
</g>
<!-- Node6 -->
<g id="Node000006" class="node">
<title>Node6</title>
<g id="a_Node000006"><a xlink:href="a05469.html" target="_top" xlink:title=" ">
<polygon fill="white" stroke="#666666" points="289,-912 165,-912 165,-874 289,-874 289,-912"/>
<text text-anchor="start" x="173" y="-900.8" font-family="Helvetica,sans-Serif" font-size="9.00">std::__codecvt_abstract</text>
<text text-anchor="start" x="173" y="-890.8" font-family="Helvetica,sans-Serif" font-size="9.00">_base&lt; char16_t, char,</text>
<text text-anchor="middle" x="227" y="-880.8" font-family="Helvetica,sans-Serif" font-size="9.00"> mbstate_t &gt;</text>
</a>
</g>
</g>
<!-- Node0&#45;&gt;Node6 -->
<g id="edge266_Node000000_Node000006" class="edge">
<title>Node0&#45;&gt;Node6</title>
<g id="a_edge266_Node000000_Node000006"><a xlink:title=" ">
<path fill="none" stroke="#63b8ff" d="M62.35,-753.47C75.18,-781.54 103.27,-834.85 143,-865 149.54,-869.96 157.02,-874.08 164.74,-877.49"/>
<polygon fill="#63b8ff" stroke="#63b8ff" points="65.43,-751.78 58.18,-744.05 59.02,-754.61 65.43,-751.78"/>
</a>
</g>
</g>
<!-- Node8 -->
<g id="Node000008" class="node">
<title>Node8</title>
<g id="a_Node000008"><a xlink:href="a05469.html" target="_top" xlink:title=" ">
<polygon fill="white" stroke="#666666" points="289,-810 165,-810 165,-772 289,-772 289,-810"/>
<text text-anchor="start" x="173" y="-798.8" font-family="Helvetica,sans-Serif" font-size="9.00">std::__codecvt_abstract</text>
<text text-anchor="start" x="173" y="-788.8" font-family="Helvetica,sans-Serif" font-size="9.00">_base&lt; char32_t, char,</text>
<text text-anchor="middle" x="227" y="-778.8" font-family="Helvetica,sans-Serif" font-size="9.00"> mbstate_t &gt;</text>
</a>
</g>
</g>
<!-- Node0&#45;&gt;Node8 -->
<g id="edge268_Node000000_Node000008" class="edge">
<title>Node0&#45;&gt;Node8</title>
<g id="a_edge268_Node000000_Node000008"><a xlink:title=" ">
<path fill="none" stroke="#63b8ff" d="M92.1,-747.28C114.18,-754.49 142.55,-763.75 167.5,-771.9"/>
<polygon fill="#63b8ff" stroke="#63b8ff" points="93.03,-743.9 82.44,-744.12 90.86,-750.55 93.03,-743.9"/>
</a>
</g>
</g>
<!-- Node10 -->
<g id="Node000010" class="node">
<title>Node10</title>
<g id="a_Node000010"><a xlink:href="a05469.html" target="_top" xlink:title=" ">
<polygon fill="white" stroke="#666666" points="289,-754 165,-754 165,-716 289,-716 289,-754"/>
<text text-anchor="start" x="173" y="-742.8" font-family="Helvetica,sans-Serif" font-size="9.00">std::__codecvt_abstract</text>
<text text-anchor="start" x="173" y="-732.8" font-family="Helvetica,sans-Serif" font-size="9.00">_base&lt; wchar_t, char,</text>
<text text-anchor="middle" x="227" y="-722.8" font-family="Helvetica,sans-Serif" font-size="9.00"> mbstate_t &gt;</text>
</a>
</g>
</g>
<!-- Node0&#45;&gt;Node10 -->
<g id="edge270_Node000000_Node000010" class="edge">
<title>Node0&#45;&gt;Node10</title>
<g id="a_edge270_Node000000_Node000010"><a xlink:title=" ">
<path fill="none" stroke="#63b8ff" d="M112.94,-735C129.72,-735 148.04,-735 164.97,-735"/>
<polygon fill="#63b8ff" stroke="#63b8ff" points="112.73,-731.5 102.73,-735 112.73,-738.5 112.73,-731.5"/>
</a>
</g>
</g>
<!-- Node12 -->
<g id="Node000012" class="node">
<title>Node12</title>
<g id="a_Node000012"><a xlink:href="a05469.html" target="_top" xlink:title=" ">
<polygon fill="white" stroke="#666666" points="311,-856 143,-856 143,-828 311,-828 311,-856"/>
<text text-anchor="start" x="151" y="-844.8" font-family="Helvetica,sans-Serif" font-size="9.00">std::__codecvt_abstract</text>
<text text-anchor="middle" x="227" y="-834.8" font-family="Helvetica,sans-Serif" font-size="9.00">_base&lt; _Elem, char, mbstate_t &gt;</text>
</a>
</g>
</g>
<!-- Node0&#45;&gt;Node12 -->
<g id="edge272_Node000000_Node000012" class="edge">
<title>Node0&#45;&gt;Node12</title>
<g id="a_edge272_Node000000_Node000012"><a xlink:title=" ">
<path fill="none" stroke="#63b8ff" d="M67.88,-751.96C83.8,-771.01 112.14,-801.54 143,-819 149.12,-822.46 155.79,-825.43 162.6,-827.96"/>
<polygon fill="#63b8ff" stroke="#63b8ff" points="70.51,-749.64 61.48,-744.1 65.08,-754.06 70.51,-749.64"/>
</a>
</g>
</g>
<!-- Node21 -->
<g id="Node000021" class="node">
<title>Node21</title>
<g id="a_Node000021"><a xlink:href="a05469.html" target="_top" xlink:title="Common base for codecvt functions.">
<polygon fill="white" stroke="#666666" points="296.5,-698 157.5,-698 157.5,-660 296.5,-660 296.5,-698"/>
<text text-anchor="start" x="165.5" y="-686.8" font-family="Helvetica,sans-Serif" font-size="9.00">std::__codecvt_abstract</text>
<text text-anchor="start" x="165.5" y="-676.8" font-family="Helvetica,sans-Serif" font-size="9.00">_base&lt; _InternT, _ExternT,</text>
<text text-anchor="middle" x="227" y="-666.8" font-family="Helvetica,sans-Serif" font-size="9.00"> _StateT &gt;</text>
</a>
</g>
</g>
<!-- Node0&#45;&gt;Node21 -->
<g id="edge273_Node000000_Node000021" class="edge">
<title>Node0&#45;&gt;Node21</title>
<g id="a_edge273_Node000000_Node000021"><a xlink:title=" ">
<path fill="none" stroke="#63b8ff" d="M92.1,-722.72C114.18,-715.51 142.55,-706.25 167.5,-698.1"/>
<polygon fill="#63b8ff" stroke="#63b8ff" points="90.86,-719.45 82.44,-725.88 93.03,-726.1 90.86,-719.45"/>
</a>
</g>
</g>
<!-- Node2 -->
<g id="Node000002" class="node">
<title>Node2</title>
<g id="a_Node000002"><a xlink:href="a11925.html" target="_top" xlink:title="codecvt&lt;InternT, _ExternT, encoding_state&gt; specialization.">
<polygon fill="white" stroke="#666666" points="492,-629 347,-629 347,-601 492,-601 492,-629"/>
<text text-anchor="start" x="355" y="-617.8" font-family="Helvetica,sans-Serif" font-size="9.00">std::codecvt&lt; _InternT,</text>
<text text-anchor="middle" x="419.5" y="-607.8" font-family="Helvetica,sans-Serif" font-size="9.00"> _ExternT, encoding_state &gt;</text>
</a>
</g>
</g>
<!-- Node1&#45;&gt;Node2 -->
<g id="edge263_Node000001_Node000002" class="edge">
<title>Node1&#45;&gt;Node2</title>
<g id="a_edge263_Node000001_Node000002"><a xlink:title=" ">
<path fill="none" stroke="#63b8ff" d="M306.57,-619.7C319.88,-619.14 333.63,-618.56 346.75,-618.01"/>
<polygon fill="#63b8ff" stroke="#63b8ff" points="306.35,-616.21 296.51,-620.12 306.64,-623.2 306.35,-616.21"/>
</a>
</g>
</g>
<!-- Node5 -->
<g id="Node000005" class="node">
<title>Node5</title>
<g id="a_Node000005"><a xlink:href="a05477.html" target="_top" xlink:title="class codecvt&lt;char, char, mbstate_t&gt; specialization.">
<polygon fill="white" stroke="#666666" points="473,-583 366,-583 366,-555 473,-555 473,-583"/>
<text text-anchor="start" x="374" y="-571.8" font-family="Helvetica,sans-Serif" font-size="9.00">std::codecvt&lt; char,</text>
<text text-anchor="middle" x="419.5" y="-561.8" font-family="Helvetica,sans-Serif" font-size="9.00"> char, mbstate_t &gt;</text>
</a>
</g>
</g>
<!-- Node4&#45;&gt;Node5 -->
<g id="edge265_Node000004_Node000005" class="edge">
<title>Node4&#45;&gt;Node5</title>
<g id="a_edge265_Node000004_Node000005"><a xlink:title=" ">
<path fill="none" stroke="#63b8ff" d="M317.89,-570.58C334.36,-570.32 351.05,-570.06 365.97,-569.83"/>
<polygon fill="#63b8ff" stroke="#63b8ff" points="317.63,-567.09 307.69,-570.75 317.74,-574.09 317.63,-567.09"/>
</a>
</g>
</g>
<!-- Node7 -->
<g id="Node000007" class="node">
<title>Node7</title>
<g id="a_Node000007"><a xlink:href="a05485.html" target="_top" xlink:title="Class codecvt&lt;char16_t, char, mbstate_t&gt; specialization.">
<polygon fill="white" stroke="#666666" points="477.5,-907 361.5,-907 361.5,-879 477.5,-879 477.5,-907"/>
<text text-anchor="start" x="369.5" y="-895.8" font-family="Helvetica,sans-Serif" font-size="9.00">std::codecvt&lt; char16</text>
<text text-anchor="middle" x="419.5" y="-885.8" font-family="Helvetica,sans-Serif" font-size="9.00">_t, char, mbstate_t &gt;</text>
</a>
</g>
</g>
<!-- Node6&#45;&gt;Node7 -->
<g id="edge267_Node000006_Node000007" class="edge">
<title>Node6&#45;&gt;Node7</title>
<g id="a_edge267_Node000006_Node000007"><a xlink:title=" ">
<path fill="none" stroke="#63b8ff" d="M299.29,-893C319.77,-893 341.83,-893 361.34,-893"/>
<polygon fill="#63b8ff" stroke="#63b8ff" points="299.06,-889.5 289.06,-893 299.06,-896.5 299.06,-889.5"/>
</a>
</g>
</g>
<!-- Node9 -->
<g id="Node000009" class="node">
<title>Node9</title>
<g id="a_Node000009"><a xlink:href="a05489.html" target="_top" xlink:title="Class codecvt&lt;char32_t, char, mbstate_t&gt; specialization.">
<polygon fill="white" stroke="#666666" points="477.5,-813 361.5,-813 361.5,-785 477.5,-785 477.5,-813"/>
<text text-anchor="start" x="369.5" y="-801.8" font-family="Helvetica,sans-Serif" font-size="9.00">std::codecvt&lt; char32</text>
<text text-anchor="middle" x="419.5" y="-791.8" font-family="Helvetica,sans-Serif" font-size="9.00">_t, char, mbstate_t &gt;</text>
</a>
</g>
</g>
<!-- Node8&#45;&gt;Node9 -->
<g id="edge269_Node000008_Node000009" class="edge">
<title>Node8&#45;&gt;Node9</title>
<g id="a_edge269_Node000008_Node000009"><a xlink:title=" ">
<path fill="none" stroke="#63b8ff" d="M299.29,-793.99C319.77,-794.85 341.83,-795.78 361.34,-796.6"/>
<polygon fill="#63b8ff" stroke="#63b8ff" points="299.2,-790.49 289.06,-793.56 298.91,-797.48 299.2,-790.49"/>
</a>
</g>
</g>
<!-- Node11 -->
<g id="Node000011" class="node">
<title>Node11</title>
<g id="a_Node000011"><a xlink:href="a05481.html" target="_top" xlink:title="Class codecvt&lt;wchar_t, char, mbstate_t&gt; specialization.">
<polygon fill="white" stroke="#666666" points="476,-767 363,-767 363,-739 476,-739 476,-767"/>
<text text-anchor="start" x="371" y="-755.8" font-family="Helvetica,sans-Serif" font-size="9.00">std::codecvt&lt; wchar</text>
<text text-anchor="middle" x="419.5" y="-745.8" font-family="Helvetica,sans-Serif" font-size="9.00">_t, char, mbstate_t &gt;</text>
</a>
</g>
</g>
<!-- Node10&#45;&gt;Node11 -->
<g id="edge271_Node000010_Node000011" class="edge">
<title>Node10&#45;&gt;Node11</title>
<g id="a_edge271_Node000010_Node000011"><a xlink:title=" ">
<path fill="none" stroke="#63b8ff" d="M299.24,-741.73C320.3,-743.72 343.03,-745.87 362.94,-747.75"/>
<polygon fill="#63b8ff" stroke="#63b8ff" points="299.35,-738.23 289.06,-740.77 298.69,-745.19 299.35,-738.23"/>
</a>
</g>
</g>
<!-- Node22 -->
<g id="Node000022" class="node">
<title>Node22</title>
<g id="a_Node000022"><a xlink:href="a05473.html" target="_top" xlink:title=" ">
<polygon fill="white" stroke="#666666" points="476,-721 363,-721 363,-693 476,-693 476,-721"/>
<text text-anchor="start" x="371" y="-709.8" font-family="Helvetica,sans-Serif" font-size="9.00">std::codecvt&lt; _Elem,</text>
<text text-anchor="middle" x="419.5" y="-699.8" font-family="Helvetica,sans-Serif" font-size="9.00"> char, mbstate_t &gt;</text>
</a>
</g>
</g>
<!-- Node21&#45;&gt;Node22 -->
<g id="edge274_Node000021_Node000022" class="edge">
<title>Node21&#45;&gt;Node22</title>
<g id="a_edge274_Node000021_Node000022"><a xlink:title=" ">
<path fill="none" stroke="#63b8ff" d="M306.57,-690.55C325.44,-693.32 345.21,-696.23 362.8,-698.81"/>
<polygon fill="#63b8ff" stroke="#63b8ff" points="306.91,-687.06 296.51,-689.07 305.89,-693.99 306.91,-687.06"/>
</a>
</g>
</g>
<!-- Node23 -->
<g id="Node000023" class="node">
<title>Node23</title>
<g id="a_Node000023"><a xlink:href="a05473.html" target="_top" xlink:title="Primary class template codecvt.">
<polygon fill="white" stroke="#666666" points="481.5,-675 357.5,-675 357.5,-647 481.5,-647 481.5,-675"/>
<text text-anchor="start" x="365.5" y="-663.8" font-family="Helvetica,sans-Serif" font-size="9.00">std::codecvt&lt; _InternT,</text>
<text text-anchor="middle" x="419.5" y="-653.8" font-family="Helvetica,sans-Serif" font-size="9.00"> _ExternT, _StateT &gt;</text>
</a>
</g>
</g>
<!-- Node21&#45;&gt;Node23 -->
<g id="edge275_Node000021_Node000023" class="edge">
<title>Node21&#45;&gt;Node23</title>
<g id="a_edge275_Node000021_Node000023"><a xlink:title=" ">
<path fill="none" stroke="#63b8ff" d="M306.87,-671.55C323.68,-669.96 341.2,-668.3 357.24,-666.79"/>
<polygon fill="#63b8ff" stroke="#63b8ff" points="306.13,-668.1 296.51,-672.53 306.79,-675.07 306.13,-668.1"/>
</a>
</g>
</g>
<!-- Node24 -->
<g id="Node000024" class="node">
<title>Node24</title>
<g id="a_Node000024"><a xlink:href="a05493.html" target="_top" xlink:title="class codecvt_byname [22.2.1.6].">
<polygon fill="white" stroke="#666666" points="642,-680 528,-680 528,-642 642,-642 642,-680"/>
<text text-anchor="start" x="536" y="-668.8" font-family="Helvetica,sans-Serif" font-size="9.00">std::codecvt_byname</text>
<text text-anchor="start" x="536" y="-658.8" font-family="Helvetica,sans-Serif" font-size="9.00">&lt; _InternT, _ExternT,</text>
<text text-anchor="middle" x="585" y="-648.8" font-family="Helvetica,sans-Serif" font-size="9.00"> _StateT &gt;</text>
</a>
</g>
</g>
<!-- Node23&#45;&gt;Node24 -->
<g id="edge276_Node000023_Node000024" class="edge">
<title>Node23&#45;&gt;Node24</title>
<g id="a_edge276_Node000023_Node000024"><a xlink:title=" ">
<path fill="none" stroke="#63b8ff" d="M491.9,-661C503.97,-661 516.36,-661 527.97,-661"/>
<polygon fill="#63b8ff" stroke="#63b8ff" points="491.85,-657.5 481.85,-661 491.85,-664.5 491.85,-657.5"/>
</a>
</g>
</g>
<!-- Node15 -->
<g id="Node000015" class="node">
<title>Node15</title>
<g id="a_Node000015"><a xlink:href="a09257.html" target="_top" xlink:title="Base class for ctype.">
<polygon fill="white" stroke="#666666" points="97.5,-489 9.5,-489 9.5,-471 97.5,-471 97.5,-489"/>
<text text-anchor="middle" x="53.5" y="-477.8" font-family="Helvetica,sans-Serif" font-size="9.00">std::ctype_base</text>
</a>
</g>
</g>
<!-- Node13 -->
<g id="Node000013" class="node">
<title>Node13</title>
<g id="a_Node000013"><a xlink:href="a06177.html" target="_top" xlink:title=" ">
<polygon fill="white" stroke="#666666" points="283.5,-540 170.5,-540 170.5,-512 283.5,-512 283.5,-540"/>
<text text-anchor="start" x="178.5" y="-528.8" font-family="Helvetica,sans-Serif" font-size="9.00">std::__ctype_abstract</text>
<text text-anchor="middle" x="227" y="-518.8" font-family="Helvetica,sans-Serif" font-size="9.00">_base&lt; wchar_t &gt;</text>
</a>
</g>
</g>
<!-- Node15&#45;&gt;Node13 -->
<g id="edge277_Node000015_Node000013" class="edge">
<title>Node15&#45;&gt;Node13</title>
<g id="a_edge277_Node000015_Node000013"><a xlink:title=" ">
<path fill="none" stroke="#63b8ff" d="M98.2,-491.72C121.16,-497.88 149.47,-505.47 173.61,-511.95"/>
<polygon fill="#63b8ff" stroke="#63b8ff" points="98.95,-488.3 88.38,-489.09 97.13,-495.06 98.95,-488.3"/>
</a>
</g>
</g>
<!-- Node16 -->
<g id="Node000016" class="node">
<title>Node16</title>
<g id="a_Node000016"><a xlink:href="a06177.html" target="_top" xlink:title="Common base for ctype facet.">
<polygon fill="white" stroke="#666666" points="283.5,-494 170.5,-494 170.5,-466 283.5,-466 283.5,-494"/>
<text text-anchor="start" x="178.5" y="-482.8" font-family="Helvetica,sans-Serif" font-size="9.00">std::__ctype_abstract</text>
<text text-anchor="middle" x="227" y="-472.8" font-family="Helvetica,sans-Serif" font-size="9.00">_base&lt; _CharT &gt;</text>
</a>
</g>
</g>
<!-- Node15&#45;&gt;Node16 -->
<g id="edge279_Node000015_Node000016" class="edge">
<title>Node15&#45;&gt;Node16</title>
<g id="a_edge279_Node000015_Node000016"><a xlink:title=" ">
<path fill="none" stroke="#63b8ff" d="M107.89,-480C127.75,-480 150.33,-480 170.39,-480"/>
<polygon fill="#63b8ff" stroke="#63b8ff" points="107.78,-476.5 97.78,-480 107.78,-483.5 107.78,-476.5"/>
</a>
</g>
</g>
<!-- Node19 -->
<g id="Node000019" class="node">
<title>Node19</title>
<g id="a_Node000019"><a xlink:href="a06185.html" target="_top" xlink:title="The ctype&lt;char&gt; specialization.">
<polygon fill="white" stroke="#666666" points="279,-448 175,-448 175,-430 279,-430 279,-448"/>
<text text-anchor="middle" x="227" y="-436.8" font-family="Helvetica,sans-Serif" font-size="9.00">std::ctype&lt; char &gt;</text>
</a>
</g>
</g>
<!-- Node15&#45;&gt;Node19 -->
<g id="edge282_Node000015_Node000019" class="edge">
<title>Node15&#45;&gt;Node19</title>
<g id="a_edge282_Node000015_Node000019"><a xlink:title=" ">
<path fill="none" stroke="#63b8ff" d="M98.1,-468.29C112.38,-464.56 128.34,-460.49 143,-457 155.91,-453.92 170,-450.79 182.85,-448.01"/>
<polygon fill="#63b8ff" stroke="#63b8ff" points="96.82,-465.01 88.04,-470.94 98.6,-471.78 96.82,-465.01"/>
</a>
</g>
</g>
<!-- Node14 -->
<g id="Node000014" class="node">
<title>Node14</title>
<g id="a_Node000014"><a xlink:href="a06189.html" target="_top" xlink:title="The ctype&lt;wchar_t&gt; specialization.">
<polygon fill="white" stroke="#666666" points="479,-535 360,-535 360,-517 479,-517 479,-535"/>
<text text-anchor="middle" x="419.5" y="-523.8" font-family="Helvetica,sans-Serif" font-size="9.00">std::ctype&lt; wchar_t &gt;</text>
</a>
</g>
</g>
<!-- Node13&#45;&gt;Node14 -->
<g id="edge278_Node000013_Node000014" class="edge">
<title>Node13&#45;&gt;Node14</title>
<g id="a_edge278_Node000013_Node000014"><a xlink:title=" ">
<path fill="none" stroke="#63b8ff" d="M293.64,-526C315.14,-526 338.88,-526 359.83,-526"/>
<polygon fill="#63b8ff" stroke="#63b8ff" points="293.61,-522.5 283.61,-526 293.61,-529.5 293.61,-522.5"/>
</a>
</g>
</g>
<!-- Node17 -->
<g id="Node000017" class="node">
<title>Node17</title>
<g id="a_Node000017"><a xlink:href="a06181.html" target="_top" xlink:title="Primary class template ctype facet.">
<polygon fill="white" stroke="#666666" points="476.5,-489 362.5,-489 362.5,-471 476.5,-471 476.5,-489"/>
<text text-anchor="middle" x="419.5" y="-477.8" font-family="Helvetica,sans-Serif" font-size="9.00">std::ctype&lt; _CharT &gt;</text>
</a>
</g>
</g>
<!-- Node16&#45;&gt;Node17 -->
<g id="edge280_Node000016_Node000017" class="edge">
<title>Node16&#45;&gt;Node17</title>
<g id="a_edge280_Node000016_Node000017"><a xlink:title=" ">
<path fill="none" stroke="#63b8ff" d="M293.71,-480C316.11,-480 340.92,-480 362.49,-480"/>
<polygon fill="#63b8ff" stroke="#63b8ff" points="293.61,-476.5 283.61,-480 293.61,-483.5 293.61,-476.5"/>
</a>
</g>
</g>
<!-- Node18 -->
<g id="Node000018" class="node">
<title>Node18</title>
<g id="a_Node000018"><a xlink:href="a06193.html" target="_top" xlink:title="class ctype_byname [22.2.1.2].">
<polygon fill="white" stroke="#666666" points="640.5,-494 529.5,-494 529.5,-466 640.5,-466 640.5,-494"/>
<text text-anchor="start" x="537.5" y="-482.8" font-family="Helvetica,sans-Serif" font-size="9.00">std::ctype_byname&lt;</text>
<text text-anchor="middle" x="585" y="-472.8" font-family="Helvetica,sans-Serif" font-size="9.00"> _CharT &gt;</text>
</a>
</g>
</g>
<!-- Node17&#45;&gt;Node18 -->
<g id="edge281_Node000017_Node000018" class="edge">
<title>Node17&#45;&gt;Node18</title>
<g id="a_edge281_Node000017_Node000018"><a xlink:title=" ">
<path fill="none" stroke="#63b8ff" d="M486.89,-480C500.97,-480 515.69,-480 529.29,-480"/>
<polygon fill="#63b8ff" stroke="#63b8ff" points="486.77,-476.5 476.77,-480 486.77,-483.5 486.77,-476.5"/>
</a>
</g>
</g>
<!-- Node20 -->
<g id="Node000020" class="node">
<title>Node20</title>
<g id="a_Node000020"><a xlink:href="a06197.html" target="_top" xlink:title="22.2.1.4 Class ctype_byname specializations.">
<polygon fill="white" stroke="#666666" points="475,-453 364,-453 364,-425 475,-425 475,-453"/>
<text text-anchor="start" x="372" y="-441.8" font-family="Helvetica,sans-Serif" font-size="9.00">std::ctype_byname&lt;</text>
<text text-anchor="middle" x="419.5" y="-431.8" font-family="Helvetica,sans-Serif" font-size="9.00"> char &gt;</text>
</a>
</g>
</g>
<!-- Node19&#45;&gt;Node20 -->
<g id="edge283_Node000019_Node000020" class="edge">
<title>Node19&#45;&gt;Node20</title>
<g id="a_edge283_Node000019_Node000020"><a xlink:title=" ">
<path fill="none" stroke="#63b8ff" d="M289.13,-439C313.19,-439 340.6,-439 363.97,-439"/>
<polygon fill="#63b8ff" stroke="#63b8ff" points="289.05,-435.5 279.05,-439 289.05,-442.5 289.05,-435.5"/>
</a>
</g>
</g>
<!-- Node3 -->
<g id="Node000003" class="node">
<title>Node3</title>
<g id="a_Node000003"><a xlink:href="a06141.html" target="_top" xlink:title="Localization functionality base class.">
<polygon fill="white" stroke="#666666" points="99,-428 8,-428 8,-410 99,-410 99,-428"/>
<text text-anchor="middle" x="53.5" y="-416.8" font-family="Helvetica,sans-Serif" font-size="9.00">std::locale::facet</text>
</a>
</g>
</g>
<!-- Node3&#45;&gt;Node1 -->
<g id="edge284_Node000003_Node000001" class="edge">
<title>Node3&#45;&gt;Node1</title>
<g id="a_edge284_Node000003_Node000001"><a xlink:title=" ">
<path fill="none" stroke="#63b8ff" d="M79.01,-434.12C89.01,-441.41 99.87,-450.98 107,-462 140.27,-513.41 101.04,-550.4 143,-595 147.17,-599.43 152.06,-603.16 157.35,-606.3"/>
<polygon fill="#63b8ff" stroke="#63b8ff" points="80.78,-431.09 70.56,-428.31 76.82,-436.86 80.78,-431.09"/>
</a>
</g>
</g>
<!-- Node3&#45;&gt;Node4 -->
<g id="edge285_Node000003_Node000004" class="edge">
<title>Node3&#45;&gt;Node4</title>
<g id="a_edge285_Node000003_Node000004"><a xlink:title=" ">
<path fill="none" stroke="#63b8ff" d="M77.53,-433.97C87.62,-441.43 98.96,-451.17 107,-462 131.94,-495.6 111.66,-521.27 143,-549 146.92,-552.47 151.32,-555.42 155.99,-557.93"/>
<polygon fill="#63b8ff" stroke="#63b8ff" points="79.29,-430.93 69.1,-428.03 75.26,-436.65 79.29,-430.93"/>
</a>
</g>
</g>
<!-- Node3&#45;&gt;Node6 -->
<g id="edge286_Node000003_Node000006" class="edge">
<title>Node3&#45;&gt;Node6</title>
<g id="a_edge286_Node000003_Node000006"><a xlink:title=" ">
<path fill="none" stroke="#63b8ff" d="M80.17,-433.71C90.28,-440.89 100.9,-450.48 107,-462 149.06,-541.47 87.36,-794.37 143,-865 148.74,-872.29 156.46,-877.69 164.88,-881.7"/>
<polygon fill="#63b8ff" stroke="#63b8ff" points="81.83,-430.61 71.55,-428.03 77.98,-436.46 81.83,-430.61"/>
</a>
</g>
</g>
<!-- Node3&#45;&gt;Node8 -->
<g id="edge287_Node000003_Node000008" class="edge">
<title>Node3&#45;&gt;Node8</title>
<g id="a_edge287_Node000003_Node000008"><a xlink:title=" ">
<path fill="none" stroke="#63b8ff" d="M80,-433.8C90.08,-441 100.73,-450.58 107,-462 171.81,-580.12 58.05,-658.43 143,-763 148.75,-770.08 156.37,-775.38 164.66,-779.35"/>
<polygon fill="#63b8ff" stroke="#63b8ff" points="81.69,-430.72 71.42,-428.1 77.82,-436.55 81.69,-430.72"/>
</a>
</g>
</g>
<!-- Node3&#45;&gt;Node10 -->
<g id="edge288_Node000003_Node000010" class="edge">
<title>Node3&#45;&gt;Node10</title>
<g id="a_edge288_Node000003_Node000010"><a xlink:title=" ">
<path fill="none" stroke="#63b8ff" d="M79.64,-433.73C89.76,-440.96 100.53,-450.58 107,-462 161.23,-557.77 72.46,-622.52 143,-707 148.85,-714 156.51,-719.26 164.82,-723.21"/>
<polygon fill="#63b8ff" stroke="#63b8ff" points="81.32,-430.64 71.05,-428.01 77.44,-436.47 81.32,-430.64"/>
</a>
</g>
</g>
<!-- Node3&#45;&gt;Node12 -->
<g id="edge289_Node000003_Node000012" class="edge">
<title>Node3&#45;&gt;Node12</title>
<g id="a_edge289_Node000003_Node000012"><a xlink:title=" ">
<path fill="none" stroke="#63b8ff" d="M80.11,-433.75C90.2,-440.93 100.84,-450.52 107,-462 144.7,-532.26 91.6,-758.04 143,-819 145.89,-822.43 149.25,-825.37 152.91,-827.89"/>
<polygon fill="#63b8ff" stroke="#63b8ff" points="81.77,-430.65 71.5,-428.06 77.92,-436.49 81.77,-430.65"/>
</a>
</g>
</g>
<!-- Node3&#45;&gt;Node21 -->
<g id="edge291_Node000003_Node000021" class="edge">
<title>Node3&#45;&gt;Node21</title>
<g id="a_edge291_Node000003_Node000021"><a xlink:title=" ">
<path fill="none" stroke="#63b8ff" d="M79.41,-433.87C89.49,-441.12 100.29,-450.72 107,-462 150.7,-535.5 86.82,-586.53 143,-651 147.1,-655.7 152.01,-659.61 157.37,-662.87"/>
<polygon fill="#63b8ff" stroke="#63b8ff" points="81.13,-430.8 70.88,-428.12 77.22,-436.6 81.13,-430.8"/>
</a>
</g>
</g>
<!-- Node3&#45;&gt;Node13 -->
<g id="edge290_Node000003_Node000013" class="edge">
<title>Node3&#45;&gt;Node13</title>
<g id="a_edge290_Node000003_Node000013"><a xlink:title=" ">
<path fill="none" stroke="#63b8ff" d="M74.82,-434.37C84.84,-442.26 96.91,-452.25 107,-462 124.44,-478.85 122.46,-490.11 143,-503 151.23,-508.17 160.64,-512.19 170.08,-515.32"/>
<polygon fill="#63b8ff" stroke="#63b8ff" points="76.7,-431.39 66.65,-428.03 72.41,-436.93 76.7,-431.39"/>
</a>
</g>
</g>
<!-- Node3&#45;&gt;Node16 -->
<g id="edge292_Node000003_Node000016" class="edge">
<title>Node3&#45;&gt;Node16</title>
<g id="a_edge292_Node000003_Node000016"><a xlink:title=" ">
<path fill="none" stroke="#63b8ff" d="M82.98,-432.39C100.14,-440.17 122.56,-449.82 143,-457 152.03,-460.17 161.73,-463.2 171.2,-465.95"/>
<polygon fill="#63b8ff" stroke="#63b8ff" points="84.09,-429.05 73.54,-428.06 81.17,-435.41 84.09,-429.05"/>
</a>
</g>
</g>
<!-- Node3&#45;&gt;Node19 -->
<g id="edge295_Node000003_Node000019" class="edge">
<title>Node3&#45;&gt;Node19</title>
<g id="a_edge295_Node000003_Node000019"><a xlink:title=" ">
<path fill="none" stroke="#63b8ff" d="M109.2,-425.38C130.26,-427.84 154.23,-430.63 174.94,-433.05"/>
<polygon fill="#63b8ff" stroke="#63b8ff" points="109.45,-421.88 99.11,-424.2 108.64,-428.84 109.45,-421.88"/>
</a>
</g>
</g>
<!-- Node25 -->
<g id="Node000025" class="node">
<title>Node25</title>
<g id="a_Node000025"><a xlink:href="a06153.html" target="_top" xlink:title="Facet for localized string comparison.">
<polygon fill="white" stroke="#666666" points="286,-238 168,-238 168,-220 286,-220 286,-238"/>
<text text-anchor="middle" x="227" y="-226.8" font-family="Helvetica,sans-Serif" font-size="9.00">std::collate&lt; _CharT &gt;</text>
</a>
</g>
</g>
<!-- Node3&#45;&gt;Node25 -->
<g id="edge293_Node000003_Node000025" class="edge">
<title>Node3&#45;&gt;Node25</title>
<g id="a_edge293_Node000003_Node000025"><a xlink:title=" ">
<path fill="none" stroke="#63b8ff" d="M58.71,-399.6C67.59,-363.54 91.8,-286.3 143,-247 150.25,-241.43 158.86,-237.51 167.74,-234.76"/>
<polygon fill="#63b8ff" stroke="#63b8ff" points="55.2,-399.23 56.35,-409.76 62.02,-400.81 55.2,-399.23"/>
</a>
</g>
</g>
<!-- Node27 -->
<g id="Node000027" class="node">
<title>Node27</title>
<g id="a_Node000027"><a xlink:href="a06301.html" target="_top" xlink:title="Primary class template messages.">
<polygon fill="white" stroke="#666666" points="293.5,-110 160.5,-110 160.5,-92 293.5,-92 293.5,-110"/>
<text text-anchor="middle" x="227" y="-98.8" font-family="Helvetica,sans-Serif" font-size="9.00">std::messages&lt; _CharT &gt;</text>
</a>
</g>
</g>
<!-- Node3&#45;&gt;Node27 -->
<g id="edge296_Node000003_Node000027" class="edge">
<title>Node3&#45;&gt;Node27</title>
<g id="a_edge296_Node000003_Node000027"><a xlink:title=" ">
<path fill="none" stroke="#63b8ff" d="M53.94,-399.95C53.51,-346.87 59.99,-196.14 143,-119 147.97,-114.38 153.83,-110.84 160.11,-108.14"/>
<polygon fill="#63b8ff" stroke="#63b8ff" points="50.45,-400.06 54.13,-409.99 57.44,-399.93 50.45,-400.06"/>
</a>
</g>
</g>
<!-- Node30 -->
<g id="Node000030" class="node">
<title>Node30</title>
<g id="a_Node000030"><a xlink:href="a06289.html" target="_top" xlink:title="Primary class template money_get.">
<polygon fill="white" stroke="#666666" points="292.5,-202 161.5,-202 161.5,-174 292.5,-174 292.5,-202"/>
<text text-anchor="start" x="169.5" y="-190.8" font-family="Helvetica,sans-Serif" font-size="9.00">std::money_get&lt; _CharT,</text>
<text text-anchor="middle" x="227" y="-180.8" font-family="Helvetica,sans-Serif" font-size="9.00"> _InIter &gt;</text>
</a>
</g>
</g>
<!-- Node3&#45;&gt;Node30 -->
<g id="edge298_Node000003_Node000030" class="edge">
<title>Node3&#45;&gt;Node30</title>
<g id="a_edge298_Node000003_Node000030"><a xlink:title=" ">
<path fill="none" stroke="#63b8ff" d="M57.03,-399.91C63.5,-358.97 84.45,-262.29 143,-211 148.4,-206.27 154.69,-202.51 161.35,-199.51"/>
<polygon fill="#63b8ff" stroke="#63b8ff" points="53.56,-399.49 55.58,-409.9 60.49,-400.51 53.56,-399.49"/>
</a>
</g>
</g>
<!-- Node31 -->
<g id="Node000031" class="node">
<title>Node31</title>
<g id="a_Node000031"><a xlink:href="a06293.html" target="_top" xlink:title="Primary class template money_put.">
<polygon fill="white" stroke="#666666" points="293,-156 161,-156 161,-128 293,-128 293,-156"/>
<text text-anchor="start" x="169" y="-144.8" font-family="Helvetica,sans-Serif" font-size="9.00">std::money_put&lt; _CharT,</text>
<text text-anchor="middle" x="227" y="-134.8" font-family="Helvetica,sans-Serif" font-size="9.00"> _OutIter &gt;</text>
</a>
</g>
</g>
<!-- Node3&#45;&gt;Node31 -->
<g id="edge299_Node000003_Node000031" class="edge">
<title>Node3&#45;&gt;Node31</title>
<g id="a_edge299_Node000003_Node000031"><a xlink:title=" ">
<path fill="none" stroke="#63b8ff" d="M55.4,-399.35C58.67,-351.84 73.75,-229.9 143,-165 148.13,-160.19 154.17,-156.38 160.62,-153.35"/>
<polygon fill="#63b8ff" stroke="#63b8ff" points="51.9,-399.32 54.81,-409.51 58.89,-399.73 51.9,-399.32"/>
</a>
</g>
</g>
<!-- Node32 -->
<g id="Node000032" class="node">
<title>Node32</title>
<g id="a_Node000032"><a xlink:href="a06281.html" target="_top" xlink:title="Primary class template moneypunct.">
<polygon fill="white" stroke="#666666" points="296.5,-74 157.5,-74 157.5,-46 296.5,-46 296.5,-74"/>
<text text-anchor="start" x="165.5" y="-62.8" font-family="Helvetica,sans-Serif" font-size="9.00">std::moneypunct&lt; _CharT,</text>
<text text-anchor="middle" x="227" y="-52.8" font-family="Helvetica,sans-Serif" font-size="9.00"> _Intl &gt;</text>
</a>
</g>
</g>
<!-- Node3&#45;&gt;Node32 -->
<g id="edge300_Node000003_Node000032" class="edge">
<title>Node3&#45;&gt;Node32</title>
<g id="a_edge300_Node000003_Node000032"><a xlink:title=" ">
<path fill="none" stroke="#63b8ff" d="M57.01,-399.96C65.82,-335.84 97.32,-129.27 143,-83 147.2,-78.74 152.12,-75.26 157.42,-72.4"/>
<polygon fill="#63b8ff" stroke="#63b8ff" points="53.54,-399.52 55.67,-409.9 60.47,-400.46 53.54,-399.52"/>
</a>
</g>
</g>
<!-- Node35 -->
<g id="Node000035" class="node">
<title>Node35</title>
<g id="a_Node000035"><a xlink:href="a06221.html" target="_top" xlink:title="Primary class template num_get.">
<polygon fill="white" stroke="#666666" points="288,-412 166,-412 166,-384 288,-384 288,-412"/>
<text text-anchor="start" x="174" y="-400.8" font-family="Helvetica,sans-Serif" font-size="9.00">std::num_get&lt; _CharT,</text>
<text text-anchor="middle" x="227" y="-390.8" font-family="Helvetica,sans-Serif" font-size="9.00"> _InIter &gt;</text>
</a>
</g>
</g>
<!-- Node3&#45;&gt;Node35 -->
<g id="edge302_Node000003_Node000035" class="edge">
<title>Node3&#45;&gt;Node35</title>
<g id="a_edge302_Node000003_Node000035"><a xlink:title=" ">
<path fill="none" stroke="#63b8ff" d="M109.17,-412.31C127.21,-410.1 147.37,-407.63 165.79,-405.37"/>
<polygon fill="#63b8ff" stroke="#63b8ff" points="108.61,-408.85 99.11,-413.54 109.46,-415.8 108.61,-408.85"/>
</a>
</g>
</g>
<!-- Node36 -->
<g id="Node000036" class="node">
<title>Node36</title>
<g id="a_Node000036"><a xlink:href="a06225.html" target="_top" xlink:title="Primary class template num_put.">
<polygon fill="white" stroke="#666666" points="288,-366 166,-366 166,-338 288,-338 288,-366"/>
<text text-anchor="start" x="174" y="-354.8" font-family="Helvetica,sans-Serif" font-size="9.00">std::num_put&lt; _CharT,</text>
<text text-anchor="middle" x="227" y="-344.8" font-family="Helvetica,sans-Serif" font-size="9.00"> _OutIter &gt;</text>
</a>
</g>
</g>
<!-- Node3&#45;&gt;Node36 -->
<g id="edge303_Node000003_Node000036" class="edge">
<title>Node3&#45;&gt;Node36</title>
<g id="a_edge303_Node000003_Node000036"><a xlink:title=" ">
<path fill="none" stroke="#63b8ff" d="M79.34,-405.05C96.77,-395.66 120.83,-383.49 143,-375 151.52,-371.74 160.69,-368.72 169.72,-366.02"/>
<polygon fill="#63b8ff" stroke="#63b8ff" points="77.49,-402.07 70.39,-409.94 80.85,-408.21 77.49,-402.07"/>
</a>
</g>
</g>
<!-- Node37 -->
<g id="Node000037" class="node">
<title>Node37</title>
<g id="a_Node000037"><a xlink:href="a06213.html" target="_top" xlink:title="Primary class template numpunct.">
<polygon fill="white" stroke="#666666" points="295.5,-320 158.5,-320 158.5,-302 295.5,-302 295.5,-320"/>
<text text-anchor="middle" x="227" y="-308.8" font-family="Helvetica,sans-Serif" font-size="9.00">std::numpunct&lt; _CharT &gt;</text>
</a>
</g>
</g>
<!-- Node3&#45;&gt;Node37 -->
<g id="edge304_Node000003_Node000037" class="edge">
<title>Node3&#45;&gt;Node37</title>
<g id="a_edge304_Node000003_Node000037"><a xlink:title=" ">
<path fill="none" stroke="#63b8ff" d="M66.51,-401.71C81.81,-381.06 110.23,-347.06 143,-329 149.72,-325.3 157.13,-322.36 164.67,-320.02"/>
<polygon fill="#63b8ff" stroke="#63b8ff" points="63.61,-399.74 60.61,-409.9 69.29,-403.83 63.61,-399.74"/>
</a>
</g>
</g>
<!-- Node39 -->
<g id="Node000039" class="node">
<title>Node39</title>
<g id="a_Node000039"><a xlink:href="a06253.html" target="_top" xlink:title="Primary class template time_get.">
<polygon fill="white" stroke="#666666" points="287.5,-28 166.5,-28 166.5,0 287.5,0 287.5,-28"/>
<text text-anchor="start" x="174.5" y="-16.8" font-family="Helvetica,sans-Serif" font-size="9.00">std::time_get&lt; _CharT,</text>
<text text-anchor="middle" x="227" y="-6.8" font-family="Helvetica,sans-Serif" font-size="9.00"> _InIter &gt;</text>
</a>
</g>
</g>
<!-- Node3&#45;&gt;Node39 -->
<g id="edge306_Node000003_Node000039" class="edge">
<title>Node3&#45;&gt;Node39</title>
<g id="a_edge306_Node000003_Node000039"><a xlink:title=" ">
<path fill="none" stroke="#63b8ff" d="M57.77,-399.81C70.46,-326.11 117.13,-64 143,-37 149.41,-30.31 157.59,-25.51 166.3,-22.07"/>
<polygon fill="#63b8ff" stroke="#63b8ff" points="54.27,-399.51 56.03,-409.96 61.17,-400.69 54.27,-399.51"/>
</a>
</g>
</g>
<!-- Node42 -->
<g id="Node000042" class="node">
<title>Node42</title>
<g id="a_Node000042"><a xlink:href="a06261.html" target="_top" xlink:title="Primary class template time_put.">
<polygon fill="white" stroke="#666666" points="288,-284 166,-284 166,-256 288,-256 288,-284"/>
<text text-anchor="start" x="174" y="-272.8" font-family="Helvetica,sans-Serif" font-size="9.00">std::time_put&lt; _CharT,</text>
<text text-anchor="middle" x="227" y="-262.8" font-family="Helvetica,sans-Serif" font-size="9.00"> _OutIter &gt;</text>
</a>
</g>
</g>
<!-- Node3&#45;&gt;Node42 -->
<g id="edge308_Node000003_Node000042" class="edge">
<title>Node3&#45;&gt;Node42</title>
<g id="a_edge308_Node000003_Node000042"><a xlink:title=" ">
<path fill="none" stroke="#63b8ff" d="M62.49,-400.43C75.35,-372.77 103.29,-321.01 143,-293 149.84,-288.17 157.66,-284.36 165.71,-281.34"/>
<polygon fill="#63b8ff" stroke="#63b8ff" points="59.21,-399.2 58.31,-409.75 65.6,-402.06 59.21,-399.2"/>
</a>
</g>
</g>
<!-- Node26 -->
<g id="Node000026" class="node">
<title>Node26</title>
<g id="a_Node000026"><a xlink:href="a06157.html" target="_top" xlink:title="class collate_byname [22.2.4.2].">
<polygon fill="white" stroke="#666666" points="473,-238 366,-238 366,-210 473,-210 473,-238"/>
<text text-anchor="start" x="374" y="-226.8" font-family="Helvetica,sans-Serif" font-size="9.00">std::collate_byname</text>
<text text-anchor="middle" x="419.5" y="-216.8" font-family="Helvetica,sans-Serif" font-size="9.00">&lt; _CharT &gt;</text>
</a>
</g>
</g>
<!-- Node25&#45;&gt;Node26 -->
<g id="edge294_Node000025_Node000026" class="edge">
<title>Node25&#45;&gt;Node26</title>
<g id="a_edge294_Node000025_Node000026"><a xlink:title=" ">
<path fill="none" stroke="#63b8ff" d="M296.2,-227.21C319.11,-226.61 344.31,-225.95 365.85,-225.38"/>
<polygon fill="#63b8ff" stroke="#63b8ff" points="296.1,-223.71 286.19,-227.47 296.28,-230.71 296.1,-223.71"/>
</a>
</g>
</g>
<!-- Node28 -->
<g id="Node000028" class="node">
<title>Node28</title>
<g id="a_Node000028"><a xlink:href="a06305.html" target="_top" xlink:title="class messages_byname [22.2.7.2].">
<polygon fill="white" stroke="#666666" points="480.5,-120 358.5,-120 358.5,-92 480.5,-92 480.5,-120"/>
<text text-anchor="start" x="366.5" y="-108.8" font-family="Helvetica,sans-Serif" font-size="9.00">std::messages_byname</text>
<text text-anchor="middle" x="419.5" y="-98.8" font-family="Helvetica,sans-Serif" font-size="9.00">&lt; _CharT &gt;</text>
</a>
</g>
</g>
<!-- Node27&#45;&gt;Node28 -->
<g id="edge297_Node000027_Node000028" class="edge">
<title>Node27&#45;&gt;Node28</title>
<g id="a_edge297_Node000027_Node000028"><a xlink:title=" ">
<path fill="none" stroke="#63b8ff" d="M303.79,-102.99C321.89,-103.46 340.97,-103.97 358.26,-104.42"/>
<polygon fill="#63b8ff" stroke="#63b8ff" points="303.65,-99.48 293.56,-102.72 303.46,-106.48 303.65,-99.48"/>
</a>
</g>
</g>
<!-- Node33 -->
<g id="Node000033" class="node">
<title>Node33</title>
<g id="a_Node000033"><a xlink:href="a06285.html" target="_top" xlink:title="class moneypunct_byname [22.2.6.4].">
<polygon fill="white" stroke="#666666" points="487.5,-74 351.5,-74 351.5,-46 487.5,-46 487.5,-74"/>
<text text-anchor="start" x="359.5" y="-62.8" font-family="Helvetica,sans-Serif" font-size="9.00">std::moneypunct_byname</text>
<text text-anchor="middle" x="419.5" y="-52.8" font-family="Helvetica,sans-Serif" font-size="9.00">&lt; _CharT, _Intl &gt;</text>
</a>
</g>
</g>
<!-- Node32&#45;&gt;Node33 -->
<g id="edge301_Node000032_Node000033" class="edge">
<title>Node32&#45;&gt;Node33</title>
<g id="a_edge301_Node000032_Node000033"><a xlink:title=" ">
<path fill="none" stroke="#63b8ff" d="M306.65,-60C321.46,-60 336.82,-60 351.24,-60"/>
<polygon fill="#63b8ff" stroke="#63b8ff" points="306.51,-56.5 296.51,-60 306.51,-63.5 306.51,-56.5"/>
</a>
</g>
</g>
<!-- Node38 -->
<g id="Node000038" class="node">
<title>Node38</title>
<g id="a_Node000038"><a xlink:href="a06217.html" target="_top" xlink:title="class numpunct_byname [22.2.3.2].">
<polygon fill="white" stroke="#666666" points="482.5,-330 356.5,-330 356.5,-302 482.5,-302 482.5,-330"/>
<text text-anchor="start" x="364.5" y="-318.8" font-family="Helvetica,sans-Serif" font-size="9.00">std::numpunct_byname</text>
<text text-anchor="middle" x="419.5" y="-308.8" font-family="Helvetica,sans-Serif" font-size="9.00">&lt; _CharT &gt;</text>
</a>
</g>
</g>
<!-- Node37&#45;&gt;Node38 -->
<g id="edge305_Node000037_Node000038" class="edge">
<title>Node37&#45;&gt;Node38</title>
<g id="a_edge305_Node000037_Node000038"><a xlink:title=" ">
<path fill="none" stroke="#63b8ff" d="M306.04,-313.05C322.82,-313.49 340.34,-313.95 356.42,-314.37"/>
<polygon fill="#63b8ff" stroke="#63b8ff" points="305.79,-309.54 295.7,-312.78 305.6,-316.54 305.79,-309.54"/>
</a>
</g>
</g>
<!-- Node40 -->
<g id="Node000040" class="node">
<title>Node40</title>
<g id="a_Node000040"><a xlink:href="a06257.html" target="_top" xlink:title="class time_get_byname [22.2.5.2].">
<polygon fill="white" stroke="#666666" points="478.5,-28 360.5,-28 360.5,0 478.5,0 478.5,-28"/>
<text text-anchor="start" x="368.5" y="-16.8" font-family="Helvetica,sans-Serif" font-size="9.00">std::time_get_byname</text>
<text text-anchor="middle" x="419.5" y="-6.8" font-family="Helvetica,sans-Serif" font-size="9.00">&lt; _CharT, _InIter &gt;</text>
</a>
</g>
</g>
<!-- Node39&#45;&gt;Node40 -->
<g id="edge307_Node000039_Node000040" class="edge">
<title>Node39&#45;&gt;Node40</title>
<g id="a_edge307_Node000039_Node000040"><a xlink:title=" ">
<path fill="none" stroke="#63b8ff" d="M297.97,-14C318.44,-14 340.6,-14 360.26,-14"/>
<polygon fill="#63b8ff" stroke="#63b8ff" points="297.75,-10.5 287.75,-14 297.75,-17.5 297.75,-10.5"/>
</a>
</g>
</g>
<!-- Node43 -->
<g id="Node000043" class="node">
<title>Node43</title>
<g id="a_Node000043"><a xlink:href="a06265.html" target="_top" xlink:title="class time_put_byname [22.2.5.4].">
<polygon fill="white" stroke="#666666" points="479,-284 360,-284 360,-256 479,-256 479,-284"/>
<text text-anchor="start" x="368" y="-272.8" font-family="Helvetica,sans-Serif" font-size="9.00">std::time_put_byname</text>
<text text-anchor="middle" x="419.5" y="-262.8" font-family="Helvetica,sans-Serif" font-size="9.00">&lt; _CharT, _OutIter &gt;</text>
</a>
</g>
</g>
<!-- Node42&#45;&gt;Node43 -->
<g id="edge309_Node000042_Node000043" class="edge">
<title>Node42&#45;&gt;Node43</title>
<g id="a_edge309_Node000042_Node000043"><a xlink:title=" ">
<path fill="none" stroke="#63b8ff" d="M298.12,-270C318.38,-270 340.28,-270 359.77,-270"/>
<polygon fill="#63b8ff" stroke="#63b8ff" points="298.01,-266.5 288.01,-270 298.01,-273.5 298.01,-266.5"/>
</a>
</g>
</g>
<!-- Node29 -->
<g id="Node000029" class="node">
<title>Node29</title>
<g id="a_Node000029"><a xlink:href="a06297.html" target="_top" xlink:title="Messages facet base class providing catalog typedef.">
<polygon fill="white" stroke="#666666" points="107,-110 0,-110 0,-92 107,-92 107,-110"/>
<text text-anchor="middle" x="53.5" y="-98.8" font-family="Helvetica,sans-Serif" font-size="9.00">std::messages_base</text>
</a>
</g>
</g>
<!-- Node29&#45;&gt;Node27 -->
<g id="edge310_Node000029_Node000027" class="edge">
<title>Node29&#45;&gt;Node27</title>
<g id="a_edge310_Node000029_Node000027"><a xlink:title=" ">
<path fill="none" stroke="#63b8ff" d="M117.36,-101C131.35,-101 146.21,-101 160.3,-101"/>
<polygon fill="#63b8ff" stroke="#63b8ff" points="117.36,-97.5 107.36,-101 117.36,-104.5 117.36,-97.5"/>
</a>
</g>
</g>
<!-- Node34 -->
<g id="Node000034" class="node">
<title>Node34</title>
<g id="a_Node000034"><a xlink:href="a06269.html" target="_top" xlink:title="Money format ordering data.">
<polygon fill="white" stroke="#666666" points="100,-69 7,-69 7,-51 100,-51 100,-69"/>
<text text-anchor="middle" x="53.5" y="-57.8" font-family="Helvetica,sans-Serif" font-size="9.00">std::money_base</text>
</a>
</g>
</g>
<!-- Node34&#45;&gt;Node32 -->
<g id="edge311_Node000034_Node000032" class="edge">
<title>Node34&#45;&gt;Node32</title>
<g id="a_edge311_Node000034_Node000032"><a xlink:title=" ">
<path fill="none" stroke="#63b8ff" d="M110.17,-60C125.21,-60 141.67,-60 157.33,-60"/>
<polygon fill="#63b8ff" stroke="#63b8ff" points="110.01,-56.5 100.01,-60 110.01,-63.5 110.01,-56.5"/>
</a>
</g>
</g>
<!-- Node41 -->
<g id="Node000041" class="node">
<title>Node41</title>
<g id="a_Node000041"><a xlink:href="a06237.html" target="_top" xlink:title="Time format ordering data.">
<polygon fill="white" stroke="#666666" points="95,-23 12,-23 12,-5 95,-5 95,-23"/>
<text text-anchor="middle" x="53.5" y="-11.8" font-family="Helvetica,sans-Serif" font-size="9.00">std::time_base</text>
</a>
</g>
</g>
<!-- Node41&#45;&gt;Node39 -->
<g id="edge312_Node000041_Node000039" class="edge">
<title>Node41&#45;&gt;Node39</title>
<g id="a_edge312_Node000041_Node000039"><a xlink:title=" ">
<path fill="none" stroke="#63b8ff" d="M105.21,-14C124.44,-14 146.51,-14 166.49,-14"/>
<polygon fill="#63b8ff" stroke="#63b8ff" points="105.14,-10.5 95.14,-14 105.14,-17.5 105.14,-10.5"/>
</a>
</g>
</g>
</g>
</svg>
